<?xml version="1.0" encoding="UTF-8"?>
<svg width="100%" height="100%" viewBox="0 0 45 45" version="1.1" xmlns="http://www.w3.org/2000/svg" xmlns:xlink="http://www.w3.org/1999/xlink">
                <path d="M18.073,2.05989488 C19.788,2.49189488 21.109,2.70889488 22.037,2.70889488 C22.988,2.70889488 24.56,2.59489488 26.756,2.36889488 L26.755,2.36789488 C27.144,2.32889488 27.536,2.40389488 27.883,2.58489488 C28.276,2.79089488 28.689,2.99089488 29.124,3.18789488 C30.069,3.61489488 36.392,6.12189488 37.194,6.89089488 C37.997,7.65989488 39.398,9.51589488 39.891,11.3858949 C40.22,12.6328949 41.065,15.6718949 42.426,20.5038949 C42.396,20.8108949 42.278,21.0328949 42.073,21.1698949 C41.765,21.3758949 40.108,22.3868949 38.651,22.6438949 C37.68,22.8148949 36.39,22.6908949 34.781,22.2718949 L34.41,20.1328949 C34.292,19.7828949 34.141,19.6068949 33.958,19.6068949 C33.775,19.6068949 33.623,20.0228949 33.503,20.8528949 L33.251,25.9498949 L33.503,42.4518949 C29.52,43.0028949 26.908,43.2788949 25.666,43.2788949 C23.803,43.2788949 15.803,43.9008949 10.751,42.1398949 L10.751,35.9948949 C10.885,30.9628949 10.953,28.0648949 10.953,27.3008949 C10.953,26.1548949 10.475,20.3788949 10.171,20.1328949 C9.867,19.8868949 9.725,20.1558949 9.725,20.5038949 C9.725,20.7368949 9.631,21.3688949 9.441,22.4008949 C7.385,22.5618949 6.06,22.6428949 5.469,22.6428949 C4.581,22.6428949 2,21.6558949 2,21.4128949 C2,21.1698949 2.125,18.5998949 2.556,16.5718949 C2.986,14.5448949 5.411,8.22289488 6.37,7.24689488 C7.009,6.59689488 9.358,5.49389488 13.416,3.93789488 L16.433,2.30489488 L16.855,2.13889488 C17.243,1.98589488 17.669,1.95889488 18.073,2.05989488"></path>
</svg>
