<?xml version="1.0" encoding="UTF-8"?>
<svg width="100%" height="100%" viewBox="0 0 45 45" version="1.1" xmlns="http://www.w3.org/2000/svg" xmlns:xlink="http://www.w3.org/1999/xlink">
                <path d="M21.9255028,41.784263 C25.9592126,41.784263 29.8098465,41.430987 33.4774044,40.7244351 L33.503,42.4518949 C29.52,43.0028949 26.908,43.2788949 25.666,43.2788949 C23.803,43.2788949 15.803,43.9008949 10.751,42.1398949 L10.7495896,40.723975 C14.1656132,41.4308337 17.8909176,41.784263 21.9255028,41.784263 Z M21.9255028,37.1512775 C25.9372849,37.1512775 29.7679761,37.0356331 33.4175763,36.8043444 L33.4485394,38.9168325 C29.476646,39.2646683 25.6356338,39.4385862 21.9255028,39.4385862 C18.1914036,39.4385862 14.4665811,39.262414 10.7510352,38.9100695 L10.7506085,36.8004589 C14.1663539,37.034338 17.8913187,37.1512775 21.9255028,37.1512775 Z M21.942724,32.2765691 C25.9222,32.2765691 29.7234898,32.2266265 33.3465936,32.1267412 L33.378424,34.3355927 C29.4375548,34.4877828 25.6256548,34.5638778 21.942724,34.5638778 C18.2177622,34.5638778 14.5020318,34.4860361 10.7955326,34.3303525 C10.8159686,33.5268105 10.8348552,32.7922558 10.851665,32.1242554 C14.2436639,32.2260682 17.9410675,32.2765691 21.942724,32.2765691 Z M21.9477893,26.6686259 C25.5938283,26.6686259 29.3662656,26.7504128 33.2651013,26.9139867 L33.3036087,29.3398876 C29.69495,29.2313135 25.9096769,29.1770265 21.9477893,29.1770265 C17.9706174,29.1770265 14.2939866,29.2317332 10.9178971,29.3411466 C10.938209,28.4404584 10.9495708,27.8114693 10.9523343,27.4527708 L10.953,27.3008949 C10.953,27.2048347 10.9496415,27.0762435 10.9433085,26.9211048 C14.6020223,26.751825 18.2704073,26.6686259 21.9477893,26.6686259 Z M21.8359728,20.5904545 C25.5873114,20.5904545 29.4724546,20.7444489 33.4914025,21.0524375 L33.3510327,23.9189245 C29.6945316,23.6096909 25.8561783,23.4550741 21.8359728,23.4550741 C17.8272548,23.4550741 14.1238646,23.6088085 10.7258021,23.9162774 C10.6308839,22.8653991 10.5155241,21.802129 10.4025385,21.0701814 C14.2043455,20.7501936 18.0153033,20.5904545 21.8359728,20.5904545 Z M21.7113543,14.5045767 C26.6210672,14.5045767 31.2595524,14.804739 35.6268097,15.4050636 C35.3337472,16.3390469 35.0334649,17.3618999 34.724724,18.4739885 C30.2137489,18.1571072 25.8763616,17.9984336 21.7113543,17.9984336 C17.5387668,17.9984336 13.3711154,18.1576853 9.20839983,18.4761888 C8.921962,17.4664854 8.58882069,16.4501028 8.20976872,15.4283851 C12.2390644,14.8122657 16.740466,14.5045767 21.7113543,14.5045767 Z M21.7644651,8.50841412 C26.7808388,8.50841412 32.0530989,9.08002909 37.5812456,10.223259 C37.2220728,10.9465106 36.8453293,11.8517145 36.4513074,12.9395304 C31.8449664,12.1885367 26.9491858,11.8130522 21.7644651,11.8130522 C16.3526639,11.8130522 11.5120629,12.2221479 7.24266217,13.0403394 C6.85667652,12.1533018 6.43453953,11.2617189 5.97830698,10.3661739 C10.0299531,9.25064454 14.0653342,8.50841412 21.7644651,8.50841412 Z M14.7549218,3.21465398 C16.2705489,4.57648145 18.0715646,5.37310899 20.1579689,5.6045366 C23.5190316,5.97735155 27.8948853,5.11010706 29.7080769,3.43770655 C30.4370222,3.74285635 31.6511948,4.24179803 32.8952241,4.77470049 L33.5296548,5.0484768 C35.2165329,5.78224436 36.8165882,6.52901252 37.194,6.89089488 C37.3653192,7.05496017 37.5638579,7.26850326 37.7749913,7.52110406 C32.7673843,6.78044522 27.4418723,6.41074038 21.799109,6.41074038 C15.8317971,6.41074038 10.5869238,6.82419605 6.06448889,7.65110738 C6.17850403,7.47526376 6.2806193,7.33786001 6.37,7.24689488 C7.009,6.59689488 9.358,5.49389488 13.416,3.93789488 L14.7549218,3.21465398 Z"></path>
</svg>
