<?xml version="1.0" encoding="UTF-8"?>
<svg width="100%" height="100%" viewBox="0 0 45 45" version="1.1" xmlns="http://www.w3.org/2000/svg" xmlns:xlink="http://www.w3.org/1999/xlink">
                <path d="M39.891,11.3858949 C40.22,12.6328949 41.065,15.6718949 42.426,20.5038949 C42.396,20.8108949 42.278,21.0328949 42.073,21.1698949 C41.765,21.3758949 40.108,22.3868949 38.651,22.6438949 C37.68,22.8148949 36.39,22.6908949 34.781,22.2718949 L34.41,20.1328949 C34.3846355,20.0576612 34.3577463,19.9904672 34.3293422,19.9313328 L34.2753958,20.1328949 C35.950372,13.8021199 37.3888565,9.96517943 38.5908494,8.62207348 C39.1291083,9.43784536 39.633709,10.4099635 39.891,11.3858949 Z M9.725,20.5038949 L9.725,20.5070735 L9.72333045,20.5647474 C9.70997041,20.8364925 9.61638462,21.4482795 9.441,22.4008949 C7.385,22.5618949 6.06,22.6428949 5.469,22.6428949 C4.581,22.6428949 2,21.6558949 2,21.4128949 C2,21.1698949 2.125,18.5998949 2.556,16.5718949 C2.86659006,15.1077878 4.21801318,11.4028897 5.3060253,9.09031743 C7.41392568,12.9694562 8.88643099,16.7735099 9.725,20.5038949 Z"></path>
</svg>
