<?xml version="1.0" encoding="UTF-8"?>
<svg width="100%" height="100%" viewBox="0 0 45 45" version="1.1" xmlns="http://www.w3.org/2000/svg" xmlns:xlink="http://www.w3.org/1999/xlink">
                <path d="M42.426,20.5038949 C42.396,20.8108949 42.278,21.0328949 42.073,21.1698949 C41.765,21.3758949 40.108,22.3868949 38.651,22.6438949 C37.68,22.8148949 36.39,22.6908949 34.781,22.2718949 L34.5284085,20.8147255 C36.0677017,21.0948659 37.3784141,21.1622673 38.4605458,21.0169294 C39.7657624,20.5928388 40.9989947,20.1063635 42.1602426,19.5575036 C42.2456201,19.8633109 42.3346477,20.1795639 42.426,20.5038949 Z M5.25748969,21.1041631 C6.80186738,21.1041631 8.28396174,21.0008594 9.70377276,20.7942522 C9.66518006,21.120042 9.57807244,21.6563751 9.441,22.4008949 C7.385,22.5618949 6.06,22.6428949 5.469,22.6428949 C4.581,22.6428949 2,21.6558949 2,21.4128949 C2,21.3049464 2.02466779,20.7377825 2.08987087,19.9629163 C3.26218027,20.5520331 4.31786549,20.9325479 5.25748969,21.1041631 Z"></path>
</svg>
