<?xml version="1.0" encoding="UTF-8"?>
<svg width="100%" height="100%" viewBox="0 0 45 45" version="1.1" xmlns="http://www.w3.org/2000/svg" xmlns:xlink="http://www.w3.org/1999/xlink">
                <path d="M26,38 L25.9981168,43.2733604 C25.8782526,43.2770499 25.7675472,43.2788949 25.666,43.2788949 C24.9130789,43.2788949 23.157785,43.3804878 20.999819,43.3853137 L21,38 C21.9851796,38.3349698 22.8697046,38.5024547 23.6535748,38.5024547 C24.437445,38.5024547 25.2195868,38.3349698 26,38 Z M16,38 L15.9997173,43.177363 C14.147414,42.9994234 12.3090175,42.6829806 10.751,42.1398949 L10.7504287,38.2307879 C11.2535325,38.4118991 11.9065581,38.5024547 12.7095056,38.5024547 C13.8014923,38.5024547 14.8983237,38.3349698 16,38 Z M31,33 L30.9993824,37.979 L31.0233142,37.9863922 C31.6486058,38.1533939 32.3829019,38.1579299 33.2262024,38 L33.4330888,37.9567065 L33.503,42.4518949 C32.5936302,42.5776952 31.7557262,42.6891607 30.989276,42.7862794 L30.8003824,38.08 L30.7075671,38.1177628 C30.0209923,38.3742241 29.3047976,38.5024547 28.5589831,38.5024547 C27.7066237,38.5024547 26.8536293,38.3349698 26,38 L26,33.4809873 C26.8809296,33.680189 27.733924,33.7401056 28.5589831,33.660737 C29.3840422,33.5813684 30.1977145,33.3611227 31,33 Z M21,33.660737 L21,38 C20.1508378,38.3349698 19.3121545,38.5024547 18.4839502,38.5024547 C17.6557458,38.5024547 16.8277624,38.3349698 16,38 L16,33.660737 C16.8645342,33.9527145 17.7083789,34.0987032 18.5315341,34.0987032 C19.3546892,34.0987032 20.1775112,33.9527145 21,33.660737 Z M10.9482269,27.8017661 L13.3096126,28 L16,28 C15.8004671,28.8526504 15.7007007,29.7657159 15.7007007,30.7391965 C15.7007007,31.7126771 15.8004671,32.6865239 16,33.660737 C14.6366057,33.7564 13.5397742,33.7564 12.7095056,33.660737 C12.0715494,33.5872321 11.4427835,33.4401739 10.8232079,33.2195625 C10.8931673,30.5223372 10.9348127,28.7170663 10.9482269,27.8017661 Z M26,28.5775506 L26,33.4809873 L21,33.660737 L21,28.5775506 L26,28.5775506 L26,28.5775506 Z M33.2750888,27.5987065 L33.3653956,33.4708927 C32.5769304,33.4311687 31.7884652,33.2742045 31,33 C31.1535906,31.8972108 31.2303859,30.9737062 31.2303859,30.2294862 C31.2303859,29.6341102 31.1812369,29.0394113 31.0829389,28.4453894 L30.9993824,28 L33.2750888,27.5987065 Z M31,23 C31.1535906,23.8333333 31.2303859,24.6666667 31.2303859,25.5 C31.2303859,26.1666667 31.1812369,26.8333333 31.0829389,27.5 L31,28 L30.5685108,28.1371849 C29.8528968,28.3521843 29.1549563,28.4989729 28.4746893,28.5775506 C27.6583689,28.6718439 26.8334724,28.6718439 26,28.5775506 L26,23.6088616 C26.7985132,23.7125239 27.6234096,23.7125239 28.4746893,23.6088616 C29.3259689,23.5051993 30.1677392,23.3022454 31,23 Z M21,23.6088616 L21,28.5775506 C20.0293473,28.6694713 19.1461308,28.6694713 18.3503503,28.5775506 C17.5545699,28.4856299 16.7711198,28.2931131 16,28 C15.8004671,26.9654205 15.7007007,26.1320872 15.7007007,25.5 L15.7007007,23.6088616 C16.5846923,23.8165716 17.4679089,23.9204266 18.3503503,23.9204266 C19.2327918,23.9204266 20.1160083,23.8165716 21,23.6088616 Z M26,18 C26.2047664,18.6318893 26.3071496,19.4652226 26.3071496,20.5 C26.3071496,21.5347774 26.2047664,22.5710646 26,23.6088616 C25.3196785,23.8165716 24.5375368,23.9204266 23.6535748,23.9204266 C22.7696128,23.9204266 21.8850879,23.8165716 21,23.6088616 C20.7648918,22.408377 20.6473377,21.4230492 20.6473377,20.6528782 C20.6473377,19.8827072 20.7648918,19.1146638 21,18.348748 L26,18 Z M8.11764839,12.4547212 C8.67746539,12.5402238 9.5113243,12.7219834 10.6192251,13 C10.601723,13.6733881 10.4837809,14.4650271 10.2653986,15.3749171 C10.0535099,16.257752 9.88927763,17.1572338 9.77270183,18.0733627 C11.3177003,18.2000755 12.4371422,18.2916655 13.1326993,18.348748 C13.9576869,18.4164525 14.9134538,18.4164525 16,18.348748 C15.8004671,19.4025303 15.7007007,20.2730188 15.7007007,20.9602133 L15.7007007,23.6088616 L10.6685152,23.3028813 C10.5123403,21.7142216 10.3206012,20.2539538 10.171,20.1328949 C9.867,19.8868949 9.725,20.1558949 9.725,20.5038949 L9.57307107,19.8556213 C8.96762474,17.3732923 8.08274762,14.8584911 6.91843972,12.3112177 C7.37359572,12.3543314 7.77326097,12.4021218 8.11764839,12.4547212 Z M34.4005604,19.6628193 L34.3000944,20.038654 L34.3290057,19.9306328 C34.2253376,19.715129 34.1015083,19.6068949 33.958,19.6068949 C33.775,19.6068949 33.623,20.0228949 33.503,20.8528949 L33.4130888,22.6517065 L31,23 C31.1535906,22.330856 31.2303859,21.5484821 31.2303859,20.6528782 C31.2303859,19.9363951 31.1812369,19.2271511 31.0829389,18.5251463 L31,18 C32.0598613,18.0604884 32.8931946,18.0604884 33.5,18 C33.8841266,17.9617089 34.3590294,17.8810807 34.9247083,17.7581153 C34.7537464,18.3633444 34.5785069,18.9988077 34.4005604,19.6628193 Z M18.3503503,12.7775084 C19.2332149,12.7775084 20.1164314,12.8516723 21,13 C21.1781331,13.9379184 21.2671997,14.8449204 21.2671997,15.7210061 C21.2671997,16.4510775 21.2053479,17.1810296 21.0816444,17.9108625 L21,18.348748 L21,18.348748 C20.1980529,18.5592518 19.375231,18.6645038 18.5315341,18.6645038 C17.6878372,18.6645038 16.8439925,18.5592518 16,18.348748 C15.8004671,17.4236267 15.7007007,16.5208957 15.7007007,15.640555 C15.7007007,14.7602142 15.8004671,13.8800292 16,13 C16.6840357,12.8516723 17.4674858,12.7775084 18.3503503,12.7775084 Z M36,8 C36.3593248,8.28997526 36.6168789,8.99057462 36.7726624,10.1017981 C36.8505541,10.6574098 36.8894999,11.2193576 36.8894999,11.7876415 L36.882912,11.803717 C36.6947625,12.2737256 36.5024057,12.788221 36.305839,13.3472034 C35.774075,13.1885891 35.096463,13.0727528 34.2753958,13 C33.1942389,12.9042013 32.1024403,12.9042013 31,13 C31.1535906,13.9744333 31.2303859,14.8546183 31.2303859,15.640555 C31.2303859,16.2693042 31.1812369,16.8984024 31.0829389,17.5278494 L30.9993824,18 L30.6657281,18.092525 C29.9923695,18.2633403 29.2901211,18.348748 28.5589831,18.348748 C27.7059887,18.348748 26.8529944,18.2324986 26,18 C25.8126618,17.2038779 25.7189927,16.3829483 25.7189927,15.5372112 C25.7189927,14.6914741 25.8126618,13.8457371 26,13 C27.0242759,12.8516723 27.9212568,12.7775084 28.6909426,12.7775084 C29.3066912,12.7775084 29.9224399,12.8249733 30.5381885,12.919903 L30.9993824,12.999 L31.0829389,12.5 C31.1812369,11.8333333 31.2303859,11.1666667 31.2303859,10.5 C31.2303859,9.66666667 31.1535906,8.83333333 31,8 L36,8 Z M13.5,7.81548738 C14.3333333,7.81548738 15.1666667,7.87699159 16,8 C15.8004671,9.10764721 15.7007007,9.94098055 15.7007007,10.5 C15.7007007,11.0590195 15.8004671,11.8923528 16,13 C15.1666667,12.8516723 14.3333333,12.7775084 13.5,12.7775084 C12.6666667,12.7775084 11.7064084,12.8516723 10.6192251,13 L10.6192251,10.4077437 C10.6192251,9.89608923 10.7220343,9.19483299 10.9276528,8.30397496 L11,8 C11.8333333,7.87699159 12.6666667,7.81548738 13.5,7.81548738 Z M23.5,7.81548738 C24.3333333,7.81548738 25.1666667,7.87699159 26,8 C26.2047664,8.7415143 26.3071496,9.54409553 26.3071496,10.4077437 C26.3071496,11.2713919 26.2047664,12.1354773 26,13 C25.1666667,12.8516723 24.3333333,12.7775084 23.5,12.7775084 C22.6666667,12.7775084 21.8333333,12.8516723 21,13 L21,8 C21.8333333,7.87699159 22.6666667,7.81548738 23.5,7.81548738 Z M29.7080769,3.43770655 C30.0480264,3.58001561 30.4935079,3.76447243 30.998334,3.97486564 L31,8 C30.3572624,7.87699159 29.5875766,7.81548738 28.6909426,7.81548738 C27.7943085,7.81548738 26.8973277,7.87699159 26,8 L26.0000904,5.17408679 C27.5401587,4.78736187 28.886919,4.19510302 29.7080769,3.43770655 Z M37.194,6.89089488 C37.4299928,7.11689549 37.7176354,7.43678106 38.0187002,7.82331523 C37.3463696,7.84564752 36.6732351,7.90415298 36,8 L36.0006781,6.18243944 C36.5846354,6.47455295 37.0197018,6.72376858 37.194,6.89089488 Z M10.9986239,4.89384976 L11,8 C9.79793045,7.87699159 8.88332753,7.81548738 8.25619122,7.81548738 C7.69466589,7.81548738 6.90267702,7.86479563 5.88022461,7.96341214 C6.06639561,7.63438662 6.23312886,7.3861923 6.37,7.24689488 C6.86924069,6.73906006 8.41227427,5.95471169 10.9986239,4.89384976 Z M20.1579689,5.6045366 C20.4322301,5.63495813 20.7132482,5.65712274 20.9990796,5.67126673 L21,8 C20.1666667,7.87699159 19.3333333,7.81548738 18.5,7.81548738 C17.6666667,7.81548738 16.8333333,7.87699159 16,8 L15.998504,4.16451238 C17.2290108,4.95343508 18.6154991,5.43344316 20.1579689,5.6045366 Z"></path>
</svg>
