<?xml version="1.0" encoding="UTF-8"?>
<svg width="100%" height="100%" viewBox="0 0 45 45" version="1.1" xmlns="http://www.w3.org/2000/svg" xmlns:xlink="http://www.w3.org/1999/xlink">
                <g id="Group" transform="translate(5.307094, 3.890801)">
        <path d="M14.4181421,1.65701165 L14.4182956,8.1946831 L14.7090432,16.0903168 C14.8311062,22.392866 14.8311062,26.6113586 14.7090432,28.7457945 C14.7037316,28.8386749 14.6969943,28.9275136 14.6888313,29.0123106 L14.8779692,39.4915192 C13.9312808,39.4822434 12.9262864,39.4514742 11.9077698,39.3843985 L12.084139,28.7457945 L11.9832218,16.1442148 L11.9825029,16.1444081 C11.7775993,12.403825 11.6140571,9.75391666 11.4918762,8.1946831 C11.2763389,5.44406542 11.506583,2.88674764 11.7875463,0.874409078 C12.6042957,1.25446897 13.4813189,1.51495605 14.4181421,1.65701165 Z M21.3112193,1.1137697 L21.6510619,8.51689196 L21.6510619,16.0903168 C21.8088427,22.2637904 21.8117255,26.45904 21.6597103,28.6760656 L21.8708026,39.3116549 C21.2402973,39.3626046 20.736341,39.3880935 20.3589056,39.3880935 C20.0400678,39.3880935 19.5414796,39.4063117 18.9086811,39.4276848 L19.084139,28.5883909 L19.0832218,16.1062148 L19.0639579,15.6578875 C18.9190926,12.327216 18.8430581,9.9468842 18.8358544,8.51689196 C18.8221392,5.79430639 18.7790198,3.49667379 18.80354,1.64019066 C19.6735937,1.52622841 20.5259402,1.3481107 21.3112193,1.1137697 Z M27.5881297,0.883899138 L28.2225604,1.15767545 C28.3529666,1.21440025 28.482854,1.27120276 28.6116976,1.32789913 C29.0065469,5.98469858 29.0102876,12.2802161 28.4486348,15.9166072 C28.352272,16.1116025 28.2682703,16.4615712 28.1959056,16.9620935 L27.9439056,22.0590935 L28.1959056,38.5610935 C27.1858489,38.7008227 26.2639596,38.8228669 25.4302215,38.9272099 L25.7883623,28.7977931 L25.7887374,16.1444057 L25.7762545,16.1444081 C26.1276022,12.2419019 26.0721942,4.99797608 25.4931827,-0.000702091568 C26.1159033,0.260764095 26.8467141,0.56630033 27.5881297,0.883899138 Z M7.55669832,7.33943277 C7.51308453,10.3828265 7.75297887,13.4664319 7.78135265,15.7298407 L7.78407312,16.1444081 L7.78407312,21.7137352 C7.78407312,24.6403497 7.86293196,26.1431963 8.02294246,28.5879681 L8.0263511,28.5883909 L8.02606989,38.9176756 C7.1155729,38.7464921 6.24287303,38.5275934 5.44390564,38.2490935 L5.44390564,32.1040935 C5.5702485,27.3596364 5.6379187,24.5122617 5.64523989,23.5619694 L5.64590564,23.4100935 C5.64590564,22.2640935 5.16790564,16.4880935 4.86390564,16.2420935 C4.82518685,16.2107619 4.78909598,16.1877844 4.7555917,16.1722603 L4.75680646,16.1444081 C4.39711814,12.6701338 4.39929952,6.13843234 4.79241169,1.37757597 C5.7015493,0.991276908 6.77066588,0.561399478 7.99872072,0.08939294 C7.80403277,2.16632197 7.59394396,4.74041255 7.55669832,7.33943277 Z M31.8869056,3.00009352 C32.2709044,3.36783326 32.7916538,3.98414832 33.2844638,4.7316997 C32.5469544,5.55537709 31.7210223,7.31600709 30.8064031,10.0136041 C30.9914456,8.14365181 31.083921,6.68308852 31.084139,5.63225154 C31.0843775,4.48246554 30.9988132,3.39412064 30.8695266,2.37897037 C31.3644969,2.6342773 31.7305812,2.85020142 31.8869056,3.00009352 Z M2.28277302,2.54926362 L2.14338673,5.96845793 L2.27149146,9.93307342 C1.62091048,8.36783978 0.863746659,6.79022033 -2.15400853e-14,5.20021507 C0.417511634,4.30991328 0.796692625,3.62702564 1.06290564,3.35609352 C1.27720876,3.13810131 1.68384379,2.86915801 2.28277302,2.54926362 Z"></path>
                </g>
</svg>
