<?xml version="1.0" encoding="UTF-8"?>
<svg width="20px" height="20px" viewBox="0 0 20 20" version="1.1" xmlns="http://www.w3.org/2000/svg" xmlns:xlink="http://www.w3.org/1999/xlink">
    <title>5BA3B88C-80A2-44BD-9C72-9554CCDDC464</title>
    <g id="3.2-今日簡易盤" stroke="none" stroke-width="1" fill="none" fill-rule="evenodd">
        <g id="3.2.5_足球-聯盟盤" transform="translate(-340.000000, -110.000000)" fill="#333333">
            <g id="sport/tab_1" transform="translate(0.000000, 98.000000)">
                <g id="Group-2" transform="translate(329.000000, 0.000000)">
                    <g id="search" transform="translate(11.000000, 12.000000)">
                        <path d="M9.11986503,7.10542736e-15 C14.1566274,7.10542736e-15 18.2397301,4.03917982 18.2397301,9.02176063 C18.2362622,11.2619254 17.4088627,13.3108859 16.0412505,14.8879751 L19.7525418,18.5598417 C20.0824861,18.8916421 20.0824861,19.4238871 19.7525418,19.7556874 C19.5781315,19.9104061 19.3528692,19.9972219 19.1186207,20 C18.8938989,20 18.6782689,19.9122135 18.5186953,19.7556874 L14.810245,16.0651663 C13.2506047,17.300439 11.2725679,18.0402601 9.11986503,18.0435213 C4.08310265,18.0435213 -1.84741111e-13,14.0043414 -1.84741111e-13,9.02176063 C-1.84741111e-13,4.03917982 4.08310265,7.10542736e-15 9.11986503,7.10542736e-15 Z M9.11986503,1.68048494 C5.02431279,1.69525112 1.7148848,4.98897878 1.72478488,9.04048917 C1.73472946,13.0919996 5.0602515,16.3698256 9.15582783,16.3649367 C13.2514042,16.3600368 16.568938,13.074272 16.568938,9.02274975 C16.5673527,7.07131822 15.7811695,5.20065387 14.3837637,3.8232902 C12.9863578,2.44592653 11.0925096,1.67499748 9.11986503,1.68048494 Z"></path>
                    </g>
                </g>
            </g>
        </g>
    </g>
</svg>