<?xml version="1.0" encoding="UTF-8"?>
<svg width="20px" height="20px" viewBox="0 0 20 20" version="1.1" xmlns="http://www.w3.org/2000/svg" xmlns:xlink="http://www.w3.org/1999/xlink">
    <title>5D47FE68-F2B2-4A60-ADE4-4682D76FF13E@2x</title>
    <g id="1.首頁" stroke="none" stroke-width="1" fill="none" fill-rule="evenodd">
        <g id="1.1.1_APP_未登入首頁/體育（國際版）" transform="translate(-16.000000, -167.000000)" fill="#0C186C">
            <g id="home/comp/gift" transform="translate(0.000000, 156.000000)">
                <g id="Group" transform="translate(16.000000, 11.000000)">
                    <path d="M17.5562369,9.65802718 L12.0375948,9.65802718 L12.0375948,17.9364572 L16.1764907,17.9364572 L16.1764907,17.9364572 C16.9384276,17.9362867 17.5560578,17.3186573 17.5562369,16.5567204 L17.5562369,9.65802718 L17.5562369,9.65802718 Z M17.5562388,6.81180627 L17.5562388,6.81177991 C17.555711,6.05018413 16.9380693,5.43311977 16.1764735,5.43330456 L12.0375967,5.43330456 L12.0375967,8.27829648 L17.5562388,8.27829648 L17.5562388,6.81180468 L17.5562388,6.81180627 Z M12.6846993,2.0696323 L12.6846993,2.0696323 C12.6846993,1.68854382 12.375766,1.37960863 11.9946756,1.37960863 C11.6135871,1.37960863 11.3046519,1.68854192 11.3046519,2.0696323 C11.3046519,2.29469926 10.9310825,3.15545293 10.9310825,3.15545293 C10.9310825,3.15545293 11.8387646,2.75965407 11.9946756,2.75965407 L11.9946756,2.75965407 C12.375764,2.75965408 12.6846993,2.45072078 12.6846993,2.0696304 M10.6575437,5.43329666 L9.27780693,5.43329666 L9.27780693,17.9364553 L10.6575437,17.9364553 L10.6575437,5.43329666 Z M8.54517459,2.0696304 L8.54517462,2.06970106 C8.5450431,1.68878217 8.23614034,1.38009279 7.85522146,1.38022422 C7.47430257,1.38035578 7.16561318,1.68925854 7.16574462,2.07017743 C7.16587618,2.45109632 7.47477894,2.7597857 7.85569592,2.75965422 C8.03630589,2.75965422 8.84488343,3.24652979 8.84488343,3.24652979 C8.84488343,3.24652979 8.54510221,2.26969176 8.54510221,2.06963246 M3.75915914,5.43329872 L3.75915916,5.43329872 C2.99770439,5.43346859 2.38027417,6.05034593 2.37942242,6.81180071 L2.37942242,8.2782925 L7.89836939,8.2782925 L7.89836939,5.43329872 L3.75914963,5.43329872 L3.75915914,5.43329872 Z M2.37942237,16.5567111 L2.37942237,16.5564026 C2.37942237,17.3183394 2.99691356,17.9361069 3.75885042,17.936448 L7.89807018,17.936448 L7.89807018,9.65802755 L2.37942237,9.65802755 L2.37942237,16.5567208 L2.37942237,16.5567111 Z M16.176485,19.3161845 L3.75916867,19.3161845 L3.75916872,19.3161845 C2.23527403,19.3161845 1,18.0806057 1,16.5567111 L1,6.81178737 L1,6.81206935 C1.00052614,5.2887063 2.23552164,4.05400593 3.75888278,4.05385349 L7.42786571,4.05385349 C6.49641265,3.85070539 5.78601167,3.06157909 5.78601167,2.06960957 L5.78601167,2.06960988 C5.78601149,0.926597877 6.71260573,0 7.85562154,0 C8.99863355,0 9.92523142,0.926594066 9.92523142,2.06960988 C9.92523142,2.06960988 9.92523142,2.06960988 9.92523142,2.06960988 L9.92523142,2.06961019 C9.92523125,0.926683937 10.8517569,0 11.9946889,0 C13.1376151,0 14.0641463,0.92667822 14.0641463,2.06961019 C14.0641463,2.06961019 14.0641463,2.06961019 14.0641463,2.06961019 C14.0641463,3.0615759 13.3522038,3.8507022 12.4210575,4.05385412 L16.1765116,4.05385412 L16.1765115,4.05385412 C17.6999241,4.05385387 18.9351276,5.28837156 18.935985,6.81178415 L18.935985,16.5567078 L18.935985,16.5567079 C18.935985,18.0807226 17.7005263,19.3161845 16.1765115,19.3161845 C16.1765115,19.3161845 16.1765115,19.3161845 16.1765115,19.3161845" id="gift"></path>
                </g>
            </g>
        </g>
    </g>
</svg>