<?xml version="1.0" encoding="UTF-8"?>
<svg width="40px" height="52px" viewBox="0 0 40 52" version="1.1" xmlns="http://www.w3.org/2000/svg" xmlns:xlink="http://www.w3.org/1999/xlink">
    <title>7BC49761-F189-47DC-AD40-3D6D416A3D14</title>
    <g id="Uikit" stroke="none" stroke-width="1" fill="none" fill-rule="evenodd">
        <g id="Uikit_世界杯_APP" transform="translate(-250.000000, -4576.000000)">
            <g id="image/number/2" transform="translate(250.000000, 4576.000000)">
                <g id="Group" transform="translate(4.000000, 3.000000)">
                    <path d="M0,46.9541016 C0.0859375,43.6025391 0.805664062,40.5410156 2.15917969,37.7695312 C3.46972656,34.6542969 6.56347656,31.3564453 11.4404297,27.8759766 C15.6728516,24.8466797 18.4121094,22.6767578 19.6582031,21.3662109 C21.5703125,19.3251953 22.5263672,17.0908203 22.5263672,14.6630859 C22.5263672,12.6865234 21.9785156,11.0429688 20.8828125,9.73242188 C19.7871094,8.421875 18.21875,7.76660156 16.1777344,7.76660156 C13.3847656,7.76660156 11.4833984,8.80859375 10.4736328,10.8925781 C9.89355469,12.0957031 9.54980469,14.0078125 9.44238281,16.6289063 L0.515625,16.6289063 C0.666015625,12.6542969 1.38574219,9.44238281 2.67480469,6.99316406 C5.12402344,2.33105469 9.47460938,3.55271368e-15 15.7265625,3.55271368e-15 C20.6679688,3.55271368e-15 24.5996094,1.36962891 27.5214844,4.10888672 C30.4433594,6.84814453 31.9042969,10.4736328 31.9042969,14.9853516 C31.9042969,18.4443359 30.8730469,21.5166016 28.8105469,24.2021484 C27.4570312,25.9853516 25.2333984,27.9726563 22.1396484,30.1640625 L18.4658203,32.7744141 C16.1669922,34.4072266 14.5932617,35.5888672 13.7446289,36.3193359 C12.8959961,37.0498047 12.1816406,37.8984375 11.6015625,38.8652344 L32.0009766,38.8652344 L32.0009766,46.9541016 L0,46.9541016 Z" id="Path" fill="#0C186C"></path>
                    <path d="M15.7265625,0 C20.6679688,0 24.5996094,1.36962891 27.5214844,4.10888672 C30.4433594,6.84814453 31.9042969,10.4736328 31.9042969,14.9853516 C31.9042969,16.2603813 31.7641745,17.4828651 31.4839299,18.6528031 L14.5017781,25.640397 C17.0248619,23.752776 18.7436702,22.3280473 19.6582031,21.3662109 C21.5703125,19.3251953 22.5263672,17.0908203 22.5263672,14.6630859 C22.5263672,12.6865234 21.9785156,11.0429688 20.8828125,9.73242188 C19.7871094,8.421875 18.21875,7.76660156 16.1777344,7.76660156 C13.3847656,7.76660156 11.4833984,8.80859375 10.4736328,10.8925781 C9.89355469,12.0957031 9.54980469,14.0078125 9.44238281,16.6289062 L0.515625,16.6289062 C0.666015625,12.6542969 1.38574219,9.44238281 2.67480469,6.99316406 C5.12402344,2.33105469 9.47460938,0 15.7265625,0 Z" id="Combined-Shape" fill="#FFFFFF" opacity="0.5"></path>
                </g>
            </g>
        </g>
    </g>
</svg>