<?xml version="1.0" encoding="UTF-8"?>
<svg width="40px" height="52px" viewBox="0 0 40 52" version="1.1" xmlns="http://www.w3.org/2000/svg" xmlns:xlink="http://www.w3.org/1999/xlink">
    <title>E5F0309D-9C1B-45AF-8FC7-5101E334BF79</title>
    <g id="Uikit" stroke="none" stroke-width="1" fill="none" fill-rule="evenodd">
        <g id="Uikit_世界杯_APP" transform="translate(-330.000000, -4576.000000)">
            <g id="image/number/3" transform="translate(330.000000, 4576.000000)">
                <g id="Group" transform="translate(4.000000, 2.000000)">
                    <path d="M9.0234375,32.6132812 C9.0234375,34.4824219 9.32421875,36.0292969 9.92578125,37.2539062 C11.0429688,39.5097656 13.0732422,40.6376953 16.0166016,40.6376953 C17.8212891,40.6376953 19.3950195,40.0200195 20.737793,38.784668 C22.0805664,37.5493164 22.7519531,35.7714844 22.7519531,33.4511719 C22.7519531,30.3789062 21.5058594,28.3271484 19.0136719,27.2958984 C17.5957031,26.7158203 15.3613281,26.4257812 12.3105469,26.4257812 L12.3105469,19.8515625 C15.296875,19.8085938 17.3808594,19.5185547 18.5625,18.9814453 C20.6035156,18.0791016 21.6240234,16.2529297 21.6240234,13.5029297 C21.6240234,11.7197266 21.1030273,10.2695312 20.0610352,9.15234375 C19.019043,8.03515625 17.5527344,7.4765625 15.6621094,7.4765625 C13.4921875,7.4765625 11.8969727,8.1640625 10.8764648,9.5390625 C9.85595703,10.9140625 9.3671875,12.7509766 9.41015625,15.0498047 L0.837890625,15.0498047 C0.923828125,12.7294922 1.32128906,10.5273438 2.03027344,8.44335938 C2.78222656,6.6171875 3.96386719,4.93066406 5.57519531,3.38378906 C6.77832031,2.28808594 8.20703125,1.45019531 9.86132812,0.870117188 C11.515625,0.290039062 13.5458984,0 15.9521484,0 C20.4208984,0 24.0249023,1.15478516 26.7641602,3.46435547 C29.503418,5.77392578 30.8730469,8.87304688 30.8730469,12.7617188 C30.8730469,15.5117188 30.0566406,17.8320312 28.4238281,19.7226562 C27.3925781,20.9042969 26.3183594,21.7099609 25.2011719,22.1396484 C26.0390625,22.1396484 27.2421875,22.859375 28.8105469,24.2988281 C31.1523438,26.46875 32.3232422,29.4335938 32.3232422,33.1933594 C32.3232422,37.1464844 30.9536133,40.621582 28.2143555,43.6186523 C25.4750977,46.6157227 21.4199219,48.1142578 16.0488281,48.1142578 C9.43164062,48.1142578 4.83398438,45.9550781 2.25585938,41.6367188 C0.90234375,39.3378906 0.150390625,36.3300781 0,32.6132812 L9.0234375,32.6132812 Z" id="Path" fill="#0C186C"></path>
                    <path d="M15.9521484,5.32907052e-15 C20.4208984,5.32907052e-15 24.0249023,1.15478516 26.7641602,3.46435547 C29.503418,5.77392578 30.8730469,8.87304688 30.8730469,12.7617188 C30.8730469,15.5117188 30.0566406,17.8320313 28.4238281,19.7226563 C28.2651743,19.9044471 28.1055034,20.0773391 27.9448156,20.2413323 L12.907472,26.4296177 C12.7120966,26.4270601 12.5131215,26.4257813 12.3105469,26.4257813 L12.3105469,19.8515625 C15.296875,19.8085938 17.3808594,19.5185547 18.5625,18.9814453 C20.6035156,18.0791016 21.6240234,16.2529297 21.6240234,13.5029297 C21.6240234,11.7197266 21.1030273,10.2695313 20.0610352,9.15234375 C19.019043,8.03515625 17.5527344,7.4765625 15.6621094,7.4765625 C13.4921875,7.4765625 11.8969727,8.1640625 10.8764648,9.5390625 C9.85595703,10.9140625 9.3671875,12.7509766 9.41015625,15.0498047 L0.837890625,15.0498047 C0.923828125,12.7294922 1.32128906,10.5273438 2.03027344,8.44335938 C2.78222656,6.6171875 3.96386719,4.93066406 5.57519531,3.38378906 C6.77832031,2.28808594 8.20703125,1.45019531 9.86132812,0.870117188 C11.515625,0.290039063 13.5458984,5.32907052e-15 15.9521484,5.32907052e-15 Z" id="Combined-Shape" fill="#FFFFFF" opacity="0.5"></path>
                </g>
            </g>
        </g>
    </g>
</svg>