<?xml version="1.0" encoding="UTF-8"?>
<svg width="40px" height="52px" viewBox="0 0 40 52" version="1.1" xmlns="http://www.w3.org/2000/svg" xmlns:xlink="http://www.w3.org/1999/xlink">
    <title>CA0C0536-28A5-42E2-9829-5C519CF00C4C</title>
    <g id="Uikit" stroke="none" stroke-width="1" fill="none" fill-rule="evenodd">
        <g id="Uikit_世界杯_APP" transform="translate(-410.000000, -4576.000000)">
            <g id="image/number/4" transform="translate(410.000000, 4576.000000)">
                <g id="Group" transform="translate(4.000000, 3.000000)">
                    <path d="M32.7744141,36.3837891 L27.4892578,36.3837891 L27.4892578,46.4384766 L18.4980469,46.4384766 L18.4980469,36.3837891 L0,36.3837891 L0,28.359375 L17.1767578,0 L27.4892578,0 L27.4892578,29.1972656 L32.7744141,29.1972656 L32.7744141,36.3837891 Z M18.4980469,29.1972656 L18.4980469,9.0234375 L6.79980469,29.1972656 L18.4980469,29.1972656 Z" id="Shape" fill="#0C186C"></path>
                    <path d="M27.4899425,1.0658141e-14 L27.489,19.913 L18.498,23.613 L18.4987315,9.0234375 L7.386,28.186 L0,31.225 L0.000684643193,28.359375 L17.1774425,1.0658141e-14 L27.4899425,1.0658141e-14 Z" id="Combined-Shape" fill="#FFFFFF" opacity="0.5"></path>
                </g>
            </g>
        </g>
    </g>
</svg>