<?xml version="1.0" encoding="UTF-8"?>
<svg width="40px" height="52px" viewBox="0 0 40 52" version="1.1" xmlns="http://www.w3.org/2000/svg" xmlns:xlink="http://www.w3.org/1999/xlink">
    <title>DB57E7B6-4D52-438D-9587-F275E8FE66FA</title>
    <g id="Uikit" stroke="none" stroke-width="1" fill="none" fill-rule="evenodd">
        <g id="Uikit_世界杯_APP" transform="translate(-490.000000, -4576.000000)">
            <g id="image/number/5" transform="translate(490.000000, 4576.000000)">
                <g id="Group" transform="translate(4.000000, 2.000000)">
                    <path d="M9.15234375,33.6123047 C9.51757812,35.6103516 10.2158203,37.1518555 11.2470703,38.2368164 C12.2783203,39.3217773 13.7822266,39.8642578 15.7587891,39.8642578 C18.0361328,39.8642578 19.7709961,39.0639648 20.9633789,37.4633789 C22.1557617,35.862793 22.7519531,33.8486328 22.7519531,31.4208984 C22.7519531,29.0361328 22.1933594,27.0219727 21.0761719,25.378418 C19.9589844,23.7348633 18.21875,22.9130859 15.8554688,22.9130859 C14.7382812,22.9130859 13.7714844,23.0527344 12.9550781,23.3320312 C11.515625,23.8476562 10.4306641,24.8037109 9.70019531,26.2001953 L1.45019531,25.8134766 L4.73730469,0 L30.4863281,0 L30.4863281,7.79882812 L11.3759766,7.79882812 L9.70019531,18.0146484 C11.1181641,17.0908203 12.2246094,16.4785156 13.0195312,16.1777344 C14.3515625,15.6835938 15.9736328,15.4365234 17.8857422,15.4365234 C21.7529297,15.4365234 25.1259766,16.7363281 28.0048828,19.3359375 C30.8837891,21.9355469 32.3232422,25.7167969 32.3232422,30.6796875 C32.3232422,34.9980469 30.9375,38.8544922 28.1660156,42.2490234 C25.3945312,45.6435547 21.2480469,47.3408203 15.7265625,47.3408203 C11.2792969,47.3408203 7.62695312,46.1484375 4.76953125,43.7636719 C1.91210938,41.3789062 0.322265625,37.9951172 0,33.6123047 L9.15234375,33.6123047 Z" id="Path" fill="#0C186C"></path>
                    <path d="M31.1246261,1.77635684e-15 L31.1246261,7.7426821 L11.6141575,7.7426821 L9.90329013,17.8849558 C11.3509472,16.9677785 12.4805583,16.359882 13.2921236,16.0612662 C14.6520439,15.570683 16.3080758,15.3253914 18.2602193,15.3253914 C22.2083749,15.3253914 25.6520439,16.6158384 28.5912263,19.1967325 L28.6685583,19.266 L18.9084485,23.1863154 C18.1153235,22.8941905 17.2083199,22.748128 16.1874377,22.748128 C15.0468594,22.748128 14.0598205,22.886771 13.226321,23.1640572 C11.7567298,23.67597 10.6490528,24.6251418 9.90329013,26.0115725 L1.48055833,25.6276378 L4.83649053,1.77635684e-15 L31.1246261,1.77635684e-15 Z" id="Combined-Shape" fill="#FFFFFF" opacity="0.5"></path>
                </g>
            </g>
        </g>
    </g>
</svg>