<?xml version="1.0" encoding="UTF-8"?>
<svg width="40px" height="52px" viewBox="0 0 40 52" version="1.1" xmlns="http://www.w3.org/2000/svg" xmlns:xlink="http://www.w3.org/1999/xlink">
    <title>B9BF1385-235F-4DE2-B2EF-01AD485CE72C</title>
    <g id="Uikit" stroke="none" stroke-width="1" fill="none" fill-rule="evenodd">
        <g id="Uikit_世界杯_APP" transform="translate(-650.000000, -4576.000000)">
            <g id="image/number/7" transform="translate(650.000000, 4576.000000)">
                <g id="Group" transform="translate(3.000000, 3.000000)">
                    <path d="M33.1289062,7.18652344 C31.7539062,8.54003906 29.8417969,10.9516602 27.3925781,14.4213867 C24.9433594,17.8911133 22.8916016,21.4736328 21.2373047,25.1689453 C19.9267578,28.0693359 18.7451172,31.6142578 17.6923828,35.8037109 C16.6396484,39.9931641 16.1132812,43.4306641 16.1132812,46.1162109 L6.57421875,46.1162109 C6.85351562,37.7373047 9.60351562,29.0253906 14.8242188,19.9804688 C18.1972656,14.3730469 21.0224609,10.4628906 23.2998047,8.25 L0,8.25 L0.12890625,0 L33.1289062,0 L33.1289062,7.18652344 Z" id="Path" fill="#0C186C"></path>
                    <path d="M33.1289062,0 L33.1289062,7.18652344 C31.7539062,8.54003906 29.8417969,10.9516602 27.3925781,14.4213867 C25.7762564,16.7111758 24.3330338,19.0500877 23.0629104,21.4381222 L11.6247102,26.1453851 C12.5615007,24.1078959 13.6280036,22.0529238 14.8242188,19.9804688 C18.1972656,14.3730469 21.0224609,10.4628906 23.2998047,8.25 L0,8.25 L0.12890625,0 L33.1289062,0 Z" id="Combined-Shape" fill="#FFFFFF" opacity="0.5"></path>
                </g>
            </g>
        </g>
    </g>
</svg>