<?xml version="1.0" encoding="UTF-8"?>
<svg width="40px" height="52px" viewBox="0 0 40 52" version="1.1" xmlns="http://www.w3.org/2000/svg" xmlns:xlink="http://www.w3.org/1999/xlink">
    <title>F83F01B1-C372-4F83-BCB1-83ECBFE717C7</title>
    <g id="Uikit" stroke="none" stroke-width="1" fill="none" fill-rule="evenodd">
        <g id="Uikit_世界杯_APP" transform="translate(-810.000000, -4576.000000)">
            <g id="image/number/9" transform="translate(810.000000, 4576.000000)">
                <g id="Group-11" transform="translate(4.000000, 2.000000)">
                    <g id="9" fill="#0C186C">
                        <path d="M0,16.8222656 C0,11.8164062 1.44482422,7.76123047 4.33447266,4.65673828 C7.22412109,1.55224609 10.9785156,0 15.5976562,0 C22.7089844,0 27.5859375,3.14746094 30.2285156,9.44238281 C31.7324219,13.0087891 32.484375,17.703125 32.484375,23.5253906 C32.484375,29.1757812 31.7646484,33.8916016 30.3251953,37.6728516 C27.5751953,44.8701172 22.5263672,48.46875 15.1787109,48.46875 C11.6767578,48.46875 8.52929688,47.4321289 5.73632812,45.3588867 C2.94335938,43.2856445 1.34277344,40.2617188 0.934570312,36.2871094 L10.0869141,36.2871094 C10.3017578,37.6621094 10.8818359,38.7792969 11.8271484,39.6386719 C12.7724609,40.4980469 14.0292969,40.9277344 15.5976562,40.9277344 C18.6269531,40.9277344 20.7539062,39.2519531 21.9785156,35.9003906 C22.6445312,34.0527344 23.0634766,31.3564453 23.2353516,27.8115234 C22.3974609,28.8642578 21.5058594,29.6699219 20.5605469,30.2285156 C18.8417969,31.2597656 16.7255859,31.7753906 14.2119141,31.7753906 C10.4951172,31.7753906 7.19726562,30.4916992 4.31835938,27.9243164 C1.43945313,25.3569336 0,21.65625 0,16.8222656 Z M16.2099609,24.2988281 C17.4775391,24.2988281 18.6699219,23.9335938 19.7871094,23.203125 C21.8710938,21.8710938 22.9130859,19.5615234 22.9130859,16.2744141 C22.9130859,13.6318359 22.2954102,11.5371094 21.0600586,9.99023438 C19.824707,8.44335938 18.1328125,7.66992188 15.984375,7.66992188 C14.4160156,7.66992188 13.0732422,8.11035156 11.9560547,8.99121094 C10.1943359,10.3662109 9.31347656,12.6972656 9.31347656,15.984375 C9.31347656,18.7558594 9.87744141,20.8344727 11.0053711,22.2202148 C12.1333008,23.605957 13.8681641,24.2988281 16.2099609,24.2988281 Z" id="Shape"></path>
                    </g>
                    <path d="M15.5976562,0 C22.7089844,0 27.5859375,3.14746094 30.2285156,9.44238281 C31.2742705,11.9223158 31.9564378,14.9476302 32.2750175,18.5183259 C32.0998105,18.5974456 31.9232796,18.672771 31.745428,18.7459557 L6.0883679,29.3055702 C5.48174648,28.8960733 4.89174364,28.4356554 4.31835938,27.9243164 C1.43945313,25.3569336 0,21.65625 0,16.8222656 C0,11.8164062 1.44482422,7.76123047 4.33447266,4.65673828 C7.22412109,1.55224609 10.9785156,0 15.5976562,0 Z M15.984375,7.66992188 C14.4160156,7.66992188 13.0732422,8.11035156 11.9560547,8.99121094 C10.1943359,10.3662109 9.31347656,12.6972656 9.31347656,15.984375 C9.31347656,18.7558594 9.87744141,20.8344727 11.0053711,22.2202148 C12.1333008,23.605957 13.8681641,24.2988281 16.2099609,24.2988281 C17.4775391,24.2988281 18.6699219,23.9335938 19.7871094,23.203125 C21.8710938,21.8710938 22.9130859,19.5615234 22.9130859,16.2744141 C22.9130859,13.6318359 22.2954102,11.5371094 21.0600586,9.99023438 C19.824707,8.44335938 18.1328125,7.66992188 15.984375,7.66992188 Z" id="Combined-Shape" fill="#FFFFFF" opacity="0.5"></path>
                </g>
            </g>
        </g>
    </g>
</svg>