<?xml version="1.0" encoding="UTF-8"?>
<svg width="60px" height="60px" viewBox="0 0 60 60" version="1.1" xmlns="http://www.w3.org/2000/svg" xmlns:xlink="http://www.w3.org/1999/xlink">
    <title>BEDC4A7F-E2D3-4B9A-99C5-90F0253CD9AB</title>
    <g id="Page-1" stroke="none" stroke-width="1" fill="none" fill-rule="evenodd" opacity="0.154603504">
        <g id="UiKit_Icons" transform="translate(-1380.000000, -3030.000000)" fill="#CB0202">
            <g id="Icon_stamp_refund_tc" transform="translate(1380.000000, 3030.000000)">
                <path d="M51.531,11.669 L51.536,11.667 C51.5294323,11.6708976 51.5279625,11.6715901 51.5269604,11.6720622 L51.7033606,11.6720568 C52.2314513,11.6675461 52.5526424,11.6426489 52.7217107,11.6125053 C52.5890845,11.7918456 52.6800236,11.9092647 52.8335809,11.7742048 C52.8569495,11.8545408 52.8883472,11.8845329 52.9197929,11.786657 C52.9489056,11.8586277 52.9683556,11.8705095 52.9536916,11.7350487 C53.0326347,11.8408732 53.1712876,11.9932329 53.3451145,12.1709411 L53.3451145,12.1709411 L53.516749,12.3434467 C53.6169509,12.4426608 53.7245519,12.5469143 53.836136,12.6532575 L53.836136,12.6532575 L53.9717302,12.7816835 L54.1098364,12.9109828 C54.2256072,13.0187815 54.3426282,13.12631 54.4574835,13.2306185 L54.4574835,13.2306185 L54.5940517,13.3540544 C54.6827094,13.4338006 54.7691763,13.510818 54.8517841,13.5836657 C57.8939814,18.2580275 59.6610169,23.8379114 59.6610169,29.8305085 C59.6610169,32.1174287 59.4036711,34.3442426 58.9163586,36.4835709 C58.3626074,36.6984238 58.0499596,37.1654064 58.5724442,37.8383524 C55.0745212,50.4247581 43.5311368,59.6610169 29.8305085,59.6610169 C18.9358872,59.6610169 9.40535435,53.8206598 4.19899774,45.1000331 C4.21928077,44.366612 4.22820591,43.8468386 4.22960155,43.4944707 L4.22960155,43.4944707 L4.22945231,43.2835948 C4.223887,42.4108681 4.15261756,43.0642759 4.11895631,43.8612743 L4.11895631,43.8612743 L4.11235647,44.0337537 L4.1071338,44.2076056 C4.10639067,44.2365274 4.10571433,44.2653804 4.1051095,44.2941016 L4.1051095,44.2941016 L4.10237615,44.4643442 C4.10207615,44.4922865 4.10185706,44.5199711 4.10172359,44.547335 L4.10198785,44.7071664 C4.10273092,44.7914083 4.10448489,44.870899 4.10741303,44.9434534 C1.49691399,40.5120371 0,35.3460843 0,29.8305085 C0,24.276754 1.51770892,19.0774794 4.16099845,14.624813 C3.97016293,15.6075908 3.89168426,16.3181802 3.88462557,16.624804 L3.88469611,16.7072774 C3.89580599,17.0409772 4.05978204,16.4228049 4.23380439,14.3957331 L4.22222918,14.5221383 C9.43367342,5.82301784 18.9520716,0 29.8305085,0 C36.40414,0 42.4811461,2.12630639 47.4112709,5.72866337 C47.387625,5.87576282 47.3641393,6.03748381 47.3427408,6.20267887 L47.3427408,6.20267887 L47.3146454,6.43193631 C47.1953164,7.46403124 47.1794783,8.43789678 47.5763791,6.75662344 L47.5763791,6.75662344 L47.649,6.431 L47.6364477,6.47417272 C47.5872887,6.61101536 47.6544245,6.02022499 47.669235,6.18564719 L47.6717499,6.24361588 L47.671,6.292 L47.6741355,6.12257423 C47.6747361,6.04951793 47.6749758,5.98077305 47.6748733,5.91617361 C50.3419964,7.91742387 52.6645407,10.3475069 54.5366018,13.1079138 C54.1768724,12.7639871 53.7100934,12.3221768 53.1177507,11.7676011 L53.1177507,11.7676011 L52.968,11.627 L53.0180852,11.6715818 C53.8739193,12.425208 53.7515584,11.6979348 53.0071113,11.5878927 L52.999,11.586 C52.9992917,11.5755651 53.0039149,11.5667114 53.0065836,11.5584133 L53.0090149,11.5352002 L53.043019,11.4674714 L53.043019,11.4674714 L53.0638039,11.4222667 L53.093,11.349 L53.093,11.352 L53.0941914,11.3507101 L53.1050676,11.3225694 C53.0436563,11.3527095 52.9895931,11.3836498 52.9422724,11.4146706 L52.9422724,11.4146706 L52.929616,11.4235488 C52.8743582,11.3075943 52.8389903,11.2885642 52.818944,11.3211779 C52.804658,11.3060761 52.8013738,11.3232205 52.8053858,11.3585845 C52.8003887,11.3813622 52.7975199,11.4103698 52.79648,11.4428597 L52.79648,11.4428597 L52.7956567,11.486979 C52.7864973,11.4913259 52.7784191,11.4965622 52.7743446,11.5029911 C52.5490947,11.4616175 52.0122783,11.4704481 51.5931848,11.6429387 L51.5931848,11.6429387 L51.5468028,11.6627141 L51.544,11.663 L51.537,11.666 L51.531,11.669 Z M9.626,11.627 L9.627,11.624 L9.627,11.593 L9.628,11.593 L9.628,11.579 L9.59479651,11.773569 C9.59450994,11.7752661 9.59422366,11.7769623 9.59393766,11.7786576 C9.55888184,11.8166143 9.52470186,11.8551235 9.49063008,11.8937304 C9.48995374,11.8130011 9.47070713,11.7454486 9.43599222,11.6921852 C9.44534626,11.6767364 9.45422218,11.6619825 9.46263761,11.647901 L9.46263761,11.647901 L9.47428227,11.6402964 L9.54,11.587 C9.51947159,11.5993568 9.56740976,11.5506986 9.56877019,11.5566362 L9.562,11.568 L9.60346298,11.5085308 C9.65077965,11.4346459 9.64238047,11.4238714 9.60880358,11.4450583 L9.58588043,11.4613566 L9.556,11.484 L9.5804278,11.4378047 C9.63024664,11.3342809 9.55887047,11.416562 9.48586295,11.5316734 L9.458,11.576 L9.4590709,11.5760628 L9.43798548,11.5991892 C9.42132826,11.616673 9.40576851,11.63371 9.39323399,11.6482465 C9.36796784,11.6260178 9.3380772,11.6086925 9.30272138,11.59596 C9.28721796,11.573533 9.27866337,11.572457 9.27590627,11.5884619 C8.87114576,11.4879944 7.94228315,12.0668927 6.88335005,13.9929688 L6.88335005,13.9929688 L6.79120339,14.162919 L6.78220339,14.178919 C7.34213433,13.9749178 7.80473112,13.74065 8.17855856,13.5011565 C4.74630586,18.0440342 2.71186441,23.6996867 2.71186441,29.8305085 C2.71186441,32.7606564 3.17657965,35.5822643 4.03632788,38.2256499 C3.99143492,38.4192949 3.94901084,38.6463336 3.92220339,38.874919 L3.92220339,38.874919 L3.92214788,38.8784373 L3.92020339,38.898919 L3.91920339,38.907919 L3.91698941,38.9334138 L3.91520339,38.943919 L3.915,38.951 L3.96741345,38.7651336 C3.98396117,38.7041811 3.9995114,38.6462277 4.01406336,38.5912859 L4.054,38.436 L4.05372522,38.5381906 C4.05313148,38.6025405 4.05267931,38.658761 4.05235568,38.7073329 L4.05196502,38.7745144 L4.05191461,38.863801 C4.04950711,38.8734049 4.04727494,38.8838041 4.04600468,38.8950396 C3.94865469,38.9635578 3.86861526,39.0964985 4.03910396,39.0443876 C4.04136381,39.0693205 4.04539785,39.0948863 4.05165464,39.120465 L4.051,39.119 L4.06195981,39.0748429 L4.06195981,39.0748429 L4.06868192,39.0358121 C4.10220844,39.0237951 4.14328613,39.0061314 4.19305032,38.9816154 L4.19305032,38.9816154 L4.17396339,38.9854491 C4.15993025,38.9789116 4.18650049,38.9342788 4.19294214,38.9535686 L4.19294214,38.9535686 L4.192,38.966 L4.19529817,38.9259701 C4.19295244,38.8950447 4.18336003,38.8759926 4.16917234,38.8659979 L4.14477576,38.8574471 L4.12284873,38.8593921 L4.11547479,38.8603706 L4.09758658,38.8654459 C4.10465062,38.7693764 4.07891654,38.7785545 4.05812293,38.8408441 L4.058,38.839 L4.06030119,38.7551521 C4.06183306,38.691065 4.06352896,38.6134746 4.06541667,38.5248693 L4.06839556,38.3840114 C4.07153929,38.3717754 4.07462697,38.3597136 4.07765928,38.3478245 C7.64869271,49.1532569 17.8291861,56.9491525 29.8305085,56.9491525 C44.807722,56.9491525 56.9491525,44.807722 56.9491525,29.8305085 C56.9491525,29.403742 56.9392946,28.979278 56.9197939,28.5573318 C58.8747771,28.6797443 58.5471281,28.5294937 57.2551883,28.4696146 C57.7396458,27.8110711 58.0543572,27.5701605 58.2036432,27.4904687 L58.2036432,27.4904687 L58.224,27.479 L58.1884293,27.4800957 C58.0115498,27.4760849 57.6343994,27.3721552 57.0629529,26.8137321 L56.9276343,26.6766359 L56.849,26.59 L56.901455,26.6390036 C57.0944088,26.8056926 57.0559616,26.6019267 56.8424315,26.5358045 L56.785434,26.5224355 L56.9428488,26.5463226 C59.046515,26.8387012 57.9994652,25.5607034 56.6829736,26.0197354 C56.144598,22.1873681 54.8044872,18.6118592 52.8380095,15.4683099 L52.8571367,15.3677394 L52.8571367,15.3677394 L52.878,15.167 L52.890586,15.2290918 C52.9497349,15.5340706 53.0053166,15.6568964 52.9886082,15.1093416 L52.9842823,14.9907476 L52.977,14.851 L52.978965,14.8900294 C52.9815073,15.0321072 52.9419503,14.7114642 52.9659242,14.7843229 L52.972,14.808 L52.9379888,14.6618637 C52.751054,13.8904814 52.7483056,14.1874063 52.7996581,14.626525 L52.808197,14.6969062 C52.7001158,14.4562649 52.4598026,14.2825269 52.0065997,14.215535 C51.0027856,12.7946123 49.8669276,11.4739886 48.6160325,10.272216 C48.9109911,9.21466674 48.9506545,8.15724331 48.2075947,9.88917107 C43.3771605,5.43358714 36.9216807,2.71186441 29.8305085,2.71186441 L29.788,2.711 L29.7876471,2.69504452 C29.7869673,2.68488051 29.7864385,2.67697517 29.7852034,2.66491898 L29.7852034,2.66491898 L29.7842034,2.65491898 L29.7832034,2.63991898 L29.7838231,2.63787195 L29.7822034,2.61691898 L29.7815287,2.60356841 L29.7815287,2.60356841 L29.779121,2.56757086 L29.7772034,2.54591898 L29.77677,2.53242032 C29.7752593,2.50983362 29.7738996,2.4895056 29.7729177,2.47482424 L29.7729177,2.47482424 L29.771,2.457 L29.7740824,2.64015815 C29.7744637,2.66446474 29.774853,2.68859602 29.7752501,2.71255162 L29.8305085,2.71186441 C26.3898992,2.71186441 23.0989417,3.35259952 20.0704489,4.52125662 C19.8693054,4.32529949 19.5392197,4.07161805 19.0371333,3.75488918 L19.0371333,3.75488918 L19.0865299,3.79163425 C19.2776137,3.95956171 19.1777164,4.23226841 19.0836384,4.28583716 L19.0836384,4.28583716 L19.0712034,4.28991898 L19.0763725,4.30298749 C19.1529793,4.49262594 19.2899448,4.65113325 19.4464725,4.77283058 C19.3117798,4.82690137 19.1768415,4.88417107 19.0424679,4.94249713 L18.9830508,4.94449268 C18.9955871,4.94704436 19.0080123,4.94965605 19.0203337,4.95232192 C18.0754814,5.3632813 17.1593897,5.82624403 16.2748687,6.33772644 C16.2920569,6.29446481 16.311381,6.1710786 16.3326849,5.93997249 L16.3326849,5.93997249 L16.342,5.822 L16.3404372,5.83729774 C16.3280368,5.90843703 16.3226521,5.61527632 16.3384456,5.72886844 L16.34,5.742 L16.3285872,5.6196621 C16.2401768,4.75352132 16.2006145,5.03895952 16.1972241,5.48508111 L16.197767,5.66975074 C16.2017104,5.97800167 16.2204007,6.29846869 16.2502925,6.35401264 C13.7644812,7.79279529 11.5281357,9.61759747 9.62282024,11.7450415 L9.62589673,11.6729809 L9.62589673,11.6729809 L9.625,11.669 L9.62618514,11.6625816 L9.626,11.632 L9.627,11.626 L9.626,11.627 Z M40.8135183,50.1004427 C41.1510661,50.2923103 41.5549294,50.4903564 42.0338983,50.6910039 L41.9772656,50.6676023 C41.8685062,50.7886371 42.2788142,50.7863238 42.0248749,50.6287787 L42.0248749,50.6287787 L42.0331228,50.6391639 C42.0321823,50.6415284 42.0284766,50.6427769 42.0247788,50.6428526 L42.0247788,50.6428526 L42.0222034,50.630919 L42.0041443,50.5284039 C41.9928809,50.4716554 41.9808986,50.4160381 41.9689716,50.362432 C42.0181076,50.4628117 42.0594211,50.5373007 42.092626,50.587959 C42.006333,50.5946199 42.0053844,50.6186487 42.1573598,50.669991 C42.1807061,50.6913882 42.1984667,50.6957404 42.2095471,50.6855508 C42.264258,50.7021077 42.333029,50.7210442 42.4176058,50.7425857 C38.7439531,52.9615628 34.4362116,54.2372881 29.8305085,54.2372881 C27.0113265,54.2372881 24.3037832,53.7593062 21.7844979,52.8799615 C21.7797726,52.6333209 21.7676086,52.2608582 21.7462292,51.7333819 L21.7462292,51.7333819 L21.739,51.583 L21.7418362,51.6449992 C21.7472409,51.8567134 21.7144737,51.3770945 21.7267334,51.4256521 L21.7303997,51.4467887 L21.7261403,51.4163552 C24.2473214,52.3633753 26.9784245,52.8813559 29.8305085,52.8813559 C33.7770042,52.8813559 37.4918591,51.8895832 40.7394321,50.1416785 Z M9.572,17.051 L9.575,17.05 L9.54820339,17.057919 L9.56832677,17.0529764 L9.53720339,17.060919 L9.52920339,17.062919 L9.522,17.064 L9.51298462,17.0674422 C9.50959633,17.0683278 9.50656098,17.0691212 9.50320798,17.0699977 L9.49152542,17.0730513 C9.92268313,17.0528767 10.3423861,17.0036078 10.7177165,16.9422285 C9.61735233,18.5692497 8.72029845,20.3443578 8.06165263,22.2312923 C6.31289011,21.3349951 6.60160441,23.3716728 7.46126964,24.2435311 C7.32063546,24.8087985 7.20067338,25.3828403 7.10248185,25.9642805 C6.6841081,26.0941363 6.71178615,26.4852988 6.96140646,26.924198 C6.84136612,27.8761455 6.77966102,28.846121 6.77966102,29.8305085 C6.77966102,31.58082 6.9747441,33.2855675 7.34435317,34.9241938 L7.49109733,35.5355391 L7.49109733,35.5355391 L7.06589762,35.6904774 L7.50496509,35.97182 L8.174,38.926 L8.13559322,38.9484725 C8.15158687,38.953348 8.16748645,38.9581735 8.18329251,38.9629387 L8.78817124,41.6344351 L9.80968171,41.2624718 C12.4412707,45.8612593 16.6117212,49.4663395 21.6192024,51.3758815 C21.6280288,51.5313723 21.6378733,51.7031843 21.6488655,51.8778179 L21.6627586,52.091027 C21.681514,52.3694789 21.7022586,52.6420442 21.7213763,52.8575473 C12.2281108,49.514894 5.42372881,40.4673255 5.42372881,29.8305085 C5.42372881,22.4951791 8.6596992,15.9156512 13.7819707,11.4415939 C14.06259,11.4868311 14.6322165,11.5638546 15.6155241,11.6842192 C13.7874416,13.1172742 12.1815637,14.821368 10.8578959,16.7355265 C10.5951084,16.7955623 10.2859381,16.8699474 9.92880542,16.9604269 L9.92880542,16.9604269 L9.71520339,17.013919 L9.69538782,17.0197643 L9.64320339,17.032919 L9.58820339,17.047919 L9.572,17.051 Z M12.2033898,50.7623566 C11.3203062,50.5591092 10.7312746,50.3780704 9.49152542,50.6217689 C10.5480719,50.8735974 11.1811649,50.9741305 12.2033898,50.7623566 Z M42.6869584,50.5805917 L42.6209171,50.620052 C42.4795485,50.6042473 42.3435527,50.592469 42.2381193,50.587973 L42.2381193,50.587973 L42.2389907,50.5514939 C42.2353676,50.263221 42.0798605,49.6137848 41.9613831,49.4340827 C43.9851531,48.179842 45.799898,46.6205725 47.3419965,44.8207995 C47.3420021,45.0390608 47.3423234,45.257358 47.3427093,45.4758801 C47.5368866,45.1765139 47.6224779,44.8779887 47.5478072,44.5798712 C48.5977102,43.3175126 49.517095,41.9415856 50.2829114,40.4728477 L50.3741682,40.4752083 C50.9623266,40.4915608 51.4418776,40.4754046 51.8180142,40.4413144 C49.7937496,44.6247872 46.6114736,48.1438555 42.6869584,50.5805917 Z M13.4626416,33.362253 L14.1476614,36.4563792 C14.1824852,36.552057 14.1932326,36.6506934 14.1799035,36.7522882 C14.1665744,36.853883 14.1335156,36.9491148 14.0807269,37.0379836 C14.0279383,37.1268523 13.9616322,37.2051621 13.8818085,37.2729129 C13.8019849,37.3406637 13.7108171,37.3931948 13.6083052,37.430506 L12.4074362,37.8672392 C12.4115372,37.7654014 12.4426562,37.5832346 12.4579043,37.7207866 L12.4579043,37.7207866 L12.461,37.766 L12.4512535,37.5643569 C12.4180355,36.9748565 12.3745625,36.6324071 12.3274558,36.4699758 L12.311628,36.4224075 C12.3522632,36.383209 12.3398712,36.3177686 12.1842012,36.2359262 C12.2291684,36.2597518 12.1690622,36.2742797 12.1697217,36.2560792 L12.1697217,36.2560792 L12.183,36.236 L12.1289591,36.2893931 C12.0399852,36.3884702 12.0748145,36.4409758 12.1387917,36.4571357 L12.1727711,36.4622342 C12.1563316,36.5071569 12.1401548,36.56412 12.1244703,36.6305996 L11.7603403,35.0963243 L9.59733874,35.8835925 L10.0004889,37.6291594 L12.075996,36.8741699 C11.8872347,37.9777761 11.8259545,40.2572745 12.4128906,37.9862274 L12.4128906,37.9862274 L12.422,37.944 L15.1849152,39.3062107 L13.0219136,40.0934789 L10.2664165,38.646854 L10.7564001,40.9180583 L9.80968171,41.2624718 C9.40821371,40.5608933 9.04256073,39.8361876 8.71521469,39.0908466 C8.94975268,39.1224941 9.15839981,39.099571 9.34415252,38.9703779 C9.37926953,39.1508104 9.49232151,39.3207978 9.61394488,39.0580795 L9.61394488,39.0580795 L9.629,39.015 L9.6207727,39.0294774 C9.60757414,39.0377833 9.61701236,38.9667275 9.63510185,38.9590647 L9.65007257,38.9674343 L9.58330732,38.8715691 C9.55051098,38.8280526 9.52139883,38.7952167 9.49700639,38.7754056 C9.50899104,38.6894741 9.52275,38.5699078 9.53843556,38.4102157 L9.53843556,38.4102157 L9.547,38.309 L9.54489512,38.3262153 C9.54243454,38.341301 9.54066879,38.3442043 9.53948677,38.3391633 L9.53813764,38.3261735 L9.53804871,38.2624245 C9.53967614,38.2003419 9.54510536,38.1331084 9.55094589,38.1900628 L9.551,38.197 L9.54595711,38.0895977 C9.48218632,37.0539903 9.42283728,38.1149146 9.42820687,38.6650185 L9.42911709,38.7260767 C9.36067564,38.7000468 9.33260612,38.7698547 9.33298485,38.8645766 C9.10497787,38.8723178 8.84732569,38.8049274 8.59706162,38.8102668 C8.14863237,37.7581576 7.7782771,36.6634612 7.49109733,35.5355391 L13.4626416,33.362253 Z M52.9805879,28.651384 C53.1014128,28.6708729 53.322403,28.6813294 53.5865918,28.6841599 L53.5865918,28.6841599 L53.911061,28.684085 C53.9860316,28.6833362 54.0624167,28.6821116 54.1392237,28.6804358 L54.1392237,28.6804358 L54.210577,28.6784278 C54.2283188,29.0602285 54.2372881,29.444321 54.2372881,29.8305085 C54.2372881,33.4864289 53.4334682,36.9546071 51.9929215,40.0679499 C51.580334,40.1117446 51.0294705,40.217123 50.3517469,40.4140864 L50.3517469,40.4140864 L50.3063808,40.4277147 C51.7359522,37.6711116 52.6251973,34.5891846 52.8338656,31.322184 C52.8781629,31.3197487 52.893784,31.3079996 52.8707244,31.2846397 L52.8707244,31.2846397 L52.8813559,31.2829826 C52.8667018,31.272135 52.8520853,31.2615421 52.8374864,31.251206 C52.8446133,31.1472981 52.8503034,31.0420382 52.855285,30.9365929 L52.8684863,31.0191391 L52.875,31.049 L52.8690727,31.008514 C52.8515623,30.8731228 52.8944103,30.951987 52.8937376,31.0830223 L52.892,31.117 L52.9119877,30.9055204 C53.0200853,29.6774302 53.025378,28.997214 52.9885064,28.7047535 Z M55.6528385,38.9569752 C59.3649092,35.797007 58.4592432,36.024755 57.2426485,36.968895 L57.1064106,37.0766118 C56.9921774,37.1686064 56.876646,37.2658947 56.7632354,37.366356 L56.7632354,37.366356 L56.6261565,37.4903506 C56.0838891,37.9914848 55.6252357,38.5476474 55.6475194,38.9123964 L55.6475194,38.9123964 L55.6512034,38.949919 Z M21.9554927,36.6021328 L22.0122092,36.8212789 L16.4970678,38.8286262 L15.3163736,33.1286998 L14.8773061,32.8473572 L20.4847082,30.8064297 L20.6081643,31.2771602 C20.2098148,31.4394901 19.7124813,31.7531756 19.133928,32.2831668 L19.133928,32.2831668 L18.9862034,32.419919 L18.9830508,32.4245724 L19.087,32.429 L17.5010079,33.0068922 L17.7688953,34.3489315 L20.8134994,33.2407862 L21.079427,34.2584808 L17.9220598,35.4076685 L18.301881,37.0572436 L21.7462816,35.8035843 L21.773,35.907 L21.6949153,35.9544883 L21.803,36.021 L21.9328077,36.5175797 C21.6242174,36.5925995 21.6333712,36.6253685 21.8595363,36.6101955 L21.9554927,36.6021328 L21.9554927,36.6021328 Z M27.1614558,28.3767748 C27.1385951,28.4297175 27.1239436,28.4798746 27.1186441,28.5267275 L27.126,28.49 L27.1293317,28.4748058 C27.0245536,28.390769 27.026546,28.6536657 27.1378877,28.5833021 L27.1847716,28.5399656 L27.1729581,28.5469799 C27.1679957,28.545058 27.168668,28.5332995 27.1738225,28.5318618 L27.1738225,28.5318618 L27.182,28.537 L27.1733513,28.5255102 C27.3772887,28.5197312 27.5592803,28.5004867 27.7222092,28.4696749 L27.9162192,29.2160653 L27.306847,29.4368387 C27.3335706,27.8791498 27.1636039,28.5993946 27.0424882,29.5342174 L24.3693067,30.5070359 L24.7827081,32.2488717 L28.032336,31.0661038 L28.2880125,32.0875296 L24.9461238,33.3038776 L25.4361074,35.5750818 L23.7160999,36.2006884 C23.7039956,36.2025088 23.6919528,36.2043238 23.6799711,36.2061332 L23.593,36.219 L23.665646,36.1896027 C24.6170888,35.7595459 24.8276479,34.6461657 23.2407236,35.1941328 L22.2871843,30.5915322 L21.8481168,30.3101896 Z M24.5431027,32.2176897 C24.5336372,31.0756932 24.4147481,30.166017 24.2809804,33.1314982 L24.2809804,33.1314982 L24.2732034,33.293919 L24.2775334,33.2308502 C24.28181,33.1623038 24.2844132,33.158276 24.2854492,33.1832142 L24.2854492,33.1832142 L24.285841,33.2379021 L24.2839616,33.3093746 C24.2819694,33.3566923 24.2785162,33.3974235 24.2702034,33.388919 L24.2702034,33.388919 L24.2898235,33.4722248 C24.4656961,34.1857438 24.5370548,33.3525917 24.5432615,32.4893947 L24.5432615,32.4893947 Z M35.512956,25.3365949 L35.7767268,26.5579109 C34.7876913,27.2142608 35.3642565,28.0492373 36.1731632,28.3811713 L36.8354332,31.4260666 L31.228031,33.4669941 C31.0298413,33.5391292 30.8575685,33.5283064 30.7112127,33.4345255 C30.5648569,33.3407447 30.4556114,33.1947594 30.3834762,32.9965697 L29.8379545,30.4108016 C29.9160137,29.8259401 29.9552412,29.1537695 29.9583657,28.791449 L29.9583657,28.791449 L29.958248,28.6943271 C29.9576791,28.6510782 29.9563547,28.6151818 29.954216,28.5883355 C30.2158849,28.7171389 30.7453083,28.9722461 31.2575345,29.2179392 L31.2575345,29.2179392 L31.4173428,29.2945553 C31.4437748,29.3072214 31.4700784,29.319823 31.4962128,29.3323406 L31.4962128,29.3323406 L31.6506624,29.406284 C31.6696383,29.4153646 31.688473,29.4243761 31.7071496,29.4333104 L32.2435024,31.9829083 L34.6012766,31.1247487 L33.6491987,26.340005 L33.1449306,26.1984856 L35.512956,25.3365949 Z M41.377594,25.9965745 C40.8896883,26.1138544 40.2346316,26.3562468 39.7924412,26.6673418 L39.5219252,26.4314761 L39.603779,26.8165633 C39.4622154,26.9441876 39.3610404,27.0807263 39.3220339,27.2229465 C39.441287,27.1800934 39.5558798,27.1384387 39.6659488,27.0979623 L39.839539,27.9197763 L39.839539,27.9197763 L39.6686717,28.0907246 C39.5781604,28.1831504 39.5071398,28.259311 39.45359,28.320662 L39.45359,28.320662 L39.3886357,28.3985436 C39.3599287,28.4351039 39.3409816,28.4633186 39.3311354,28.482717 L39.337,28.472 L39.3494058,28.4700039 C39.3716123,28.4668236 39.4067463,28.4643654 39.4526514,28.46256 L39.483,28.461 L39.5036347,28.449561 C39.6033443,28.3882262 39.738498,28.293161 39.8947741,28.1746875 L39.9561928,28.4600654 L39.9561928,28.4600654 L39.8400831,28.4590034 C39.7061438,28.4581247 39.5901439,28.4586728 39.502067,28.4609695 L39.483,28.461 L39.4343976,28.4897908 L39.4343976,28.4897908 L39.409,28.501 L39.4325035,28.504946 C39.5337938,28.5190222 39.7091941,28.5367482 39.9767813,28.5587069 L40.3208385,30.1574828 L38.5473823,30.8029681 L38.1003398,28.6424646 C38.0963408,28.5921969 38.0876612,28.5595607 38.0757637,28.5421483 L38.081,28.554 L38.078,28.54 L38.0914219,28.5317511 L38.073,28.516 L37.9143403,27.7443647 C38.0118539,27.3642689 37.9801635,26.8277959 37.7454682,26.0972129 L37.689,25.932 L37.7041273,25.9876845 C37.7266943,26.1095675 37.6835313,26.1981082 37.6061115,26.2594074 L37.366688,25.1030417 L36.8251087,24.8590104 L37.9198271,24.4624848 C37.9133356,24.6470969 37.9203757,24.698891 37.9545276,24.4224055 L37.95,24.449 L37.971,24.442 L38.0070922,24.4858602 C38.0302711,24.5099242 38.0553727,24.5327049 38.0825136,24.5542699 L38.170171,24.6153846 C38.1733264,24.5272583 38.17225,24.4457909 38.1673284,24.3696591 L39.1931341,23.9971196 L41.503828,25.9682315 L41.503828,25.9682315 Z M43.4268764,22.4561634 L44.7493536,28.5456351 L43.1993715,29.110278 C43.069265,28.9121615 42.8656315,28.7301301 42.5679341,28.5820972 L42.5679341,28.5820972 L42.465,28.533 L42.4592034,28.530919 L42.4539502,28.5291173 C42.407302,28.6485136 42.3696602,28.7652655 42.3353089,28.8771365 L41.9834965,28.5686298 C42.0652322,28.5599697 42.0429992,28.5498344 41.9496602,28.5392836 L40.7329126,27.4823633 C40.8252811,27.4002168 40.9173103,27.3163242 41.007282,27.2319238 L41.007282,27.2319238 L41.141464,27.1041472 C41.1634935,27.0828394 41.1853375,27.061539 41.2069687,27.0402657 L41.3339816,26.9131097 C41.5554571,26.6871797 41.7461907,26.4689076 41.8724151,26.282631 L42.5781744,26.886336 L41.7456809,23.0680685 L43.4268764,22.4561634 Z M29.8305085,5.42372881 C35.4516377,5.42372881 40.6289379,7.32398623 44.7550591,10.5171508 C44.766535,10.7596205 44.791164,11.0361281 44.8305689,11.3491108 L44.8305689,11.3491108 L44.857,11.547 L44.8473442,11.4618884 C44.7747457,10.6842174 45.2972847,11.4294854 44.9719129,11.5590972 L44.9221528,11.5727547 L44.8610683,11.577575 C45.264836,11.577575 45.5521815,11.4821502 45.7479465,11.3278099 C50.6042345,15.509251 53.7964722,21.5706146 54.1950418,28.38244 C53.5643384,28.4528464 53.1966523,28.5092401 53.0186732,28.5535713 C52.9976721,28.5484459 52.9776084,28.5436985 52.9585684,28.5393211 L52.9585684,28.5393211 L52.9536241,28.5153723 C52.9235987,28.415474 52.8642536,28.433857 52.8273139,28.4804141 L52.8416434,28.4660854 C52.8147553,28.005463 52.7743416,27.5484729 52.7207935,27.0955063 C52.8572195,26.7405548 52.9076581,26.3512225 52.8684636,25.9191656 L52.871,25.976 L52.8777466,25.9745366 C52.9455361,26.0955887 52.9719706,26.0774106 52.9297932,25.9784946 L52.9297932,25.9784946 L52.9984798,25.9872 C53.2898285,26.0217658 53.1253252,25.9579286 52.9278853,25.9040937 L52.9278853,25.9040937 L52.9224967,25.8910842 C52.9059147,25.8586667 52.8859721,25.8538893 52.8695362,25.8647698 C52.8641733,25.8560743 52.8585158,25.8471509 52.8525555,25.8380132 L52.8525555,25.8380132 L52.8262034,25.798919 C52.8206381,25.7911261 52.8179457,25.7874141 52.8122619,25.7795777 C52.8218237,25.8085413 52.831093,25.8349958 52.8400008,25.859057 L52.8400008,25.859057 L52.8483121,25.8801568 C52.6197463,25.8268576 52.4248743,25.8030268 52.8928209,25.9731737 L52.836,25.952 L52.8144198,25.9443491 C52.7273476,25.9858304 52.6473149,26.0284612 52.5737233,26.0721288 C52.5436845,25.8720984 52.5082559,25.6726538 52.4702805,25.4741135 L52.4437402,25.5245324 C52.3303992,25.7128352 52.1746338,25.8430541 51.9764441,25.9151893 L50.1499794,26.5816228 C50.168051,26.3826086 50.1739505,26.1627141 50.1660782,25.9191656 L50.167,26.023 L50.1569218,26.0127007 C50.1467312,26.00146 50.1366479,25.9892311 50.1269332,25.9764211 L50.114,25.959 L50.046634,26.0112596 C49.5801221,26.3718929 49.3576167,26.5615627 49.2002206,26.9251704 L47.1926881,27.6573219 C47.3827422,27.2806935 47.4888425,26.7664609 47.4494787,26.085913 L47.4494787,26.085913 L47.447,26.065 L47.4513703,26.1566237 C47.4695307,26.9465077 47.0848199,26.2262029 47.3288154,25.9819988 L47.3680602,25.9505657 C47.3771129,25.9498111 47.386318,25.9490066 47.3956277,25.9481573 L47.3956277,25.9481573 L47.5217515,25.9346337 C47.7282743,25.9091781 47.8813451,25.8728985 47.4554481,25.8821435 L47.4554481,25.8821435 L47.4788409,25.8829694 C47.4903485,25.8866791 47.3819397,25.8999186 47.4158938,25.8906569 L47.4158938,25.8906569 L47.3456571,25.9043458 C47.1089528,25.9548663 47.1746759,25.963415 47.3126868,25.9544924 C46.8379023,26.091824 46.4410186,26.2371713 46.1125281,26.3860965 L45.1780965,22.2599215 L44.7390291,21.9785789 L50.6107723,19.8421617 C46.8890786,12.1134695 38.9826824,6.77966102 29.8305085,6.77966102 C28.9956398,6.77966102 28.1711376,6.82404489 27.3592326,6.91058178 C27.3247154,6.58930728 27.2523978,6.150681 27.1289844,5.57393193 C28.0154643,5.47390176 28.9171271,5.42372881 29.8305085,5.42372881 Z M41.7424598,26.1758277 L41.7760466,26.2003054 C41.7506294,26.2151785 41.7231656,26.2306879 41.6935827,26.2468444 L41.612,26.29 L41.4219244,26.4600874 C41.0655174,26.7774492 40.7623696,27.0519782 40.5067455,27.2878084 L40.1026744,26.9345817 C40.7555519,26.6857875 41.2147622,26.4883923 41.521088,26.3363423 L41.612,26.29 C41.6572868,26.2511272 41.6995364,26.2137476 41.7424598,26.1758277 Z M49.0232826,25.9008935 C49.3648535,25.8574568 49.6882285,25.7378053 49.9038598,25.5551391 L50.5316293,25.3265745 L49.7307563,21.2762231 L47.3627309,22.1381139 L47.7501545,24.0785861 C47.1823387,25.0569537 47.5185396,25.6034579 48.0994281,25.8152902 L48.1738551,26.1847341 L48.924172,25.9113106 L48.924172,25.9113106 Z M52.3491783,24.8832038 L52.4702805,25.4741135 C52.5420604,25.3363645 52.5636381,25.1958458 52.535739,25.052671 L52.5055491,24.9447936 L52.2817969,23.9209004 C52.4670986,23.7335625 52.6666888,23.5307692 52.8813559,23.3116037 C52.7436883,23.348099 52.5141855,23.5105086 52.2452732,23.7378559 L51.3407968,19.5757319 L50.6107723,19.8421617 C51.226718,21.1212715 51.7280417,22.465979 52.1014205,23.8629613 L52.0244134,23.9309158 L51.8951837,24.0488745 C51.8734204,24.0690075 51.8515589,24.0893603 51.8296209,24.1099079 L51.8296209,24.1099079 L51.6972468,24.2353295 C51.5864573,24.3414602 51.4748334,24.4512044 51.3650732,24.5614237 L51.3650732,24.5614237 L51.1701005,24.7596536 C50.7265271,25.2161627 50.343309,25.6482734 50.2075709,25.824721 C49.9933135,25.6783608 50.020714,25.8145645 50.0991567,25.9366542 L50.114,25.959 L50.1660782,25.9191656 L50.1660782,25.9191656 L50.167,26.023 L50.1875535,26.0430512 C50.2484144,26.0961952 50.3037213,26.0991141 50.2969955,25.9639032 L50.289,25.898 L50.2905138,25.91685 C50.2872737,25.9388161 50.2633073,25.8856083 50.273395,25.8788444 L50.2882018,25.88438 L50.2632459,25.8666299 C50.2719231,25.8599831 50.2812378,25.8526756 50.2912046,25.8446907 L50.2912046,25.8446907 L50.3699406,25.7791184 C50.5783096,25.6004041 50.9620608,25.2384228 51.5804253,24.6242826 L51.5804253,24.6242826 L52.1515885,24.0539638 C52.2224139,24.3284294 52.2883104,24.6048761 52.3491783,24.8832038 Z M14.6199003,10.743738 C15.1625974,11.1937541 15.5506638,11.4361327 15.8136346,11.5304193 L15.6957834,11.6224597 C15.5320249,11.5965431 15.3452763,11.5704362 15.1519169,11.545575 L15.1519169,11.545575 L14.9772181,11.5236568 C14.9186862,11.5164875 14.860001,11.5094679 14.8015998,11.5026361 L14.8015998,11.5026361 L14.6276854,11.482743 L14.6276854,11.482743 L14.4754844,11.4660681 C14.2221159,11.4388857 13.9917317,11.4170852 13.825368,11.4042642 C14.0541878,11.2048526 14.2870531,11.0098737 14.5235492,10.8192175 Z M8.42600819,11.2290094 C9.68662746,10.5753834 10.45832,9.39819266 7.00250576,11.3417485 L7.00250576,11.3417485 L6.783,11.465 L6.88308451,11.4133029 C7.39858338,11.1632898 7.37834183,11.5446754 7.06873914,11.5520179 L7.00303346,11.5482012 L6.93820339,11.533919 L6.97250598,11.5448957 C7.3424698,11.6408696 7.82170237,11.5144215 8.26271014,11.309326 Z M26.8811845,5.60011317 L26.8766183,5.63588924 C26.8172168,6.10540654 26.8662622,6.5834909 26.9535273,6.95770687 C22.9880771,7.45122819 19.3355918,8.95201933 16.2597312,11.1958732 C16.2050853,10.8731005 15.9502278,10.3980975 15.6065033,9.99555902 C18.8578627,7.65899656 22.7074057,6.10284252 26.8811845,5.60011317 Z M40.5473936,2.60852747 C39.0159694,1.60606147 38.7686565,2.77859136 40.6779661,2.69717451 L40.6779661,2.69717451 L40.56707,2.69983152 C39.9918729,2.70154279 40.3040275,2.48820048 40.6219767,2.66230551 L40.6219767,2.66230551 L40.6712034,2.69291898 Z M32.5423729,2.65382747 C31.8530653,2.2158046 30.8411568,2.23622848 29.8305085,2.25486775 C30.4561779,2.50748936 31.2078634,2.67107871 32.5423729,2.65382747 Z M30.031,28.622 L30.027,28.62 L30.004,28.609 L30.014,28.614 L29.9711272,28.5941704 L29.9541282,28.5858428 C29.9487076,28.516679 29.9383501,28.5043415 29.9231978,28.5694879 L29.9231978,28.5694879 L29.9012034,28.559919 L29.8726941,28.5469604 C29.8641007,28.5428389 29.856549,28.5392169 29.8432034,28.532919 L29.8432034,28.532919 L29.8362034,28.528919 C29.8305085,28.5267275 29.8323313,28.5276018 29.8357166,28.5292254 L29.9218705,28.5723829 C29.9107419,28.6240376 29.8958401,28.7241563 29.8779837,28.8797248 C29.7892689,28.2297943 29.7547046,28.5927854 29.7555228,29.0447836 L29.7572501,29.2065037 C29.7619533,29.4501143 29.7759545,29.6882066 29.7964689,29.7836885 C29.7888362,29.8816203 29.7809432,29.9861176 29.7727916,30.0974642 L29.3129444,27.9182725 L28.9111883,27.7394418 L31.1767017,26.9148624 L31.7059557,29.426583 C31.3612866,29.2609388 30.8958881,29.0375487 30.2843641,28.7443172 L30.2843641,28.7443172 L30.1822034,28.694919 L30.1877841,28.6980824 L30.1455985,28.6778495 L30.1322034,28.670919 L30.069,28.641 L30.067,28.64 L30.0462034,28.629919 L30.04,28.626 L30.031,28.622 Z" id="Combined-Shape"></path>
            </g>
        </g>
    </g>
</svg>