<?xml version="1.0" encoding="UTF-8"?>
<svg width="60px" height="60px" viewBox="0 0 60 60" version="1.1" xmlns="http://www.w3.org/2000/svg" xmlns:xlink="http://www.w3.org/1999/xlink">
    <title>B3ED03C0-AB59-45B7-B806-FC867CA380C7</title>
    <g id="Page-1" stroke="none" stroke-width="1" fill="none" fill-rule="evenodd" opacity="0.154603504">
        <g id="UiKit_Icons" transform="translate(-1300.000000, -3030.000000)" fill="#CB0202">
            <g id="Icon_stamp_refund_tc" transform="translate(1300.000000, 3030.000000)">
                <path d="M51.531,11.669 L51.536,11.667 C51.5294323,11.6708976 51.5279625,11.6715901 51.5269604,11.6720622 L51.7033606,11.6720568 C52.2314513,11.6675461 52.5526424,11.6426489 52.7217107,11.6125053 C52.5890845,11.7918456 52.6800236,11.9092647 52.8335809,11.7742048 C52.8569495,11.8545408 52.8883472,11.8845329 52.9197929,11.786657 C52.9489056,11.8586277 52.9683556,11.8705095 52.9536916,11.7350487 C53.0326347,11.8408732 53.1712876,11.9932329 53.3451145,12.1709411 L53.3451145,12.1709411 L53.516749,12.3434467 C53.6169509,12.4426608 53.7245519,12.5469143 53.836136,12.6532575 L53.836136,12.6532575 L53.9717302,12.7816835 L54.1098364,12.9109828 C54.2256072,13.0187815 54.3426282,13.12631 54.4574835,13.2306185 L54.4574835,13.2306185 L54.5940517,13.3540544 C54.6827094,13.4338006 54.7691763,13.510818 54.8517841,13.5836657 C57.8939814,18.2580275 59.6610169,23.8379114 59.6610169,29.8305085 C59.6610169,32.1174287 59.4036711,34.3442426 58.9163586,36.4835709 C58.3626074,36.6984238 58.0499596,37.1654064 58.5724442,37.8383524 C55.0745212,50.4247581 43.5311368,59.6610169 29.8305085,59.6610169 C18.9358872,59.6610169 9.40535435,53.8206598 4.19899774,45.1000331 C4.21928077,44.366612 4.22820591,43.8468386 4.22960155,43.4944707 L4.22960155,43.4944707 L4.22945231,43.2835948 C4.223887,42.4108681 4.15261756,43.0642759 4.11895631,43.8612743 L4.11895631,43.8612743 L4.11235647,44.0337537 L4.1071338,44.2076056 C4.10639067,44.2365274 4.10571433,44.2653804 4.1051095,44.2941016 L4.1051095,44.2941016 L4.10237615,44.4643442 C4.10207615,44.4922865 4.10185706,44.5199711 4.10172359,44.547335 L4.10198785,44.7071664 C4.10273092,44.7914083 4.10448489,44.870899 4.10741303,44.9434534 C1.49691399,40.5120371 0,35.3460843 0,29.8305085 C0,24.276754 1.51770892,19.0774794 4.16099845,14.624813 C3.97016293,15.6075908 3.89168426,16.3181802 3.88462557,16.624804 L3.88469611,16.7072774 C3.89580599,17.0409772 4.05978204,16.4228049 4.23380439,14.3957331 L4.22222918,14.5221383 C9.43367342,5.82301784 18.9520716,0 29.8305085,0 C36.40414,0 42.4811461,2.12630639 47.4112709,5.72866337 C47.387625,5.87576282 47.3641393,6.03748381 47.3427408,6.20267887 L47.3427408,6.20267887 L47.3146454,6.43193631 C47.1953164,7.46403124 47.1794783,8.43789678 47.5763791,6.75662344 L47.5763791,6.75662344 L47.649,6.431 L47.6364477,6.47417272 C47.5872887,6.61101536 47.6544245,6.02022499 47.669235,6.18564719 L47.6717499,6.24361588 L47.671,6.292 L47.6741355,6.12257423 C47.6747361,6.04951793 47.6749758,5.98077305 47.6748733,5.91617361 C50.3419964,7.91742387 52.6645407,10.3475069 54.5366018,13.1079138 C54.1768724,12.7639871 53.7100934,12.3221768 53.1177507,11.7676011 L53.1177507,11.7676011 L52.968,11.627 L53.0180852,11.6715818 C53.8739193,12.425208 53.7515584,11.6979348 53.0071113,11.5878927 L52.999,11.586 C52.9992917,11.5755651 53.0039149,11.5667114 53.0065836,11.5584133 L53.0090149,11.5352002 L53.043019,11.4674714 L53.043019,11.4674714 L53.0638039,11.4222667 L53.093,11.349 L53.093,11.352 L53.0941914,11.3507101 L53.1050676,11.3225694 C53.0436563,11.3527095 52.9895931,11.3836498 52.9422724,11.4146706 L52.9422724,11.4146706 L52.929616,11.4235488 C52.8743582,11.3075943 52.8389903,11.2885642 52.818944,11.3211779 C52.804658,11.3060761 52.8013738,11.3232205 52.8053858,11.3585845 C52.8003887,11.3813622 52.7975199,11.4103698 52.79648,11.4428597 L52.79648,11.4428597 L52.7956567,11.486979 C52.7864973,11.4913259 52.7784191,11.4965622 52.7743446,11.5029911 C52.5490947,11.4616175 52.0122783,11.4704481 51.5931848,11.6429387 L51.5931848,11.6429387 L51.5468028,11.6627141 L51.544,11.663 L51.537,11.666 L51.531,11.669 Z M9.626,11.627 L9.627,11.624 L9.627,11.593 L9.628,11.593 L9.628,11.579 L9.59479651,11.773569 C9.59450994,11.7752661 9.59422366,11.7769623 9.59393766,11.7786576 C9.55888184,11.8166143 9.52470186,11.8551235 9.49063008,11.8937304 C9.48995374,11.8130011 9.47070713,11.7454486 9.43599222,11.6921852 C9.44534626,11.6767364 9.45422218,11.6619825 9.46263761,11.647901 L9.46263761,11.647901 L9.47428227,11.6402964 L9.54,11.587 C9.51947159,11.5993568 9.56740976,11.5506986 9.56877019,11.5566362 L9.562,11.568 L9.60346298,11.5085308 C9.65077965,11.4346459 9.64238047,11.4238714 9.60880358,11.4450583 L9.58588043,11.4613566 L9.556,11.484 L9.5804278,11.4378047 C9.63024664,11.3342809 9.55887047,11.416562 9.48586295,11.5316734 L9.458,11.576 L9.4590709,11.5760628 L9.43798548,11.5991892 C9.42132826,11.616673 9.40576851,11.63371 9.39323399,11.6482465 C9.36796784,11.6260178 9.3380772,11.6086925 9.30272138,11.59596 C9.28721796,11.573533 9.27866337,11.572457 9.27590627,11.5884619 C8.87114576,11.4879944 7.94228315,12.0668927 6.88335005,13.9929688 L6.88335005,13.9929688 L6.79120339,14.162919 L6.78220339,14.178919 C7.34213433,13.9749178 7.80473112,13.74065 8.17855856,13.5011565 C4.74630586,18.0440342 2.71186441,23.6996867 2.71186441,29.8305085 C2.71186441,32.7606564 3.17657965,35.5822643 4.03632788,38.2256499 C3.99143492,38.4192949 3.94901084,38.6463336 3.92220339,38.874919 L3.92220339,38.874919 L3.92214788,38.8784373 L3.92020339,38.898919 L3.91920339,38.907919 L3.91698941,38.9334138 L3.91520339,38.943919 L3.915,38.951 L3.96741345,38.7651336 C3.98396117,38.7041811 3.9995114,38.6462277 4.01406336,38.5912859 L4.054,38.436 L4.05372522,38.5381906 C4.05313148,38.6025405 4.05267931,38.658761 4.05235568,38.7073329 L4.05196502,38.7745144 L4.05191461,38.863801 C4.04950711,38.8734049 4.04727494,38.8838041 4.04600468,38.8950396 C3.94865469,38.9635578 3.86861526,39.0964985 4.03910396,39.0443876 C4.04136381,39.0693205 4.04539785,39.0948863 4.05165464,39.120465 L4.051,39.119 L4.06195981,39.0748429 L4.06195981,39.0748429 L4.06868192,39.0358121 C4.10220844,39.0237951 4.14328613,39.0061314 4.19305032,38.9816154 L4.19305032,38.9816154 L4.17396339,38.9854491 C4.15993025,38.9789116 4.18650049,38.9342788 4.19294214,38.9535686 L4.19294214,38.9535686 L4.192,38.966 L4.19529817,38.9259701 C4.19295244,38.8950447 4.18336003,38.8759926 4.16917234,38.8659979 L4.14477576,38.8574471 L4.12284873,38.8593921 L4.11547479,38.8603706 L4.09758658,38.8654459 C4.10465062,38.7693764 4.07891654,38.7785545 4.05812293,38.8408441 L4.058,38.839 L4.06030119,38.7551521 C4.06183306,38.691065 4.06352896,38.6134746 4.06541667,38.5248693 L4.06839556,38.3840114 C4.07153929,38.3717754 4.07462697,38.3597136 4.07765928,38.3478245 C7.64869271,49.1532569 17.8291861,56.9491525 29.8305085,56.9491525 C44.807722,56.9491525 56.9491525,44.807722 56.9491525,29.8305085 C56.9491525,29.403742 56.9392946,28.979278 56.9197939,28.5573318 C58.8747771,28.6797443 58.5471281,28.5294937 57.2551883,28.4696146 C57.7396458,27.8110711 58.0543572,27.5701605 58.2036432,27.4904687 L58.2036432,27.4904687 L58.224,27.479 L58.1884293,27.4800957 C58.0115498,27.4760849 57.6343994,27.3721552 57.0629529,26.8137321 L56.9276343,26.6766359 L56.849,26.59 L56.901455,26.6390036 C57.0944088,26.8056926 57.0559616,26.6019267 56.8424315,26.5358045 L56.785434,26.5224355 L56.9428488,26.5463226 C59.046515,26.8387012 57.9994652,25.5607034 56.6829736,26.0197354 C56.144598,22.1873681 54.8044872,18.6118592 52.8380095,15.4683099 L52.8571367,15.3677394 L52.8571367,15.3677394 L52.878,15.167 L52.890586,15.2290918 C52.9497349,15.5340706 53.0053166,15.6568964 52.9886082,15.1093416 L52.9842823,14.9907476 L52.977,14.851 L52.978965,14.8900294 C52.9815073,15.0321072 52.9419503,14.7114642 52.9659242,14.7843229 L52.972,14.808 L52.9379888,14.6618637 C52.751054,13.8904814 52.7483056,14.1874063 52.7996581,14.626525 L52.808197,14.6969062 C52.7001158,14.4562649 52.4598026,14.2825269 52.0065997,14.215535 C51.0027856,12.7946123 49.8669276,11.4739886 48.6160325,10.272216 C48.9109911,9.21466674 48.9506545,8.15724331 48.2075947,9.88917107 C43.3771605,5.43358714 36.9216807,2.71186441 29.8305085,2.71186441 L29.788,2.711 L29.7876471,2.69504452 C29.7869673,2.68488051 29.7864385,2.67697517 29.7852034,2.66491898 L29.7852034,2.66491898 L29.7842034,2.65491898 L29.7832034,2.63991898 L29.7838231,2.63787195 L29.7822034,2.61691898 L29.7815287,2.60356841 L29.7815287,2.60356841 L29.779121,2.56757086 L29.7772034,2.54591898 L29.77677,2.53242032 C29.7752593,2.50983362 29.7738996,2.4895056 29.7729177,2.47482424 L29.7729177,2.47482424 L29.771,2.457 L29.7740824,2.64015815 C29.7744637,2.66446474 29.774853,2.68859602 29.7752501,2.71255162 L29.8305085,2.71186441 C26.3898992,2.71186441 23.0989417,3.35259952 20.0704489,4.52125662 C19.8693054,4.32529949 19.5392197,4.07161805 19.0371333,3.75488918 L19.0371333,3.75488918 L19.0865299,3.79163425 C19.2776137,3.95956171 19.1777164,4.23226841 19.0836384,4.28583716 L19.0836384,4.28583716 L19.0712034,4.28991898 L19.0763725,4.30298749 C19.1529793,4.49262594 19.2899448,4.65113325 19.4464725,4.77283058 C19.3117798,4.82690137 19.1768415,4.88417107 19.0424679,4.94249713 L18.9830508,4.94449268 C18.9955871,4.94704436 19.0080123,4.94965605 19.0203337,4.95232192 C18.0754814,5.3632813 17.1593897,5.82624403 16.2748687,6.33772644 C16.2920569,6.29446481 16.311381,6.1710786 16.3326849,5.93997249 L16.3326849,5.93997249 L16.342,5.822 L16.3404372,5.83729774 C16.3280368,5.90843703 16.3226521,5.61527632 16.3384456,5.72886844 L16.34,5.742 L16.3285872,5.6196621 C16.2401768,4.75352132 16.2006145,5.03895952 16.1972241,5.48508111 L16.197767,5.66975074 C16.2017104,5.97800167 16.2204007,6.29846869 16.2502925,6.35401264 C13.7644812,7.79279529 11.5281357,9.61759747 9.62282024,11.7450415 L9.62589673,11.6729809 L9.62589673,11.6729809 L9.625,11.669 L9.62618514,11.6625816 L9.626,11.632 L9.627,11.626 L9.626,11.627 Z M40.8135183,50.1004427 C41.1510661,50.2923103 41.5549294,50.4903564 42.0338983,50.6910039 L41.9772656,50.6676023 C41.8685062,50.7886371 42.2788142,50.7863238 42.0248749,50.6287787 L42.0248749,50.6287787 L42.0331228,50.6391639 C42.0321823,50.6415284 42.0284766,50.6427769 42.0247788,50.6428526 L42.0247788,50.6428526 L42.0222034,50.630919 L42.0041443,50.5284039 C41.9928809,50.4716554 41.9808986,50.4160381 41.9689716,50.362432 C42.0181076,50.4628117 42.0594211,50.5373007 42.092626,50.587959 C42.006333,50.5946199 42.0053844,50.6186487 42.1573598,50.669991 C42.1807061,50.6913882 42.1984667,50.6957404 42.2095471,50.6855508 C42.264258,50.7021077 42.333029,50.7210442 42.4176058,50.7425857 C38.7439531,52.9615628 34.4362116,54.2372881 29.8305085,54.2372881 C27.0113265,54.2372881 24.3037832,53.7593062 21.7844979,52.8799615 C21.7797726,52.6333209 21.7676086,52.2608582 21.7462292,51.7333819 L21.7462292,51.7333819 L21.739,51.583 L21.7418362,51.6449992 C21.7472409,51.8567134 21.7144737,51.3770945 21.7267334,51.4256521 L21.7303997,51.4467887 L21.7260586,51.4163245 C24.2472624,52.3633641 26.9783937,52.8813559 29.8305085,52.8813559 C33.7770042,52.8813559 37.4918591,51.8895832 40.7394321,50.1416785 Z M9.572,17.051 L9.575,17.05 L9.54820339,17.057919 L9.56832677,17.0529764 L9.53720339,17.060919 L9.52920339,17.062919 L9.522,17.064 L9.51298462,17.0674422 C9.50959633,17.0683278 9.50656098,17.0691212 9.50320798,17.0699977 L9.49152542,17.0730513 C9.92268313,17.0528767 10.3423861,17.0036078 10.7177165,16.9422285 C9.61735233,18.5692497 8.72029845,20.3443578 8.06165263,22.2312923 C6.31289011,21.3349951 6.60160441,23.3716728 7.46126964,24.2435311 C7.32063546,24.8087985 7.20067338,25.3828403 7.10248185,25.9642805 C6.6841081,26.0941363 6.71178615,26.4852988 6.96140646,26.924198 C6.84136612,27.8761455 6.77966102,28.846121 6.77966102,29.8305085 C6.77966102,33.0170241 7.42623913,36.0525234 8.59535476,38.8129656 C8.43567996,38.8139591 8.27933246,38.8472754 8.13559322,38.9484725 C8.34451211,39.0121589 8.5373797,39.0673151 8.7154201,39.0911384 C11.1881998,44.721713 15.8476455,49.1749036 21.6189924,51.3758014 C21.6280288,51.5313723 21.6378733,51.7031843 21.6488655,51.8778179 L21.6627586,52.091027 C21.681514,52.3694789 21.7022586,52.6420442 21.7213763,52.8575473 C12.2281108,49.514894 5.42372881,40.4673255 5.42372881,29.8305085 C5.42372881,22.4951791 8.6596992,15.9156512 13.7819707,11.4415939 C14.06259,11.4868311 14.6322165,11.5638546 15.6155241,11.6842192 C13.7874416,13.1172742 12.1815637,14.821368 10.8578959,16.7355265 C10.5951084,16.7955623 10.2859381,16.8699474 9.92880542,16.9604269 L9.92880542,16.9604269 L9.71520339,17.013919 L9.69538782,17.0197643 L9.64320339,17.032919 L9.58820339,17.047919 L9.572,17.051 Z M12.2033898,50.7623566 C11.3203062,50.5591092 10.7312746,50.3780704 9.49152542,50.6217689 C10.5480719,50.8735974 11.1811649,50.9741305 12.2033898,50.7623566 Z M42.6869584,50.5805917 L42.6209171,50.620052 C42.4795485,50.6042473 42.3435527,50.592469 42.2381193,50.587973 L42.2381193,50.587973 L42.2389907,50.5514939 C42.2353676,50.263221 42.0798605,49.6137848 41.9613831,49.4340827 C43.9851531,48.179842 45.799898,46.6205725 47.3419965,44.8207995 C47.3420021,45.0390608 47.3423234,45.257358 47.3427093,45.4758801 C47.5368866,45.1765139 47.6224779,44.8779887 47.5478072,44.5798712 C48.5977102,43.3175126 49.517095,41.9415856 50.2829114,40.4728477 L50.3741682,40.4752083 C50.9623266,40.4915608 51.4418776,40.4754046 51.8180142,40.4413144 C49.7937496,44.6247872 46.6114736,48.1438555 42.6869584,50.5805917 Z M13.7721834,30.5853285 C13.8390597,30.7558662 13.9230029,30.9386561 14.0258231,31.1342894 L14.024,31.132 L14.0136428,31.1003108 C13.9638758,30.8368527 15.007005,30.7523574 14.3647749,31.0149019 L14.2664907,31.0528702 L14.164,31.087 L14.2358869,31.0657396 C14.470763,30.9864347 14.6818027,30.905837 14.8707403,30.8245132 L16.7126994,39.5009795 L20.1389566,39.3010748 L26.9596683,36.8174375 C26.9524044,37.2154094 26.9819515,37.894611 27.0760098,38.9569752 L27.073,38.925 L27.0638844,38.8402989 C27.0135123,38.8557683 26.9901388,38.879921 26.9837834,38.9072235 L26.9827309,38.9353709 C26.7774645,38.9384407 26.8572241,38.9523481 26.996868,38.9642776 L26.996868,38.9642776 L27.002598,38.9741064 L26.9847935,38.977313 C26.8862267,38.9964684 26.8445209,39.0072489 27.0082196,38.9824659 C27.0809632,39.0844683 27.2904007,39.1657937 27.2471701,38.9778748 C27.3748316,38.9819296 27.4475327,38.9774205 27.2870099,38.9537123 L27.238,38.947 L27.2384996,38.9453195 C27.4008999,38.9066924 27.3436906,38.9137912 27.2342723,38.9342552 C27.2230776,38.9028918 27.2065275,38.8660568 27.183594,38.8230951 L27.183,38.824 L27.1846122,38.8404819 C27.1753841,38.8510413 27.1416461,38.8431233 27.1394594,38.8347723 L27.1498661,38.8269452 L27.183594,38.8230951 L27.140398,38.8265388 C27.2363464,38.6147764 27.2597872,38.4657209 27.2485456,38.385682 L27.2485456,38.385682 L27.2432034,38.363919 L27.2511181,38.3085611 C27.3139864,37.774114 27.260007,37.1362914 27.1820819,36.7369608 L30.6259262,35.48413 L31.112548,37.7333395 L21.7432004,41.1428387 C21.7437931,41.0572073 21.7442115,40.9786706 21.7444676,40.9068668 L21.7444676,40.9068668 L21.7441168,40.5493626 C21.742915,40.3937584 21.740128,40.3070224 21.7362204,40.2750853 L21.7362204,40.2750853 L21.7746445,40.2452569 C21.99778,40.0599252 21.3600588,40.4028841 21.6386376,40.3183998 L21.6386376,40.3183998 L21.68,40.303 C21.6819704,40.3001984 21.71044,40.2880717 21.7163412,40.2882936 L21.7130057,40.2934053 L21.7268678,40.2813389 C21.7139727,40.370192 21.6961512,40.7358648 21.6804219,41.1654219 L19.1145527,42.1002527 L16.643797,42.2588665 L16.5435537,43.0360198 L16.1987814,43.1639473 C16.2238852,43.0688671 16.2479907,42.9703537 16.2711864,42.8683181 C15.7793604,43.1417722 15.2725988,43.3853859 14.8321679,43.6585729 L12.6870551,44.4396705 L13.0471517,41.7801197 L12.3140682,38.3473192 C12.3447474,38.2425331 12.3776507,38.1225823 12.4128906,37.9862274 L12.4128906,37.9862274 L12.442,37.864 L12.4250902,37.9138187 C12.3826113,38.0048278 12.4248761,37.6106021 12.4502218,37.679403 L12.4579043,37.7207866 L12.461,37.766 L12.4512535,37.5643569 C12.4180355,36.9748565 12.3745625,36.6324071 12.3274558,36.4699758 L12.311628,36.4224075 C12.3522632,36.383209 12.3398712,36.3177686 12.1842012,36.2359262 C12.2291684,36.2597518 12.1690622,36.2742797 12.1697217,36.2560792 L12.1697217,36.2560792 L12.183,36.236 L12.1289591,36.2893931 C12.0399852,36.3884702 12.0748145,36.4409758 12.1387917,36.4571357 L12.1727711,36.4622342 C12.1260181,36.5899919 12.0813899,36.8151327 12.0441655,37.0796024 L11.3839813,33.9827165 L10.5269816,34.2946389 L10.0300785,31.9470104 Z M52.9805879,28.651384 C53.1014128,28.6708729 53.322403,28.6813294 53.5865918,28.6841599 L53.5865918,28.6841599 L53.911061,28.684085 C53.9860316,28.6833362 54.0624167,28.6821116 54.1392237,28.6804358 L54.1392237,28.6804358 L54.210577,28.6784278 C54.2283188,29.0602285 54.2372881,29.444321 54.2372881,29.8305085 C54.2372881,33.4864289 53.4334682,36.9546071 51.9929215,40.0679499 C51.580334,40.1117446 51.0294705,40.217123 50.3517469,40.4140864 L50.3517469,40.4140864 L50.3063808,40.4277147 C51.7359522,37.6711116 52.6251973,34.5891846 52.8338656,31.322184 C52.8781629,31.3197487 52.893784,31.3079996 52.8707244,31.2846397 L52.8707244,31.2846397 L52.8813559,31.2829826 C52.8667018,31.272135 52.8520853,31.2615421 52.8374864,31.251206 C52.8446133,31.1472981 52.8503034,31.0420382 52.855285,30.9365929 L52.8684863,31.0191391 L52.875,31.049 L52.8690727,31.008514 C52.8515623,30.8731228 52.8944103,30.951987 52.8937376,31.0830223 L52.892,31.117 L52.9119877,30.9055204 C53.0200853,29.6774302 53.025378,28.997214 52.9885064,28.7047535 Z M22.0450417,40.2092318 C24.8382507,39.2895786 20.8129126,37.8989025 21.8795734,40.2607562 L21.8795734,40.2607562 L21.8781791,40.2411448 C21.9014628,40.1656332 22.2466794,40.1276175 22.0355603,40.2094634 L22.0355603,40.2094634 L21.9732034,40.230919 Z M26.7383396,21.8558788 L27.9324437,27.4785027 C27.4951221,27.8716347 27.1493995,28.2548218 27.1186441,28.5267275 L27.126,28.49 L27.1293317,28.4748058 C27.0245536,28.390769 27.026546,28.6536657 27.1378877,28.5833021 L27.1847716,28.5399656 L27.1729581,28.5469799 C27.1679957,28.545058 27.168668,28.5332995 27.1738225,28.5318618 L27.1738225,28.5318618 L27.182,28.537 L27.1733513,28.5255102 C27.5622532,28.5144899 27.8713483,28.4545018 28.1206315,28.3587098 L28.3850931,29.6081768 L27.2730062,30.0137591 C27.2807139,29.9567198 27.2910029,29.9122583 27.2914643,29.9823476 L27.2914643,29.9823476 L27.291,29.986 L27.2977717,29.8146164 C27.3703054,27.383284 27.0917332,28.9251465 26.9759418,30.121863 L24.9570944,30.8558663 L25.7651745,31.5322793 L26.3603375,31.1988825 C26.6185858,31.2786135 26.908949,31.3421285 27.1186441,31.3306103 L27.1186441,31.3306103 L26.9467064,31.2704775 C26.7772841,31.211719 26.629147,31.161892 26.5003916,31.1200038 L26.9276702,30.8818267 C26.9261405,31.199848 26.9752659,31.2708243 27.1125547,30.7795625 L28.8834064,29.7843693 L29.3351215,31.8675019 L27.5433486,32.9793787 L30.0516637,35.0290976 L26.4657966,36.3342464 L21.3712273,32.1610151 L20.4916751,32.481146 L21.1199968,35.4705292 L22.9548849,34.5472818 L23.0983088,35.2459751 C22.7238666,35.3889773 22.2598865,35.6166765 21.6949153,35.9544883 L21.6949153,35.9544883 L21.814429,36.0288382 C22.1318807,36.2155091 22.4388355,36.3104903 22.7236909,36.3395286 L22.809,36.346 L22.6971741,36.3651309 C20.9111841,36.6791192 21.7562841,36.7144418 23.327561,36.3634692 L23.4189541,36.8046998 L17.9531765,39.3304257 L15.9869696,30.1254079 C16.521441,29.5652131 16.2322209,29.0475407 15.6957967,28.7606696 L15.6528153,28.5567867 C15.8525169,28.5357471 16.0215377,28.5137731 16.1321335,28.492854 L16.1321335,28.492854 L16.1422408,28.5086387 C15.9577916,28.5269763 16.0341101,28.5424244 16.1649036,28.5507171 C16.1254157,28.753049 16.1418327,28.9375135 16.2928714,28.6518502 C16.3652313,28.7035784 16.4021133,28.6926835 16.4138366,28.6540442 L16.4138366,28.6540442 L16.4419135,28.6588092 C16.6062667,28.6794044 16.8983267,28.6953337 17.3564931,28.7037941 L17.3564931,28.7037941 L17.3132922,28.7015653 C17.2167018,28.6896653 17.7551043,28.6408552 17.4451141,28.6903654 L17.4451141,28.6903654 L17.593598,28.6688127 C20.5108639,28.2317434 18.1188049,28.3242961 16.8895679,28.4747088 C16.7692247,28.4691395 16.651405,28.465262 16.5514337,28.4638343 L16.5514337,28.4638343 L16.4171041,28.4636197 L16.3772034,28.464919 L16.389,28.436 L16.3788638,28.457924 C16.3624572,28.4828311 16.3693239,28.431382 16.3798226,28.4127971 L16.3880707,28.406727 L16.393,28.416 L16.3769157,28.3523172 C16.3309387,28.2103084 16.2762218,28.2409957 16.2311857,28.3325242 L16.2125309,28.3751495 C16.1975132,28.3825322 16.1824189,28.394919 16.1685267,28.4155814 C16.0621457,28.402452 15.8679567,28.3928093 15.5593306,28.3887627 L15.616,28.389 L15.6115385,28.3736779 C15.7587526,28.330283 15.9151986,28.2769759 16.0812804,28.2129009 L16.266,28.138 L16.1491371,28.1839762 C15.0797631,28.5646714 15.892044,27.2986924 16.2104238,27.9601718 L16.2436461,28.041783 L16.265,28.115 L16.2202968,27.9370013 C15.9343511,26.865485 15.5661678,26.2949274 15.1954097,26.0565655 L21.581,23.732 L21.5801729,23.7589707 C21.5679959,24.0078159 21.5658786,24.2425549 21.5798695,24.4304953 L21.5934775,24.5621651 L21.6002034,24.608919 L21.601,24.612 L21.6330578,24.3293525 C21.6583795,24.0948969 21.6806812,23.8813361 21.7000948,23.6873352 L22.6693857,23.3374968 C22.7655683,23.3246555 22.8411171,23.31364 22.8979628,23.3046457 C22.9966544,23.2916525 23.0570911,23.2790265 23.0500334,23.2688642 C23.0545536,23.2635626 23.0400764,23.2600927 23.0119467,23.2583773 C22.9883933,23.2553189 22.9535533,23.2527246 22.9058395,23.2507076 L26.7383396,21.8558788 Z M55.6528385,38.9569752 C59.3649092,35.797007 58.4592432,36.024755 57.2426485,36.968895 L57.1064106,37.0766118 C56.9921774,37.1686064 56.876646,37.2658947 56.7632354,37.366356 L56.7632354,37.366356 L56.6261565,37.4903506 C56.0838891,37.9914848 55.6252357,38.5476474 55.6475194,38.9123964 L55.6475194,38.9123964 L55.6512034,38.949919 Z M35.0557762,31.4454712 L35.110498,36.2271242 L32.9228935,37.0233471 L32.8681718,32.2416941 L35.0557762,31.4454712 Z M41.3406591,26.4228525 L41.358541,26.5165762 C40.637865,27.1594241 40.1414699,27.6217768 39.8193091,27.939705 L39.6686717,28.0907246 C39.5781604,28.1831504 39.5071398,28.259311 39.45359,28.320662 L39.45359,28.320662 L39.3886357,28.3985436 C39.3599287,28.4351039 39.3409816,28.4633186 39.3311354,28.482717 L39.337,28.472 L39.3494058,28.4700039 C39.3716123,28.4668236 39.4067463,28.4643654 39.4526514,28.46256 L39.483,28.461 L39.5036347,28.449561 C39.7838231,28.2772075 40.3438898,27.8385071 40.8660525,27.3624976 L41.007282,27.2319238 L41.141464,27.1041472 C41.1634935,27.0828394 41.1853375,27.061539 41.2069687,27.0402657 L41.3339816,26.9131097 C41.3644943,26.8819833 41.3944235,26.8510023 41.4236809,26.8202302 L41.6818532,28.037706 L40.4916969,28.470484 C40.0925791,28.4601028 39.715409,28.4554063 39.502067,28.4609695 L39.483,28.461 L39.4343976,28.4897908 L39.4343976,28.4897908 L39.409,28.501 L39.4325035,28.504946 C39.5488488,28.5211144 39.7629717,28.5420982 40.1022669,28.5687806 L40.202,28.576 L38.5921438,29.1622682 L39.5161366,33.5253714 C39.5982767,33.9381728 39.5317518,34.328463 39.3165621,34.696242 C39.1013724,35.064021 38.7983215,35.3190507 38.4074094,35.4613311 L35.2049369,36.6269358 L36.1988282,34.6561521 L35.2994609,30.3607068 L32.2774094,31.4606436 L31.8852266,29.6112457 L31.9973964,29.5720208 C32.2630204,29.6988286 32.4625489,29.7936636 32.5232036,29.8218625 L32.5232036,29.8218625 L32.5415514,29.83022 C32.5010758,29.8095854 32.3401531,29.7316622 32.0026075,29.569233 L35.8060268,28.1845289 C36.5795517,28.7111954 37.8997294,28.7569559 37.9636883,27.400038 L39.6318642,26.7918126 C39.4756185,26.9264774 39.3635735,27.0714903 39.3220339,27.2229465 C40.2623698,26.8850404 40.9129441,26.6216527 41.3406591,26.4228525 Z M41.2413305,29.143033 L42.7783897,33.4362398 L40.6584432,34.2078373 L39.0762787,29.9310474 L41.2413305,29.143033 Z M24.5431027,32.2176897 C24.5336372,31.0756932 24.4147481,30.166017 24.2809804,33.1314982 L24.2809804,33.1314982 L24.2732034,33.293919 L24.2775334,33.2308502 C24.28181,33.1623038 24.2844132,33.158276 24.2854492,33.1832142 L24.2854492,33.1832142 L24.285841,33.2379021 L24.2839616,33.3093746 C24.2819694,33.3566923 24.2785162,33.3974235 24.2702034,33.388919 L24.2702034,33.388919 L24.2898235,33.4722248 C24.4656961,34.1857438 24.5370548,33.3525917 24.5432615,32.4893947 L24.5432615,32.4893947 Z M46.726097,21.4768021 L46.6569461,23.3919507 L47.4462879,23.1046538 L47.8885083,23.8584291 C46.7771279,25.5059301 48.0470619,26.0554256 49.0896227,25.8914627 L49.4598268,26.5181999 C49.1315125,26.8841492 49.0530146,27.2896773 48.8135593,28.5267275 C49.2983529,28.3130866 49.7347863,28.0202135 49.9749079,27.3915605 L51.8487726,30.569075 L49.0071421,31.6033439 L48.7876455,31.2110387 C48.8596488,31.2022826 48.9317444,31.1932626 49.0031183,31.1840735 L49.1831548,31.1603195 C49.5085144,31.1163113 49.8029335,31.0703656 49.9830917,31.0321829 C50.0403282,31.0647164 50.102365,31.0987466 50.1694915,31.1342894 L50.147,31.122 L50.0774571,31.0837129 L50.0774571,31.0837129 L49.9900692,31.0315726 C50.0600839,31.0166813 50.1123873,31.003003 50.1399135,30.991083 C50.1549607,31.0360346 50.1651992,31.083791 50.1694915,31.1342894 L50.168,31.124 L50.1569844,30.9841746 C50.1681771,30.9780052 50.172069,30.9724251 50.1678024,30.9675341 L50.1551763,30.9607272 L50.1486728,30.9113763 C49.7283357,26.7867838 47.9224922,28.9353377 49.3598392,30.5195203 L49.3598392,30.5195203 L49.3822034,30.543919 L49.3899098,30.569894 C49.4202776,30.6455091 49.5487523,30.7693369 49.8376311,30.945123 C49.6789889,30.9466767 49.457892,30.9540159 49.1626542,30.9685022 L49.1626542,30.9685022 L48.9262876,31.0081242 C48.8452206,31.0218324 48.7680405,31.035015 48.6946213,31.0476868 L46.9789128,27.98675 C47.2967009,27.6024941 47.5018547,26.991426 47.4494787,26.085913 L47.4494787,26.085913 L47.447,26.065 L47.4513703,26.1566237 C47.4695307,26.9465077 47.0848199,26.2262029 47.3288154,25.9819988 L47.3680602,25.9505657 C47.3771129,25.9498111 47.386318,25.9490066 47.3956277,25.9481573 L47.3956277,25.9481573 L47.5217515,25.9346337 C47.7282743,25.9091781 47.8813451,25.8728985 47.4554481,25.8821435 L47.4554481,25.8821435 L47.4788409,25.8829694 C47.4903485,25.8866791 47.3819397,25.8999186 47.4158938,25.8906569 L47.4158938,25.8906569 L47.3456571,25.9043458 C47.1089528,25.9548663 47.1746759,25.963415 47.3126868,25.9544924 C43.0426351,27.1896064 45.0736702,29.0730819 46.4893093,28.376525 L46.3906173,31.0852235 C45.2136939,31.0025492 43.7322157,30.9667295 45.719806,31.2311559 L45.719806,31.2311559 L45.6830367,31.2257874 C45.6444264,31.219414 45.6459638,31.2160944 45.6694868,31.2148205 L45.6694868,31.2148205 L45.7349231,31.2145834 C45.8584221,31.2170854 46.066042,31.230786 45.9537287,31.2332577 L45.9537287,31.2332577 L45.8382034,31.232919 L45.9587104,31.2356173 C46.187403,31.239574 46.3857634,31.2420368 46.5565252,31.2431892 L46.385,31.241 L46.3377242,32.5493923 L43.4058832,33.6164952 L43.8393613,22.527488 L46.726097,21.4768021 Z M19.1751361,32.4338333 C22.9401266,32.5657933 22.1157398,29.5516399 19.133928,32.2831668 L19.133928,32.2831668 L18.9862034,32.419919 L18.9830508,32.4245724 Z M18.9830508,32.4245724 C19.7816249,31.6591707 20.1380506,32.4952842 18.9830508,32.4245724 Z M49.382862,30.5422994 C49.3693733,30.3836083 49.9309567,30.5294122 50.1145492,30.9272154 L50.1145492,30.9272154 L50.1274913,30.9546898 C50.0806321,30.947548 49.9929039,30.943987 49.8552455,30.9457964 C49.6954979,30.8373562 49.5572763,30.7218506 49.4385087,30.6023403 L49.4385087,30.6023403 L49.3822034,30.543919 Z M24.0355886,27.9731933 L19.8633534,29.4917628 L20.0810024,30.5107765 L21.9835461,29.8180384 C22.3076616,29.8796628 22.9169939,29.7224744 23.8727084,29.1310761 L24.2532376,28.992207 L24.233,28.897 L24.397,28.785 L24.3274747,28.8290493 C24.294037,28.8477101 24.2609794,28.8633526 24.2284656,28.8762681 L24.189,28.694 L24.263,28.721 L24.2246736,28.7063983 L24.2246736,28.7063983 L24.189,28.694 L24.0355886,27.9731933 Z M38.0308381,28.4803405 C37.8156388,28.3319556 37.7626083,28.6798105 37.9808121,28.595214 C37.8708843,28.785131 37.7481183,29.3327816 37.9013244,29.7627841 L37.9013244,29.7627841 L37.922,29.815 L37.9252034,29.822919 L37.9250357,29.8232452 C38.1183909,28.9813448 38.1274919,28.6178545 38.0757637,28.5421483 L38.0757637,28.5421483 L38.0914219,28.5317511 Z M47.638216,28.7157569 C50.1181198,28.8233111 47.9794976,27.8464606 47.4890887,28.6476405 L47.4890887,28.6476405 L47.471,28.681 L47.4838894,28.6619928 C47.6279725,28.4691885 47.9439594,28.7045292 47.5468246,28.7088657 L47.4576271,28.7064576 Z M12.205,28.48 L12.2040941,28.4815057 L12.197419,28.4767614 L12.204,28.463 L12.2044783,28.4628011 L12.1779128,28.4970379 C12.0631036,28.305747 11.5763904,28.2692096 11.0474877,28.307209 C11.1824264,28.2445236 11.3175424,28.1670593 11.448868,28.0731233 L11.448868,28.0731233 L11.5362034,28.006919 C11.4270876,27.9220165 11.636597,27.3646327 12.1241093,27.2390543 L12.1241093,27.2390543 L12.2033898,27.2229465 C12.0689172,27.243123 11.940339,27.2638598 11.8174657,27.2850761 L12.6655029,26.9779725 L13.9145903,28.5360382 C13.3311966,28.6456895 13.5386468,28.6764715 14.0180537,28.6651531 L14.043929,28.6973272 C13.7478337,28.8690817 13.5479051,29.1790061 13.5598279,29.664879 L11.1082102,30.5585322 L10.489,29.786 L10.5798241,29.7602745 C12.3049243,29.2359626 12.4317715,28.8646334 11.9801946,28.6740551 L11.9276908,28.653625 C12.0155976,28.6458772 12.1063127,28.6376554 12.1999023,28.6289433 L12.1999023,28.6289433 L12.2033558,28.5906522 L12.2033558,28.5906522 L12.214,28.588 C12.2282036,28.5854333 12.2335632,28.5821711 12.2377854,28.5777023 L12.24647,28.5605991 C12.2696189,28.5565201 12.2955095,28.55525 12.2592223,28.5687747 L12.264,28.566 L12.3335655,28.5394696 C12.4880398,28.4738049 12.4002367,28.4693071 12.2748854,28.4863291 L12.2265185,28.4936437 L12.214,28.586 L12.205,28.48 Z M37.9176796,24.5697996 C37.9181642,24.6369428 37.924957,24.6365602 37.9411848,24.5236494 L38.0155199,24.4944679 C38.0599668,24.539131 38.1112589,24.5792874 38.170171,24.6153846 L38.170171,24.6153846 L38.1706612,24.4381911 L38.1706612,24.4381911 L40.3170065,23.6562787 L40.7009808,25.4831239 L37.8636538,26.5173449 C37.8197977,26.3330605 37.7609883,26.1339494 37.6855707,25.9191656 L37.689,25.932 L37.7041273,25.9876845 C37.8290516,26.6623944 35.9397403,26.3153541 37.375188,25.9815218 L37.5246606,25.9492914 L37.4763741,25.9579554 C35.6862739,26.3089952 35.1685246,26.9223208 35.2653824,27.4616407 L32.665,28.407 L32.6223859,28.3752714 C32.6469966,28.3013496 32.6344097,28.3158343 32.6065218,28.3651344 C32.4842506,28.2903709 32.4238442,28.3336653 32.4038261,28.4131638 C32.326321,28.4115562 32.2915755,28.4446462 32.3862443,28.5422658 L32.364,28.516 L32.1760894,28.5859307 L31.792115,26.7590854 L37.9179433,24.5311086 L37.9179433,24.5311086 Z M43.4816568,15.4678918 C43.6168966,15.4801092 43.7396364,15.4867732 43.8506312,15.4884768 L43.8726115,17.0753091 L47.9563606,15.5883157 C43.7358013,10.2243051 37.1854248,6.77966102 29.8305085,6.77966102 C28.9956398,6.77966102 28.1711376,6.82404489 27.3592326,6.91058178 C27.3247154,6.58930728 27.2523978,6.150681 27.1289844,5.57393193 C28.0154643,5.47390176 28.9171271,5.42372881 29.8305085,5.42372881 C35.4516377,5.42372881 40.6289379,7.32398623 44.7550591,10.5171508 C44.766535,10.7596205 44.791164,11.0361281 44.8305689,11.3491108 L44.8305689,11.3491108 L44.857,11.547 L44.8473442,11.4618884 C44.7747457,10.6842174 45.2972847,11.4294854 44.9719129,11.5590972 L44.9221528,11.5727547 L44.8610683,11.577575 C45.264836,11.577575 45.5521815,11.4821502 45.7479465,11.3278099 C50.6042345,15.509251 53.7964722,21.5706146 54.1950418,28.38244 C53.5643384,28.4528464 53.1966523,28.5092401 53.0186732,28.5535713 C52.9976721,28.5484459 52.9776084,28.5436985 52.9585684,28.5393211 L52.9585684,28.5393211 L52.9536241,28.5153723 C52.9235987,28.415474 52.8642536,28.433857 52.8273139,28.4804141 L52.8416521,28.4662339 C52.8147611,28.0055115 52.7743386,27.5484228 52.7207761,27.0953595 C52.8573142,26.739823 52.9076212,26.3508165 52.8684636,25.9191656 L52.871,25.976 L52.8777466,25.9745366 C52.9455361,26.0955887 52.9719706,26.0774106 52.9297932,25.9784946 L52.9297932,25.9784946 L52.9984798,25.9872 C53.2898285,26.0217658 53.1253252,25.9579286 52.9278853,25.9040937 L52.9278853,25.9040937 L52.9224967,25.8910842 C52.9059147,25.8586667 52.8859721,25.8538893 52.8695362,25.8647698 C52.8641733,25.8560743 52.8585158,25.8471509 52.8525555,25.8380132 L52.8525555,25.8380132 L52.8262034,25.798919 C52.8206381,25.7911261 52.8179457,25.7874141 52.8122619,25.7795777 C52.8218237,25.8085413 52.831093,25.8349958 52.8400008,25.859057 L52.8400008,25.859057 L52.8483121,25.8801568 C52.6197463,25.8268576 52.4248743,25.8030268 52.8928209,25.9731737 L52.836,25.952 L52.8144198,25.9443491 C52.7269482,25.9860206 52.6465808,26.0288524 52.5727109,26.0727298 C52.4644744,25.3889635 52.3222629,24.7152615 52.1513633,24.053091 C52.3710869,23.8310529 52.6145789,23.5839711 52.8813559,23.3116037 C52.7072469,23.3577596 52.3862491,23.6053128 52.0244134,23.9309158 L52.10146,23.8631088 C51.3956924,21.2224363 50.2327637,18.7685454 48.7026571,16.5914193 L48.9908123,17.9452448 L49.05706,20.0920553 L46.6213767,20.9785715 L46.5324936,18.5590568 L43.9163894,19.5112408 L43.9642301,21.8179925 L41.2579153,22.8030105 L41.1560741,19.5716875 C41.4315708,19.5380213 41.7214978,19.4821654 42.0338983,19.3971667 C41.6783274,19.3423191 41.3878902,19.2975184 41.1459179,19.2635705 L41.0736821,16.8936435 L40.5076281,16.4611637 L43.2923145,15.4480762 L43.2923145,15.4480762 Z M23.4278295,25.1806481 L21.6917423,25.8133622 C21.6762642,25.8027103 21.6049323,25.7970758 21.4947841,25.7954962 L21.4947841,25.7954962 L21.3529427,25.7954032 C21.3137284,25.7957946 21.2718753,25.7964872 21.2265018,25.7974074 C20.9062259,25.7994534 20.4681316,25.8150528 20.063991,25.8377429 L20.007,25.841 L20.092,26.024 L20.125469,26.0229988 L20.125469,26.0229988 L20.176998,26.0209483 C20.2283995,26.0226034 20.2333444,26.0284367 20.1005459,26.0411527 L20.1005459,26.0411527 L20.2435079,26.0278406 L20.2435079,26.0278406 L20.207,26.033 L20.3578999,26.0175987 L20.4610256,26.0058283 C20.6874912,26.0240634 20.8780883,26.039349 21.036486,26.0519679 L19.2555943,26.6992175 L19.4732433,27.7182312 L21.6356763,26.9322003 C21.6720147,27.2676083 21.7291543,27.4166551 21.7802455,26.7983993 L21.773,26.881 L22.0544619,26.7813819 C22.6247989,27.0122687 23.316773,26.8700291 24.1392884,27.1264292 L24.325,27.193 L24.1879494,27.1448185 C24.1858407,27.1729251 24.183825,27.2010802 24.1819051,27.2292314 L24.1715595,27.3976717 C24.16241,27.5652252 24.1569169,27.7288581 24.1556947,27.8772305 L24.1559188,28.020096 C24.1649492,28.7504359 24.3012854,28.93918 24.6581252,26.8660245 L24.65,26.909 L24.6418306,26.952725 C24.5785667,27.2540368 24.6029035,26.6634495 24.6397195,26.7597917 L24.649,26.798 L24.6386655,26.6972519 C24.4758981,25.3669518 24.3048356,25.9687506 24.2164156,26.8239676 L24.2069359,26.9199493 C23.9915704,26.6006902 23.8115381,26.3627455 23.6419265,26.1991569 L23.6454786,26.1996618 L23.4278295,25.1806481 Z M20.007,25.841 L19.8267952,25.852156 C19.5961022,25.8673167 19.3885601,25.8845647 19.2369517,25.902504 C19.1191092,25.8937321 19.0351546,25.8879347 19.0005328,25.8864048 L19.0005328,25.8864048 L18.9822034,25.885919 L19.2138571,25.9053195 C19.0345413,25.9275005 18.9428019,25.9506172 19.0009362,25.9716572 C18.96526,25.9857312 18.9811318,25.9987168 19.066128,26.0100043 C18.4260167,26.8183449 18.8001502,27.3575052 19.0631384,27.1935426 L19.0631384,27.1935426 L19.1662886,26.0194945 C19.3393117,26.0323615 19.6444697,26.0410505 20.1217274,26.0433038 L20.1217274,26.0433038 L20.0673244,26.0427308 C20.0206867,26.0419096 19.9966207,26.0403816 19.9886087,26.0384857 L19.9886087,26.0384857 L19.988,26.036 L19.9854999,26.0369194 L19.988,26.035 L20.007,25.841 Z M39.9523523,17.8125796 L40.2339402,19.1892437 C39.89815,19.2064671 39.7054619,19.3140863 39.3220339,19.5282365 C39.6571562,19.571556 39.9839002,19.6049923 40.3210888,19.612274 L40.3815148,19.9039207 L37.1113844,21.0941507 L37.2674284,21.8035634 L39.748217,20.9006302 L40.1568168,22.7951333 L38.2773788,23.4796107 C38.5441019,23.150427 38.8441703,22.739046 39.17854,22.2321514 L39.17854,22.2321514 L39.206,22.188 L39.1286419,22.3018667 C37.9837058,23.9517151 38.3388056,22.1563811 39.1860068,22.019218 L39.2538951,22.0119273 L39.3220339,22.01199 C37.6914116,21.9225569 36.7428432,23.2938372 36.6231627,24.0812819 L31.6093727,25.9061486 L31.2007729,24.0116454 L33.1525094,23.3018904 C33.4069275,23.3531264 33.7121946,23.4049015 34.0102036,23.4486798 L34.2342294,23.4802568 C35.2643654,23.6191455 36.0184334,23.6303931 33.9082844,23.1337941 L33.9082844,23.1337941 L33.726,23.09 L33.5706226,22.3828826 L31.1971591,23.2465106 C30.9805811,23.2714618 30.7735384,23.2987026 30.589052,23.3254413 L30.1870666,21.3668529 L33.1189076,20.29975 L33.0737195,20.0352542 L32.3462383,19.4010439 C32.3776907,19.4026441 32.4058929,19.4012872 32.4304264,19.3968253 C32.4351636,19.4027117 32.4414051,19.4011917 32.4502911,19.3907677 C32.4539714,19.3897459 32.4575512,19.3886403 32.4592139,19.3866922 C32.4835358,19.3947169 32.5127672,19.4036685 32.5468609,19.4137639 C32.6746519,19.9219594 35.4671274,19.3548614 32.6317209,19.1800578 L32.736,19.187 L36.4378747,17.8402717 L36.682222,19.0028096 L37.3562123,18.7591145 C37.5313559,19.0925486 37.6812737,19.2859085 37.7887122,19.3614198 C36.8042632,19.449309 35.9467406,19.5614479 37.3401874,19.528875 L37.3401874,19.528875 L37.4202034,19.525919 L37.3754448,19.5264414 C37.2610246,19.5235487 37.7095291,19.4924827 37.6134267,19.5099575 L37.6134267,19.5099575 L37.5792034,19.514919 L37.7455471,19.4966299 L37.9092829,19.4785449 C37.9148276,19.4945851 37.9287834,19.5025876 37.9451461,19.5011895 L37.966,19.493 L38.01,19.335 L38.0031976,19.3329758 L38.0036033,19.3197148 L38.017,19.302 L37.9934907,19.3231139 L37.9934907,19.3231139 L37.970663,19.3458864 L37.9496878,19.3480326 C37.9937414,19.241802 37.9518705,18.9782176 37.7905738,18.600595 L39.1425376,18.1070828 C39.1593863,18.5765495 39.1976031,19.0440871 39.2485108,19.2659867 C39.0642918,19.2637627 38.5604336,19.2963798 38.041766,19.3395897 L38.041766,19.3395897 L37.966,19.493 L37.9707445,19.4918716 L37.9954497,19.4674307 C38.7338724,19.3802365 39.1166251,19.326214 39.2552332,19.2978922 C39.3212893,19.5496557 39.4070545,19.3817786 39.4943463,18.2876294 L39.4943463,18.2876294 L39.5,18.198 L39.4956966,18.2406699 C39.4681449,18.4698697 39.4672924,17.9555121 39.4952936,17.9974998 L39.5028962,18.0203396 L39.505,18.034 L39.497,17.978 L39.9523523,17.8125796 Z M47.3470519,19.5394722 C47.7645787,19.8436471 47.9877544,18.8185191 47.1905835,19.3687134 L47.1905835,19.3687134 L47.2506719,19.4479568 C47.2641938,19.4638291 47.2775914,19.4782541 47.2891394,19.4907502 C47.2870964,19.5286994 47.3093299,19.5416726 47.3470519,19.5394722 Z M48.8135593,18.0961158 C48.5575623,17.4810166 48.4460498,16.6500049 47.4576271,16.8136129 C47.6839863,17.6057102 48.0185237,18.1120164 48.8135593,18.0961158 Z M44.9864014,16.9120362 C48.0024165,17.5587094 48.5535321,15.8901596 44.972855,16.7926988 L44.972855,16.7926988 L44.9605905,16.800287 C44.8905582,16.8181006 44.8189531,16.8368967 44.7457627,16.8567115 L44.7457627,16.8567115 L44.8465045,16.8790614 C44.5932878,17.0946686 44.4794649,17.4931667 44.4963787,18.0964798 C44.5456139,18.0076621 44.6079101,17.9392357 44.671685,17.8721888 L44.7670085,17.7702767 C44.9229032,17.5942261 45.051844,17.3673862 44.972855,16.7926988 Z M42.018,16.704 L42.018,16.703 L42.0109542,16.7146683 C41.8762968,16.7560359 41.7593893,16.8414581 41.9743013,16.8831143 L42.0490435,16.8942104 L42.0247203,16.8902476 C42.0139347,16.8875229 42.0131449,16.8848331 42.0171672,16.883383 C42.0300574,16.885895 42.0437423,16.8854219 42.0571519,16.8809145 C42.0596273,16.8835566 42.0580501,16.8878181 42.0490435,16.8942104 L42.05,16.893 L42.0763957,16.8737451 C42.07806,16.8727425 42.0796737,16.8716739 42.0812299,16.87054 L42.0857189,16.8669426 L42.1270859,16.8344128 C42.1981881,16.7746805 42.219251,16.7367541 42.2102634,16.7150444 L42.2102634,16.7150444 L42.2782004,16.6608758 C45.024961,14.44888 41.7814069,15.9016372 42.0630209,16.7011019 C42.0520411,16.7034456 42.0409099,16.7061605 42.0297998,16.7091984 L42.0297998,16.7091984 L41.967,16.804 L42.018,16.704 L42.015899,16.7131714 C42.0201904,16.7118915 42.0244959,16.7106571 42.0288053,16.7094712 L42.0209168,16.7004189 L42.0209168,16.7004189 L42.018,16.704 Z M14.6199003,10.743738 C15.1625974,11.1937541 15.5506638,11.4361327 15.8136346,11.5304193 L15.6957834,11.6224597 C15.5320249,11.5965431 15.3452763,11.5704362 15.1519169,11.545575 L15.1519169,11.545575 L14.9772181,11.5236568 C14.9186862,11.5164875 14.860001,11.5094679 14.8015998,11.5026361 L14.8015998,11.5026361 L14.6276854,11.482743 L14.6276854,11.482743 L14.4754844,11.4660681 C14.2221159,11.4388857 13.9917317,11.4170852 13.825368,11.4042642 C14.0541878,11.2048526 14.2870531,11.0098737 14.5235492,10.8192175 Z M8.42600819,11.2290094 C9.68662746,10.5753834 10.45832,9.39819266 7.00250576,11.3417485 L7.00250576,11.3417485 L6.783,11.465 L6.88308451,11.4133029 C7.39858338,11.1632898 7.37834183,11.5446754 7.06873914,11.5520179 L7.00303346,11.5482012 L6.93820339,11.533919 L6.97250598,11.5448957 C7.3424698,11.6408696 7.82170237,11.5144215 8.26271014,11.309326 Z M26.8811845,5.60011317 L26.8766183,5.63588924 C26.8172168,6.10540654 26.8662622,6.5834909 26.9535273,6.95770687 C22.9880771,7.45122819 19.3355918,8.95201933 16.2597312,11.1958732 C16.2050853,10.8731005 15.9502278,10.3980975 15.6065033,9.99555902 C18.8578627,7.65899656 22.7074057,6.10284252 26.8811845,5.60011317 Z M40.5473936,2.60852747 C39.0159694,1.60606147 38.7686565,2.77859136 40.6779661,2.69717451 L40.6779661,2.69717451 L40.56707,2.69983152 C39.9918729,2.70154279 40.3040275,2.48820048 40.6219767,2.66230551 L40.6219767,2.66230551 L40.6712034,2.69291898 Z M32.5423729,2.65382747 C31.8530653,2.2158046 30.8411568,2.23622848 29.8305085,2.25486775 C30.4561779,2.50748936 31.2078634,2.67107871 32.5423729,2.65382747 Z" id="Combined-Shape"></path>
            </g>
        </g>
    </g>
</svg>