<?xml version="1.0" encoding="UTF-8"?>
<svg width="60px" height="60px" viewBox="0 0 60 60" version="1.1" xmlns="http://www.w3.org/2000/svg" xmlns:xlink="http://www.w3.org/1999/xlink">
    <title>A56259E3-B1C0-43DC-935C-A353541BE258</title>
    <g id="Page-1" stroke="none" stroke-width="1" fill="none" fill-rule="evenodd" opacity="0.150319417">
        <g id="UiKit_Icons" transform="translate(-660.000000, -3030.000000)" fill="#999999">
            <g id="Group" transform="translate(660.000000, 3030.000000)">
                <path d="M41.7457684,49.9901205 L42.2727273,50.979021 L42.214,50.954 C42.1163388,51.0661432 42.4483236,51.0742803 42.3176338,50.9558067 L42.264,50.917 L42.2719473,50.9268864 C42.2714744,50.9280754 42.2703063,50.9289838 42.2687915,50.9296044 L42.263556,50.9305961 L42.2610909,50.9185265 L42.2431973,50.8174792 C42.2313978,50.7579148 42.2188112,50.6995886 42.2052429,50.6441043 L42.205,50.645 L42.2529476,50.738553 C42.2679265,50.767094 42.2819735,50.7927187 42.2950603,50.8155041 L42.3314124,50.8754197 C42.2446872,50.8821839 42.2442661,50.9065042 42.3981631,50.9590434 C42.4209466,50.9794996 42.4383603,50.9835862 42.449564,50.9735943 C42.5103869,50.9919961 42.5884707,51.013319 42.6861827,51.0378689 L42.6623408,51.0315074 C38.9653952,53.2620939 34.6325701,54.5454545 30,54.5454545 C27.1647682,54.5454545 24.4418118,54.064746 21.9081882,53.180386 C21.9027325,52.8950268 21.8875568,52.4456738 21.8598303,51.7863338 L21.865,51.944 L21.8651548,51.9928997 C21.8608163,51.9991191 21.841159,51.6954712 21.8493897,51.7152749 L21.855,51.751 L21.8503104,51.7087664 C24.3856147,52.660994 27.1319848,53.1818182 30,53.1818182 C33.9998087,53.1818182 37.7630201,52.1688245 41.0470781,50.3853932 C41.3843724,50.5778137 41.7907365,50.7771076 42.2727273,50.979021 L42.215,50.954 L41.726723,50.0013231 C41.7330734,49.9975919 41.7394219,49.9938577 41.7457684,49.9901205 Z M13.8590906,11.507065 C14.1411358,11.5519099 14.7136363,11.6293391 15.7024467,11.7503862 C13.8651353,13.1924512 12.2503347,14.906131 10.9193026,16.8310281 C10.6025666,16.90301 10.2215536,16.995492 9.77086365,17.1115547 L9.77086365,17.1115547 L9.60309091,17.1545265 L9.56809091,17.1635265 L9.55809091,17.1665265 L9.55113379,17.1685728 C9.97946625,17.1497492 10.4019366,17.1001268 10.7796835,17.038281 C9.67221237,18.6743458 8.76996646,20.459652 8.10751654,22.3574372 C6.34891648,21.4562357 6.63904427,23.5040627 7.50341663,24.3810283 C7.36235762,24.9491656 7.24167015,25.5266117 7.14288796,26.1115022 C6.7217829,26.2423566 6.74991795,26.6362577 7.00148527,27.0780996 C6.88017433,28.0355263 6.81818182,29.0105236 6.81818182,30 C6.81818182,33.2042223 7.46827195,36.256608 8.64375338,39.0324581 C8.48330412,39.0345582 8.32623353,39.0680975 8.18181818,39.1697707 C8.39226532,39.2339229 8.58651748,39.2894686 8.76583116,39.3132726 C11.2524532,44.9765507 15.9383112,49.4546803 21.7422694,51.6678778 C21.7510935,51.8277309 21.7612641,52.0047644 21.77262,52.1844641 L21.77262,52.1844641 L21.7861861,52.3920962 C21.8049383,52.6700725 21.8256411,52.9419045 21.8447345,53.1572121 C12.2976739,49.7963419 5.45454545,40.6973201 5.45454545,30 C5.45454545,22.6797167 8.65904701,16.1078848 13.7417831,11.6107714 Z M12.2727273,51.0507791 C11.3846261,50.8463769 10.7922478,50.6643094 9.54545455,50.9093926 C10.6080041,51.1626519 11.2446942,51.2637562 12.2727273,51.0507791 Z M42.9294979,50.8679814 L42.8632825,50.9076891 C42.7203188,50.8917107 42.582937,50.8799361 42.4784698,50.8770331 C42.4900797,50.6114892 42.3249959,49.9061069 42.2003962,49.7159355 L42.2111925,49.7086491 C44.241616,48.4479567 46.0628653,46.8822468 47.6109157,45.0755442 C47.6109907,45.2949769 47.6113139,45.5145082 47.611702,45.7342657 C47.8071477,45.4329442 47.8932056,45.1324697 47.8177745,44.8324056 C48.8739359,43.5634927 49.7985343,42.1797407 50.568691,40.7026512 L50.660385,40.705181 C51.251688,40.721621 51.7338392,40.7053894 52.112082,40.671101 C50.0763724,44.8786647 46.8761289,48.4175136 42.9294979,50.8679814 Z M19.4063554,32.6213416 C19.4586492,32.6222602 19.5100193,32.6225615 19.5604728,32.6222711 L21.4504337,46.2210176 L17.9356833,47.4312432 L17.6932065,45.7230829 C18.3161492,45.8126141 18.5498762,45.372145 19.0909091,44.1269387 C18.2511553,43.3564111 17.7200278,43.0026126 17.3266589,43.14145 L16.0003255,33.7938014 Z M24.736,43.13 L24.6754097,43.2312515 C23.8825721,44.5987086 24.759691,45.0724267 24.7475166,43.1118881 L24.746,43.225 L24.7406183,43.3077332 C24.7074077,43.6841032 24.5711329,43.5168043 24.6832393,43.2372916 L24.711192,43.1758357 L24.736,43.13 Z M27.2838751,40.4305746 C27.210482,40.4059089 27.1994972,40.4613712 27.2171022,40.5047246 C27.0840967,40.6097977 26.6983401,41.274258 25.9090909,42.965204 L25.9090909,42.965204 L26.052027,43.0146395 C26.9936511,43.3209661 26.7156839,42.812862 26.3460526,42.7333752 L26.3460526,42.7333752 L26.2990909,42.7255265 L26.314941,42.70715 C26.5052912,42.4636234 26.7071631,42.0854501 26.8762453,41.7099371 L26.8762453,41.7099371 L26.9465724,41.5495661 C27.1337406,41.1111956 27.2665699,40.7037665 27.2723741,40.5540566 C27.2940811,40.5502962 27.3175699,40.5234675 27.3361097,40.4559791 L27.3361097,40.4559791 Z M30.3385527,28.8553978 C30.5286399,28.94781 30.7730307,29.0657605 31.0326799,29.1906525 L31.0326799,29.1906525 L31.1,29.223 L32.6544795,35.4604512 C32.6602789,35.9883812 32.7724402,37.2228752 32.7974916,36.097121 L32.798,36.036 L34.2381427,41.8178563 L30.7233922,43.0280819 L27.45,30.049 L27.4527659,29.9875925 C27.4542182,29.9390631 27.4555317,29.8921036 27.4567105,29.84668 L29.9271569,28.9981276 C29.9253272,29.0631652 29.924519,29.1345678 29.9246518,29.2083539 L29.9263876,29.3707684 C29.9311168,29.6154806 29.9452047,29.854917 29.9658688,29.9516073 C29.937791,30.3117587 29.9062068,30.7602933 29.8712121,31.3111888 L29.872,31.303 L29.8770909,31.2865265 L29.8780909,31.2825265 L29.8879088,31.247835 C29.9754154,30.8999123 30.0382666,30.3954121 30.0777805,29.9261567 L30.0777805,29.9261567 L30.0915069,29.7522127 C30.1146758,29.4377178 30.126892,29.1512149 30.1285837,28.9550368 L30.1285837,28.9550368 L30.128,28.928 Z M42.257,39.223 C42.2668887,39.2227973 42.2730061,39.2276674 42.2594834,39.2359466 L42.26,39.234 L42.3108921,39.1984437 L42.3207375,39.1860922 C42.8684893,39.2682327 43.3406794,39.3211449 43.7856498,39.3260214 L40.7629333,40.3672205 C40.8940114,40.0517125 41.0369065,39.70701 41.1807739,39.3577846 C41.8161723,39.3234961 42.134169,39.2681323 42.2356428,39.2095994 L42.2356428,39.2095994 L42.244,39.128 L42.257,39.223 Z M53.281614,28.814176 C53.4115319,28.8351316 53.6566043,28.8457031 53.9468091,28.8476193 L54.2182884,28.8470536 C54.3167661,28.8460651 54.417663,28.8442608 54.5187556,28.8416954 C54.53643,29.2251623 54.5454545,29.6115273 54.5454545,30 C54.5454545,33.6762518 53.7372613,37.1637399 52.288857,40.2944823 C51.8736892,40.3395977 51.3195861,40.4455784 50.6378363,40.6437119 L50.6378363,40.6437119 L50.5927408,40.6563987 C52.030107,37.8844284 52.9242067,34.7853914 53.1340499,31.500278 C53.1785666,31.4977321 53.1943467,31.4859162 53.1711263,31.4623933 L53.1711263,31.4623933 L53.1818182,31.4607268 C53.1669955,31.4497545 53.1522111,31.4390412 53.1374444,31.4285893 C53.1448655,31.3243299 53.150611,31.2180311 53.155638,31.1115443 L53.1692436,31.1973471 L53.172,31.208 L53.1694651,31.1846988 C53.1518553,31.0485382 53.1949468,31.1278506 53.1942702,31.2596304 L53.192,31.295 L53.2122895,31.0849181 C53.3211455,29.8494894 53.3266776,29.1645285 53.2895832,28.8682889 Z M22.1674042,40.438645 C24.9821552,39.5137748 20.9307997,38.1134223 22.0038891,40.4895105 L22.0038891,40.4895105 L22.0024869,40.4697877 C22.0259029,40.3938471 22.373081,40.3556153 22.1607624,40.4379263 L22.1607624,40.4379263 L22.0960909,40.4605265 Z M30.0632013,39.0982918 C29.7986997,38.7079094 29.834878,39.727775 30.1163325,39.1887398 L30.0894656,39.234259 C30.3174454,39.3119733 30.9700365,39.3616155 31.9201658,39.2595546 C32.0299257,39.2615877 32.1338789,39.2629629 32.2283958,39.2635753 L32.2283958,39.2635753 L32.4637817,39.2632313 C32.7822656,39.2593982 32.8632692,39.2396287 32.4165742,39.1958485 C32.4644471,39.1887137 32.5128985,39.1812173 32.5619161,39.1733474 L32.5619161,39.1733474 L32.684,39.152 L32.6053076,39.1655132 C32.5662445,39.1713979 32.5287879,39.1765909 32.492981,39.181141 L32.3905526,39.1929116 C32.2706266,39.1813326 32.1155149,39.1681363 31.9176914,39.1526297 C31.9964564,39.1221625 32.2627947,39.099359 32.7272727,39.1457353 L32.7272727,39.1457353 L32.5117373,39.1249957 C31.0617128,38.9910157 30.2981988,39.0355433 30.0724858,39.1152836 L30.0724858,39.1152836 Z M55.9690478,39.1783217 C59.9787404,35.7649974 58.6309815,36.2820672 57.2926135,37.400714 L57.1544152,37.5184456 L57.1544152,37.5184456 L57.0857538,37.5786649 L56.947896,37.7033639 C56.3798247,38.2283447 55.9029959,38.8133744 55.9690478,39.1783217 Z M23.7307833,36.4248082 C24.9665144,35.928101 25.0842355,34.2772882 22.0273928,36.0360098 L22.0273928,36.0360098 L21.8540909,36.1375265 L21.8181818,36.1587752 L21.9383746,36.2335475 C22.2900777,36.4403593 22.6289694,36.535264 22.9384572,36.552235 C20.6246495,36.9496984 22.2756485,36.9365379 24.4535156,36.3185066 L24.4535156,36.3185066 L24.2293163,36.3505864 C24.0836228,36.3716533 23.9454349,36.3920789 23.8145164,36.4118499 L23.8145164,36.4118499 Z M39.6807421,16.9136372 C39.6967214,16.6045867 39.5807075,16.6553908 39.4918116,16.7801007 C39.4196085,16.7934874 39.4157414,16.8329367 39.4427336,16.8751877 C39.4403878,16.8805512 39.4381358,16.8859264 39.4366788,16.88955 C39.3841663,16.9126525 39.3594383,17.2115351 39.3558048,17.5997886 L39.3558048,17.5997886 L39.3558381,17.8152697 C39.3610169,18.3971168 39.4054592,19.0896202 39.4715137,19.3754525 C39.3839912,19.3743959 39.2247271,19.3811592 39.026043,19.3931713 L38.755633,18.0119435 L38.3105881,18.1652896 C38.3103629,17.7391832 38.310132,17.3142843 38.309682,16.8881119 C38.0144339,17.3260695 37.9231796,17.7631325 38.3106061,18.1993007 L38.288,18.172 L37.825238,18.3333413 C37.6326397,17.9726927 37.3544412,17.5452882 36.9726914,17.0743374 L36.897,16.984 L36.9635503,17.0709925 C37.4282243,17.7000212 37.1630198,17.8589272 36.8906845,17.110308 L36.8535716,17.0025573 L36.851,16.997 L36.893746,17.1393868 C37.0644554,17.6925822 37.2314987,18.1373369 37.3856949,18.4854228 L37.2973855,18.5140583 L37.4934464,19.5205599 C36.7840258,19.5948935 36.4115353,19.6651414 37.5152193,19.6406802 L38.0731505,22.499652 C36.490376,23.4599145 36.3354266,25.8598039 38.0052618,24.1650808 C38.0305325,24.3023295 38.0729744,24.4190039 38.1387307,24.5173725 C38.1358805,24.5795637 38.1339771,24.63316 38.1333277,24.6736589 L38.1337923,24.7358595 C38.1364976,24.7849403 38.1471466,24.746371 38.1696439,24.5629539 C38.2266413,24.6372349 38.2982341,24.7008263 38.3870469,24.7552448 C38.3999841,24.3939314 38.3421875,24.1439189 38.239449,23.9151164 C38.2683407,23.8825099 38.29769,23.8488254 38.3274986,23.8140415 L39.312619,28.8673972 C39.0816126,28.8538537 38.7066501,28.8323065 38.31718,28.8099672 C38.3133363,28.756706 38.3044399,28.7223748 38.2921033,28.7043196 L38.2921033,28.7043196 L38.3078505,28.6938633 L38.2507529,28.6448421 C38.0308944,28.4886363 37.9757663,28.8440304 38.1966121,28.7576868 C38.1889317,28.770956 38.1811889,28.7859617 38.1735542,28.8027463 C38.1682479,28.8024504 38.1629417,28.8021547 38.1576361,28.8018591 L38.1576361,28.8018591 L37.8968484,28.7873915 C37.3818455,28.7589539 36.9236017,28.7344984 36.8339765,28.7319684 L36.8339765,28.7319684 L36.8180909,28.7315265 L37.0734048,28.7461888 C37.503753,28.7701664 37.8677507,28.7903865 38.1716133,28.806594 C38.0690834,29.0307267 37.9741655,29.5319165 38.1166728,29.9318908 L38.1166728,29.9318908 L38.1400909,29.9925265 C38.2882566,29.3546287 38.3287877,28.9882034 38.3171922,28.8152639 C38.8028587,28.8421156 39.1228705,28.8596087 39.3141322,28.8698666 L40.7752457,36.3883204 L42.2334932,35.8862055 L40.846,28.757 L40.8684501,28.7570463 C43.1831502,28.7517985 42.1899771,28.6794432 41.0581609,28.6421685 L40.9685767,28.6393005 L40.822,28.634 L40.6767269,27.8880098 C40.7027652,27.8659744 40.72892,27.8436939 40.7551518,27.8211965 L40.9151808,27.6820501 L41.1227304,27.4955933 C41.1456246,27.4746238 41.1684365,27.4535894 41.1911394,27.4325095 L41.1911394,27.4325095 L41.3258357,27.3056365 C41.7734737,26.8776913 42.1548758,26.4468331 42.2509582,26.1722642 C42.2723216,26.1448484 42.2774686,26.1230377 42.2678094,26.1065847 C42.2704164,26.0926625 42.2720686,26.0792695 42.2727273,26.0664336 L42.2727273,26.0664336 L42.2484018,26.0875071 C42.0866868,25.9962578 41.1511023,26.2088571 40.4216452,26.5798337 L39.0420925,19.4745056 C39.2653294,19.4443985 39.4053763,19.4224346 39.4782743,19.4075393 C39.5447057,19.6607333 39.6309582,19.4919024 39.718746,18.3915364 L39.718746,18.3915364 L39.725,18.294 L39.7205683,18.3403989 C39.6926136,18.5788077 39.6913985,18.0649655 39.7190776,18.0989116 L39.7273445,18.1227278 L39.729,18.132 L39.7030033,17.9528888 C39.6464209,17.5875996 39.5977823,17.3299923 39.5565798,17.1607844 L39.5365959,17.0834578 C39.5725214,17.0722173 39.6171369,17.0510205 39.6718262,17.0174336 L39.6718262,17.0174336 C39.6756562,16.9956209 39.679525,16.9611925 39.6814526,16.9419793 L39.681,16.937 L39.6779138,16.9648532 L39.675,16.977 Z M24.6805209,32.2424677 C24.6618769,31.1751804 24.5471185,30.4754583 24.4187787,33.3233333 L24.4187787,33.3233333 L24.4120909,33.4615265 L24.4154739,33.4196619 C24.4197749,33.3507259 24.4223928,33.3466753 24.4234347,33.3717552 L24.4234347,33.3717552 L24.4231642,33.4622591 C24.4215864,33.523089 24.4176711,33.5875356 24.4080909,33.5785265 L24.4080909,33.5785265 L24.4275489,33.661251 C24.5825887,34.2913129 24.6569538,33.727107 24.6772552,32.9939572 L24.6772552,32.9939572 L24.6812196,32.8077434 C24.6831322,32.6820456 24.6836046,32.5540284 24.68276,32.4284385 L24.68276,32.4284385 Z M42.6895941,28.6888112 C40.9228503,33.9229456 45.5225081,29.9108259 42.6895941,28.6888112 Z M22.8215083,28.7645186 C21.3119559,28.3557421 21.7857105,28.5334825 22.4334885,28.7022948 L22.4334885,28.7022948 L22.5655539,28.7359424 C22.630888,28.7521966 22.6967343,28.7679765 22.7610484,28.782233 C21.2685964,29.2446593 21.3293991,31.1787329 24.5454545,28.9429463 L24.5454545,28.9429463 L24.465699,28.9928507 C23.8326657,29.3461322 23.335129,28.6236946 24.0701512,28.7815848 L24.0701512,28.7815848 L24.159,28.803 L24.1213282,28.7923197 C23.6818209,28.6694892 23.2903002,28.6650767 22.9595168,28.7317367 Z M30.9567102,28.6439051 L31.1008919,29.2167569 C30.9067463,29.1235997 30.6924081,29.0207888 30.4564344,28.9076372 L30.4564344,28.9076372 L30.3570909,28.8595265 L30.3540679,28.8586276 L30.345,28.854 L30.9567102,28.6439051 Z M37.903,26.079 L37.9183553,26.1353418 C38.0480421,26.8357737 36.0192519,26.441287 37.7378689,26.0967306 L37.722,26.099 L37.6810732,26.1070622 C34.2084527,26.7910808 35.5138684,28.4589049 36.8186782,28.6673092 L36.8985231,28.6782243 L36.897,28.679 C37.7626176,28.7757539 38.5820904,28.210432 37.9683529,26.2718991 L37.903,26.079 Z M41.8512121,26.4381722 C41.3440732,26.8875317 40.9354647,27.2578027 40.6113661,27.5590725 L40.5084013,27.0192648 C41.1387792,26.774885 41.5721299,26.5832783 41.8512121,26.4381722 Z M53.125,25.944 L53.123,25.941 L53.12,25.937 L53.118,25.934 L53.116,25.932 L53.116,25.931 L53.113,25.928 L53.1265265,25.9678669 L53.1265265,25.9678669 L53.1402281,26.0059834 L53.1495177,26.0260794 C53.1164495,26.0225052 53.0866,26.0155584 53.0588271,26.0095744 L52.9832411,25.9948959 C52.8616002,25.9746934 52.8482537,25.995271 53.1933483,26.1207486 L53.113,26.091 L52.9487618,26.1766287 C52.9230026,26.1908243 52.8979644,26.2051365 52.8736257,26.2195614 C52.7624989,25.5328355 52.6194273,24.8551298 52.4474899,24.1890279 C52.6158057,24.0197322 52.796695,23.8364367 52.9907185,23.6388948 L52.9907185,23.6388948 L53.1079938,23.5176946 C53.1040117,23.5777974 53.1389275,23.5995549 53.2559428,23.4749061 L53.234,23.496 C53.2365338,23.4938275 53.2400244,23.4904854 53.2427631,23.4863244 L53.2484275,23.4711147 C53.2490344,23.4706858 53.2496212,23.4703198 53.2559428,23.4749061 C53.2559428,23.238631 53.1747912,23.3218837 53.1300817,23.4257091 C53.1128149,23.4408931 53.1087666,23.4555443 53.1140586,23.4686469 C52.945175,23.5434992 52.6875023,23.7418033 52.3978166,23.9975231 C49.7528953,14.1046058 40.7273654,6.81818182 30,6.81818182 C29.1602761,6.81818182 28.3309804,6.86282974 27.5143571,6.94988117 C27.4798479,6.62602734 27.4071562,6.18526493 27.2831874,5.60588723 C28.1748649,5.50499113 29.0815413,5.45454545 30,5.45454545 C35.6527494,5.45454545 40.8591984,7.36538481 45.008649,10.5763655 C45.0209672,10.821618 45.0457208,11.0993219 45.0852881,11.4135944 L45.0852881,11.4135944 L45.107,11.576 L45.1021586,11.5270127 C45.0291477,10.7449232 45.5546556,11.4944257 45.2274351,11.6247739 L45.1773923,11.638509 L45.1159608,11.6433566 C45.5213188,11.6433566 45.8099987,11.547722 46.0068536,11.392979 C50.8914174,15.5969179 54.1018786,21.6925437 54.5029221,28.5429173 C53.8687503,28.614492 53.498731,28.6712221 53.3189549,28.7155731 C53.2981779,28.7105069 53.2783169,28.7058095 53.2594551,28.7014731 L53.2594551,28.7014731 L53.2544969,28.6773914 C53.224301,28.5769256 53.1646187,28.595413 53.1272629,28.6421043 L53.1418597,28.6274754 C53.1148217,28.1644044 53.0741911,27.7049838 53.020361,27.2496066 C53.1576744,26.8914865 53.2082193,26.5003887 53.1688526,26.0664336 L53.171,26.123 L53.1869619,26.1188193 C53.2377768,26.2260647 53.2647221,26.2280559 53.2446135,26.1636537 L53.2305307,26.1260997 L53.2996075,26.1348545 C53.5926117,26.1696167 53.4271737,26.1054169 53.2286119,26.0512761 L53.2286119,26.0512761 L53.2231927,26.0381926 C53.2064184,26.0053991 53.1862245,26.0007309 53.1699313,26.0117287 C53.1535439,25.9851576 53.1344206,25.9564705 53.1123316,25.9260526 L53.126,25.945 L53.125,25.944 Z M21.9465822,22.2138725 C21.938662,21.8895899 21.8112427,22.5924086 21.7400177,23.3727079 L21.7400177,23.3727079 L21.7185983,23.6343746 C21.6892666,24.0418231 21.680292,24.4417346 21.7161677,24.7017229 L21.7161677,24.7017229 L21.7230909,24.7485265 L21.724,24.752 L21.7560007,24.4673312 C21.7860327,24.1892594 21.8118328,23.9404916 21.833599,23.719034 L21.8540278,23.506606 C21.9278579,23.5139818 22.1071522,23.5091379 22.3109689,23.4980616 C22.4016536,23.4968246 22.5066155,23.4948658 22.6272575,23.4920894 L22.6272575,23.4920894 L22.7654152,23.4744371 C22.8768114,23.4597973 22.9628706,23.4473505 23.0253995,23.4374082 C23.1262274,23.4242182 23.1881579,23.4113852 23.1809995,23.4010737 C23.1855141,23.3957787 23.1711856,23.3923005 23.1431137,23.3905815 C23.0629258,23.3800914 22.851285,23.3750034 22.4452073,23.3798094 L22.4452073,23.3798094 L22.506181,23.3795504 C22.6579925,23.3808549 22.3253002,23.4019567 22.4033495,23.3863627 L22.4033495,23.3863627 L22.2893222,23.4016659 C22.1130001,23.4271193 21.9930383,23.4473018 21.9194572,23.4628162 C21.894782,23.4660504 21.8739532,23.4691889 21.8582631,23.4718201 C21.8601202,23.4524549 21.861944,23.4333317 21.8642967,23.4173334 C21.8789663,23.37654 21.8934877,23.3289654 21.9070705,23.2742133 L21.9070705,23.2742133 L21.8728343,23.3175426 C21.9207452,22.8019216 21.9423756,22.4792723 21.9463037,22.3032283 L21.9463037,22.3032283 Z M33.6770565,23.2026567 C31.8802626,23.1334946 32.9875585,23.3966966 34.0930118,23.5653741 L34.3132169,23.5977228 C35.4419191,23.7570389 36.3617946,23.7850356 33.8665238,23.2106966 L33.8665238,23.2106966 Z M42.2664772,19.5064138 C40.3206056,19.2062591 40.3197783,19.2067211 39.5454545,19.6391924 C40.4047383,19.7502675 41.2092487,19.7967316 42.2663685,19.5080106 C42.2702219,19.5274403 42.2747285,19.5488997 42.2799483,19.5723659 L42.2799483,19.5723659 L42.2930909,19.6285265 L42.292,19.627 L42.2928801,19.6286861 L42.2950909,19.6385265 C42.2975762,19.6478253 42.2981223,19.6500508 42.2970909,19.6445265 L42.2970909,19.6445265 L42.2882587,19.5692029 C42.2588673,19.3477337 42.2329705,19.3152893 42.2564647,19.4544009 L42.2564647,19.4544009 Z M26.991235,18.1993007 C27.9034787,21.1313686 27.560996,18.2353479 26.991235,18.1993007 Z M30.2132339,16.9800414 C30.4192635,17.1638595 30.5194973,17.3554222 30.5516432,17.5279042 L30.0756524,17.2546054 C30.0665406,17.1587072 30.0689617,17.0623763 30.084562,16.9661974 L30.078,17.025 Z M28.9871191,16.6075662 L29.1683785,17.5206685 C28.6458337,17.276335 28.2493908,17.1136744 27.9576068,17.0145454 L28.9871191,16.6075662 Z M42.257,16.799 L42.257,16.798 L42.2534867,16.8031923 C42.2304529,16.8155364 42.2116118,16.8223253 42.1940297,16.829753 L42.1940297,16.829753 L42.164646,16.8220945 C42.0793333,16.8047828 42.0700332,16.8398984 42.111976,16.8788547 C42.0678227,16.921887 42.0932975,16.9682817 42.2879586,16.9902002 L42.2879586,16.9902002 L42.2641097,16.9863201 C42.2533034,16.9835865 42.2519069,16.9806764 42.2552617,16.9782954 L42.2552617,16.9782954 L42.265182,16.9805996 C42.274547,16.9813905 42.2840902,16.9806947 42.2970024,16.9782954 C42.2978662,16.980974 42.2955067,16.9848431 42.2879586,16.9902002 L42.288,16.989 L42.3169896,16.9690448 C42.3180639,16.9681991 42.322196,16.9652436 42.3294822,16.9577663 L42.3294822,16.9577663 L42.391927,16.9575349 L42.4577388,16.9486586 C42.431989,16.9342829 42.4077528,16.9213046 42.389625,16.9097625 C42.4415173,16.8621589 42.4574688,16.8304941 42.4505211,16.8111215 L42.4505211,16.8111215 L42.5184175,16.7555399 C44.3784644,15.257624 43.5070488,15.4307616 42.825881,15.9488109 L42.7115182,16.0407507 C42.4329961,16.2778096 42.2200826,16.564301 42.3027666,16.7958347 C42.291481,16.7982278 42.2800321,16.8010125 42.2686055,16.804137 L42.2686055,16.804137 L42.205,16.897 L42.257,16.799 L42.2546257,16.8081326 C42.2589415,16.8068454 42.2632714,16.8056041 42.2676053,16.8044114 L42.259672,16.7953077 L42.259672,16.7953077 L42.257,16.799 Z M39.514,14.347 L39.505,14.348 C39.5017435,14.349086 39.499792,14.3492558 39.4978142,14.349421 L39.4310909,14.3535265 L39.389,14.357 L39.410246,14.3560204 L39.410246,14.3560204 L39.4321567,14.3545417 C39.2664926,14.5013669 38.9074788,14.8410357 38.2791843,15.453105 L38.309,15.423 L38.309,15.424 L38.2791843,15.453105 C38.2786048,15.4378841 38.2781267,15.422487 38.2777672,15.407352 L38.2771694,15.3231946 C38.2782677,15.2491959 38.2848645,15.2161924 38.3006525,15.3188577 L38.3006525,15.3188577 L38.301,15.323 L38.2861109,15.1982596 C38.2392881,14.8368859 38.2007574,14.5952492 38.1691394,14.4490655 L38.1539,14.3838157 C38.5506533,14.3935079 39.0212381,14.3850542 39.5454545,14.3459157 L39.514,14.347 Z M9.68190917,11.6917144 L9.682,11.679 L9.682,11.66 L9.683,11.658 L9.683,11.651 L9.6529761,11.8189472 C9.65142184,11.8281348 9.64987628,11.837299 9.64833936,11.8464393 C9.6130289,11.8839382 9.57837022,11.9229881 9.54382217,11.9621379 C9.54407201,11.8810311 9.52461073,11.8127369 9.48919456,11.7592972 C9.49856084,11.743831 9.5074516,11.7290557 9.51588429,11.7149494 L9.51588429,11.7149494 L9.52811342,11.7064345 L9.591,11.655 C9.5735595,11.6652622 9.62177004,11.6163275 9.62313821,11.622299 L9.621,11.626 L9.65802811,11.5739202 C9.70561362,11.4996155 9.69716672,11.4887798 9.66339906,11.5100871 L9.64034566,11.5264779 L9.611,11.549 L9.63498277,11.5025414 C9.68485377,11.3988033 9.6131139,11.4815335 9.53974136,11.5972243 L9.51238446,11.6418536 L9.51238446,11.6418536 L9.49161039,11.6650937 C9.47485853,11.6826769 9.45921038,11.6998106 9.44687859,11.7146711 C9.42141109,11.6922001 9.39125824,11.6746941 9.35557775,11.6618461 C9.33998624,11.6392918 9.33138305,11.6382096 9.32861028,11.6543054 C8.92155,11.5532671 7.98740976,12.1354546 6.92245999,14.0724743 L6.92245999,14.0724743 L6.886,14.137 L6.883,14.143 L6.881,14.146 L6.88,14.148 L6.88,14.149 L6.878,14.152 L6.878,14.153 L6.877,14.154 L6.87609091,14.1565265 L6.87564966,14.1572402 L6.86520096,14.1769664 L6.842,14.22 L6.841,14.221 L6.837,14.229 L6.82988436,14.2436409 L6.81818182,14.2657343 C7.38358274,14.0544211 7.84863489,13.8189453 8.2244927,13.5782103 C4.77331247,18.1464488 2.72727273,23.8342853 2.72727273,30 C2.72727273,32.9463801 3.19449631,35.7836342 4.058895,38.441714 C4.0086516,38.6612687 3.96095745,38.9231895 3.9370217,39.1783217 L3.94,39.148 L3.94,39.149 L3.939,39.157 L3.939,39.161 L3.938,39.165 L3.938,39.173 L3.98992175,38.9855078 C4.00655582,38.9242313 4.02219142,38.8659479 4.03683093,38.8106515 L4.07776362,38.6537181 C4.07636946,38.7907407 4.07549969,38.8981263 4.07506773,38.9790695 L4.07506773,38.9790695 L4.074,39.086 L4.075,39.085 L4.074,39.092 L4.074,39.088 L4.0714589,39.0996304 L4.0714589,39.0996304 L4.06811926,39.1166514 C3.97077703,39.18562 3.89137634,39.3180383 4.06214527,39.267234 C4.06443469,39.2919909 4.06846696,39.3173593 4.07467541,39.3427404 L4.074,39.341 L4.08495854,39.2972119 L4.08495854,39.2972119 L4.09179943,39.2576065 C4.12551644,39.2455212 4.16682753,39.2277572 4.21687447,39.2031018 L4.21687447,39.2031018 L4.19767909,39.2069573 C4.18356621,39.2003827 4.21028742,39.1554963 4.21676567,39.1748956 L4.21676567,39.1748956 L4.216,39.188 L4.21913509,39.1471404 C4.21677603,39.1160392 4.20712912,39.0968789 4.19286082,39.0868275 L4.16832562,39.0782281 L4.14627401,39.0801841 L4.13885817,39.0811682 L4.12086832,39.0862723 C4.1280967,38.9879678 4.10117722,38.9992422 4.0810848,39.0649915 L4.081,39.063 L4.0828334,38.9976182 C4.08466141,38.9232536 4.08673403,38.8284217 4.08910893,38.7176824 L4.09158672,38.6018094 C4.09467844,38.5897751 4.09771625,38.5779084 4.10070075,38.566208 C7.69231472,49.432662 17.9305847,57.2727273 30,57.2727273 C45.0623114,57.2727273 57.2727273,45.0623114 57.2727273,30 C57.2727273,29.5710442 57.2628241,29.1444015 57.2432341,28.7202879 C57.7275694,28.7501526 58.0720459,28.7637522 58.2974642,28.7662094 L58.4286757,28.7662771 C58.9247793,28.7601124 58.4903295,28.6732045 57.5810033,28.6306921 C58.0679292,27.9689223 58.384263,27.7267816 58.5343457,27.6466645 L58.5343457,27.6466645 L58.5550909,27.6355265 L58.5190453,27.6362326 C58.3274775,27.6318887 57.9023229,27.5110041 57.2510868,26.8282077 L57.2510868,26.8282077 L57.147,26.715 L57.1713652,26.7403952 C57.4240304,26.9931129 57.3980384,26.7586155 57.1653998,26.6865761 L57.1080785,26.6731312 L57.2663877,26.697154 C59.3822466,26.9912272 58.3287686,25.705643 57.0045852,26.167732 C56.4637343,22.314098 55.1162703,18.7186101 53.1389909,15.5574217 L53.162282,15.4231011 L53.162282,15.4231011 L53.179,15.252 L53.1911007,15.3156207 C53.2505857,15.6223324 53.3064831,15.7458561 53.2896799,15.1951902 L53.2853294,15.0759223 L53.278,14.935 L53.2799818,14.9746318 C53.2825386,15.1175169 53.2427568,14.7950521 53.2668669,14.8683248 L53.274,14.897 L53.2387728,14.7451698 C53.0505146,13.9683264 53.0480045,14.2688487 53.1005946,14.7118612 L53.1093371,14.7828584 C53.00111,14.5394379 52.7591205,14.3636982 52.3012861,14.2961861 C51.2928099,12.8675575 50.1502207,11.539096 48.8918858,10.3302214 L48.8972252,10.3100856 C48.9054133,10.2804613 48.913399,10.250852 48.9211708,10.2213182 L48.9211708,10.2213182 L48.965144,10.0455063 C49.1896499,9.09824815 49.1614252,8.36086963 48.4818568,9.94453152 C43.6224189,5.46395273 37.1308024,2.72727273 30,2.72727273 L29.957,2.727 L29.9568951,2.71035728 L29.9540909,2.68252647 L29.9549295,2.68096971 L29.9530909,2.66952647 L29.9520909,2.65452647 L29.9520909,2.65252647 L29.9516535,2.63199043 L29.950742,2.61836141 L29.950742,2.61836141 L29.9483206,2.58215933 L29.9468963,2.56086399 L29.9450909,2.54652647 L29.9430909,2.51452647 L29.9420909,2.48852647 L29.94,2.474 L29.9432533,2.65515905 C29.9436397,2.67978817 29.9440342,2.70423832 29.9444367,2.7285091 L30,2.72727273 C26.5401984,2.72727273 23.2308678,3.37151557 20.1854272,4.54658224 C19.9832627,4.35069259 19.6510471,4.09526271 19.1452988,3.77622378 L19.1452988,3.77622378 L19.1949761,3.81317762 C19.3871455,3.98205922 19.2866807,4.25631539 19.1920681,4.31018851 L19.1920681,4.31018851 L19.1800909,4.31452647 L19.1847609,4.32743628 C19.2617958,4.51813411 19.3995206,4.67752985 19.5569172,4.80000746 C19.4213201,4.85440966 19.2863082,4.91170949 19.1518586,4.97006089 L19.0909091,4.97258638 C19.1040631,4.97526381 19.1170956,4.97800694 19.1300148,4.9808091 C18.1783754,5.39365647 17.2569636,5.85930147 16.3673095,6.37375363 C16.3850067,6.32778499 16.4042694,6.20386262 16.4254842,5.97372233 L16.4254842,5.97372233 L16.435,5.855 L16.4332805,5.8704642 C16.4208098,5.94200769 16.4153945,5.6471813 16.4312776,5.76141883 L16.433,5.775 L16.4213632,5.651592 C16.4054611,5.49580163 16.3911304,5.37705693 16.3778242,5.2923616 L16.3680281,5.23517754 C16.3833,5.19624489 16.4017134,5.14345291 16.4237048,5.07415288 L16.42,5.082 L16.412,5.099 C16.4098243,5.08144267 16.4133445,5.05817738 16.4168361,5.04716515 L16.421612,5.04274474 L16.423,5.066 L16.4221812,4.97581529 C16.4129964,4.73968078 16.3645636,4.87324349 16.3328303,5.03837535 L16.3238673,5.08852386 C16.3033724,5.10343473 16.2924314,5.26666469 16.2897004,5.47316347 L16.2891705,5.63450905 L16.2891705,5.63450905 L16.2915933,5.80223197 C16.2979256,6.07742254 16.3156854,6.33858074 16.3423641,6.38962541 C13.8424472,7.83734451 11.5939699,9.67204239 9.67822587,11.8109591 L9.68,11.738 L9.68,11.724 L9.681,11.722 L9.681,11.693 L9.682,11.691 L9.681,11.692 L9.68190917,11.6917144 Z M14.7032719,10.805034 C15.2502407,11.2585627 15.640995,11.5023306 15.9054413,11.5966327 L15.7837318,11.6883014 C15.5740313,11.655136 15.3269637,11.6216666 15.0764639,11.5908683 L14.8217774,11.5605755 C14.4664297,11.5196843 14.1275368,11.486292 13.9038165,11.469053 C14.1342355,11.2683538 14.3683282,11.0723503 14.6060694,10.8806903 Z M7.01212249,11.6104917 C8.54654192,12.0085421 11.9499432,8.602187 6.81818182,11.5332294 L6.829,11.527 L6.92219294,11.4781512 C7.44062079,11.2267176 7.42026422,11.6102702 7.10890243,11.6176543 L7.04282342,11.613816 L6.97809091,11.5995265 Z M27.034325,5.63188303 L27.0293264,5.66791134 C26.969556,6.14034422 27.0189633,6.6214019 27.1068106,6.9978319 C23.1194295,7.493243 19.4456731,9.00268505 16.3519671,11.2595948 C16.2969333,10.9345167 16.0408275,10.4572406 15.6954516,10.052674 C18.9652138,7.70239788 22.8367285,6.13741027 27.034325,5.63188303 Z M40.7777766,2.62334865 C39.2804323,1.64319131 39.0037471,2.73055592 40.7540795,2.71647741 L40.7540795,2.71647741 L40.7940909,2.71452647 L40.7045658,2.71335343 C40.2560523,2.69299902 40.5518368,2.51263765 40.8527834,2.67743225 L40.8527834,2.67743225 L40.906,2.71 Z M32.7272727,2.66890604 C32.0340487,2.2283944 31.0163907,2.24893432 30,2.2676795 C30.6292244,2.52173646 31.3851808,2.6862553 32.7272727,2.66890604 Z M32.8330756,18.8288414 C32.7944119,18.9678816 32.8421184,18.6476296 32.848803,18.7232638 L32.848803,18.7232638 L32.849,18.736 L32.8516232,18.6203061 C32.8578113,17.8677047 32.74984,18.261073 32.6741112,18.7392182 L32.6624433,18.8152646 L32.6390785,18.9846238 C32.6328898,19.0332879 32.6272967,19.0809586 32.622511,19.1261539 C32.3699104,18.7368201 31.6316832,18.0272046 30.1001666,16.8881119 L30.219,16.977 L37.798689,14.3682057 C37.8488306,14.3710458 37.900641,14.3735906 37.9540597,14.3758024 L38.0696956,14.3799795 C38.044601,14.6073647 38.0499276,15.1392359 38.071846,15.6549528 L38.071846,15.6549528 L38.0610909,15.6645265 L38.0557512,15.6506627 C38.0519942,15.6418842 38.0481433,15.6328862 38.0444803,15.6243271 L38.0444803,15.6243271 L38.024,15.577 L38.0327388,15.6320109 L38.0327388,15.6320109 L38.0411976,15.6857403 L38.0133963,15.7123341 C37.7281101,15.9912998 37.3966287,16.3170274 37.0138623,16.6948403 L37.0138623,16.6948403 L36.8181818,16.8881119 L36.8505957,16.8757262 C36.981206,16.8092693 37.3319897,16.4968151 37.7389869,16.109847 L37.7389869,16.109847 L37.8685626,15.9859723 C37.9318054,15.9251982 37.9959462,15.8631234 38.0600379,15.8025429 C38.0690533,15.8574803 38.0779027,15.910027 38.0868426,15.9592645 C38.1118395,16.4026616 38.1478676,16.7821356 38.1864528,16.8672263 C38.1735489,16.8867953 38.1589939,16.9095243 38.1427283,16.935678 L38.1427283,16.935678 L38.1160909,16.9775265 L38.1150909,16.9795265 L38.1080909,16.9915265 L38.1040909,16.9985265 L38.1011207,17.0039024 L38.1,17.005 L38.1522899,16.9452503 L38.1522899,16.9452503 L38.1963928,16.8865549 C38.2030168,16.8911153 38.2096467,16.885754 38.2162274,16.8691969 L38.2162274,16.8691969 L38.2234972,16.8480449 C38.2451342,16.8151669 38.2589492,16.7899172 38.2642545,16.7754356 L38.264,16.776 L38.2835911,16.829136 C38.3496509,16.9929119 38.361695,16.7986712 38.2944069,16.4564885 L38.2740697,16.3596558 C38.2877228,16.1279356 38.3001461,15.8111137 38.3106061,15.3921816 L38.306,15.558 L38.532378,15.3344017 L38.6604107,15.2059292 C39.0325228,14.8312523 39.3495773,14.5006398 39.4813711,14.3506945 C39.4870782,14.3502689 39.4925399,14.3498616 39.4978142,14.349421 L39.505,14.348 L39.531,14.346 L39.5391116,14.3463887 C39.5267286,14.3434814 39.5081099,14.3410729 39.4910458,14.3391057 C39.5650541,14.2535989 39.5683614,14.236989 39.4711329,14.3204796 L39.4711329,14.3204796 L39.453385,14.3340443 C38.997102,14.2757005 38.6066277,14.23313 38.2770078,14.2032519 L38.7628278,14.0373173 C39.1115855,14.2822591 39.4020616,14.3626184 39.5202273,14.1159952 L39.5202273,14.1159952 L39.5389673,14.0699249 L39.3445821,13.8670798 C39.3367008,13.8588875 39.3288413,13.8507219 39.3210036,13.8425829 L43.3281318,12.4642173 L43.6866795,14.2916091 C43.0627573,14.1843413 42.4207433,14.3894254 42.2727273,15.3078511 L42.2727273,15.3078511 L42.5055456,15.3591226 C43.102551,15.4862494 43.5730241,15.5516425 43.9366077,15.5707156 L46.1058532,26.6662795 C44.0165808,27.7519032 45.3188577,28.9562921 46.492576,28.636372 L47.0118541,31.2892427 C46.9181135,31.2813953 46.8190471,31.2737024 46.7171519,31.2663316 L46.7171519,31.2663316 L46.5035283,31.2516233 L46.5035283,31.2516233 L46.2064126,31.2335407 C45.1543918,31.1744096 44.2288842,31.1756957 45.9795776,31.4086056 L45.9795776,31.4086056 L46.2198395,31.4130924 C46.4498314,31.4170716 46.6493189,31.4195483 46.8210509,31.4207073 L46.8210509,31.4207073 L47.037,31.421 L48.0332353,36.5205369 C47.9592407,36.527148 47.9000781,36.5334542 47.854398,36.5394017 L47.808129,36.5460172 C47.8119012,36.5062369 47.8110581,36.4771137 47.8062696,36.4601476 C47.8215931,36.3949309 47.8361711,36.2937254 47.849337,36.1484646 L47.849337,36.1484646 L47.857,36.037 L47.8549513,36.0596635 C47.8447812,36.1149287 47.8324927,36.0204042 47.8342336,35.9612751 L47.837,35.932 L47.8469271,35.9505402 L47.857,35.994 L47.8233849,35.8343333 C47.5060159,34.4106107 47.5739788,35.9524174 47.6944198,36.4247446 L47.7066265,36.468263 C47.6427677,36.551479 47.5962025,36.7070178 47.7304625,36.6932492 L47.7304625,36.6932492 L47.7490909,36.6885265 L47.7388922,36.6852508 C47.7349572,36.6752137 47.7737843,36.6487488 47.7842916,36.6623394 L47.7842916,36.6623394 L47.7857515,36.6809253 L47.8000532,36.6020806 C47.8570807,36.6114398 47.9450763,36.6198577 48.0549006,36.6272193 L48.2800277,37.7775053 L45.0851524,38.8816017 C45.08694,38.8149855 45.0879867,38.7357913 45.0881689,38.6426883 L45.0881689,38.6426883 L45.0870909,38.5025265 L45.0868136,38.5320619 C45.0804154,38.6434899 45.0431391,38.2347559 45.0876482,38.4740515 L45.086,38.471 L45.0581499,38.3200107 C44.8444562,37.2384301 44.9062002,38.3630344 44.9846567,38.9127605 L44.4159992,39.1081337 C43.8013109,39.018833 43.1303084,38.9664625 42.2727273,39.1788478 L42.334,39.164 L42.332672,39.1409672 C42.3236,39.1276187 42.3014861,39.1208878 42.2785857,39.1210353 L42.2451771,39.1264479 L42.2451771,39.1264479 L42.244,39.125 L42.2017872,39.1026786 C42.078732,39.0481666 41.807507,39.0010942 41.4829123,38.97811 L41.3408092,38.9697829 C41.782758,37.8938527 42.1962038,36.8650377 42.2632615,36.6139649 L42.262,36.617 L42.2086081,36.6183464 C41.5660506,37.3075388 41.0240005,37.7154651 40.7639415,38.7439553 L40.7125969,38.9741731 C40.3752281,38.9953506 40.0526116,39.0500385 39.8274601,39.1529185 L39.8274601,39.1529185 L39.7890909,39.1705265 L39.8208577,39.1654325 C40.0306457,39.1437569 40.1485773,39.3930271 39.5454545,39.3930271 L39.5454545,39.3930271 L39.7984768,39.3924094 C40.118264,39.3908141 40.40146,39.3861754 40.6496633,39.3789289 C40.6106883,39.7121999 40.5928799,40.098211 40.5993929,40.5526398 L40.599,40.422 L37.4817372,41.4956484 C37.6765125,41.1913553 37.9949264,40.865951 38.1242473,40.6705397 L38.1696423,40.5894752 C38.2426095,40.6114341 38.3265438,40.5681733 38.2231838,40.3843162 L38.223,40.385 L38.2298107,40.4075759 C38.2276511,40.4171019 38.2150732,40.4157188 38.2084958,40.4097383 L38.2051823,40.3981084 L38.2231838,40.3843162 C38.1390904,40.4186019 38.1024203,40.4563408 38.0958146,40.4896766 C37.9135768,40.496069 37.4153671,40.6876927 36.3558804,41.1829347 C36.6257753,41.3500501 36.8564952,41.5039319 37.0520111,41.6454476 L36.202747,41.9360465 L35.6393694,39.0488813 C35.6397276,39.0489388 35.6400862,39.0489964 35.6404451,39.049054 L35.718,39.061 L35.673,39.053 L35.8599443,39.0828262 C36.9421508,39.2485873 37.6317621,39.320003 37.9584605,39.3345591 L38.0274238,39.3369259 L38.1092809,39.3368363 C38.4527007,39.325058 37.5678027,39.1430358 35.6439607,39.0299282 L35.6439607,39.0299282 L35.635,39.029 L32.566,23.3 L32.607106,23.2946637 C32.6137819,23.293704 32.6203243,23.2927635 32.6266932,23.291848 L32.6452389,23.289182 L32.6790909,23.2835265 L32.6840909,23.2825265 L32.7146953,23.2791973 L32.7146953,23.2791973 L32.7272727,23.2773893 C32.6739152,23.2783713 32.6193434,23.2799185 32.5637992,23.2819788 L31.7741034,19.2356134 C32.1337715,19.4321311 32.4533913,19.5366293 32.615024,19.5074343 C32.6196293,19.512744 32.6256111,19.5112684 32.632721,19.5014727 C32.6375457,19.5001838 32.6422025,19.4987545 32.644816,19.497231 C32.6690512,19.5052051 32.6980756,19.5140805 32.731919,19.5245933 C32.8622234,20.0347624 35.6676701,19.4647721 32.8171284,19.2890354 L32.8171284,19.2890354 L32.8734732,19.2969528 C33.0147279,19.3339315 32.717174,19.4649753 32.7850113,19.3359118 L32.7850113,19.3359118 L32.797,19.316 L32.7788836,19.3415413 C32.7527189,19.382052 32.7371198,19.4188579 32.7305368,19.4518374 L32.7272307,19.4984215 C32.7089858,19.492039 32.69201,19.4863781 32.6783737,19.4818626 C32.7271378,19.4499864 32.7416521,19.3907676 32.7107462,19.3004543 C32.74627,19.1818508 32.7918517,19.0075962 32.8493371,18.7643108 Z M27.229,39.173 L27.218,39.047 L27.2176565,39.0609825 C27.1669981,39.0765397 27.1434919,39.1008296 27.1375193,39.128281 L27.137035,39.1565799 C26.9294267,39.159636 27.0095394,39.17364 27.1497351,39.1846743 C27.1516393,39.1883096 27.1537404,39.1919384 27.1560218,39.1955502 L27.1560218,39.1955502 L27.1213816,39.2020551 C27.1089013,39.2045241 27.0976304,39.2068101 27.0879345,39.2088488 L27.0515809,39.2176019 C27.0438421,39.220776 27.072995,39.2179435 27.1624259,39.2050022 C27.2362609,39.3070918 27.4453131,39.3876868 27.4026126,39.19936 C27.4168386,39.1998093 27.4303805,39.2001524 27.4429933,39.2003746 L27.5055612,39.2001406 C27.553061,39.1982224 27.5494779,39.1909006 27.4419058,39.1750189 L27.393,39.168 C27.4142964,39.1577623 27.4312712,39.1541057 27.4451084,39.1510475 L27.4931575,39.1394413 C27.5062832,39.1350239 27.4576958,39.1428304 27.3892075,39.1560199 C27.3779467,39.1243597 27.3612436,39.0871368 27.3380462,39.0436808 L27.338,39.044 L27.3390702,39.0611664 C27.3297897,39.0717858 27.29586,39.0638229 27.2936609,39.0554244 L27.3041267,39.0475529 L27.3380462,39.0436808 L27.2946048,39.0471441 C27.3910984,38.8341785 27.4146724,38.6842762 27.4033669,38.6037824 L27.4033669,38.6037824 L27.3980909,38.5815265 L27.4045453,38.5380211 C27.475764,37.9503749 27.4048808,37.23471 27.3149,36.8446467 L27.309,36.824 L27.2899786,36.7466794 C27.2815753,36.7169418 27.2731066,36.6902359 27.2646648,36.6669025 L27.239513,36.6073609 C27.2680514,36.6315096 27.3086287,36.6278476 27.3415309,36.5418463 L27.3415309,36.5418463 L27.2861432,36.5061414 C27.205486,36.4651783 27.1929312,36.5194173 27.2112351,36.5648946 C27.108134,36.4719371 27.0446638,37.0866823 27.2298508,39.1783217 L27.218,39.043 L27.305,36.928 L27.229,39.173 Z M16.2408935,28.3441124 C15.9067898,28.4630527 15.7553206,28.4221659 15.7148551,28.3292237 L16.3054587,28.1252083 C16.3275721,28.1724275 16.3472347,28.2291258 16.3636364,28.2965221 L16.363,28.295 L16.319,28.121 L18.8765964,27.2414254 C18.9432493,27.362775 19.0567796,27.4086906 19.1573767,27.3561097 L19.1960877,27.3303418 L19.21,27.125 L19.2983739,27.0955882 L19.235,26.761 L19.2750824,26.1673247 C19.4273216,26.1786511 19.6813363,26.1867596 20.0640683,26.1901281 L20.2360554,26.1912771 L20.1817907,26.1907087 C20.1351918,26.1898952 20.1108831,26.1883832 20.1024951,26.1865041 L20.1024951,26.1865041 L20.102,26.185 L20.1287254,26.1864957 L20.2147536,26.1891138 L20.208,26.172 L20.2157193,26.17198 L20.2638226,26.1694785 L20.2844233,26.1685961 C20.3259856,26.1695615 20.3438177,26.1727992 20.2997644,26.1794396 L20.2147536,26.1891138 L20.3585279,26.1757261 C20.3484868,26.1775072 20.334261,26.1796115 20.3151522,26.1820752 L20.326,26.18 L20.4699734,26.1658233 L20.5780711,26.1536523 C20.9610674,26.184491 21.2419924,26.2069366 21.4383569,26.2223616 L21.6071831,26.2354974 C21.6544952,26.2391298 21.6930602,26.242033 21.7235268,26.2442578 C21.7226235,26.2670439 21.7219906,26.2915148 21.7216137,26.3173641 L21.7216137,26.3173641 L21.7220082,26.469939 C21.7316577,27.0388186 21.825014,27.906437 21.9039969,26.950663 L21.9039969,26.950663 L21.912,26.83 C21.9067044,26.8663798 21.9006171,26.8396088 21.896209,26.8035429 L21.8932612,26.7755004 C22.5733588,27.2682282 23.4511714,26.9270709 24.5454545,27.3776224 L24.431,27.336 L24.3254447,27.2982008 L24.3254447,27.2982008 L24.313852,27.4680021 C24.2426219,28.6265868 24.3383223,29.6906176 24.7982282,27.0186724 L24.792,27.05 L24.781841,27.1058655 C24.7182176,27.4088893 24.7426927,26.8149463 24.7797179,26.9118359 L24.789192,26.9513695 L24.791,26.961 L24.7789644,26.8514481 C24.6149218,25.5082085 24.4424427,26.117681 24.3542324,26.9805041 L24.3451079,27.0738415 C23.5042284,25.8270967 23.1989714,25.812269 21.9646191,26.62024 L21.9646191,26.62024 L21.8950909,26.6655265 L21.8891064,26.6284821 C21.8531277,26.3983689 21.823858,26.2493743 21.8006314,26.165787 C21.8171485,26.1758534 21.8363189,26.1695371 21.849319,26.1348198 C21.9187568,26.1504144 21.9753482,26.1456306 21.9284818,26.0984169 C22.0136242,26.1137393 22.1521999,26.1302393 22.3582767,26.1476744 L22.3582767,26.1476744 L22.5337773,26.1300144 C23.4530986,26.0338549 23.2451437,25.9910105 22.8223813,25.9857504 L22.6747563,25.9853674 C22.3686014,25.9872992 22.0120366,26.0051583 21.875423,26.0342837 L21.875423,26.0342837 L21.865,26.072 L21.87,25.966 L21.8672661,25.9874955 C21.8634746,25.9964293 21.8572104,25.9919449 21.855397,25.9843747 L21.8568807,25.9719968 L21.8702334,25.9627397 C21.8348385,25.9715034 21.8101252,25.9872954 21.7936762,26.0063985 L21.7936762,26.0063985 L21.738,26.091 C21.7341856,26.1119872 21.7301442,26.1416833 21.7273764,26.1796558 L21.7241861,26.2425792 C21.5696148,26.2291005 21.2413365,26.2016447 20.8673125,26.1709239 L20.8673125,26.1709239 L20.6971294,26.1569794 C20.6687278,26.1546578 20.6401811,26.1523271 20.6115408,26.1499917 L20.6115408,26.1499917 L20.6680044,26.1439497 C21.2098743,26.0878504 21.532074,26.0455771 21.6920026,26.0146856 L21.6920026,26.0146856 L21.7121158,26.0108722 L21.7121158,26.0108722 L21.697,26.025 L21.7757251,25.9956032 C21.8004083,25.9885025 21.8138725,25.9822154 21.8180968,25.9759608 C21.8243032,25.9523179 21.7557858,25.94474 21.6365766,25.9423947 L21.6365766,25.9423947 L21.5013731,25.9417425 C21.4501736,25.9420798 21.3940345,25.942971 21.334315,25.9440719 C20.7523983,25.9483947 19.7975055,25.9960899 19.3442122,26.0495255 C19.2262552,26.0407503 19.1423739,26.0349657 19.1080366,26.0334667 L19.1080366,26.0334667 L19.096,26.032 L18.8366586,24.6614759 L15.1032848,26.1146452 C14.7785177,25.9946012 14.4615411,26.1089734 14.2058158,26.3445032 L13.6547978,23.566297 C16.3581509,23.4367155 16.6644801,23.3749749 16.1649365,23.3690836 L16.1649365,23.3690836 L15.9982862,23.3689347 C15.5009772,23.3726826 14.6113766,23.409357 14.0650909,23.4735265 L14.0650909,23.4735265 L14.0358869,23.4881522 C13.9618858,23.5189469 13.8621371,23.5457107 13.7359613,23.5594541 L13.7359613,23.5594541 L13.654,23.566 L13.4901442,22.7382603 L21.7779543,19.457527 C21.7660653,19.4958075 21.7627834,19.5518779 21.778726,19.6272368 L21.778,19.625 L21.7769703,19.5966368 C21.7808216,19.5754634 21.7976176,19.5812374 21.7924743,19.6019667 L21.779,19.625 L21.8234605,19.5648597 C21.8519836,19.5636865 21.872182,19.5562703 21.8602285,19.5257114 L21.846,19.501 C21.8550885,19.5032141 21.8569473,19.4982884 21.8584503,19.4936724 L21.8617705,19.4809031 C21.8889546,19.4514841 21.9160942,19.4226617 21.9431489,19.3943442 L27.2457192,17.2962065 C27.2590155,17.8939598 27.3060236,18.8134553 27.3030531,17.6132705 L27.3030531,17.6132705 L27.302,17.514 L27.3016153,17.5285283 C27.2996319,17.5475773 27.2950192,17.4069499 27.29698,17.3916737 L27.299,17.399 L27.2922812,17.2990329 C27.291731,17.2915192 27.2911861,17.2841224 27.2906464,17.2768414 L27.4385881,17.2198171 C27.7940287,17.5714234 28.6494521,18.0869899 29.2969943,18.1666031 L29.7241369,20.3270792 L25.1275151,22.1607676 L25.6548374,24.9068823 L30.6652263,23.1816671 L30.7218383,23.4639626 C29.9364058,23.5795642 29.591166,23.6818868 30.7370969,23.5456119 L31.4022441,26.9011801 L29.2025624,27.6584187 C29.4600526,27.1475644 29.5553425,26.5571287 29.9059592,26.1620447 C29.9357501,26.1973878 30.0004126,26.198037 30.1144429,26.1094905 L30.1144429,26.1094905 L30.0807971,26.0366413 C29.9570271,25.8138917 29.8397173,26.0735376 29.9061065,26.1573808 C29.4459058,26.5717162 28.0506014,27.5365701 27.4986984,28.245079 L26.3918552,28.6263953 L26.9260149,31.3884512 C25.3152139,30.8408518 25.9312906,31.2202107 26.6420963,31.4145971 L26.6420963,31.4145971 L26.7763606,31.4486986 C26.833158,31.4619637 26.8897094,31.4736186 26.9449427,31.4831043 L29.5674301,45.0154271 L23.2109666,47.204133 L21.9076167,40.4661204 C21.9715166,40.4113321 21.9493379,40.4095709 21.8997367,40.4292921 L20.3737352,32.5582379 C22.5304571,32.2053675 22.1018292,30.5580061 20.2103629,31.7203205 L20.0353917,30.8151012 L15.0623938,32.5274417 L14.7762287,31.0738243 C17.1760727,30.1158807 16.4158097,29.0325318 15.3496885,28.7559571 C15.7147917,28.7250593 16.0440288,28.6886474 16.2227565,28.6549411 L16.2227565,28.6549411 L16.2321115,28.670804 C16.0486209,28.6892002 16.125944,28.7046825 16.2567497,28.7129371 C16.2170373,28.9164186 16.2335477,29.1019312 16.386048,28.8150753 C16.4576696,28.8660713 16.4945697,28.8558242 16.5044192,28.8175026 C16.6627616,28.840219 16.9640794,28.8578166 17.4551095,28.8668838 L17.4551095,28.8668838 L17.4157742,28.8650896 C17.3003161,28.8539664 17.8600343,28.8029407 17.5442341,28.8533788 L17.544,28.853 L17.6900024,28.8322368 C19.8698747,28.5058053 19.1092164,28.4726623 18.0661333,28.5387791 L17.9734313,28.5448656 L17.7537053,28.5609045 L17.5333625,28.5792108 C17.3387554,28.5963793 17.1495269,28.6157891 16.9825146,28.6363576 C16.802212,28.6280527 16.6278304,28.6235409 16.5103831,28.6253448 L16.5103831,28.6253448 L16.4700909,28.6265265 L16.482,28.597 L16.4719255,28.6196168 C16.4554257,28.6446654 16.4623314,28.592924 16.4728898,28.5742334 L16.4811847,28.5681289 L16.486,28.579 L16.4699663,28.5134099 C16.4237281,28.3705943 16.3687004,28.4014559 16.3240789,28.4931797 L16.3056484,28.5358872 C16.2902154,28.5432491 16.2746952,28.5558458 16.2603933,28.5770335 C16.1532372,28.5638085 15.9574923,28.5541012 15.6459607,28.5505646 C15.8640604,28.4889227 16.102832,28.4052029 16.3636364,28.2965221 L16.358,28.298 Z M53.404,11.392 C53.3450407,11.4172135 53.2906703,11.4483296 53.2430808,11.4795267 L53.2430808,11.4795267 L53.2303524,11.4884553 C53.1747807,11.371842 53.1392118,11.3527038 53.1190516,11.3855028 C53.1046844,11.3703151 53.1013816,11.3875569 53.1052631,11.423826 C53.1003322,11.4466256 53.0974952,11.4755353 53.09646,11.507876 L53.09646,11.507876 L53.095632,11.5522459 C53.0864206,11.5566176 53.0782964,11.5618836 53.0741989,11.568349 C52.8476691,11.5267404 52.3078026,11.5356211 51.8863279,11.7090918 L51.8863279,11.7090918 L51.8200909,11.7375265 C52.4565473,11.7391698 52.8323512,11.7121161 53.0215555,11.6780942 C52.8876837,11.8587687 52.9793263,11.9771538 53.1337307,11.8409625 C53.1572434,11.9218853 53.18885,11.9521346 53.220141,11.8528032 C53.2496652,11.9260676 53.269449,11.9385188 53.2538403,11.800753 C53.4232148,12.0282425 53.8687816,12.4710142 54.3475999,12.9192851 L54.3475999,12.9192851 L54.627466,13.1785465 C54.6741463,13.2213534 54.7206979,13.263832 54.7669011,13.3057925 L54.7669011,13.3057925 L54.9042452,13.4299297 L55.0381792,13.549819 C55.0810272,13.587984 55.1231253,13.6252949 55.1642695,13.6615754 C58.2233658,18.36316 60,23.9741024 60,30 C60,32.2996853 59.7412435,34.5389347 59.251257,36.6902217 C58.6943356,36.9066919 58.3795747,37.3764767 58.9054036,38.053551 C55.3877608,50.7110094 43.7786604,60 30,60 C19.0435841,60 9.45898053,54.1265734 4.22300864,45.3565395 C4.24291189,44.6314177 4.25192357,44.1137558 4.25355592,43.7596648 L4.25355592,43.7596648 L4.25358393,43.5468166 C4.24908779,42.6943153 4.18438903,43.2341723 4.14847702,43.9755158 L4.14847702,43.9755158 L4.1410066,44.1430915 C4.12590626,44.5136621 4.11911487,44.9108361 4.130761,45.1990713 C1.50520344,40.7414746 0,35.5465168 0,30 C0,24.4140342 1.52669073,19.1846462 4.18557695,14.7063312 C3.68196336,17.2888239 3.9547594,18.0081474 4.2578601,14.477527 L4.24685201,14.603594 C9.48804445,5.85563175 19.0601942,0 30,0 C36.6114687,0 42.7234166,2.13870271 47.6817487,5.76201317 C47.656769,5.90986276 47.6332064,6.07215282 47.6117336,6.23792137 L47.6117336,6.23792137 L47.5834786,6.46848141 C47.5761579,6.53179917 47.5692245,6.59489902 47.562749,6.65718809 L47.5447669,6.84103009 C47.4624309,7.74214979 47.4990085,8.3274501 47.8927741,6.59602253 L47.8927741,6.59602253 L47.922,6.46 L47.9077387,6.50918422 C47.8568909,6.65418839 47.925697,6.0486991 47.9402678,6.22293031 L47.94268,6.28361783 L47.942,6.3 L47.9450112,6.15736158 C47.945616,6.0838047 47.9458569,6.01459382 47.9457538,5.94956468 C50.6287506,7.96308136 52.9644262,10.4070623 54.8470429,13.183237 C54.4844254,12.8362541 54.015093,12.3920287 53.4195561,11.8344625 L53.4195561,11.8344625 L53.27,11.695 L53.4179088,11.8218329 C54.1691757,12.4382865 54.0270179,11.7599736 53.3082881,11.653733 L53.234,11.645 L53.2927567,11.6518166 C53.300109,11.6419492 53.3050102,11.6326699 53.3077424,11.6241913 L53.3097141,11.6013701 C53.3421504,11.5407864 53.3748332,11.4696781 53.406801,11.3869022 L53.398,11.406 L53.401,11.398 L53.404,11.392 Z" id="Combined-Shape"></path>
            </g>
        </g>
    </g>
</svg>