<?xml version="1.0" encoding="UTF-8"?>
<svg width="60px" height="60px" viewBox="0 0 60 60" version="1.1" xmlns="http://www.w3.org/2000/svg" xmlns:xlink="http://www.w3.org/1999/xlink">
    <title>DB983E83-1DD5-4447-9B81-8D3C91765F8F</title>
    <g id="Page-1" stroke="none" stroke-width="1" fill="none" fill-rule="evenodd" opacity="0.151733398">
        <g id="UiKit_Icons" transform="translate(-1220.000000, -3030.000000)" fill="#4C9EEA">
            <g id="Icon_stamp_win2_tc" transform="translate(1220.000000, 3030.000000)">
                <path d="M41.7457684,49.9901205 L42.2727273,50.979021 L42.214,50.954 C42.1163388,51.0661432 42.4483236,51.0742803 42.3176338,50.9558067 L42.264,50.917 L42.2719473,50.9268864 C42.2714744,50.9280754 42.2703063,50.9289838 42.2687915,50.9296044 L42.263556,50.9305961 L42.2610909,50.9185265 L42.2431973,50.8174792 C42.2313978,50.7579148 42.2188112,50.6995886 42.2052429,50.6441043 L42.205,50.645 L42.2529476,50.738553 C42.2679265,50.767094 42.2819735,50.7927187 42.2950603,50.8155041 L42.3314124,50.8754197 C42.2446872,50.8821839 42.2442661,50.9065042 42.3981631,50.9590434 C42.4209466,50.9794996 42.4383603,50.9835862 42.449564,50.9735943 C42.5103869,50.9919961 42.5884707,51.013319 42.6861827,51.0378689 L42.6623408,51.0315074 C38.9653952,53.2620939 34.6325701,54.5454545 30,54.5454545 C27.1647682,54.5454545 24.4418118,54.064746 21.9081882,53.180386 C21.9027325,52.8950268 21.8875568,52.4456738 21.8598303,51.7863338 L21.865,51.944 L21.8651548,51.9928997 C21.8608163,51.9991191 21.841159,51.6954712 21.8493897,51.7152749 L21.855,51.751 L21.8500107,51.7086538 C24.3853982,52.6609529 27.1318718,53.1818182 30,53.1818182 C33.9998087,53.1818182 37.7630201,52.1688245 41.0470781,50.3853932 C41.3843724,50.5778137 41.7907365,50.7771076 42.2727273,50.979021 L42.215,50.954 L41.726723,50.0013231 C41.7330734,49.9975919 41.7394219,49.9938577 41.7457684,49.9901205 Z M13.8590906,11.507065 C14.1411358,11.5519099 14.7136363,11.6293391 15.7024467,11.7503862 C13.8651353,13.1924512 12.2503347,14.906131 10.9193026,16.8310281 C10.6025666,16.90301 10.2215536,16.995492 9.77086365,17.1115547 L9.77086365,17.1115547 L9.60309091,17.1545265 L9.56809091,17.1635265 L9.55809091,17.1665265 L9.55113379,17.1685728 C9.97946625,17.1497492 10.4019366,17.1001268 10.7796835,17.038281 C9.67221237,18.6743458 8.76996646,20.459652 8.10751654,22.3574372 C6.34891648,21.4562357 6.63904427,23.5040627 7.50341663,24.3810283 C7.36235762,24.9491656 7.24167015,25.5266117 7.14288796,26.1115022 C6.7217829,26.2423566 6.74991795,26.6362577 7.00148527,27.0780996 C6.88017433,28.0355263 6.81818182,29.0105236 6.81818182,30 C6.81818182,33.204512 7.4683895,36.2571599 8.6440722,39.0332109 C8.48396138,39.0344182 8.32653565,39.0678848 8.18181818,39.1697707 C8.39188199,39.233806 8.58580977,39.2892663 8.76485115,39.3131422 C10.0110988,42.1508888 11.8098151,44.6914835 14.0247859,46.7985517 L13.7803396,45.7268622 C13.8306082,45.723498 13.8796486,45.7193217 13.927145,45.7142149 C14.0899064,45.7316898 14.3273649,45.7539087 14.6551706,45.7816779 L14.6551706,45.7816779 L14.8959362,45.7879825 C15.4330841,45.80165 15.7995109,45.8081038 16.0318988,45.8092336 L16.0318988,45.8092336 L16.1991183,45.8089423 C16.3730298,45.8070167 16.3987278,45.7993524 16.3230407,45.7889802 C16.3387424,45.7872425 16.3561419,45.7824492 16.3750602,45.7743474 C16.380764,45.7728913 16.3859928,45.7702857 16.3886292,45.7663913 C16.4059002,45.7565634 16.4239002,45.7432658 16.4421285,45.7258245 L16.4421285,45.7258245 L16.475,45.686 L16.4603104,45.7003263 C16.4413199,45.709373 16.4323995,45.691823 16.4520762,45.6841263 L16.4819715,45.6810639 L16.4073341,45.6789851 C16.2345904,45.6833218 16.2194647,45.7581168 16.2731074,45.7820436 C16.0927076,45.7622466 15.6660873,45.7348919 15.207597,45.7111352 L14.8117999,45.6919136 C14.6149983,45.6830035 14.4235917,45.6753397 14.2544533,45.6698004 C15.4095542,45.4560115 15.9986023,44.7176322 16.3636364,43.1118881 L16.3459261,43.1869811 C16.3546528,43.1863686 16.3649137,43.1822738 16.3768118,43.1736778 L16.6253471,44.2424051 C16.5384069,44.5154247 16.4528125,44.8399307 16.3636364,45.2181122 C16.5654584,45.3119022 16.7460838,45.3944908 16.9088848,45.4645479 L17.201522,46.7352142 L14.9234615,47.6100637 C16.9286288,49.3283612 19.230686,50.7101234 21.7420938,51.6678109 C21.7510935,51.8277309 21.7612641,52.0047644 21.77262,52.1844641 L21.77262,52.1844641 L21.7861861,52.3920962 C21.8049383,52.6700725 21.8256411,52.9419045 21.8447345,53.1572121 C12.2976739,49.7963419 5.45454545,40.6973201 5.45454545,30 C5.45454545,22.6797167 8.65904701,16.1078848 13.7417831,11.6107714 Z M12.2727273,51.0507791 C11.3846261,50.8463769 10.7922478,50.6643094 9.54545455,50.9093926 C10.6080041,51.1626519 11.2446942,51.2637562 12.2727273,51.0507791 Z M42.9294979,50.8679814 L42.8632825,50.9076891 C42.7203188,50.8917107 42.582937,50.8799361 42.4784698,50.8770331 C42.4900797,50.6114892 42.3249959,49.9061069 42.2003962,49.7159355 L42.2111925,49.7086491 C44.241616,48.4479567 46.0628653,46.8822468 47.6109157,45.0755442 C47.6109907,45.2949769 47.6113139,45.5145082 47.611702,45.7342657 C47.8071477,45.4329442 47.8932056,45.1324697 47.8177745,44.8324056 C48.8739359,43.5634927 49.7985343,42.1797407 50.568691,40.7026512 L50.660385,40.705181 C51.251688,40.721621 51.7338392,40.7053894 52.112082,40.671101 C50.0763724,44.8786647 46.8761289,48.4175136 42.9294979,50.8679814 Z M21.3680008,35.2151026 L22.3043261,39.188549 C21.9084569,39.251659 21.6087358,39.6145422 22.0038891,40.4895105 L22.0038891,40.4895105 L22.0024869,40.4697877 C22.0259029,40.3938471 22.373081,40.3556153 22.1607624,40.4379263 L22.1607624,40.4379263 L22.0960909,40.4605265 L22.1674042,40.438645 C22.3185922,40.3889677 22.449971,40.3379186 22.5633988,40.2861566 L23.5108282,44.3132984 L21.9225933,44.9220446 C21.9284821,44.8991306 21.93331,44.8885696 21.9333993,44.9106069 L21.9333993,44.9106069 L21.933,44.913 L21.9414851,44.8165463 C21.990632,44.1126304 21.8836177,44.4787018 21.7925702,44.9405685 L21.785,44.975 L20.5776883,45.4392254 L19.6921549,41.397193 L16.2701582,42.7107744 L16.3462728,43.0367327 C16.3160311,43.0378852 16.300855,43.0982588 16.3088372,43.142205 C15.1619428,43.773657 13.9507605,44.2562121 13.6880389,45.3302874 L12.2897522,39.1906949 L12.1480901,39.1544889 C12.1986656,39.1005497 12.2650555,38.9520012 12.3500615,38.6780339 L15.0586945,37.6370184 L15.9057928,41.1679698 L19.3125126,39.8602526 L18.6577005,36.9215469 L17.9918345,36.5110915 L21.3680008,35.2151026 Z M21.8983641,40.4739232 C22.1227674,40.2875385 21.4814228,40.6324459 21.7615844,40.5474816 L21.7615844,40.5474816 L21.8030909,40.5325265 L21.8052563,40.5327617 L21.8363751,40.5223451 L21.8504029,40.5096146 C21.834033,40.6210277 21.8097163,41.1783191 21.7917445,41.7487431 L21.7917445,41.7487431 L21.7851897,41.9673657 C21.7759408,42.2926204 21.7693841,42.603968 21.7681867,42.819275 L21.768535,42.978388 C21.7697252,43.0662291 21.7729141,43.1150474 21.7785994,43.1095177 C21.7821199,43.3218679 21.812729,43.5366337 21.858104,43.1046096 L21.857,43.112 L21.853,43.13 L21.8494729,43.1194355 C21.8486302,43.1099624 21.8483344,43.0972806 21.8487383,43.0879355 L21.852,43.077 L21.855,43.088 L21.8409703,42.9987823 C21.8307176,42.9422354 21.8218405,42.9065301 21.8144954,42.889219 L21.8076669,42.8779485 C21.8185506,42.7475617 21.8320003,42.5579186 21.8484004,42.2973713 L21.8484004,42.2973713 L21.8550909,42.1815265 L21.8526837,42.2100537 C21.8511393,42.2232901 21.8502097,42.2216021 21.8497497,42.2097916 L21.8497497,42.2097916 L21.8496331,42.1487939 C21.8511356,42.0261512 21.8592063,41.7957628 21.8606123,41.8951932 L21.8606123,41.8951932 L21.8600909,41.9595265 L21.8620827,41.8830794 C21.865658,41.5589528 21.8675813,41.3002643 21.868147,41.0981037 L21.868193,40.882074 C21.8675303,40.6603643 21.8644374,40.5424633 21.8597216,40.503921 L21.8597216,40.503921 Z M35.4730909,39.0215265 L35.5000909,39.0255265 L35.491,39.024 L35.4970909,39.0255265 L35.4980909,39.0255265 L35.5230909,39.0295265 L35.5290909,39.0305265 L35.5665832,39.0371946 C35.5889907,39.0407924 35.613888,39.0447899 35.6404451,39.049054 L35.718,39.061 L35.673,39.053 L35.8599443,39.0828262 C35.8887209,39.0872339 35.91722,39.0915749 35.945442,39.0958499 L36.1447175,39.4636027 L33.517113,40.4722456 L32.3084903,38.236907 L30.0632013,39.0982918 C29.940999,38.9179313 29.8829777,39.0385926 29.8836737,39.1674658 L28.6420654,39.6443156 L28.521609,42.3898399 L26.0314954,43.345705 L26.039,43.009 L26.052027,43.0146395 C26.95085,43.3070421 26.7384339,42.8573706 26.3957828,42.7467543 L26.3460526,42.7333752 L26.2990909,42.7255265 L26.314941,42.70715 C26.5052912,42.4636234 26.7071631,42.0854501 26.8762453,41.7099371 L26.8762453,41.7099371 L26.9465724,41.5495661 C27.1337406,41.1111956 27.2665699,40.7037665 27.2723741,40.5540566 C27.2940811,40.5502962 27.3175699,40.5234675 27.3361097,40.4559791 L27.3361097,40.4559791 L27.2838751,40.4305746 C27.210482,40.4059089 27.1994972,40.4613712 27.2171022,40.5047246 C27.0921194,40.6034598 26.7439573,41.1961344 26.0475396,42.6703181 L26.2527206,33.8308136 L25.6454966,33.5731259 L31.6645442,31.2626299 L35.9176402,39.0469173 C35.8288927,39.0411092 35.7376589,39.035437 35.6439607,39.0299282 L35.6439607,39.0299282 L35.459,39.019 L35.4670909,39.0205265 L35.4746226,39.0224291 L35.49,39.024 L35.4730909,39.0215265 Z M53.281614,28.814176 C53.4115319,28.8351316 53.6566043,28.8457031 53.9468091,28.8476193 L54.2182884,28.8470536 C54.3167661,28.8460651 54.417663,28.8442608 54.5187556,28.8416954 C54.53643,29.2251623 54.5454545,29.6115273 54.5454545,30 C54.5454545,33.6762518 53.7372613,37.1637399 52.288857,40.2944823 C51.8736892,40.3395977 51.3195861,40.4455784 50.6378363,40.6437119 L50.6378363,40.6437119 L50.5927408,40.6563987 C52.030107,37.8844284 52.9242067,34.7853914 53.1340499,31.500278 C53.1785666,31.4977321 53.1943467,31.4859162 53.1711263,31.4623933 L53.1711263,31.4623933 L53.1818182,31.4607268 C53.1669955,31.4497545 53.1522111,31.4390412 53.1374444,31.4285893 C53.1448655,31.3243299 53.150611,31.2180311 53.155638,31.1115443 L53.1692436,31.1973471 L53.172,31.208 L53.1694651,31.1846988 C53.1518553,31.0485382 53.1949468,31.1278506 53.1942702,31.2596304 L53.192,31.295 L53.2122895,31.0849181 C53.3211455,29.8494894 53.3266776,29.1645285 53.2895832,28.8682889 Z M34.4981573,39.032622 C32.7558449,39.7628862 37.345873,38.9227434 34.4981573,39.032622 Z M55.9690478,39.1783217 C59.9787404,35.7649974 58.6309815,36.2820672 57.2926135,37.400714 L57.1544152,37.5184456 L57.1544152,37.5184456 L57.0857538,37.5786649 L56.947896,37.7033639 C56.3798247,38.2283447 55.9029959,38.8133744 55.9690478,39.1783217 Z M38.076,28.801 L38.131,28.804 L38.1461747,28.8684428 C38.0659355,29.0841173 38.0030979,29.4589144 38.0776487,29.7953362 L38.1166728,29.9318908 L38.1400909,29.9925265 C38.1980102,29.7576375 38.2376174,29.5546148 38.2653059,29.3864057 L39.8592498,36.3550559 L45.5727621,34.1618441 L45.9982346,35.6811919 L42.0550889,37.1947209 C42.1626916,36.9159515 42.2378492,36.7091118 42.2632615,36.6139649 L42.262,36.617 L42.2086081,36.6183464 C41.9301205,36.9170458 41.6705122,37.1629122 41.4445579,37.4293642 L38.375126,38.6074291 C38.0797751,38.7208037 37.821122,38.7090817 37.5991667,38.5722633 C37.3772113,38.4354448 37.2095464,38.2193601 37.0961718,37.9240092 L35.278827,30.5412942 L34.6129609,30.1308388 L38.076,28.801 Z M29.874885,33.6322872 L28.8513413,34.0251887 L28.674896,37.9490418 L31.6080359,36.8231148 L29.874885,33.6322872 Z M32.776723,35.7624138 C32.5009528,33.8321508 32.7732132,38.080071 32.8002993,35.9327086 L32.799,35.961 L32.7985068,35.9779944 C32.7924128,36.038655 32.7748109,35.8103306 32.7850361,35.8402867 L32.79,35.865 Z M27.5131118,17.2894681 C27.6569389,17.4172233 27.8548932,17.5599141 28.0778826,17.692885 L29.727212,26.3093083 C29.0057915,26.8985784 27.3421181,28.0753336 27.2727273,28.6888112 L27.278,28.662 L27.2834757,28.6365944 C27.1781022,28.5520802 27.1801059,28.8164707 27.2920802,28.7457072 L27.3392305,28.7021245 L27.3273499,28.7091786 C27.3223593,28.7072458 27.3230355,28.6954205 27.3282192,28.6939747 L27.3282192,28.6939747 L27.337,28.699 L27.3292896,28.6875429 C29.3534014,28.6294836 29.2262481,27.2514814 29.7395665,26.3918405 L30.0433691,27.9779931 L27.4562094,28.9198302 C27.434872,28.5559461 27.3765955,28.6592418 27.3121325,28.9712954 L26.5754936,29.2401965 L24.3715001,19.2125896 L23.5684267,18.7254673 L27.2479213,17.3866595 C27.2635286,17.9794631 27.3058771,18.7542914 27.3030531,17.6132705 L27.3030531,17.6132705 L27.302,17.514 L27.3016153,17.5285283 C27.2996319,17.5475773 27.2950192,17.4069499 27.29698,17.3916737 L27.299,17.399 L27.297,17.368 Z M13.9959216,28.8302108 L14.0360988,28.9173565 C13.5720712,29.2547432 13.4127629,29.9931069 14.1055153,31.3111888 L14.1055153,31.3111888 L14.0932658,31.2770171 C14.036755,30.9778588 15.3814353,30.9081469 14.1055153,31.3111888 L14.206,31.278 L14.314386,31.243055 C17.1950772,30.2711722 16.5144741,29.1059216 15.4297351,28.7784112 L15.3496885,28.7559571 C15.7147917,28.7250593 16.0440288,28.6886474 16.2227565,28.6549411 L16.2227565,28.6549411 L16.2321115,28.670804 C16.0486209,28.6892002 16.125944,28.7046825 16.2567497,28.7129371 C16.2170373,28.9164186 16.2335477,29.1019312 16.386048,28.8150753 C16.4576696,28.8660713 16.4945697,28.8558242 16.5044192,28.8175026 C16.6127883,28.8330497 16.788127,28.846199 17.0454178,28.8558571 L16.7850657,33.4202686 L13.5250359,34.6068224 L11.0486396,29.7980851 C12.4467377,29.3212697 12.4674548,28.9860213 11.9955392,28.8164228 C12.0839212,28.8086331 12.175126,28.8003668 12.26922,28.7916077 L12.26922,28.7916077 L12.2726931,28.7530991 L12.2726931,28.7530991 L12.279,28.752 L12.2961696,28.748344 L12.2961696,28.748344 L12.3140445,28.7336465 L12.328877,28.7310973 L12.3146325,28.7327415 C12.3161694,28.7303005 12.3174539,28.7276388 12.3160522,28.7228752 C12.3324855,28.7199796 12.3502926,28.7184914 12.3465103,28.7226505 L12.3465103,28.7226505 L12.3330909,28.7285265 L12.4036425,28.7016257 C12.5780191,28.6275009 12.4454115,28.6308791 12.2969949,28.6553728 L12.2969949,28.6553728 L12.279,28.75 L12.274,28.642 L12.2734356,28.6433324 L12.2667225,28.6385612 L12.273,28.625 L12.2738219,28.6245216 L12.2471055,28.6589529 C12.1317884,28.4668158 11.6433895,28.4299223 11.1124177,28.4670406 C11.2516919,28.4021801 11.3911315,28.3216557 11.5264235,28.223627 L11.5264235,28.223627 L11.6020909,28.1665265 C11.4920143,28.0806644 11.702714,27.5201136 12.1929963,27.3938217 L12.1929963,27.3938217 L12.2727273,27.3776224 C11.2017229,27.5383174 10.502502,27.7343553 10.0804676,27.9253719 L8.65660201,25.1592839 L8.17331414,24.9454778 L9.39259738,24.5014525 C9.34935695,24.8880207 9.31924626,25.3051899 9.31472079,25.6115321 L9.31472079,25.6115321 L9.31498388,25.7725433 C9.32611048,26.287728 9.44749726,26.2599966 9.7767803,24.580723 L9.7514875,24.7110289 C10.7530361,24.491597 11.4021933,24.2815219 11.7905351,24.0977828 L13.9381985,28.7088263 C13.5027553,28.7943927 13.5831453,28.8282269 13.8978263,28.8304421 L13.9959216,28.8302108 L13.9959216,28.8302108 Z M32.3590909,23.3295265 L32.358,23.33 L32.3630909,23.3295265 L32.3590909,23.3295265 L32.3640909,23.3285265 L32.3783085,23.3275543 L32.3860909,23.3265265 L32.3991374,23.3245601 L32.4370909,23.3185265 L32.4710909,23.3135265 L32.4811713,23.3127674 L32.607106,23.2946637 C32.6204579,23.2927443 32.6332756,23.2909017 32.6452389,23.289182 L32.6452389,23.289182 L32.6790909,23.2835265 L32.6840909,23.2825265 L32.7146953,23.2791973 L32.7146953,23.2791973 L32.7272727,23.2773893 C32.5470714,23.280706 32.353019,23.2904679 32.154441,23.3046757 L31.9546998,23.3202914 L31.9546998,23.3202914 L31.7540138,23.3384268 C31.6217465,23.3511259 31.4902155,23.3651803 31.3620992,23.3800156 L30.3008555,18.1103225 C30.3350547,18.1010609 30.369093,18.0826846 30.4010909,18.0565265 L30.4010909,18.0565265 L30.3856498,18.0347331 C30.18506,17.7406618 30.0603277,17.424028 30.0709833,17.1059602 L30.2708261,17.0343139 C30.6713105,17.4335795 30.5966479,17.8566453 30.4254099,18.0341979 L30.4254099,18.0341979 L30.4010909,18.0565265 L30.4364214,18.106511 C31.0475384,18.940731 32.2450847,19.5742548 32.615024,19.5074343 C32.6196293,19.512744 32.6256111,19.5112684 32.632721,19.5014727 C32.6375457,19.5001838 32.6422025,19.4987545 32.644816,19.497231 C32.6690512,19.5052051 32.6980756,19.5140805 32.731919,19.5245933 C32.8622234,20.0347624 35.6676701,19.4647721 32.8171284,19.2890354 L32.8171284,19.2890354 L32.8734732,19.2969528 C33.0147279,19.3339315 32.717174,19.4649753 32.7850113,19.3359118 L32.7850113,19.3359118 L32.797,19.316 L32.7788836,19.3415413 C32.7527189,19.382052 32.7371198,19.4188579 32.7305368,19.4518374 L32.7272307,19.4984215 C32.7089858,19.492039 32.69201,19.4863781 32.6783737,19.4818626 C32.7271378,19.4499864 32.7416521,19.3907676 32.7107462,19.3004543 C32.74627,19.1818508 32.7918517,19.0075962 32.8493371,18.7643108 L32.8330756,18.8288414 C32.7944119,18.9678816 32.8421184,18.6476296 32.848803,18.7232638 L32.848803,18.7232638 L32.849,18.736 L32.8516232,18.6203061 C32.8578113,17.8677047 32.74984,18.261073 32.6741112,18.7392182 L32.6624433,18.8152646 L32.6390785,18.9846238 C32.6328898,19.0332879 32.6272967,19.0809586 32.622511,19.1261539 C32.3699104,18.7368201 31.6316832,18.0272046 30.1001666,16.8881119 L30.286,17.027 L33.5998208,15.821327 L37.8956294,19.3718618 C37.934707,19.4159259 37.9704551,19.4489492 38.0024167,19.4715175 C36.9769858,19.5630906 36.0892896,19.6807686 37.71341,19.6357003 L37.71341,19.6357003 L37.9600105,19.6074062 L38.1246766,19.5892184 C38.1302527,19.6053498 38.1442879,19.6133978 38.1607283,19.6119935 L38.178,19.605 L39.7165737,20.8764073 L39.4077609,19.4205678 C39.4359646,19.4157374 39.4593759,19.4114008 39.4782743,19.4075393 C39.5447057,19.6607333 39.6309582,19.4919024 39.718746,18.3915364 L39.718746,18.3915364 L39.725,18.294 L39.7205683,18.3403989 C39.6926136,18.5788077 39.6913985,18.0649655 39.7190776,18.0989116 L39.7273445,18.1227278 L39.729,18.132 L39.7030033,17.9528888 C39.6464209,17.5875996 39.5977823,17.3299923 39.5565798,17.1607844 L39.5365959,17.0834578 C39.5725214,17.0722173 39.6171369,17.0510205 39.6718262,17.0174336 L39.6718262,17.0174336 C39.6756562,16.9956209 39.679525,16.9611925 39.6814526,16.9419793 L39.681,16.937 L39.6779138,16.9648532 L39.675,16.977 L39.6807421,16.9136372 C39.6951235,16.6354917 39.6025903,16.6488285 39.5191348,16.7451908 L39.4918116,16.7801007 C39.4196085,16.7934874 39.4157414,16.8329367 39.4427336,16.8751877 C39.4403878,16.8805512 39.4381358,16.8859264 39.4366788,16.88955 C39.3841663,16.9126525 39.3594383,17.2115351 39.3558048,17.5997886 L39.3558048,17.5997886 L39.3558381,17.8152697 C39.3610169,18.3971168 39.4054592,19.0896202 39.4715137,19.3754525 L39.4715137,19.3754525 L39.3973847,19.3759898 L39.3973847,19.3759898 L38.536,15.33 L38.6604107,15.2059292 C38.9860088,14.8780869 39.2694534,14.5839814 39.4235186,14.4151259 L39.4813711,14.3506945 C39.4870782,14.3502689 39.4925399,14.3498616 39.4978142,14.349421 L39.505,14.348 L39.531,14.346 L39.5391116,14.3463887 C39.5267286,14.3434814 39.5081099,14.3410729 39.4910458,14.3391057 C39.5650541,14.2535989 39.5683614,14.236989 39.4711329,14.3204796 L39.4711329,14.3204796 L39.453385,14.3340443 C39.0060858,14.2768492 38.6220294,14.2348124 38.2965484,14.2050315 L38.2782424,14.1185208 L38.6770483,13.974685 C39.0634291,14.2671066 39.3924962,14.3825822 39.5202273,14.1159952 L39.5202273,14.1159952 L39.5389673,14.0699249 L39.3445821,13.8670798 C39.3110867,13.8322626 39.2779848,13.797927 39.2452731,13.7640681 L41.3596125,12.9969938 L42.17,16.824 C42.0963959,16.8082451 42.0767938,16.8279492 42.0931577,16.8563305 L42.111976,16.8788547 C42.0754152,16.9144873 42.0865952,16.9524253 42.2020402,16.9768634 L43.6440005,23.7747566 L40.0365429,25.0877639 L38.4076273,23.7192032 C38.6971801,23.3717512 39.0279146,22.9242772 39.4011453,22.3584705 L39.4011453,22.3584705 L39.434,22.306 L39.3552996,22.4223279 C38.2012017,24.0886164 38.5539912,22.2904792 39.4029676,22.1452739 L39.4769286,22.1369951 L39.5454545,22.1370581 C38.6557747,22.0882627 37.9679867,22.471847 37.5056419,22.9594675 L34.1482184,20.1341412 L34.8430145,23.4494796 C34.6021788,23.3851071 34.2816014,23.3062354 33.8665238,23.2106966 L33.8665238,23.2106966 L33.6770565,23.2026567 C31.8802626,23.1334946 32.9875585,23.3966966 34.0930118,23.5653741 L34.3132169,23.5977228 C34.5182196,23.6266589 34.7163335,23.6512629 34.8883476,23.6687129 L35.5272208,26.7290229 L32.2767511,27.9120971 L31.3776692,23.4646932 C31.6307411,23.4312945 31.9236188,23.3913143 32.2602289,23.3439109 L32.2602289,23.3439109 L32.3481868,23.3318845 L32.3481868,23.3318845 L32.3550909,23.3305265 L32.3590909,23.3295265 Z M23.5501025,19.3487845 L23.2076565,26.0668197 C22.8933546,26.0564911 22.5245935,26.253697 21.9646191,26.62024 L21.9646191,26.62024 L21.8950909,26.6655265 L21.8891064,26.6284821 C21.8531277,26.3983689 21.823858,26.2493743 21.8006314,26.165787 C21.8171485,26.1758534 21.8363189,26.1695371 21.849319,26.1348198 C21.9187568,26.1504144 21.9753482,26.1456306 21.9284818,26.0984169 C22.0136242,26.1137393 22.1521999,26.1302393 22.3582767,26.1476744 L22.3582767,26.1476744 L22.3114907,26.1425199 C22.2249276,26.128301 22.5843198,26.1257588 22.3582767,26.1476744 L22.3582767,26.1476744 L22.5337773,26.1300144 C23.4530986,26.0338549 23.2451437,25.9910105 22.8223813,25.9857504 L22.6747563,25.9853674 C22.3686014,25.9872992 22.0120366,26.0051583 21.875423,26.0342837 L21.875423,26.0342837 L21.865,26.072 L21.87,25.966 L21.8672661,25.9874955 C21.8634746,25.9964293 21.8572104,25.9919449 21.855397,25.9843747 L21.8568807,25.9719968 L21.8702334,25.9627397 C21.8348385,25.9715034 21.8101252,25.9872954 21.7936762,26.0063985 L21.7936762,26.0063985 L21.738,26.091 C21.7341856,26.1119872 21.7301442,26.1416833 21.7273764,26.1796558 L21.7241861,26.2425792 C21.5696148,26.2291005 21.2413365,26.2016447 20.8673125,26.1709239 L20.8673125,26.1709239 L20.6971294,26.1569794 C20.6687278,26.1546578 20.6401811,26.1523271 20.6115408,26.1499917 L20.6115408,26.1499917 L20.6680044,26.1439497 C21.2098743,26.0878504 21.532074,26.0455771 21.6920026,26.0146856 L21.6920026,26.0146856 L21.7121158,26.0108722 L21.7121158,26.0108722 L21.697,26.025 L21.7757251,25.9956032 C21.8004083,25.9885025 21.8138725,25.9822154 21.8180968,25.9759608 C21.8243032,25.9523179 21.7557858,25.94474 21.6365766,25.9423947 L21.6365766,25.9423947 L21.5013731,25.9417425 C21.4501736,25.9420798 21.3940345,25.942971 21.334315,25.9440719 C21.0379465,25.9462735 20.6448342,25.9597252 20.2705123,25.9794556 L20.4785136,20.4667514 L23.5501025,19.3487845 Z M11.6049358,25.8895603 C11.1085603,25.8004972 10.3936479,25.7854884 9.6641655,25.9883365 L9.6641655,25.9883365 L9.61209091,26.0025265 L9.591058,25.9949409 C9.31935449,25.9178131 9.43555436,26.2962904 9.61772682,26.0818045 L9.61772682,26.0818045 L9.64509091,26.0415265 L9.77530046,26.0666898 C9.86116216,26.0825334 9.94447721,26.0974676 10.0240735,26.1116503 C9.74215217,26.1699732 9.55501963,26.2303762 9.56980247,26.2840872 L9.56980247,26.2840872 L10.0648422,26.2180311 C10.1805394,26.202404 10.290888,26.1873537 10.3943239,26.1724493 C12.4778824,26.4965822 12.5887536,26.1526017 11.8781383,25.9512117 C12.2684099,25.8833425 12.3389444,25.8529015 12.2205922,25.8491738 L12.2205922,25.8491738 L12.1554625,25.8492531 C12.0401613,25.8519397 11.8485604,25.8659404 11.6202241,25.8880156 L11.6202241,25.8880156 Z M53.125,25.944 L53.123,25.941 L53.12,25.937 L53.118,25.934 L53.116,25.932 L53.116,25.931 L53.113,25.928 L53.1265265,25.9678669 L53.1265265,25.9678669 L53.1402281,26.0059834 L53.1495177,26.0260794 C53.1164495,26.0225052 53.0866,26.0155584 53.0588271,26.0095744 L52.9832411,25.9948959 C52.8616002,25.9746934 52.8482537,25.995271 53.1933483,26.1207486 L53.113,26.091 L52.9487618,26.1766287 C52.9222969,26.1912132 52.8965929,26.2059208 52.8716268,26.2207472 C52.8024264,25.7763571 52.7169466,25.3363255 52.619217,24.9009254 L51.1607774,25.4608594 C51.3823682,25.2490221 51.6626119,24.9748242 52.0103886,24.6279373 L52.3063635,24.3315304 C52.5137158,24.1231038 52.741371,23.8927639 52.9907185,23.6388948 L52.9907185,23.6388948 L53.1079938,23.5176946 C53.1040117,23.5777974 53.1389275,23.5995549 53.2559428,23.4749061 L53.234,23.496 C53.2365338,23.4938275 53.2400244,23.4904854 53.2427631,23.4863244 L53.2484275,23.4711147 C53.2490344,23.4706858 53.2496212,23.4703198 53.2559428,23.4749061 C53.2559428,23.238631 53.1747912,23.3218837 53.1300817,23.4257091 C53.1128149,23.4408931 53.1087666,23.4555443 53.1140586,23.4686469 C52.8811627,23.5718706 52.4794139,23.9098664 52.0577101,24.3094513 L52.0577101,24.3094513 L51.9240508,24.4374813 C51.5124127,24.8359016 51.0967438,25.2751406 50.8108414,25.595591 L48.4819916,26.4896881 L49.027969,28.6244464 C48.8016895,28.4647496 48.0285837,28.3673514 47.7581663,28.8116346 L47.7581663,28.8116346 L47.737,28.851 L47.7536843,28.8248451 C47.8985859,28.6309452 48.2163683,28.8676231 47.816977,28.8719842 L47.7272727,28.8695625 L47.9051015,28.8787497 C48.6410516,28.9109331 48.9737901,28.8483832 49.0643478,28.7646536 L49.1370911,29.0477266 C49.0237417,29.4271334 49.1012206,30.0476639 49.5704525,30.6125121 L49.4203028,30.6692114 L49.53,31.14 L49.4419875,31.1444596 L49.2042778,31.1843067 C46.8799127,31.5773513 47.7329149,31.5407515 48.8227777,31.4170012 L49.0984763,31.3844462 C49.2600147,31.3646498 49.4213794,31.3436098 49.5734808,31.3223847 L50.2146233,34.0626719 L47.2814833,35.1885989 L46.4321171,31.4164679 C46.5751233,31.4185267 46.7044813,31.4199206 46.8210509,31.4207073 L46.8210509,31.4207073 L47.128322,31.4213228 C48.2612083,31.417022 47.5938902,31.3297523 46.7171519,31.2663316 L46.7171519,31.2663316 L46.5035283,31.2516233 L46.5035283,31.2516233 L46.392504,31.244546 L46.392504,31.244546 L45.8092162,28.6602085 C46.6753165,28.8339527 47.9010454,28.2462612 47.7067179,26.0664336 L47.71,26.124 L47.7278832,26.1338589 C47.7386917,26.1380691 47.750622,26.1409405 47.7636872,26.1420528 L47.8063011,26.1396921 L47.7912916,26.1370037 C47.7802324,26.129494 47.7808753,26.1116401 47.7918851,26.1205232 L47.7918851,26.1205232 L47.801,26.132 L47.7718352,26.0843929 C47.9723844,26.0607244 48.1393936,26.0255507 47.819154,26.0267984 L47.7286806,26.0278969 C47.6664381,25.9601473 47.639518,25.9953932 47.6481152,26.0445264 C47.3721987,26.1012749 47.4359535,26.1112323 47.5796065,26.1022528 L47.5796065,26.1022528 L47.4945141,26.1274695 C46.48487,26.4275845 45.8372677,26.7639586 45.4556421,27.0917516 L45.3614956,26.6709204 L44.6956295,26.260465 L47.7274754,25.0967285 C47.6934938,26.8356925 51.9467238,26.0379368 49.8949647,24.2648585 L52.2205746,23.3724055 C49.3693547,13.7988628 40.49989,6.81818182 30,6.81818182 C29.1602761,6.81818182 28.3309804,6.86282974 27.5143571,6.94988117 C27.4798479,6.62602734 27.4071562,6.18526493 27.2831874,5.60588723 C28.1748649,5.50499113 29.0815413,5.45454545 30,5.45454545 C35.6527494,5.45454545 40.8591984,7.36538481 45.008649,10.5763655 C45.0209672,10.821618 45.0457208,11.0993219 45.0852881,11.4135944 L45.0852881,11.4135944 L45.107,11.576 L45.1021586,11.5270127 C45.0291477,10.7449232 45.5546556,11.4944257 45.2274351,11.6247739 L45.1773923,11.638509 L45.1159608,11.6433566 C45.5213188,11.6433566 45.8099987,11.547722 46.0068536,11.392979 C50.8914174,15.5969179 54.1018786,21.6925437 54.5029221,28.5429173 C53.8687503,28.614492 53.498731,28.6712221 53.3189549,28.7155731 C53.2981779,28.7105069 53.2783169,28.7058095 53.2594551,28.7014731 L53.2594551,28.7014731 L53.2544969,28.6773914 C53.224301,28.5769256 53.1646187,28.595413 53.1272629,28.6421043 C53.0479026,28.5919462 52.9983322,28.5676682 53.0727739,28.620065 L53.0727739,28.620065 L53.1126773,28.6474526 L53.1087974,28.6701359 C53.0223978,28.6546105 53.009123,28.658355 53.106158,28.6780289 C53.0851214,28.7277018 53.0937441,28.7824276 53.173134,28.7696212 C53.1392124,28.8640655 53.1060979,29.036654 53.0832611,29.2626509 L50.3286077,30.3211158 C50.1866552,29.5257316 49.9828801,29.0662334 49.781528,28.8477175 L51.9707795,28.008565 C51.9491721,28.2444278 51.9162308,28.474559 51.8181818,28.6888112 C52.2430502,28.380619 52.5719676,28.0519062 52.8002248,27.6894982 L53.0580879,27.5902965 L53.0204707,27.2509073 C53.1575798,26.8922182 53.2082561,26.5007947 53.1688526,26.0664336 L53.171,26.123 L53.1869619,26.1188193 C53.2377768,26.2260647 53.2647221,26.2280559 53.2446135,26.1636537 L53.2305307,26.1260997 L53.2996075,26.1348545 C53.5926117,26.1696167 53.4271737,26.1054169 53.2286119,26.0512761 L53.2286119,26.0512761 L53.2231927,26.0381926 C53.2064184,26.0053991 53.1862245,26.0007309 53.1699313,26.0117287 C53.1535439,25.9851576 53.1344206,25.9564705 53.1123316,25.9260526 L53.126,25.945 L53.125,25.944 Z M21.9465822,22.2138725 C21.938662,21.8895899 21.8112427,22.5924086 21.7400177,23.3727079 L21.7400177,23.3727079 L21.7185983,23.6343746 C21.6892666,24.0418231 21.680292,24.4417346 21.7161677,24.7017229 L21.7161677,24.7017229 L21.7230909,24.7485265 L21.724,24.752 L21.7560007,24.4673312 C21.7860327,24.1892594 21.8118328,23.9404916 21.833599,23.719034 L21.8540278,23.506606 C21.9278579,23.5139818 22.1071522,23.5091379 22.3109689,23.4980616 C22.4016536,23.4968246 22.5066155,23.4948658 22.6272575,23.4920894 L22.6272575,23.4920894 L22.7654152,23.4744371 C22.8768114,23.4597973 22.9628706,23.4473505 23.0253995,23.4374082 C23.1262274,23.4242182 23.1881579,23.4113852 23.1809995,23.4010737 C23.1855141,23.3957787 23.1711856,23.3923005 23.1431137,23.3905815 C23.0629258,23.3800914 22.851285,23.3750034 22.4452073,23.3798094 L22.4452073,23.3798094 L22.506181,23.3795504 C22.6579925,23.3808549 22.3253002,23.4019567 22.4033495,23.3863627 L22.4033495,23.3863627 L22.2893222,23.4016659 C22.1130001,23.4271193 21.9930383,23.4473018 21.9194572,23.4628162 C21.894782,23.4660504 21.8739532,23.4691889 21.8582631,23.4718201 C21.8601202,23.4524549 21.861944,23.4333317 21.8642967,23.4173334 C21.8789663,23.37654 21.8934877,23.3289654 21.9070705,23.2742133 L21.9070705,23.2742133 L21.8728343,23.3175426 C21.9207452,22.8019216 21.9423756,22.4792723 21.9463037,22.3032283 L21.9463037,22.3032283 Z M42.2664772,19.5064138 C40.3206056,19.2062591 40.3197783,19.2067211 39.5454545,19.6391924 C40.4047383,19.7502675 41.2092487,19.7967316 42.2663685,19.5080106 C42.2702219,19.5274403 42.2747285,19.5488997 42.2799483,19.5723659 L42.2799483,19.5723659 L42.2930909,19.6285265 L42.292,19.627 L42.2928801,19.6286861 L42.2950909,19.6385265 C42.2975762,19.6478253 42.2981223,19.6500508 42.2970909,19.6445265 L42.2970909,19.6445265 L42.2882587,19.5692029 C42.2588673,19.3477337 42.2329705,19.3152893 42.2564647,19.4544009 L42.2564647,19.4544009 Z M26.991235,18.1993007 C27.9034787,21.1313686 27.560996,18.2353479 26.991235,18.1993007 Z M30.0520341,17.1138432 C30.0041484,17.3705513 29.9922796,17.5704768 30.0047232,17.7219208 L29.2595983,17.4010389 Z M39.514,14.347 L39.505,14.348 C39.5017435,14.349086 39.499792,14.3492558 39.4978142,14.349421 L39.4310909,14.3535265 L39.389,14.357 L39.410246,14.3560204 L39.410246,14.3560204 L39.4321567,14.3545417 C39.2884245,14.481929 38.9991481,14.7544796 38.5147372,15.2241517 L38.3340524,14.3868783 C38.6905167,14.3903499 39.0984911,14.3792865 39.5454545,14.3459157 L39.514,14.347 Z M9.68190917,11.6917144 L9.682,11.679 L9.682,11.66 L9.683,11.658 L9.683,11.651 L9.6529761,11.8189472 C9.65142184,11.8281348 9.64987628,11.837299 9.64833936,11.8464393 C9.6130289,11.8839382 9.57837022,11.9229881 9.54382217,11.9621379 C9.54407201,11.8810311 9.52461073,11.8127369 9.48919456,11.7592972 C9.49856084,11.743831 9.5074516,11.7290557 9.51588429,11.7149494 L9.51588429,11.7149494 L9.52811342,11.7064345 L9.591,11.655 C9.5735595,11.6652622 9.62177004,11.6163275 9.62313821,11.622299 L9.621,11.626 L9.65802811,11.5739202 C9.70561362,11.4996155 9.69716672,11.4887798 9.66339906,11.5100871 L9.64034566,11.5264779 L9.611,11.549 L9.63498277,11.5025414 C9.68485377,11.3988033 9.6131139,11.4815335 9.53974136,11.5972243 L9.51238446,11.6418536 L9.51238446,11.6418536 L9.49161039,11.6650937 C9.47485853,11.6826769 9.45921038,11.6998106 9.44687859,11.7146711 C9.42141109,11.6922001 9.39125824,11.6746941 9.35557775,11.6618461 C9.33998624,11.6392918 9.33138305,11.6382096 9.32861028,11.6543054 C8.92155,11.5532671 7.98740976,12.1354546 6.92245999,14.0724743 L6.92245999,14.0724743 L6.886,14.137 L6.883,14.143 L6.881,14.146 L6.88,14.148 L6.88,14.149 L6.878,14.152 L6.878,14.153 L6.877,14.154 L6.87609091,14.1565265 L6.87564966,14.1572402 L6.86520096,14.1769664 L6.842,14.22 L6.841,14.221 L6.837,14.229 L6.82988436,14.2436409 L6.81818182,14.2657343 C7.38358274,14.0544211 7.84863489,13.8189453 8.2244927,13.5782103 C4.77331247,18.1464488 2.72727273,23.8342853 2.72727273,30 C2.72727273,32.9463801 3.19449631,35.7836342 4.058895,38.441714 C4.0086516,38.6612687 3.96095745,38.9231895 3.9370217,39.1783217 L3.94,39.148 L3.94,39.149 L3.939,39.157 L3.939,39.161 L3.938,39.165 L3.938,39.173 L3.98992175,38.9855078 C4.00655582,38.9242313 4.02219142,38.8659479 4.03683093,38.8106515 L4.07776362,38.6537181 C4.07636946,38.7907407 4.07549969,38.8981263 4.07506773,38.9790695 L4.07506773,38.9790695 L4.074,39.086 L4.075,39.085 L4.074,39.092 L4.074,39.088 L4.0714589,39.0996304 L4.0714589,39.0996304 L4.06811926,39.1166514 C3.97077703,39.18562 3.89137634,39.3180383 4.06214527,39.267234 C4.06443469,39.2919909 4.06846696,39.3173593 4.07467541,39.3427404 L4.074,39.341 L4.08495854,39.2972119 L4.08495854,39.2972119 L4.09179943,39.2576065 C4.12551644,39.2455212 4.16682753,39.2277572 4.21687447,39.2031018 L4.21687447,39.2031018 L4.19767909,39.2069573 C4.18356621,39.2003827 4.21028742,39.1554963 4.21676567,39.1748956 L4.21676567,39.1748956 L4.216,39.188 L4.21913509,39.1471404 C4.21677603,39.1160392 4.20712912,39.0968789 4.19286082,39.0868275 L4.16832562,39.0782281 L4.14627401,39.0801841 L4.13885817,39.0811682 L4.12086832,39.0862723 C4.1280967,38.9879678 4.10117722,38.9992422 4.0810848,39.0649915 L4.081,39.063 L4.0828334,38.9976182 C4.08466141,38.9232536 4.08673403,38.8284217 4.08910893,38.7176824 L4.09158672,38.6018094 C4.09467844,38.5897751 4.09771625,38.5779084 4.10070075,38.566208 C7.69231472,49.432662 17.9305847,57.2727273 30,57.2727273 C45.0623114,57.2727273 57.2727273,45.0623114 57.2727273,30 C57.2727273,29.5710442 57.2628241,29.1444015 57.2432341,28.7202879 C57.7275694,28.7501526 58.0720459,28.7637522 58.2974642,28.7662094 L58.4286757,28.7662771 C58.9247793,28.7601124 58.4903295,28.6732045 57.5810033,28.6306921 C58.0679292,27.9689223 58.384263,27.7267816 58.5343457,27.6466645 L58.5343457,27.6466645 L58.5550909,27.6355265 L58.5190453,27.6362326 C58.3274775,27.6318887 57.9023229,27.5110041 57.2510868,26.8282077 L57.2510868,26.8282077 L57.147,26.715 L57.1713652,26.7403952 C57.4240304,26.9931129 57.3980384,26.7586155 57.1653998,26.6865761 L57.1080785,26.6731312 L57.2663877,26.697154 C59.3822466,26.9912272 58.3287686,25.705643 57.0045852,26.167732 C56.4637343,22.314098 55.1162703,18.7186101 53.1389909,15.5574217 L53.162282,15.4231011 L53.162282,15.4231011 L53.179,15.252 L53.1911007,15.3156207 C53.2505857,15.6223324 53.3064831,15.7458561 53.2896799,15.1951902 L53.2853294,15.0759223 L53.278,14.935 L53.2799818,14.9746318 C53.2825386,15.1175169 53.2427568,14.7950521 53.2668669,14.8683248 L53.274,14.897 L53.2387728,14.7451698 C53.0505146,13.9683264 53.0480045,14.2688487 53.1005946,14.7118612 L53.1093371,14.7828584 C53.00111,14.5394379 52.7591205,14.3636982 52.3012861,14.2961861 C51.2928099,12.8675575 50.1502207,11.539096 48.8918858,10.3302214 L48.8972252,10.3100856 C48.9054133,10.2804613 48.913399,10.250852 48.9211708,10.2213182 L48.9211708,10.2213182 L48.965144,10.0455063 C49.1896499,9.09824815 49.1614252,8.36086963 48.4818568,9.94453152 C43.6224189,5.46395273 37.1308024,2.72727273 30,2.72727273 L29.957,2.727 L29.9568951,2.71035728 L29.9540909,2.68252647 L29.9549295,2.68096971 L29.9530909,2.66952647 L29.9520909,2.65452647 L29.9520909,2.65252647 L29.9516535,2.63199043 L29.950742,2.61836141 L29.950742,2.61836141 L29.9483206,2.58215933 L29.9468963,2.56086399 L29.9450909,2.54652647 L29.9430909,2.51452647 L29.9420909,2.48852647 L29.94,2.474 L29.9432533,2.65515905 C29.9436397,2.67978817 29.9440342,2.70423832 29.9444367,2.7285091 L30,2.72727273 C26.5401984,2.72727273 23.2308678,3.37151557 20.1854272,4.54658224 C19.9832627,4.35069259 19.6510471,4.09526271 19.1452988,3.77622378 L19.1452988,3.77622378 L19.1949761,3.81317762 C19.3871455,3.98205922 19.2866807,4.25631539 19.1920681,4.31018851 L19.1920681,4.31018851 L19.1800909,4.31452647 L19.1847609,4.32743628 C19.2617958,4.51813411 19.3995206,4.67752985 19.5569172,4.80000746 C19.4213201,4.85440966 19.2863082,4.91170949 19.1518586,4.97006089 L19.0909091,4.97258638 C19.1040631,4.97526381 19.1170956,4.97800694 19.1300148,4.9808091 C18.1783754,5.39365647 17.2569636,5.85930147 16.3673095,6.37375363 C16.3850067,6.32778499 16.4042694,6.20386262 16.4254842,5.97372233 L16.4254842,5.97372233 L16.435,5.855 L16.4332805,5.8704642 C16.4208098,5.94200769 16.4153945,5.6471813 16.4312776,5.76141883 L16.433,5.775 L16.4213632,5.651592 C16.4054611,5.49580163 16.3911304,5.37705693 16.3778242,5.2923616 L16.3680281,5.23517754 C16.3833,5.19624489 16.4017134,5.14345291 16.4237048,5.07415288 L16.42,5.082 L16.412,5.099 C16.4098243,5.08144267 16.4133445,5.05817738 16.4168361,5.04716515 L16.421612,5.04274474 L16.423,5.066 L16.4221812,4.97581529 C16.4129964,4.73968078 16.3645636,4.87324349 16.3328303,5.03837535 L16.3238673,5.08852386 C16.3033724,5.10343473 16.2924314,5.26666469 16.2897004,5.47316347 L16.2891705,5.63450905 L16.2891705,5.63450905 L16.2915933,5.80223197 C16.2979256,6.07742254 16.3156854,6.33858074 16.3423641,6.38962541 C13.8424472,7.83734451 11.5939699,9.67204239 9.67822587,11.8109591 L9.68,11.738 L9.68,11.724 L9.681,11.722 L9.681,11.693 L9.682,11.691 L9.681,11.692 L9.68190917,11.6917144 Z M14.7032719,10.805034 C15.2502407,11.2585627 15.640995,11.5023306 15.9054413,11.5966327 L15.7837318,11.6883014 C15.5740313,11.655136 15.3269637,11.6216666 15.0764639,11.5908683 L14.8217774,11.5605755 C14.4664297,11.5196843 14.1275368,11.486292 13.9038165,11.469053 C14.1342355,11.2683538 14.3683282,11.0723503 14.6060694,10.8806903 Z M7.01212249,11.6104917 C8.54654192,12.0085421 11.9499432,8.602187 6.81818182,11.5332294 L6.829,11.527 L6.92219294,11.4781512 C7.44062079,11.2267176 7.42026422,11.6102702 7.10890243,11.6176543 L7.04282342,11.613816 L6.97809091,11.5995265 Z M27.034325,5.63188303 L27.0293264,5.66791134 C26.969556,6.14034422 27.0189633,6.6214019 27.1068106,6.9978319 C23.1194295,7.493243 19.4456731,9.00268505 16.3519671,11.2595948 C16.2969333,10.9345167 16.0408275,10.4572406 15.6954516,10.052674 C18.9652138,7.70239788 22.8367285,6.13741027 27.034325,5.63188303 Z M40.7777766,2.62334865 C39.2804323,1.64319131 39.0037471,2.73055592 40.7540795,2.71647741 L40.7540795,2.71647741 L40.7940909,2.71452647 L40.7045658,2.71335343 C40.2560523,2.69299902 40.5518368,2.51263765 40.8527834,2.67743225 L40.8527834,2.67743225 L40.906,2.71 Z M32.7272727,2.66890604 C32.0340487,2.2283944 31.0163907,2.24893432 30,2.2676795 C30.6292244,2.52173646 31.3851808,2.6862553 32.7272727,2.66890604 Z M27.229,39.173 L27.218,39.047 L27.2176565,39.0609825 C27.1669981,39.0765397 27.1434919,39.1008296 27.1375193,39.128281 L27.137035,39.1565799 C26.9294267,39.159636 27.0095394,39.17364 27.1497351,39.1846743 C27.1516393,39.1883096 27.1537404,39.1919384 27.1560218,39.1955502 L27.1560218,39.1955502 L27.1213816,39.2020551 C27.1089013,39.2045241 27.0976304,39.2068101 27.0879345,39.2088488 L27.0515809,39.2176019 C27.0438421,39.220776 27.072995,39.2179435 27.1624259,39.2050022 C27.2362609,39.3070918 27.4453131,39.3876868 27.4026126,39.19936 C27.4168386,39.1998093 27.4303805,39.2001524 27.4429933,39.2003746 L27.5055612,39.2001406 C27.553061,39.1982224 27.5494779,39.1909006 27.4419058,39.1750189 L27.393,39.168 C27.4142964,39.1577623 27.4312712,39.1541057 27.4451084,39.1510475 L27.4931575,39.1394413 C27.5062832,39.1350239 27.4576958,39.1428304 27.3892075,39.1560199 C27.3779467,39.1243597 27.3612436,39.0871368 27.3380462,39.0436808 L27.338,39.044 L27.3390702,39.0611664 C27.3297897,39.0717858 27.29586,39.0638229 27.2936609,39.0554244 L27.3041267,39.0475529 L27.3380462,39.0436808 L27.2946048,39.0471441 C27.3910984,38.8341785 27.4146724,38.6842762 27.4033669,38.6037824 L27.4033669,38.6037824 L27.3980909,38.5815265 L27.4045453,38.5380211 C27.475764,37.9503749 27.4048808,37.23471 27.3149,36.8446467 L27.309,36.824 L27.2899786,36.7466794 C27.2815753,36.7169418 27.2731066,36.6902359 27.2646648,36.6669025 L27.239513,36.6073609 C27.2680514,36.6315096 27.3086287,36.6278476 27.3415309,36.5418463 L27.3415309,36.5418463 L27.2861432,36.5061414 C27.205486,36.4651783 27.1929312,36.5194173 27.2112351,36.5648946 C27.108134,36.4719371 27.0446638,37.0866823 27.2298508,39.1783217 L27.218,39.043 L27.305,36.928 L27.229,39.173 Z M16.2408935,28.3441124 C15.0871541,28.7548415 16.111303,27.2596567 16.3636364,28.2965221 L16.363,28.295 L16.3124576,28.0957343 C15.8268654,26.2760886 15.1054506,25.892982 14.533958,26.129202 L14.615781,23.517856 C16.4257471,23.42118 16.5975788,23.3741859 16.1649365,23.3690836 L16.1649365,23.3690836 L15.9982862,23.3689347 C15.6471184,23.3715812 15.1003428,23.3906458 14.6169662,23.4242161 L14.6301828,22.9850783 L17.5321747,21.9288397 L19.457,26.037 L19.3442122,26.0495255 C19.2557445,26.0429441 19.1864443,26.0380449 19.1428374,26.0353743 L19.1080366,26.0334667 L19.0900909,26.0325265 L19.3230268,26.0525088 C19.1431216,26.0747627 19.0508715,26.0979531 19.1095217,26.1189786 C19.0727208,26.1332713 19.088591,26.1464554 19.174853,26.15729 C18.5102562,26.9961222 18.9316445,27.5468944 19.1960877,27.3303418 L19.1960877,27.3303418 L19.2750824,26.1673247 C19.3389963,26.1720798 19.4208483,26.1762677 19.5226322,26.1797759 L20.2088343,27.6411932 L20.263,26.187 L20.3151522,26.1820752 L20.326,26.18 L20.263,26.187 L20.263,26.184 L20.3585279,26.1757261 C20.3535073,26.1766166 20.3474406,26.177588 20.3402404,26.1786447 L20.326,26.18 L20.4699734,26.1658233 L20.5780711,26.1536523 C20.9610674,26.184491 21.2419924,26.2069366 21.4383569,26.2223616 L21.6071831,26.2354974 C21.6544952,26.2391298 21.6930602,26.242033 21.7235268,26.2442578 C21.7226235,26.2670439 21.7219906,26.2915148 21.7216137,26.3173641 L21.7216137,26.3173641 L21.7220082,26.469939 C21.7316577,27.0388186 21.825014,27.906437 21.9039969,26.950663 L21.9039969,26.950663 L21.912,26.83 C21.9067044,26.8663798 21.9006171,26.8396088 21.896209,26.8035429 L21.8932612,26.7755004 C22.2563342,27.0385452 22.6757559,27.0639325 23.1543801,27.0989941 L23.0732533,28.7120327 C22.9854062,28.7248162 22.9014205,28.7425738 22.8215083,28.7645186 C21.3119559,28.3557421 21.7857105,28.5334825 22.4334885,28.7022948 L22.4334885,28.7022948 L22.5655539,28.7359424 C22.630888,28.7521966 22.6967343,28.7679765 22.7610484,28.782233 C21.5587291,29.1547636 21.3644586,30.4823807 23.0158056,29.8155491 L22.9470875,31.1774761 L21.8140025,31.5902519 C21.7485947,31.200411 20.9191117,31.0792997 19.5837134,32.1708121 L17.7802538,28.8186351 C19.9101155,28.4955332 19.0470542,28.4719763 17.9734313,28.5448656 L17.9734313,28.5448656 L17.7537053,28.5609045 L17.643,28.569 L17.1195337,27.5964811 L17.06,28.627 L16.9825146,28.6363576 C16.8472877,28.6301289 16.7153913,28.6260338 16.6083467,28.6251366 L16.5103831,28.6253448 L16.4700909,28.6265265 L16.482,28.597 L16.4719255,28.6196168 C16.4554257,28.6446654 16.4623314,28.592924 16.4728898,28.5742334 L16.4811847,28.5681289 L16.486,28.579 L16.4699663,28.5134099 C16.4237281,28.3705943 16.3687004,28.4014559 16.3240789,28.4931797 L16.3056484,28.5358872 C16.2902154,28.5432491 16.2746952,28.5558458 16.2603933,28.5770335 C16.1532372,28.5638085 15.9574923,28.5541012 15.6459607,28.5505646 C15.8640604,28.4889227 16.102832,28.4052029 16.3636364,28.2965221 L16.358,28.298 Z M53.404,11.392 C53.3450407,11.4172135 53.2906703,11.4483296 53.2430808,11.4795267 L53.2430808,11.4795267 L53.2303524,11.4884553 C53.1747807,11.371842 53.1392118,11.3527038 53.1190516,11.3855028 C53.1046844,11.3703151 53.1013816,11.3875569 53.1052631,11.423826 C53.1003322,11.4466256 53.0974952,11.4755353 53.09646,11.507876 L53.09646,11.507876 L53.095632,11.5522459 C53.0864206,11.5566176 53.0782964,11.5618836 53.0741989,11.568349 C52.8476691,11.5267404 52.3078026,11.5356211 51.8863279,11.7090918 L51.8863279,11.7090918 L51.8200909,11.7375265 C52.4565473,11.7391698 52.8323512,11.7121161 53.0215555,11.6780942 C52.8876837,11.8587687 52.9793263,11.9771538 53.1337307,11.8409625 C53.1572434,11.9218853 53.18885,11.9521346 53.220141,11.8528032 C53.2496652,11.9260676 53.269449,11.9385188 53.2538403,11.800753 C53.4232148,12.0282425 53.8687816,12.4710142 54.3475999,12.9192851 L54.3475999,12.9192851 L54.627466,13.1785465 C54.6741463,13.2213534 54.7206979,13.263832 54.7669011,13.3057925 L54.7669011,13.3057925 L54.9042452,13.4299297 L55.0381792,13.549819 C55.0810272,13.587984 55.1231253,13.6252949 55.1642695,13.6615754 C58.2233658,18.36316 60,23.9741024 60,30 C60,32.2996853 59.7412435,34.5389347 59.251257,36.6902217 C58.6943356,36.9066919 58.3795747,37.3764767 58.9054036,38.053551 C55.3877608,50.7110094 43.7786604,60 30,60 C19.0435841,60 9.45898053,54.1265734 4.22300864,45.3565395 C4.24291189,44.6314177 4.25192357,44.1137558 4.25355592,43.7596648 L4.25355592,43.7596648 L4.25358393,43.5468166 C4.24908779,42.6943153 4.18438903,43.2341723 4.14847702,43.9755158 L4.14847702,43.9755158 L4.1410066,44.1430915 C4.12590626,44.5136621 4.11911487,44.9108361 4.130761,45.1990713 C1.50520344,40.7414746 0,35.5465168 0,30 C0,24.4140342 1.52669073,19.1846462 4.18557695,14.7063312 C3.68196336,17.2888239 3.9547594,18.0081474 4.2578601,14.477527 L4.24685201,14.603594 C9.48804445,5.85563175 19.0601942,0 30,0 C36.6114687,0 42.7234166,2.13870271 47.6817487,5.76201317 C47.656769,5.90986276 47.6332064,6.07215282 47.6117336,6.23792137 L47.6117336,6.23792137 L47.5834786,6.46848141 C47.5761579,6.53179917 47.5692245,6.59489902 47.562749,6.65718809 L47.5447669,6.84103009 C47.4624309,7.74214979 47.4990085,8.3274501 47.8927741,6.59602253 L47.8927741,6.59602253 L47.922,6.46 L47.9077387,6.50918422 C47.8568909,6.65418839 47.925697,6.0486991 47.9402678,6.22293031 L47.94268,6.28361783 L47.942,6.3 L47.9450112,6.15736158 C47.945616,6.0838047 47.9458569,6.01459382 47.9457538,5.94956468 C50.6287506,7.96308136 52.9644262,10.4070623 54.8470429,13.183237 C54.4844254,12.8362541 54.015093,12.3920287 53.4195561,11.8344625 L53.4195561,11.8344625 L53.27,11.695 L53.4179088,11.8218329 C54.1691757,12.4382865 54.0270179,11.7599736 53.3082881,11.653733 L53.234,11.645 L53.2927567,11.6518166 C53.300109,11.6419492 53.3050102,11.6326699 53.3077424,11.6241913 L53.3097141,11.6013701 C53.3421504,11.5407864 53.3748332,11.4696781 53.406801,11.3869022 L53.398,11.406 L53.401,11.398 L53.404,11.392 Z" id="Combined-Shape"></path>
            </g>
        </g>
    </g>
</svg>