<?xml version="1.0" encoding="UTF-8"?>
<svg width="60px" height="60px" viewBox="0 0 60 60" version="1.1" xmlns="http://www.w3.org/2000/svg" xmlns:xlink="http://www.w3.org/1999/xlink">
    <title>FF99FEE1-591A-414C-8BC4-5649CF0CD2F9</title>
    <g id="Page-1" stroke="none" stroke-width="1" fill="none" fill-rule="evenodd" opacity="0.151733398">
        <g id="UiKit_Icons" transform="translate(-420.000000, -3030.000000)" fill="#4C9EEA">
            <g id="Group" transform="translate(420.000000, 3030.000000)">
                <path d="M30,0 C36.6110257,0 42.7225975,2.1384161 47.680752,5.76128484 C47.4881734,6.93404386 47.345546,9.00224005 47.8927741,6.59602253 L47.8927741,6.59602253 L47.934,6.41 L47.9230441,6.45641236 C47.8450465,6.760518 47.9244828,6.03417984 47.9402678,6.22293031 L47.94268,6.28361783 L47.942,6.306 L47.9450112,6.15736158 C47.945616,6.0838047 47.9458569,6.01459382 47.9457539,5.9495654 C50.6284289,7.96284082 52.9638659,10.4064761 54.8463655,13.1822381 C54.4844257,12.8362544 54.0150932,12.3920289 53.4195561,11.8344625 L53.4195561,11.8344625 L53.269,11.693 L53.3193243,11.7378976 C54.1800211,12.4958058 54.056965,11.7644003 53.3082881,11.653733 L53.301,11.652 C53.3007253,11.6409231 53.305475,11.6316553 53.3080975,11.6229968 L53.3099138,11.5988657 L53.3234704,11.5750659 C53.3513685,11.5204666 53.3793484,11.4579866 53.4045154,11.3928157 L53.4045154,11.3928157 C53.3450407,11.4172135 53.2906703,11.4483296 53.2430808,11.4795267 L53.2430808,11.4795267 L53.2303524,11.4884553 C53.1747807,11.371842 53.1392118,11.3527038 53.1189323,11.3853772 C53.1046662,11.3704109 53.1013926,11.3876569 53.1054368,11.4230291 C53.1003987,11.4459502 53.0975073,11.4751573 53.09646,11.507876 L53.09646,11.507876 L53.095632,11.5522459 C53.0864206,11.5566176 53.0782964,11.5618836 53.0741989,11.568349 C52.8476691,11.5267404 52.3078026,11.5356211 51.8863279,11.7090918 L51.8863279,11.7090918 L51.8200909,11.7380909 C52.4565473,11.7391698 52.8323512,11.7121161 53.0215555,11.6780942 C52.8879726,11.8583787 52.9789317,11.9766424 53.1337717,11.8411037 C53.1572802,11.9219205 53.1888681,11.9520768 53.2200386,11.8525488 C53.2496164,11.9260311 53.2694617,11.9386742 53.2540815,11.8010767 C53.3415942,11.9185403 53.5025811,12.0932719 53.7036876,12.2964691 L53.7036876,12.2964691 L53.8208214,12.4135799 C53.8812842,12.4734466 53.9444257,12.5351378 54.0095041,12.5980127 L54.0095041,12.5980127 L54.1420232,12.725151 C54.1644668,12.7465404 54.1870706,12.768014 54.2098072,12.7895478 L54.2098072,12.7895478 L54.3475999,12.9192851 L54.5573766,13.1141138 L54.6973625,13.2424869 L54.835917,13.3683209 C54.9494251,13.4709123 55.0601174,13.5697381 55.1646471,13.6619083 C58.2233658,18.36316 60,23.9741024 60,30 C60,32.2996853 59.7412435,34.5389347 59.251257,36.6902217 C58.6943356,36.9066919 58.3795747,37.3764767 58.9054036,38.053551 C55.3877608,50.7110094 43.7786604,60 30,60 C19.0431689,60 9.45825401,54.1261282 4.22241332,45.3555423 C4.24292295,44.6307821 4.25192457,44.1135384 4.25355592,43.7596648 L4.25355592,43.7596648 L4.25358393,43.5468166 C4.24858821,42.599593 4.16926828,43.3713301 4.1376946,44.2284592 L4.1376946,44.2284592 L4.13205265,44.4005396 C4.12373635,44.6909293 4.12177319,44.9786459 4.13084226,45.2010734 C1.50542883,40.7422524 0,35.5469321 0,30 C0,24.4140342 1.52669073,19.1846462 4.18557695,14.7063312 C3.68196336,17.2888239 3.9547594,18.0081474 4.2578601,14.477527 L4.24685201,14.603594 C9.48804445,5.85563175 19.0601942,0 30,0 Z M41.0447783,50.3847433 C41.3843724,50.5778137 41.7907365,50.7771076 42.2727273,50.979021 L42.216,50.955 L42.1981884,50.9848121 C42.1764827,51.0665035 42.4354636,51.0627731 42.3177455,50.955908 L42.2636526,50.9164422 L42.2718628,50.9241364 C42.273487,50.9282963 42.2685143,50.9304946 42.263556,50.9305961 L42.263556,50.9305961 L42.2610314,50.9181728 L42.2431973,50.8174792 C42.2313978,50.7579148 42.2188112,50.6995886 42.2051889,50.6439937 C42.2556572,50.7474014 42.2979843,50.8238487 42.3314124,50.8754197 C42.2446872,50.8821839 42.2442661,50.9065042 42.3981631,50.9590434 C42.4209466,50.9794996 42.4383603,50.9835862 42.4485406,50.9732844 C42.5095102,50.9917567 42.5879218,51.0131811 42.6861827,51.0378689 L42.6623408,51.0315074 C38.9653952,53.2620939 34.6325701,54.5454545 30,54.5454545 C27.1647682,54.5454545 24.4418118,54.064746 21.9081882,53.180386 C21.9034742,52.9309334 21.8912469,52.5567753 21.8697873,52.0273216 L21.8697873,52.0273216 L21.8650909,51.9290909 L21.8651548,51.9928997 C21.860274,51.9998965 21.8360053,51.6147175 21.8538679,51.7391 L21.853,51.739 L21.8503104,51.7087664 C24.3856147,52.660994 27.1319848,53.1818182 30,53.1818182 C33.968919,53.1818182 37.704881,52.1844104 40.9709062,50.4265744 Z M13.8593906,11.5071127 C14.1415823,11.5519712 14.7141516,11.6294043 15.7028738,11.7504385 C13.8651353,13.1924512 12.2503347,14.906131 10.9193026,16.8310281 C10.6546093,16.8911597 10.3439776,16.9659016 9.98521909,17.056793 L9.98521909,17.056793 L9.801,17.103 L9.8214658,17.0979115 L9.75047525,17.1164675 L9.743,17.118 L9.747,17.117 L9.74025261,17.1191396 L9.72709091,17.1220909 L9.69879413,17.1299763 L9.65903942,17.1403677 L9.62309091,17.1490909 L9.59209091,17.1570909 L9.58509091,17.1590909 L9.56703567,17.1644163 C9.56022058,17.1661977 9.5548253,17.1676079 9.54545455,17.1700573 C9.97913907,17.1497645 10.4012996,17.1002016 10.7787697,17.0384456 C9.67221237,18.6743458 8.76996646,20.459652 8.10751654,22.3574372 C6.34891648,21.4562357 6.63904427,23.5040627 7.50341663,24.3810283 C7.36235762,24.9491656 7.24167015,25.5266117 7.14288796,26.1115022 C6.7217829,26.2423566 6.74991795,26.6362577 7.00148527,27.0780996 C6.88017433,28.0355263 6.81818182,29.0105236 6.81818182,30 C6.81818182,33.2042223 7.46827195,36.256608 8.64375338,39.0324581 C8.48330412,39.0345582 8.32623353,39.0680975 8.18181818,39.1697707 C8.39226532,39.2339229 8.58651748,39.2894686 8.7658444,39.3133409 C11.2524532,44.9765507 15.9383112,49.4546803 21.7422694,51.6678778 C21.7510935,51.8277309 21.7612641,52.0047644 21.77262,52.1844641 L21.77262,52.1844641 L21.7861861,52.3920962 L21.7861861,52.3920962 L21.7982429,52.566192 C21.8135846,52.7820436 21.8296768,52.9874431 21.844763,53.1575329 C12.2971948,49.7957049 5.45454545,40.6969456 5.45454545,30 C5.45454545,22.6797167 8.65904701,16.1078848 13.7417831,11.6107714 Z M12.2727273,51.0507791 C11.3846261,50.8463769 10.7922478,50.6643094 9.54545455,50.9093926 C10.6080041,51.1626519 11.2446942,51.2637562 12.2727273,51.0507791 Z M42.9294979,50.8679814 L42.863048,50.9080722 C42.7207963,50.8922825 42.5841005,50.8806002 42.4785,50.8763312 C42.4897954,50.610103 42.3247059,49.905169 42.2001118,49.7154319 C44.2344872,48.4540835 46.0598361,46.8857822 47.6109157,45.0755442 L47.611702,45.7342657 C47.8071477,45.4329442 47.8932056,45.1324697 47.8177745,44.8324056 C48.8739359,43.5634927 49.7985343,42.1797407 50.568691,40.7026512 L50.660385,40.705181 C51.251688,40.721621 51.7338392,40.7053894 52.112082,40.671101 C50.0763724,44.8786647 46.8761289,48.4175136 42.9294979,50.8679814 Z M25.6762695,32.0045087 L27.2005638,39.0669547 C27.1463287,39.0884743 27.1310874,39.1220177 27.137035,39.1565799 C26.9294267,39.159636 27.0095394,39.17364 27.1502593,39.1856656 L27.1502593,39.1856656 L27.1560218,39.1955502 L27.1213816,39.2020551 C27.1089013,39.2045241 27.0976304,39.2068101 27.0879338,39.2088478 L27.0515624,39.2175764 C27.0437991,39.2207164 27.0728947,39.2178046 27.162192,39.204678 C27.1827174,39.2331812 27.2138057,39.2600306 27.2470419,39.2798299 L28.2343069,43.8468263 L28.2585834,44.0161 C28.2970022,44.4088636 28.2078362,44.7861679 27.9910855,45.1480131 C27.7743348,45.5098582 27.4819007,45.7754573 27.1137832,45.9448104 L26.9513849,46.0114977 L23.8920623,47.1250001 L24.6681254,45.4277645 L24.4480777,44.422254 C24.5697169,44.4022394 24.7531295,44.0157728 24.7475166,43.1118881 L24.746,43.225 L24.7406183,43.3077332 C24.7074077,43.6841032 24.5711329,43.5168043 24.6832393,43.2372916 L24.711192,43.1758357 L24.736,43.13 L24.6754097,43.2312515 C24.4907289,43.5497822 24.3966589,43.8198191 24.3608535,44.0218917 L24.127175,42.9567993 L22.2282851,43.6479387 L22.8371235,47.5089664 L19.5316485,48.7120609 L18.8587412,44.6492911 C18.9304703,44.4938497 19.0069933,44.320074 19.0909091,44.1269387 C18.9590123,44.005915 18.8347293,43.8951719 18.7173979,43.7950036 L17.2719235,35.0634405 L24.4642811,32.4453754 C24.4494047,32.690546 24.4341896,32.9813633 24.4187787,33.3233333 L24.4187787,33.3233333 L24.4120909,33.4620909 L24.4154739,33.4196619 C24.4197749,33.3507259 24.4223928,33.3466753 24.4234347,33.3717552 L24.4234347,33.3717552 L24.4231642,33.4622591 C24.4215864,33.523089 24.4176711,33.5875356 24.4080909,33.5790909 L24.4080909,33.5790909 L24.4275489,33.661251 C24.6148886,34.4225757 24.6844378,33.4401866 24.6831446,32.5230119 L24.6831446,32.5230119 L24.681,32.366 L25.6762695,32.0045087 Z M21.9414851,44.8165463 C22.0538858,43.2066646 21.3494798,47.1933926 21.8873347,45.1230212 L21.8873347,45.1230212 L21.914,45.014 L21.9043344,45.0450384 C21.8915677,45.0714797 21.9218419,44.9048174 21.9309225,44.8986683 L21.9333993,44.9106069 L21.933,44.918 Z M35.489,39.024 L35.49,39.025 L35.493,39.025 L35.495,39.026 L35.499,39.026 L35.5290909,39.0310909 L35.554,39.035 L35.5665832,39.0371946 L35.568,39.037 L35.592,39.041 L37.670934,40.6082153 C37.4193621,40.7024594 37.0598083,40.8572214 36.5603667,41.0878995 L36.3558804,41.1829347 C36.7567605,41.4311545 37.071214,41.6501785 37.3122527,41.8428499 L37.3122527,41.8428499 L37.3250909,41.8530909 L37.3277057,41.8390813 C37.3587393,41.6651287 37.4977434,41.4558264 37.6548842,41.2545293 L37.6548842,41.2545293 L37.7506265,41.1350584 C37.8343241,41.0328526 37.9180677,40.9351647 37.9891317,40.8482692 L39.0128522,41.6214826 L37.213538,42.2758233 C35.7362712,42.3596963 35.3469577,42.5535838 35.4783217,42.7335326 L33.7307334,41.4420702 L32.61289,43.9508784 L28.9206041,45.2947606 L31.6080802,39.2892541 C31.7103002,39.2813045 31.8167206,39.2715114 31.9271426,39.2596831 C32.0343316,39.2616457 32.1358838,39.2629759 32.2283958,39.2635753 L32.2283958,39.2635753 L32.4640898,39.2632274 C32.7812916,39.2593962 32.8626068,39.2397162 32.4205375,39.1952572 C32.5203115,39.1803555 32.6225938,39.163884 32.7272727,39.1457353 L32.7272727,39.1457353 L32.5117373,39.1249957 C32.1750877,39.0938898 31.8754424,39.0724058 31.6109405,39.0587505 L30.4338499,33.587499 L33.3173493,32.537991 L34.5665757,38.2678831 L35.571,39.025 L35.4610909,39.0190909 L35.4746226,39.0224291 L35.4820909,39.0230909 L35.4730909,39.0220909 L35.48,39.023 L35.486,39.024 L35.489,39.024 Z M23.038723,39.3916205 C22.6804686,39.0676487 21.7765024,39.0386835 21.819676,39.8340992 L21.6232562,39.9067905 L21.7243144,40.5234208 C21.6774714,40.5558078 21.6668911,40.5761992 21.7615844,40.5474816 L21.73,40.555 L21.816377,41.0761238 C21.8089719,41.2488886 21.8016175,41.4461085 21.7949594,41.648202 L21.7841027,42.004525 C21.7676362,42.5936324 21.7603918,43.1260927 21.7785994,43.1095177 C21.7821199,43.3218679 21.812729,43.5366337 21.858104,43.1046096 L21.857,43.112 L21.853,43.13 L21.8494729,43.1194355 C21.8486302,43.1099624 21.8483344,43.0972806 21.8487383,43.0879355 L21.852,43.077 L21.855,43.088 L21.8409703,42.9987823 C21.8308343,42.942879 21.8220427,42.9073456 21.8146146,42.889837 L21.8076417,42.8782497 C21.8185299,42.7478538 21.8319876,42.5581193 21.8484004,42.2973713 L21.8484004,42.2973713 L21.855,42.183 L21.8526837,42.2100537 C21.8516541,42.2188779 21.8508978,42.2210692 21.8503716,42.2180501 L21.8497497,42.2097916 L21.8499421,42.1274309 L21.8499421,42.1274309 L21.8503591,42.1045227 L21.8528349,42.0064421 C21.8557756,41.9092055 21.859675,41.8289062 21.8606123,41.8951932 L21.8606123,41.8951932 L21.86,41.95 L21.8620827,41.8830794 C21.8641801,41.6929309 21.865709,41.5253035 21.8667288,41.378398 L21.8875778,41.5083113 L23.6809738,40.8555685 L23.3111584,39.2924444 Z M27.2838751,40.4305746 C27.2105015,40.4059154 27.1995031,40.4613416 27.2171022,40.5047246 C27.0840967,40.6097977 26.6983401,41.274258 25.9090909,42.965204 L25.9090909,42.965204 L26.052027,43.0146395 C26.9936511,43.3209661 26.7156839,42.812862 26.3460526,42.7333752 L26.3460526,42.7333752 L26.2990909,42.7250909 L26.314941,42.70715 C26.4237125,42.5679919 26.5362463,42.3848676 26.6442742,42.183397 L26.6442742,42.183397 L26.7243211,42.0292544 C26.7374784,42.0031241 26.750533,41.9768072 26.7634687,41.9503537 L26.7634687,41.9503537 L26.8580059,41.7501746 L26.8580059,41.7501746 L26.8762453,41.7099371 L26.9465724,41.5495661 L27.0121093,41.3919228 C27.1637032,41.0171076 27.2667822,40.6870077 27.2713887,40.5542117 C27.2933681,40.5510999 27.317289,40.52449 27.3361097,40.4559791 L27.3361097,40.4559791 Z M35.8824643,28.2498201 C35.8888232,28.2550327 35.8952345,28.2602108 35.901697,28.2653535 L38.0508048,38.2123888 L36.1167503,38.9163271 L35.0680623,38.0045128 L33.6904847,31.5937399 L29.7520464,33.0272142 L31.0530964,39.0402093 C30.521639,39.0339266 30.2047409,39.0685603 30.0724858,39.1152836 L30.0724858,39.1152836 L30.0632013,39.0982918 C29.7986997,38.7079094 29.834878,39.727775 30.1163325,39.1887398 L30.0894656,39.234259 C30.2453997,39.2874142 30.5999807,39.3274364 31.1125203,39.3150474 L31.1556068,39.5093742 L30.5034012,40.9998411 L28.5693467,41.7037794 L26.4017353,31.7000387 L26.9812071,31.4890461 C27.0652483,31.502135 27.145608,31.5097935 27.2183778,31.5099832 L27.2183778,31.5099832 L27.2610909,31.5080909 L27.255,31.509 L27.2727273,31.5086252 C27.2116548,31.4870974 27.1529961,31.4665894 27.0966817,31.447065 L29.931466,30.4135483 C29.9126668,30.6767358 29.8925749,30.9748893 29.8712121,31.3111888 L29.871,31.308 L29.8729787,31.3048028 L29.8770909,31.2870909 L29.8840909,31.2610909 L29.8879088,31.247835 C29.9535387,30.986893 30.0053,30.6378761 30.0437488,30.2817094 L30.032,30.378 L32.0101371,29.6592818 C32.3401334,29.8170171 32.6036057,29.9424309 32.693773,29.984665 L32.7201891,29.9969313 L32.7071388,29.9897872 C32.645089,29.9592058 32.4353031,29.857829 32.0183926,29.657371 Z M41.859804,28.6767134 L41.8486783,28.6244003 L41.7259603,28.669471 C41.573962,28.6617236 41.4005196,28.6543357 41.2193623,28.6477501 L41.0410684,28.6416086 C40.9511722,28.6386797 40.8605037,28.6359747 40.7706455,28.6335449 L40.5924781,28.629067 C40.3869706,28.624306 40.1916181,28.6212276 40.0265239,28.6204803 L39.8628684,28.6205958 C39.8036258,28.6210121 39.7509818,28.6218804 39.7076474,28.6236041 C39.7287648,28.6109865 39.7516841,28.5966654 39.7762482,28.5807542 L39.7762482,28.5807542 L39.8637177,28.5221804 C40.158526,28.3191351 40.6162174,27.9538813 41.0538276,27.5582883 L41.0538276,27.5582883 L41.1911394,27.4325095 C41.6934412,26.9661156 42.1423971,26.4774045 42.2494414,26.1741861 C42.2720746,26.1458657 42.2776758,26.123422 42.2678094,26.1065847 C42.2704164,26.0926625 42.2720686,26.0792695 42.2727273,26.0664336 L42.2727273,26.0664336 L42.2484018,26.0875071 C42.2037451,26.0623091 42.1000762,26.0602814 41.9580318,26.0783605 L44.6651684,25.0931148 L45.1598628,27.4139255 C44.8511737,27.8681669 45.0226573,28.2742486 45.3920499,28.5004191 L45.9723382,31.2213 C45.0303442,31.1759125 44.3605186,31.1932082 45.9795776,31.4086056 L45.9795776,31.4086056 L46.012,31.409 L47.0337072,36.1959632 L47.5963412,35.9911812 L47.6198733,35.9427206 C47.6406359,36.1535406 47.6718592,36.3582535 47.7062632,36.4687373 C47.6350714,36.5619107 47.585804,36.7445865 47.7857515,36.6809253 L47.7857515,36.6809253 L47.8000532,36.6020806 C47.935623,36.6243299 48.2462052,36.6412598 48.6090164,36.6513234 L48.8941125,38.024998 L44.2172171,39.7272487 L44.1291623,39.3196982 C44.4211475,39.3052601 44.7065218,39.2668655 45,39.1987895 L44.965,39.205 L44.979547,39.2188342 C45.0133213,39.234089 45.0751735,39.182431 45.011881,39.1495415 L44.9690966,39.1350575 L44.9792024,39.1410158 C44.9804823,39.1454446 44.9729884,39.1495994 44.9695675,39.1463578 L44.9695675,39.1463578 L44.969,39.136 L44.9616897,39.1691973 L44.9616897,39.1691973 L44.9640006,39.193316 C44.6763501,39.1492713 44.3847492,39.0976262 44.074292,39.0644502 L43.2728492,35.382013 L42.0069226,35.8427726 L41.1647287,33.9665155 L41.6659732,37.1831533 C41.2275286,37.6486896 40.8816762,38.1065085 40.7125969,38.9741731 C40.3752281,38.9953506 40.0526116,39.0500385 39.8274601,39.1529185 L39.8274601,39.1529185 L39.7910909,39.1700909 L39.8208577,39.1654325 C40.0306457,39.1437569 40.1485773,39.3930271 39.5454545,39.3930271 L39.5454545,39.3930271 L39.7984768,39.3924094 C40.118264,39.3908141 40.40146,39.3861754 40.6497833,39.3779037 C40.6107249,39.7114082 40.5928732,40.0977449 40.5993929,40.5526398 L40.5993929,40.5526398 L40.6030909,40.7490909 L40.6098784,40.7353519 C40.7782213,40.330672 40.9786448,39.8484379 41.1807739,39.3577846 C41.5547404,39.3376039 41.8187601,39.3101229 41.9933995,39.2789921 L42.1776687,40.4695836 L40.46,41.094 L40.4645644,41.0846413 L40.4870909,41.0280909 L40.4150038,40.9817885 C39.712577,40.5628238 39.3322377,40.9304625 39.6708023,41.3813949 L39.1535107,41.5702871 L37.029,28.743 L37.0734048,28.7461888 C37.4176834,28.7653709 37.7194976,28.7821482 37.9820298,28.79639 L38.1716133,28.806594 C38.0690834,29.0307267 37.9741655,29.5319165 38.1166728,29.9318908 L38.1166728,29.9318908 L38.1400909,29.9920909 L38.143,29.999 L38.184096,29.8143377 C38.2836466,29.3411852 38.3197352,29.0417959 38.3190997,28.8726665 L38.3171922,28.8152639 C39.1384606,28.8606705 39.4860354,28.879316 39.5439426,28.8814702 C39.5124932,28.8786879 38.994989,28.8488238 38.4192208,28.816492 L38.4192208,28.816492 L38.3164485,28.8107294 C38.3131385,28.7550642 38.3039497,28.7206898 38.2912402,28.7030908 L38.2912402,28.7030908 L38.3078505,28.6938633 L38.2507529,28.6448421 C38.0308944,28.4886363 37.9757663,28.8440304 38.1966121,28.7576868 C38.1890868,28.7706879 38.1815017,28.7853561 38.1745491,28.8028017 C37.7272682,28.7778668 37.281028,28.7535111 37.0283201,28.74081 L37.0201679,28.6875837 C37.627892,28.7116436 38.1808808,28.3848882 38.181817,27.4530491 L40.1361521,26.740731 C39.8608726,26.9138147 39.6457635,27.1113812 39.56369,27.3226143 L39.56369,27.3226143 L39.5470909,27.3700909 C40.7223116,26.9547233 41.4478727,26.6478847 41.8512121,26.4381722 C40.9670692,27.2215828 40.3824017,27.7646102 40.0230654,28.120693 L39.8729477,28.2719594 C39.693404,28.4564678 39.594873,28.5732941 39.5600759,28.6348917 L39.5600759,28.6348917 L39.5488345,28.637432 C39.5440323,28.6398107 39.5442753,28.6424617 39.5515936,28.6447718 C39.4811659,28.6518013 39.4052688,28.7879836 39.612993,28.7080831 L39.612993,28.7080831 L39.6014934,28.7066625 C39.5956788,28.7018004 39.5933756,28.6905885 39.59343,28.6819104 C39.5961752,28.6809382 39.5990312,28.6798654 39.6019962,28.6786933 L39.6019962,28.6786933 L39.608,28.696 L39.603989,28.6778972 C39.6085893,28.6760405 39.6134428,28.6739529 39.618333,28.6715716 L39.632898,28.6634839 C39.7421266,28.6799878 39.9596109,28.7018608 40.3183756,28.7300907 L40.3183756,28.7300907 L40.276,28.733 L40.3200579,28.7303107 C40.3463618,28.7323856 40.3734231,28.7344951 40.4012547,28.7366394 L40.4870733,28.7431777 L40.6510909,28.7550909 L40.5727717,28.7492615 C40.3674951,28.7327563 40.350366,28.7247907 40.421455,28.7221789 L40.421455,28.7221789 L40.584805,28.7219229 C40.6051411,28.7222247 40.6263294,28.7226114 40.6480276,28.7230722 L40.6480276,28.7230722 L40.7815965,28.7266374 C41.0947521,28.7366212 41.3736358,28.7568323 40.6787806,28.7573193 L40.8693458,28.7570442 C41.1132092,28.7564893 41.3203344,28.7551891 41.4944313,28.7532633 L40.4069286,29.1491543 L40.9172081,32.5205679 L42.2182993,32.0470094 L42.8694318,33.5077426 L42.3723814,31.1312668 C42.8371077,31.9655445 44.6910793,29.6799807 42.8097974,28.7444955 L42.8097974,28.7444955 L42.706,28.696 C42.7168335,28.7005611 42.7160081,28.700205 42.7102713,28.6976162 L42.6980909,28.6920909 C42.3787088,29.6098363 42.264951,30.2445629 42.2731366,30.6585717 L41.8759769,28.7469023 C42.4321346,28.7332968 42.3425844,28.7083894 41.9814761,28.684244 L41.859804,28.6767134 L41.859804,28.6767134 Z M53.281614,28.814176 C53.4031254,28.8337756 53.6253712,28.8442915 53.8910611,28.8471381 L53.8910611,28.8471381 L54.1937507,28.8472834 C54.2234366,28.8470254 54.2533612,28.8466922 54.2834628,28.8462853 L54.4657026,28.8429722 C54.4833094,28.8425716 54.500934,28.8421475 54.5185646,28.8417002 C54.53643,29.2251623 54.5454545,29.6115273 54.5454545,30 C54.5454545,33.6762518 53.7372613,37.1637399 52.288857,40.2944823 C51.8742764,40.3394854 51.3199474,40.4454734 50.6378363,40.6437119 L50.6378363,40.6437119 L50.5927408,40.6563987 C52.030107,37.8844284 52.9242067,34.7853914 53.1340499,31.500278 C53.1791396,31.4977812 53.1949391,31.4856291 53.1699832,31.4612567 L53.1699832,31.4612567 L53.1818182,31.4607268 C53.1670878,31.4498227 53.1523951,31.4391746 53.1377193,31.4287846 C53.1448251,31.3249936 53.1505391,31.2193609 53.1555436,31.1135425 L53.1692436,31.1973471 L53.172,31.208 L53.1694651,31.1846988 C53.1518553,31.0485382 53.1949468,31.1278506 53.1942702,31.2596304 L53.193,31.284 L53.2122895,31.0849181 C53.3212665,29.8481156 53.3266897,29.1630059 53.2895841,28.8680195 Z M34.4981573,39.032622 C32.7945629,39.7466581 37.1449988,38.9593075 34.6771373,39.0266765 L34.6771373,39.0266765 L34.5940909,39.0290909 L34.6080909,39.0280909 L34.5931359,39.0289765 L34.5400909,39.0300909 L34.5502233,39.0306885 C34.5400613,39.0310751 34.530873,39.0314232 34.5220909,39.0310909 L34.5220909,39.0310909 L34.5090909,39.0320909 L34.5150909,39.0310909 Z M45.0581499,38.3200107 C44.7139181,36.5777299 45.0844162,40.5602508 45.0881689,38.6426883 L45.0881689,38.6426883 L45.087,38.501 L45.0868136,38.5320619 C45.0811264,38.631109 45.0510415,38.3191639 45.0756864,38.4166849 L45.086,38.469 Z M55.9690478,39.1783217 C59.9752838,35.76794 58.6333013,36.2811786 57.2960748,37.3978223 L57.2960748,37.3978223 L57.155563,37.517449 C57.0388698,37.618756 56.9236584,37.7238097 56.813542,37.8303688 L56.813542,37.8303688 L56.6840791,37.958819 C56.2622297,38.3884391 55.9450232,38.827805 55.9636985,39.1334895 L55.9636985,39.1334895 L55.9670909,39.1710909 Z M41.7774688,37.8968657 L41.9551193,39.0353626 C41.7906191,39.0045795 41.5751925,38.9810852 41.3404859,38.97057 C41.4940195,38.5967942 41.6441227,38.2286827 41.7774688,37.8968657 Z M23.731791,36.4244028 C24.8893401,35.9583043 25.0644148,34.4796082 22.5641287,35.7449502 L22.5432978,35.6509841 L21.0663834,36.188537 L21.2955404,37.8028567 L22.8779486,37.2269072 L22.7674804,36.7097649 C23.2277728,36.6275995 23.8182287,36.4987872 24.4535156,36.3185066 L24.4535156,36.3185066 L24.2293163,36.3505864 C24.0836228,36.3716533 23.9454349,36.3920789 23.8145164,36.4118499 L23.8145164,36.4118499 Z M32.776723,35.7624138 C32.5009528,33.8321508 32.7732132,38.080071 32.8002993,35.9327086 L32.799,35.961 L32.7985068,35.9779944 C32.7924128,36.038655 32.7748109,35.8103306 32.7850361,35.8402867 L32.79,35.865 Z M48.2080099,34.7175788 L48.5729489,36.4828838 C48.1612528,36.5066049 47.9203532,36.5283186 47.8080826,36.5465041 C47.8119812,36.5057088 47.8110416,36.4760806 47.8063584,36.4597695 C47.8216494,36.39454 47.8361965,36.293445 47.849337,36.1484646 L47.849337,36.1484646 L47.857,36.037 L47.8549513,36.0596635 C47.8447812,36.1149287 47.8324927,36.0204042 47.8342336,35.961023 L47.837,35.932 L47.8469271,35.9505402 L47.8590909,36.0010909 L47.8233849,35.8343333 C47.8055593,35.7543672 47.7889493,35.6837565 47.7734958,35.6217863 L48.2080099,34.7175788 Z M19.2840857,32.6181165 C23.0704682,32.7508262 22.2413974,29.719547 19.2426435,32.4665939 L19.2426435,32.4665939 L19.094,32.604 L19.1752062,32.5323778 C19.8901861,31.9214481 20.1886448,32.6215809 19.2095948,32.6130474 L19.0909091,32.6088029 Z M30.1244104,28.7507693 C30.3462868,28.8599852 30.759586,29.0594983 31.1925463,29.2675009 L31.098,29.222 L30.1030769,29.5835671 C30.1145881,29.4023116 30.1221879,29.2352063 30.1259689,29.0956962 L30.1285837,28.9550368 L30.1284653,28.857363 C30.1278997,28.8143571 30.1265911,28.7785802 30.1244104,28.7507693 Z M30.1796528,28.7749754 L30.1240167,28.7482915 L30.1220278,28.7247541 C30.1161354,28.6765171 30.1064157,28.6745182 30.0931533,28.7334889 C30.085549,28.7298418 30.0782162,28.7263249 30.0712326,28.7229754 L30.0712326,28.7229754 L30.0580909,28.7160909 L30.0520909,28.7130909 L30.0424253,28.709159 C30.0337831,28.7050141 30.0261885,28.7013716 30.0199032,28.6983571 L30.023,28.7 L30.0404659,28.7092032 L30.0404659,28.7092032 L30.0924628,28.7350989 C30.080499,28.7879975 30.065625,28.8881527 30.047745,29.0438142 L30.047,29.042 L30.0325473,28.9387594 C29.9278684,28.2605995 29.9083001,29.1205089 29.9356574,29.6461757 L27.361267,30.5839364 C27.3746731,30.5277472 27.3886418,30.46788 27.40319,30.4041932 L27.40319,30.4041932 L27.439,30.244 L27.4321811,30.2706122 C27.4011332,30.3813503 27.4358169,30.0802856 27.4446203,30.1202563 L27.4465294,30.1527018 L27.446,30.158 L27.4527659,29.9875925 C27.5140428,27.9399732 27.3283095,28.6870666 27.1976224,29.6906023 L27.1859018,29.7824687 L27.1598948,30.0010133 L27.1598948,30.0010133 L27.1391607,30.193229 C27.1216601,30.3638749 27.1070882,30.5300565 27.0968617,30.6798684 L25.924898,31.1051674 C25.9173593,31.1059429 25.912609,31.107696 25.9104516,31.1103248 L24.6505931,31.5694765 C24.6464175,31.5218427 24.6418853,31.4796113 24.6370232,31.4438076 L24.6261089,31.3772974 C24.6005259,31.2517954 24.567752,31.2918708 24.5307464,31.6115447 L18.3835161,33.8504129 L17.305,28.863 L17.4551095,28.8668838 L17.4157742,28.8650896 C17.3091975,28.854822 17.7779189,28.8105547 17.6022751,28.843476 L17.6022751,28.843476 L17.5440909,28.8530909 L17.6900024,28.8322368 C19.9339886,28.4962044 19.0619281,28.4709665 17.9734313,28.5448656 L17.9734313,28.5448656 L17.7537053,28.5609045 C17.5825271,28.5742607 17.4107933,28.5896594 17.2494408,28.6062536 L17.1602725,28.191908 L21.7233164,26.5303565 C21.7381412,27.0970245 21.827764,27.8731595 21.9039969,26.950663 L21.9039969,26.950663 L21.9140909,26.8120909 L21.9116659,26.8359976 C21.9054021,26.8741732 21.8974076,26.8220589 21.8932612,26.7755004 C22.5733588,27.2682282 23.4511714,26.9270709 24.5454545,27.3776224 L24.325,27.298 L24.3191719,27.3858581 C24.3171601,27.4154245 24.3152535,27.4449853 24.3134554,27.4744804 L24.303995,27.6501811 C24.3020081,27.6928158 24.30027,27.7350483 24.298791,27.7766873 L23.5233129,28.0587413 L23.6620377,28.7030419 C23.3469813,28.6693015 23.0640868,28.6972691 22.8194444,28.7639598 C22.4241171,28.6569197 22.165081,28.5901826 22.0097227,28.5530153 L22.0097227,28.5530153 L21.8748932,28.5226968 C21.7924323,28.5062667 21.805312,28.5164545 21.8786565,28.5417824 L21.8786565,28.5417824 L21.9444571,28.5634377 C22.1211455,28.6195135 22.4549572,28.7128484 22.7610484,28.782233 C21.3913506,29.2066248 21.3299049,30.8705336 23.8150379,29.4131377 L23.8709552,29.6703579 L27.3983358,28.3858571 C27.3274584,28.4965537 27.2829139,28.5987519 27.2727273,28.6888112 L27.28,28.652 L27.2834757,28.6365944 C27.1781022,28.5520802 27.1801059,28.8164707 27.2920802,28.7457072 L27.3392305,28.7021245 L27.3273499,28.7091786 C27.3223593,28.7072458 27.3230355,28.6954205 27.3282192,28.6939747 L27.3282192,28.6939747 L27.337,28.7 L27.3282711,28.687572 C28.4089838,28.6568204 28.8767391,28.2499729 29.1559771,27.7465515 L37.4093368,24.74279 L37.3911521,24.662245 C37.5580845,24.5721484 37.7624386,24.4124294 38.0054386,24.166039 C38.0306774,24.3025865 38.0729483,24.4187481 38.1387393,24.5171851 C38.1358865,24.5794092 38.1339806,24.6330385 38.1333314,24.6735703 L38.1338007,24.7358362 C38.1365174,24.7849926 38.1472014,24.746496 38.169789,24.5631431 C38.2267629,24.6373429 38.2983094,24.7008725 38.3870469,24.7552448 C38.3999909,24.3937397 38.3421261,24.1436536 38.2398403,23.9146748 C38.6020955,23.5057775 39.0362791,22.9274628 39.5454545,22.1370581 L39.436,22.303 L39.3552996,22.4223279 C38.1979042,24.0933772 38.5560194,22.2801759 39.4102567,22.1440699 L39.4769286,22.1369951 L39.5454545,22.1370581 C38.3693146,22.0725516 37.5460077,22.7636863 37.1300111,23.4518907 L37.0616945,23.1311733 L24.6857088,27.6368272 C24.7084115,27.520028 24.732245,27.392091 24.757246,27.2523385 L24.757246,27.2523385 L24.788,27.073 L24.781841,27.1058655 C24.7182176,27.4088893 24.7426927,26.8149463 24.7797179,26.9118359 L24.789192,26.9513695 L24.791,26.961 L24.7789644,26.8514481 C24.6149456,25.5084032 24.4424927,26.1175043 24.3542375,26.9804852 L24.3451079,27.0738415 C23.5042284,25.8270967 23.1989714,25.812269 21.9646191,26.62024 L21.9646191,26.62024 L21.8950909,26.6660909 L21.8891064,26.6284821 C21.8805563,26.573797 21.872385,26.523693 21.8645768,26.4779734 L22.9726135,26.0762879 C23.1733785,26.0455164 23.2142841,26.0232908 23.1597923,26.0084999 L40.4382468,19.72038 C40.9971032,19.7418698 41.5782123,19.6959601 42.2663685,19.5080106 C42.2702219,19.5274403 42.2747285,19.5488997 42.2799483,19.5723659 L42.2799483,19.5723659 L42.2930909,19.6280909 L42.292,19.627 L42.2928801,19.6286861 L42.294,19.634 L42.295,19.638 L42.296,19.639 L42.2882587,19.5692029 C42.2625412,19.3754173 42.2394993,19.3263539 42.2498799,19.4103098 L42.2564647,19.4544009 L42.2664772,19.5064138 C41.9146478,19.4521434 41.6264051,19.4077006 41.3856798,19.3738622 L42.5842983,18.9383194 L43.8075418,24.5968243 L38.0819711,26.6814717 C38.0375423,26.4923852 37.9773791,26.2876772 37.8996933,26.0664336 L37.903,26.079 L37.9183553,26.1353418 C38.0439894,26.8138852 36.1439434,26.4648732 37.587547,26.1291441 L37.732,26.097 L37.6893081,26.1054438 C35.8733892,26.4615467 35.3593909,27.0860309 35.4684335,27.6317986 L32.864,28.579 L32.8086004,28.5354882 C32.828508,28.4759298 32.8244285,28.4727746 32.8070994,28.5003027 L32.7917861,28.5262999 C32.668295,28.4507904 32.6075527,28.4950262 32.5889577,28.5746253 C32.5140574,28.5727895 32.4781486,28.6027582 32.5560346,28.6890139 L32.5560346,28.6890139 L32.558,28.691 L31.1070303,29.2197023 C30.9733214,29.155544 30.8299999,29.0867902 30.6765915,29.0132148 L30.4564344,28.9076372 L30.3370909,28.8500909 L30.3350909,28.8490909 L30.3160909,28.8400909 L30.3027386,28.8340092 L30.293,28.829 L30.291,28.828 L30.276,28.821 L30.2815348,28.8238396 L30.27,28.818 L30.261,28.814 L30.264,28.815 L30.25,28.808 L30.241,28.804 L30.238,28.803 L30.234,28.801 L30.237,28.802 L30.1796528,28.7749754 Z M53.186,26.117 L53.19,26.119 L53.187,26.118 L53.2100353,26.1634381 C53.2454905,26.2251105 53.2615086,26.2173954 53.2444547,26.1631468 L53.2301446,26.1251964 L53.2996075,26.1348545 C53.5926117,26.1696167 53.4271737,26.1054169 53.2286119,26.0512761 L53.2286119,26.0512761 L53.2231927,26.0381926 C53.2064184,26.0053991 53.1862245,26.0007309 53.1702421,26.0122329 L53.1702421,26.0122329 L53.1528541,25.9848201 L53.1260909,25.9450909 C53.1207553,25.9376666 53.1180477,25.9339335 53.1123316,25.9260526 L53.113,25.928 L53.1265265,25.9678669 L53.1265265,25.9678669 L53.1402281,26.0059834 L53.1495177,26.0260794 C53.1164495,26.0225052 53.0866,26.0155584 53.0588271,26.0095744 L52.9832411,25.9948959 C52.8616002,25.9746934 52.8482537,25.995271 53.1933483,26.1207486 L53.114,26.092 L52.9496251,26.1761531 C52.9234872,26.1905458 52.8980908,26.2050585 52.8734138,26.219687 C52.7624989,25.5328355 52.6194273,24.8551298 52.4474899,24.1890279 C52.6158057,24.0197322 52.796695,23.8364367 52.9907185,23.6388948 L52.9907185,23.6388948 L53.107929,23.5187271 C53.1050453,23.5674138 53.1282332,23.5901488 53.2009737,23.5281984 L53.2009737,23.5281984 L53.233,23.496 C53.2365338,23.4938275 53.2400244,23.4904854 53.2427631,23.4863244 L53.2484275,23.4711147 C53.2526753,23.4681123 53.2559428,23.4681947 53.2559428,23.4749061 L53.2559428,23.4749061 L53.2522782,23.3998691 C53.2360575,23.2605132 53.169894,23.3343538 53.1300817,23.4257091 C53.1128149,23.4408931 53.1087666,23.4555443 53.1130184,23.468173 L53.1130184,23.468173 L53.0759041,23.4868711 C52.9073507,23.5727158 52.6657558,23.7609251 52.3966118,23.9985868 C49.7522867,14.1041145 40.7270037,6.81818182 30,6.81818182 C29.1602761,6.81818182 28.3309804,6.86282974 27.5143571,6.94988117 C27.4798479,6.62602734 27.4071562,6.18526493 27.2831874,5.60588723 C28.1748649,5.50499113 29.0815413,5.45454545 30,5.45454545 C35.6527494,5.45454545 40.8591984,7.36538481 45.008649,10.5763655 C45.0209672,10.821618 45.0457208,11.0993219 45.0852881,11.4135944 L45.0852881,11.4135944 L45.107,11.576 L45.1021586,11.5270127 C45.0291477,10.7449232 45.5546556,11.4944257 45.2274351,11.6247739 L45.1773923,11.638509 L45.1159608,11.6433566 C45.5213188,11.6433566 45.8099987,11.547722 46.0068536,11.392979 C50.8914174,15.5969179 54.1018786,21.6925437 54.5029221,28.5429173 C53.8664582,28.6147517 53.4961764,28.671557 53.3168802,28.7150677 C53.2968549,28.7101941 53.2776882,28.7056649 53.2594551,28.7014731 L53.2594551,28.7014731 L53.2544969,28.6773914 C53.2241242,28.5763375 53.1639189,28.5956336 53.1272629,28.6421043 L53.1418597,28.6274754 C53.1148217,28.1644044 53.0741911,27.7049838 53.020361,27.2496066 C53.1576744,26.8914865 53.2082193,26.5003887 53.1688526,26.0664336 L53.171,26.123 L53.185,26.117 L53.186,26.118 L53.186,26.117 Z M21.724,24.753 L21.724,24.752 L21.7559735,24.4675817 C21.7859824,24.1897273 21.8117735,23.9410551 21.8335635,23.7193728 L21.8540278,23.506606 C21.870797,23.5082813 21.8930071,23.5093262 21.9197088,23.5098083 L21.9197088,23.5098083 L22.0369423,23.5091576 C22.1129359,23.5074828 22.2034792,23.5037093 22.3003064,23.4982046 C22.3473919,23.4975841 22.3984084,23.4967652 22.4535597,23.4957339 L22.4535597,23.4957339 L22.504,23.494 L22.5139881,23.5350377 L22.6593119,23.4833228 C22.6699103,23.4837454 22.672265,23.4849375 22.6604665,23.4872391 L22.6604665,23.4872391 L22.7654152,23.4744371 C22.8623299,23.4617005 22.940067,23.4506237 22.9984332,23.4408312 C23.1135269,23.4266369 23.1868534,23.4126416 23.1809995,23.4010737 C23.1855141,23.3957787 23.1711856,23.3923005 23.1431137,23.3905815 C23.1061039,23.3857399 23.0410923,23.3820491 22.9418865,23.3799506 L33.0319418,19.7072659 C33.5658427,19.8072039 34.5499061,19.5824557 33.8460903,19.4114041 L37.2537579,18.1710832 L37.2537579,18.1710832 L37.330322,18.3575553 C37.6073564,19.0121063 37.8478312,19.3618779 38.0014127,19.4716072 C36.9764066,19.5631674 36.0898197,19.6807539 37.71341,19.6357003 L37.71341,19.6357003 L37.9600105,19.6074062 L38.1243656,19.5882827 C38.1296833,19.6049357 38.1437981,19.6133189 38.1603818,19.6120688 L38.182,19.603 L38.226,19.445 L38.2191248,19.4428223 L38.2195328,19.4294859 L38.234,19.41 L38.2093629,19.4329043 L38.2093629,19.4329043 L38.1864054,19.4558062 L38.165311,19.4579646 C38.2326426,19.2956015 38.1003876,18.7677347 37.650281,18.0272736 L38.1015202,17.8612824 C38.142458,17.9740148 38.2105775,18.0866876 38.3106061,18.1993007 C38.3105332,18.0612449 38.3104603,17.9233227 38.3103801,17.7854497 L39.3597738,17.4024409 C39.3577606,17.464709 39.35645,17.5308395 39.3558048,17.5997886 L39.3558048,17.5997886 L39.3558381,17.8152697 C39.3610185,18.3972906 39.4054858,19.090034 39.4736394,19.3754799 C39.3027787,19.3731366 38.8500069,19.4014917 38.3657145,19.4406272 L38.3657145,19.4406272 L38.212,19.578 L38.4045475,19.5550106 L38.4045475,19.5550106 L38.7402728,19.5137042 C39.0210118,19.4782877 39.2184921,19.4507589 39.347217,19.4299929 L21.451,25.942 L21.381516,25.9438143 C21.2240741,25.9443495 21.0353268,25.9483852 20.8346429,25.9550965 L20.6306974,25.9626691 L20.4065936,25.9726333 C20.3387112,25.9759059 20.2709873,25.9794028 20.2040952,25.9830961 L20.141,25.986 L20.141,25.987 L20.208,26.172 L20.2352275,26.1708908 L20.2352275,26.1708908 L20.285663,26.1686257 C20.3264534,26.1696295 20.3434753,26.1728843 20.2993853,26.1794966 L20.2147536,26.1891138 L20.3669833,26.1740975 C20.349245,26.1778716 20.3088004,26.1834318 20.2360554,26.1912771 L20.263,26.188 L20.5780711,26.1536523 C20.6642068,26.1605879 20.7451798,26.167099 20.8211892,26.1732012 L19.235,26.749 L19.2750824,26.1673247 C19.4273216,26.1786511 19.6813363,26.1867596 20.0640683,26.1901281 L20.2360554,26.1912771 L20.1817907,26.1907087 C20.1351918,26.1898952 20.1108831,26.1883832 20.1024951,26.1865041 L20.1024951,26.1865041 L20.102,26.184 L20.0990539,26.1848565 L20.103,26.183 L20.141,25.987 L20.0065876,25.9947374 C19.8129218,26.0069125 19.6328005,26.0206051 19.4843991,26.0350643 L19.3472442,26.0497512 C19.1918948,26.038184 19.0948439,26.0317344 19.0909091,26.0333168 C19.1721724,26.0399149 19.2512834,26.0463356 19.3271765,26.0519975 C19.1455534,26.0742835 19.0514808,26.0975298 19.1087328,26.119288 C19.0729536,26.1334616 19.0892091,26.1465357 19.1741759,26.158145 C18.9467986,26.445385 18.8467709,26.6988131 18.8241514,26.8991721 L17.0097481,27.5595196 L16.4130224,24.8259005 L15.2174251,25.2610624 L14.8279381,23.5063406 C16.4386879,23.4174379 16.5800363,23.373979 16.1649365,23.3690836 L16.1649365,23.3690836 L15.9982862,23.3689347 C15.7910742,23.3704963 15.5157559,23.3777743 15.2261062,23.3903635 L15.2261062,23.3903635 L15.0510268,23.3985511 C14.9337343,23.4044301 14.8158695,23.4111458 14.7008741,23.4186725 L14.805,23.411 L14.6504919,22.71871 L26.3954775,18.4438848 L26.2839272,17.9185771 L25.535604,17.5037697 L27.2133913,16.8927082 C27.2234021,16.8979094 27.2341672,16.9029226 27.245533,16.9061355 C27.243765,16.9248997 27.2427661,16.9575607 27.2424136,17.0005395 L27.2427097,17.1181853 C27.2436155,17.2068979 27.2458604,17.3139126 27.2489792,17.4256593 L27.2489792,17.4256593 L27.2542548,17.5951318 C27.2726683,18.1322901 27.3055525,18.6231217 27.3030531,17.6132705 L27.3030531,17.6132705 L27.302,17.514 L27.3016153,17.5285283 C27.2999153,17.544856 27.2962835,17.4438704 27.2965153,17.4050642 L27.297,17.392 L27.299,17.399 L27.2922812,17.2990329 C27.2786611,17.1130454 27.2683138,16.9986972 27.2606943,16.9405955 L27.2564455,16.9123609 C27.2668887,16.9164971 27.277693,16.92033 27.2880306,16.9238228 C27.0643042,17.1810265 29.3579942,18.7196517 29.963967,17.9758537 L29.963967,17.9758537 L29.991,17.937 L29.977,17.96 L29.9871725,17.9460027 C29.9911811,17.9396702 29.994388,17.9346043 29.9965927,17.9311214 L30,17.9257389 L29.7681859,17.8099294 C28.2147951,17.0405842 27.516851,16.834875 27.327837,16.8991296 L27.327837,16.8991296 L27.3162865,16.8938596 C27.2838006,16.8784379 27.256606,16.8664379 27.2352268,16.8598311 L27.269,16.872 L33.3421514,14.6624188 L33.5690615,15.8329137 L37.6236215,14.3569952 C37.7579437,14.3672545 37.9071191,14.3753883 38.0696425,14.380461 C38.0445923,14.6082627 38.04995,15.1402898 38.0718886,15.6559563 L38.0718886,15.6559563 L38.0612342,15.6664984 L38.0444803,15.6243271 C38.0408172,15.6157681 38.037342,15.6076479 38.0330909,15.5980909 L38.0330909,15.5980909 L38.0270103,15.583507 L38.024,15.577 L38.0328477,15.6327073 L38.0328477,15.6327073 L38.0414131,15.6870984 L38.0133963,15.7123341 C37.7281101,15.9912998 37.3966287,16.3170274 37.0138623,16.6948403 L37.0138623,16.6948403 L36.8181818,16.8881119 L36.8480911,16.8769838 C37.0034427,16.8000481 37.4859145,16.3577366 38.0007089,15.8583737 L38.0599254,15.8018577 C38.0689797,15.8570434 38.0778667,15.9098183 38.0868346,15.9591227 C38.1118842,16.4035092 38.1480145,16.7837154 38.1863257,16.867419 C38.1734534,16.8869445 38.1589405,16.9096101 38.1427283,16.935678 L38.157,16.911 L37.1376323,17.2833551 C37.0849326,17.214701 37.0299602,17.144987 36.9726545,17.0742919 L36.897,16.984 L36.9635503,17.0709925 C37.024501,17.1535015 37.072894,17.2279218 37.1103604,17.2932665 L36.9862216,17.3394048 C36.9434459,17.2508477 36.8981618,17.1392112 36.8535716,17.0025573 L36.8535716,17.0025573 L36.851,16.997 L36.8936426,17.139052 C36.9157507,17.2106999 36.9377974,17.2805292 36.9597626,17.3485654 L32.828,18.851 L32.836,18.818 L32.8330756,18.8288414 C32.8295607,18.8414814 32.8267596,18.8503256 32.8245766,18.8560166 C32.8180019,18.8190551 32.8439984,18.6689018 32.848803,18.7232638 L32.848803,18.7232638 L32.849,18.737 L32.8516232,18.6203061 C32.8578542,17.8624783 32.7483349,18.2665917 32.672871,18.7493451 L32.650347,18.9031441 C32.6497471,18.9075312 32.6491513,18.9119155 32.6485596,18.916296 L32.5076757,18.9689827 C32.1777673,18.5570915 31.4446471,17.8880932 30.1001666,16.8881119 L30.113,16.898 L30.1876295,16.9577058 C30.6453022,17.3481557 30.6151737,17.7787521 30.4626212,17.9895679 L30.4254099,18.0341979 L30.4010909,18.0560909 L30.4364214,18.106511 C30.7806997,18.5764764 31.311095,18.9827461 31.774797,19.2357238 L22.3206799,22.6756891 L22.478,23.379 L22.4452073,23.3798094 C22.2252818,23.4098505 22.0719487,23.4337389 21.9726516,23.4523071 L21.9194572,23.4628162 C21.894782,23.4660504 21.8739532,23.4691889 21.858281,23.4716336 C21.8601164,23.4524937 21.8619193,23.4335902 21.8640396,23.4180475 C21.8787966,23.3770955 21.8934084,23.3292852 21.9070705,23.2742133 L21.9070705,23.2742133 L21.8728217,23.3176774 C21.9207415,22.8019779 21.9423753,22.4792876 21.9463037,22.3032283 L21.9463037,22.3032283 L21.9465822,22.2138725 C21.938662,21.8895899 21.8112427,22.5924086 21.7400177,23.3727079 L21.7400177,23.3727079 L21.7251864,23.5469971 C21.6884836,24.0131111 21.6760846,24.4817318 21.7245507,24.7552448 L21.721,24.735 L21.722,24.741 L21.722,24.742 L21.723,24.746 L21.723,24.751 L21.724,24.753 Z M33.6770565,23.2026567 C31.8802626,23.1334946 32.9875585,23.3966966 34.0930118,23.5653741 L34.3132169,23.5977228 C35.4419191,23.7570389 36.3617946,23.7850356 33.8665238,23.2106966 L33.8665238,23.2106966 Z M32.7272727,23.2773893 C32.4319428,23.282825 32.0994095,23.3055722 31.7707232,23.3368301 L31.7707232,23.3368301 L31.4770525,23.3670226 C30.6096787,23.462641 29.8590809,23.6006759 30.0225259,23.6102015 L30.0718308,23.6102134 C30.2847524,23.6032813 30.9930773,23.5245542 32.4873547,23.3117413 L32.4873547,23.3117413 L32.5700909,23.2990909 L32.6115922,23.2940188 L32.6880909,23.2820909 L32.7000909,23.2810909 L32.7042007,23.280706 L32.7130909,23.2790909 L32.7200909,23.2780909 L32.7150909,23.2790909 Z M26.991235,18.1993007 C27.9034787,21.1313686 27.560996,18.2353479 26.991235,18.1993007 Z M42.1006856,16.4060628 L42.191,16.828 C42.0997838,16.8032178 42.0738343,16.8254289 42.0944741,16.8580297 L42.1122998,16.8785404 C42.0676997,16.9216609 42.0928235,16.9682283 42.2879586,16.9902002 L42.224,16.98 L42.504103,18.2803333 L39.6076717,19.3354276 C39.643439,19.1663601 39.6809502,18.8652834 39.718746,18.3915364 L39.718746,18.3915364 L39.726,18.285 L39.7205683,18.3403989 C39.6926136,18.5788077 39.6913985,18.0649655 39.7190776,18.0989116 L39.7273445,18.1227278 L39.73,18.137 L39.7030033,17.9528888 C39.6617017,17.6862502 39.6246325,17.4769856 39.5915985,17.3175957 L42.1006856,16.4060628 Z M30.086,16.954 L30.0640415,17.0520431 C29.8631013,18.0474473 30.1805561,18.2367905 30.4010909,18.0560909 L30.4010909,18.0560909 L30.3856498,18.0347331 C30.1556849,17.697597 30.025422,17.3308062 30.084562,16.9661974 L30.084562,16.9661974 L30.086,16.954 Z M42.6415354,12.5308033 L43.0391736,14.3131417 C42.6941764,14.4123247 42.4085487,14.6766104 42.2944114,15.1937949 L42.2944114,15.1937949 L42.278,15.279 L42.290217,15.2294871 C42.3917371,14.8923258 42.6860096,15.3467651 42.3488273,15.3199978 L42.2727273,15.3078511 L42.454,15.348 L38.3381618,16.8468532 C38.3437877,16.7807492 38.3305013,16.6397556 38.2944133,16.4564146 L38.2740697,16.3596558 C38.2877228,16.1279356 38.3001461,15.8111137 38.3106061,15.3921816 L38.306,15.558 L38.44549,15.4210906 C38.8618671,15.0066252 39.2431932,14.6132656 39.4281232,14.40976 L39.482,14.349 L39.5454545,14.3459157 L39.4917736,14.3382644 C39.5582767,14.2613529 39.5668864,14.240863 39.4955419,14.2998681 L39.4955419,14.2998681 L39.4560163,14.3335614 L39.3239202,14.3176908 C38.8349778,14.2567015 38.4253694,14.2145072 38.0884656,14.1869871 L38.6766298,13.9743682 C39.0631915,14.2670231 39.3924501,14.3826785 39.5202273,14.1159952 L39.5202273,14.1159952 L39.5389673,14.0699249 L39.3447715,13.8672766 C39.3113079,13.8324922 39.2782372,13.7981884 39.2455558,13.7643605 L42.6415354,12.5308033 Z M39.434,14.352 L39.4338145,14.3542408 L39.432,14.354 L39.387724,14.3943568 C39.2226487,14.5436536 38.9184641,14.8319096 38.4309728,15.305397 L38.309,15.423 L38.309,15.424 L38.279182,15.4530465 C38.2786029,15.4378272 38.2781252,15.4224325 38.277766,15.4073003 L38.2771699,15.323163 C38.2782696,15.2491865 38.2848668,15.2162071 38.3006525,15.3188577 L38.3006525,15.3188577 L38.301,15.323 L38.2861109,15.1982596 C38.2392881,14.8368859 38.2007574,14.5952492 38.1691394,14.4490655 L38.1539,14.3838157 C38.5506533,14.3935079 39.0212381,14.3850542 39.5454545,14.3459157 L39.434,14.352 Z M14.7032719,10.805034 C15.2502407,11.2585627 15.640995,11.5023306 15.9054413,11.5966327 L15.7849535,11.6884947 C15.60304,11.6597051 15.3929175,11.630682 15.1767856,11.6033717 L15.1767856,11.6033717 L15.0029955,11.5819229 C14.5840057,11.5313994 14.1646874,11.4891385 13.9031765,11.4690037 C14.1342355,11.2683538 14.3683282,11.0723503 14.6060694,10.8806903 Z M8.5541015,11.2501729 C9.77276503,10.5865137 10.4437965,9.49317869 7.04229272,11.4061902 L7.04229272,11.4061902 L6.831,11.526 L6.92219294,11.4781512 C7.44062079,11.2267176 7.42026422,11.6102702 7.10890243,11.6176543 L7.04282342,11.613816 L6.97809091,11.6000909 L7.01212249,11.6104917 C7.40744249,11.7130434 7.92681755,11.5630748 8.39232943,11.334018 Z M27.034325,5.63188303 L27.0293264,5.66791134 C26.969556,6.14034422 27.0189633,6.6214019 27.1068106,6.9978319 C23.1194295,7.493243 19.4456731,9.00268505 16.3519671,11.2595948 C16.2969333,10.9345167 16.0408275,10.4572406 15.6954516,10.052674 C18.9652138,7.70239788 22.8367285,6.13741027 27.034325,5.63188303 Z M40.7777766,2.62334865 C39.2804323,1.64319131 39.0037471,2.73055592 40.7540795,2.71647741 L40.7540795,2.71647741 L40.7940909,2.71509091 L40.7045658,2.71335343 C40.2560523,2.69299902 40.5518368,2.51263765 40.8527834,2.67743225 L40.8527834,2.67743225 L40.906,2.71 Z M32.7272727,2.66890604 C32.0340487,2.2283944 31.0163907,2.24893432 30,2.2676795 C30.6292244,2.52173646 31.3851808,2.6862553 32.7272727,2.66890604 Z M6.839,14.225 L6.84,14.224 L6.836,14.232 L6.837,14.229 L6.82988436,14.2436409 L6.81818182,14.2657343 C7.38358274,14.0544211 7.84863489,13.8189453 8.22449764,13.5782271 C4.77331247,18.1464488 2.72727273,23.8342853 2.72727273,30 C2.72727273,32.9467492 3.1946134,35.7843452 4.05921994,38.4427132 C4.00855067,38.6618231 3.96093212,38.9234595 3.9370217,39.1783217 L3.94,39.148 L3.94,39.149 L3.939,39.157 L3.939,39.161 L3.938,39.165 L3.938,39.173 L3.98985216,38.9857882 C4.00647015,38.9245971 4.02209882,38.8663915 4.03674668,38.8111668 L4.07775636,38.6544319 C4.07636644,38.7911136 4.07549894,38.8982669 4.07506773,38.9790695 L4.07506773,38.9790695 L4.074,39.085 L4.074,39.086 L4.06811926,39.1166514 C3.98159283,39.1779568 3.90924244,39.2893953 4.01416928,39.2777211 L4.06214527,39.267234 C4.06443469,39.2919909 4.06846696,39.3173593 4.07467541,39.3427404 L4.074,39.341 L4.08495854,39.2972119 L4.08495854,39.2972119 L4.09179943,39.2576065 C4.12551644,39.2455212 4.16682753,39.2277572 4.21687447,39.2031018 L4.21687447,39.2031018 L4.19767909,39.2069573 C4.18356621,39.2003827 4.21028742,39.1554963 4.21676567,39.1748956 L4.21676567,39.1748956 L4.216,39.188 L4.21913509,39.1471404 C4.21677603,39.1160392 4.20712912,39.0968789 4.19286082,39.0868275 L4.16832562,39.0782281 L4.14627401,39.0801841 L4.13885817,39.0811682 L4.12082386,39.0868725 C4.12816386,38.9884879 4.10152604,38.9989867 4.08111161,39.0640245 L4.081,39.063 L4.08285438,38.9967308 C4.08467478,38.9225062 4.08673304,38.8279825 4.08907425,38.7176028 L4.09151145,38.6021023 C4.09467094,38.589805 4.09777416,38.5776826 4.10082175,38.5657336 C7.69231472,49.432662 17.9305847,57.2727273 30,57.2727273 C45.0623114,57.2727273 57.2727273,45.0623114 57.2727273,30 C57.2727273,29.5707073 57.2628086,29.1437312 57.2431879,28.7192884 C57.7279524,28.7502033 58.0727613,28.7638349 58.2981782,28.7663385 L58.2981782,28.7663385 L58.4292572,28.7664402 C58.9241354,28.7604521 58.489313,28.6742094 57.5810033,28.6306921 C58.0679292,27.9689223 58.384263,27.7267816 58.5343457,27.6466645 L58.5343457,27.6466645 L58.5570909,27.6350909 C58.3870604,27.646291 57.9488398,27.5597753 57.2510868,26.8282077 L57.2510868,26.8282077 L57.1190909,26.6860909 L57.111,26.676 L57.1713652,26.7403952 C57.4240304,26.9931129 57.3980384,26.7586155 57.1653998,26.6865761 L57.1080785,26.6731312 L57.2663877,26.697154 C59.3822466,26.9912272 58.3287686,25.705643 57.0045852,26.167732 C56.4636194,22.3132811 55.1156991,18.717086 53.1377335,15.5554117 L53.1547034,15.4726938 L53.1547034,15.4726938 L53.1791763,15.2519813 C53.2467866,15.6247965 53.3157071,15.804361 53.2853294,15.0759223 L53.2853294,15.0759223 L53.278,14.935 L53.2799818,14.9746318 C53.2825386,15.1175169 53.2427568,14.7950521 53.2668669,14.8683248 L53.274,14.897 L53.2387728,14.7451698 C53.0506453,13.9688655 53.0480081,14.2684321 53.1004322,14.7114307 L53.1091482,14.7824339 C53.0008775,14.5393436 52.7590733,14.3638179 52.3019071,14.2962778 C51.2922784,12.8669396 50.1499281,11.5388148 48.8918858,10.3302214 L48.8972252,10.3100856 C49.1893789,9.25307894 49.2238256,8.21521192 48.4815776,9.94518225 C43.6224189,5.46395273 37.1308024,2.72727273 30,2.72727273 L29.957,2.727 L29.9568951,2.71035728 L29.9540909,2.68309091 L29.9549295,2.68096971 L29.9530909,2.67009091 L29.9520909,2.65509091 L29.9520909,2.65209091 L29.9516535,2.63199043 L29.9500909,2.61809091 L29.9468963,2.56086399 L29.9450909,2.54609091 L29.9430909,2.51409091 L29.9420909,2.48809091 L29.94,2.474 L29.9432533,2.65515905 C29.9436398,2.67980021 29.9440346,2.70426221 29.9444373,2.72854467 L30,2.72727273 C26.5401984,2.72727273 23.2308678,3.37151557 20.1854272,4.54658224 C19.9832627,4.35069259 19.6510471,4.09526271 19.1452988,3.77622378 L19.1452988,3.77622378 L19.1949761,3.81317762 C19.3871455,3.98205922 19.2866807,4.25631539 19.1920681,4.31018851 L19.1920681,4.31018851 L19.1800909,4.31409091 L19.1847609,4.32743628 C19.2618031,4.51815223 19.3995467,4.67756014 19.5569639,4.79994894 C19.4213201,4.85440966 19.2863082,4.91170949 19.1518586,4.97006089 L19.0909091,4.97258638 C19.1040631,4.97526381 19.1170956,4.97800694 19.1300148,4.9808091 C18.1783754,5.39365647 17.2569636,5.85930147 16.3673095,6.37375363 C16.3850168,6.32772005 16.4042749,6.20380233 16.4254842,5.97372233 L16.4254842,5.97372233 L16.436,5.845 L16.4332805,5.8704642 C16.4208098,5.94200769 16.4153945,5.6471813 16.4312776,5.76141883 L16.433,5.777 L16.4213632,5.651592 C16.4054045,5.49524722 16.3910284,5.37621224 16.377899,5.29159161 L16.3682805,5.23453358 C16.3835028,5.1956634 16.4018344,5.14307157 16.4237048,5.07415288 L16.42,5.082 L16.412,5.099 C16.4098243,5.08144267 16.4133445,5.05817738 16.4168361,5.04716515 L16.421612,5.04274474 L16.423,5.064 L16.4221812,4.97581529 C16.4129964,4.73968078 16.3645636,4.87324349 16.332785,5.03840869 L16.3238069,5.08856824 C16.3033362,5.10376646 16.292413,5.26710291 16.2896945,5.47360986 L16.289173,5.63494443 L16.289173,5.63494443 L16.2916024,5.80262721 C16.297944,6.0777322 16.3157058,6.33871836 16.3423815,6.38965857 C13.8424472,7.83734451 11.5939699,9.67204239 9.67822587,11.8109591 L9.68058933,11.7393046 L9.68058933,11.7393046 L9.68,11.728 L9.681,11.724 L9.681,11.693 L9.682,11.691 L9.682,11.663 L9.683,11.659 L9.68305871,11.6502649 L9.6529761,11.8189472 C9.65142342,11.8281254 9.64987942,11.8372804 9.64834403,11.8464115 C9.6130289,11.8839382 9.57837022,11.9229881 9.54382217,11.9621379 C9.54408897,11.881178 9.52458732,11.8128732 9.48902062,11.7595844 C9.49840774,11.7440849 9.50731773,11.7292788 9.51576809,11.7151438 L9.51576809,11.7151438 L9.52811342,11.7064345 L9.599,11.649 L9.5887021,11.6572523 C9.57734515,11.6632597 9.60162434,11.6372358 9.61418724,11.6279673 L9.62109091,11.6260909 L9.65802811,11.5739202 C9.71513073,11.4847545 9.69154667,11.4869843 9.64034566,11.5264779 L9.64034566,11.5264779 L9.611,11.549 L9.63506462,11.5023756 C9.68504173,11.3983824 9.61263955,11.4822324 9.54092857,11.5975081 L9.51430973,11.6419041 L9.51238446,11.6418536 L9.49161039,11.6650937 C9.47498992,11.6825389 9.45945591,11.6995418 9.44687859,11.7146711 C9.42116374,11.6919819 9.39067209,11.6743546 9.3553263,11.6614834 C9.34023411,11.6397704 9.33174727,11.6383488 9.32861028,11.6543054 C8.92155,11.5532671 7.98740976,12.1354546 6.92245999,14.0724743 L6.92245999,14.0724743 L6.841,14.222 L6.839,14.225 Z" id="Combined-Shape"></path>
            </g>
        </g>
    </g>
</svg>