<?xml version="1.0" encoding="UTF-8"?>
<svg width="60px" height="60px" viewBox="0 0 60 60" version="1.1" xmlns="http://www.w3.org/2000/svg" xmlns:xlink="http://www.w3.org/1999/xlink">
    <title>605E924E-5E57-48FC-B1F3-F32C50D11F37</title>
    <g id="Page-1" stroke="none" stroke-width="1" fill="none" fill-rule="evenodd" opacity="0.150319417">
        <g id="UiKit_Icons" transform="translate(-180.000000, -3030.000000)" fill="#999999">
            <g id="Group" transform="translate(180.000000, 3030.000000)">
                <path d="M30,0 C36.6110257,0 42.7225975,2.1384161 47.680752,5.76128484 C47.4881734,6.93404386 47.345546,9.00224005 47.8927741,6.59602253 L47.8927741,6.59602253 L47.934,6.41 L47.9230441,6.45641236 C47.8450465,6.760518 47.9244828,6.03417984 47.9402678,6.22293031 L47.94268,6.28361783 L47.942,6.306 L47.9450112,6.15736158 C47.945616,6.0838047 47.9458569,6.01459382 47.9457539,5.9495654 C50.6284289,7.96284082 52.9638659,10.4064761 54.8463655,13.1822381 C54.4844257,12.8362544 54.0150932,12.3920289 53.4195561,11.8344625 L53.4195561,11.8344625 L53.269,11.693 L53.3193243,11.7378976 C54.1800211,12.4958058 54.056965,11.7644003 53.3082881,11.653733 L53.301,11.652 C53.3007253,11.6409231 53.305475,11.6316553 53.3080975,11.6229968 L53.3099138,11.5988657 L53.3234704,11.5750659 C53.3513685,11.5204666 53.3793484,11.4579866 53.4045154,11.3928157 L53.4045154,11.3928157 C53.3450407,11.4172135 53.2906703,11.4483296 53.2430808,11.4795267 L53.2430808,11.4795267 L53.2303524,11.4884553 C53.1747807,11.371842 53.1392118,11.3527038 53.1189323,11.3853772 C53.1046662,11.3704109 53.1013926,11.3876569 53.1054368,11.4230291 C53.1003987,11.4459502 53.0975073,11.4751573 53.09646,11.507876 L53.09646,11.507876 L53.095632,11.5522459 C53.0864206,11.5566176 53.0782964,11.5618836 53.0741989,11.568349 C52.8476691,11.5267404 52.3078026,11.5356211 51.8863279,11.7090918 L51.8863279,11.7090918 L51.8200909,11.7380909 C52.4565473,11.7391698 52.8323512,11.7121161 53.0215555,11.6780942 C52.8879726,11.8583787 52.9789317,11.9766424 53.1337717,11.8411037 C53.1572802,11.9219205 53.1888681,11.9520768 53.2200386,11.8525488 C53.2496164,11.9260311 53.2694617,11.9386742 53.2540815,11.8010767 C53.3415942,11.9185403 53.5025811,12.0932719 53.7036876,12.2964691 L53.7036876,12.2964691 L53.8208214,12.4135799 C53.8812842,12.4734466 53.9444257,12.5351378 54.0095041,12.5980127 L54.0095041,12.5980127 L54.1420232,12.725151 C54.1644668,12.7465404 54.1870706,12.768014 54.2098072,12.7895478 L54.2098072,12.7895478 L54.3475999,12.9192851 L54.5573766,13.1141138 L54.6973625,13.2424869 L54.835917,13.3683209 C54.9494251,13.4709123 55.0601174,13.5697381 55.1646471,13.6619083 C58.2233658,18.36316 60,23.9741024 60,30 C60,32.2996853 59.7412435,34.5389347 59.251257,36.6902217 C58.6943356,36.9066919 58.3795747,37.3764767 58.9054036,38.053551 C55.3877608,50.7110094 43.7786604,60 30,60 C19.0431689,60 9.45825401,54.1261282 4.22241332,45.3555423 C4.24292295,44.6307821 4.25192457,44.1135384 4.25355592,43.7596648 L4.25355592,43.7596648 L4.25358393,43.5468166 C4.24858821,42.599593 4.16926828,43.3713301 4.1376946,44.2284592 L4.1376946,44.2284592 L4.13205265,44.4005396 C4.12373635,44.6909293 4.12177319,44.9786459 4.13084226,45.2010734 C1.50542883,40.7422524 0,35.5469321 0,30 C0,24.4140342 1.52669073,19.1846462 4.18557695,14.7063312 C3.68196336,17.2888239 3.9547594,18.0081474 4.2578601,14.477527 L4.24685201,14.603594 C9.48804445,5.85563175 19.0601942,0 30,0 Z M41.0447783,50.3847433 C41.3843724,50.5778137 41.7907365,50.7771076 42.2727273,50.979021 L42.216,50.955 L42.1981884,50.9848121 C42.1764827,51.0665035 42.4354636,51.0627731 42.3177455,50.955908 L42.2636526,50.9164422 L42.2718628,50.9241364 C42.273487,50.9282963 42.2685143,50.9304946 42.263556,50.9305961 L42.263556,50.9305961 L42.2610314,50.9181728 L42.2431973,50.8174792 C42.2313978,50.7579148 42.2188112,50.6995886 42.2051889,50.6439937 C42.2556572,50.7474014 42.2979843,50.8238487 42.3314124,50.8754197 C42.2446872,50.8821839 42.2442661,50.9065042 42.3981631,50.9590434 C42.4209466,50.9794996 42.4383603,50.9835862 42.4485406,50.9732844 C42.5095102,50.9917567 42.5879218,51.0131811 42.6861827,51.0378689 L42.6623408,51.0315074 C38.9653952,53.2620939 34.6325701,54.5454545 30,54.5454545 C27.1647682,54.5454545 24.4418118,54.064746 21.9081882,53.180386 C21.9034742,52.9309334 21.8912469,52.5567753 21.8697873,52.0273216 L21.8697873,52.0273216 L21.8650909,51.9290909 L21.8651548,51.9928997 C21.860274,51.9998965 21.8360053,51.6147175 21.8538679,51.7391 L21.853,51.739 L21.8503104,51.7087664 C24.3856147,52.660994 27.1319848,53.1818182 30,53.1818182 C33.968919,53.1818182 37.704881,52.1844104 40.9709062,50.4265744 Z M13.8593906,11.5071127 C14.1415823,11.5519712 14.7141516,11.6294043 15.7028738,11.7504385 C13.8651353,13.1924512 12.2503347,14.906131 10.9193026,16.8310281 C10.6546093,16.8911597 10.3439776,16.9659016 9.98521909,17.056793 L9.98521909,17.056793 L9.801,17.103 L9.8214658,17.0979115 L9.75047525,17.1164675 L9.743,17.118 L9.747,17.117 L9.74025261,17.1191396 L9.72709091,17.1220909 L9.69879413,17.1299763 L9.65903942,17.1403677 L9.62309091,17.1490909 L9.59209091,17.1570909 L9.58509091,17.1590909 L9.56703567,17.1644163 C9.56022058,17.1661977 9.5548253,17.1676079 9.54545455,17.1700573 C9.97913907,17.1497645 10.4012996,17.1002016 10.7787697,17.0384456 C9.67221237,18.6743458 8.76996646,20.459652 8.10751654,22.3574372 C6.34891648,21.4562357 6.63904427,23.5040627 7.50341663,24.3810283 C7.36235762,24.9491656 7.24167015,25.5266117 7.14288796,26.1115022 C6.7217829,26.2423566 6.74991795,26.6362577 7.00148527,27.0780996 C6.88017433,28.0355263 6.81818182,29.0105236 6.81818182,30 C6.81818182,33.2042223 7.46827195,36.256608 8.64375338,39.0324581 C8.48330412,39.0345582 8.32623353,39.0680975 8.18181818,39.1697707 C8.39226532,39.2339229 8.58651748,39.2894686 8.7658444,39.3133409 C11.2524532,44.9765507 15.9383112,49.4546803 21.7422694,51.6678778 C21.7510935,51.8277309 21.7612641,52.0047644 21.77262,52.1844641 L21.77262,52.1844641 L21.7861861,52.3920962 L21.7861861,52.3920962 L21.7982429,52.566192 C21.8135846,52.7820436 21.8296768,52.9874431 21.844763,53.1575329 C12.2971948,49.7957049 5.45454545,40.6969456 5.45454545,30 C5.45454545,22.6797167 8.65904701,16.1078848 13.7417831,11.6107714 Z M12.2727273,51.0507791 C11.3846261,50.8463769 10.7922478,50.6643094 9.54545455,50.9093926 C10.6080041,51.1626519 11.2446942,51.2637562 12.2727273,51.0507791 Z M42.9294979,50.8679814 L42.863048,50.9080722 C42.7207963,50.8922825 42.5841005,50.8806002 42.4785,50.8763312 C42.4897954,50.610103 42.3247059,49.905169 42.2001118,49.7154319 C44.2344872,48.4540835 46.0598361,46.8857822 47.6109157,45.0755442 L47.611702,45.7342657 C47.8071477,45.4329442 47.8932056,45.1324697 47.8177745,44.8324056 C48.8739359,43.5634927 49.7985343,42.1797407 50.568691,40.7026512 L50.660385,40.705181 C51.251688,40.721621 51.7338392,40.7053894 52.112082,40.671101 C50.0763724,44.8786647 46.8761289,48.4175136 42.9294979,50.8679814 Z M36.3485401,24.1782315 L36.802553,26.3311573 C34.1390188,27.2061535 36.0312977,28.8700608 37.295964,28.6726959 L37.3138024,28.7556735 C37.0681932,28.7425932 36.8868762,28.7334617 36.8339765,28.7319684 L36.8339765,28.7319684 L36.8180909,28.7310909 L37.0734048,28.7461888 C37.156376,28.7508117 37.2368807,28.7552949 37.3149636,28.7596366 L39.4354949,38.8192703 L39.4688093,39.0226996 C39.3730522,39.0255308 39.4244651,39.1776456 39.4994569,39.2684596 L39.4785152,39.0704609 C39.5586485,39.6499414 39.4970518,40.1830049 39.293725,40.6696515 C39.0871707,41.1640227 38.7828185,41.5076821 38.3806682,41.7006297 L38.2252776,41.7659204 L36.7250445,42.3107953 C35.5948568,42.4111967 35.3355158,42.592791 35.4991541,42.7577165 L35.02178,42.9318981 L35.8279557,40.77906 L35.2135445,37.9710338 L33.3058437,38.6653801 L34.2658986,43.2070165 L30.5224857,44.5695074 L27.4533528,29.9678105 C27.5009748,28.3483632 27.3919502,28.5030505 27.2797334,29.1423508 L26.9540136,27.5975595 L29.0698652,26.8271588 C28.2906348,27.4378334 27.3252357,28.2245895 27.2727273,28.6888112 L27.28,28.652 L27.2834757,28.6365944 C27.1781022,28.5520802 27.1801059,28.8164707 27.2920802,28.7457072 L27.3392305,28.7021245 L27.3273499,28.7091786 C27.3223593,28.7072458 27.3230355,28.6954205 27.3282192,28.6939747 L27.3282192,28.6939747 L27.337,28.7 L27.3282711,28.687572 C28.7814969,28.6462205 29.126375,27.9248139 29.3949183,27.2030003 L29.4783877,26.9758383 C29.5223062,26.8569559 29.5671192,26.7400435 29.617583,26.6282335 L36.3485401,24.1782315 Z M24.736,43.13 L24.6754097,43.2312515 C23.8825721,44.5987086 24.759691,45.0724267 24.7475166,43.1118881 L24.746,43.225 L24.7406183,43.3077332 C24.7074077,43.6841032 24.5711329,43.5168043 24.6832393,43.2372916 L24.711192,43.1758357 L24.736,43.13 Z M38.2231838,40.3843162 C38.139337,40.4185014 38.1026358,40.4561195 38.0958146,40.4896766 C37.9135768,40.496069 37.4153671,40.6876927 36.3558804,41.1829347 C36.7567605,41.4311545 37.071214,41.6501785 37.3122527,41.8428499 L37.3122527,41.8428499 L37.3250909,41.8530909 L37.3277057,41.8390813 C37.3587393,41.6651287 37.4977434,41.4558264 37.6548842,41.2545293 L37.6548842,41.2545293 L37.7506265,41.1350584 C37.9366211,40.9079344 38.1228431,40.7031209 38.1696423,40.5894752 C38.2426095,40.6114341 38.3265438,40.5681733 38.2231838,40.3843162 L38.223,40.385 L38.2298107,40.4075759 C38.2276511,40.4171019 38.2150732,40.4157188 38.2084958,40.4097383 L38.2051823,40.3981084 Z M53.281614,28.814176 C53.4031254,28.8337756 53.6253712,28.8442915 53.8910611,28.8471381 L53.8910611,28.8471381 L54.1937507,28.8472834 C54.2234366,28.8470254 54.2533612,28.8466922 54.2834628,28.8462853 L54.4657026,28.8429722 C54.4833094,28.8425716 54.500934,28.8421475 54.5185646,28.8417002 C54.53643,29.2251623 54.5454545,29.6115273 54.5454545,30 C54.5454545,33.6762518 53.7372613,37.1637399 52.288857,40.2944823 C51.8742764,40.3394854 51.3199474,40.4454734 50.6378363,40.6437119 L50.6378363,40.6437119 L50.5927408,40.6563987 C52.030107,37.8844284 52.9242067,34.7853914 53.1340499,31.500278 C53.1791396,31.4977812 53.1949391,31.4856291 53.1699832,31.4612567 L53.1699832,31.4612567 L53.1818182,31.4607268 C53.1670878,31.4498227 53.1523951,31.4391746 53.1377193,31.4287846 C53.1448251,31.3249936 53.1505391,31.2193609 53.1555436,31.1135425 L53.1692436,31.1973471 L53.172,31.208 L53.1694651,31.1846988 C53.1518553,31.0485382 53.1949468,31.1278506 53.1942702,31.2596304 L53.193,31.284 L53.2122895,31.0849181 C53.3212665,29.8481156 53.3266897,29.1630059 53.2895841,28.8680195 Z M22.1674042,40.438645 C24.9821552,39.5137748 20.9307997,38.1134223 22.0038891,40.4895105 L22.003,40.488 L22.0024869,40.4697877 C22.0259029,40.3938471 22.373081,40.3556153 22.1607624,40.4379263 L22.105,40.457 Z M45.2591689,20.7733396 L46.4656365,26.4955697 C43.5998926,27.7417303 45.6000399,29.2674217 46.8820212,28.4661839 L47.4871821,31.3364373 C47.2226107,31.3035747 46.7756343,31.2675523 46.332969,31.2409076 L46.1066334,31.2280946 C45.0982992,31.174725 44.2844902,31.1830934 45.9795776,31.4086056 L45.9795776,31.4086056 L46.2198395,31.4130924 C46.8728393,31.4243901 47.2799363,31.4235767 47.5040459,31.4148769 L48.3461237,35.4143785 L48.3822518,35.6239544 C48.4222734,35.9192194 48.4153274,36.209752 48.3614137,36.4955522 C48.0754007,36.5146271 47.8992929,36.5317299 47.8080826,36.5465041 C47.8119812,36.5057088 47.8110416,36.4760806 47.8063584,36.4597695 C47.8216494,36.39454 47.8361965,36.293445 47.849337,36.1484646 L47.849337,36.1484646 L47.857,36.037 L47.8549513,36.0596635 C47.8447812,36.1149287 47.8324927,36.0204042 47.8342336,35.961023 L47.837,35.932 L47.8469271,35.9505402 L47.8590909,36.0010909 L47.8233849,35.8343333 C47.4952818,34.3624577 47.5790169,36.0601034 47.7062632,36.4687373 C47.6350714,36.5619107 47.585804,36.7445865 47.7857515,36.6809253 L47.7857515,36.6809253 L47.8000532,36.6020806 C47.8989427,36.61831 48.0909524,36.6317092 48.3284279,36.6416776 C48.2632797,36.9114686 48.1543127,37.1774489 48.0028689,37.4391493 C47.665047,38.0229177 47.1974092,38.4465702 46.5999554,38.7101068 L46.3959961,38.7920221 L42.3646284,40.2593199 L42.8032439,39.2526874 C43.6270595,39.3544517 44.2898009,39.3635291 45,39.1987895 L44.965,39.205 L44.979547,39.2188342 C45.0133213,39.234089 45.0751735,39.182431 45.011881,39.1495415 L44.9690966,39.1350575 L44.9792024,39.1410158 C44.9804823,39.1454446 44.9729884,39.1495994 44.9695675,39.1463578 L44.9695675,39.1463578 L44.969,39.136 L44.9616897,39.1691973 L44.9616897,39.1691973 L44.9640006,39.193316 C44.3396389,39.0977145 43.6966654,38.9663051 42.8826503,39.0656792 L44.0939022,36.2748858 L43.0219442,31.1645389 C43.6101325,30.7238426 44.1307579,29.4013556 42.8097974,28.7444955 L42.8097974,28.7444955 L42.706,28.696 C42.7168335,28.7005611 42.7160081,28.700205 42.7102713,28.6976162 L42.6980909,28.6920909 C42.6480776,28.8118075 42.6100767,28.929698 42.5754121,29.042639 L42.0484697,26.5189995 C42.1446408,26.3893817 42.2148713,26.2721107 42.2494414,26.1741861 C42.2720746,26.1458657 42.2776758,26.123422 42.2678094,26.1065847 C42.2704164,26.0926625 42.2720686,26.0792695 42.2727273,26.0664336 L42.2727273,26.0664336 L42.2484018,26.0875071 C42.2037451,26.0623091 42.1000762,26.0602814 41.9580318,26.0783605 L41.1558124,22.2668392 L45.2591689,20.7733396 Z M30.0632013,39.0982918 C29.7986997,38.7079094 29.834878,39.727775 30.1163325,39.1887398 L30.0894656,39.234259 C30.3180095,39.3121656 30.9732689,39.361861 31.9271426,39.2596831 C32.0343316,39.2616457 32.1358838,39.2629759 32.2283958,39.2635753 L32.2283958,39.2635753 L32.4640898,39.2632274 C32.7812916,39.2593962 32.8626068,39.2397162 32.4205375,39.1952572 C32.5203115,39.1803555 32.6225938,39.163884 32.7272727,39.1457353 L32.7272727,39.1457353 L32.5117373,39.1249957 C31.0617128,38.9910157 30.2981988,39.0355433 30.0724858,39.1152836 L30.0724858,39.1152836 Z M35.674,39.054 L35.729,39.063 L35.706944,39.0597312 L35.706944,39.0597312 L35.687,39.056 L35.8599443,39.0828262 C39.0973142,39.5786927 38.8214317,39.2302825 35.8268893,39.0410812 L35.6439607,39.0299282 L35.4610909,39.0190909 L35.4746226,39.0224291 L35.4820909,39.0230909 L35.4730909,39.0220909 L35.48,39.023 L35.486,39.024 L35.489,39.024 L35.49,39.025 L35.493,39.025 L35.495,39.026 L35.499,39.026 L35.5290909,39.0310909 L35.554,39.035 L35.5665832,39.0371946 L35.568,39.037 L35.6614799,39.0520531 L35.6614799,39.0520531 L35.668,39.053 L35.681,39.055 L35.674,39.054 Z M55.9690478,39.1783217 C59.9752838,35.76794 58.6333013,36.2811786 57.2960748,37.3978223 L57.2960748,37.3978223 L57.155563,37.517449 C57.0388698,37.618756 56.9236584,37.7238097 56.813542,37.8303688 L56.813542,37.8303688 L56.6840791,37.958819 C56.2622297,38.3884391 55.9450232,38.827805 55.9636985,39.1334895 L55.9636985,39.1334895 L55.9670909,39.1710909 Z M45.0581499,38.3200107 C44.7139181,36.5777299 45.0844162,40.5602508 45.0881689,38.6426883 L45.0881689,38.6426883 L45.087,38.501 L45.0868136,38.5320619 C45.0811264,38.631109 45.0510415,38.3191639 45.0756864,38.4166849 L45.086,38.469 Z M40.67871,23.5318856 L41.2495531,26.2457469 C40.5595038,26.4637952 39.743242,26.8605005 39.56369,27.3226143 L39.56369,27.3226143 L39.5470909,27.3700909 C40.3338998,27.0942976 40.9197835,26.8630658 41.3419191,26.6782335 L41.376831,26.8611539 C40.7519344,27.4222107 40.3137644,27.832626 40.0230654,28.120693 L39.8729477,28.2719594 C39.693404,28.4564678 39.594873,28.5732941 39.5600759,28.6348917 L39.5600759,28.6348917 L39.5488345,28.637432 C39.5440323,28.6398107 39.5442753,28.6424617 39.5515936,28.6447718 C39.4811659,28.6518013 39.4052688,28.7879836 39.612993,28.7080831 L39.612993,28.7080831 L39.6014934,28.7066625 C39.5956788,28.7018004 39.5933756,28.6905885 39.59343,28.6819104 C39.5961752,28.6809382 39.5990312,28.6798654 39.6019962,28.6786933 L39.6019962,28.6786933 L39.608,28.696 L39.603989,28.6778972 C39.6085893,28.6760405 39.6134428,28.6739529 39.618333,28.6715716 L39.632898,28.6634839 C39.7421266,28.6799878 39.9596109,28.7018608 40.3183756,28.7300907 L40.3183756,28.7300907 L40.276,28.733 L40.3200579,28.7303107 C40.3463618,28.7323856 40.3734231,28.7344951 40.4012547,28.7366394 L40.4870733,28.7431777 L40.6510909,28.7550909 L40.5727717,28.7492615 C40.3674951,28.7327563 40.350366,28.7247907 40.421455,28.7221789 L40.421455,28.7221789 L40.584805,28.7219229 C40.6051411,28.7222247 40.6263294,28.7226114 40.6480276,28.7230722 L40.6480276,28.7230722 L40.7815965,28.7266374 C41.0947521,28.7366212 41.3736358,28.7568323 40.6787806,28.7573193 L40.8693458,28.7570442 C41.2619259,28.7561509 41.559296,28.7533262 41.7769348,28.7490692 L43.2451732,35.7349348 L39.7897152,36.9926187 L38.231399,29.577816 C38.3050609,29.1870924 38.3260918,28.9452198 38.3171922,28.8152639 C39.1384606,28.8606705 39.4860354,28.879316 39.5439426,28.8814702 C39.5124932,28.8786879 38.994989,28.8488238 38.4192208,28.816492 L38.4192208,28.816492 L38.3164485,28.8107294 C38.3131385,28.7550642 38.3039497,28.7206898 38.2912402,28.7030908 L38.2912402,28.7030908 L38.3078505,28.6938633 L38.2507529,28.6448421 C38.0308944,28.4886363 37.9757663,28.8440304 38.1966121,28.7576868 C38.1890868,28.7706879 38.1815017,28.7853561 38.1745491,28.8028017 C38.1384019,28.8007866 38.1022615,28.7987752 38.0662294,28.7967735 L37.9583103,28.2822983 C38.2363431,27.892837 38.2958372,27.1946235 37.8996933,26.0664336 L37.903,26.079 L37.9183553,26.1353418 C37.9590817,26.3553032 37.786941,26.4672847 37.5848386,26.5067423 L37.5068514,26.1487966 C37.5749306,26.1314119 37.6516882,26.1140085 37.7378689,26.0967306 L37.732,26.097 L37.6893081,26.1054438 C37.6275184,26.1175608 37.5672361,26.1299885 37.5084344,26.1427133 L37.2232519,24.7895695 L38.11,24.466 L38.1387393,24.5171851 C38.1358865,24.5794092 38.1339806,24.6330385 38.1333314,24.6735703 L38.1338007,24.7358362 C38.1365174,24.7849926 38.1472014,24.746496 38.169789,24.5631431 C38.2267629,24.6373429 38.2983094,24.7008725 38.3870469,24.7552448 C38.3921972,24.6114065 38.3861374,24.4852074 38.3705297,24.3709587 L40.67871,23.5318856 Z M23.731791,36.4244028 C24.9941149,35.9161157 25.088059,34.2036259 21.8181818,36.1587752 L21.8181818,36.1587752 L21.9383746,36.2335475 C22.2900777,36.4403593 22.6289694,36.535264 22.9384572,36.552235 C20.6246495,36.9496984 22.2756485,36.9365379 24.4535156,36.3185066 L24.4535156,36.3185066 L24.2293163,36.3505864 C24.0836228,36.3716533 23.9454349,36.3920789 23.8145164,36.4118499 L23.8145164,36.4118499 Z M34.2115357,33.2021352 L32.3038349,33.8964815 L32.6573953,35.5867938 C32.6771668,36.184102 32.7838645,37.235643 32.8002993,35.9327086 L32.799,35.98 L34.651099,35.3057819 L34.2115357,33.2021352 Z M24.6261089,31.3772974 C24.5767092,31.1349577 24.5004971,31.5099925 24.4187787,33.3233333 L24.4187787,33.3233333 L24.4120909,33.4620909 L24.4154739,33.4196619 C24.4197749,33.3507259 24.4223928,33.3466753 24.4234347,33.3717552 L24.4234347,33.3717552 L24.4231642,33.4622591 C24.4215864,33.523089 24.4176711,33.5875356 24.4080909,33.5790909 L24.4080909,33.5790909 L24.4275489,33.661251 C24.6148886,34.4225757 24.6844378,33.4401866 24.6831446,32.5230119 L24.6831446,32.5230119 L24.6818816,32.3347755 C24.6773956,31.9625371 24.661334,31.622826 24.6370232,31.4438076 Z M30.1796528,28.7749754 L30.1240167,28.7482915 L30.1220278,28.7247541 C30.1161354,28.6765171 30.1064157,28.6745182 30.0931533,28.7334889 C30.085549,28.7298418 30.0782162,28.7263249 30.0712326,28.7229754 L30.0712326,28.7229754 L30.0580909,28.7160909 L30.0520909,28.7130909 L30.0424253,28.709159 C30.0337831,28.7050141 30.0261885,28.7013716 30.0199032,28.6983571 L30.023,28.7 L30.0404659,28.7092032 L30.0404659,28.7092032 L30.0924628,28.7350989 C30.080499,28.7879975 30.065625,28.8881527 30.047745,29.0438142 L30.047,29.042 L30.0325473,28.9387594 C29.9056759,28.1168261 29.9038284,29.5542495 29.9590206,29.9175981 L29.9656382,29.9545667 C29.9376181,30.3142149 29.906111,30.7618012 29.8712121,31.3111888 L29.871,31.308 L29.8729787,31.3048028 L29.8770909,31.2870909 L29.8840909,31.2610909 L29.8879088,31.247835 C29.9535387,30.986893 30.0053,30.6378761 30.0437488,30.2817094 L30.0437488,30.2817094 L30.0700979,30.0145083 L30.0849162,29.8386311 C30.1123677,29.4905558 30.1267382,29.1690493 30.1285837,28.9550368 L30.1285837,28.9550368 L30.1284653,28.857363 C30.1278997,28.8143571 30.1265911,28.7785802 30.1244104,28.7507693 C30.3462868,28.8599852 30.759586,29.0594983 31.1925463,29.2675009 L31.1925463,29.2675009 L31.344,29.34 L31.7154065,31.1598424 L33.6231073,30.4654961 L33.2095268,28.4332365 L32.846,28.565 L32.8086004,28.5354882 C32.828508,28.4759298 32.8244285,28.4727746 32.8070994,28.5003027 L32.7917861,28.5262999 C32.668295,28.4507904 32.6075527,28.4950262 32.5889577,28.5746253 C32.5140574,28.5727895 32.4781486,28.6027582 32.5560346,28.6890139 L32.545,28.675 L31.301826,29.1275828 L31.3453527,29.3340771 C31.0910158,29.2119947 30.7961446,29.0705315 30.4564344,28.9076372 L30.4564344,28.9076372 L30.3370909,28.8500909 L30.3350909,28.8490909 L30.3160909,28.8400909 L30.3027386,28.8340092 L30.293,28.829 L30.291,28.828 L30.276,28.821 L30.2815348,28.8238396 L30.27,28.818 L30.261,28.814 L30.264,28.815 L30.25,28.808 L30.241,28.804 L30.238,28.803 L30.234,28.801 L30.237,28.802 L30.1796528,28.7749754 Z M53.186,26.117 L53.19,26.119 L53.187,26.118 L53.2100353,26.1634381 C53.2454905,26.2251105 53.2615086,26.2173954 53.2444547,26.1631468 L53.2301446,26.1251964 L53.2996075,26.1348545 C53.5926117,26.1696167 53.4271737,26.1054169 53.2286119,26.0512761 L53.2286119,26.0512761 L53.2231927,26.0381926 C53.2064184,26.0053991 53.1862245,26.0007309 53.1702421,26.0122329 L53.1702421,26.0122329 L53.1528541,25.9848201 L53.1260909,25.9450909 C53.1207553,25.9376666 53.1180477,25.9339335 53.1123316,25.9260526 L53.113,25.928 L53.1265265,25.9678669 L53.1265265,25.9678669 L53.1402281,26.0059834 L53.1495177,26.0260794 C53.1164495,26.0225052 53.0866,26.0155584 53.0588271,26.0095744 L52.9832411,25.9948959 C52.8616002,25.9746934 52.8482537,25.995271 53.1933483,26.1207486 L53.114,26.092 L52.9496251,26.1761531 C52.9234872,26.1905458 52.8980908,26.2050585 52.8734138,26.219687 C52.7624989,25.5328355 52.6194273,24.8551298 52.4474899,24.1890279 C52.6158057,24.0197322 52.796695,23.8364367 52.9907185,23.6388948 L52.9907185,23.6388948 L53.107929,23.5187271 C53.1050453,23.5674138 53.1282332,23.5901488 53.2009737,23.5281984 L53.2009737,23.5281984 L53.233,23.496 C53.2365338,23.4938275 53.2400244,23.4904854 53.2427631,23.4863244 L53.2484275,23.4711147 C53.2526753,23.4681123 53.2559428,23.4681947 53.2559428,23.4749061 L53.2559428,23.4749061 L53.2522782,23.3998691 C53.2360575,23.2605132 53.169894,23.3343538 53.1300817,23.4257091 C53.1128149,23.4408931 53.1087666,23.4555443 53.1130184,23.468173 L53.1130184,23.468173 L53.0759041,23.4868711 C52.9073507,23.5727158 52.6657558,23.7609251 52.3966118,23.9985868 C49.7522867,14.1041145 40.7270037,6.81818182 30,6.81818182 C29.1602761,6.81818182 28.3309804,6.86282974 27.5143571,6.94988117 C27.4798479,6.62602734 27.4071562,6.18526493 27.2831874,5.60588723 C28.1748649,5.50499113 29.0815413,5.45454545 30,5.45454545 C35.6527494,5.45454545 40.8591984,7.36538481 45.008649,10.5763655 C45.0209672,10.821618 45.0457208,11.0993219 45.0852881,11.4135944 L45.0852881,11.4135944 L45.107,11.576 L45.1021586,11.5270127 C45.0291477,10.7449232 45.5546556,11.4944257 45.2274351,11.6247739 L45.1773923,11.638509 L45.1159608,11.6433566 C45.5213188,11.6433566 45.8099987,11.547722 46.0068536,11.392979 C50.8914174,15.5969179 54.1018786,21.6925437 54.5029221,28.5429173 C53.8664582,28.6147517 53.4961764,28.671557 53.3168802,28.7150677 C53.2968549,28.7101941 53.2776882,28.7056649 53.2594551,28.7014731 L53.2594551,28.7014731 L53.2544969,28.6773914 C53.2241242,28.5763375 53.1639189,28.5956336 53.1272629,28.6421043 L53.1418597,28.6274754 C53.1148217,28.1644044 53.0741911,27.7049838 53.020361,27.2496066 C53.1576744,26.8914865 53.2082193,26.5003887 53.1688526,26.0664336 L53.171,26.123 L53.185,26.117 L53.186,26.118 L53.186,26.117 Z M41.4484001,27.186716 L41.76004,28.6712331 C41.600127,28.6628445 41.4142071,28.6548333 41.2193623,28.6477501 L41.0410684,28.6416086 C40.9511722,28.6386797 40.8605037,28.6359747 40.7706455,28.6335449 L40.5924781,28.629067 C40.3869706,28.624306 40.1916181,28.6212276 40.0265239,28.6204803 L39.8628684,28.6205958 C39.8036258,28.6210121 39.7509818,28.6218804 39.7076474,28.6236041 C39.7287648,28.6109865 39.7516841,28.5966654 39.7762482,28.5807542 L39.7762482,28.5807542 L39.8637177,28.5221804 C40.158526,28.3191351 40.6162174,27.9538813 41.0538276,27.5582883 L41.0538276,27.5582883 L41.1911394,27.4325095 C41.2790422,27.3508905 41.3653113,27.2685881 41.4484001,27.186716 Z M27.2113993,16.8916659 C27.2219695,16.897233 27.2334095,16.9027084 27.245533,16.9061355 C27.243765,16.9248997 27.2427661,16.9575607 27.2424136,17.0005395 L27.2427097,17.1181853 C27.2436155,17.2068979 27.2458604,17.3139126 27.2489792,17.4256593 L27.2489792,17.4256593 L27.2542548,17.5951318 C27.2726683,18.1322901 27.3055525,18.6231217 27.3030531,17.6132705 L27.3030531,17.6132705 L27.302,17.514 L27.3016153,17.5285283 C27.2999153,17.544856 27.2962835,17.4438704 27.2965153,17.4050642 L27.297,17.392 L27.299,17.399 L27.2922812,17.2990329 C27.2786611,17.1130454 27.2683138,16.9986972 27.2606943,16.9405955 L27.2564455,16.9123609 C27.2668887,16.9164971 27.277693,16.92033 27.2880306,16.9238228 C27.0643042,17.1810265 29.3579942,18.7196517 29.963967,17.9758537 L29.963967,17.9758537 L29.991,17.937 L29.977,17.96 L29.9871725,17.9460027 C29.9911811,17.9396702 29.994388,17.9346043 29.9965927,17.9311214 L30,17.9257389 L29.7681859,17.8099294 C28.2147951,17.0405842 27.516851,16.834875 27.327837,16.8991296 L27.327837,16.8991296 L27.3162865,16.8938596 C27.2838006,16.8784379 27.256606,16.8664379 27.2352268,16.8598311 C27.2539387,16.8463197 27.2729751,16.8278876 27.2918466,16.8043658 L37.6947147,13.0165477 C37.735115,13.0633268 37.7761821,13.1100005 37.8177482,13.1563298 L37.8177482,13.1563298 L37.9458635,13.2962804 L38.0760156,13.4325915 C38.6865003,14.0578766 39.3289984,14.5151084 39.5202273,14.1159952 L39.5202273,14.1159952 L39.5389673,14.0699249 L39.3447715,13.8672766 C38.9359562,13.442324 38.5857575,13.089111 38.2880176,12.7987966 L39.8297278,12.2397622 L42.5470171,16.1957392 C42.35675,16.3957182 42.2373136,16.6129223 42.3017577,16.7960496 C42.290799,16.798394 42.2796918,16.8011056 42.2686055,16.804137 L42.2686055,16.804137 L42.205,16.897 L42.257,16.799 L42.2546257,16.8081326 C42.2589415,16.8068454 42.2632714,16.8056041 42.2676053,16.8044114 L42.259672,16.7953077 L42.259672,16.7953077 L42.257,16.799 L42.258,16.796 L42.2538086,16.8027891 C42.2300573,16.8156579 42.2108355,16.8226054 42.190937,16.8284611 C42.0815532,16.7981691 42.0660626,16.8362116 42.1122998,16.8785404 C42.0676997,16.9216609 42.0928235,16.9682283 42.2879586,16.9902002 L42.2879586,16.9902002 L42.2634971,16.9862149 C42.2526502,16.9834747 42.251856,16.9807696 42.2559011,16.9793113 C42.2688645,16.9818376 42.2826272,16.9813618 42.2966485,16.9775273 C42.2982862,16.9802151 42.2962615,16.9843074 42.2879586,16.9902002 L42.292,16.986 L42.3154661,16.9696187 C42.3169378,16.9687321 42.31837,16.9677943 42.3206017,16.9660735 L42.3305337,16.9578299 C42.3698204,16.9601615 42.4125606,16.9577686 42.4577388,16.9486586 C42.431989,16.9342829 42.4077528,16.9213046 42.389625,16.9097625 C42.4415173,16.8621589 42.4574688,16.8304941 42.4505211,16.8111215 L42.4505211,16.8111215 L42.5184175,16.7555399 C42.6139614,16.6785973 42.7022984,16.6060638 42.7838243,16.5377597 L45.2052955,20.0653511 L40.4540407,21.7946664 L39.1945767,19.4531211 C39.3307126,19.4334986 39.4229624,19.4181325 39.4780037,19.406505 C39.5444713,19.6611904 39.630839,19.4933975 39.718746,18.3915364 L39.718746,18.3915364 L39.726,18.285 L39.7205683,18.3403989 C39.6926136,18.5788077 39.6913985,18.0649655 39.7190776,18.0989116 L39.7273445,18.1227278 L39.73,18.137 L39.7030033,17.9528888 C39.6464209,17.5875996 39.5977823,17.3299923 39.5565798,17.1607844 L39.5365959,17.0834578 C39.5725214,17.0722173 39.6171369,17.0510205 39.6718262,17.0174336 L39.6718262,17.0174336 C39.6756562,16.9956209 39.679525,16.9611925 39.6814526,16.9419793 L39.681,16.937 L39.6779138,16.9648532 L39.676,16.969 L39.6807421,16.9136372 C39.6951235,16.6354917 39.6025903,16.6488285 39.5191348,16.7451908 L39.4918116,16.7801007 C39.4196085,16.7934874 39.4157414,16.8329367 39.4431745,16.8741822 C39.440817,16.8795442 39.4385529,16.8849188 39.4366788,16.88955 C39.3841663,16.9126525 39.3594383,17.2115351 39.3558048,17.5997886 L39.3558048,17.5997886 L39.3558381,17.8152697 C39.3610185,18.3972906 39.4054858,19.090034 39.4736394,19.3754799 C39.4067109,19.374562 39.2965261,19.3783545 39.1581345,19.3856601 L38.3103963,17.8134247 C38.3102191,17.5050265 38.3100081,17.1969034 38.309682,16.8881119 C38.1983737,17.0532216 38.1160587,17.2182041 38.0774554,17.3830595 L37.6874728,16.6574636 L32.849918,18.4183526 C32.838658,18.0594503 32.7807104,18.189884 32.723878,18.4639737 L32.2187656,18.6484076 C31.8140092,18.2368071 31.1398982,17.6614308 30.1001666,16.8881119 L30.113,16.898 L30.1876295,16.9577058 C30.6453022,17.3481557 30.6151737,17.7787521 30.4626212,17.9895679 L30.4254099,18.0341979 L30.4010909,18.0560909 L30.4364214,18.106511 C30.7646003,18.5544996 31.2618967,18.9446103 31.7093336,19.1992376 L31.2801761,23.3896616 C30.5000676,23.4830306 29.8715987,23.6014054 30.0225259,23.6102015 L30.0718308,23.6102134 C30.2156229,23.605532 30.5853532,23.568107 31.2705099,23.4787532 L31.0955085,25.2008936 L26.0922932,27.021915 L27.1097285,18.5691915 C27.7962994,20.643188 27.5903638,18.7052996 27.1450136,18.2780468 L27.1865334,17.9329039 L26.0798843,17.244296 L27.049,16.891 Z M39.415,22.334 L38.8243599,22.549646 C38.9761539,22.3406326 39.2038636,22.1515049 39.4769286,22.1369951 L39.4769286,22.1369951 L39.5454545,22.1370581 C38.5936635,22.0848562 37.8729376,22.5275126 37.412148,23.0630104 L32.1193216,24.9899442 L31.7789928,23.4107337 C31.9924627,23.3815562 32.2280774,23.3486672 32.4873547,23.3117413 L32.4873547,23.3117413 L32.5700909,23.2990909 L32.6115922,23.2940188 L32.6880909,23.2820909 L32.7000909,23.2810909 L32.7042007,23.280706 L32.7130909,23.2790909 L32.7200909,23.2780909 L32.7150909,23.2790909 L32.7272727,23.2773893 C32.4319428,23.282825 32.0994095,23.3055722 31.7707232,23.3368301 L31.7707232,23.3368301 L31.764,23.337 L31.4759479,21.9903493 L38.052,19.596 L38.1243656,19.5882827 C38.1296833,19.6049357 38.1437981,19.6133189 38.1603818,19.6120688 L38.182,19.603 L38.199,19.543 L38.286,19.511 L38.212,19.578 L38.4045475,19.5550106 L38.4045475,19.5550106 L38.7402728,19.5137042 C38.8568265,19.4990004 38.9590294,19.4856562 39.0479194,19.473591 L39.6421418,22.2518616 L39.416,22.333 L39.415,22.334 Z M21.724,24.753 L21.724,24.752 L21.7559735,24.4675817 C21.7859824,24.1897273 21.8117735,23.9410551 21.8335635,23.7193728 L21.8540278,23.506606 C21.870797,23.5082813 21.8930071,23.5093262 21.9197088,23.5098083 L21.9197088,23.5098083 L22.0369423,23.5091576 C22.1129359,23.5074828 22.2034792,23.5037093 22.3003064,23.4982046 C22.3473919,23.4975841 22.3984084,23.4967652 22.4535597,23.4957339 L22.4535597,23.4957339 L22.5400909,23.4930909 L22.5116109,23.4933915 C22.4315105,23.4915804 22.7187649,23.4758666 22.6604665,23.4872391 L22.6604665,23.4872391 L22.7654152,23.4744371 C22.8623299,23.4617005 22.940067,23.4506237 22.9984332,23.4408312 C23.1135269,23.4266369 23.1868534,23.4126416 23.1809995,23.4010737 C23.1855141,23.3957787 23.1711856,23.3923005 23.1431137,23.3905815 C23.0629258,23.3800914 22.851285,23.3750034 22.4452073,23.3798094 C22.1812967,23.4158587 22.0132792,23.4430482 21.9194572,23.4628162 C21.894782,23.4660504 21.8739532,23.4691889 21.858281,23.4716336 C21.8601164,23.4524937 21.8619193,23.4335902 21.8640396,23.4180475 C21.8787966,23.3770955 21.8934084,23.3292852 21.9070705,23.2742133 L21.9070705,23.2742133 L21.8728217,23.3176774 C21.9207415,22.8019779 21.9423753,22.4792876 21.9463037,22.3032283 L21.9463037,22.3032283 L21.9465822,22.2138725 C21.938662,21.8895899 21.8112427,22.5924086 21.7400177,23.3727079 L21.7400177,23.3727079 L21.7251864,23.5469971 C21.6884836,24.0131111 21.6760846,24.4817318 21.7245507,24.7552448 L21.721,24.735 L21.722,24.741 L21.722,24.742 L21.723,24.746 L21.723,24.751 L21.724,24.753 Z M33.6770565,23.2026567 C31.8802626,23.1334946 32.9875585,23.3966966 34.0930118,23.5653741 L34.3132169,23.5977228 C35.4419191,23.7570389 36.3617946,23.7850356 33.8665238,23.2106966 L33.8665238,23.2106966 Z M42.2664772,19.5064138 C40.3206056,19.2062591 40.3197783,19.2067211 39.5454545,19.6391924 C40.4047383,19.7502675 41.2092487,19.7967316 42.2663685,19.5080106 C42.2702219,19.5274403 42.2747285,19.5488997 42.2799483,19.5723659 L42.2799483,19.5723659 L42.2930909,19.6280909 L42.292,19.627 L42.2928801,19.6286861 L42.294,19.634 L42.295,19.638 L42.296,19.639 L42.2882587,19.5692029 C42.2625412,19.3754173 42.2394993,19.3263539 42.2498799,19.4103098 L42.2564647,19.4544009 Z M30.086,16.954 L30.0640415,17.0520431 C29.8631013,18.0474473 30.1805561,18.2367905 30.4010909,18.0560909 L30.4010909,18.0560909 L30.3856498,18.0347331 C30.1556849,17.697597 30.025422,17.3308062 30.084562,16.9661974 L30.084562,16.9661974 L30.086,16.954 Z M39.3239202,14.3176908 C36.1179919,13.917792 36.3228261,14.3259393 38.0696425,14.380461 C38.0445923,14.6082627 38.04995,15.1402898 38.0718886,15.6559563 L38.0718886,15.6559563 L38.0612342,15.6664984 L38.0444803,15.6243271 C38.0408172,15.6157681 38.037342,15.6076479 38.0330909,15.5980909 L38.0330909,15.5980909 L38.0270103,15.583507 L38.024,15.577 L38.0328477,15.6327073 L38.0328477,15.6327073 L38.0414131,15.6870984 L38.0133963,15.7123341 C37.7281101,15.9912998 37.3966287,16.3170274 37.0138623,16.6948403 L37.0138623,16.6948403 L36.8181818,16.8881119 L36.8480911,16.8769838 C37.0034427,16.8000481 37.4859145,16.3577366 38.0007089,15.8583737 L38.0599254,15.8018577 C38.0689797,15.8570434 38.0778667,15.9098183 38.0868346,15.9591227 C38.1118842,16.4035092 38.1480145,16.7837154 38.1863257,16.867419 C38.1734534,16.8869445 38.1589405,16.9096101 38.1427283,16.935678 L38.1427283,16.935678 L38.1160909,16.9770909 L38.1150909,16.9790909 L38.1080909,16.9910909 L38.1040909,16.9980909 L38.098,17.008 L38.1523765,16.9453523 L38.1523765,16.9453523 L38.1972961,16.8871152 C38.2036194,16.8906048 38.2099458,16.8850014 38.2162274,16.8691969 L38.2162274,16.8691969 L38.2234972,16.8480449 C38.2451342,16.8151669 38.2589492,16.7899172 38.2642545,16.7754356 L38.264,16.776 L38.2836051,16.829171 C38.3497095,16.9930282 38.3617253,16.7983854 38.2944133,16.4564146 L38.2740697,16.3596558 C38.2877228,16.1279356 38.3001461,15.8111137 38.3106061,15.3921816 L38.306,15.558 L38.44549,15.4210906 C38.8618671,15.0066252 39.2431932,14.6132656 39.4281232,14.40976 L39.482,14.349 L39.5454545,14.3459157 L39.4917736,14.3382644 C39.5582767,14.2613529 39.5668864,14.240863 39.4955419,14.2998681 L39.4955419,14.2998681 L39.4560163,14.3335614 Z M39.434,14.352 L39.4338145,14.3542408 L39.432,14.354 L39.387724,14.3943568 C39.2226487,14.5436536 38.9184641,14.8319096 38.4309728,15.305397 L38.309,15.423 L38.309,15.424 L38.279182,15.4530465 C38.2786029,15.4378272 38.2781252,15.4224325 38.277766,15.4073003 L38.2771699,15.323163 C38.2782696,15.2491865 38.2848668,15.2162071 38.3006525,15.3188577 L38.3006525,15.3188577 L38.301,15.323 L38.2861109,15.1982596 C38.2392881,14.8368859 38.2007574,14.5952492 38.1691394,14.4490655 L38.1539,14.3838157 C38.5506533,14.3935079 39.0212381,14.3850542 39.5454545,14.3459157 L39.434,14.352 Z M14.7032719,10.805034 C15.2502407,11.2585627 15.640995,11.5023306 15.9054413,11.5966327 L15.7849535,11.6884947 C15.60304,11.6597051 15.3929175,11.630682 15.1767856,11.6033717 L15.1767856,11.6033717 L15.0029955,11.5819229 C14.5840057,11.5313994 14.1646874,11.4891385 13.9031765,11.4690037 C14.1342355,11.2683538 14.3683282,11.0723503 14.6060694,10.8806903 Z M8.5541015,11.2501729 C9.77276503,10.5865137 10.4437965,9.49317869 7.04229272,11.4061902 L7.04229272,11.4061902 L6.831,11.526 L6.92219294,11.4781512 C7.44062079,11.2267176 7.42026422,11.6102702 7.10890243,11.6176543 L7.04282342,11.613816 L6.97809091,11.6000909 L7.01212249,11.6104917 C7.40744249,11.7130434 7.92681755,11.5630748 8.39232943,11.334018 Z M27.034325,5.63188303 L27.0293264,5.66791134 C26.969556,6.14034422 27.0189633,6.6214019 27.1068106,6.9978319 C23.1194295,7.493243 19.4456731,9.00268505 16.3519671,11.2595948 C16.2969333,10.9345167 16.0408275,10.4572406 15.6954516,10.052674 C18.9652138,7.70239788 22.8367285,6.13741027 27.034325,5.63188303 Z M40.7777766,2.62334865 C39.2804323,1.64319131 39.0037471,2.73055592 40.7540795,2.71647741 L40.7540795,2.71647741 L40.7940909,2.71509091 L40.7045658,2.71335343 C40.2560523,2.69299902 40.5518368,2.51263765 40.8527834,2.67743225 L40.8527834,2.67743225 L40.906,2.71 Z M32.7272727,2.66890604 C32.0340487,2.2283944 31.0163907,2.24893432 30,2.2676795 C30.6292244,2.52173646 31.3851808,2.6862553 32.7272727,2.66890604 Z M27.229,39.173 L27.218,39.047 L27.2176565,39.0609825 C27.1665547,39.0766758 27.1430825,39.1012555 27.1372954,39.1285749 L27.137035,39.1565799 C26.9294267,39.159636 27.0095394,39.17364 27.1502593,39.1856656 L27.1502593,39.1856656 L27.1560218,39.1955502 L27.1213816,39.2020551 C27.1089013,39.2045241 27.0976304,39.2068101 27.0879338,39.2088478 L27.0515624,39.2175764 C27.0437991,39.2207164 27.0728947,39.2178046 27.162192,39.204678 C27.2357064,39.3067657 27.4447227,39.3876395 27.4026126,39.19936 C27.4168386,39.1998093 27.4303805,39.2001524 27.4429933,39.2003746 L27.5055612,39.2001406 C27.553061,39.1982224 27.5494779,39.1909006 27.4419058,39.1750189 L27.393,39.168 C27.4143545,39.1577501 27.4313676,39.1540849 27.4452277,39.15102 L27.4932631,39.1393805 C27.5062803,39.1349283 27.4574135,39.1426514 27.3890125,39.1554726 C27.3777542,39.123931 27.3611101,39.0868866 27.3380462,39.0436808 L27.338,39.044 L27.3390702,39.0611664 C27.3297897,39.0717858 27.29586,39.0638229 27.2936609,39.0554244 L27.3041267,39.0475529 L27.3380462,39.0436808 L27.2949259,39.0464352 C27.3911507,38.8338459 27.4146598,38.6841868 27.4033669,38.6037824 L27.4033669,38.6037824 L27.3980909,38.5810909 L27.4045453,38.5380211 C27.4757877,37.9501792 27.4048336,37.2342335 27.3147948,36.8443066 L27.31,36.829 L27.31,36.828 L27.2898581,36.7463873 C27.2814498,36.7166693 27.2729762,36.6899869 27.26453,36.6666813 L27.2393655,36.6072358 C27.2679114,36.631522 27.308572,36.6279959 27.3415309,36.5418463 L27.3415309,36.5418463 L27.2861432,36.5061414 C27.2049694,36.464916 27.1927731,36.520116 27.2122472,36.5658286 C27.1085515,36.4679349 27.0440586,37.0798468 27.2298508,39.1783217 L27.218,39.043 L27.305,36.958 L27.229,39.173 Z M24.2597224,28.8344485 L24.323,28.856 L24.3615957,29.0421218 C23.8078438,29.2581429 23.4135924,28.6891126 23.9813212,28.7658413 L24.0701512,28.7815848 L24.1460909,28.8000909 L24.1213282,28.7923197 C23.6180738,28.6516735 23.1777355,28.6662879 22.8194444,28.7639598 C22.4241171,28.6569197 22.165081,28.5901826 22.0097227,28.5530153 L22.0097227,28.5530153 L21.8748932,28.5226968 C21.7924323,28.5062667 21.805312,28.5164545 21.8786565,28.5417824 L21.8786565,28.5417824 L21.9444571,28.5634377 C22.1211455,28.6195135 22.4549572,28.7128484 22.7610484,28.782233 C21.2685964,29.2446593 21.3293991,31.1787329 24.5454545,28.9429463 L24.367,29.065 L24.6650376,30.492203 L26.6447272,29.771655 L26.9802722,31.4069591 C25.022406,30.7368858 26.1939103,31.3728926 26.9985763,31.4916812 L27.3879802,33.3816496 L25.4082907,34.1021976 L25.9287822,36.5401873 L27.7915491,35.4983971 L28.5867677,39.251166 L26.7240008,40.2929561 L26.876494,41.0177757 C26.6612515,41.4036839 26.3473894,42.0261609 25.9090909,42.965204 L25.9090909,42.965204 L26.052027,43.0146395 C26.9936511,43.3209661 26.7156839,42.812862 26.3460526,42.7333752 L26.3460526,42.7333752 L26.2990909,42.7250909 L26.314941,42.70715 C26.4237125,42.5679919 26.5362463,42.3848676 26.6442742,42.183397 L26.6442742,42.183397 L26.7243211,42.0292544 C26.7374784,42.0031241 26.750533,41.9768072 26.7634687,41.9503537 L26.7634687,41.9503537 L26.8580059,41.7501746 L26.8580059,41.7501746 L26.8762453,41.7099371 L26.9465724,41.5495661 L26.973,41.484 L27.8229091,45.5520729 L23.5755752,47.097976 L22.6415032,42.6277268 L21.852,43.068 L21.8409703,42.9987823 C21.8308343,42.942879 21.8220427,42.9073456 21.8146146,42.889837 L21.8076417,42.8782497 C21.8185299,42.7478538 21.8319876,42.5581193 21.8484004,42.2973713 L21.8484004,42.2973713 L21.855,42.183 L21.8526837,42.2100537 C21.8516541,42.2188779 21.8508978,42.2210692 21.8503716,42.2180501 L21.8497497,42.2097916 L21.8499421,42.1274309 L21.8499421,42.1274309 L21.8503591,42.1045227 L21.8528349,42.0064421 C21.8557756,41.9092055 21.859675,41.8289062 21.8606123,41.8951932 L21.8606123,41.8951932 L21.86,41.95 L21.8620827,41.8830794 C21.8656465,41.5599917 21.867569,41.3019233 21.8681415,41.1000493 L21.8681993,40.884209 C21.8675543,40.6625463 21.864492,40.5441059 21.8598121,40.504672 L21.8598121,40.504672 L21.8983641,40.4739232 C22.1227674,40.2875385 21.4814228,40.6324459 21.7615844,40.5474816 L21.7615844,40.5474816 L21.821,40.527 L21.8052563,40.5327617 C21.783554,40.5386871 21.8318165,40.5169068 21.8397295,40.5172044 L21.8363751,40.5223451 L21.8503159,40.5102102 C21.834911,40.6163574 21.8125149,41.1153383 21.7949594,41.648202 L21.7841027,42.004525 C21.7676362,42.5936324 21.7603918,43.1260927 21.7785994,43.1095177 L21.7785994,43.1095177 L18.801019,44.7725086 C18.8892433,44.5872803 18.9840863,44.3727952 19.0909091,44.1269387 C18.4502954,43.5391348 17.989288,43.193848 17.6320302,43.124777 L17.2728574,41.4288343 L21.8462846,38.8749579 L21.1609568,35.6481007 L16.9856117,37.1678021 L16.25535,33.593501 L16.1916589,30.1616834 C16.4503646,29.8097035 16.3949292,29.4810398 16.1730424,29.2239416 L16.1625951,28.7041977 C16.1863982,28.7076336 16.2193929,28.7105803 16.2567497,28.7129371 C16.2170755,28.9162231 16.233516,29.1015747 16.386048,28.8150753 C16.4576696,28.8660713 16.4945697,28.8558242 16.5044192,28.8175026 C16.6627616,28.840219 16.9640794,28.8578166 17.4551095,28.8668838 L17.4551095,28.8668838 L17.4157742,28.8650896 C17.3091975,28.854822 17.7779189,28.8105547 17.6022751,28.843476 L17.6022751,28.843476 L17.5440909,28.8530909 L17.6900024,28.8322368 C19.9339886,28.4962044 19.0619281,28.4709665 17.9734313,28.5448656 L17.9734313,28.5448656 L17.7537053,28.5609045 C17.4829325,28.5820317 17.2107696,28.6082693 16.980504,28.6362651 C16.8009163,28.6280192 16.6273938,28.6235476 16.5103831,28.6253448 L16.5103831,28.6253448 L16.4700909,28.6260909 L16.482,28.597 L16.4719255,28.6196168 C16.4554257,28.6446654 16.4623314,28.592924 16.4728898,28.5742334 L16.4811847,28.5681289 L16.486,28.58 L16.4699663,28.5134099 C16.4237378,28.3706243 16.3687235,28.401443 16.3234166,28.4934982 L16.3046475,28.536372 C16.289246,28.5439433 16.2737643,28.5567482 16.259254,28.5768935 C16.232578,28.5736264 16.2004703,28.5705753 16.162518,28.5677711 L16.1574339,28.3790527 C16.2245837,28.3533198 16.293309,28.3258285 16.3636364,28.2965221 L16.358,28.298 L16.2408935,28.3441124 C16.2109818,28.3547609 16.1825339,28.3641284 16.1554985,28.3722921 L16.1483597,27.9451633 C16.2349715,27.987208 16.3141477,28.0931678 16.3636364,28.2965221 L16.363,28.295 L16.3124576,28.0957343 C16.2581054,27.892062 16.2007989,27.7063871 16.1410787,27.5375634 L16.1393729,27.45114 L16.1130552,27.4600495 C15.5537003,25.946301 14.7949454,25.8597819 14.2651921,26.2928837 L13.8873369,24.5115636 L16.0829925,23.7124104 L16.0816183,23.4239568 C16.4654688,23.3898585 16.4214385,23.3721086 16.1649365,23.3690836 L16.1649365,23.3690836 L16.081,23.368 L16.0772692,22.0167675 L15.3275838,21.0769692 L19.6469063,19.5048644 L19.7184223,22.3892221 L25.1535699,20.4109902 L25.8938431,23.9008032 L20.164,25.985 L20.141,25.986 L20.141,25.987 L20.143,25.993 L20.14,25.994 L20.141,25.987 L20.0065876,25.9947374 C19.8129218,26.0069125 19.6328005,26.0206051 19.4843991,26.0350643 L19.3472442,26.0497512 C19.1918948,26.038184 19.0948439,26.0317344 19.0909091,26.0333168 C19.1721724,26.0399149 19.2512834,26.0463356 19.3271765,26.0519975 C19.1455534,26.0742835 19.0514808,26.0975298 19.1087328,26.119288 C19.0729536,26.1334616 19.0892091,26.1465357 19.1741759,26.158145 C18.5105425,26.9964964 18.9317343,27.5468209 19.1960877,27.3303418 L19.1960877,27.3303418 L19.2750824,26.1673247 C19.3852129,26.1755183 19.5486039,26.1820278 19.7754547,26.1862773 L19.9073052,31.9223413 C19.6998984,32.0710604 19.4779506,32.2510378 19.2426435,32.4665939 L19.2426435,32.4665939 L19.094,32.604 L19.1752062,32.5323778 C19.8901861,31.9214481 20.1886448,32.6215809 19.2095948,32.6130474 L19.0909091,32.6088029 L19.2840857,32.6181165 C22.0951427,32.7166418 22.3622724,31.0712523 21.0862838,31.341142 L20.2395132,27.2927385 L21.7321785,26.7483782 C21.7602808,27.2641529 21.8372685,27.7581453 21.9039969,26.950663 L21.9039969,26.950663 L21.9140909,26.8120909 L21.9116659,26.8359976 C21.9054021,26.8741732 21.8974076,26.8220589 21.8932612,26.7755004 C22.4512032,27.1797269 23.1422136,27.0227223 23.9766483,27.2020505 L24.323,28.856 L24.2802199,28.8405295 L24.2802199,28.8405295 L24.1685279,28.8060476 L24.153,28.802 L24.2597224,28.8344485 L24.2597224,28.8344485 Z M6.839,14.225 L6.84,14.224 L6.836,14.232 L6.837,14.229 L6.82988436,14.2436409 L6.81818182,14.2657343 C7.38358274,14.0544211 7.84863489,13.8189453 8.22449764,13.5782271 C4.77331247,18.1464488 2.72727273,23.8342853 2.72727273,30 C2.72727273,32.9467492 3.1946134,35.7843452 4.05921994,38.4427132 C4.00855067,38.6618231 3.96093212,38.9234595 3.9370217,39.1783217 L3.94,39.148 L3.94,39.149 L3.939,39.157 L3.939,39.161 L3.938,39.165 L3.938,39.173 L3.98985216,38.9857882 C4.00647015,38.9245971 4.02209882,38.8663915 4.03674668,38.8111668 L4.07775636,38.6544319 C4.07636644,38.7911136 4.07549894,38.8982669 4.07506773,38.9790695 L4.07506773,38.9790695 L4.074,39.085 L4.074,39.086 L4.06811926,39.1166514 C3.98159283,39.1779568 3.90924244,39.2893953 4.01416928,39.2777211 L4.06214527,39.267234 C4.06443469,39.2919909 4.06846696,39.3173593 4.07467541,39.3427404 L4.074,39.341 L4.08495854,39.2972119 L4.08495854,39.2972119 L4.09179943,39.2576065 C4.12551644,39.2455212 4.16682753,39.2277572 4.21687447,39.2031018 L4.21687447,39.2031018 L4.19767909,39.2069573 C4.18356621,39.2003827 4.21028742,39.1554963 4.21676567,39.1748956 L4.21676567,39.1748956 L4.216,39.188 L4.21913509,39.1471404 C4.21677603,39.1160392 4.20712912,39.0968789 4.19286082,39.0868275 L4.16832562,39.0782281 L4.14627401,39.0801841 L4.13885817,39.0811682 L4.12082386,39.0868725 C4.12816386,38.9884879 4.10152604,38.9989867 4.08111161,39.0640245 L4.081,39.063 L4.08285438,38.9967308 C4.08467478,38.9225062 4.08673304,38.8279825 4.08907425,38.7176028 L4.09151145,38.6021023 C4.09467094,38.589805 4.09777416,38.5776826 4.10082175,38.5657336 C7.69231472,49.432662 17.9305847,57.2727273 30,57.2727273 C45.0623114,57.2727273 57.2727273,45.0623114 57.2727273,30 C57.2727273,29.5707073 57.2628086,29.1437312 57.2431879,28.7192884 C57.7279524,28.7502033 58.0727613,28.7638349 58.2981782,28.7663385 L58.2981782,28.7663385 L58.4292572,28.7664402 C58.9241354,28.7604521 58.489313,28.6742094 57.5810033,28.6306921 C58.0679292,27.9689223 58.384263,27.7267816 58.5343457,27.6466645 L58.5343457,27.6466645 L58.5570909,27.6350909 C58.3870604,27.646291 57.9488398,27.5597753 57.2510868,26.8282077 L57.2510868,26.8282077 L57.1190909,26.6860909 L57.111,26.676 L57.1713652,26.7403952 C57.4240304,26.9931129 57.3980384,26.7586155 57.1653998,26.6865761 L57.1080785,26.6731312 L57.2663877,26.697154 C59.3822466,26.9912272 58.3287686,25.705643 57.0045852,26.167732 C56.4636194,22.3132811 55.1156991,18.717086 53.1377335,15.5554117 L53.1547034,15.4726938 L53.1547034,15.4726938 L53.1791763,15.2519813 C53.2467866,15.6247965 53.3157071,15.804361 53.2853294,15.0759223 L53.2853294,15.0759223 L53.278,14.935 L53.2799818,14.9746318 C53.2825386,15.1175169 53.2427568,14.7950521 53.2668669,14.8683248 L53.274,14.897 L53.2387728,14.7451698 C53.0506453,13.9688655 53.0480081,14.2684321 53.1004322,14.7114307 L53.1091482,14.7824339 C53.0008775,14.5393436 52.7590733,14.3638179 52.3019071,14.2962778 C51.2922784,12.8669396 50.1499281,11.5388148 48.8918858,10.3302214 L48.8972252,10.3100856 C49.1893789,9.25307894 49.2238256,8.21521192 48.4815776,9.94518225 C43.6224189,5.46395273 37.1308024,2.72727273 30,2.72727273 L29.957,2.727 L29.9568951,2.71035728 L29.9540909,2.68309091 L29.9549295,2.68096971 L29.9530909,2.67009091 L29.9520909,2.65509091 L29.9520909,2.65209091 L29.9516535,2.63199043 L29.9500909,2.61809091 L29.9468963,2.56086399 L29.9450909,2.54609091 L29.9430909,2.51409091 L29.9420909,2.48809091 L29.94,2.474 L29.9432533,2.65515905 C29.9436398,2.67980021 29.9440346,2.70426221 29.9444373,2.72854467 L30,2.72727273 C26.5401984,2.72727273 23.2308678,3.37151557 20.1854272,4.54658224 C19.9832627,4.35069259 19.6510471,4.09526271 19.1452988,3.77622378 L19.1452988,3.77622378 L19.1949761,3.81317762 C19.3871455,3.98205922 19.2866807,4.25631539 19.1920681,4.31018851 L19.1920681,4.31018851 L19.1800909,4.31409091 L19.1847609,4.32743628 C19.2618031,4.51815223 19.3995467,4.67756014 19.5569639,4.79994894 C19.4213201,4.85440966 19.2863082,4.91170949 19.1518586,4.97006089 L19.0909091,4.97258638 C19.1040631,4.97526381 19.1170956,4.97800694 19.1300148,4.9808091 C18.1783754,5.39365647 17.2569636,5.85930147 16.3673095,6.37375363 C16.3850168,6.32772005 16.4042749,6.20380233 16.4254842,5.97372233 L16.4254842,5.97372233 L16.436,5.845 L16.4332805,5.8704642 C16.4208098,5.94200769 16.4153945,5.6471813 16.4312776,5.76141883 L16.433,5.777 L16.4213632,5.651592 C16.4054045,5.49524722 16.3910284,5.37621224 16.377899,5.29159161 L16.3682805,5.23453358 C16.3835028,5.1956634 16.4018344,5.14307157 16.4237048,5.07415288 L16.42,5.082 L16.412,5.099 C16.4098243,5.08144267 16.4133445,5.05817738 16.4168361,5.04716515 L16.421612,5.04274474 L16.423,5.064 L16.4221812,4.97581529 C16.4129964,4.73968078 16.3645636,4.87324349 16.332785,5.03840869 L16.3238069,5.08856824 C16.3033362,5.10376646 16.292413,5.26710291 16.2896945,5.47360986 L16.289173,5.63494443 L16.289173,5.63494443 L16.2916024,5.80262721 C16.297944,6.0777322 16.3157058,6.33871836 16.3423815,6.38965857 C13.8424472,7.83734451 11.5939699,9.67204239 9.67822587,11.8109591 L9.68058933,11.7393046 L9.68058933,11.7393046 L9.68,11.728 L9.681,11.724 L9.681,11.693 L9.682,11.691 L9.682,11.663 L9.683,11.659 L9.68305871,11.6502649 L9.6529761,11.8189472 C9.65142342,11.8281254 9.64987942,11.8372804 9.64834403,11.8464115 C9.6130289,11.8839382 9.57837022,11.9229881 9.54382217,11.9621379 C9.54408897,11.881178 9.52458732,11.8128732 9.48902062,11.7595844 C9.49840774,11.7440849 9.50731773,11.7292788 9.51576809,11.7151438 L9.51576809,11.7151438 L9.52811342,11.7064345 L9.599,11.649 L9.5887021,11.6572523 C9.57734515,11.6632597 9.60162434,11.6372358 9.61418724,11.6279673 L9.62109091,11.6260909 L9.65802811,11.5739202 C9.71513073,11.4847545 9.69154667,11.4869843 9.64034566,11.5264779 L9.64034566,11.5264779 L9.611,11.549 L9.63506462,11.5023756 C9.68504173,11.3983824 9.61263955,11.4822324 9.54092857,11.5975081 L9.51430973,11.6419041 L9.51238446,11.6418536 L9.49161039,11.6650937 C9.47498992,11.6825389 9.45945591,11.6995418 9.44687859,11.7146711 C9.42116374,11.6919819 9.39067209,11.6743546 9.3553263,11.6614834 C9.34023411,11.6397704 9.33174727,11.6383488 9.32861028,11.6543054 C8.92155,11.5532671 7.98740976,12.1354546 6.92245999,14.0724743 L6.92245999,14.0724743 L6.841,14.222 L6.839,14.225 Z" id="Combined-Shape"></path>
            </g>
        </g>
    </g>
</svg>