<?xml version="1.0" encoding="UTF-8"?>
<svg width="60px" height="60px" viewBox="0 0 60 60" version="1.1" xmlns="http://www.w3.org/2000/svg" xmlns:xlink="http://www.w3.org/1999/xlink">
    <title>0CDA2B67-C33A-4ED8-9CDD-C72CD5AB822E</title>
    <g id="Page-1" stroke="none" stroke-width="1" fill="none" fill-rule="evenodd" opacity="0.150319417">
        <g id="UiKit_Icons" transform="translate(-980.000000, -3030.000000)" fill="#999999">
            <g id="Icon_stamp_lose2_tc" transform="translate(980.000000, 3030.000000)">
                <path d="M51.531,11.669 L51.536,11.667 C51.5294323,11.6708976 51.5279625,11.6715901 51.5269604,11.6720622 L51.7033606,11.6720568 C52.2314513,11.6675461 52.5526424,11.6426489 52.7217107,11.6125053 C52.5890845,11.7918456 52.6800236,11.9092647 52.8335809,11.7742048 C52.8569495,11.8545408 52.8883472,11.8845329 52.9197929,11.786657 C52.9489056,11.8586277 52.9683556,11.8705095 52.9536916,11.7350487 C53.0326347,11.8408732 53.1712876,11.9932329 53.3451145,12.1709411 L53.3451145,12.1709411 L53.516749,12.3434467 C53.6169509,12.4426608 53.7245519,12.5469143 53.836136,12.6532575 L53.836136,12.6532575 L53.9717302,12.7816835 L54.1098364,12.9109828 C54.2256072,13.0187815 54.3426282,13.12631 54.4574835,13.2306185 L54.4574835,13.2306185 L54.5940517,13.3540544 C54.6827094,13.4338006 54.7691763,13.510818 54.8517841,13.5836657 C57.8939814,18.2580275 59.6610169,23.8379114 59.6610169,29.8305085 C59.6610169,32.1174287 59.4036711,34.3442426 58.9163586,36.4835709 C58.3626074,36.6984238 58.0499596,37.1654064 58.5724442,37.8383524 C55.0745212,50.4247581 43.5311368,59.6610169 29.8305085,59.6610169 C18.9358872,59.6610169 9.40535435,53.8206598 4.19899774,45.1000331 C4.21928077,44.366612 4.22820591,43.8468386 4.22960155,43.4944707 L4.22960155,43.4944707 L4.22945231,43.2835948 C4.223887,42.4108681 4.15261756,43.0642759 4.11895631,43.8612743 L4.11895631,43.8612743 L4.11235647,44.0337537 L4.1071338,44.2076056 C4.10639067,44.2365274 4.10571433,44.2653804 4.1051095,44.2941016 L4.1051095,44.2941016 L4.10237615,44.4643442 C4.10207615,44.4922865 4.10185706,44.5199711 4.10172359,44.547335 L4.10198785,44.7071664 C4.10273092,44.7914083 4.10448489,44.870899 4.10741303,44.9434534 C1.49691399,40.5120371 0,35.3460843 0,29.8305085 C0,24.276754 1.51770892,19.0774794 4.16099845,14.624813 C3.97016293,15.6075908 3.89168426,16.3181802 3.88462557,16.624804 L3.88469611,16.7072774 C3.89580599,17.0409772 4.05978204,16.4228049 4.23380439,14.3957331 L4.22222918,14.5221383 C9.43367342,5.82301784 18.9520716,0 29.8305085,0 C36.40414,0 42.4811461,2.12630639 47.4112709,5.72866337 C47.387625,5.87576282 47.3641393,6.03748381 47.3427408,6.20267887 L47.3427408,6.20267887 L47.3146454,6.43193631 C47.1953164,7.46403124 47.1794783,8.43789678 47.5763791,6.75662344 L47.5763791,6.75662344 L47.649,6.431 L47.6364477,6.47417272 C47.5872887,6.61101536 47.6544245,6.02022499 47.669235,6.18564719 L47.6717499,6.24361588 L47.671,6.292 L47.6741355,6.12257423 C47.6747361,6.04951793 47.6749758,5.98077305 47.6748733,5.91617361 C50.3419964,7.91742387 52.6645407,10.3475069 54.5366018,13.1079138 C54.1768724,12.7639871 53.7100934,12.3221768 53.1177507,11.7676011 L53.1177507,11.7676011 L52.968,11.627 L53.0180852,11.6715818 C53.8739193,12.425208 53.7515584,11.6979348 53.0071113,11.5878927 L52.999,11.586 C52.9992917,11.5755651 53.0039149,11.5667114 53.0065836,11.5584133 L53.0090149,11.5352002 L53.043019,11.4674714 L53.043019,11.4674714 L53.0638039,11.4222667 L53.093,11.349 L53.093,11.352 L53.0941914,11.3507101 L53.1050676,11.3225694 C53.0436563,11.3527095 52.9895931,11.3836498 52.9422724,11.4146706 L52.9422724,11.4146706 L52.929616,11.4235488 C52.8743582,11.3075943 52.8389903,11.2885642 52.818944,11.3211779 C52.804658,11.3060761 52.8013738,11.3232205 52.8053858,11.3585845 C52.8003887,11.3813622 52.7975199,11.4103698 52.79648,11.4428597 L52.79648,11.4428597 L52.7956567,11.486979 C52.7864973,11.4913259 52.7784191,11.4965622 52.7743446,11.5029911 C52.5490947,11.4616175 52.0122783,11.4704481 51.5931848,11.6429387 L51.5931848,11.6429387 L51.5468028,11.6627141 L51.544,11.663 L51.537,11.666 L51.531,11.669 Z M9.626,11.627 L9.627,11.624 L9.627,11.593 L9.628,11.593 L9.628,11.579 L9.59479651,11.773569 C9.59450994,11.7752661 9.59422366,11.7769623 9.59393766,11.7786576 C9.55888184,11.8166143 9.52470186,11.8551235 9.49063008,11.8937304 C9.48995374,11.8130011 9.47070713,11.7454486 9.43599222,11.6921852 C9.44534626,11.6767364 9.45422218,11.6619825 9.46263761,11.647901 L9.46263761,11.647901 L9.47428227,11.6402964 L9.54,11.587 C9.51947159,11.5993568 9.56740976,11.5506986 9.56877019,11.5566362 L9.562,11.568 L9.60346298,11.5085308 C9.65077965,11.4346459 9.64238047,11.4238714 9.60880358,11.4450583 L9.58588043,11.4613566 L9.556,11.484 L9.5804278,11.4378047 C9.63024664,11.3342809 9.55887047,11.416562 9.48586295,11.5316734 L9.458,11.576 L9.4590709,11.5760628 L9.43798548,11.5991892 C9.42132826,11.616673 9.40576851,11.63371 9.39323399,11.6482465 C9.36796784,11.6260178 9.3380772,11.6086925 9.30272138,11.59596 C9.28721796,11.573533 9.27866337,11.572457 9.27590627,11.5884619 C8.87114576,11.4879944 7.94228315,12.0668927 6.88335005,13.9929688 L6.88335005,13.9929688 L6.79120339,14.162919 L6.78220339,14.178919 C7.34213433,13.9749178 7.80473112,13.74065 8.17855856,13.5011565 C4.74630586,18.0440342 2.71186441,23.6996867 2.71186441,29.8305085 C2.71186441,32.7606564 3.17657965,35.5822643 4.03632788,38.2256499 C3.99143492,38.4192949 3.94901084,38.6463336 3.92220339,38.874919 L3.92220339,38.874919 L3.92214788,38.8784373 L3.92020339,38.898919 L3.91920339,38.907919 L3.91698941,38.9334138 L3.91520339,38.943919 L3.915,38.951 L3.96741345,38.7651336 C3.98396117,38.7041811 3.9995114,38.6462277 4.01406336,38.5912859 L4.054,38.436 L4.05372522,38.5381906 C4.05313148,38.6025405 4.05267931,38.658761 4.05235568,38.7073329 L4.05196502,38.7745144 L4.05191461,38.863801 C4.04950711,38.8734049 4.04727494,38.8838041 4.04600468,38.8950396 C3.94865469,38.9635578 3.86861526,39.0964985 4.03910396,39.0443876 C4.04136381,39.0693205 4.04539785,39.0948863 4.05165464,39.120465 L4.051,39.119 L4.06195981,39.0748429 L4.06195981,39.0748429 L4.06868192,39.0358121 C4.10220844,39.0237951 4.14328613,39.0061314 4.19305032,38.9816154 L4.19305032,38.9816154 L4.17396339,38.9854491 C4.15993025,38.9789116 4.18650049,38.9342788 4.19294214,38.9535686 L4.19294214,38.9535686 L4.192,38.966 L4.19529817,38.9259701 C4.19295244,38.8950447 4.18336003,38.8759926 4.16917234,38.8659979 L4.14477576,38.8574471 L4.12284873,38.8593921 L4.11547479,38.8603706 L4.09758658,38.8654459 C4.10465062,38.7693764 4.07891654,38.7785545 4.05812293,38.8408441 L4.058,38.839 L4.06030119,38.7551521 C4.06183306,38.691065 4.06352896,38.6134746 4.06541667,38.5248693 L4.06839556,38.3840114 C4.07153929,38.3717754 4.07462697,38.3597136 4.07765928,38.3478245 C7.64869271,49.1532569 17.8291861,56.9491525 29.8305085,56.9491525 C44.807722,56.9491525 56.9491525,44.807722 56.9491525,29.8305085 C56.9491525,29.403742 56.9392946,28.979278 56.9197939,28.5573318 C58.8747771,28.6797443 58.5471281,28.5294937 57.2551883,28.4696146 C57.7396458,27.8110711 58.0543572,27.5701605 58.2036432,27.4904687 L58.2036432,27.4904687 L58.224,27.479 L58.1884293,27.4800957 C58.0115498,27.4760849 57.6343994,27.3721552 57.0629529,26.8137321 L56.9276343,26.6766359 L56.849,26.59 L56.901455,26.6390036 C57.0944088,26.8056926 57.0559616,26.6019267 56.8424315,26.5358045 L56.785434,26.5224355 L56.9428488,26.5463226 C59.046515,26.8387012 57.9994652,25.5607034 56.6829736,26.0197354 C56.144598,22.1873681 54.8044872,18.6118592 52.8380095,15.4683099 L52.8571367,15.3677394 L52.8571367,15.3677394 L52.878,15.167 L52.890586,15.2290918 C52.9497349,15.5340706 53.0053166,15.6568964 52.9886082,15.1093416 L52.9842823,14.9907476 L52.977,14.851 L52.978965,14.8900294 C52.9815073,15.0321072 52.9419503,14.7114642 52.9659242,14.7843229 L52.972,14.808 L52.9379888,14.6618637 C52.751054,13.8904814 52.7483056,14.1874063 52.7996581,14.626525 L52.808197,14.6969062 C52.7001158,14.4562649 52.4598026,14.2825269 52.0065997,14.215535 C51.0027856,12.7946123 49.8669276,11.4739886 48.6160325,10.272216 C48.9109911,9.21466674 48.9506545,8.15724331 48.2075947,9.88917107 C43.3771605,5.43358714 36.9216807,2.71186441 29.8305085,2.71186441 L29.788,2.711 L29.7876471,2.69504452 C29.7869673,2.68488051 29.7864385,2.67697517 29.7852034,2.66491898 L29.7852034,2.66491898 L29.7842034,2.65491898 L29.7832034,2.63991898 L29.7838231,2.63787195 L29.7822034,2.61691898 L29.7815287,2.60356841 L29.7815287,2.60356841 L29.779121,2.56757086 L29.7772034,2.54591898 L29.77677,2.53242032 C29.7752593,2.50983362 29.7738996,2.4895056 29.7729177,2.47482424 L29.7729177,2.47482424 L29.771,2.457 L29.7740824,2.64015815 C29.7744637,2.66446474 29.774853,2.68859602 29.7752501,2.71255162 L29.8305085,2.71186441 C26.3898992,2.71186441 23.0989417,3.35259952 20.0704489,4.52125662 C19.8693054,4.32529949 19.5392197,4.07161805 19.0371333,3.75488918 L19.0371333,3.75488918 L19.0865299,3.79163425 C19.2776137,3.95956171 19.1777164,4.23226841 19.0836384,4.28583716 L19.0836384,4.28583716 L19.0712034,4.28991898 L19.0763725,4.30298749 C19.1529793,4.49262594 19.2899448,4.65113325 19.4464725,4.77283058 C19.3117798,4.82690137 19.1768415,4.88417107 19.0424679,4.94249713 L18.9830508,4.94449268 C18.9955871,4.94704436 19.0080123,4.94965605 19.0203337,4.95232192 C18.0754814,5.3632813 17.1593897,5.82624403 16.2748687,6.33772644 C16.2920569,6.29446481 16.311381,6.1710786 16.3326849,5.93997249 L16.3326849,5.93997249 L16.342,5.822 L16.3404372,5.83729774 C16.3280368,5.90843703 16.3226521,5.61527632 16.3384456,5.72886844 L16.34,5.742 L16.3285872,5.6196621 C16.2401768,4.75352132 16.2006145,5.03895952 16.1972241,5.48508111 L16.197767,5.66975074 C16.2017104,5.97800167 16.2204007,6.29846869 16.2502925,6.35401264 C13.7644812,7.79279529 11.5281357,9.61759747 9.62282024,11.7450415 L9.62589673,11.6729809 L9.62589673,11.6729809 L9.625,11.669 L9.62618514,11.6625816 L9.626,11.632 L9.627,11.626 L9.626,11.627 Z M40.8125139,50.0998717 C41.1502649,50.2919174 41.5544542,50.4901574 42.0338983,50.6910039 L41.9772656,50.6676023 C41.8685062,50.7886371 42.2788142,50.7863238 42.0248749,50.6287787 L42.0248749,50.6287787 L42.0331228,50.6391639 C42.0321823,50.6415284 42.0284766,50.6427769 42.0247788,50.6428526 L42.0247788,50.6428526 L42.0222034,50.630919 L42.0041443,50.5284039 C41.9928809,50.4716554 41.9808986,50.4160381 41.9689716,50.362432 C42.0181076,50.4628117 42.0594211,50.5373007 42.092626,50.587959 C42.006333,50.5946199 42.0053844,50.6186487 42.1573598,50.669991 C42.1807061,50.6913882 42.1984667,50.6957404 42.2095471,50.6855508 C42.264258,50.7021077 42.333029,50.7210442 42.4176058,50.7425857 C38.744219,52.961484 34.4363538,54.2372881 29.8305085,54.2372881 C27.0111823,54.2372881 24.3035062,53.7592572 21.7841111,52.8798265 C21.7797408,52.6323494 21.7675807,52.2601705 21.7462292,51.7333819 L21.7462292,51.7333819 L21.739,51.583 L21.7418362,51.6449992 C21.7472409,51.8567134 21.7144737,51.3770945 21.7267334,51.4256521 L21.7303997,51.4467887 L21.7264544,51.4164732 C24.2475482,52.3634183 26.978543,52.8813559 29.8305085,52.8813559 C33.7682428,52.8813559 37.4753636,51.8939819 40.7177959,50.1533087 Z M12.2033898,50.7623566 C11.3203062,50.5591092 10.7312746,50.3780704 9.49152542,50.6217689 C10.5480719,50.8735974 11.1811649,50.9741305 12.2033898,50.7623566 Z M42.6763322,50.5871857 L42.6219174,50.6201639 C42.4801902,50.6043029 42.3438014,50.5924796 42.2381193,50.587973 L42.2381193,50.587973 L42.2389907,50.5514939 C42.2353676,50.263221 42.0798605,49.6137848 41.9613831,49.4340827 C43.9850682,48.1799015 45.7997847,46.6206736 47.3418675,44.82095 C47.3420021,45.0390608 47.3423234,45.257358 47.3427093,45.4758801 C47.5368866,45.1765139 47.6224779,44.8779887 47.5478072,44.5798712 C48.5976667,43.3175724 49.5170529,41.9416531 50.282872,40.4729232 L50.3741682,40.4752083 C50.9623266,40.4915608 51.4418776,40.4754046 51.8180142,40.4413144 C49.7918665,44.6286268 46.6056938,48.1502282 42.6763322,50.5871857 Z M21.8175219,44.5633455 C21.8691061,43.824521 21.7476789,44.2711383 21.6545358,44.7639258 L21.6545358,44.7639258 L21.6248118,44.9283355 C21.5357517,45.4444836 21.503126,45.8710328 21.7636775,44.8680889 L21.7636775,44.8680889 L21.789,44.763 L21.7805811,44.7905467 C21.7678866,44.8168386 21.7979897,44.6511179 21.807019,44.6450035 L21.8094818,44.6568747 L21.809,44.659 Z M31.8102835,32.554075 L34.9500499,38.8053602 C34.8007749,38.7996586 34.589911,38.801038 34.3032525,38.8120987 C33.2610694,39.2489141 34.497448,39.1206511 35.0317335,38.9728784 L36.0015178,40.9064078 L33.3403128,41.8227341 L32.2104386,39.5465769 L28.4971293,40.8251718 L28.2809289,43.5648197 L25.758973,44.4331988 L25.856,42.754 L25.9048404,42.771619 C26.7985853,43.0623696 26.5873693,42.6152386 26.2466541,42.5052472 L26.1972049,42.4919437 L26.1502034,42.483919 L26.166269,42.4658667 C26.3285045,42.2583089 26.4991572,41.9523859 26.65048,41.6340766 L26.65048,41.6340766 L26.7244021,41.4742877 L26.7943319,41.3148228 C26.9802337,40.8794182 27.1122249,40.4747111 27.1173131,40.3250919 C27.1391683,40.3219976 27.162954,40.2955381 27.1816684,40.2274143 L27.1816684,40.2274143 L27.1297289,40.2021532 C27.0709261,40.182391 27.0524125,40.2143573 27.0560604,40.2506752 L27.0560604,40.2506752 L27.0622811,40.276723 C26.9354238,40.3787339 26.5815514,40.9834891 25.8722886,42.4887815 L26.3121283,34.9318242 L25.7142674,34.6531017 L31.8102835,32.554075 Z M21.7746445,40.2452569 C21.99778,40.0599252 21.3600588,40.4028841 21.6386376,40.3183998 L21.6386376,40.3183998 L21.68,40.303 C21.6819704,40.3001984 21.71044,40.2880717 21.7163412,40.2882936 L21.7130057,40.2934053 L21.7268678,40.2813389 C21.6911261,40.5276164 21.6175364,42.9005721 21.6555565,42.8659611 C21.6590571,43.0771116 21.6894932,43.290664 21.7346119,42.8610808 L21.731,42.884 L21.73,42.887 L21.7260295,42.8758229 C21.7251916,42.8664033 21.7248975,42.8537931 21.7252991,42.8445008 L21.7287425,42.8330861 L21.732,42.849 L21.717575,42.7558513 C21.7074962,42.7002639 21.6987544,42.6649312 21.6913788,42.6473952 L21.6844597,42.6357002 C21.695282,42.5060501 21.7086556,42.3174784 21.7249631,42.0584031 L21.7249631,42.0584031 L21.7292034,41.970919 L21.7273592,41.980788 C21.7267189,41.9804648 21.7263182,41.9746071 21.7261143,41.9646296 L21.7269107,41.866644 C21.7293844,41.741856 21.7358633,41.5706139 21.737106,41.6584972 L21.737106,41.6584972 L21.737,41.682 L21.7385681,41.6464518 C21.7412226,41.4058046 21.7429613,41.2014338 21.743906,41.0296511 L21.7444676,40.9068668 L21.7441168,40.5493626 C21.742915,40.3937584 21.740128,40.3070224 21.7362204,40.2750853 L21.7362204,40.2750853 Z M49.5179192,26.4564316 C49.1398659,26.8409946 49.0665386,27.219811 48.8135593,28.5267275 L48.848,28.348 L48.7840594,28.3709612 L48.815,28.514 L48.8135593,28.5267275 C48.815238,28.5259878 48.816916,28.5252471 48.8185935,28.5245054 L48.8823512,28.8168777 C48.7463325,29.1655025 48.789773,29.7748955 49.2158167,30.3449723 L49.3518484,30.9597492 C49.2924908,30.9623113 49.2294712,30.9652237 49.1626542,30.9685022 L49.1626542,30.9685022 L48.9262876,31.0081242 C46.2949883,31.4530706 47.7587447,31.3442826 49.0031183,31.1840735 L49.1831548,31.1603195 C49.5085144,31.1163113 49.8029335,31.0703656 49.9830917,31.0321829 C50.0403282,31.0647164 50.102365,31.0987466 50.1694915,31.1342894 L50.147,31.122 L50.0774571,31.0837129 L50.0774571,31.0837129 L49.9900692,31.0315726 C50.0600839,31.0166813 50.1123873,31.003003 50.1399135,30.991083 C50.1549607,31.0360346 50.1651992,31.083791 50.1694915,31.1342894 L50.168,31.124 L50.1569844,30.9841746 C50.1681771,30.9780052 50.172069,30.9724251 50.1678024,30.9675341 L50.1551763,30.9607272 L50.1486728,30.9113763 C50.142312,30.8489604 50.135634,30.7879811 50.1286546,30.7284146 L52.7538526,29.8245415 C52.7583727,30.1918984 52.7908793,30.6049974 52.8684863,31.0191391 L52.8684863,31.0191391 L52.875,31.049 L52.8690727,31.008514 C52.8515623,30.8731228 52.8944103,30.951987 52.8937376,31.0830223 L52.892,31.117 L52.9119877,30.9055204 C53.0200853,29.6774302 53.025378,28.997214 52.9885064,28.7047535 L52.9805879,28.651384 C53.1014128,28.6708729 53.322403,28.6813294 53.5865918,28.6841599 L53.5865918,28.6841599 L53.911061,28.684085 C53.9860316,28.6833362 54.0624167,28.6821116 54.1392237,28.6804358 L54.1392237,28.6804358 L54.2105752,28.6783893 C54.2204308,28.8904738 54.2275796,29.1032654 54.2319878,29.3167305 L54.2631309,29.3053284 L54.6198476,30.8439269 L54.210484,30.9845881 C54.0600502,34.2162601 53.2811221,37.2837021 51.9931432,40.0674707 C51.5812014,40.1115787 51.0300042,40.2169679 50.3517469,40.4140864 L50.3517469,40.4140864 L50.3062991,40.4278721 C51.7156157,37.7103772 52.5998264,34.6767181 52.8245639,31.4612622 L49.5759358,32.580685 L50.2513423,35.9997997 L49.4281599,36.2833608 C49.3459945,36.2759487 49.2561178,36.2682679 49.1581054,36.2603128 L49.1581054,36.2603128 L49.0152034,36.248919 L49.0507714,36.2545862 C49.1540374,36.275391 48.4588671,36.271129 48.8508173,36.249103 L48.8508173,36.249103 L48.9521334,36.2441139 C48.1266517,36.2804574 47.6974884,36.3140245 47.5378842,36.3410262 C47.5417979,36.3007101 47.540991,36.2712804 47.5360233,36.2548141 C47.5513167,36.1899893 47.565866,36.0891641 47.5790018,35.944236 L47.5790018,35.944236 L47.587,35.832 L47.5845843,35.8559366 C47.5707155,35.9313006 47.552885,35.7265296 47.5668234,35.7275316 L47.5766054,35.7474298 L47.586,35.784 L47.5531963,35.6318794 C47.3427128,34.6876472 47.3026815,35.0552212 47.3348487,35.5439559 L47.3465665,35.6930204 C47.3670974,35.9184975 47.4002589,36.1443991 47.4370975,36.2622276 C47.3661139,36.354728 47.3166197,36.5370975 47.5157755,36.4736884 L47.5157755,36.4736884 L47.5299964,36.3952892 C47.6936752,36.4221516 48.1139134,36.4412162 48.572162,36.4497292 L48.572162,36.4497292 L48.8018821,36.4530771 C48.8403592,36.4534864 48.8788487,36.4538202 48.9172269,36.454077 L48.9172269,36.454077 L48.93,36.454 L47.2806949,37.0226757 L46.18786,31.2392314 C46.3229061,31.2411377 46.4455444,31.2424402 46.5565252,31.2431892 L46.5565252,31.2431892 L46.8620603,31.2438012 C48.1143103,31.2390473 47.154526,31.1323437 46.1556419,31.0695988 L45.6736022,28.5174955 C46.3125812,28.5892374 47.0928958,28.2515244 47.3614689,27.199521 Z M38.0072336,40.1561562 C37.9800054,40.1672574 37.9577772,40.1787227 37.9399455,40.1903181 C37.7732276,40.1985539 37.6217079,40.1565827 37.4861882,40.0663709 C37.269143,39.9218896 37.1091214,39.7000851 37.0061235,39.4009574 L36.9306919,39.0375065 C37.954653,39.1584491 38.1992378,39.1218159 37.7524053,39.0386897 L37.7524053,39.0386897 L37.6266526,39.0170534 C37.4521811,38.9890457 37.2115906,38.9574371 36.9075242,38.9255653 L35.4475388,31.9593154 L34.7964031,31.5258716 L38.3549911,30.3005515 L39.822274,37.9293899 L40.9686442,37.5340264 C40.753673,37.851645 40.5851898,38.2267154 40.4822597,38.7540003 C40.1469139,38.7750727 39.8262539,38.8294496 39.6024462,38.9317156 L39.6024462,38.9317156 L39.5662034,38.948919 L39.5958811,38.9441589 C39.8044838,38.9226057 39.9217492,39.1704676 39.3220339,39.1704676 L39.3220339,39.1704676 L39.5736266,39.1698535 C39.8915671,39.1682674 40.1731321,39.1636558 40.4200167,39.1563418 C40.4111666,39.2320068 40.4034138,39.3104058 40.3967956,39.3917245 L38.2604476,40.1285958 C38.1774753,40.1571655 38.0976607,40.1762146 38.0210038,40.1857432 L38.0072336,40.1561562 L38.0072336,40.1561562 L38.013823,40.1792846 C38.0106021,40.1934928 37.9840721,40.1832942 37.9893338,40.1698705 L37.9893338,40.1698705 Z M29.9390146,34.8598305 L28.9023825,35.2167716 L28.5891041,39.1320764 L31.5597515,38.1092005 L29.9390146,34.8598305 Z M29.8933527,38.8773975 C29.6303455,38.4892206 29.6663193,39.5033243 29.9461837,38.9673345 L29.919,39.012 L29.9781049,39.0296003 C30.2236628,39.0908951 30.765379,39.1254765 31.526017,39.058555 L31.7388335,39.0377308 C32.4193491,39.0503567 32.8759502,39.0375781 32.2335282,38.9743884 C32.3339546,38.9594203 32.4369412,38.9428522 32.5423729,38.924573 L32.5423729,38.924573 L32.3280552,38.9039505 C30.8862229,38.7707275 30.1270225,38.8150035 29.9025848,38.8942933 L29.9025848,38.8942933 Z M27.2511181,38.3085611 C27.4280053,36.8048318 26.6798751,34.4827358 27.0760098,38.9569752 L27.073,38.925 L27.0638844,38.8402989 C27.0135123,38.8557683 26.9901388,38.879921 26.9837834,38.9072235 L26.9827309,38.9353709 C26.7774645,38.9384407 26.8572241,38.9523481 26.996868,38.9642776 L26.996868,38.9642776 L27.002598,38.9741064 L26.9847935,38.977313 C26.8862267,38.9964684 26.8445209,39.0072489 27.0082196,38.9824659 C27.0809632,39.0844683 27.2904007,39.1657937 27.2471701,38.9778748 C27.3748316,38.9819296 27.4475327,38.9774205 27.2870099,38.9537123 L27.238,38.947 L27.2384996,38.9453195 C27.4008999,38.9066924 27.3436906,38.9137912 27.2342723,38.9342552 C27.2230776,38.9028918 27.2065275,38.8660568 27.183594,38.8230951 L27.183,38.824 L27.1846122,38.8404819 C27.1753841,38.8510413 27.1416461,38.8431233 27.1394594,38.8347723 L27.1498661,38.8269452 L27.183594,38.8230951 L27.140398,38.8265388 C27.2363464,38.6147764 27.2597872,38.4657209 27.2485456,38.385682 L27.2485456,38.385682 L27.2432034,38.363919 Z M55.6528385,38.9569752 C59.3649092,35.797007 58.4592432,36.024755 57.2426485,36.968895 L57.1064106,37.0766118 C56.9921774,37.1686064 56.876646,37.2658947 56.7632354,37.366356 L56.7632354,37.366356 L56.6261565,37.4903506 C56.0838891,37.9914848 55.6252357,38.5476474 55.6475194,38.9123964 L55.6475194,38.9123964 L55.6512034,38.949919 Z M45.6088477,35.9369128 L45.9810366,37.4701839 L44.758229,37.8883506 C44.670761,37.5062927 44.6497731,37.6421268 44.6607273,37.9246018 L41.9262115,38.8671072 C41.770061,38.8116902 41.4604916,38.766195 41.1070118,38.7501831 C41.3247783,38.2200317 41.5355991,37.7013524 41.7010135,37.2825437 L45.6088477,35.9369128 Z M32.5915437,35.5603662 C32.4655544,34.6784993 32.4546023,35.0934967 32.4821866,35.5927071 L32.4821866,35.5927071 L32.4933978,35.7704211 C32.5289907,36.2726622 32.5941198,36.7164514 32.6122845,35.8891372 L32.6122845,35.8891372 L32.6132034,35.771919 L32.6107369,35.7849621 C32.6023394,35.7867569 32.586565,35.5503404 32.6059755,35.6678753 L32.605,35.667 Z M9.28158866,25.0152845 C9.233366,25.7547561 9.26334666,26.3042027 9.46715264,25.5778673 L9.51700783,25.8430887 C9.27262026,25.7901396 9.38685148,26.1423016 9.56338938,25.9344497 L9.54,25.956 L9.56268127,26.0809988 C9.54106242,26.0925993 9.52634521,26.1040422 9.51943502,26.1152535 L9.51573579,26.1355895 C9.53573955,26.1329501 9.55561096,26.1303249 9.57535021,26.127714 L9.8998082,27.8274927 C9.30727051,28.1354668 9.4244453,28.4187956 9.84069457,28.5022624 C9.47313393,28.6040403 9.33157898,28.7120915 9.73625713,28.7477579 C9.34263844,28.9544153 9.34367378,29.3098924 10.3422596,29.8305085 L10.278,29.795 L10.9437422,33.2555449 L17.131,31.125 L17.2338378,31.6334044 C17.2430073,31.8052353 17.2884012,31.9552187 17.3700194,32.0833547 L17.4357323,32.1738062 L17.4357323,32.1738062 L17.486,32.227 L17.615735,32.7580716 L9.25176364,35.6380179 L9.11560504,35.6776312 C8.8487321,35.7404432 8.61452462,35.7047687 8.41298261,35.5706075 C8.17785026,35.4140862 8.00449354,35.173798 7.89291245,34.849743 L7.89291245,34.849743 L6.781,29.544 L6.78274917,29.4493206 C6.79659195,28.5955382 6.85685326,27.7530398 6.96111941,26.9242389 C7.70525469,28.2320819 10.4199314,29.9638633 9.16495697,26.4620974 L9.16495697,26.4620974 L9.104,26.3 L9.12149362,26.3517937 C9.25846277,26.8372982 8.50255409,26.1204178 9.00837665,26.2445171 L9.09398234,26.2696948 L8.89495433,26.204959 C7.98287509,25.9172509 7.41714524,25.8672263 7.10286812,25.9645101 L7.139,25.753 Z M24.8439445,19.710149 L24.9592335,19.7114646 C25.1125634,19.7211647 25.2540334,19.7599467 25.3836437,19.8278107 C25.5132539,19.8956747 25.6179063,19.9908811 25.6976007,20.11343 C25.7772951,20.2359788 25.8236508,20.3887558 25.836668,20.571761 L25.836668,20.571761 L27.3436526,28.0850991 C27.2154585,28.249596 27.1329547,28.4002085 27.1186441,28.5267275 L27.126,28.49 L27.1293317,28.4748058 C27.0245536,28.390769 27.026546,28.6536657 27.1378877,28.5833021 L27.1847716,28.5399656 L27.1729581,28.5469799 C27.1679957,28.545058 27.168668,28.5332995 27.1738225,28.5318618 L27.1738225,28.5318618 L27.182,28.537 L27.1733513,28.5255102 C27.263833,28.5229462 27.3499948,28.5177316 27.4320884,28.5100321 L27.5935961,29.3224185 L27.3071204,29.4205629 C27.3321713,27.896958 27.1659776,28.590886 27.0455058,29.5110473 L21.6768606,31.3597323 C21.5371098,30.9857653 20.5942444,30.9454253 19.133928,32.2831668 L19.221,32.205 L18.5759275,32.4274508 L18.4588889,32.4618915 C18.3421418,32.4903727 18.2262696,32.5009759 18.1112722,32.4937008 C17.9579424,32.4840007 17.8164724,32.4452187 17.6868621,32.3773547 C17.622057,32.3434227 17.5632509,32.3019567 17.5104437,32.2529567 L17.486,32.227 L17.2125304,31.097028 L17.131,31.125 L16.6380887,28.67691 C16.7771111,28.6865894 16.9596574,28.6945406 17.1923919,28.7002768 L17.3564931,28.7037941 L17.3132922,28.7015653 C17.2167018,28.6896653 17.7551043,28.6408552 17.4451141,28.6903654 L17.4451141,28.6903654 L17.593598,28.6688127 C20.5108639,28.2317434 18.1188049,28.3242961 16.8895679,28.4747088 C16.7692247,28.4691395 16.651405,28.465262 16.5514337,28.4638343 L16.597,28.464 L15.5658362,23.3239266 C16.3816193,23.2686514 16.4000724,23.2408214 16.0721469,23.2370378 L16.0229709,23.2366605 L15.9079004,23.2369068 C15.8037862,23.2376914 15.6823803,23.2399274 15.5505818,23.2435628 L15.4769097,22.8827469 L24.4945782,19.7777146 L24.6116169,19.743274 C24.7283639,19.7147927 24.8442361,19.7041896 24.9592335,19.7114646 Z M51.8643559,30.9496925 C51.6211195,30.9377096 51.525216,30.9521034 51.5254237,30.9813833 C51.5260989,30.9818606 51.526774,30.9823373 51.5254723,30.982152 C51.5269943,31.0000997 51.5642216,31.0234582 51.626845,31.0499764 C51.9289928,31.2444724 52.2185745,31.3374109 52.6457379,31.3077528 C52.8125223,31.3316061 52.9159212,31.3304252 52.8707244,31.2846397 L52.8707244,31.2846397 L52.8813559,31.2829826 C52.6598792,31.1190363 52.4469874,31.0132684 52.1735412,30.9728743 L52.1735412,30.9728743 L52.1340829,30.9687494 C52.0853133,30.9616328 52.0361406,30.9577719 51.9847986,30.9558304 L51.9847986,30.9558304 Z M21.8225902,22.0883704 C21.8172826,21.8710596 21.7580065,22.1176114 21.6982368,22.5389948 L18.9307011,23.4933893 L19.4237241,25.8832046 C19.3550776,25.8895004 19.2922888,25.8959562 19.2369517,25.902504 C19.1191092,25.8937321 19.0351546,25.8879347 19.0005328,25.8864048 L19.0005328,25.8864048 L18.9822034,25.885919 L19.2138571,25.9053195 C19.0345413,25.9275005 18.9428019,25.9506172 19.0009362,25.9716572 C18.96526,25.9857312 18.9811318,25.9987168 19.066128,26.0100043 C18.4260167,26.8183449 18.8001502,27.3575052 19.0631384,27.1935426 L19.0631384,27.1935426 L19.1662886,26.0194945 C19.2383815,26.0248558 19.3334146,26.0294917 19.4542787,26.0332389 L20.2846676,30.0392063 L21.6972951,29.5526384 C21.7459537,29.9625592 22.5442008,30.074283 24.4067797,28.7794269 L24.397,28.785 L24.3274747,28.8290493 C24.0746409,28.9701501 23.8435445,28.9386764 23.7048786,28.8606733 L23.9889515,28.7637191 L23.963,28.625 L24.0262034,28.641919 L23.9850495,28.6296512 C23.9776711,28.6275892 23.9703063,28.6255607 23.9629552,28.6235655 L23.6703106,27.0157441 C23.9039143,27.0550128 24.1493216,27.1169428 24.4067797,27.2229465 L24.325,27.193 L24.1879494,27.1448185 C24.1858407,27.1729251 24.183825,27.2010802 24.1819051,27.2292314 L24.1715595,27.3976717 C24.16241,27.5652252 24.1569169,27.7288581 24.1556947,27.8772305 L24.1559188,28.020096 C24.1649492,28.7504359 24.3012854,28.93918 24.6581252,26.8660245 L24.65,26.909 L24.6418306,26.952725 C24.5785667,27.2540368 24.6029035,26.6634495 24.6397195,26.7597917 L24.649,26.798 L24.6386655,26.6972519 C24.4758981,25.3669518 24.3048356,25.9687506 24.2164156,26.8239676 L24.2069359,26.9199493 C23.9299769,26.5093837 23.7114515,26.2332946 23.4983766,26.0768831 L22.9908601,23.2903786 C23.0323305,23.2825827 23.0544605,23.2752388 23.0500334,23.2688642 C23.0545536,23.2635626 23.0400764,23.2600927 23.0119467,23.2583773 C23.0046089,23.2574244 22.9961757,23.2565167 22.9865991,23.2556574 L22.7858382,22.1659591 L21.8059445,22.5007757 C21.8153713,22.3614742 21.8205785,22.2549692 21.8223133,22.1772214 L21.8223133,22.1772214 Z M29.8432034,28.532919 L29.8362034,28.528919 C29.8305085,28.5267275 29.8323313,28.5276018 29.8357166,28.5292254 L29.86,28.541 L29.8168889,28.5546653 C29.8006039,28.5103914 29.7878746,28.5212475 29.7783343,28.569178 L28.821972,28.8994548 L28.6410862,28.0429678 C28.9232965,27.7857305 29.0753122,27.4536689 29.2034835,27.1168007 L29.2034835,27.1168007 L29.2857063,26.8946257 C29.3305083,26.7722145 29.3752493,26.6512121 29.4250484,26.5350977 L34.7622744,24.6979406 L34.563833,23.521304 C35.2892023,23.6032458 35.6766671,23.5833401 34.5248561,23.2851026 L34.4170272,22.6607148 L33.2434223,23.06376 C32.3918606,23.0427466 32.4144114,23.1203018 32.7919369,23.2201629 L27.9806244,24.876946 L26.8459724,18.9680647 L27.10247,18.8821356 C27.4425491,19.7941212 27.4584395,19.3278978 27.3069605,18.8095232 L29.5067743,18.0529562 C29.5455947,18.043208 29.5824365,18.0303663 29.6170099,18.0141862 L29.9155313,17.9121774 C29.9975482,18.0420321 30.1244065,18.0404532 30.2292034,17.954919 L30.2292034,17.954919 L30.2139795,17.9328419 C30.1910229,17.8991868 30.1690655,17.8652345 30.1481976,17.831017 L30.3567174,17.7600495 C30.3320448,17.8297558 30.2957315,17.8885364 30.2535149,17.9323098 L30.2535149,17.9323098 L30.2292034,17.954919 L30.2644642,18.0042143 C30.6085095,18.4738616 31.139476,18.879538 31.6021184,19.1310021 L30.450617,19.5267641 L30.7956212,22.1077868 L37.232024,19.8915556 L37.7159755,22.465177 C36.2766896,23.4710877 36.1817931,25.6609036 37.790734,24.029591 C37.8158002,24.1651592 37.8577537,24.2805169 37.9233054,24.3778149 C37.9118972,24.6262023 37.9156018,24.7375395 37.9545276,24.4224055 L37.9545276,24.4224055 L38.0070922,24.4858602 C38.0534499,24.5339881 38.1074986,24.5769833 38.170171,24.6153846 L38.1256595,24.583189 C38.1488754,24.6978997 38.1516167,24.8147644 38.1338836,24.9337829 C38.1093459,25.0984713 38.0529326,25.2522619 37.9646438,25.3951545 C37.876355,25.5380472 37.7664031,25.6634008 37.634788,25.7712152 C37.5031729,25.8790297 37.3535581,25.9617941 37.1859434,26.0195085 L37.1859434,26.0195085 L37.1753253,26.0221461 C36.6746553,26.1380726 36.2884843,26.2765134 35.9982197,26.4279625 L29.8618288,28.541757 L29.8618288,28.541757 L29.8432034,28.532919 Z M47.638216,28.7157569 C50.1181198,28.8233111 47.9794976,27.8464606 47.4890887,28.6476405 L47.4890887,28.6476405 L47.471,28.681 L47.4838894,28.6619928 C47.6279725,28.4691885 47.9439594,28.7045292 47.5468246,28.7088657 L47.4576271,28.7064576 Z M29.8305085,5.42372881 C35.4516753,5.42372881 40.6290072,7.32401165 44.7551419,10.5172149 C44.7666043,10.7603984 44.7912194,11.0365683 44.8305689,11.3491108 L44.8305689,11.3491108 L44.857,11.547 L44.8473442,11.4618884 C44.7747457,10.6842174 45.2972847,11.4294854 44.9719129,11.5590972 L44.9221528,11.5727547 L44.8610683,11.577575 C45.2641362,11.577575 45.5511852,11.4824806 45.7469278,11.3286119 C49.7829034,14.8018971 52.6694596,19.5746007 53.7587902,24.9973166 L53.7652248,24.9943825 L54.1374137,26.5276535 L54.0210521,26.5674449 C54.1009824,27.1656913 54.159241,27.7707941 54.1950124,28.3819379 C53.563567,28.4529648 53.1964655,28.5092866 53.0186732,28.5535713 C52.9976721,28.5484459 52.9776084,28.5436985 52.9585684,28.5393211 L52.9585684,28.5393211 L52.9536241,28.5153723 C52.9235987,28.415474 52.8642536,28.433857 52.8273139,28.4804141 L52.8416733,28.4665976 C52.8147534,28.0052554 52.7742655,27.5475566 52.7206029,27.0938944 C52.8574088,26.739091 52.9075844,26.3504104 52.8684636,25.9191656 L52.871,25.976 L52.8777466,25.9745366 C52.9455361,26.0955887 52.9719706,26.0774106 52.9297932,25.9784946 L52.9297932,25.9784946 L52.9984798,25.9872 C53.2898285,26.0217658 53.1253252,25.9579286 52.9278853,25.9040937 L52.9278853,25.9040937 L52.9224967,25.8910842 C52.9059147,25.8586667 52.8859721,25.8538893 52.8695362,25.8647698 C52.8641733,25.8560743 52.8585158,25.8471509 52.8525555,25.8380132 L52.8525555,25.8380132 L52.8262034,25.798919 C52.8206381,25.7911261 52.8179457,25.7874141 52.8122619,25.7795777 C52.8218237,25.8085413 52.831093,25.8349958 52.8400008,25.859057 L52.8400008,25.859057 L52.8483121,25.8801568 C52.6197463,25.8268576 52.4248743,25.8030268 52.8928209,25.9731737 L52.836,25.952 L52.8144198,25.9443491 C51.9776264,26.3429979 51.7909977,26.8478246 51.7232931,27.358582 L49.4598118,28.1377232 C49.8639045,27.7901071 50.1492201,27.2411424 50.1684555,26.2354063 L52.464142,25.4421433 C52.3738735,24.9738108 52.2694301,24.5105257 52.1512758,24.052752 C52.3718215,23.8303075 52.6149812,23.5835603 52.8813559,23.3116037 C52.7072469,23.3577596 52.3862491,23.6053128 52.0244134,23.9309158 L52.1013253,23.862605 C51.1203816,20.1926797 49.2564454,16.8835328 46.7510633,14.176711 L46.564,13.978 L46.7810735,13.903737 L46.3778689,12.2426934 L45.197,12.648 L44.990534,12.4658851 C40.9380235,8.92495461 35.6347961,6.77966102 29.8305085,6.77966102 C28.9956398,6.77966102 28.1711376,6.82404489 27.3592326,6.91058178 C27.3247154,6.58930728 27.2523978,6.150681 27.1289844,5.57393193 C28.0154643,5.47390176 28.9171271,5.42372881 29.8305085,5.42372881 Z M28.2516388,26.2085318 L28.9200448,26.6642985 C28.7617895,26.788248 28.59548,26.9196751 28.4305128,27.0543168 L28.2516388,26.2085318 Z M44.9864014,16.9120362 C45.9238115,17.1130292 46.623104,17.0903639 47.0342299,16.9907536 L47.246239,17.8682883 L42.0837075,19.6458905 L42.6540408,22.3368135 L48.2858932,20.3976111 L48.6890978,22.0586548 L39.6714293,25.163687 L39.13,22.303 L39.17854,22.2321514 L39.206,22.188 L39.13,22.299 L39.0820812,22.04485 C39.1158079,22.0336403 39.1504746,22.0249708 39.1860068,22.019218 L39.2538951,22.0119273 L39.3220339,22.01199 C39.2378723,22.0073741 39.1555277,22.0066494 39.0750202,22.0095348 L38.5833386,19.3956334 C38.9478612,19.3491907 39.1596262,19.3174276 39.2552332,19.2978922 C39.3212893,19.5496557 39.4070545,19.3817786 39.4943463,18.2876294 L39.4943463,18.2876294 L39.5,18.198 L39.4956966,18.2406699 C39.4681449,18.4698697 39.4672924,17.9555121 39.4952936,17.9974998 L39.5028962,18.0203396 L39.505,18.034 L39.4786926,17.85146 C39.4225224,17.4888324 39.3742253,17.2329262 39.3324577,17.0643736 L39.3121118,16.9872871 C39.3480247,16.9762019 39.3927448,16.9550349 39.4476915,16.9212899 L39.4476915,16.9212899 C39.4515,16.8996004 39.4553469,16.8653666 39.4572636,16.8462619 L39.457,16.841 L39.4537448,16.8690066 L39.451,16.881 L39.4565571,16.81808 C39.4751465,16.4585502 39.3140875,16.5887974 39.2324717,16.7527125 L39.2138727,16.7941288 C39.0789873,16.8534707 39.1284624,18.7427128 39.2485108,19.2659867 C39.1281063,19.2645331 38.8711562,19.2779631 38.5627713,19.2995065 L38.093,16.814 L38.0932431,16.7926988 C38.0921251,16.7943572 38.0910101,16.7960155 38.089898,16.7976738 L38.083931,16.7699138 C38.1354425,16.8620243 38.1390662,16.6656614 38.0751205,16.3456831 L38.057,16.265 C38.0515745,16.372585 38.0454555,16.4558902 38.0391675,16.5247181 L37.9147442,15.8692326 L37.87,15.84 L37.8690477,15.8217321 C37.8657378,15.7604996 37.8626421,15.6982175 37.859786,15.6354769 L37.856,15.566 L37.8464952,15.5767757 L37.8172034,15.506919 L37.8121685,15.4954646 L37.809,15.489 L37.8180698,15.5440366 L37.8180698,15.5440366 L37.8272526,15.5955821 C37.7850325,15.6368508 37.7417762,15.6791683 37.6974664,15.7225526 L37.2093472,15.3996686 L37.8436509,15.1814124 C37.8442928,15.2068761 37.8449863,15.2325059 37.8457295,15.2582596 L37.8519623,15.4464705 C37.8531379,15.4780038 37.8543798,15.5095703 37.8556849,15.541096 L37.856,15.566 L37.9898992,15.4367878 L37.9898992,15.4367878 L38.063,15.364 L38.0620827,15.3414451 C38.0588384,15.2350766 38.0609809,15.1315399 38.074338,15.1802598 L38.083,15.226 L38.0698052,15.1123937 C38.0693944,15.1092231 38.0689842,15.1060618 38.0685747,15.1029098 L38.4784221,14.962705 C38.3722059,15.0651716 38.2546152,15.1791082 38.1249157,15.3052829 L38.063,15.364 L38.064629,15.4044106 C38.0656622,15.4247155 38.0668642,15.4439382 38.0681884,15.4608834 L38.071,15.489 L38.0010845,15.5587281 C37.9619138,15.5972333 37.9226927,15.6356574 37.8835502,15.6738659 C37.959265,15.8777422 38.0152533,16.0754094 38.0539546,16.2464311 L38.057,16.265 L38.0640334,16.1543272 C38.0704976,16.0283073 38.0766406,15.8813059 38.0823763,15.7113282 L38.0879731,15.5336178 L38.089,15.472 L38.4419903,15.12002 C38.5169236,15.0445703 38.5896116,14.9709175 38.6589743,14.9001912 L45.197,12.648 L45.2530473,12.6987863 C45.6875883,13.0902272 46.1071598,13.4979646 46.5107992,13.9210358 L46.564,13.978 L44.9313606,14.5425616 C44.9308815,14.513978 44.9303739,14.4851636 44.9298434,14.4561166 L44.924,14.186 L44.843653,14.4437355 C44.8285034,14.4924402 44.8136966,14.5404355 44.7992985,14.5879066 L44.4799126,14.6967231 C43.8618995,14.1504602 42.3580405,13.7421794 42.0557916,15.1064539 L42.0557916,15.1064539 L42.039,15.193 L42.0512893,15.1434448 C42.1522358,14.8081884 42.4448457,15.2600603 42.1095684,15.2334441 L42.0338983,15.2213661 L42.268488,15.2730049 C42.3875153,15.2983266 42.5014782,15.3211779 42.6105355,15.3416834 L41.4676889,15.733282 L41.8648791,17.9213611 L44.8213384,16.9015211 C44.5857525,17.1218048 44.4800359,17.5135317 44.4963787,18.0964798 C44.5456139,18.0076621 44.6079101,17.9392357 44.671685,17.8721888 L44.7670085,17.7702767 C44.9229032,17.5942261 45.051844,17.3673862 44.972855,16.7926988 Z M32.4608025,23.1576047 L32.4482034,23.158919 L32.4742034,23.154919 L32.5012034,23.150919 L32.5194312,23.1491765 C32.5266536,23.1481383 32.532389,23.1473138 32.5423729,23.1458786 C32.3955422,23.1485811 32.2394632,23.155587 32.0792382,23.1658025 L32.0792382,23.1658025 L31.8853047,23.1795316 L31.8853047,23.1795316 L31.7874577,23.1874203 L31.4933343,23.2145532 C29.8976191,23.3747164 28.4917513,23.7170568 32.0779678,23.2120244 L32.0779678,23.2120244 L32.1662034,23.198919 L32.1732034,23.197919 L32.1654286,23.2000659 L32.1699606,23.1993405 L32.175,23.198 L32.1732034,23.197919 L32.176,23.198 L32.1832034,23.196919 C32.1831787,23.1975143 32.1888376,23.1967008 32.2042034,23.193919 L32.2042034,23.193919 L32.2862034,23.181919 L32.2976618,23.1810568 L32.3817813,23.1689643 C32.3958012,23.1669489 32.4096086,23.164964 32.4228851,23.1630555 L32.4228851,23.1630555 L32.427,23.162 L32.3962034,23.165919 L32.437,23.16 L32.4608025,23.1576047 Z M36.332962,15.7014322 L36.9552381,18.5432084 L33.7370367,19.651324 L33.7191228,19.5476742 C33.9323048,19.4842406 33.99822,19.3896787 33.6750767,19.3067798 L33.5179652,18.4705914 L32.635,18.774 L32.6472034,18.721919 L32.6377699,18.7528004 C32.6191707,18.7948133 32.6573082,18.5506321 32.6632034,18.624919 L32.6632034,18.624919 L32.6660208,18.5151066 C32.6730308,17.6625336 32.5327062,18.2889561 32.4607693,18.8344471 L32.3364168,18.8774151 C32.1050077,18.5839574 31.6624412,18.1554584 30.9288197,17.5635612 L36.332962,15.7014322 Z M42.0338983,19.3971667 C40.0928064,19.0977487 40.0928064,19.0977487 39.3220339,19.5282365 C40.1764629,19.6386841 40.976428,19.6848857 42.0338983,19.3971667 Z M46.8430344,16.2072447 L46.9201394,16.5220469 C46.5971987,16.5052402 46.1236074,16.5427824 45.4857341,16.6746327 L46.8430344,16.2072447 Z M14.6199003,10.743738 C15.1625974,11.1937541 15.5506638,11.4361327 15.8136346,11.5304193 L15.6957834,11.6224597 C15.5320249,11.5965431 15.3452763,11.5704362 15.1519169,11.545575 L15.1519169,11.545575 L14.9772181,11.5236568 C14.9186862,11.5164875 14.860001,11.5094679 14.8015998,11.5026361 L14.8015998,11.5026361 L14.6276854,11.482743 L14.6276854,11.482743 L14.4754844,11.4660681 C14.2221159,11.4388857 13.9917317,11.4170852 13.825368,11.4042642 C14.0541878,11.2048526 14.2870531,11.0098737 14.5235492,10.8192175 Z M8.42600819,11.2290094 C9.68662746,10.5753834 10.45832,9.39819266 7.00250576,11.3417485 L7.00250576,11.3417485 L6.783,11.465 L6.88308451,11.4133029 C7.39858338,11.1632898 7.37834183,11.5446754 7.06873914,11.5520179 L7.00303346,11.5482012 L6.93820339,11.533919 L6.97250598,11.5448957 C7.3424698,11.6408696 7.82170237,11.5144215 8.26271014,11.309326 Z M26.8811845,5.60011317 L26.8766183,5.63588924 C26.8172168,6.10540654 26.8662622,6.5834909 26.9535273,6.95770687 C22.9880771,7.45122819 19.3355918,8.95201933 16.2597312,11.1958732 C16.2050853,10.8731005 15.9502278,10.3980975 15.6065033,9.99555902 C18.8578627,7.65899656 22.7074057,6.10284252 26.8811845,5.60011317 Z M40.5473936,2.60852747 C39.0159694,1.60606147 38.7686565,2.77859136 40.6779661,2.69717451 L40.6779661,2.69717451 L40.56707,2.69983152 C39.9918729,2.70154279 40.3040275,2.48820048 40.6219767,2.66230551 L40.6219767,2.66230551 L40.6712034,2.69291898 Z M32.5423729,2.65382747 C31.8530653,2.2158046 30.8411568,2.23622848 29.8305085,2.25486775 C30.4561779,2.50748936 31.2078634,2.67107871 32.5423729,2.65382747 Z M13.561,45.44 L13.56,45.452 L13.56,45.462 L13.559,45.468 C13.6094497,45.4740118 13.6587153,45.4714952 13.7067926,45.4681939 L13.8471329,45.4557999 C14.0090101,45.4731977 14.2455269,45.4953364 14.5723731,45.5230243 L14.5723731,45.5230243 L14.8117783,45.5292934 C15.3458916,45.5428836 15.7102481,45.5493009 15.9413231,45.5504244 L15.9413231,45.5504244 L16.1075978,45.5501347 C16.2805268,45.54822 16.3060796,45.540599 16.2297885,45.5303954 C16.2637481,45.5269112 16.3058408,45.509007 16.3492352,45.4674865 L16.3492352,45.4674865 L16.382,45.428 L16.3673143,45.4421323 C16.3484311,45.451128 16.3395611,45.4336771 16.3591266,45.4260238 L16.388853,45.4229788 L16.3146373,45.4209118 C16.1428696,45.425224 16.1278293,45.4995964 16.1811689,45.523388 C15.968935,45.5000975 15.4139789,45.4662873 14.8689979,45.4401264 L14.8689979,45.4401264 L14.6511234,45.4300577 C14.4813684,45.4225251 14.3173591,45.4160044 14.171925,45.4121474 C15.1214302,45.2370091 15.6865812,44.705929 16.0591962,43.6266764 L16.297,44.852 L16.2711864,44.9626426 C16.2891133,44.9709735 16.3068719,44.9792155 16.3244647,44.9873677 L16.8160864,47.5124816 L15.5702882,47.9421615 C17.3859199,49.3736689 19.4220056,50.538013 21.6192516,51.3759002 C21.6280288,51.5313723 21.6378733,51.7031843 21.6488655,51.8778179 L21.6627586,52.091027 C21.681514,52.3694789 21.7022586,52.6420442 21.7213763,52.8575473 C18.8933495,51.8619327 16.3040693,50.3599041 14.0621756,48.4604732 L13.8454389,48.5353575 L13.784975,48.2220467 C8.66096453,43.7479382 5.42372881,37.1672718 5.42372881,29.8305085 C5.42372881,28.7521491 5.49366345,27.6901238 5.62924469,26.6487207 L5.66,26.425 L5.49904866,26.3184 L5.684,26.254 L5.74317235,25.871602 C6.67671766,20.1481526 9.60097417,15.0934929 13.7819707,11.4415939 C14.06259,11.4868311 14.6322165,11.5638546 15.6155241,11.6842192 C13.7874416,13.1172742 12.1815637,14.821368 10.8578959,16.7355265 C10.5951084,16.7955623 10.2859381,16.8699474 9.92880542,16.9604269 L9.92880542,16.9604269 L9.71520339,17.013919 L9.69538782,17.0197643 L9.64320339,17.032919 L9.58820339,17.047919 L9.572,17.051 L9.575,17.05 L9.54820339,17.057919 L9.56832677,17.0529764 L9.53720339,17.060919 L9.52920339,17.062919 L9.522,17.064 L9.51298462,17.0674422 C9.50959633,17.0683278 9.50656098,17.0691212 9.50320798,17.0699977 L9.49152542,17.0730513 C9.92268313,17.0528767 10.3423861,17.0036078 10.7177165,16.9422285 C9.61735233,18.5692497 8.72029845,20.3443578 8.06165263,22.2312923 C6.31289011,21.3349951 6.60160441,23.3716728 7.46126964,24.2435311 C7.33979632,24.7318401 7.23369527,25.2268278 7.14375691,25.7274261 L7.139,25.753 L5.684,26.254 L5.68315646,26.2591696 L5.66,26.425 L6.20444571,26.787964 L6.781,29.544 L6.77966102,29.8305085 L6.77966102,29.8305085 C6.77966102,33.0169045 7.42619058,36.0522954 8.59522309,38.8126547 C8.43567996,38.8139591 8.27933246,38.8472754 8.13559322,38.9484725 C8.34412807,39.0120418 8.53667058,39.0671123 8.71443811,39.0910067 C9.84028616,41.6527991 11.4185518,43.9715848 13.3483907,45.9451535 L12.3733326,40.8523745 C12.5651983,40.3849533 12.4314126,40.1828645 12.2634391,40.2879181 L12.1706087,39.8011399 L11.4180265,39.5756922 L14.9920867,38.3450446 L15.7154405,41.9034083 L19.1657238,40.7153805 L18.6138699,37.7556124 L17.9627342,37.3221686 L21.3820732,36.1447958 L21.9591806,39.04179 C21.6933684,39.1938446 21.5649162,39.5640265 21.8795734,40.2607562 L21.8795734,40.2607562 L21.8781791,40.2411448 C21.9014628,40.1656332 22.2466794,40.1276175 22.0355603,40.2094634 L22.0355603,40.2094634 L21.9732034,40.230919 L22.0450417,40.2092318 C22.0927889,40.1935112 22.1385436,40.177653 22.1823655,40.1616783 L23.2060728,45.3122328 L20.2354253,46.3351088 L19.4914963,42.264634 L17.6272306,42.9051832 C17.3337307,42.81402 17.1079003,42.8904783 16.9131987,43.150791 L16.1247831,43.4246352 C16.1774651,43.252097 16.2260481,43.0668765 16.2711864,42.8683181 C14.9812961,43.585494 13.588674,44.0974184 13.559322,45.4758801 L13.5639679,45.4149605 L13.562,45.413 L13.561,45.438 L13.561,45.44 Z" id="Combined-Shape"></path>
            </g>
        </g>
    </g>
</svg>