<?xml version="1.0" encoding="UTF-8"?>
<svg width="60px" height="60px" viewBox="0 0 60 60" version="1.1" xmlns="http://www.w3.org/2000/svg" xmlns:xlink="http://www.w3.org/1999/xlink">
    <title>829D1BFC-5333-4ED2-9F28-4CD300D5DA6E</title>
    <g id="Page-1" stroke="none" stroke-width="1" fill="none" fill-rule="evenodd" opacity="0.150319417">
        <g id="UiKit_Icons" transform="translate(-740.000000, -3030.000000)" fill="#999999">
            <g id="Group" transform="translate(740.000000, 3030.000000)">
                <path d="M30,0 C36.6110257,0 42.7225975,2.1384161 47.680752,5.76128484 C47.4881734,6.93404386 47.345546,9.00224005 47.8927741,6.59602253 L47.8927741,6.59602253 L47.934,6.41 L47.9230441,6.45641236 C47.8450465,6.760518 47.9244828,6.03417984 47.9402678,6.22293031 L47.94268,6.28361783 L47.942,6.306 L47.9450112,6.15736158 C47.945616,6.0838047 47.9458569,6.01459382 47.9457539,5.9495654 C50.6284289,7.96284082 52.9638659,10.4064761 54.8463655,13.1822381 C54.4844257,12.8362544 54.0150932,12.3920289 53.4195561,11.8344625 L53.4195561,11.8344625 L53.269,11.693 L53.3193243,11.7378976 C54.1800211,12.4958058 54.056965,11.7644003 53.3082881,11.653733 L53.301,11.652 C53.3007253,11.6409231 53.305475,11.6316553 53.3080975,11.6229968 L53.3099138,11.5988657 L53.3234704,11.5750659 C53.3513685,11.5204666 53.3793484,11.4579866 53.4045154,11.3928157 L53.4045154,11.3928157 C53.3450407,11.4172135 53.2906703,11.4483296 53.2430808,11.4795267 L53.2430808,11.4795267 L53.2303524,11.4884553 C53.1747807,11.371842 53.1392118,11.3527038 53.1189323,11.3853772 C53.1046662,11.3704109 53.1013926,11.3876569 53.1054368,11.4230291 C53.1003987,11.4459502 53.0975073,11.4751573 53.09646,11.507876 L53.09646,11.507876 L53.095632,11.5522459 C53.0864206,11.5566176 53.0782964,11.5618836 53.0741989,11.568349 C52.8476691,11.5267404 52.3078026,11.5356211 51.8863279,11.7090918 L51.8863279,11.7090918 L51.8200909,11.7380909 C52.4565473,11.7391698 52.8323512,11.7121161 53.0215555,11.6780942 C52.8879726,11.8583787 52.9789317,11.9766424 53.1337717,11.8411037 C53.1572802,11.9219205 53.1888681,11.9520768 53.2200386,11.8525488 C53.2496164,11.9260311 53.2694617,11.9386742 53.2540815,11.8010767 C53.3415942,11.9185403 53.5025811,12.0932719 53.7036876,12.2964691 L53.7036876,12.2964691 L53.8208214,12.4135799 C53.8812842,12.4734466 53.9444257,12.5351378 54.0095041,12.5980127 L54.0095041,12.5980127 L54.1420232,12.725151 C54.1644668,12.7465404 54.1870706,12.768014 54.2098072,12.7895478 L54.2098072,12.7895478 L54.3475999,12.9192851 L54.5573766,13.1141138 L54.6973625,13.2424869 L54.835917,13.3683209 C54.9494251,13.4709123 55.0601174,13.5697381 55.1646471,13.6619083 C58.2233658,18.36316 60,23.9741024 60,30 C60,32.2996853 59.7412435,34.5389347 59.251257,36.6902217 C58.6943356,36.9066919 58.3795747,37.3764767 58.9054036,38.053551 C55.3877608,50.7110094 43.7786604,60 30,60 C19.0431689,60 9.45825401,54.1261282 4.22241332,45.3555423 C4.24292295,44.6307821 4.25192457,44.1135384 4.25355592,43.7596648 L4.25355592,43.7596648 L4.25358393,43.5468166 C4.24858821,42.599593 4.16926828,43.3713301 4.1376946,44.2284592 L4.1376946,44.2284592 L4.13205265,44.4005396 C4.12373635,44.6909293 4.12177319,44.9786459 4.13084226,45.2010734 C1.50542883,40.7422524 0,35.5469321 0,30 C0,24.4140342 1.52669073,19.1846462 4.18557695,14.7063312 C3.68196336,17.2888239 3.9547594,18.0081474 4.2578601,14.477527 L4.24685201,14.603594 C9.48804445,5.85563175 19.0601942,0 30,0 Z M41.0447783,50.3847433 C41.3843724,50.5778137 41.7907365,50.7771076 42.2727273,50.979021 L42.216,50.955 L42.1981884,50.9848121 C42.1764827,51.0665035 42.4354636,51.0627731 42.3177455,50.955908 L42.2636526,50.9164422 L42.2718628,50.9241364 C42.273487,50.9282963 42.2685143,50.9304946 42.263556,50.9305961 L42.263556,50.9305961 L42.2610314,50.9181728 L42.2431973,50.8174792 C42.2313978,50.7579148 42.2188112,50.6995886 42.2051889,50.6439937 C42.2556572,50.7474014 42.2979843,50.8238487 42.3314124,50.8754197 C42.2446872,50.8821839 42.2442661,50.9065042 42.3981631,50.9590434 C42.4209466,50.9794996 42.4383603,50.9835862 42.4485406,50.9732844 C42.5095102,50.9917567 42.5879218,51.0131811 42.6861827,51.0378689 L42.6623408,51.0315074 C38.9653952,53.2620939 34.6325701,54.5454545 30,54.5454545 C27.1646515,54.5454545 24.4415876,54.0647064 21.9078753,53.1802768 C21.90344,52.9298865 21.8912168,52.5560349 21.8697873,52.0273216 L21.8697873,52.0273216 L21.8650909,51.9290909 L21.8651548,51.9928997 C21.860274,51.9998965 21.8360053,51.6147175 21.8538679,51.7391 L21.853,51.739 L21.8506352,51.7088883 C24.3858492,52.6610384 27.1321073,53.1818182 30,53.1818182 C33.968919,53.1818182 37.704881,52.1844104 40.9709062,50.4265744 Z M13.8593906,11.5071127 C14.1415823,11.5519712 14.7141516,11.6294043 15.7028738,11.7504385 C13.8651353,13.1924512 12.2503347,14.906131 10.9193026,16.8310281 C10.6546093,16.8911597 10.3439776,16.9659016 9.98521909,17.056793 L9.98521909,17.056793 L9.801,17.103 L9.8214658,17.0979115 L9.75047525,17.1164675 L9.743,17.118 L9.747,17.117 L9.74025261,17.1191396 L9.72709091,17.1220909 L9.69879413,17.1299763 L9.65903942,17.1403677 L9.62309091,17.1490909 L9.59209091,17.1570909 L9.58509091,17.1590909 L9.56703567,17.1644163 C9.56022058,17.1661977 9.5548253,17.1676079 9.54545455,17.1700573 C9.97913907,17.1497645 10.4012996,17.1002016 10.7787697,17.0384456 C9.67221237,18.6743458 8.76996646,20.459652 8.10751654,22.3574372 C6.34891648,21.4562357 6.63904427,23.5040627 7.50341663,24.3810283 C7.36235762,24.9491656 7.24167015,25.5266117 7.14288796,26.1115022 C6.7217829,26.2423566 6.74991795,26.6362577 7.00148527,27.0780996 C6.88017433,28.0355263 6.81818182,29.0105236 6.81818182,30 C6.81818182,30.366906 6.82670571,30.7318212 6.84356627,31.0945582 L14.0952191,28.8775271 C13.6460552,29.1576319 13.4355576,29.7707508 13.8897165,30.8559965 L9.96520163,32.0567417 L11.0121022,39.2029112 L12.0198942,38.8948793 C12.0448419,39.2424323 12.1300701,39.3320628 12.3079128,38.8082015 L15.2111494,37.9191336 L14.253,31.262 L14.314386,31.243055 C17.1975693,30.2703314 16.5132939,29.1039054 15.4269306,28.7778853 L15.3486922,28.7560414 C15.7149,28.7250657 16.045142,28.688537 16.2237934,28.6547452 L16.2237934,28.6547452 L16.2342701,28.6705886 C16.0480187,28.6890794 16.1254351,28.7046525 16.2567497,28.7129371 C16.2170755,28.9162231 16.233516,29.1015747 16.386048,28.8150753 C16.4576696,28.8660713 16.4945697,28.8558242 16.5044192,28.8175026 C16.6627616,28.840219 16.9640794,28.8578166 17.4551095,28.8668838 L17.301,28.863 L18.6957414,37.43272 L18.7286325,37.5642781 C18.7877016,37.8693733 18.7230332,38.161351 18.5346271,38.4402114 C18.350066,38.7133808 18.1149425,38.9091186 17.8292566,39.0274249 L17.6822001,39.0801254 L12.5368717,40.6526733 C12.5159331,40.4059793 12.2913445,40.4331905 12.1413612,40.7742225 L9.85267609,41.4746211 C12.4985355,46.1102673 16.6981711,49.7444473 21.7423179,51.6678963 C21.7510935,51.8277309 21.7612641,52.0047644 21.77262,52.1844641 L21.77262,52.1844641 L21.7861861,52.3920962 L21.7861861,52.3920962 L21.7982429,52.566192 C21.8135546,52.7816212 21.8296138,52.9866391 21.8446744,53.1565339 C16.1442731,51.1504775 11.4085789,47.0985375 8.51734137,41.8825835 L7.86008087,42.0830486 L7.45151257,39.7135395 C6.36907169,37.2041859 5.69325618,34.4782918 5.50708053,31.6188717 L5.39462733,31.5376387 L5.4999929,31.5060449 C5.46984038,31.0078938 5.45454545,30.5057331 5.45454545,30 C5.45454545,22.6797167 8.65904701,16.1078848 13.7417831,11.6107714 Z M12.2727273,51.0507791 C11.3846261,50.8463769 10.7922478,50.6643094 9.54545455,50.9093926 C10.6080041,51.1626519 11.2446942,51.2637562 12.2727273,51.0507791 Z M42.9294979,50.8679814 L42.863048,50.9080722 C42.7207963,50.8922825 42.5841005,50.8806002 42.4785,50.8763312 C42.4897954,50.610103 42.3247059,49.905169 42.2001118,49.7154319 C44.2344872,48.4540835 46.0598361,46.8857822 47.6109157,45.0755442 L47.611702,45.7342657 C47.8071477,45.4329442 47.8932056,45.1324697 47.8177745,44.8324056 C48.8739359,43.5634927 49.7985343,42.1797407 50.568691,40.7026512 L50.660385,40.705181 C51.251688,40.721621 51.7338392,40.7053894 52.112082,40.671101 C50.0763724,44.8786647 46.8761289,48.4175136 42.9294979,50.8679814 Z M53.281614,28.814176 C53.4031254,28.8337756 53.6253712,28.8442915 53.8910611,28.8471381 L53.8910611,28.8471381 L54.1937507,28.8472834 C54.2234366,28.8470254 54.2533612,28.8466922 54.2834628,28.8462853 L54.4657026,28.8429722 C54.4829772,28.8425791 54.500269,28.8421635 54.5175667,28.8417255 C54.5364379,29.2255014 54.5454545,29.6116977 54.5454545,30 C54.5454545,33.6762518 53.7372613,37.1637399 52.288857,40.2944823 C51.8742764,40.3394854 51.3199474,40.4454734 50.6378363,40.6437119 L50.6378363,40.6437119 L50.5927408,40.6563987 C52.030107,37.8844284 52.9242067,34.7853914 53.1340499,31.500278 C53.1791396,31.4977812 53.1949391,31.4856291 53.1699832,31.4612567 L53.1699832,31.4612567 L53.1818182,31.4607268 C53.1670878,31.4498227 53.1523951,31.4391746 53.1377193,31.4287846 C53.1448251,31.3249936 53.1505391,31.2193609 53.1555436,31.1135425 L53.1692436,31.1973471 L53.172,31.208 L53.1694651,31.1846988 C53.1518553,31.0485382 53.1949468,31.1278506 53.1942702,31.2596304 L53.193,31.284 L53.2122895,31.0849181 C53.3212665,29.8481156 53.3266897,29.1630059 53.2895841,28.8680195 Z M9.6001955,38.3060159 C9.55178634,37.5198741 9.50591083,37.9350346 9.4890009,38.4247934 L9.4890009,38.4247934 L9.48427846,38.5989123 C9.48370619,38.6278369 9.4832449,38.6565609 9.48289998,38.684855 L9.48289998,38.684855 L9.48308288,38.9217037 L9.48269162,38.9461113 C9.41405831,38.9200083 9.38579422,38.9897369 9.38727324,39.0853545 C9.01106197,39.0985889 8.55433727,38.907505 8.18181818,39.1697707 C8.66826156,39.318057 9.0681765,39.4203595 9.39724429,39.1918005 C9.43256084,39.3732582 9.54625515,39.5442114 9.66856957,39.2800004 L9.66856957,39.2800004 L9.685,39.236 L9.67543618,39.2512358 C9.66506622,39.2577616 9.66859115,39.2155737 9.67930428,39.1931296 L9.69216508,39.1798021 L9.70490253,39.1888401 C9.67627767,39.1448915 9.64987559,39.1076917 9.62694419,39.0783207 C9.62630896,39.0774528 9.62562862,39.0766754 9.62387053,39.0743553 C9.59689786,39.0399482 9.57254218,39.0130425 9.55112466,38.9945864 C9.56314029,38.9082497 9.57692542,38.7883537 9.59263121,38.6284555 L9.59263121,38.6284555 L9.601,38.527 L9.59740084,38.5531259 C9.58851686,38.5919259 9.59127944,38.4365231 9.59760621,38.3952403 L9.60176531,38.3866316 L9.60509091,38.4060909 Z M55.9690478,39.1783217 C59.9752838,35.76794 58.6333013,36.2811786 57.2960748,37.3978223 L57.2960748,37.3978223 L57.155563,37.517449 C57.0388698,37.618756 56.9236584,37.7238097 56.813542,37.8303688 L56.813542,37.8303688 L56.6840791,37.958819 C56.2622297,38.3884391 55.9450232,38.827805 55.9636985,39.1334895 L55.9636985,39.1334895 L55.9670909,39.1710909 Z M37.9698448,21.5783953 L38.3289494,22.3635262 C36.5114583,23.2018001 36.2496734,25.9463008 38.0054386,24.166039 C38.0306774,24.3025865 38.0729483,24.4187481 38.1387393,24.5171851 C38.1358865,24.5794092 38.1339806,24.6330385 38.1333314,24.6735703 L38.1338007,24.7358362 C38.1365174,24.7849926 38.1472014,24.746496 38.169789,24.5631431 C38.2267629,24.6373429 38.2983094,24.7008725 38.3870469,24.7552448 C38.3999909,24.3937397 38.3421261,24.1436536 38.2398403,23.9146748 C38.3968617,23.737436 38.5673974,23.5283665 38.7516967,23.283991 L40.2942131,26.6474934 C39.9447801,26.8413749 39.6609067,27.0724071 39.56369,27.3226143 L39.56369,27.3226143 L39.5470909,27.3700909 C39.8930302,27.2527224 40.2012406,27.137946 40.473411,27.0328055 L40.6834645,27.4922243 C40.4088797,27.7463372 40.1912822,27.9539993 40.0230654,28.120693 L39.8729477,28.2719594 C39.693404,28.4564678 39.594873,28.5732941 39.5600759,28.6348917 L39.5600759,28.6348917 L39.5488345,28.637432 C39.5440323,28.6398107 39.5442753,28.6424617 39.5515936,28.6447718 C39.4811659,28.6518013 39.4052688,28.7879836 39.612993,28.7080831 L39.612993,28.7080831 L39.6014934,28.7066625 C39.5956788,28.7018004 39.5933756,28.6905885 39.59343,28.6819104 C39.5961752,28.6809382 39.5990312,28.6798654 39.6019962,28.6786933 L39.6019962,28.6786933 L39.608,28.696 L39.603989,28.6778972 C39.6085893,28.6760405 39.6134428,28.6739529 39.618333,28.6715716 L39.632898,28.6634839 C39.7421266,28.6799878 39.9596109,28.7018608 40.3183756,28.7300907 L40.3183756,28.7300907 L40.276,28.733 L40.3200579,28.7303107 C40.3463618,28.7323856 40.3734231,28.7344951 40.4012547,28.7366394 L40.4870733,28.7431777 L40.6510909,28.7550909 L40.5727717,28.7492615 C40.3674951,28.7327563 40.350366,28.7247907 40.421455,28.7221789 L40.421455,28.7221789 L40.584805,28.7219229 C40.6051411,28.7222247 40.6263294,28.7226114 40.6480276,28.7230722 L40.6480276,28.7230722 L40.7815965,28.7266374 C41.0947521,28.7366212 41.3736358,28.7568323 40.6787806,28.7573193 L40.8693458,28.7570442 C41.0133443,28.7567166 41.1445331,28.756129 41.2636759,28.7553063 L42.5165652,31.4874981 L39.3764082,32.4475404 L38.183,29.818 C38.2836466,29.3411852 38.3197352,29.0417959 38.3190997,28.8726665 L38.3171922,28.8152639 C39.1384606,28.8606705 39.4860354,28.879316 39.5439426,28.8814702 C39.5124932,28.8786879 38.994989,28.8488238 38.4192208,28.816492 L38.4192208,28.816492 L38.3164485,28.8107294 C38.3131385,28.7550642 38.3039497,28.7206898 38.2912402,28.7030908 L38.2912402,28.7030908 L38.3078505,28.6938633 L38.2507529,28.6448421 C38.0308944,28.4886363 37.9757663,28.8440304 38.1966121,28.7576868 C38.1890868,28.7706879 38.1815017,28.7853561 38.1745491,28.8028017 C37.55603,28.7683206 36.9395011,28.7349472 36.8339765,28.7319684 L36.8339765,28.7319684 L36.8180909,28.7310909 L37.0734048,28.7461888 C37.503753,28.7701664 37.8677507,28.7903865 38.1716133,28.806594 C38.0824147,29.0015842 37.9989773,29.4062674 38.0726215,29.7715705 L33.7700863,31.0872313 L33.4064584,34.2727372 L30.7383681,35.0884543 L26.8861987,36.2661807 L22.2031807,33.4856864 L22.5681979,35.7428921 C22.3407934,35.8578394 22.0912141,35.9955217 21.8181818,36.1587752 L21.8181818,36.1587752 L21.9383746,36.2335475 C22.1996191,36.3871669 22.4537949,36.4790417 22.6941018,36.5230955 L22.7039963,36.5935238 C21.3554353,36.8374106 21.6969989,36.897546 22.7252596,36.7172354 L22.851462,37.4997235 L19.3461704,38.5713987 L17.67,28.835 L17.6900024,28.8322368 C19.8698747,28.5058053 19.1092164,28.4726623 18.0661333,28.5387791 L17.9734313,28.5448656 L17.7537053,28.5609045 C17.7104219,28.5642817 17.667103,28.5677895 17.6239254,28.5714142 L17.6222643,28.5578767 L17.202,28.256 L17.1519596,27.9430615 L16.881,28.026 L16.8807168,28.0259887 L19.0253408,27.371179 C19.0817595,27.3867428 19.1421841,27.3744834 19.1960877,27.3303418 L19.1960877,27.3303418 L19.197,27.317 L21.7237262,26.5454036 C21.739025,27.0859722 21.8208468,27.7996621 21.8940563,27.0607914 L21.9039969,26.950663 L21.9140909,26.8120909 L21.9116659,26.8359976 C21.9054021,26.8741732 21.8974076,26.8220589 21.8932612,26.7755004 C22.5733588,27.2682282 23.4511714,26.9270709 24.5454545,27.3776224 L24.325,27.298 L24.3191719,27.3858581 C24.3171601,27.4154245 24.3152535,27.4449853 24.3134554,27.4744804 L24.303995,27.6501811 C24.3036337,27.6579346 24.3032806,27.6656749 24.3029357,27.6734007 L21.2869806,28.5953265 L21.8316536,31.6828059 L25.7020798,30.4994978 L25.13915,27.4176001 L24.701844,27.5529347 C24.7196376,27.4594629 24.7380994,27.3593655 24.757246,27.2523385 L24.757246,27.2523385 L24.788,27.073 L24.781841,27.1058655 C24.7182176,27.4088893 24.7426927,26.8149463 24.7797179,26.9118359 L24.789192,26.9513695 L24.791,26.961 L24.7789644,26.8514481 C24.6149456,25.5084032 24.4424927,26.1175043 24.3542375,26.9804852 L24.3451079,27.0738415 C23.9120031,26.431691 23.6209927,26.116354 23.2719379,26.0719286 L28.2729146,24.5430443 L28.7025342,27.1184624 C28.0162349,27.6713499 27.3171905,28.2957159 27.2727273,28.6888112 L27.28,28.652 L27.2834757,28.6365944 C27.1781022,28.5520802 27.1801059,28.8164707 27.2920802,28.7457072 L27.3392305,28.7021245 L27.3273499,28.7091786 C27.3223593,28.7072458 27.3230355,28.6954205 27.3282192,28.6939747 L27.3282192,28.6939747 L27.337,28.7 L27.3282711,28.687572 C28.1112201,28.6652932 28.5724501,28.4456155 28.8733546,28.134827 L29.1866717,30.0130841 L29.2178031,30.1414372 C29.2409945,30.2703462 29.2403656,30.4009232 29.2159165,30.5331681 C29.1833177,30.7094946 29.1168219,30.872894 29.0164291,31.0233664 C28.9160363,31.1738388 28.7929873,31.3046203 28.6472822,31.4157108 C28.5380034,31.4990287 28.4183571,31.5668008 28.2883433,31.619027 L28.1548737,31.6660713 L25.8727828,32.3637765 L30.454,34.929 L30.9913734,29.1707806 C31.0575106,29.2026037 31.1247877,29.2349484 31.1925463,29.2675009 L31.1925463,29.2675009 L31.3542275,29.345133 C31.4082052,29.3710369 31.4621576,29.3969153 31.515757,29.4226121 L31.515757,29.4226121 L31.6751685,29.4990017 C32.2008254,29.7507772 32.6584092,29.9687848 32.7201891,29.9969313 L32.7201891,29.9969313 L32.7071388,29.9897872 C32.6067366,29.9403037 32.1195284,29.7054622 30.9939141,29.165429 L31.4624253,24.1268828 L30.7766943,23.7775621 L32.1389062,23.3609403 C32.2499823,23.3454016 32.36608,23.329013 32.4873547,23.3117413 L32.4873547,23.3117413 L32.5700909,23.2990909 L32.6115922,23.2940188 L32.6880909,23.2820909 L32.7000909,23.2810909 L32.7042007,23.280706 L32.7130909,23.2790909 L32.7200909,23.2780909 L32.7150909,23.2790909 L32.7272727,23.2773893 C32.6114031,23.2795219 32.4898068,23.2843193 32.3649629,23.29125 L37.9698448,21.5783953 Z M24.6261089,31.3772974 C24.5767092,31.1349577 24.5004971,31.5099925 24.4187787,33.3233333 L24.4187787,33.3233333 L24.4120909,33.4620909 L24.4154739,33.4196619 C24.4197749,33.3507259 24.4223928,33.3466753 24.4234347,33.3717552 L24.4234347,33.3717552 L24.4231642,33.4622591 C24.4215864,33.523089 24.4176711,33.5875356 24.4080909,33.5790909 L24.4080909,33.5790909 L24.4275489,33.661251 C24.6148886,34.4225757 24.6844378,33.4401866 24.6831446,32.5230119 L24.6831446,32.5230119 L24.6818816,32.3347755 C24.6773956,31.9625371 24.661334,31.622826 24.6370232,31.4438076 Z M19.2840857,32.6181165 C23.0704682,32.7508262 22.2413974,29.719547 19.2426435,32.4665939 L19.2426435,32.4665939 L19.094,32.604 L19.1752062,32.5323778 C19.8901861,31.9214481 20.1886448,32.6215809 19.2095948,32.6130474 L19.0909091,32.6088029 Z M27.2727273,31.5086252 C24.6952433,30.6000733 26.4170227,31.5078944 27.2183778,31.5099832 L27.2183778,31.5099832 L27.2610909,31.5080909 L27.255,31.509 Z M27.4527659,29.9875925 C27.5158997,27.8779241 27.3168261,28.7349113 27.1859018,29.7824687 L27.1859018,29.7824687 L27.1598948,30.0010133 L27.1598948,30.0010133 L27.1391607,30.193229 C27.0379716,31.1799075 27.0346951,32.0173339 27.40319,30.4041932 L27.40319,30.4041932 L27.439,30.244 L27.4321811,30.2706122 C27.4011332,30.3813503 27.4358169,30.0802856 27.4446203,30.1202563 L27.4465294,30.1527018 L27.446,30.158 Z M35.6941464,24.1906139 L34.4709457,24.5645839 L33.946261,29.1169014 L36.1637922,28.4394486 C37.1850182,29.0039166 38.8480741,28.7673553 37.8996933,26.0664336 L37.903,26.079 L37.9183553,26.1353418 C38.0439894,26.8138852 36.1439434,26.4648732 37.587547,26.1291441 L37.732,26.097 L37.6893081,26.1054438 C37.2968377,26.1824075 36.9651816,26.2719076 36.6874861,26.3704399 L35.6941464,24.1906139 Z M32.8086004,28.5354882 C32.833485,28.4610401 32.8208895,28.4747223 32.7917861,28.5262999 C32.668295,28.4507904 32.6075527,28.4950262 32.5889577,28.5746253 C32.5140574,28.5727895 32.4781486,28.6027582 32.5560346,28.6890139 L32.5560346,28.6890139 L32.5647433,28.6973034 C32.3626537,28.8066106 32.4522109,28.8066563 32.6023054,28.7692657 C32.6132393,28.8025036 32.6279309,28.8322442 32.6444627,28.8539153 C32.6291779,28.8940714 32.6266926,28.9094413 32.6485001,28.8746657 L32.6485001,28.8746657 L32.6550662,28.8650797 C32.6968388,28.9076018 32.7511643,28.9032617 32.8062549,28.7951843 C32.9733104,28.7750169 32.965544,28.7223887 32.8933139,28.6734162 C33.0402505,28.6121231 33.0916637,28.5582878 32.75773,28.6015888 L32.75773,28.6015888 L32.8522637,28.5891886 C32.8564695,28.5812637 32.8633348,28.5779624 32.873377,28.5864751 L32.873377,28.5864751 Z M50.5762554,26.0641048 C50.5721822,26.0917185 50.5355403,26.0012054 50.5739302,26.0314503 L50.5739302,26.0314503 L50.5489532,26.0135069 C50.7173234,25.8845025 51.12409,25.5084796 51.8734959,24.7641933 L51.8734959,24.7641933 L52.3063635,24.3315304 C52.5137158,24.1231038 52.741371,23.8927639 52.9907185,23.6388948 L52.9907185,23.6388948 L53.107929,23.5187271 C53.1050453,23.5674138 53.1282332,23.5901488 53.2009737,23.5281984 L53.2009737,23.5281984 L53.233,23.496 C53.2365338,23.4938275 53.2400244,23.4904854 53.2427631,23.4863244 L53.2484275,23.4711147 C53.2526753,23.4681123 53.2559428,23.4681947 53.2559428,23.4749061 L53.2559428,23.4749061 L53.2522782,23.3998691 C53.2360575,23.2605132 53.169894,23.3343538 53.1300817,23.4257091 C53.1128149,23.4408931 53.1087666,23.4555443 53.1130184,23.468173 L53.1130184,23.468173 L53.0759041,23.4868711 C52.8519895,23.6009115 52.4991729,23.8956025 52.1241074,24.246896 L52.1241074,24.246896 L51.9909811,24.3730302 L51.8570493,24.502653 C51.834718,24.5244802 51.8123967,24.5464023 51.7901068,24.5683939 L51.7901068,24.5683939 L51.6569202,24.7009772 C51.5686132,24.7896536 51.4815057,24.8786359 51.3969871,24.966308 L51.3969871,24.966308 L51.2723246,25.0966315 C50.908846,25.4796051 50.6105471,25.8205341 50.4928412,25.9714523 C50.2636,25.8148566 50.3094357,25.9799008 50.3982453,26.1071544 C49.4490544,26.8385962 49.4427541,26.871144 49.0909091,28.6888112 C49.8597047,28.3500151 50.5075701,27.8130891 50.4511128,26.0664336 L50.4528429,26.1721403 C50.5212339,26.2422317 50.5902652,26.262026 50.5827739,26.1114254 L50.5827739,26.1114254 Z M40.8112473,27.7728563 L41.213416,28.6475343 L41.213416,28.6475343 L41.0410684,28.6416086 C40.9511722,28.6386797 40.8605037,28.6359747 40.7706455,28.6335449 L40.5924781,28.629067 C40.3869706,28.624306 40.1916181,28.6212276 40.0265239,28.6204803 L39.8628684,28.6205958 C39.8036258,28.6210121 39.7509818,28.6218804 39.7076474,28.6236041 C39.7287648,28.6109865 39.7516841,28.5966654 39.7762482,28.5807542 L39.7762482,28.5807542 L39.8637177,28.5221804 C40.1042545,28.3565139 40.4532238,28.0828639 40.8112473,27.7728563 Z M41.8512121,26.4381722 C41.5752941,26.6826543 41.328542,26.9037254 41.1087025,27.1030097 L40.9879027,26.8281578 C41.3670691,26.6722797 41.6494537,26.5430745 41.8512121,26.4381722 Z M47.71,26.141 L47.711,26.143 L47.711,26.149 L47.712,26.15 L47.711,26.125 L47.7093899,26.1247772 L47.709,26.111 L47.711,26.125 L47.7365713,26.1368731 C47.7464797,26.1399019 47.7572389,26.1418354 47.7688577,26.1423973 L47.8063011,26.1396921 L47.7912916,26.1370037 C47.7802324,26.129494 47.7808753,26.1116401 47.7918851,26.1205232 L47.7918851,26.1205232 L47.8,26.131 L47.7718352,26.0843929 C47.9723844,26.0607244 48.1393936,26.0255507 47.8196844,26.0273777 L47.7293548,26.0286333 C47.6666326,25.9598934 47.6394776,25.995218 47.6481152,26.0445264 C47.369609,26.1018075 47.4371803,26.1114151 47.5836724,26.101995 L47.5836724,26.101995 L47.4945141,26.1274695 C47.4616464,26.1372394 47.4291622,26.1470478 47.3970585,26.156893 L46.7,24.659 L46.5257666,26.4697673 C43.9837667,27.5462397 45.1250644,28.8461725 46.3154167,28.673217 L46.152262,30.375954 L42.9938482,31.341578 L42.939377,31.2202939 C43.5575579,30.8486627 44.1923726,29.4319941 42.8097974,28.7444955 L42.8097974,28.7444955 L42.706,28.696 C42.7168335,28.7005611 42.7160081,28.700205 42.7102713,28.6976162 L42.6980909,28.6920909 C42.5275277,29.1689472 42.4190327,29.5712787 42.3534577,29.9050965 L41.8397324,28.7477523 C42.5210854,28.7324363 42.311805,28.7013721 41.8069862,28.6737478 L41.2357902,27.3908585 C41.7198337,26.9372211 42.1455795,26.4683899 42.2494414,26.1741861 C42.2720746,26.1458657 42.2776758,26.123422 42.2678094,26.1065847 C42.2704164,26.0926625 42.2720686,26.0792695 42.2727273,26.0664336 L42.2727273,26.0664336 L42.2484018,26.0875071 C42.1136591,26.0114772 41.441665,26.1463912 40.7992972,26.4081016 L39.1568368,22.7209113 C39.2811599,22.5406254 39.4106802,22.3462714 39.5454545,22.1370581 L39.436,22.303 L39.3552996,22.4223279 C39.2804893,22.5303391 39.2120107,22.6237934 39.1495885,22.7040846 L38.9960825,22.3568205 C39.1295411,22.2358244 39.2929393,22.1467717 39.4769286,22.1369951 L39.4769286,22.1369951 L39.5454545,22.1370581 C39.3230162,22.1248583 39.1131981,22.1396866 38.916369,22.1764116 L38.7174895,21.7291182 L38.2645605,21.4882916 L41.5872849,20.4724328 L44.0423963,26.6091361 L44.504872,19.9597378 L47.316408,19.100165 L47.466,19.473 L47.4587119,19.4787629 L47.479,19.506 L49.1975987,23.7739764 C49.0744209,23.7006343 48.9408213,23.6260863 48.7962213,23.5504178 L48.593,23.447 L48.6907575,23.5000518 C49.3987243,23.9213959 48.1684228,24.1512491 48.4711159,23.604646 L48.5195766,23.5288986 L48.572,23.462 L48.454974,23.6007211 C45.4979578,27.215376 52.7066319,26.3857277 49.7090653,24.1148038 L50.1364953,18.5064275 C46.1422876,11.5237234 38.6206629,6.81818182 30,6.81818182 C29.1602761,6.81818182 28.3309804,6.86282974 27.5143571,6.94988117 C27.4798479,6.62602734 27.4071562,6.18526493 27.2831874,5.60588723 C28.1748649,5.50499113 29.0815413,5.45454545 30,5.45454545 C35.6529848,5.45454545 40.859632,7.36554394 45.0091673,10.5767666 C45.0209672,10.821618 45.0457208,11.0993219 45.0852881,11.4135944 L45.0852881,11.4135944 L45.107,11.576 L45.1021586,11.5270127 C45.0291477,10.7449232 45.5546556,11.4944257 45.2274351,11.6247739 L45.1773923,11.638509 L45.1159608,11.6433566 C45.5213188,11.6433566 45.8099987,11.547722 46.0068536,11.392979 C48.0411659,13.1428598 49.7851133,15.222226 51.1566649,17.5474475 L52.0329821,17.2790151 C51.3873146,17.9682292 52.3225778,19.1264918 53.1818182,16.8881119 L53.146,16.977 L53.1369123,17.0047043 C53.1446788,17.0036692 53.1515249,17.0024708 53.1573776,17.0011031 L52.8073428,20.910147 C53.7579719,23.2932666 54.3459058,25.8603507 54.5029383,28.5431933 C53.8660717,28.614811 53.4960828,28.6715798 53.3168802,28.7150677 C53.2968549,28.7101941 53.2776882,28.7056649 53.2594551,28.7014731 L53.2594551,28.7014731 L53.2544969,28.6773914 C53.2241242,28.5763375 53.1639189,28.5956336 53.1272629,28.6421043 L53.1419024,28.6282075 C53.1148848,28.1652356 53.0742803,27.7059122 53.020482,27.2506303 C53.157485,26.8929498 53.2082929,26.5012006 53.1688526,26.0664336 L53.171,26.123 L53.185,26.117 L53.186,26.118 L53.186,26.117 L53.19,26.119 L53.187,26.118 L53.2100353,26.1634381 C53.2454905,26.2251105 53.2615086,26.2173954 53.2444547,26.1631468 L53.2301446,26.1251964 L53.2996075,26.1348545 C53.5926117,26.1696167 53.4271737,26.1054169 53.2286119,26.0512761 L53.2286119,26.0512761 L53.2231927,26.0381926 C53.2064184,26.0053991 53.1862245,26.0007309 53.1702421,26.0122329 L53.1702421,26.0122329 L53.1528541,25.9848201 L53.1260909,25.9450909 C53.1207553,25.9376666 53.1180477,25.9339335 53.1123316,25.9260526 L53.113,25.928 L53.1265265,25.9678669 L53.1265265,25.9678669 L53.1402281,26.0059834 L53.1495177,26.0260794 C53.1164495,26.0225052 53.0866,26.0155584 53.0588271,26.0095744 L52.9832411,25.9948959 C52.8616002,25.9746934 52.8482537,25.995271 53.1933483,26.1207486 L53.114,26.092 L52.9496251,26.1761531 C52.9231339,26.1907403 52.8974045,26.2054508 52.8724137,26.2202801 C52.7731691,25.5980287 52.6464022,24.9843441 52.4959227,24.380037 L52.2830861,26.749767 C52.0814457,27.0466864 52.028302,27.3653172 51.9984848,27.6820393 L51.9984848,27.6820393 L51.9789729,27.9136042 C51.9568217,28.1825592 51.92935,28.4458915 51.8181818,28.6888112 L51.838,28.637 L50.004368,29.1974264 C49.5785825,28.2956873 49.0493634,28.7219818 49.0934969,29.4765599 L48.963798,29.5163812 L48.664798,28.871682 C49.4495364,28.7988651 49.0065657,28.4967961 48.4850507,28.4903747 L47.7145858,26.8356098 C47.7332364,26.6047595 47.7319056,26.3489704 47.7067179,26.0664336 L47.717,26.214 L47.717,26.21 L47.716,26.204 L47.717,26.205 L47.716,26.201 L47.716,26.198 L47.715,26.189 L47.716,26.19 L47.715,26.188 L47.715,26.187 L47.714,26.179 L47.715,26.18 L47.714,26.175 L47.714,26.176 L47.713,26.169 L47.714,26.17 L47.713,26.162 L47.713,26.164 L47.712,26.163 L47.7209803,26.3052409 C47.7273761,26.5834241 47.6840851,26.6753532 47.6356789,26.6668252 L47.5187242,26.4165574 C47.506997,26.2961355 47.5333197,26.1639282 47.6382091,26.0979276 C47.650785,26.0968754 47.6636493,26.0957282 47.6755638,26.0948613 C47.6845721,26.1062354 47.6958346,26.1166211 47.7093899,26.1247772 L47.709,26.124 L47.709,26.125 L47.71,26.13 L47.71,26.139 L47.711,26.142 L47.71,26.141 Z M33.6770565,23.2026567 C31.8802626,23.1334946 32.9875585,23.3966966 34.0930118,23.5653741 L34.3132169,23.5977228 C35.4419191,23.7570389 36.3617946,23.7850356 33.8665238,23.2106966 L33.8665238,23.2106966 Z M14.7032719,10.805034 C15.2502407,11.2585627 15.640995,11.5023306 15.9054413,11.5966327 L15.7849535,11.6884947 C15.60304,11.6597051 15.3929175,11.630682 15.1767856,11.6033717 L15.1767856,11.6033717 L15.0029955,11.5819229 C14.5840057,11.5313994 14.1646874,11.4891385 13.9031765,11.4690037 C14.1342355,11.2683538 14.3683282,11.0723503 14.6060694,10.8806903 Z M8.5541015,11.2501729 C9.77276503,10.5865137 10.4437965,9.49317869 7.04229272,11.4061902 L7.04229272,11.4061902 L6.831,11.526 L6.92219294,11.4781512 C7.44062079,11.2267176 7.42026422,11.6102702 7.10890243,11.6176543 L7.04282342,11.613816 L6.97809091,11.6000909 L7.01212249,11.6104917 C7.40744249,11.7130434 7.92681755,11.5630748 8.39232943,11.334018 Z M27.034325,5.63188303 L27.0293264,5.66791134 C26.969556,6.14034422 27.0189633,6.6214019 27.1068106,6.9978319 C23.1194295,7.493243 19.4456731,9.00268505 16.3519671,11.2595948 C16.2969333,10.9345167 16.0408275,10.4572406 15.6954516,10.052674 C18.9652138,7.70239788 22.8367285,6.13741027 27.034325,5.63188303 Z M40.7777766,2.62334865 C39.2804323,1.64319131 39.0037471,2.73055592 40.7540795,2.71647741 L40.7540795,2.71647741 L40.7940909,2.71509091 L40.7045658,2.71335343 C40.2560523,2.69299902 40.5518368,2.51263765 40.8527834,2.67743225 L40.8527834,2.67743225 L40.906,2.71 Z M32.7272727,2.66890604 C32.0340487,2.2283944 31.0163907,2.24893432 30,2.2676795 C30.6292244,2.52173646 31.3851808,2.6862553 32.7272727,2.66890604 Z M16.2408935,28.3441124 C15.9657711,28.4420555 15.8144918,28.4316209 15.7470582,28.3729867 L16.333293,28.1935334 C16.344328,28.2246766 16.3544893,28.2589357 16.3636364,28.2965221 L16.363,28.295 L16.337,28.192 L16.881,28.026 L17.202,28.256 L17.2582521,28.6053496 C17.1612163,28.6152799 17.0678461,28.625646 16.980504,28.6362651 C16.8009163,28.6280192 16.6273938,28.6235476 16.5103831,28.6253448 L16.5103831,28.6253448 L16.4700909,28.6260909 L16.482,28.597 L16.4719255,28.6196168 C16.4554257,28.6446654 16.4623314,28.592924 16.4728898,28.5742334 L16.4811847,28.5681289 L16.486,28.58 L16.4699663,28.5134099 C16.4237378,28.3706243 16.3687235,28.401443 16.3234166,28.4934982 L16.3046475,28.536372 C16.289246,28.5439433 16.2737643,28.5567482 16.259254,28.5768935 C16.1520861,28.5637686 15.9572536,28.5541274 15.6479838,28.5499923 C15.8655368,28.4884048 16.1036382,28.404867 16.3636364,28.2965221 L16.358,28.298 Z M6.839,14.225 L6.84,14.224 L6.836,14.232 L6.837,14.229 L6.82988436,14.2436409 L6.81818182,14.2657343 C7.38358274,14.0544211 7.84863489,13.8189453 8.22449764,13.5782271 C4.77331247,18.1464488 2.72727273,23.8342853 2.72727273,30 C2.72727273,32.9467492 3.1946134,35.7843452 4.05921994,38.4427132 C4.00855067,38.6618231 3.96093212,38.9234595 3.9370217,39.1783217 L3.94,39.148 L3.94,39.149 L3.939,39.157 L3.939,39.161 L3.938,39.165 L3.938,39.173 L3.98985216,38.9857882 C4.00647015,38.9245971 4.02209882,38.8663915 4.03674668,38.8111668 L4.07775636,38.6544319 C4.07636644,38.7911136 4.07549894,38.8982669 4.07506773,38.9790695 L4.07506773,38.9790695 L4.074,39.085 L4.074,39.086 L4.06811926,39.1166514 C3.98159283,39.1779568 3.90924244,39.2893953 4.01416928,39.2777211 L4.06214527,39.267234 C4.06443469,39.2919909 4.06846696,39.3173593 4.07467541,39.3427404 L4.074,39.341 L4.08495854,39.2972119 L4.08495854,39.2972119 L4.09179943,39.2576065 C4.12551644,39.2455212 4.16682753,39.2277572 4.21687447,39.2031018 L4.21687447,39.2031018 L4.19767909,39.2069573 C4.18356621,39.2003827 4.21028742,39.1554963 4.21676567,39.1748956 L4.21676567,39.1748956 L4.216,39.188 L4.21913509,39.1471404 C4.21677603,39.1160392 4.20712912,39.0968789 4.19286082,39.0868275 L4.16832562,39.0782281 L4.14627401,39.0801841 L4.13885817,39.0811682 L4.12082386,39.0868725 C4.12816386,38.9884879 4.10152604,38.9989867 4.08111161,39.0640245 L4.081,39.063 L4.08285438,38.9967308 C4.08467478,38.9225062 4.08673304,38.8279825 4.08907425,38.7176028 L4.09151145,38.6021023 C4.09467094,38.589805 4.09777416,38.5776826 4.10082175,38.5657336 C7.69231472,49.432662 17.9305847,57.2727273 30,57.2727273 C45.0623114,57.2727273 57.2727273,45.0623114 57.2727273,30 C57.2727273,29.5707073 57.2628086,29.1437312 57.2431879,28.7192884 C57.7279524,28.7502033 58.0727613,28.7638349 58.2981782,28.7663385 L58.2981782,28.7663385 L58.4292572,28.7664402 C58.9241354,28.7604521 58.489313,28.6742094 57.5810033,28.6306921 C58.0679292,27.9689223 58.384263,27.7267816 58.5343457,27.6466645 L58.5343457,27.6466645 L58.5570909,27.6350909 C58.3870604,27.646291 57.9488398,27.5597753 57.2510868,26.8282077 L57.2510868,26.8282077 L57.1190909,26.6860909 L57.111,26.676 L57.1713652,26.7403952 C57.4240304,26.9931129 57.3980384,26.7586155 57.1653998,26.6865761 L57.1080785,26.6731312 L57.2663877,26.697154 C59.3822466,26.9912272 58.3287686,25.705643 57.0045852,26.167732 C56.4636194,22.3132811 55.1156991,18.717086 53.1377335,15.5554117 L53.1547034,15.4726938 L53.1547034,15.4726938 L53.1791763,15.2519813 C53.2467866,15.6247965 53.3157071,15.804361 53.2853294,15.0759223 L53.2853294,15.0759223 L53.278,14.935 L53.2799818,14.9746318 C53.2825386,15.1175169 53.2427568,14.7950521 53.2668669,14.8683248 L53.274,14.897 L53.2387728,14.7451698 C53.0506453,13.9688655 53.0480081,14.2684321 53.1004322,14.7114307 L53.1091482,14.7824339 C53.0008775,14.5393436 52.7590733,14.3638179 52.3019071,14.2962778 C51.2922784,12.8669396 50.1499281,11.5388148 48.8918858,10.3302214 L48.8972252,10.3100856 C49.1893789,9.25307894 49.2238256,8.21521192 48.4815776,9.94518225 C43.6224189,5.46395273 37.1308024,2.72727273 30,2.72727273 L29.957,2.727 L29.9568951,2.71035728 L29.9540909,2.68309091 L29.9549295,2.68096971 L29.9530909,2.67009091 L29.9520909,2.65509091 L29.9520909,2.65209091 L29.9516535,2.63199043 L29.9500909,2.61809091 L29.9468963,2.56086399 L29.9450909,2.54609091 L29.9430909,2.51409091 L29.9420909,2.48809091 L29.94,2.474 L29.9432533,2.65515905 C29.9436398,2.67980021 29.9440346,2.70426221 29.9444373,2.72854467 L30,2.72727273 C26.5401984,2.72727273 23.2308678,3.37151557 20.1854272,4.54658224 C19.9832627,4.35069259 19.6510471,4.09526271 19.1452988,3.77622378 L19.1452988,3.77622378 L19.1949761,3.81317762 C19.3871455,3.98205922 19.2866807,4.25631539 19.1920681,4.31018851 L19.1920681,4.31018851 L19.1800909,4.31409091 L19.1847609,4.32743628 C19.2618031,4.51815223 19.3995467,4.67756014 19.5569639,4.79994894 C19.4213201,4.85440966 19.2863082,4.91170949 19.1518586,4.97006089 L19.0909091,4.97258638 C19.1040631,4.97526381 19.1170956,4.97800694 19.1300148,4.9808091 C18.1783754,5.39365647 17.2569636,5.85930147 16.3673095,6.37375363 C16.3850168,6.32772005 16.4042749,6.20380233 16.4254842,5.97372233 L16.4254842,5.97372233 L16.436,5.845 L16.4332805,5.8704642 C16.4208098,5.94200769 16.4153945,5.6471813 16.4312776,5.76141883 L16.433,5.777 L16.4213632,5.651592 C16.4054045,5.49524722 16.3910284,5.37621224 16.377899,5.29159161 L16.3682805,5.23453358 C16.3835028,5.1956634 16.4018344,5.14307157 16.4237048,5.07415288 L16.42,5.082 L16.412,5.099 C16.4098243,5.08144267 16.4133445,5.05817738 16.4168361,5.04716515 L16.421612,5.04274474 L16.423,5.064 L16.4221812,4.97581529 C16.4129964,4.73968078 16.3645636,4.87324349 16.332785,5.03840869 L16.3238069,5.08856824 C16.3033362,5.10376646 16.292413,5.26710291 16.2896945,5.47360986 L16.289173,5.63494443 L16.289173,5.63494443 L16.2916024,5.80262721 C16.297944,6.0777322 16.3157058,6.33871836 16.3423815,6.38965857 C13.8424472,7.83734451 11.5939699,9.67204239 9.67822587,11.8109591 L9.68058933,11.7393046 L9.68058933,11.7393046 L9.68,11.728 L9.681,11.724 L9.681,11.693 L9.682,11.691 L9.682,11.663 L9.683,11.659 L9.68305871,11.6502649 L9.6529761,11.8189472 C9.65142342,11.8281254 9.64987942,11.8372804 9.64834403,11.8464115 C9.6130289,11.8839382 9.57837022,11.9229881 9.54382217,11.9621379 C9.54408897,11.881178 9.52458732,11.8128732 9.48902062,11.7595844 C9.49840774,11.7440849 9.50731773,11.7292788 9.51576809,11.7151438 L9.51576809,11.7151438 L9.52811342,11.7064345 L9.599,11.649 L9.5887021,11.6572523 C9.57734515,11.6632597 9.60162434,11.6372358 9.61418724,11.6279673 L9.62109091,11.6260909 L9.65802811,11.5739202 C9.71513073,11.4847545 9.69154667,11.4869843 9.64034566,11.5264779 L9.64034566,11.5264779 L9.611,11.549 L9.63506462,11.5023756 C9.68504173,11.3983824 9.61263955,11.4822324 9.54092857,11.5975081 L9.51430973,11.6419041 L9.51238446,11.6418536 L9.49161039,11.6650937 C9.47498992,11.6825389 9.45945591,11.6995418 9.44687859,11.7146711 C9.42116374,11.6919819 9.39067209,11.6743546 9.3553263,11.6614834 C9.34023411,11.6397704 9.33174727,11.6383488 9.32861028,11.6543054 C8.92155,11.5532671 7.98740976,12.1354546 6.92245999,14.0724743 L6.92245999,14.0724743 L6.841,14.222 L6.839,14.225 Z" id="Combined-Shape"></path>
            </g>
        </g>
    </g>
</svg>