<?xml version="1.0" encoding="UTF-8"?>
<svg width="60px" height="60px" viewBox="0 0 60 60" version="1.1" xmlns="http://www.w3.org/2000/svg" xmlns:xlink="http://www.w3.org/1999/xlink">
    <title>83AC523A-3EF2-4985-95D8-FA456CC1A408</title>
    <g id="Page-1" stroke="none" stroke-width="1" fill="none" fill-rule="evenodd" opacity="0.151733398">
        <g id="UiKit_Icons" transform="translate(-500.000000, -3030.000000)" fill="#4C9EEA">
            <g id="Group" transform="translate(500.000000, 3030.000000)">
                <path d="M41.7457684,49.9901205 L42.2727273,50.979021 L42.214,50.954 C42.1163388,51.0661432 42.4483236,51.0742803 42.3176338,50.9558067 L42.264,50.917 L42.2719473,50.9268864 C42.2714744,50.9280754 42.2703063,50.9289838 42.2687915,50.9296044 L42.263556,50.9305961 L42.2610909,50.9185265 L42.2431973,50.8174792 C42.2313978,50.7579148 42.2188112,50.6995886 42.2052429,50.6441043 L42.205,50.645 L42.2529476,50.738553 C42.2679265,50.767094 42.2819735,50.7927187 42.2950603,50.8155041 L42.3314124,50.8754197 C42.2446872,50.8821839 42.2442661,50.9065042 42.3981631,50.9590434 C42.4209466,50.9794996 42.4383603,50.9835862 42.449564,50.9735943 C42.5103869,50.9919961 42.5884707,51.013319 42.6861827,51.0378689 L42.6623408,51.0315074 C38.9653952,53.2620939 34.6325701,54.5454545 30,54.5454545 C27.1647682,54.5454545 24.4418118,54.064746 21.9081882,53.180386 C21.9027325,52.8950268 21.8875568,52.4456738 21.8598303,51.7863338 L21.865,51.944 L21.8651548,51.9928997 C21.8608163,51.9991191 21.841159,51.6954712 21.8493897,51.7152749 L21.855,51.751 L21.8503104,51.7087664 C24.3856147,52.660994 27.1319848,53.1818182 30,53.1818182 C33.9998087,53.1818182 37.7630201,52.1688245 41.0470781,50.3853932 C41.3843724,50.5778137 41.7907365,50.7771076 42.2727273,50.979021 L42.215,50.954 L41.726723,50.0013231 C41.7330734,49.9975919 41.7394219,49.9938577 41.7457684,49.9901205 Z M13.8590906,11.507065 C14.1411358,11.5519099 14.7136363,11.6293391 15.7024467,11.7503862 C13.8651353,13.1924512 12.2503347,14.906131 10.9193026,16.8310281 C10.6025666,16.90301 10.2215536,16.995492 9.77086365,17.1115547 L9.77086365,17.1115547 L9.60309091,17.1545265 L9.56809091,17.1635265 L9.55809091,17.1665265 L9.55113379,17.1685728 C9.97946625,17.1497492 10.4019366,17.1001268 10.7796835,17.038281 C9.67221237,18.6743458 8.76996646,20.459652 8.10751654,22.3574372 C6.34891648,21.4562357 6.63904427,23.5040627 7.50341663,24.3810283 C7.36235762,24.9491656 7.24167015,25.5266117 7.14288796,26.1115022 C6.7217829,26.2423566 6.74991795,26.6362577 7.00148527,27.0780996 C6.88017433,28.0355263 6.81818182,29.0105236 6.81818182,30 C6.81818182,33.2042223 7.46827195,36.256608 8.64375338,39.0324581 C8.48330412,39.0345582 8.32623353,39.0680975 8.18181818,39.1697707 C8.39226532,39.2339229 8.58651748,39.2894686 8.76583116,39.3132726 C11.2524532,44.9765507 15.9383112,49.4546803 21.7422694,51.6678778 C21.7510935,51.8277309 21.7612641,52.0047644 21.77262,52.1844641 L21.77262,52.1844641 L21.7861861,52.3920962 C21.8049383,52.6700725 21.8256411,52.9419045 21.8447345,53.1572121 C12.2976739,49.7963419 5.45454545,40.6973201 5.45454545,30 C5.45454545,22.6797167 8.65904701,16.1078848 13.7417831,11.6107714 Z M12.2727273,51.0507791 C11.3846261,50.8463769 10.7922478,50.6643094 9.54545455,50.9093926 C10.6080041,51.1626519 11.2446942,51.2637562 12.2727273,51.0507791 Z M42.9294979,50.8679814 L42.8632825,50.9076891 C42.7203188,50.8917107 42.582937,50.8799361 42.4784698,50.8770331 C42.4900797,50.6114892 42.3249959,49.9061069 42.2003962,49.7159355 L42.2111925,49.7086491 C44.241616,48.4479567 46.0628653,46.8822468 47.6109157,45.0755442 C47.6109907,45.2949769 47.6113139,45.5145082 47.611702,45.7342657 C47.8071477,45.4329442 47.8932056,45.1324697 47.8177745,44.8324056 C48.8739359,43.5634927 49.7985343,42.1797407 50.568691,40.7026512 L50.660385,40.705181 C51.251688,40.721621 51.7338392,40.7053894 52.112082,40.671101 C50.0763724,44.8786647 46.8761289,48.4175136 42.9294979,50.8679814 Z M25.6762695,32.0045087 L27.2007024,39.0669005 C27.1468733,39.0882203 27.1313913,39.1214384 27.137035,39.1565799 C26.9294267,39.159636 27.0095394,39.17364 27.1497351,39.1846743 C27.1516393,39.1883096 27.1537404,39.1919384 27.1560218,39.1955502 L27.1560218,39.1955502 L27.1213816,39.2020551 C27.1089013,39.2045241 27.0976304,39.2068101 27.0879345,39.2088488 L27.0515809,39.2176019 C27.0438421,39.220776 27.072995,39.2179435 27.1624259,39.2050022 C27.1829356,39.2333604 27.2138788,39.2600601 27.2469612,39.2797981 L28.2343069,43.8468263 L28.2585834,44.0161 C28.2970022,44.4088636 28.2078362,44.7861679 27.9910855,45.1480131 C27.7743348,45.5098582 27.4819007,45.7754573 27.1137832,45.9448104 L26.9513849,46.0114977 L23.8920623,47.1250001 L24.6681254,45.4277645 L24.4480777,44.422254 C24.5697169,44.4022394 24.7531295,44.0157728 24.7475166,43.1118881 L24.746,43.225 L24.7406183,43.3077332 C24.7074077,43.6841032 24.5711329,43.5168043 24.6832393,43.2372916 L24.711192,43.1758357 L24.736,43.13 L24.6754097,43.2312515 C24.4907289,43.5497822 24.3966589,43.8198191 24.3608535,44.0218917 L24.127175,42.9567993 L22.2282851,43.6479387 L22.8371235,47.5089664 L19.5316485,48.7120609 L18.8587412,44.6492911 C18.9304703,44.4938497 19.0069933,44.320074 19.0909091,44.1269387 C18.9590123,44.005915 18.8347293,43.8951719 18.7173979,43.7950036 L17.2719235,35.0634405 L24.4643346,32.444494 C24.4494412,32.6898489 24.4342081,32.9809534 24.4187787,33.3233333 L24.4187787,33.3233333 L24.4120909,33.4615265 L24.4154739,33.4196619 C24.4197749,33.3507259 24.4223928,33.3466753 24.4234347,33.3717552 L24.4234347,33.3717552 L24.4231642,33.4622591 C24.4215864,33.523089 24.4176711,33.5875356 24.4080909,33.5785265 L24.4080909,33.5785265 L24.4275489,33.661251 C24.5825887,34.2913129 24.6569538,33.727107 24.6772552,32.9939572 L24.6772552,32.9939572 L24.6812196,32.8077434 C24.6831322,32.6820456 24.6836046,32.5540284 24.68276,32.4284385 L24.68276,32.4284385 L24.681,32.366 L25.6762695,32.0045087 Z M21.9414851,44.8165463 C21.9933623,44.073524 21.8712453,44.5226789 21.7775729,45.0182662 L21.7775729,45.0182662 L21.74768,45.1836101 C21.658114,45.7026908 21.6253029,46.1316637 21.8873347,45.1230212 L21.8873347,45.1230212 L21.913,45.018 L21.9043344,45.0450384 C21.8915677,45.0714797 21.9218419,44.9048174 21.9309225,44.8986683 L21.9333993,44.9106069 L21.933,44.913 Z M35.4730909,39.0215265 L35.5000909,39.0255265 L35.491,39.024 L35.4970909,39.0255265 L35.4980909,39.0255265 L35.5230909,39.0295265 L35.5290909,39.0305265 L35.5665832,39.0371946 C35.5744561,39.0384586 35.5826364,39.0397721 35.591088,39.0411291 L37.670934,40.6082153 C37.3862605,40.7148599 36.9633194,40.898996 36.3558804,41.1829347 C36.7567605,41.4311545 37.071214,41.6501785 37.3122527,41.8428499 L37.3122527,41.8428499 L37.3250909,41.8535265 L37.3277057,41.8390813 C37.3811781,41.5393523 37.755204,41.1346739 37.9901469,40.8471308 L39.0128522,41.6214826 L37.2136542,42.2758167 C35.7364655,42.3596764 35.3470469,42.5535347 35.4782893,42.7334858 L33.7307334,41.4420702 L32.61289,43.9508784 L28.9206041,45.2947606 L31.6078573,39.2886615 C31.7079905,39.2807986 31.8121556,39.2711568 31.9201658,39.2595546 C32.0299257,39.2615877 32.1338789,39.2629629 32.2283958,39.2635753 L32.2283958,39.2635753 L32.4637817,39.2632313 C32.7822656,39.2593982 32.8632692,39.2396287 32.4165742,39.1958485 C32.4644471,39.1887137 32.5128985,39.1812173 32.5619161,39.1733474 L32.5619161,39.1733474 L32.684,39.152 L32.6053076,39.1655132 C32.5662445,39.1713979 32.5287879,39.1765909 32.492981,39.181141 L32.3905526,39.1929116 C32.2706266,39.1813326 32.1155149,39.1681363 31.9176914,39.1526297 C31.9964564,39.1221625 32.2627947,39.099359 32.7272727,39.1457353 L32.7272727,39.1457353 L32.5117373,39.1249957 C32.3429688,39.1094017 32.1835001,39.096226 32.033097,39.0852424 L34.5665757,38.2678831 L35.571,39.025 L35.459,39.019 L35.4670909,39.0205265 L35.4746226,39.0224291 L35.49,39.024 L35.4730909,39.0215265 Z M23.038723,39.3916205 C22.6804686,39.0676487 21.7765024,39.0386835 21.819676,39.8340992 L21.6232562,39.9067905 L21.7243144,40.5234208 C21.6774714,40.5558078 21.6668911,40.5761992 21.7615844,40.5474816 L21.73,40.555 L21.8164126,41.0754302 C21.8096668,41.2328227 21.8029637,41.4105574 21.7967925,41.5938236 L21.7917445,41.7487431 L21.7851897,41.9673657 C21.7759408,42.2926204 21.7693841,42.603968 21.7681867,42.819275 L21.768535,42.978388 C21.7697252,43.0662291 21.7729141,43.1150474 21.7785994,43.1095177 C21.7821199,43.3218679 21.812729,43.5366337 21.858104,43.1046096 L21.857,43.112 L21.853,43.13 L21.8494729,43.1194355 C21.8486302,43.1099624 21.8483344,43.0972806 21.8487383,43.0879355 L21.852,43.077 L21.855,43.088 L21.8409703,42.9987823 C21.8307176,42.9422354 21.8218405,42.9065301 21.8144954,42.889219 L21.8076669,42.8779485 C21.8185506,42.7475617 21.8320003,42.5579186 21.8484004,42.2973713 L21.8484004,42.2973713 L21.8550909,42.1815265 L21.8526837,42.2100537 C21.8511393,42.2232901 21.8502097,42.2216021 21.8497497,42.2097916 L21.8497497,42.2097916 L21.8496331,42.1487939 C21.8511356,42.0261512 21.8592063,41.7957628 21.8606123,41.8951932 L21.8606123,41.8951932 L21.8600909,41.9595265 L21.8620827,41.8830794 C21.8641729,41.69359 21.8656984,41.5264657 21.8667182,41.3799263 L21.8875778,41.5083113 L23.6809738,40.8555685 L23.3111584,39.2924444 Z M27.2838751,40.4305746 C27.210482,40.4059089 27.1994972,40.4613712 27.2171022,40.5047246 C27.0840967,40.6097977 26.6983401,41.274258 25.9090909,42.965204 L25.9090909,42.965204 L26.052027,43.0146395 C26.9936511,43.3209661 26.7156839,42.812862 26.3460526,42.7333752 L26.3460526,42.7333752 L26.2990909,42.7255265 L26.314941,42.70715 C26.5052912,42.4636234 26.7071631,42.0854501 26.8762453,41.7099371 L26.8762453,41.7099371 L26.9465724,41.5495661 C27.1337406,41.1111956 27.2665699,40.7037665 27.2723741,40.5540566 C27.2940811,40.5502962 27.3175699,40.5234675 27.3361097,40.4559791 L27.3361097,40.4559791 Z M35.8829611,28.2502272 C35.888538,28.2547952 35.8941551,28.2593366 35.8998116,28.263851 L38.0508048,38.2123888 L36.1167503,38.9163271 L35.0680623,38.0045128 L34.7344988,36.455491 L30.7953799,37.8455817 L31.054136,39.0402216 C30.5220522,39.0338814 30.2048271,39.0685298 30.0724858,39.1152836 L30.0724858,39.1152836 L30.0632013,39.0982918 C29.7986997,38.7079094 29.834878,39.727775 30.1163325,39.1887398 L30.0894656,39.234259 C30.2454188,39.2874207 30.6000672,39.3274462 31.1127341,39.3147604 L31.1556068,39.5093742 L30.5034012,40.9998411 L28.5693467,41.7037794 L26.4017353,31.7000387 L26.9855991,31.4897257 C27.0680478,31.5023998 27.1468766,31.5097968 27.2183778,31.5099832 L27.2183778,31.5099832 L27.2610909,31.5085265 L27.253,31.509 L27.2727273,31.5086252 C27.2116633,31.4871004 27.1530124,31.4665951 27.0967052,31.4470731 L29.931432,30.4140241 C29.9126426,30.6770951 29.8925621,30.975092 29.8712121,31.3111888 L29.872,31.303 L29.8770909,31.2865265 L29.8780909,31.2825265 L29.8879088,31.247835 C29.9475947,31.0105264 29.9958103,30.7003742 30.0329739,30.3782469 L32.0106317,29.6595182 C32.4094887,29.8501677 32.7110446,29.993543 32.7266387,29.9997878 L32.7081745,29.9902978 C32.6474243,29.9603341 32.4374856,29.858878 32.0178865,29.6571276 Z M40.1332922,26.7425314 C39.8356534,26.9301419 39.6088669,27.1464169 39.5454545,27.3776224 C40.7223116,26.9547233 41.4478727,26.6478847 41.8512121,26.4381722 C40.2895795,27.8218847 39.6622202,28.4556738 39.5597638,28.6340662 C39.5457744,28.6370997 39.5417329,28.6406802 39.5505872,28.644881 C39.4804495,28.6530933 39.406258,28.7876032 39.612993,28.7080831 L39.612993,28.7080831 L39.6015612,28.7067075 C39.5957647,28.7019095 39.5934299,28.690781 39.59343,28.6819104 C39.5961752,28.6809382 39.5990312,28.6798654 39.6019962,28.6786933 L39.6019962,28.6786933 L39.608,28.696 L39.603989,28.6778972 C39.6085893,28.6760405 39.6134428,28.6739529 39.618333,28.6715716 L39.632898,28.6634839 C39.7421266,28.6799878 39.9596109,28.7018608 40.3183756,28.7300907 L40.318,28.73 C40.3463618,28.7323856 40.3734231,28.7344951 40.4012547,28.7366394 L40.4870733,28.7431777 L40.556,28.748 L40.5020039,28.7432477 C40.4197915,28.7357885 40.3849851,28.7305285 40.3835135,28.7270191 L40.3884403,28.7247082 L40.421455,28.7221789 C40.4682523,28.7204595 40.5532788,28.7210602 40.6480276,28.7230722 L40.6480276,28.7230722 L40.7815965,28.7266374 C41.0947521,28.7366212 41.3736358,28.7568323 40.6787806,28.7573193 L40.8684501,28.7570463 C41.112594,28.7564927 41.3199376,28.7551927 41.4941998,28.7532659 L40.4069286,29.1491543 L40.9172081,32.5205679 L42.2182993,32.0470094 L42.8694318,33.5077426 L42.3723846,31.1312727 C42.8466245,31.9826022 44.7675178,29.5851509 42.6895941,28.6888112 C42.3790076,29.6089511 42.2651699,30.2433426 42.2731133,30.6573773 L41.8758008,28.7469066 C42.4904822,28.7318758 42.3167501,28.7030444 41.8593618,28.6766879 L41.8486783,28.6244003 L41.7249862,28.6694214 C41.5040183,28.6581675 41.2378469,28.6476747 40.9685767,28.6393005 L40.9685767,28.6393005 L40.7443701,28.6328416 C40.5032856,28.6264554 40.2691714,28.6220927 40.0729839,28.620708 L39.8110174,28.6209838 L39.8110174,28.6209838 L39.7086234,28.6230206 C39.9522732,28.4772174 40.4342184,28.1060749 40.9151808,27.6820501 L40.9151808,27.6820501 L41.1227304,27.4955933 C41.1456246,27.4746238 41.1684365,27.4535894 41.1911394,27.4325095 L41.1911394,27.4325095 L41.3258357,27.3056365 C41.7734737,26.8776913 42.1548758,26.4468331 42.2509582,26.1722642 C42.2723216,26.1448484 42.2774686,26.1230377 42.2678094,26.1065847 C42.2704164,26.0926625 42.2720686,26.0792695 42.2727273,26.0664336 L42.2727273,26.0664336 L42.2484018,26.0875071 C42.2036866,26.0622761 42.0998045,26.0602761 41.9574733,26.0784317 L44.6651684,25.0931148 L45.1598628,27.4139255 C44.8511737,27.8681669 45.0226573,28.2742486 45.3920499,28.5004191 L45.9723216,31.2212992 C45.0303363,31.1759127 44.3605281,31.1932094 45.9795776,31.4086056 L45.9795776,31.4086056 L46.012,31.409 L47.0337072,36.1959632 L47.5963412,35.9911812 L47.6200665,35.9425771 C47.640871,36.1531089 47.6721368,36.3575828 47.7066265,36.468263 C47.6427677,36.551479 47.5962025,36.7070178 47.7304625,36.6932492 L47.7304625,36.6932492 L47.7490909,36.6885265 L47.7388922,36.6852508 C47.7349572,36.6752137 47.7737843,36.6487488 47.7842916,36.6623394 L47.7842916,36.6623394 L47.7857515,36.6809253 L47.8000532,36.6020806 C47.935633,36.6243315 48.2462508,36.6412623 48.6090963,36.6513257 L48.8941125,38.024998 L44.2172171,39.7272487 L44.1288817,39.3197121 C44.4209647,39.3052846 44.7064278,39.2668873 45,39.1987895 L45,39.1987895 L44.9664515,39.2066262 C44.9947482,39.2568642 45.1134807,39.1671065 44.9690966,39.1350575 L44.9690966,39.1350575 L44.9792024,39.1410158 C44.9804823,39.1454446 44.9729884,39.1495994 44.9695675,39.1463578 L44.9695675,39.1463578 L44.969,39.136 L44.9615874,39.1697865 L44.9615874,39.1697865 L44.9640006,39.193316 C44.6763501,39.1492713 44.3847492,39.0976262 44.074292,39.0644502 L43.2728492,35.382013 L42.0069226,35.8427726 L41.1647287,33.9665155 L41.6659177,37.1832295 C41.2276567,37.6486227 40.8818835,38.106468 40.7125969,38.9741731 C40.3752281,38.9953506 40.0526116,39.0500385 39.8274601,39.1529185 L39.8274601,39.1529185 L39.7890909,39.1705265 L39.8208577,39.1654325 C40.0306457,39.1437569 40.1485773,39.3930271 39.5454545,39.3930271 L39.5454545,39.3930271 L39.7984768,39.3924094 C40.118264,39.3908141 40.40146,39.3861754 40.6496633,39.3789289 C40.6106883,39.7121999 40.5928799,40.098211 40.5993929,40.5526398 L40.5993929,40.5526398 L40.6030909,40.7485265 L40.6098784,40.7353519 C40.7781638,40.3308103 40.9785079,39.8487674 41.1807739,39.3577846 C41.5546557,39.3376085 41.8186405,39.3101354 41.9932809,39.2790132 L42.1776687,40.4695836 L40.46,41.094 L40.4645644,41.0846413 L40.4870909,41.0275265 L40.4150038,40.9817885 C39.712577,40.5628238 39.3322377,40.9304625 39.6708023,41.3813949 L39.1535107,41.5702871 L37.029,28.743 L37.0734048,28.7461888 C37.4176834,28.7653709 37.7194976,28.7821482 37.9820298,28.79639 L38.1716133,28.806594 C38.0690834,29.0307267 37.9741655,29.5319165 38.1166728,29.9318908 L38.1166728,29.9318908 L38.1400909,29.9925265 L38.143,29.999 L38.1840255,29.8146715 C38.2834176,29.3423222 38.3195765,29.0430288 38.3190552,28.8730358 L38.3171922,28.8152639 C39.0835033,28.857632 39.4373964,28.8767007 39.5238423,28.8808112 L39.5238423,28.8808112 L39.5356332,28.8808529 C39.4559215,28.8753739 38.9029597,28.8435664 38.31718,28.8099672 C38.3133363,28.756706 38.3044399,28.7223748 38.2921033,28.7043196 L38.2921033,28.7043196 L38.3078505,28.6938633 L38.2507529,28.6448421 C38.0308944,28.4886363 37.9757663,28.8440304 38.1966121,28.7576868 C38.1889317,28.770956 38.1811889,28.7859617 38.1735542,28.8027463 C38.1682479,28.8024504 38.1629417,28.8021547 38.1576361,28.8018591 L38.1576361,28.8018591 L37.8968484,28.7873915 C37.5496368,28.768219 37.2282242,28.7508566 37.0281789,28.7408029 L37.0204883,28.6875963 C37.6281311,28.7115305 38.1809625,28.3846763 38.1818172,27.4528429 Z M53.281614,28.814176 C53.4115319,28.8351316 53.6566043,28.8457031 53.9468091,28.8476193 L54.2182884,28.8470536 C54.3167661,28.8460651 54.417663,28.8442608 54.5187556,28.8416954 C54.53643,29.2251623 54.5454545,29.6115273 54.5454545,30 C54.5454545,33.6762518 53.7372613,37.1637399 52.288857,40.2944823 C51.8736892,40.3395977 51.3195861,40.4455784 50.6378363,40.6437119 L50.6378363,40.6437119 L50.5927408,40.6563987 C52.030107,37.8844284 52.9242067,34.7853914 53.1340499,31.500278 C53.1785666,31.4977321 53.1943467,31.4859162 53.1711263,31.4623933 L53.1711263,31.4623933 L53.1818182,31.4607268 C53.1669955,31.4497545 53.1522111,31.4390412 53.1374444,31.4285893 C53.1448655,31.3243299 53.150611,31.2180311 53.155638,31.1115443 L53.1692436,31.1973471 L53.172,31.208 L53.1694651,31.1846988 C53.1518553,31.0485382 53.1949468,31.1278506 53.1942702,31.2596304 L53.192,31.295 L53.2122895,31.0849181 C53.3211455,29.8494894 53.3266776,29.1645285 53.2895832,28.8682889 Z M34.4981573,39.032622 C32.7558449,39.7628862 37.345873,38.9227434 34.4981573,39.032622 Z M55.9690478,39.1783217 C59.9787404,35.7649974 58.6309815,36.2820672 57.2926135,37.400714 L57.1544152,37.5184456 L57.1544152,37.5184456 L57.0857538,37.5786649 L56.947896,37.7033639 C56.3798247,38.2283447 55.9029959,38.8133744 55.9690478,39.1783217 Z M45.0581499,38.3200107 C44.7139181,36.5777299 45.0844162,40.5602508 45.0881689,38.6426883 L45.0881689,38.6426883 L45.0870909,38.5025265 L45.0868136,38.5320619 C45.0804154,38.6434899 45.0431391,38.2347559 45.0876482,38.4740515 L45.086,38.471 Z M41.777156,37.8976441 L41.9551509,39.0352859 C41.7906876,39.0044128 41.5753413,38.980723 41.3408092,38.9697829 C41.4941102,38.5965696 41.6439816,38.2290253 41.777156,37.8976441 Z M23.7307833,36.4248082 C24.8893001,35.9591376 25.0651589,34.4790833 22.5637286,35.7451527 L22.5432978,35.6509841 L21.0663834,36.188537 L21.2955404,37.8028567 L22.8779486,37.2269072 L22.7674804,36.7097649 C23.2277728,36.6275995 23.8182287,36.4987872 24.4535156,36.3185066 L24.4535156,36.3185066 L24.2293163,36.3505864 C24.0836228,36.3716533 23.9454349,36.3920789 23.8145164,36.4118499 L23.8145164,36.4118499 Z M34.2576262,34.2389151 L30.3487122,35.7850881 L30.5466795,36.6973983 L32.6780365,35.9739044 C32.7159416,36.5086099 32.7871243,36.9772136 32.8002993,35.9327086 L32.799,35.961 L32.7985068,35.9779944 C32.7958263,36.004676 32.7909195,35.9754483 32.7871335,35.9368817 L34.497859,35.3550626 L34.2576262,34.2389151 Z M48.2080099,34.7175788 L48.5729502,36.4828695 C48.1612572,36.5065585 47.9203675,36.5281683 47.808129,36.5460172 C47.8119012,36.5062369 47.8110581,36.4771137 47.8062696,36.4601476 C47.8215931,36.3949309 47.8361711,36.2937254 47.849337,36.1484646 L47.849337,36.1484646 L47.857,36.037 L47.8549513,36.0596635 C47.8447812,36.1149287 47.8324927,36.0204042 47.8342336,35.9612751 L47.837,35.932 L47.8469271,35.9505402 L47.857,35.994 L47.8233849,35.8343333 C47.8055677,35.754405 47.788965,35.6838233 47.7735178,35.6218742 L48.2080099,34.7175788 Z M33.6904847,31.5937399 L29.7520464,33.0272142 L30.0558671,34.4337515 L33.9908714,32.9972703 L33.6904847,31.5937399 Z M19.2840857,32.6181165 C23.0704682,32.7508262 22.2413974,29.719547 19.2426435,32.4665939 L19.2426435,32.4665939 L19.094,32.604 L19.1752062,32.5323778 C19.8901861,31.9214481 20.1886448,32.6215809 19.2095948,32.6130474 L19.0909091,32.6088029 Z M30.1244104,28.7507693 C30.3187672,28.846439 30.6600069,29.0113958 31.0326799,29.1906525 L31.0326799,29.1906525 L31.098,29.222 L30.1030495,29.583999 C30.1149252,29.3970813 30.1226423,29.2251965 30.1263023,29.083084 L30.1285837,28.9550368 L30.1284653,28.857363 C30.1278992,28.8143256 30.1265892,28.7785277 30.1244104,28.7507693 Z M30.152,28.761 L30.1414177,28.7566373 L30.1330909,28.7525265 C30.1189421,28.6783473 30.1083888,28.6657779 30.0928956,28.7332005 L30.0928956,28.7332005 L30.0712326,28.7229754 L30.0560909,28.7155265 L30.0424253,28.709159 L30.0424253,28.709159 L30.0550462,28.716462 C30.0667154,28.7222693 30.0793241,28.7285203 30.0924123,28.7353223 C30.0804384,28.7883628 30.0655533,28.8886892 30.047745,29.0438142 L30.047,29.041 L30.0325766,28.9389492 C29.9546469,28.4339424 29.9238832,28.7812102 29.9246518,29.2083539 L29.9263876,29.3707684 C29.9282303,29.4661205 29.931494,29.5606715 29.9360139,29.646289 L27.3615379,30.5828008 C27.3748613,30.5269408 27.3887398,30.4674512 27.40319,30.4041932 L27.40319,30.4041932 L27.434,30.264 C27.4011332,30.3813503 27.4358169,30.0802856 27.4446203,30.1202563 L27.4465294,30.1527018 L27.446,30.158 L27.4527659,29.9875925 C27.5343057,27.2628703 27.1784635,29.4867578 27.0969561,30.6784872 L25.9232316,31.1053605 C25.9165416,31.1062283 25.9123022,31.107953 25.9103513,31.1104501 L24.6505714,31.5692284 C24.6233145,31.2585072 24.5808747,31.1779209 24.5306472,31.6124022 L18.3835161,33.8504129 L17.305,28.863 L17.4551095,28.8668838 L17.4157742,28.8650896 C17.3003161,28.8539664 17.8600343,28.8029407 17.5442341,28.8533788 L17.544,28.853 L17.6900024,28.8322368 C19.8698747,28.5058053 19.1092164,28.4726623 18.0661333,28.5387791 L17.9734313,28.5448656 L17.7537053,28.5609045 L17.5333625,28.5792108 C17.4365849,28.5877486 17.3411375,28.5968408 17.249091,28.606354 L17.1602725,28.191908 L21.7233164,26.5303565 C21.7381412,27.0970245 21.827764,27.8731595 21.9039969,26.950663 L21.9039969,26.950663 L21.912,26.83 C21.9067044,26.8663798 21.9006171,26.8396088 21.896209,26.8035429 L21.8932612,26.7755004 C22.5733588,27.2682282 23.4511714,26.9270709 24.5454545,27.3776224 L24.431,27.336 L24.3254447,27.2982008 L24.3254447,27.2982008 L24.313852,27.4680021 C24.3074324,27.5724194 24.3023687,27.6760688 24.2988053,27.7762844 L23.5233129,28.0587413 L23.6618778,28.7030607 C23.347767,28.6695182 23.0656306,28.6974797 22.8215083,28.7645186 C21.3119559,28.3557421 21.7857105,28.5334825 22.4334885,28.7022948 L22.4334885,28.7022948 L22.5655539,28.7359424 C22.630888,28.7521966 22.6967343,28.7679765 22.7610484,28.782233 C21.3913506,29.2066248 21.3299049,30.8705336 23.8150379,29.4131377 L23.8709552,29.6703579 L27.3979417,28.3864729 C27.3272932,28.4969327 27.282895,28.5989189 27.2727273,28.6888112 L27.278,28.662 L27.2834757,28.6365944 C27.1781022,28.5520802 27.1801059,28.8164707 27.2920802,28.7457072 L27.3392305,28.7021245 L27.3273499,28.7091786 C27.3223593,28.7072458 27.3230355,28.6954205 27.3282192,28.6939747 L27.3282192,28.6939747 L27.337,28.699 L27.3292896,28.6875429 C28.4093648,28.6565622 28.8769022,28.2497492 29.1560649,27.746407 L37.4093368,24.74279 L37.3909664,24.6618674 C37.5579032,24.5716143 37.7622605,24.4117039 38.0052618,24.1650808 C38.0305325,24.3023295 38.0729744,24.4190039 38.1387307,24.5173725 C38.1358805,24.5795637 38.1339771,24.63316 38.1333277,24.6736589 L38.1337923,24.7358595 C38.1364976,24.7849403 38.1471466,24.746371 38.1696439,24.5629539 C38.2266413,24.6372349 38.2982341,24.7008263 38.3870469,24.7552448 C38.3999841,24.3939314 38.3421875,24.1439189 38.239449,23.9151164 C38.5670753,23.5453641 38.9535518,23.0370091 39.4011453,22.3584705 L39.4011453,22.3584705 L39.434,22.306 L39.3552996,22.4223279 C38.2012017,24.0886164 38.5539912,22.2904792 39.4029676,22.1452739 L39.4769286,22.1369951 L39.5454545,22.1370581 C38.3697411,22.0725749 37.5466049,22.7631851 37.1303985,23.4511292 L37.0616945,23.1311733 L24.6856807,27.6369718 C24.7204934,27.457877 24.7579651,27.2525917 24.7982282,27.0186724 L24.792,27.05 L24.781841,27.1058655 C24.7182176,27.4088893 24.7426927,26.8149463 24.7797179,26.9118359 L24.789192,26.9513695 L24.791,26.961 L24.7789644,26.8514481 C24.6149218,25.5082085 24.4424427,26.117681 24.3542324,26.9805041 L24.3451079,27.0738415 C23.5042284,25.8270967 23.1989714,25.812269 21.9646191,26.62024 L21.9646191,26.62024 L21.8950909,26.6655265 L21.8891064,26.6284821 C21.880537,26.5736733 21.8723481,26.5234665 21.8645308,26.4776492 L22.9750023,26.075921 C23.174094,26.0452794 23.2142258,26.0231449 23.1594703,26.0084129 L40.4382468,19.72038 C40.9971032,19.7418698 41.5782123,19.6959601 42.2663685,19.5080106 C42.2702219,19.5274403 42.2747285,19.5488997 42.2799483,19.5723659 L42.2799483,19.5723659 L42.2930909,19.6285265 L42.292,19.627 L42.2928801,19.6286861 L42.2950909,19.6385265 C42.2975762,19.6478253 42.2981223,19.6500508 42.2970909,19.6445265 L42.2970909,19.6445265 L42.2882587,19.5692029 C42.2588673,19.3477337 42.2329705,19.3152893 42.2564647,19.4544009 L42.2564647,19.4544009 L42.2664772,19.5064138 C41.9146478,19.4521434 41.6264051,19.4077006 41.3856798,19.3738622 L42.5842983,18.9383194 L43.8075418,24.5968243 L38.0818977,26.6811591 C38.037476,26.4921595 37.9773363,26.2875553 37.8996933,26.0664336 L37.903,26.079 L37.9183553,26.1353418 C38.0439894,26.8138852 36.1439434,26.4648732 37.587547,26.1291441 L37.722,26.099 L37.6810732,26.1070622 C35.8716785,26.4634673 35.3594673,27.0869646 35.4684617,27.63194 L32.864,28.579 L32.80865,28.5353398 C32.8285045,28.4759146 32.8244134,28.4727966 32.8070912,28.5003165 L32.7917861,28.5262999 C32.668295,28.4507904 32.6075527,28.4950262 32.5889577,28.5746253 C32.5120532,28.5727404 32.4762549,28.6043848 32.5635433,28.6979531 L32.558,28.691 L31.1078884,29.220114 C30.9684665,29.1532143 30.8185877,29.0813155 30.6577136,29.004161 L30.4564344,28.9076372 L30.3570909,28.8595265 L30.3540679,28.8586276 L30.3390909,28.8515265 L30.3440909,28.8535265 L30.3020909,28.8335265 L30.2343811,28.8011701 L30.2170909,28.7925265 L30.1790909,28.7745265 L30.1800909,28.7745265 L30.171,28.77 L30.169,28.769 L30.16,28.765 L30.163,28.766 L30.15,28.76 L30.152,28.761 Z M32.8245766,18.8560166 C32.8180019,18.8190551 32.8439984,18.6689018 32.848803,18.7232638 L32.848803,18.7232638 L32.849,18.736 L32.8516232,18.6203061 C32.8578113,17.8677047 32.74984,18.261073 32.6741112,18.7392182 L32.6624433,18.8152646 L32.648,18.916 L32.5076976,18.9690101 C32.1975779,18.5818148 31.5311321,17.9674077 30.3354374,17.0644155 L30.113,16.898 L30.1876295,16.9577058 C30.6453022,17.3481557 30.6151737,17.7787521 30.4626212,17.9895679 L30.4254099,18.0341979 L30.4010909,18.0565265 L30.4364214,18.106511 C30.780779,18.5765847 31.3113395,18.9829333 31.7751051,19.2361606 L22.3206799,22.6756891 L22.478,23.379 L22.4804425,23.3894194 C22.4373869,23.3921274 22.3894497,23.393471 22.3913617,23.3899965 L22.4033495,23.3863627 L22.2893222,23.4016659 C22.1130001,23.4271193 21.9930383,23.4473018 21.9194572,23.4628162 C21.894782,23.4660504 21.8739532,23.4691889 21.8582631,23.4718201 C21.8601202,23.4524549 21.861944,23.4333317 21.8642967,23.4173334 C21.8789663,23.37654 21.8934877,23.3289654 21.9070705,23.2742133 L21.9070705,23.2742133 L21.8728343,23.3175426 C21.9207452,22.8019216 21.9423756,22.4792723 21.9463037,22.3032283 L21.9463037,22.3032283 L21.9465822,22.2138725 C21.938662,21.8895899 21.8112427,22.5924086 21.7400177,23.3727079 L21.7400177,23.3727079 L21.7185983,23.6343746 C21.6892666,24.0418231 21.680292,24.4417346 21.7161677,24.7017229 L21.7161677,24.7017229 L21.7230909,24.7485265 L21.724,24.752 L21.7560007,24.4673312 C21.7860327,24.1892594 21.8118328,23.9404916 21.833599,23.719034 L21.8540278,23.506606 C21.9278579,23.5139818 22.1071522,23.5091379 22.3109689,23.4980616 C22.3694101,23.4972645 22.4337808,23.4961675 22.5044565,23.4947451 L22.5139881,23.5350377 L22.633,23.491 L22.7654152,23.4744371 C22.8396793,23.4646772 22.9026826,23.455892 22.9549603,23.4481738 L23.0253995,23.4374082 C23.1262274,23.4242182 23.1881579,23.4113852 23.1809995,23.4010737 C23.1855141,23.3957787 23.1711856,23.3923005 23.1431137,23.3905815 C23.1061039,23.3857399 23.0410923,23.3820491 22.9418865,23.3799506 L33.0319418,19.7072659 C33.5658427,19.8072039 34.5499061,19.5824557 33.8460903,19.4114041 L37.2539451,18.1715285 C37.563559,18.948036 37.8349588,19.3532742 38.0024167,19.4715175 C36.9769858,19.5630906 36.0892896,19.6807686 37.71341,19.6357003 L37.71341,19.6357003 L37.9600105,19.6074062 L38.1246766,19.5892184 C38.1302527,19.6053498 38.1442879,19.6133978 38.1607283,19.6119935 L38.182,19.603 L38.226,19.445 L38.2191248,19.4428223 L38.2195328,19.4294859 L38.234,19.41 L38.2088532,19.4333849 L38.2088532,19.4333849 L38.185554,19.4567127 L38.1652381,19.4581402 C38.2327303,19.2960007 38.1005799,18.7681216 37.6504342,18.0275256 L38.1015202,17.8612824 C38.142458,17.9740148 38.2105775,18.0866876 38.3106061,18.1993007 C38.3105332,18.0612449 38.3104603,17.9233227 38.3103801,17.7854497 L39.3597738,17.4024409 C39.3577606,17.464709 39.35645,17.5308395 39.3558048,17.5997886 L39.3558048,17.5997886 L39.3558381,17.8152697 C39.3610169,18.3971168 39.4054592,19.0896202 39.4715137,19.3754525 C39.286248,19.3732159 38.779527,19.4060183 38.2579124,19.4494737 L38.2579124,19.4494737 L38.182,19.603 L38.1864361,19.6026269 L38.2112114,19.5780555 C38.7870433,19.510061 39.14783,19.4621228 39.3458539,19.4307383 L21.4539966,25.9421863 C21.4161679,25.9426334 21.3761187,25.9433013 21.334315,25.9440719 C20.7523983,25.9483947 19.7975055,25.9960899 19.3442122,26.0495255 C19.2262552,26.0407503 19.1423739,26.0349657 19.1080366,26.0334667 L19.1080366,26.0334667 L19.0900909,26.0325265 L19.3230268,26.0525088 C19.1431216,26.0747627 19.0508715,26.0979531 19.1095217,26.1189786 C19.0727208,26.1332713 19.088591,26.1464554 19.174853,26.15729 C18.9471456,26.4446948 18.846924,26.6982837 18.8241957,26.89878 L17.0097481,27.5595196 L16.4130224,24.8259005 L15.2174251,25.2610624 L14.8279381,23.5063406 C16.4386879,23.4174379 16.5800363,23.373979 16.1649365,23.3690836 L16.1649365,23.3690836 L15.9982862,23.3689347 C15.6919382,23.3712434 15.2367271,23.3860468 14.804607,23.4120751 L14.6504919,22.71871 L26.3954775,18.4438848 L26.2839272,17.9185771 L25.535604,17.5037697 L27.2134391,16.8927334 C27.2234361,16.8979311 27.234181,16.9029971 27.2454922,16.9065716 C27.2437496,16.9254035 27.2427633,16.9578918 27.2424136,17.0005395 L27.2427097,17.1181853 C27.2483707,17.6726387 27.3063418,18.9420221 27.3030531,17.6132705 L27.3030531,17.6132705 L27.302,17.514 L27.3016153,17.5285283 C27.2996319,17.5475773 27.2950192,17.4069499 27.29698,17.3916737 L27.299,17.399 L27.2922812,17.2990329 C27.2787872,17.1147676 27.2685057,17.0008209 27.2607797,16.9415138 L27.2564455,16.9123609 C27.2668887,16.9164971 27.277693,16.92033 27.2880306,16.9238228 C27.0595879,17.1864485 29.4558166,18.7850908 30,17.9257389 L30,17.9257389 L29.7681859,17.8099294 C28.2147951,17.0405842 27.516851,16.834875 27.3271287,16.8990396 C27.2898017,16.8810958 27.2590621,16.8674323 27.2352268,16.8598311 L27.269,16.872 L33.3421514,14.6624188 L33.5690615,15.8329137 L37.6243421,14.3566831 C37.7584915,14.3668824 37.9074419,14.3749583 38.0696956,14.3799795 C38.044601,14.6073647 38.0499276,15.1392359 38.071846,15.6549528 L38.071846,15.6549528 L38.0610909,15.6645265 L38.0557512,15.6506627 C38.0519942,15.6418842 38.0481433,15.6328862 38.0444803,15.6243271 L38.0444803,15.6243271 L38.024,15.577 L38.0327388,15.6320109 L38.0327388,15.6320109 L38.0411976,15.6857403 L38.0133963,15.7123341 C37.7281101,15.9912998 37.3966287,16.3170274 37.0138623,16.6948403 L37.0138623,16.6948403 L36.8181818,16.8881119 L36.8505957,16.8757262 C36.981206,16.8092693 37.3319897,16.4968151 37.7389869,16.109847 L37.7389869,16.109847 L37.8685626,15.9859723 C37.9318054,15.9251982 37.9959462,15.8631234 38.0600379,15.8025429 C38.0690533,15.8574803 38.0779027,15.910027 38.0868426,15.9592645 C38.1118395,16.4026616 38.1478676,16.7821356 38.1864528,16.8672263 C38.1735489,16.8867953 38.1589939,16.9095243 38.1427283,16.935678 L38.157,16.911 L37.1377053,17.2834503 C37.0849946,17.2147801 37.0300103,17.1450496 36.9726914,17.0743374 L36.897,16.984 L36.9635503,17.0709925 C37.024501,17.1535015 37.072894,17.2279218 37.1103604,17.2932665 L36.9862216,17.3394048 C36.9434459,17.2508477 36.8981618,17.1392112 36.8535716,17.0025573 L36.8535716,17.0025573 L36.851,16.997 L36.893746,17.1393868 C36.9157909,17.2108247 36.9377746,17.2804543 36.9596774,17.3483007 L32.828,18.851 L32.8330756,18.8288414 C32.8295607,18.8414814 32.8267596,18.8503256 32.8245766,18.8560166 Z M20.5780711,26.1536523 C20.6642068,26.1605879 20.7451798,26.167099 20.8211892,26.1732012 L19.235,26.749 L19.2750824,26.1673247 C19.4273216,26.1786511 19.6813363,26.1867596 20.0640683,26.1901281 L20.2360554,26.1912771 L20.1817907,26.1907087 C20.1351918,26.1898952 20.1108831,26.1883832 20.1024951,26.1865041 L20.1024951,26.1865041 L20.102,26.185 L20.1287254,26.1864957 L20.2147536,26.1891138 L20.208,26.172 L20.2157193,26.17198 L20.2638226,26.1694785 L20.2844233,26.1685961 C20.3259856,26.1695615 20.3438177,26.1727992 20.2997644,26.1794396 L20.2147536,26.1891138 L20.3585279,26.1757261 C20.3484868,26.1775072 20.334261,26.1796115 20.3151522,26.1820752 L20.326,26.18 L20.4699734,26.1658233 Z M53.125,25.944 L53.123,25.941 L53.12,25.937 L53.118,25.934 L53.116,25.932 L53.116,25.931 L53.113,25.928 L53.1265265,25.9678669 L53.1265265,25.9678669 L53.1402281,26.0059834 L53.1495177,26.0260794 C53.1164495,26.0225052 53.0866,26.0155584 53.0588271,26.0095744 L52.9832411,25.9948959 C52.8616002,25.9746934 52.8482537,25.995271 53.1933483,26.1207486 L53.113,26.091 L52.9487618,26.1766287 C52.9230026,26.1908243 52.8979644,26.2051365 52.8736257,26.2195614 C52.7624989,25.5328355 52.6194273,24.8551298 52.4474899,24.1890279 C52.6158057,24.0197322 52.796695,23.8364367 52.9907185,23.6388948 L52.9907185,23.6388948 L53.1079938,23.5176946 C53.1040117,23.5777974 53.1389275,23.5995549 53.2559428,23.4749061 L53.234,23.496 C53.2365338,23.4938275 53.2400244,23.4904854 53.2427631,23.4863244 L53.2484275,23.4711147 C53.2490344,23.4706858 53.2496212,23.4703198 53.2559428,23.4749061 C53.2559428,23.238631 53.1747912,23.3218837 53.1300817,23.4257091 C53.1128149,23.4408931 53.1087666,23.4555443 53.1140586,23.4686469 C52.945175,23.5434992 52.6875023,23.7418033 52.3978166,23.9975231 C49.7528953,14.1046058 40.7273654,6.81818182 30,6.81818182 C29.1602761,6.81818182 28.3309804,6.86282974 27.5143571,6.94988117 C27.4798479,6.62602734 27.4071562,6.18526493 27.2831874,5.60588723 C28.1748649,5.50499113 29.0815413,5.45454545 30,5.45454545 C35.6527494,5.45454545 40.8591984,7.36538481 45.008649,10.5763655 C45.0209672,10.821618 45.0457208,11.0993219 45.0852881,11.4135944 L45.0852881,11.4135944 L45.107,11.576 L45.1021586,11.5270127 C45.0291477,10.7449232 45.5546556,11.4944257 45.2274351,11.6247739 L45.1773923,11.638509 L45.1159608,11.6433566 C45.5213188,11.6433566 45.8099987,11.547722 46.0068536,11.392979 C50.8914174,15.5969179 54.1018786,21.6925437 54.5029221,28.5429173 C53.8687503,28.614492 53.498731,28.6712221 53.3189549,28.7155731 C53.2981779,28.7105069 53.2783169,28.7058095 53.2594551,28.7014731 L53.2594551,28.7014731 L53.2544969,28.6773914 C53.224301,28.5769256 53.1646187,28.595413 53.1272629,28.6421043 L53.1418597,28.6274754 C53.1148217,28.1644044 53.0741911,27.7049838 53.020361,27.2496066 C53.1576744,26.8914865 53.2082193,26.5003887 53.1688526,26.0664336 L53.171,26.123 L53.1869619,26.1188193 C53.2377768,26.2260647 53.2647221,26.2280559 53.2446135,26.1636537 L53.2305307,26.1260997 L53.2996075,26.1348545 C53.5926117,26.1696167 53.4271737,26.1054169 53.2286119,26.0512761 L53.2286119,26.0512761 L53.2231927,26.0381926 C53.2064184,26.0053991 53.1862245,26.0007309 53.1699313,26.0117287 C53.1535439,25.9851576 53.1344206,25.9564705 53.1123316,25.9260526 L53.126,25.945 L53.125,25.944 Z M33.6770565,23.2026567 C31.8802626,23.1334946 32.9875585,23.3966966 34.0930118,23.5653741 L34.3132169,23.5977228 C35.4419191,23.7570389 36.3617946,23.7850356 33.8665238,23.2106966 L33.8665238,23.2106966 Z M32.3590909,23.3295265 L32.358,23.33 L32.3630909,23.3295265 L32.3590909,23.3295265 L32.3640909,23.3285265 L32.3783085,23.3275543 L32.3860909,23.3265265 L32.3991374,23.3245601 L32.4370909,23.3185265 L32.4710909,23.3135265 L32.4811713,23.3127674 L32.607106,23.2946637 C32.6204579,23.2927443 32.6332756,23.2909017 32.6452389,23.289182 L32.6452389,23.289182 L32.6790909,23.2835265 L32.6840909,23.2825265 L32.7146953,23.2791973 L32.7146953,23.2791973 L32.7272727,23.2773893 C32.5470714,23.280706 32.353019,23.2904679 32.154441,23.3046757 L31.9546998,23.3202914 L31.9546998,23.3202914 L31.7540138,23.3384268 C31.65378,23.3480504 31.553969,23.3584522 31.4557465,23.3693824 L31.2617649,23.3918732 C29.8598305,23.5608861 28.9667648,23.8077161 32.2602289,23.3439109 L32.2602289,23.3439109 L32.3481868,23.3318845 L32.3481868,23.3318845 L32.3550909,23.3305265 L32.3590909,23.3295265 Z M26.991235,18.1993007 C27.9034787,21.1313686 27.560996,18.2353479 26.991235,18.1993007 Z M42.1006856,16.4060628 L42.191,16.828 L42.164646,16.8220945 C42.0963959,16.8082451 42.0767938,16.8279492 42.0931577,16.8563305 L42.111976,16.8788547 C42.0678227,16.921887 42.0932975,16.9682817 42.2879586,16.9902002 L42.224,16.98 L42.504103,18.2803333 L39.6076166,19.3356878 C39.6434005,19.1666691 39.6809308,18.8655266 39.718746,18.3915364 L39.718746,18.3915364 L39.725,18.294 L39.7205683,18.3403989 C39.6926136,18.5788077 39.6913985,18.0649655 39.7190776,18.0989116 L39.7273445,18.1227278 L39.729,18.132 L39.7030033,17.9528888 C39.6617017,17.6862502 39.6246325,17.4769856 39.5915985,17.3175957 L42.1006856,16.4060628 Z M30.086,16.954 L30.0640415,17.0520432 C29.8631013,18.0474484 30.1805561,18.2368123 30.4010909,18.0565265 L30.4010909,18.0565265 L30.3856498,18.0347331 C30.1556849,17.697597 30.025422,17.3308062 30.084562,16.9661974 L30.084562,16.9661974 L30.086,16.954 Z M42.6415354,12.5308033 L43.0389158,14.3132159 C42.6695331,14.4195066 42.368253,14.7151225 42.2727273,15.3078511 L42.2727273,15.3078511 L42.454,15.348 L38.3381251,16.8469076 C38.3437544,16.7808738 38.3304821,16.6399431 38.2944069,16.4564885 L38.2740697,16.3596558 C38.2877228,16.1279356 38.3001461,15.8111137 38.3106061,15.3921816 L38.306,15.558 L38.532378,15.3344017 L38.6604107,15.2059292 C39.0325228,14.8312523 39.3495773,14.5006398 39.4813711,14.3506945 C39.4870782,14.3502689 39.4925399,14.3498616 39.4978142,14.349421 L39.505,14.348 L39.531,14.346 L39.5391116,14.3463887 C39.5267286,14.3434814 39.5081099,14.3410729 39.4910458,14.3391057 C39.5650541,14.2535989 39.5683614,14.236989 39.4711329,14.3204796 L39.4711329,14.3204796 L39.453385,14.3340443 C38.9066569,14.2641355 38.4544126,14.2168729 38.0881292,14.1869566 L38.6770483,13.974685 C39.0634291,14.2671066 39.3924962,14.3825822 39.5202273,14.1159952 L39.5202273,14.1159952 L39.5389673,14.0699249 L39.3445821,13.8670798 C39.3114151,13.8326039 39.2786339,13.7986002 39.2462353,13.7650641 L42.6415354,12.5308033 Z M39.514,14.347 L39.505,14.348 C39.5017435,14.349086 39.499792,14.3492558 39.4978142,14.349421 L39.4310909,14.3535265 L39.389,14.357 L39.410246,14.3560204 L39.410246,14.3560204 L39.4321567,14.3545417 C39.2664926,14.5013669 38.9074788,14.8410357 38.2791843,15.453105 L38.309,15.423 L38.309,15.424 L38.2791843,15.453105 C38.2786048,15.4378841 38.2781267,15.422487 38.2777672,15.407352 L38.2771694,15.3231946 C38.2782677,15.2491959 38.2848645,15.2161924 38.3006525,15.3188577 L38.3006525,15.3188577 L38.301,15.323 L38.2861109,15.1982596 C38.2392881,14.8368859 38.2007574,14.5952492 38.1691394,14.4490655 L38.1539,14.3838157 C38.5506533,14.3935079 39.0212381,14.3850542 39.5454545,14.3459157 L39.514,14.347 Z M9.68190917,11.6917144 L9.682,11.679 L9.682,11.66 L9.683,11.658 L9.683,11.651 L9.6529761,11.8189472 C9.65142184,11.8281348 9.64987628,11.837299 9.64833936,11.8464393 C9.6130289,11.8839382 9.57837022,11.9229881 9.54382217,11.9621379 C9.54407201,11.8810311 9.52461073,11.8127369 9.48919456,11.7592972 C9.49856084,11.743831 9.5074516,11.7290557 9.51588429,11.7149494 L9.51588429,11.7149494 L9.52811342,11.7064345 L9.591,11.655 C9.5735595,11.6652622 9.62177004,11.6163275 9.62313821,11.622299 L9.621,11.626 L9.65802811,11.5739202 C9.70561362,11.4996155 9.69716672,11.4887798 9.66339906,11.5100871 L9.64034566,11.5264779 L9.611,11.549 L9.63498277,11.5025414 C9.68485377,11.3988033 9.6131139,11.4815335 9.53974136,11.5972243 L9.51238446,11.6418536 L9.51238446,11.6418536 L9.49161039,11.6650937 C9.47485853,11.6826769 9.45921038,11.6998106 9.44687859,11.7146711 C9.42141109,11.6922001 9.39125824,11.6746941 9.35557775,11.6618461 C9.33998624,11.6392918 9.33138305,11.6382096 9.32861028,11.6543054 C8.92155,11.5532671 7.98740976,12.1354546 6.92245999,14.0724743 L6.92245999,14.0724743 L6.886,14.137 L6.883,14.143 L6.881,14.146 L6.88,14.148 L6.88,14.149 L6.878,14.152 L6.878,14.153 L6.877,14.154 L6.87609091,14.1565265 L6.87564966,14.1572402 L6.86520096,14.1769664 L6.842,14.22 L6.841,14.221 L6.837,14.229 L6.82988436,14.2436409 L6.81818182,14.2657343 C7.38358274,14.0544211 7.84863489,13.8189453 8.2244927,13.5782103 C4.77331247,18.1464488 2.72727273,23.8342853 2.72727273,30 C2.72727273,32.9463801 3.19449631,35.7836342 4.058895,38.441714 C4.0086516,38.6612687 3.96095745,38.9231895 3.9370217,39.1783217 L3.94,39.148 L3.94,39.149 L3.939,39.157 L3.939,39.161 L3.938,39.165 L3.938,39.173 L3.98992175,38.9855078 C4.00655582,38.9242313 4.02219142,38.8659479 4.03683093,38.8106515 L4.07776362,38.6537181 C4.07636946,38.7907407 4.07549969,38.8981263 4.07506773,38.9790695 L4.07506773,38.9790695 L4.074,39.086 L4.075,39.085 L4.074,39.092 L4.074,39.088 L4.0714589,39.0996304 L4.0714589,39.0996304 L4.06811926,39.1166514 C3.97077703,39.18562 3.89137634,39.3180383 4.06214527,39.267234 C4.06443469,39.2919909 4.06846696,39.3173593 4.07467541,39.3427404 L4.074,39.341 L4.08495854,39.2972119 L4.08495854,39.2972119 L4.09179943,39.2576065 C4.12551644,39.2455212 4.16682753,39.2277572 4.21687447,39.2031018 L4.21687447,39.2031018 L4.19767909,39.2069573 C4.18356621,39.2003827 4.21028742,39.1554963 4.21676567,39.1748956 L4.21676567,39.1748956 L4.216,39.188 L4.21913509,39.1471404 C4.21677603,39.1160392 4.20712912,39.0968789 4.19286082,39.0868275 L4.16832562,39.0782281 L4.14627401,39.0801841 L4.13885817,39.0811682 L4.12086832,39.0862723 C4.1280967,38.9879678 4.10117722,38.9992422 4.0810848,39.0649915 L4.081,39.063 L4.0828334,38.9976182 C4.08466141,38.9232536 4.08673403,38.8284217 4.08910893,38.7176824 L4.09158672,38.6018094 C4.09467844,38.5897751 4.09771625,38.5779084 4.10070075,38.566208 C7.69231472,49.432662 17.9305847,57.2727273 30,57.2727273 C45.0623114,57.2727273 57.2727273,45.0623114 57.2727273,30 C57.2727273,29.5710442 57.2628241,29.1444015 57.2432341,28.7202879 C57.7275694,28.7501526 58.0720459,28.7637522 58.2974642,28.7662094 L58.4286757,28.7662771 C58.9247793,28.7601124 58.4903295,28.6732045 57.5810033,28.6306921 C58.0679292,27.9689223 58.384263,27.7267816 58.5343457,27.6466645 L58.5343457,27.6466645 L58.5550909,27.6355265 L58.5190453,27.6362326 C58.3274775,27.6318887 57.9023229,27.5110041 57.2510868,26.8282077 L57.2510868,26.8282077 L57.147,26.715 L57.1713652,26.7403952 C57.4240304,26.9931129 57.3980384,26.7586155 57.1653998,26.6865761 L57.1080785,26.6731312 L57.2663877,26.697154 C59.3822466,26.9912272 58.3287686,25.705643 57.0045852,26.167732 C56.4637343,22.314098 55.1162703,18.7186101 53.1389909,15.5574217 L53.162282,15.4231011 L53.162282,15.4231011 L53.179,15.252 L53.1911007,15.3156207 C53.2505857,15.6223324 53.3064831,15.7458561 53.2896799,15.1951902 L53.2853294,15.0759223 L53.278,14.935 L53.2799818,14.9746318 C53.2825386,15.1175169 53.2427568,14.7950521 53.2668669,14.8683248 L53.274,14.897 L53.2387728,14.7451698 C53.0505146,13.9683264 53.0480045,14.2688487 53.1005946,14.7118612 L53.1093371,14.7828584 C53.00111,14.5394379 52.7591205,14.3636982 52.3012861,14.2961861 C51.2928099,12.8675575 50.1502207,11.539096 48.8918858,10.3302214 L48.8972252,10.3100856 C48.9054133,10.2804613 48.913399,10.250852 48.9211708,10.2213182 L48.9211708,10.2213182 L48.965144,10.0455063 C49.1896499,9.09824815 49.1614252,8.36086963 48.4818568,9.94453152 C43.6224189,5.46395273 37.1308024,2.72727273 30,2.72727273 L29.957,2.727 L29.9568951,2.71035728 L29.9540909,2.68252647 L29.9549295,2.68096971 L29.9530909,2.66952647 L29.9520909,2.65452647 L29.9520909,2.65252647 L29.9516535,2.63199043 L29.950742,2.61836141 L29.950742,2.61836141 L29.9483206,2.58215933 L29.9468963,2.56086399 L29.9450909,2.54652647 L29.9430909,2.51452647 L29.9420909,2.48852647 L29.94,2.474 L29.9432533,2.65515905 C29.9436397,2.67978817 29.9440342,2.70423832 29.9444367,2.7285091 L30,2.72727273 C26.5401984,2.72727273 23.2308678,3.37151557 20.1854272,4.54658224 C19.9832627,4.35069259 19.6510471,4.09526271 19.1452988,3.77622378 L19.1452988,3.77622378 L19.1949761,3.81317762 C19.3871455,3.98205922 19.2866807,4.25631539 19.1920681,4.31018851 L19.1920681,4.31018851 L19.1800909,4.31452647 L19.1847609,4.32743628 C19.2617958,4.51813411 19.3995206,4.67752985 19.5569172,4.80000746 C19.4213201,4.85440966 19.2863082,4.91170949 19.1518586,4.97006089 L19.0909091,4.97258638 C19.1040631,4.97526381 19.1170956,4.97800694 19.1300148,4.9808091 C18.1783754,5.39365647 17.2569636,5.85930147 16.3673095,6.37375363 C16.3850067,6.32778499 16.4042694,6.20386262 16.4254842,5.97372233 L16.4254842,5.97372233 L16.435,5.855 L16.4332805,5.8704642 C16.4208098,5.94200769 16.4153945,5.6471813 16.4312776,5.76141883 L16.433,5.775 L16.4213632,5.651592 C16.4054611,5.49580163 16.3911304,5.37705693 16.3778242,5.2923616 L16.3680281,5.23517754 C16.3833,5.19624489 16.4017134,5.14345291 16.4237048,5.07415288 L16.42,5.082 L16.412,5.099 C16.4098243,5.08144267 16.4133445,5.05817738 16.4168361,5.04716515 L16.421612,5.04274474 L16.423,5.066 L16.4221812,4.97581529 C16.4129964,4.73968078 16.3645636,4.87324349 16.3328303,5.03837535 L16.3238673,5.08852386 C16.3033724,5.10343473 16.2924314,5.26666469 16.2897004,5.47316347 L16.2891705,5.63450905 L16.2891705,5.63450905 L16.2915933,5.80223197 C16.2979256,6.07742254 16.3156854,6.33858074 16.3423641,6.38962541 C13.8424472,7.83734451 11.5939699,9.67204239 9.67822587,11.8109591 L9.68,11.738 L9.68,11.724 L9.681,11.722 L9.681,11.693 L9.682,11.691 L9.681,11.692 L9.68190917,11.6917144 Z M14.7032719,10.805034 C15.2502407,11.2585627 15.640995,11.5023306 15.9054413,11.5966327 L15.7837318,11.6883014 C15.5740313,11.655136 15.3269637,11.6216666 15.0764639,11.5908683 L14.8217774,11.5605755 C14.4664297,11.5196843 14.1275368,11.486292 13.9038165,11.469053 C14.1342355,11.2683538 14.3683282,11.0723503 14.6060694,10.8806903 Z M7.01212249,11.6104917 C8.54654192,12.0085421 11.9499432,8.602187 6.81818182,11.5332294 L6.829,11.527 L6.92219294,11.4781512 C7.44062079,11.2267176 7.42026422,11.6102702 7.10890243,11.6176543 L7.04282342,11.613816 L6.97809091,11.5995265 Z M27.034325,5.63188303 L27.0293264,5.66791134 C26.969556,6.14034422 27.0189633,6.6214019 27.1068106,6.9978319 C23.1194295,7.493243 19.4456731,9.00268505 16.3519671,11.2595948 C16.2969333,10.9345167 16.0408275,10.4572406 15.6954516,10.052674 C18.9652138,7.70239788 22.8367285,6.13741027 27.034325,5.63188303 Z M40.7777766,2.62334865 C39.2804323,1.64319131 39.0037471,2.73055592 40.7540795,2.71647741 L40.7540795,2.71647741 L40.7940909,2.71452647 L40.7045658,2.71335343 C40.2560523,2.69299902 40.5518368,2.51263765 40.8527834,2.67743225 L40.8527834,2.67743225 L40.906,2.71 Z M32.7272727,2.66890604 C32.0340487,2.2283944 31.0163907,2.24893432 30,2.2676795 C30.6292244,2.52173646 31.3851808,2.6862553 32.7272727,2.66890604 Z M53.404,11.392 C53.3450407,11.4172135 53.2906703,11.4483296 53.2430808,11.4795267 L53.2430808,11.4795267 L53.2303524,11.4884553 C53.1747807,11.371842 53.1392118,11.3527038 53.1190516,11.3855028 C53.1046844,11.3703151 53.1013816,11.3875569 53.1052631,11.423826 C53.1003322,11.4466256 53.0974952,11.4755353 53.09646,11.507876 L53.09646,11.507876 L53.095632,11.5522459 C53.0864206,11.5566176 53.0782964,11.5618836 53.0741989,11.568349 C52.8476691,11.5267404 52.3078026,11.5356211 51.8863279,11.7090918 L51.8863279,11.7090918 L51.8200909,11.7375265 C52.4565473,11.7391698 52.8323512,11.7121161 53.0215555,11.6780942 C52.8876837,11.8587687 52.9793263,11.9771538 53.1337307,11.8409625 C53.1572434,11.9218853 53.18885,11.9521346 53.220141,11.8528032 C53.2496652,11.9260676 53.269449,11.9385188 53.2538403,11.800753 C53.4232148,12.0282425 53.8687816,12.4710142 54.3475999,12.9192851 L54.3475999,12.9192851 L54.627466,13.1785465 C54.6741463,13.2213534 54.7206979,13.263832 54.7669011,13.3057925 L54.7669011,13.3057925 L54.9042452,13.4299297 L55.0381792,13.549819 C55.0810272,13.587984 55.1231253,13.6252949 55.1642695,13.6615754 C58.2233658,18.36316 60,23.9741024 60,30 C60,32.2996853 59.7412435,34.5389347 59.251257,36.6902217 C58.6943356,36.9066919 58.3795747,37.3764767 58.9054036,38.053551 C55.3877608,50.7110094 43.7786604,60 30,60 C19.0435841,60 9.45898053,54.1265734 4.22300864,45.3565395 C4.24291189,44.6314177 4.25192357,44.1137558 4.25355592,43.7596648 L4.25355592,43.7596648 L4.25358393,43.5468166 C4.24908779,42.6943153 4.18438903,43.2341723 4.14847702,43.9755158 L4.14847702,43.9755158 L4.1410066,44.1430915 C4.12590626,44.5136621 4.11911487,44.9108361 4.130761,45.1990713 C1.50520344,40.7414746 0,35.5465168 0,30 C0,24.4140342 1.52669073,19.1846462 4.18557695,14.7063312 C3.68196336,17.2888239 3.9547594,18.0081474 4.2578601,14.477527 L4.24685201,14.603594 C9.48804445,5.85563175 19.0601942,0 30,0 C36.6114687,0 42.7234166,2.13870271 47.6817487,5.76201317 C47.656769,5.90986276 47.6332064,6.07215282 47.6117336,6.23792137 L47.6117336,6.23792137 L47.5834786,6.46848141 C47.5761579,6.53179917 47.5692245,6.59489902 47.562749,6.65718809 L47.5447669,6.84103009 C47.4624309,7.74214979 47.4990085,8.3274501 47.8927741,6.59602253 L47.8927741,6.59602253 L47.922,6.46 L47.9077387,6.50918422 C47.8568909,6.65418839 47.925697,6.0486991 47.9402678,6.22293031 L47.94268,6.28361783 L47.942,6.3 L47.9450112,6.15736158 C47.945616,6.0838047 47.9458569,6.01459382 47.9457538,5.94956468 C50.6287506,7.96308136 52.9644262,10.4070623 54.8470429,13.183237 C54.4844254,12.8362541 54.015093,12.3920287 53.4195561,11.8344625 L53.4195561,11.8344625 L53.27,11.695 L53.4179088,11.8218329 C54.1691757,12.4382865 54.0270179,11.7599736 53.3082881,11.653733 L53.234,11.645 L53.2927567,11.6518166 C53.300109,11.6419492 53.3050102,11.6326699 53.3077424,11.6241913 L53.3097141,11.6013701 C53.3421504,11.5407864 53.3748332,11.4696781 53.406801,11.3869022 L53.398,11.406 L53.401,11.398 L53.404,11.392 Z" id="Combined-Shape"></path>
            </g>
        </g>
    </g>
</svg>