<?xml version="1.0" encoding="UTF-8"?>
<svg width="60px" height="60px" viewBox="0 0 60 60" version="1.1" xmlns="http://www.w3.org/2000/svg" xmlns:xlink="http://www.w3.org/1999/xlink">
    <title>F178BA1C-AC69-40F6-9E5F-4AC96EB6B6B5</title>
    <g id="Page-1" stroke="none" stroke-width="1" fill="none" fill-rule="evenodd" opacity="0.151733398">
        <g id="UiKit_Icons" transform="translate(-1140.000000, -3030.000000)" fill="#4C9EEA">
            <g id="Icon_stamp_win2_tc" transform="translate(1140.000000, 3030.000000)">
                <path d="M41.7457684,49.9901205 L42.2727273,50.979021 L42.214,50.954 C42.1163388,51.0661432 42.4483236,51.0742803 42.3176338,50.9558067 L42.264,50.917 L42.2719473,50.9268864 C42.2714744,50.9280754 42.2703063,50.9289838 42.2687915,50.9296044 L42.263556,50.9305961 L42.2610909,50.9185265 L42.2431973,50.8174792 C42.2313978,50.7579148 42.2188112,50.6995886 42.2052429,50.6441043 L42.205,50.645 L42.2529476,50.738553 C42.2679265,50.767094 42.2819735,50.7927187 42.2950603,50.8155041 L42.3314124,50.8754197 C42.2446872,50.8821839 42.2442661,50.9065042 42.3981631,50.9590434 C42.4209466,50.9794996 42.4383603,50.9835862 42.449564,50.9735943 C42.5103869,50.9919961 42.5884707,51.013319 42.6861827,51.0378689 L42.6623408,51.0315074 C38.9653952,53.2620939 34.6325701,54.5454545 30,54.5454545 C27.1647682,54.5454545 24.4418118,54.064746 21.9081882,53.180386 C21.9027325,52.8950268 21.8875568,52.4456738 21.8598303,51.7863338 L21.865,51.944 L21.8651548,51.9928997 C21.8608163,51.9991191 21.841159,51.6954712 21.8493897,51.7152749 L21.855,51.751 L21.8503104,51.7087664 C24.3856147,52.660994 27.1319848,53.1818182 30,53.1818182 C33.9998087,53.1818182 37.7630201,52.1688245 41.0470781,50.3853932 C41.3843724,50.5778137 41.7907365,50.7771076 42.2727273,50.979021 L42.215,50.954 L41.726723,50.0013231 C41.7330734,49.9975919 41.7394219,49.9938577 41.7457684,49.9901205 Z M13.8590906,11.507065 C14.1411358,11.5519099 14.7136363,11.6293391 15.7024467,11.7503862 C13.8651353,13.1924512 12.2503347,14.906131 10.9193026,16.8310281 C10.6025666,16.90301 10.2215536,16.995492 9.77086365,17.1115547 L9.77086365,17.1115547 L9.60309091,17.1545265 L9.56809091,17.1635265 L9.55809091,17.1665265 L9.55113379,17.1685728 C9.97946625,17.1497492 10.4019366,17.1001268 10.7796835,17.038281 C9.67221237,18.6743458 8.76996646,20.459652 8.10751654,22.3574372 C6.34891648,21.4562357 6.63904427,23.5040627 7.50341663,24.3810283 C7.36235762,24.9491656 7.24167015,25.5266117 7.14288796,26.1115022 C6.7217829,26.2423566 6.74991795,26.6362577 7.00148527,27.0780996 C6.88017433,28.0355263 6.81818182,29.0105236 6.81818182,30 C6.81818182,33.2042223 7.46827195,36.256608 8.64375338,39.0324581 C8.48330412,39.0345582 8.32623353,39.0680975 8.18181818,39.1697707 C8.39226532,39.2339229 8.58651748,39.2894686 8.76583116,39.3132726 C11.2524532,44.9765507 15.9383112,49.4546803 21.7422694,51.6678778 C21.7510935,51.8277309 21.7612641,52.0047644 21.77262,52.1844641 L21.77262,52.1844641 L21.7861861,52.3920962 C21.8049383,52.6700725 21.8256411,52.9419045 21.8447345,53.1572121 C12.2976739,49.7963419 5.45454545,40.6973201 5.45454545,30 C5.45454545,22.6797167 8.65904701,16.1078848 13.7417831,11.6107714 Z M12.2727273,51.0507791 C11.3846261,50.8463769 10.7922478,50.6643094 9.54545455,50.9093926 C10.6080041,51.1626519 11.2446942,51.2637562 12.2727273,51.0507791 Z M42.9294979,50.8679814 L42.8632825,50.9076891 C42.7203188,50.8917107 42.582937,50.8799361 42.4784698,50.8770331 C42.4900797,50.6114892 42.3249959,49.9061069 42.2003962,49.7159355 L42.2111925,49.7086491 C44.241616,48.4479567 46.0628653,46.8822468 47.6109157,45.0755442 C47.6109907,45.2949769 47.6113139,45.5145082 47.611702,45.7342657 C47.8071477,45.4329442 47.8932056,45.1324697 47.8177745,44.8324056 C48.8739359,43.5634927 49.7985343,42.1797407 50.568691,40.7026512 L50.660385,40.705181 C51.251688,40.721621 51.7338392,40.7053894 52.112082,40.671101 C50.0763724,44.8786647 46.8761289,48.4175136 42.9294979,50.8679814 Z M12.2534296,36.4418121 C12.0746725,36.596372 12.1471192,36.6640485 12.2419345,36.669406 C12.1840217,36.8276594 12.1293505,37.1344913 12.0878416,37.4808047 L11.8081533,35.7926098 L16.8507609,33.9572507 L18.3855834,41.0626412 L18.4029216,41.1978078 C18.4179318,41.4214028 18.3635081,41.6365846 18.2396505,41.8433533 C18.0910215,42.0914757 17.8830813,42.2641726 17.6158302,42.3614441 L17.6158302,42.3614441 L15.7802366,43.0295455 L16.2458745,42.0112042 L15.9213042,40.528625 L14.7819703,40.9433086 L15.1472733,43.2599253 L13.1639883,43.981782 L12.3072488,38.8101558 C12.3581234,38.6605402 12.4165933,38.4606265 12.4834184,38.2020582 L12.4834184,38.2020582 L12.513,38.079 L12.4956873,38.1292382 C12.4529671,38.2207643 12.495472,37.8242987 12.5209617,37.8934906 L12.5286878,37.9351092 L12.531,37.968 L12.5219993,37.7777907 C12.4885925,37.1849409 12.4448725,36.8405458 12.3974981,36.6771916 L12.3815804,36.629353 C12.4224465,36.5899318 12.4099841,36.5241195 12.2534296,36.4418121 L12.2534296,36.4418121 L12.269217,36.4548781 C12.2769177,36.4703007 12.2383373,36.4767227 12.2388679,36.4620796 L12.2388679,36.4620796 Z M21.4354088,34.2773401 L21.9724539,36.7467858 C21.7495183,36.8071846 21.779898,36.8322989 21.9884838,36.8178847 L22.1849446,37.7152753 L24.8527105,39.727435 L22.827228,40.4646504 L22.5777614,40.2795543 C24.2617834,39.4997153 21.8984996,38.564774 21.8201652,39.720187 L21.6834393,39.6197876 L21.0127332,41.1250725 L18.7973617,41.9314018 L20.4314604,38.2807317 L19.7053091,34.9070449 L21.4354088,34.2773401 Z M53.281614,28.814176 C53.4115319,28.8351316 53.6566043,28.8457031 53.9468091,28.8476193 L54.2182884,28.8470536 C54.3167661,28.8460651 54.417663,28.8442608 54.5187556,28.8416954 C54.53643,29.2251623 54.5454545,29.6115273 54.5454545,30 C54.5454545,33.6762518 53.7372613,37.1637399 52.288857,40.2944823 C51.8736892,40.3395977 51.3195861,40.4455784 50.6378363,40.6437119 L50.6378363,40.6437119 L50.5927408,40.6563987 C52.030107,37.8844284 52.9242067,34.7853914 53.1340499,31.500278 C53.1785666,31.4977321 53.1943467,31.4859162 53.1711263,31.4623933 L53.1711263,31.4623933 L53.1818182,31.4607268 C53.1669955,31.4497545 53.1522111,31.4390412 53.1374444,31.4285893 C53.1448655,31.3243299 53.150611,31.2180311 53.155638,31.1115443 L53.1692436,31.1973471 L53.172,31.208 L53.1694651,31.1846988 C53.1518553,31.0485382 53.1949468,31.1278506 53.1942702,31.2596304 L53.192,31.295 L53.2122895,31.0849181 C53.3211455,29.8494894 53.3266776,29.1645285 53.2895832,28.8682889 Z M22.9827101,31.7011505 L23.9948773,36.3848835 C23.1928367,36.5036317 22.6418065,36.6003017 22.2948342,36.6722407 L21.65929,33.7107894 L19.2962271,34.570874 L20.1383633,38.46017 L19.74704,39.3544501 L18.5866073,39.7768131 L17.2860404,33.7745687 L22.9827101,31.7011505 Z M28.2441003,29.8104143 L29.6652235,36.4721234 L30.0028039,36.3492542 L30.3698051,35.5850927 L30.7814667,37.5695443 L27.9753294,38.5908947 L27.4087087,35.9837533 L26.6491528,36.260209 L26.1438365,35.1344548 L26.7516004,39.0362956 L24.9371056,39.6967177 L24.381,36.338 L24.4535156,36.3185066 L24.379,36.329 L23.5812706,31.5075455 L27.1370705,30.2137266 C27.037944,31.1914003 27.0372496,32.0061512 27.40319,30.4041932 L27.40319,30.4041932 L27.434,30.264 C27.4011332,30.3813503 27.4358169,30.0802856 27.4446203,30.1202563 L27.4465294,30.1527018 L27.446,30.158 L27.448,30.1 L28.2441003,29.8104143 Z M15.4316942,38.3300121 L14.418953,38.6986197 L14.5775459,39.6595322 L15.6535835,39.2678866 L15.4316942,38.3300121 Z M55.9690478,39.1783217 C59.9787404,35.7649974 58.6309815,36.2820672 57.2926135,37.400714 L57.1544152,37.5184456 L57.1544152,37.5184456 L57.0857538,37.5786649 L56.947896,37.7033639 C56.3798247,38.2283447 55.9029959,38.8133744 55.9690478,39.1783217 Z M24.0064548,36.4391182 L24.2754821,37.6819788 L23.1150494,38.1043417 L22.4858366,37.5572531 L22.3178826,36.7815678 C22.7162839,36.7267665 23.3199035,36.6149198 24.0064548,36.4391182 Z M14.9709779,36.1451359 L14.0848293,36.4676677 L14.2223234,37.4362595 L15.1717684,37.0906898 L14.9709779,36.1451359 Z M38.1337923,24.7358595 C38.1359322,24.7746827 38.1430424,24.7586641 38.1570553,24.6594954 L38.2297198,24.6318288 C38.2748324,24.6774724 38.3270044,24.7184548 38.3870469,24.7552448 C38.3999841,24.3939314 38.3421875,24.1439189 38.239449,23.9151164 C38.5670753,23.5453641 38.9535518,23.0370091 39.4011453,22.3584705 L39.4011453,22.3584705 L39.434,22.306 L39.3552996,22.4223279 C38.2012017,24.0886164 38.5539912,22.2904792 39.4029676,22.1452739 L39.4769286,22.1369951 L39.5454545,22.1370581 C38.8853812,22.1008557 38.336439,22.3026561 37.9082461,22.6083671 L37.2798427,19.644759 C37.3981788,19.6434086 37.5417671,19.6404633 37.71341,19.6357003 L37.71341,19.6357003 L37.9600105,19.6074062 L38.1246766,19.5892184 C38.1302527,19.6053498 38.1442879,19.6133978 38.1607283,19.6119935 L38.182,19.603 L38.226,19.445 L38.2191248,19.4428223 L38.2195328,19.4294859 L38.234,19.41 L38.2088532,19.4333849 L38.2088532,19.4333849 L38.185554,19.4567127 L38.1652381,19.4581402 C38.2262588,19.3115474 38.1240869,18.8659904 37.7712544,18.2345598 L38.2120515,18.0737074 C38.2406567,18.11558 38.2734273,18.1574445 38.3106061,18.1993007 C38.3105777,18.1456123 38.3105494,18.0919441 38.3105206,18.0382912 L39.355,17.658 L39.3558381,17.8152697 C39.3604415,18.3324671 39.3960679,18.9370967 39.4503202,19.2658228 L39.4715137,19.3754525 C39.286248,19.3732159 38.779527,19.4060183 38.2579124,19.4494737 L38.2579124,19.4494737 L38.182,19.603 L38.1864361,19.6026269 L38.2112114,19.5780555 C38.9539092,19.4903574 39.3388709,19.4360236 39.4782743,19.4075393 C39.5447057,19.6607333 39.6309582,19.4919024 39.718746,18.3915364 L39.718746,18.3915364 L39.725,18.294 L39.7205683,18.3403989 C39.6926136,18.5788077 39.6913985,18.0649655 39.7190776,18.0989116 L39.7273445,18.1227278 L39.729,18.132 L39.7030033,17.9528888 C39.6795969,17.8017799 39.6575499,17.6690979 39.6368263,17.5534776 L41.3384065,16.9361632 L41.8720071,19.4457867 C40.3164,19.2086079 40.2635048,19.2381507 39.5454545,19.6391924 C40.3037652,19.7372153 41.0194188,19.7849196 41.9036725,19.5963462 L42.6360923,23.0276927 L49.0635898,20.6882749 L49.527659,22.9456928 L43.1001615,25.2851106 L43.4389478,26.8474601 L47.7411762,25.2817178 C47.9947989,26.7245606 51.6151557,26.0226145 50.0738987,24.4330439 L50.723445,24.1961199 L50.98453,25.4037915 C50.7548142,25.6540655 50.575857,25.861252 50.4928412,25.9714523 C50.2641986,25.8152655 50.3091982,25.9790411 50.3982453,26.1071544 C49.8845655,26.5029935 49.647032,26.6941461 49.4814336,27.074317 L47.4628154,27.810517 C47.6679637,27.4016901 47.774997,26.8323401 47.7067179,26.0664336 L47.71,26.124 L47.7278832,26.1338589 C47.7386917,26.1380691 47.750622,26.1409405 47.7636872,26.1420528 L47.8063011,26.1396921 L47.7912916,26.1370037 C47.7802324,26.129494 47.7808753,26.1116401 47.7918851,26.1205232 L47.7918851,26.1205232 L47.801,26.132 L47.7718352,26.0843929 C47.9723844,26.0607244 48.1393936,26.0255507 47.819154,26.0267984 L47.7286806,26.0278969 C47.6664381,25.9601473 47.639518,25.9953932 47.6481152,26.0445264 C47.3721987,26.1012749 47.4359535,26.1112323 47.5796065,26.1022528 L47.5796065,26.1022528 L47.4945141,26.1274695 C44.6186554,26.9823135 44.6801568,28.1313393 45.4589643,28.5382963 L43.903017,29.104878 L44.948147,34.011317 L40.6631487,35.5709288 L39.6180186,30.6644899 L32.3560741,33.3076215 L31.8694522,31.0584121 L38.071,28.801 L38.1716133,28.806594 C38.0804756,29.0058231 37.9953523,29.4239614 38.0776487,29.7953362 L38.1166728,29.9318908 L38.1400909,29.9925265 C38.2882566,29.3546287 38.3287877,28.9882034 38.3171922,28.8152639 C39.0835033,28.857632 39.4373964,28.8767007 39.5238423,28.8808112 L39.5238423,28.8808112 L39.5356332,28.8808529 C39.4559215,28.8753739 38.9029597,28.8435664 38.31718,28.8099672 C38.3133363,28.756706 38.3044399,28.7223748 38.2921033,28.7043196 L38.299,28.718 L39.1313968,28.4152804 L38.8151631,26.8447225 L38.1567707,27.0857793 C38.1188427,26.7938805 38.0363981,26.4557592 37.8996933,26.0664336 L37.903,26.079 L37.9183553,26.1353418 C38.0439894,26.8138852 36.1439434,26.4648732 37.587547,26.1291441 L37.722,26.099 L37.6810732,26.1070622 C35.4437867,26.5477512 35.1897526,27.3967951 35.6410695,28.0008282 L32.365113,29.1923487 L31.9010438,26.9349308 L38.1334388,24.667254 L38.1334388,24.667254 Z M26.9955782,26.1175371 L27.4627976,28.2924349 C27.3546328,28.4392768 27.2857225,28.5739217 27.2727273,28.6888112 L27.278,28.662 L27.2834757,28.6365944 C27.1781022,28.5520802 27.1801059,28.8164707 27.2920802,28.7457072 L27.3392305,28.7021245 L27.3273499,28.7091786 C27.3223593,28.7072458 27.3230355,28.6954205 27.3282192,28.6939747 L27.3282192,28.6939747 L27.337,28.699 L27.3292896,28.6875429 C27.4053826,28.6853603 27.4784353,28.6813122 27.5485961,28.6754964 L27.7295243,29.5126401 L27.4619334,29.6079333 C27.4891961,28.0339409 27.3175121,28.7633717 27.1955733,29.7063935 L21.8173859,31.6643531 C21.8502506,31.1850778 20.8633106,30.9819611 19.2426435,32.4665939 L19.2426435,32.4665939 L19.094,32.604 L19.1752062,32.5323778 C19.577118,32.1889558 19.8474131,32.2598169 19.8331563,32.3862012 L19.2095948,32.6130474 L19.2095948,32.6130474 L19.0909091,32.6088029 L19.206,32.614 L12.4751089,35.0647932 L11.7411627,31.6696903 L13.9011301,30.8830402 C13.9587408,31.0184096 14.0265995,31.1610377 14.1055153,31.3111888 L14.1055153,31.3111888 L14.0932658,31.2770171 C14.036755,30.9778588 15.3814353,30.9081469 14.1055153,31.3111888 L14.206,31.278 L14.314386,31.243055 C15.4989231,30.8434179 16.0813003,30.4110852 16.2810267,30.0177473 L23.9999862,27.2071462 C24.1754701,27.2460679 24.3572611,27.3001371 24.5454545,27.3776224 L24.431,27.336 L24.3254447,27.2982008 L24.3254447,27.2982008 L24.313852,27.4680021 C24.2426219,28.6265868 24.3383223,29.6906176 24.7982282,27.0186724 L24.792,27.05 L24.781841,27.1058655 C24.7320027,27.3432341 24.7362226,27.030214 24.7581874,26.93 L24.782,26.923 L24.789192,26.9513695 L24.791,26.961 L24.786,26.921 L26.9955782,26.1175371 Z M26.5542062,31.9291856 L25.6891564,32.244038 L25.9953241,34.2668862 L26.7759788,33.9827511 L27.1666583,34.859191 L26.5542062,31.9291856 Z M24.6805209,32.2424677 C24.6618769,31.1751804 24.5471185,30.4754583 24.4187787,33.3233333 L24.4187787,33.3233333 L24.4120909,33.4615265 L24.4154739,33.4196619 C24.4197749,33.3507259 24.4223928,33.3466753 24.4234347,33.3717552 L24.4234347,33.3717552 L24.4231642,33.4622591 C24.4215864,33.523089 24.4176711,33.5875356 24.4080909,33.5785265 L24.4080909,33.5785265 L24.4275489,33.661251 C24.5825887,34.2913129 24.6569538,33.727107 24.6772552,32.9939572 L24.6772552,32.9939572 L24.6812196,32.8077434 C24.6831322,32.6820456 24.6836046,32.5540284 24.68276,32.4284385 L24.68276,32.4284385 Z M22.8215083,28.7645186 C21.3119559,28.3557421 21.7857105,28.5334825 22.4334885,28.7022948 L22.4334885,28.7022948 L22.5655539,28.7359424 C22.630888,28.7521966 22.6967343,28.7679765 22.7610484,28.782233 C22.4350969,28.8832269 22.1832334,29.0544163 22.0221465,29.2370314 L15.558987,31.5897902 L15.7675723,32.5567602 L23.8906013,29.6002194 L23.8460949,29.3948401 C24.060315,29.268052 24.2931771,29.1183284 24.5454545,28.9429463 L24.5454545,28.9429463 L24.465699,28.9928507 C24.1464848,29.1709969 23.8617245,29.0756098 23.7520873,28.9575002 L23.7200691,28.8110265 C23.7581337,28.7615274 23.8671206,28.7379718 24.0701512,28.7815848 L24.0701512,28.7815848 L24.159,28.803 L24.1213282,28.7923197 C23.9747048,28.7513424 23.833422,28.7235444 23.6979534,28.7071678 L23.6820159,28.6332495 L23.5187436,28.6918425 C23.2615816,28.6790803 23.0279523,28.7078266 22.8215083,28.7645186 Z M27.2727273,31.5086252 C25.2347167,30.7902353 25.8846177,31.2074469 26.6420963,31.4145971 L26.6420963,31.4145971 L26.7763606,31.4486986 C26.9330795,31.4853005 27.0879247,31.5096432 27.2183778,31.5099832 L27.2183778,31.5099832 L27.2610909,31.5085265 L27.253,31.509 Z M42.6895941,28.6888112 C40.9228503,33.9229456 45.5225081,29.9108259 42.6895941,28.6888112 Z M21.722,26.412 L21.7220082,26.469939 C21.7316577,27.0388186 21.825014,27.906437 21.9039969,26.950663 L21.9039969,26.950663 L21.912,26.83 C21.9067044,26.8663798 21.9006171,26.8396088 21.896209,26.8035429 L21.8932612,26.7755004 C22.2583583,27.0400116 22.6804341,27.0642082 23.1623905,27.0995815 L16.3531095,29.579509 C16.2810959,29.1918942 15.8489267,28.8854702 15.3496885,28.7559571 C15.7147917,28.7250593 16.0440288,28.6886474 16.2227565,28.6549411 L16.2227565,28.6549411 L16.2321115,28.670804 C16.0486209,28.6892002 16.125944,28.7046825 16.2567497,28.7129371 C16.2170373,28.9164186 16.2335477,29.1019312 16.386048,28.8150753 C16.4576696,28.8660713 16.4945697,28.8558242 16.5044192,28.8175026 C16.6627616,28.840219 16.9640794,28.8578166 17.4551095,28.8668838 L17.4551095,28.8668838 L17.4157742,28.8650896 C17.3003161,28.8539664 17.8600343,28.8029407 17.5442341,28.8533788 L17.544,28.853 L17.6900024,28.8322368 C19.8698747,28.5058053 19.1092164,28.4726623 18.0661333,28.5387791 L17.9734313,28.5448656 L17.7537053,28.5609045 L17.5333625,28.5792108 C17.3387554,28.5963793 17.1495269,28.6157891 16.9825146,28.6363576 C16.802212,28.6280527 16.6278304,28.6235409 16.5103831,28.6253448 L16.5103831,28.6253448 L16.4700909,28.6265265 L16.482,28.597 L16.4719255,28.6196168 C16.4554257,28.6446654 16.4623314,28.592924 16.4728898,28.5742334 L16.4811847,28.5681289 L16.486,28.579 L16.4699663,28.5134099 C16.4237281,28.3705943 16.3687004,28.4014559 16.3240789,28.4931797 L16.3056484,28.5358872 C16.2902154,28.5432491 16.2746952,28.5558458 16.2603933,28.5770335 C16.1774247,28.5667937 16.0413465,28.5586627 15.8395338,28.5538721 L19.0717022,27.3776208 C19.1139089,27.3778001 19.156736,27.3625669 19.1960877,27.3303418 L19.193,27.332 L21.722,26.412 Z M32.80865,28.5353398 C32.8334682,28.4610584 32.8208713,28.4747567 32.7917861,28.5262999 C32.668295,28.4507904 32.6075527,28.4950262 32.5889577,28.5746253 C32.5120532,28.5727404 32.4762549,28.6043848 32.5635433,28.6979531 C32.3630094,28.8066106 32.4525083,28.8065817 32.6023054,28.7692657 C32.6132393,28.8025036 32.6279309,28.8322442 32.6443101,28.8543165 C32.6291616,28.8941734 32.6267654,28.9093252 32.6485001,28.8746657 L32.6485001,28.8746657 L32.6550662,28.8650797 C32.6967747,28.9075365 32.7509976,28.9032749 32.8062549,28.7951843 C32.9741482,28.7749157 32.9654617,28.7218599 32.892335,28.6738241 C33.0400206,28.6123623 33.0924041,28.5581917 32.75773,28.6015888 L32.766,28.6 L32.8516216,28.5904772 C32.8536886,28.5860606 32.8564848,28.5828199 32.8600856,28.5818034 L32.873377,28.5864751 Z M42.2727273,26.0664336 L42.2484018,26.0875071 C41.9906755,25.9420825 39.7673977,26.5684031 39.5454545,27.3776224 C40.7223116,26.9547233 41.4478727,26.6478847 41.8512121,26.4381722 C40.2895795,27.8218847 39.6622202,28.4556738 39.5597638,28.6340662 C39.5457744,28.6370997 39.5417329,28.6406802 39.5505872,28.644881 C39.4804495,28.6530933 39.406258,28.7876032 39.612993,28.7080831 L39.612993,28.7080831 L39.6015612,28.7067075 C39.5957647,28.7019095 39.5934299,28.690781 39.59343,28.6819104 C39.5961752,28.6809382 39.5990312,28.6798654 39.6019962,28.6786933 L39.6019962,28.6786933 L39.608,28.696 L39.603989,28.6778972 C39.6085893,28.6760405 39.6134428,28.6739529 39.618333,28.6715716 L39.632898,28.6634839 C39.7421266,28.6799878 39.9596109,28.7018608 40.3183756,28.7300907 L40.318,28.73 C40.3463618,28.7323856 40.3734231,28.7344951 40.4012547,28.7366394 L40.4870733,28.7431777 L40.556,28.748 L40.5020039,28.7432477 C40.4197915,28.7357885 40.3849851,28.7305285 40.3835135,28.7270191 L40.3884403,28.7247082 L40.421455,28.7221789 C40.4682523,28.7204595 40.5532788,28.7210602 40.6480276,28.7230722 L40.6480276,28.7230722 L40.7815965,28.7266374 C41.0947521,28.7366212 41.3736358,28.7568323 40.6787806,28.7573193 L40.8684501,28.7570463 C43.2440634,28.7516604 42.1354141,28.6755886 40.9685767,28.6393005 L40.9685767,28.6393005 L40.7443701,28.6328416 C40.5032856,28.6264554 40.2691714,28.6220927 40.0729839,28.620708 L39.8110174,28.6209838 L39.8110174,28.6209838 L39.7086234,28.6230206 C39.9522732,28.4772174 40.4342184,28.1060749 40.9151808,27.6820501 L40.9151808,27.6820501 L41.1227304,27.4955933 C41.1456246,27.4746238 41.1684365,27.4535894 41.1911394,27.4325095 L41.1911394,27.4325095 L41.3258357,27.3056365 C41.7734737,26.8776913 42.1548758,26.4468331 42.2509582,26.1722642 C42.2723216,26.1448484 42.2774686,26.1230377 42.2678094,26.1065847 C42.2704164,26.0926625 42.2720686,26.0792695 42.2727273,26.0664336 L42.2727273,26.0664336 Z M12.274,28.642 L12.2734356,28.6433324 L12.2667225,28.6385612 L12.273,28.625 L12.2738219,28.6245216 L12.2471055,28.6589529 C12.1317884,28.4668158 11.6433895,28.4299223 11.1124177,28.4670406 C11.2516919,28.4021801 11.3911315,28.3216557 11.5264235,28.223627 L11.5264235,28.223627 L11.6020909,28.1665265 C11.5541307,28.1300351 11.5645872,28.0132472 11.6268296,27.8794817 L13.7269669,27.1143163 C13.5224853,27.7373255 13.6366251,28.4430621 14.3499352,28.6371739 C13.2938845,28.8053794 13.5591456,28.8455276 14.1878138,28.8260502 C13.7288329,29.0526185 13.4629852,29.5764497 13.7650356,30.5199279 L11.650848,31.2902572 L11.3046549,29.7066816 C12.4473458,29.2782809 12.4367029,28.9749696 11.9955392,28.8164228 C12.0839212,28.8086331 12.175126,28.8003668 12.26922,28.7916077 L12.26922,28.7916077 L12.2726931,28.7530991 L12.2726931,28.7530991 L12.279,28.752 L12.2961696,28.748344 L12.2961696,28.748344 L12.3140445,28.7336465 L12.328877,28.7310973 L12.3146325,28.7327415 C12.3161694,28.7303005 12.3174539,28.7276388 12.3160522,28.7228752 C12.3324855,28.7199796 12.3502926,28.7184914 12.3465103,28.7226505 L12.3465103,28.7226505 L12.3330909,28.7285265 L12.4036425,28.7016257 C12.5780191,28.6275009 12.4454115,28.6308791 12.2969949,28.6553728 L12.2969949,28.6553728 L12.279,28.75 L12.274,28.642 Z M27.0299205,22.2730274 L27.3700804,23.7984389 L21.4819444,25.9418943 C21.4360829,25.9423058 21.3865696,25.9431086 21.334315,25.9440719 C20.7523983,25.9483947 19.7975055,25.9960899 19.3442122,26.0495255 C19.2262552,26.0407503 19.1423739,26.0349657 19.1080366,26.0334667 L19.1080366,26.0334667 L19.0900909,26.0325265 L19.3230268,26.0525088 C19.1431216,26.0747627 19.0508715,26.0979531 19.1095217,26.1189786 C19.0727208,26.1332713 19.088591,26.1464554 19.174853,26.15729 C18.9432862,26.4495661 18.8435632,26.7068702 18.8231066,26.9089289 L16.2421187,27.8474431 C16.0402835,27.1763495 15.8039631,26.7267976 15.5574934,26.4472308 L17.2822857,25.8208763 L17.2153555,25.5056917 L16.7663616,25.2568072 L21.45029,23.5519967 L21.5864361,24.2542937 L21.6929954,24.2155721 C21.691317,24.4020915 21.6979767,24.5698946 21.7161677,24.7017229 L21.7161677,24.7017229 L21.7230909,24.7485265 L21.724,24.752 L21.7560007,24.4673312 C21.7666948,24.3683123 21.7768523,24.2730092 21.7864822,24.1813319 L27.0299205,22.2730274 Z M20.5780711,26.1536523 C20.672282,26.1612381 20.7603168,26.1683161 20.8424361,26.1749066 L19.235,26.759 L19.2750824,26.1673247 C19.4273216,26.1786511 19.6813363,26.1867596 20.0640683,26.1901281 L20.2360554,26.1912771 L20.1817907,26.1907087 C20.1351918,26.1898952 20.1108831,26.1883832 20.1024951,26.1865041 L20.1024951,26.1865041 L20.102,26.185 L20.1287254,26.1864957 L20.2147536,26.1891138 L20.208,26.172 L20.2157193,26.17198 L20.2638226,26.1694785 L20.2844233,26.1685961 C20.3259856,26.1695615 20.3438177,26.1727992 20.2997644,26.1794396 L20.2147536,26.1891138 L20.3585279,26.1757261 C20.3484868,26.1775072 20.334261,26.1796115 20.3151522,26.1820752 L20.326,26.18 L20.4699734,26.1658233 Z M26.7054106,24.5981831 L26.947461,25.7227454 L24.7332536,26.5272011 C24.6057406,25.7564479 24.4783157,26.0604112 24.3939146,26.6520489 L24.1182372,26.7508928 C23.4376818,25.8317314 23.0814529,25.8891931 21.9646191,26.62024 L21.9646191,26.62024 L21.8950909,26.6655265 L21.8891064,26.6284821 C21.872916,26.5249312 21.8580842,26.4378067 21.8445502,26.3656771 L22.482,26.135 L22.5337773,26.1300144 C23.4012271,26.0392806 23.265022,25.9960151 22.8917271,25.9870025 L26.7054106,24.5981831 Z M51.0246706,25.590105 L51.2100668,26.4453294 L50.4353109,26.7283532 C50.453181,26.5293424 50.4589731,26.3096125 50.4511128,26.0664336 L50.4528429,26.1721403 C50.5315258,26.2527794 50.6110561,26.2668444 50.5739302,26.0314503 L50.575,26.049 L50.5762554,26.0641048 C50.5729968,26.0861958 50.5488943,26.0326856 50.5590393,26.0258833 L50.5739302,26.0314503 L50.5489532,26.0135069 C50.6371374,25.9459406 50.7907176,25.8106132 51.0246706,25.590105 Z M53.125,25.944 L53.123,25.941 L53.12,25.937 L53.118,25.934 L53.116,25.932 L53.116,25.931 L53.113,25.928 L53.1265265,25.9678669 L53.1265265,25.9678669 L53.1402281,26.0059834 L53.1495177,26.0260794 C53.1164495,26.0225052 53.0866,26.0155584 53.0588271,26.0095744 L52.9832411,25.9948959 C52.8616002,25.9746934 52.8482537,25.995271 53.1933483,26.1207486 L53.113,26.091 L52.9487618,26.1766287 C52.9230026,26.1908243 52.8979644,26.2051365 52.8736257,26.2195614 C52.7624989,25.5328355 52.6194273,24.8551298 52.4474899,24.1890279 C52.6158057,24.0197322 52.796695,23.8364367 52.9907185,23.6388948 L52.9907185,23.6388948 L53.1079938,23.5176946 C53.1040117,23.5777974 53.1389275,23.5995549 53.2559428,23.4749061 L53.234,23.496 C53.2365338,23.4938275 53.2400244,23.4904854 53.2427631,23.4863244 L53.2484275,23.4711147 C53.2490344,23.4706858 53.2496212,23.4703198 53.2559428,23.4749061 C53.2559428,23.238631 53.1747912,23.3218837 53.1300817,23.4257091 C53.1128149,23.4408931 53.1087666,23.4555443 53.1140586,23.4686469 C52.945175,23.5434992 52.6875023,23.7418033 52.3978166,23.9975231 C49.7528953,14.1046058 40.7273654,6.81818182 30,6.81818182 C29.1602761,6.81818182 28.3309804,6.86282974 27.5143571,6.94988117 C27.4798479,6.62602734 27.4071562,6.18526493 27.2831874,5.60588723 C28.1748649,5.50499113 29.0815413,5.45454545 30,5.45454545 C35.6527494,5.45454545 40.8591984,7.36538481 45.008649,10.5763655 C45.0209672,10.821618 45.0457208,11.0993219 45.0852881,11.4135944 L45.0852881,11.4135944 L45.107,11.576 L45.1021586,11.5270127 C45.0291477,10.7449232 45.5546556,11.4944257 45.2274351,11.6247739 L45.1773923,11.638509 L45.1159608,11.6433566 C45.5213188,11.6433566 45.8099987,11.547722 46.0068536,11.392979 C50.8914174,15.5969179 54.1018786,21.6925437 54.5029221,28.5429173 C53.8687503,28.614492 53.498731,28.6712221 53.3189549,28.7155731 C53.2981779,28.7105069 53.2783169,28.7058095 53.2594551,28.7014731 L53.2594551,28.7014731 L53.2544969,28.6773914 C53.224301,28.5769256 53.1646187,28.595413 53.1272629,28.6421043 L53.1418597,28.6274754 C53.1148217,28.1644044 53.0741911,27.7049838 53.020361,27.2496066 C53.1576744,26.8914865 53.2082193,26.5003887 53.1688526,26.0664336 L53.171,26.123 L53.1869619,26.1188193 C53.2377768,26.2260647 53.2647221,26.2280559 53.2446135,26.1636537 L53.2305307,26.1260997 L53.2996075,26.1348545 C53.5926117,26.1696167 53.4271737,26.1054169 53.2286119,26.0512761 L53.2286119,26.0512761 L53.2231927,26.0381926 C53.2064184,26.0053991 53.1862245,26.0007309 53.1699313,26.0117287 C53.1535439,25.9851576 53.1344206,25.9564705 53.1123316,25.9260526 L53.126,25.945 L53.125,25.944 Z M32.3590909,23.3295265 L32.358,23.33 L32.3630909,23.3295265 L32.3590909,23.3295265 L32.3640909,23.3285265 L32.3783085,23.3275543 L32.3860909,23.3265265 L32.3991374,23.3245601 L32.4370909,23.3185265 L32.4710909,23.3135265 L32.4811713,23.3127674 L32.607106,23.2946637 C32.6204579,23.2927443 32.6332756,23.2909017 32.6452389,23.289182 L32.6452389,23.289182 L32.6790909,23.2835265 L32.6840909,23.2825265 L32.7146953,23.2791973 L32.7146953,23.2791973 L32.7272727,23.2773893 C32.5470714,23.280706 32.353019,23.2904679 32.154441,23.3046757 L31.9777573,23.318359 L31.9777573,23.318359 L31.3378102,22.1595791 L30.5585012,21.7025566 L34.6630786,20.2086126 L36.8320742,24.2115603 C36.8211496,24.2809971 36.8165787,24.3459978 36.8184599,24.4051927 L33.2867866,25.6898939 L32.0093852,23.3789907 C32.0901577,23.3677779 32.1737501,23.3560894 32.2602289,23.3439109 L32.2602289,23.3439109 L32.3481868,23.3318845 L32.3481868,23.3318845 L32.3550909,23.3305265 L32.3590909,23.3295265 Z M33.6770565,23.2026567 C31.8802626,23.1334946 32.9875585,23.3966966 34.0930118,23.5653741 L34.3132169,23.5977228 C35.4419191,23.7570389 36.3617946,23.7850356 33.8665238,23.2106966 L33.8665238,23.2106966 Z M47.2925474,15.6118619 L47.230696,16.6185815 C46.8273194,16.5902206 46.1698673,16.6507893 45.2283826,16.8881119 C45.2241718,16.8903871 45.2199894,16.8926984 45.2170177,16.8954966 C45.146279,16.9134846 45.0739439,16.9324695 45,16.9524882 L45,16.9524882 L45.1013141,16.9749652 C44.8466588,17.1917974 44.7321892,17.5925597 44.749199,18.1993007 C44.7863352,18.1323089 44.83086,18.0768524 44.8778593,18.0248651 L44.8778593,18.0248651 L44.9737011,17.9231258 C45.1501212,17.7363208 45.3157642,17.5238598 45.2283826,16.8881119 L45.2422694,17.0081837 C46.1118236,17.1945978 46.7776199,17.1896421 47.2001589,17.1091164 L46.9762287,20.7073445 L43.3452564,22.0289103 L43.6146455,17.7167167 L42.8045754,17.2453501 L44.8265938,16.5065927 C44.836687,16.6268741 44.8513029,16.7536012 44.8709175,16.8881119 C44.955431,16.7487204 45.0185613,16.5941416 45.0653628,16.4227772 L47.2925474,15.6118619 Z M37.3442095,18.3901404 C37.6159866,19.0250406 37.8514439,19.3649144 38.0024167,19.4715175 C37.7306373,19.495788 37.4685331,19.5218922 37.2603047,19.5463142 L37.2300147,19.4020256 L36.1964084,18.8076974 Z M9.68190917,11.6917144 L9.682,11.679 L9.682,11.66 L9.683,11.658 L9.683,11.651 L9.6529761,11.8189472 C9.65142184,11.8281348 9.64987628,11.837299 9.64833936,11.8464393 C9.6130289,11.8839382 9.57837022,11.9229881 9.54382217,11.9621379 C9.54407201,11.8810311 9.52461073,11.8127369 9.48919456,11.7592972 C9.49856084,11.743831 9.5074516,11.7290557 9.51588429,11.7149494 L9.51588429,11.7149494 L9.52811342,11.7064345 L9.591,11.655 C9.5735595,11.6652622 9.62177004,11.6163275 9.62313821,11.622299 L9.621,11.626 L9.65802811,11.5739202 C9.70561362,11.4996155 9.69716672,11.4887798 9.66339906,11.5100871 L9.64034566,11.5264779 L9.611,11.549 L9.63498277,11.5025414 C9.68485377,11.3988033 9.6131139,11.4815335 9.53974136,11.5972243 L9.51238446,11.6418536 L9.51238446,11.6418536 L9.49161039,11.6650937 C9.47485853,11.6826769 9.45921038,11.6998106 9.44687859,11.7146711 C9.42141109,11.6922001 9.39125824,11.6746941 9.35557775,11.6618461 C9.33998624,11.6392918 9.33138305,11.6382096 9.32861028,11.6543054 C8.92155,11.5532671 7.98740976,12.1354546 6.92245999,14.0724743 L6.92245999,14.0724743 L6.886,14.137 L6.883,14.143 L6.881,14.146 L6.88,14.148 L6.88,14.149 L6.878,14.152 L6.878,14.153 L6.877,14.154 L6.87609091,14.1565265 L6.87564966,14.1572402 L6.86520096,14.1769664 L6.842,14.22 L6.841,14.221 L6.837,14.229 L6.82988436,14.2436409 L6.81818182,14.2657343 C7.38358274,14.0544211 7.84863489,13.8189453 8.2244927,13.5782103 C4.77331247,18.1464488 2.72727273,23.8342853 2.72727273,30 C2.72727273,32.9463801 3.19449631,35.7836342 4.058895,38.441714 C4.0086516,38.6612687 3.96095745,38.9231895 3.9370217,39.1783217 L3.94,39.148 L3.94,39.149 L3.939,39.157 L3.939,39.161 L3.938,39.165 L3.938,39.173 L3.98992175,38.9855078 C4.00655582,38.9242313 4.02219142,38.8659479 4.03683093,38.8106515 L4.07776362,38.6537181 C4.07636946,38.7907407 4.07549969,38.8981263 4.07506773,38.9790695 L4.07506773,38.9790695 L4.074,39.086 L4.075,39.085 L4.074,39.092 L4.074,39.088 L4.0714589,39.0996304 L4.0714589,39.0996304 L4.06811926,39.1166514 C3.97077703,39.18562 3.89137634,39.3180383 4.06214527,39.267234 C4.06443469,39.2919909 4.06846696,39.3173593 4.07467541,39.3427404 L4.074,39.341 L4.08495854,39.2972119 L4.08495854,39.2972119 L4.09179943,39.2576065 C4.12551644,39.2455212 4.16682753,39.2277572 4.21687447,39.2031018 L4.21687447,39.2031018 L4.19767909,39.2069573 C4.18356621,39.2003827 4.21028742,39.1554963 4.21676567,39.1748956 L4.21676567,39.1748956 L4.216,39.188 L4.21913509,39.1471404 C4.21677603,39.1160392 4.20712912,39.0968789 4.19286082,39.0868275 L4.16832562,39.0782281 L4.14627401,39.0801841 L4.13885817,39.0811682 L4.12086832,39.0862723 C4.1280967,38.9879678 4.10117722,38.9992422 4.0810848,39.0649915 L4.081,39.063 L4.0828334,38.9976182 C4.08466141,38.9232536 4.08673403,38.8284217 4.08910893,38.7176824 L4.09158672,38.6018094 C4.09467844,38.5897751 4.09771625,38.5779084 4.10070075,38.566208 C7.69231472,49.432662 17.9305847,57.2727273 30,57.2727273 C45.0623114,57.2727273 57.2727273,45.0623114 57.2727273,30 C57.2727273,29.5710442 57.2628241,29.1444015 57.2432341,28.7202879 C57.7275694,28.7501526 58.0720459,28.7637522 58.2974642,28.7662094 L58.4286757,28.7662771 C58.9247793,28.7601124 58.4903295,28.6732045 57.5810033,28.6306921 C58.0679292,27.9689223 58.384263,27.7267816 58.5343457,27.6466645 L58.5343457,27.6466645 L58.5550909,27.6355265 L58.5190453,27.6362326 C58.3274775,27.6318887 57.9023229,27.5110041 57.2510868,26.8282077 L57.2510868,26.8282077 L57.147,26.715 L57.1713652,26.7403952 C57.4240304,26.9931129 57.3980384,26.7586155 57.1653998,26.6865761 L57.1080785,26.6731312 L57.2663877,26.697154 C59.3822466,26.9912272 58.3287686,25.705643 57.0045852,26.167732 C56.4637343,22.314098 55.1162703,18.7186101 53.1389909,15.5574217 L53.162282,15.4231011 L53.162282,15.4231011 L53.179,15.252 L53.1911007,15.3156207 C53.2505857,15.6223324 53.3064831,15.7458561 53.2896799,15.1951902 L53.2853294,15.0759223 L53.278,14.935 L53.2799818,14.9746318 C53.2825386,15.1175169 53.2427568,14.7950521 53.2668669,14.8683248 L53.274,14.897 L53.2387728,14.7451698 C53.0505146,13.9683264 53.0480045,14.2688487 53.1005946,14.7118612 L53.1093371,14.7828584 C53.00111,14.5394379 52.7591205,14.3636982 52.3012861,14.2961861 C51.2928099,12.8675575 50.1502207,11.539096 48.8918858,10.3302214 L48.8972252,10.3100856 C48.9054133,10.2804613 48.913399,10.250852 48.9211708,10.2213182 L48.9211708,10.2213182 L48.965144,10.0455063 C49.1896499,9.09824815 49.1614252,8.36086963 48.4818568,9.94453152 C43.6224189,5.46395273 37.1308024,2.72727273 30,2.72727273 L29.957,2.727 L29.9568951,2.71035728 L29.9540909,2.68252647 L29.9549295,2.68096971 L29.9530909,2.66952647 L29.9520909,2.65452647 L29.9520909,2.65252647 L29.9516535,2.63199043 L29.950742,2.61836141 L29.950742,2.61836141 L29.9483206,2.58215933 L29.9468963,2.56086399 L29.9450909,2.54652647 L29.9430909,2.51452647 L29.9420909,2.48852647 L29.94,2.474 L29.9432533,2.65515905 C29.9436397,2.67978817 29.9440342,2.70423832 29.9444367,2.7285091 L30,2.72727273 C26.5401984,2.72727273 23.2308678,3.37151557 20.1854272,4.54658224 C19.9832627,4.35069259 19.6510471,4.09526271 19.1452988,3.77622378 L19.1452988,3.77622378 L19.1949761,3.81317762 C19.3871455,3.98205922 19.2866807,4.25631539 19.1920681,4.31018851 L19.1920681,4.31018851 L19.1800909,4.31452647 L19.1847609,4.32743628 C19.2617958,4.51813411 19.3995206,4.67752985 19.5569172,4.80000746 C19.4213201,4.85440966 19.2863082,4.91170949 19.1518586,4.97006089 L19.0909091,4.97258638 C19.1040631,4.97526381 19.1170956,4.97800694 19.1300148,4.9808091 C18.1783754,5.39365647 17.2569636,5.85930147 16.3673095,6.37375363 C16.3850067,6.32778499 16.4042694,6.20386262 16.4254842,5.97372233 L16.4254842,5.97372233 L16.435,5.855 L16.4332805,5.8704642 C16.4208098,5.94200769 16.4153945,5.6471813 16.4312776,5.76141883 L16.433,5.775 L16.4213632,5.651592 C16.4054611,5.49580163 16.3911304,5.37705693 16.3778242,5.2923616 L16.3680281,5.23517754 C16.3833,5.19624489 16.4017134,5.14345291 16.4237048,5.07415288 L16.42,5.082 L16.412,5.099 C16.4098243,5.08144267 16.4133445,5.05817738 16.4168361,5.04716515 L16.421612,5.04274474 L16.423,5.066 L16.4221812,4.97581529 C16.4129964,4.73968078 16.3645636,4.87324349 16.3328303,5.03837535 L16.3238673,5.08852386 C16.3033724,5.10343473 16.2924314,5.26666469 16.2897004,5.47316347 L16.2891705,5.63450905 L16.2891705,5.63450905 L16.2915933,5.80223197 C16.2979256,6.07742254 16.3156854,6.33858074 16.3423641,6.38962541 C13.8424472,7.83734451 11.5939699,9.67204239 9.67822587,11.8109591 L9.68,11.738 L9.68,11.724 L9.681,11.722 L9.681,11.693 L9.682,11.691 L9.681,11.692 L9.68190917,11.6917144 Z M14.7032719,10.805034 C15.2502407,11.2585627 15.640995,11.5023306 15.9054413,11.5966327 L15.7837318,11.6883014 C15.5740313,11.655136 15.3269637,11.6216666 15.0764639,11.5908683 L14.8217774,11.5605755 C14.4664297,11.5196843 14.1275368,11.486292 13.9038165,11.469053 C14.1342355,11.2683538 14.3683282,11.0723503 14.6060694,10.8806903 Z M7.01212249,11.6104917 C8.54654192,12.0085421 11.9499432,8.602187 6.81818182,11.5332294 L6.829,11.527 L6.92219294,11.4781512 C7.44062079,11.2267176 7.42026422,11.6102702 7.10890243,11.6176543 L7.04282342,11.613816 L6.97809091,11.5995265 Z M27.034325,5.63188303 L27.0293264,5.66791134 C26.969556,6.14034422 27.0189633,6.6214019 27.1068106,6.9978319 C23.1194295,7.493243 19.4456731,9.00268505 16.3519671,11.2595948 C16.2969333,10.9345167 16.0408275,10.4572406 15.6954516,10.052674 C18.9652138,7.70239788 22.8367285,6.13741027 27.034325,5.63188303 Z M40.7777766,2.62334865 C39.2804323,1.64319131 39.0037471,2.73055592 40.7540795,2.71647741 L40.7540795,2.71647741 L40.7940909,2.71452647 L40.7045658,2.71335343 C40.2560523,2.69299902 40.5518368,2.51263765 40.8527834,2.67743225 L40.8527834,2.67743225 L40.906,2.71 Z M32.7272727,2.66890604 C32.0340487,2.2283944 31.0163907,2.24893432 30,2.2676795 C30.6292244,2.52173646 31.3851808,2.6862553 32.7272727,2.66890604 Z M53.404,11.392 C53.3450407,11.4172135 53.2906703,11.4483296 53.2430808,11.4795267 L53.2430808,11.4795267 L53.2303524,11.4884553 C53.1747807,11.371842 53.1392118,11.3527038 53.1190516,11.3855028 C53.1046844,11.3703151 53.1013816,11.3875569 53.1052631,11.423826 C53.1003322,11.4466256 53.0974952,11.4755353 53.09646,11.507876 L53.09646,11.507876 L53.095632,11.5522459 C53.0864206,11.5566176 53.0782964,11.5618836 53.0741989,11.568349 C52.8476691,11.5267404 52.3078026,11.5356211 51.8863279,11.7090918 L51.8863279,11.7090918 L51.8200909,11.7375265 C52.4565473,11.7391698 52.8323512,11.7121161 53.0215555,11.6780942 C52.8876837,11.8587687 52.9793263,11.9771538 53.1337307,11.8409625 C53.1572434,11.9218853 53.18885,11.9521346 53.220141,11.8528032 C53.2496652,11.9260676 53.269449,11.9385188 53.2538403,11.800753 C53.4232148,12.0282425 53.8687816,12.4710142 54.3475999,12.9192851 L54.3475999,12.9192851 L54.627466,13.1785465 C54.6741463,13.2213534 54.7206979,13.263832 54.7669011,13.3057925 L54.7669011,13.3057925 L54.9042452,13.4299297 L55.0381792,13.549819 C55.0810272,13.587984 55.1231253,13.6252949 55.1642695,13.6615754 C58.2233658,18.36316 60,23.9741024 60,30 C60,32.2996853 59.7412435,34.5389347 59.251257,36.6902217 C58.6943356,36.9066919 58.3795747,37.3764767 58.9054036,38.053551 C55.3877608,50.7110094 43.7786604,60 30,60 C19.0435841,60 9.45898053,54.1265734 4.22300864,45.3565395 C4.24291189,44.6314177 4.25192357,44.1137558 4.25355592,43.7596648 L4.25355592,43.7596648 L4.25358393,43.5468166 C4.24908779,42.6943153 4.18438903,43.2341723 4.14847702,43.9755158 L4.14847702,43.9755158 L4.1410066,44.1430915 C4.12590626,44.5136621 4.11911487,44.9108361 4.130761,45.1990713 C1.50520344,40.7414746 0,35.5465168 0,30 C0,24.4140342 1.52669073,19.1846462 4.18557695,14.7063312 C3.68196336,17.2888239 3.9547594,18.0081474 4.2578601,14.477527 L4.24685201,14.603594 C9.48804445,5.85563175 19.0601942,0 30,0 C36.6114687,0 42.7234166,2.13870271 47.6817487,5.76201317 C47.656769,5.90986276 47.6332064,6.07215282 47.6117336,6.23792137 L47.6117336,6.23792137 L47.5834786,6.46848141 C47.5761579,6.53179917 47.5692245,6.59489902 47.562749,6.65718809 L47.5447669,6.84103009 C47.4624309,7.74214979 47.4990085,8.3274501 47.8927741,6.59602253 L47.8927741,6.59602253 L47.922,6.46 L47.9077387,6.50918422 C47.8568909,6.65418839 47.925697,6.0486991 47.9402678,6.22293031 L47.94268,6.28361783 L47.942,6.3 L47.9450112,6.15736158 C47.945616,6.0838047 47.9458569,6.01459382 47.9457538,5.94956468 C50.6287506,7.96308136 52.9644262,10.4070623 54.8470429,13.183237 C54.4844254,12.8362541 54.015093,12.3920287 53.4195561,11.8344625 L53.4195561,11.8344625 L53.27,11.695 L53.4179088,11.8218329 C54.1691757,12.4382865 54.0270179,11.7599736 53.3082881,11.653733 L53.234,11.645 L53.2927567,11.6518166 C53.300109,11.6419492 53.3050102,11.6326699 53.3077424,11.6241913 L53.3097141,11.6013701 C53.3421504,11.5407864 53.3748332,11.4696781 53.406801,11.3869022 L53.398,11.406 L53.401,11.398 L53.404,11.392 Z" id="Combined-Shape"></path>
            </g>
        </g>
    </g>
</svg>