<?xml version="1.0" encoding="UTF-8"?>
<svg width="60px" height="60px" viewBox="0 0 60 60" version="1.1" xmlns="http://www.w3.org/2000/svg" xmlns:xlink="http://www.w3.org/1999/xlink">
    <title>A13CA75A-1225-4983-9E97-AD054FA22773</title>
    <g id="Page-1" stroke="none" stroke-width="1" fill="none" fill-rule="evenodd" opacity="0.151733398">
        <g id="UiKit_Icons" transform="translate(-580.000000, -3030.000000)" fill="#4C9EEA">
            <g id="Group" transform="translate(580.000000, 3030.000000)">
                <path d="M30,0 C36.5609656,0 42.6300127,2.10615367 47.5679214,5.67924116 C47.4632308,6.69356922 47.4664056,7.536612 47.8430215,5.88299008 C49.7803658,7.31641055 51.537747,8.97890118 53.0767511,10.8294516 C52.8493128,10.7877823 52.3084441,10.7967714 51.8863279,10.9774554 L51.8863279,10.9774554 L51.8200909,11.0074545 C52.4565473,11.0087366 52.8323512,10.9806008 53.0213867,10.945455 C52.8880493,11.1328175 52.9789967,11.2556488 53.1338346,11.1149723 C53.1573341,11.1988448 53.1888896,11.2300617 53.2195476,11.1253787 L53.219,11.126 L53.2316747,11.1544607 C53.2506452,11.1955342 53.2627822,11.1973355 53.2586888,11.1255069 L53.25421,11.0732992 C53.3266071,11.1743261 53.449195,11.316037 53.6031358,11.4815144 C57.6106466,16.5817405 60,23.0118386 60,30 C60,32.406554 59.7166353,34.7469245 59.1814512,36.9895665 L59.1498877,37.0030423 C58.6818814,37.2328927 58.4361216,37.6709761 58.8400793,38.2828714 C55.2468474,50.8233552 43.6950838,60 30,60 C19.0531349,60 9.47569151,54.1368087 4.23671125,45.3794676 C4.24699554,44.9443936 4.25192559,44.6056692 4.25337153,44.3468078 L4.25337153,44.3468078 L4.25318192,44.0301025 C4.24981538,43.6464332 4.23374586,43.5728142 4.21405538,43.6828469 L4.21405538,43.6828469 L4.20474343,43.7462113 C4.18098613,43.934922 4.15426825,44.3422499 4.13854145,44.7740233 L4.13854145,44.7740233 L4.13286998,44.9475761 C4.13203346,44.9765655 4.13125406,45.0055484 4.1305359,45.0344674 L4.12587842,45.19267 C1.50385146,40.7368073 0,35.5440253 0,30 C0,24.5178472 1.47047216,19.3791415 4.03850963,14.9567899 C3.94991246,15.5476889 3.91055284,15.9771495 3.90651492,16.1970307 L3.90651492,16.1970307 L3.90690095,16.2781924 C3.91731747,16.5667486 4.0370985,16.1432863 4.17960752,14.7194772 C4.98853368,13.3524857 5.90388724,12.0564422 6.91334319,10.8413688 L6.91809091,10.8424545 C6.95792413,10.7877117 7.00185661,10.7352001 7.04596495,10.6828415 C7.48959838,10.5240911 7.3718805,10.9790748 6.97393706,10.8634073 L6.97393706,10.8634073 L7.01212249,10.8749113 C8.52364014,11.2827051 11.8487655,7.85114261 7.04229272,10.6624379 L7.08482226,10.6368095 C12.587856,4.13087391 20.8115194,0 30,0 Z M12.2727273,51.8928103 C11.3846261,51.680232 10.7922478,51.4908818 9.54545455,51.7457683 C10.6080041,52.009158 11.2446942,52.1143065 12.2727273,51.8928103 Z M39.4231925,51.1860605 C39.4198617,51.5333742 39.42959,51.7904064 39.4585332,51.8143738 C39.4632097,51.7709356 39.4783104,51.7414556 39.4978199,51.7233237 L39.4978199,51.7233237 L39.4599745,51.8817007 C39.4155386,51.8721928 39.3527845,51.8614857 39.2694223,51.8494974 L39.074542,51.8237881 C38.8881132,51.8008997 38.6401992,51.7743004 38.3201991,51.7436105 L38.3201991,51.7436105 L38.2845051,51.7318104 C38.26744,51.6970113 38.2471957,51.680662 38.2259293,51.677595 C38.607039,51.5352994 38.9835226,51.3807815 39.3548901,51.2167992 Z M53.281614,28.766743 C53.4818828,28.8003383 53.9557857,28.8082715 54.446833,28.7971285 L54.446833,28.7971285 L54.5163985,28.7951073 C54.5356949,29.1943101 54.5454545,29.5960153 54.5454545,30 C54.5454545,33.8496097 53.6592416,37.4922332 52.0797002,40.7349861 C51.6947802,40.7905403 51.2114982,40.8960711 50.6378363,41.0694604 L50.6378363,41.0694604 L50.4610909,41.1234545 L50.4545455,41.12622 L50.660385,41.1333883 C51.1421678,41.147319 51.5514882,41.1386926 51.8911822,41.1157304 C49.7568735,45.3083553 46.45458,48.8062774 42.4125722,51.1801966 C42.2987307,50.6292011 42.0783677,50.0408398 42.0668728,50.8580156 L42.0668728,50.8580156 L42.0666447,50.9682621 C41.9456129,50.6079938 41.7944532,50.3064273 41.6266438,50.0578582 C43.433192,49.0104956 45.0852944,47.7238651 46.5399941,46.242708 C46.9632553,46.5514838 47.1658816,46.2711389 47.3883321,45.3317482 C47.4631066,45.2467795 47.5368903,45.1619282 47.6100637,45.0765385 L47.611702,46.3636364 C47.8960656,45.9076923 47.9488687,45.4536131 47.6096414,45 L47.639001,45.0427047 C47.6758413,44.9995474 47.7125259,44.9562533 47.7490541,44.9128232 C47.7658886,45.037517 47.7800421,45.0458598 47.783306,44.8212466 L47.7818872,44.8736994 C50.8404062,41.2210569 52.7944081,36.612002 53.1301391,31.5602883 C53.1776752,31.5584452 53.1952922,31.5460632 53.1707901,31.5205369 L53.1707901,31.5205369 L53.1818182,31.5191559 C53.1661172,31.5070685 53.1504591,31.4952834 53.1348196,31.4838034 L53.1536679,31.1525161 L53.1536679,31.1525161 L53.1696002,31.2472144 L53.172,31.26 L53.1694651,31.2320867 C53.1518553,31.0904798 53.1949468,31.1729646 53.1942702,31.3100156 L53.193,31.335 L53.2119655,31.1321367 C53.3213899,29.8418697 53.3267387,29.1280796 53.2895917,28.822472 Z M55.9690478,39.5454545 C59.7212999,36.2235143 58.7819614,36.4811476 57.5490972,37.4813107 L57.5490972,37.4813107 L57.4111278,37.5953514 C57.2955191,37.6926916 57.1787904,37.7954969 57.0644331,37.9015151 L57.0644331,37.9015151 L56.928566,38.0301352 C56.9061856,38.0517809 56.883956,38.073519 56.8619051,38.0953316 L56.8619051,38.0953316 L56.7319665,38.2269569 C56.2862485,38.689764 55.9439482,39.1695207 55.9637306,39.4993709 L55.9637306,39.4993709 L55.9670909,39.5384545 Z M12.5132241,38.4025214 C12.4363202,38.6716693 12.5036979,38.0180638 12.5286878,38.2525136 L12.5286878,38.2525136 L12.532,38.302 L12.522194,38.0925008 C12.4887228,37.4729979 12.4448616,37.1136484 12.3974911,36.9441073 L12.3815804,36.8945271 C12.4224465,36.853529 12.4099841,36.7850843 12.2534296,36.6994846 L12.2534296,36.6994846 L12.269217,36.7130733 C12.2769177,36.7291128 12.2383373,36.7357917 12.2388679,36.7205628 L12.2388679,36.7205628 L12.2534296,36.6994846 C12.0746725,36.8602269 12.1471192,36.9306105 12.2422178,36.9353786 C12.1727635,37.1321215 12.1079468,37.5512967 12.0648708,37.9972994 L12.0648708,37.9972994 L12.0449418,38.225221 C11.9584599,39.3288155 12.0204976,40.3944666 12.4842044,38.5269763 L12.4842044,38.5269763 Z M32.2484607,21.9301222 L32.4657131,23.0175389 C32.3086784,23.0251601 32.1452447,23.0366479 31.9805835,23.0508493 L31.9805835,23.0508493 L31.7863776,23.068762 L31.5929145,23.0887659 L31.5929145,23.0887659 L31.4020722,23.1104422 C29.9223094,23.2856965 28.8566286,23.5763399 32.2672452,23.0766395 L32.2672452,23.0766395 L32.3550909,23.0634545 L32.3520909,23.0644545 C32.3632477,23.0629082 32.3700838,23.0618861 32.3860909,23.0594545 L32.3860909,23.0594545 L32.3991374,23.0575425 L32.404,23.056 C32.4175096,23.0547958 32.4292592,23.0530392 32.4417566,23.0511708 L32.461,23.048 L32.4494473,23.050021 L32.4494473,23.050021 L32.468,23.047 L32.47,23.047 L34.9933824,35.715384 L32.7923494,36.5190579 C32.7958567,36.4274199 32.7985749,36.3121977 32.8002993,36.1700169 L32.8,36.177 L32.7985068,36.2171142 C32.7924128,36.2802012 32.7748109,36.0427438 32.7850361,36.0738982 L32.79,36.099 L32.7772971,35.9970931 C32.6061329,34.7490086 32.6451437,35.9660957 32.7062261,36.5473685 L30.7955192,37.2432813 L28.743351,28.1848017 C29.4256363,27.6027327 29.4034013,26.5965484 29.9059592,26.0085265 C29.9357501,26.0452833 30.0004126,26.0459584 30.1144429,25.9538701 L30.1144429,25.9538701 L30.0807971,25.878107 C29.9570271,25.6464474 29.8397173,25.9164791 29.9035132,26.0053202 L29.9035132,26.0053202 L29.8512319,26.0538535 C29.5656613,26.3097009 29.0248586,26.7245358 28.5117934,27.1648469 L27.9083054,24.5023972 L26.9204036,23.8693764 L32.2484607,21.9301222 Z M23.7307833,36.6818006 C24.9665144,36.1652251 25.0842355,34.4483798 22.0273928,36.2774502 L22.0273928,36.2774502 L21.8210909,36.4024545 L21.8181818,36.4051262 L21.9383746,36.4828894 C22.2904507,36.6982017 22.6296882,36.7968838 22.9394805,36.8141416 C22.8365775,36.8325216 22.7415095,36.8500578 22.6539746,36.8667325 L22.4136672,36.9141544 C20.9218674,37.2203014 22.4689443,37.1569522 24.4535156,36.5712469 L24.4535156,36.5712469 L24.2293163,36.6046098 C24.0836228,36.6265195 23.9454349,36.6477621 23.8145164,36.6683239 L23.8145164,36.6683239 Z M24.6549295,36.6916081 C24.6269363,36.6051309 24.5740623,36.6258551 24.5257569,36.686723 C24.3249636,36.6786677 24.1417019,36.7509638 24.5131262,36.9502405 L24.5131262,36.9502405 L24.4193454,36.9196803 C24.4059655,37.0046959 24.4405071,37.0479686 24.5729793,36.93237 L24.5729793,36.93237 L24.6182216,36.9152056 C24.8821618,36.8159661 24.8035231,36.7375581 24.6583029,36.7039404 L24.6583029,36.7039404 Z M48.1930919,16.1267511 L48.2552127,16.4064473 C48.1130314,16.3599571 47.9404274,16.348817 47.7272727,16.3855106 C47.8904901,16.979502 48.1096338,17.4198344 48.5152971,17.6153711 L49.9160896,24.0546061 C49.6203409,23.7840707 49.188635,23.4914123 48.5871366,23.1818182 L48.598,23.187 L48.6873223,23.2379354 C49.4049908,23.6788931 48.1599747,23.9197605 48.4740883,23.3433143 L48.5217277,23.266957 L48.572,23.2 L48.4565694,23.3427226 C46.3629543,26.0022152 49.354523,26.3501585 50.2276309,25.4909179 L50.3361427,26.0012709 C49.4486016,26.7145727 49.4349087,26.788141 49.0909091,28.6363636 C49.7719412,28.3242387 50.3580772,27.8504188 50.4437798,26.4835763 L51.1686654,29.8280625 L50.2942143,30.1463099 C49.7522766,27.3753966 48.4811176,28.9923204 49.4409113,30.4572842 L47.0126063,31.3408779 C46.8795269,31.329287 46.7356934,31.318019 46.5882576,31.3075735 L41.5687602,26.9487489 C41.9055616,26.59146 42.1718374,26.2524157 42.2508175,26.0193423 C42.2601528,26.0069133 42.2664111,25.9955901 42.2697709,25.9853453 L42.269,25.986 C42.2721061,25.9782246 42.273041,25.9716249 42.2727883,25.9651644 L42.26868,25.9458196 L42.2727273,25.9090909 L42.2485943,25.9311207 C42.1133761,25.8512567 41.432693,25.9940585 40.7860344,26.2700659 L39.4069516,25.0712046 L39.7925173,26.8827979 C39.6691719,27.0061079 39.5812638,27.1369418 39.5454545,27.2727273 C39.6520934,27.2328742 39.7550267,27.1940122 39.8543501,27.1561269 L40.0400004,28.0280954 C39.7524811,28.3234811 39.604452,28.4985909 39.5600759,28.5802874 L39.5600759,28.5802874 L39.5488345,28.5829293 C39.5443325,28.5852485 39.5442646,28.5878166 39.5505872,28.5906762 C39.4804495,28.5992171 39.406258,28.7391073 39.612993,28.6564064 L39.612993,28.6564064 L39.6014934,28.654929 C39.5956788,28.6498724 39.5933756,28.638212 39.59343,28.6291868 L39.59343,28.6291868 L39.6019962,28.625841 L39.611,28.652 L39.6086459,28.6368207 L39.6086459,28.6368207 L39.603989,28.6250131 C39.6131897,28.6211511 39.6234028,28.6163288 39.632898,28.6100233 C39.7421266,28.6271873 39.9596109,28.6499352 40.3183756,28.6792943 L40.177,28.667 L41.2045066,33.4547197 L37.21423,34.9070616 L35.8060643,28.1104766 C36.086603,28.3818427 36.4978888,28.5783675 36.899702,28.625492 C37.7924866,28.7301972 38.638507,28.0973436 37.8996933,25.9090909 L37.902,25.919 L37.9183553,25.9807554 C38.0439894,26.6864406 36.1439434,26.3234681 37.587547,25.9743098 L37.728,25.942 L37.6810116,25.9513574 C36.4435782,26.2048587 35.8128672,26.588281 35.5726469,26.9866471 L34.8324563,23.409406 C35.0070118,23.4287955 35.158271,23.4412815 35.2679205,23.4440659 L35.3507482,23.4440305 C35.5662853,23.4365308 35.4778658,23.360873 34.7823969,23.1707512 L34.557668,22.0822272 L33.3391144,21.5331568 L38.6671715,19.5939026 L46.2835124,26.0946393 L44.410402,17.5035376 L44.7547123,17.3761445 C44.7476323,17.4848406 44.7458173,17.6018232 44.749199,17.7272727 C44.7863352,17.6576013 44.83086,17.5999265 44.8778593,17.5458597 L44.8778593,17.5458597 L44.9737011,17.4400509 C45.0272056,17.3811307 45.0797188,17.3197564 45.1244832,17.2443924 L46.773802,16.643491 C47.3932148,16.6122252 47.7288278,16.4421467 47.727145,16.2963619 L48.1930919,16.1267511 Z M24.6818014,32.4213544 C24.6679523,31.2625374 24.5503429,30.4144845 24.4184688,33.463425 L24.4184688,33.463425 L24.4140909,33.5624545 L24.4178874,33.5208013 C24.4204338,33.4885886 24.422159,33.4860032 24.4231,33.500119 L24.4231,33.500119 L24.4236077,33.5796444 L24.4214423,33.650033 C24.4188261,33.7065018 24.4142036,33.7495206 24.4077468,33.719247 L24.4077468,33.719247 L24.4270027,33.8053887 C24.6155733,34.60494 24.6850454,33.5697537 24.6831236,32.6114283 L24.6831236,32.6114283 Z M30.1242702,28.6975084 C30.118786,28.6255273 30.1083349,28.6130797 30.0930597,28.6817879 L30.0930597,28.6817879 L30.0550909,28.6634545 L30.0424253,28.6575254 L30.0270909,28.6494545 L30.01,28.641 L30.0404856,28.657481 L30.0404856,28.657481 L30.0926204,28.6837804 C30.0805882,28.7387931 30.0655994,28.8436841 30.047941,29.0070613 L30.047,29.004 L30.032712,28.8974206 C29.9593678,28.4025021 29.9277433,28.6920152 29.9247134,29.0978205 L29.9249953,29.2647611 L29.9249953,29.2647611 L29.9281407,29.4346038 C29.9341606,29.6587722 29.9473185,29.8653396 29.9656234,29.9529468 C29.937607,30.3269473 29.9061048,30.7923738 29.8712121,31.3636364 L29.871,31.36 L29.8729787,31.3569949 L29.8770909,31.3384545 L29.8840909,31.3114545 L29.8876524,31.298808 C29.9684524,30.9651774 30.0282535,30.4926969 30.0680915,30.03816 L30.0680915,30.03816 L30.0829645,29.8576739 C30.1105909,29.5001022 30.1255293,29.1673941 30.1283101,28.9398278 L30.1283101,28.9398278 L30.1281244,28.7901215 C30.1274395,28.7544652 30.1262254,28.7243186 30.1244104,28.7008 C30.1261303,28.7016805 30.1278618,28.7025667 30.1296047,28.7034584 L30.1296047,28.7034584 L30.221709,28.7504035 C30.3052272,28.7928402 30.4049739,28.843228 30.5158284,28.8990304 L30.5158284,28.8990304 L30.689801,28.986478 L30.689801,28.986478 L30.7262569,29.0047748 L30.8765946,29.0801452 C30.9277744,29.1057833 30.979912,29.1318818 31.0326799,29.1582786 L31.0326799,29.1582786 L31.2328733,29.258347 L31.2328733,29.258347 L31.2732829,29.2785286 L31.5958504,29.4394417 L31.7534656,29.517955 C32.1160867,29.6985052 32.4373227,29.85787 32.6047618,29.9403679 L32.6047618,29.9403679 L32.6667775,29.9708556 L32.6667775,29.9708556 L32.7149113,29.9941165 L32.7149113,29.9941165 C32.7158782,29.9938639 32.7096116,29.990637 32.7012703,29.9863761 L32.6255487,29.9480195 L32.5332767,29.9015791 C32.4899797,29.8798218 32.4388593,29.8541692 32.3793494,29.8243408 L32.1750845,29.7220475 L32.1750845,29.7220475 L32.0530136,29.6609793 L31.6862759,29.4776834 C31.5030502,29.3861553 31.292194,29.2808848 31.0510854,29.1605733 L31.0510854,29.1605733 L30.304,28.787 L30.305,28.788 L30.288073,28.7800544 L30.2540909,28.7624545 Z M38.2507529,28.5906357 C38.0305794,28.427949 37.9756087,28.7988518 38.1970076,28.7072853 C38.1891623,28.7213219 38.1812502,28.7372468 38.1725592,28.7547984 C38.1675846,28.75451 38.1626101,28.7542217 38.1576361,28.7539335 L38.1576361,28.7539335 L37.8968484,28.7388872 C37.3818455,28.709312 36.9236017,28.6838783 36.8339765,28.6812472 L36.835,28.681 L37.0734048,28.6960364 C37.4176834,28.7159857 37.7194976,28.7334341 37.9820672,28.7481607 L38.1716864,28.7586918 C38.0689843,28.9920359 37.9738645,29.5145612 38.1172755,29.9309209 L38.1172755,29.9309209 L38.138,29.986 L38.134,29.979 L38.143,29.999 L38.1840411,29.8071812 C38.2834685,29.3157522 38.3196118,29.0044648 38.3190651,28.8278718 L38.3171922,28.7678745 C39.1384606,28.8150973 39.4860354,28.8344886 39.5439426,28.8367291 C39.5124932,28.8338354 38.994989,28.8027768 38.4192208,28.7691516 L38.4192208,28.7691516 L38.3164485,28.7631586 C38.3132988,28.7062354 38.3041906,28.6702442 38.2915573,28.6516756 L38.2915573,28.6516756 L38.3078505,28.6416178 Z M22.1141077,28.5591809 C22.2954494,28.6138279 22.5352547,28.6803753 22.760377,28.7337873 L22.760377,28.7337873 L22.7507399,28.7368765 C22.4781965,28.8264151 22.2580774,28.967032 22.1002809,29.1224765 Z M32.808744,28.4764607 C32.8334741,28.399419 32.820798,28.413859 32.7917861,28.4673519 C32.6803767,28.396505 32.6200388,28.4270174 32.5951098,28.4946195 L32.5951098,28.4946195 L32.5894022,28.517622 C32.5120638,28.5155201 32.4759696,28.5484854 32.5635433,28.6458712 C32.3630094,28.758875 32.4525083,28.7588449 32.6019244,28.7188257 C32.6128797,28.7538262 32.6276826,28.7851723 32.6442241,28.8087244 C32.6291526,28.8499999 32.6268065,28.86563 32.6485001,28.8296523 L32.6485001,28.8296523 L32.6550662,28.8196829 C32.6967083,28.8637676 32.7508249,28.8594199 32.8064166,28.7469714 C32.9739409,28.7259023 32.9654591,28.6708506 32.8933139,28.6203529 C33.0402505,28.556608 33.0916637,28.5006193 32.75773,28.5456523 L32.75773,28.5456523 L32.8522637,28.5327561 C32.8564695,28.5245143 32.8633348,28.5210809 32.873377,28.5299341 L32.873377,28.5299341 Z M47.9051015,28.8338997 C50.4063202,28.9476541 48.250181,27.9234084 47.7581663,28.7641 L47.7581663,28.7641 L47.736,28.807 L47.7536843,28.7778389 C47.8985859,28.5761831 48.2163683,28.822328 47.816977,28.8268636 L47.7272727,28.824345 Z M30,5.45454545 C35.6858462,5.45454545 40.9201505,7.3878262 45.0814251,10.6328998 L45.0860208,10.6761813 L45.104,10.814 L45.102547,10.7923738 C45.0972785,10.7349279 45.0949674,10.6853387 45.095113,10.6428344 C45.1679455,10.7004625 45.2402066,10.7575519 45.3121374,10.8150374 C45.288022,10.8592848 45.2448457,10.8926027 45.1752454,10.9044222 L45.1752454,10.9044222 L45.1159608,10.9090909 C45.2199877,10.9090909 45.3163304,10.9025406 45.4054089,10.890082 C50.6124184,15.0926419 54.0668576,21.3807087 54.4994613,28.4849648 C53.8675921,28.5592564 53.4984495,28.6181432 53.3189549,28.6641961 C53.2981779,28.6589271 53.2783169,28.6540418 53.2594551,28.649532 L53.2594551,28.649532 L53.2544969,28.6244871 C53.2242438,28.5198047 53.1643925,28.5393028 53.1272629,28.5877885 L53.1387701,28.5755531 C53.110039,28.1015821 53.0670665,27.6314552 53.0102747,27.1655949 C53.1552217,26.7864496 53.2091547,26.3711277 53.1688526,25.9090909 L53.171,25.969 L53.19,25.969 L53.2103286,26.0105052 C53.2454714,26.0738768 53.2613646,26.0659843 53.2446091,26.0101851 L53.2305307,25.9711437 L53.2996075,25.9802487 C53.5931091,26.0164628 53.4266106,25.9494065 53.2276003,25.8930404 L53.2276003,25.8930404 L53.2231927,25.8797203 C53.2064184,25.8456151 53.1862245,25.8407601 53.1702421,25.8527223 C53.1537858,25.8249415 53.1345604,25.7949296 53.1123316,25.7630947 L53.121,25.776 L53.12,25.775 L53.116,25.769 L53.113,25.765 L53.1265265,25.8065815 L53.1265265,25.8065815 L53.1402281,25.8462228 L53.1492715,25.8674279 C53.1164495,25.8634054 53.0866,25.8561808 53.0588271,25.8499574 L52.9832411,25.8346918 C52.8616002,25.8136811 52.8482537,25.8350819 53.1933483,25.9655785 L53.117,25.936 C53.0178462,25.9833192 52.9298161,26.0326727 52.8496019,26.0833324 C52.732676,25.3800916 52.5813067,24.687507 52.3997726,24.0072379 C52.5814109,23.8167625 52.7791692,23.6084588 52.9928442,23.3821998 L52.9928442,23.3821998 L53.1079544,23.2590409 C53.104913,23.3099744 53.1280251,23.3339391 53.2009737,23.2693264 L53.2009737,23.2693264 L53.2340909,23.2354545 L53.2292694,23.2369435 L53.2425897,23.2264823 C53.2457891,23.2220918 53.2482986,23.2169797 53.2490274,23.2095355 C53.2500153,23.2088667 53.2509415,23.2083898 53.2559428,23.2139023 C53.2559428,22.9687022 53.1751382,23.0543899 53.1300817,23.1627374 C53.1123352,23.1789675 53.1085519,23.1946122 53.1139118,23.2074605 C52.9347811,23.290084 52.6558391,23.5170399 52.3447746,23.8064506 C49.6359768,14.0105789 40.6579256,6.81818182 30,6.81818182 C24.9386204,6.81818182 20.2560925,8.44023883 16.443891,11.1928781 C16.3760689,11.0847764 16.278992,10.9913319 16.1490039,10.9090909 L16.1490039,10.9090909 L16.1556073,11.0262964 C15.9185724,10.9716883 15.5100047,10.9101369 15.0900532,10.8562438 L15.0900532,10.8562438 L14.9159283,10.8344036 C14.8422624,10.8253715 14.7689263,10.816637 14.6967838,10.8082788 C14.8578653,10.6793015 15.0205267,10.5527344 15.1848045,10.428188 C16.54425,11.4487063 16.5619084,10.6578199 16.0661798,9.7919137 C19.2550948,7.58704063 22.9926785,6.11896554 27.0323205,5.63212453 C27.1716154,6.84014745 27.7588632,7.56618706 27.4574655,5.58680628 C28.2931918,5.49862506 29.1414483,5.45454545 30,5.45454545 Z M47.709,25.957 L47.71,25.97 L47.7365347,25.9823364 C47.7464471,25.985491 47.7572114,25.9875056 47.7688362,25.9880921 L47.8063011,25.9852797 L47.7718352,25.9277687 C47.9890968,25.9011021 48.1669955,25.8603928 47.7294279,25.869862 C47.6664129,25.797986 47.6392652,25.8352904 47.6508545,25.8863762 L47.6508545,25.8863762 L47.6146665,25.8935908 C47.3754561,25.9466883 47.4433659,25.955458 47.5836724,25.9460748 L47.5836724,25.9460748 L47.4945141,25.9725683 C41.5577712,27.8078422 48.1385568,30.9469147 47.7067179,25.9090909 L47.7170909,26.0634545 L47.717,26.062 L47.716,26.052 L47.7163229,26.0424514 L47.715,26.036 L47.715,26.034 L47.714,26.03 L47.715,26.031 L47.714,26.025 L47.714,26.022 L47.713,26.016 L47.714,26.017 L47.713,26.015 L47.713,26.012 L47.712,26.01 L47.7209803,26.1574506 C47.7392918,26.9857634 47.3503157,26.2262628 47.6000913,25.9730403 L47.6382091,25.9418447 C47.6501519,25.9408055 47.662355,25.9396772 47.6749531,25.9378477 L47.6749531,25.9378477 L47.6980934,25.9617707 C47.7016501,25.9646022 47.7054001,25.9672691 47.7093444,25.9697397 L47.709,25.969 L47.709,25.971 L47.71,25.972 L47.71,25.97 L47.7093444,25.9697397 L47.709,25.957 Z M39.4204619,21.8183204 C36.6642077,21.7900232 35.9431272,26.1077143 38.0055637,23.9333838 C38.0309086,24.075603 38.0733615,24.1965424 38.1386943,24.2988937 C38.1361776,24.3561002 38.1344043,24.4062819 38.1335921,24.44618 L38.1335921,24.44618 L38.1335876,24.520222 C38.1359062,24.578518 38.1465798,24.5419753 38.1692304,24.3449112 C38.226295,24.4224043 38.2980192,24.4887225 38.3870469,24.5454545 C38.3999939,24.1694029 38.3420995,23.9092802 38.2404378,23.6705603 C38.5687102,23.2851083 38.9560245,22.755012 39.4046589,22.0472681 L39.4046589,22.0472681 L39.437,21.993 L39.3593526,22.1131297 C38.1696884,23.9026997 38.5727333,21.8804788 39.4715156,21.8227982 L39.5454545,21.8225405 Z M47.6150793,19.2357593 C48.0356151,19.5563365 48.2610419,18.4820082 47.4587119,19.0579134 L47.4587119,19.0579134 L47.5191416,19.1407948 C47.5324087,19.1569909 47.5455568,19.1717461 47.5578931,19.1844099 C47.5555733,19.2213862 47.5740212,19.2361785 47.6033706,19.235794 L47.6033706,19.235794 Z M16.4223241,3.97878938 C16.4126224,3.7024912 16.3544927,3.89934589 16.3232945,4.09254056 C16.3036495,4.1103176 16.2929258,4.27136598 16.2899083,4.47690872 L16.2897005,4.72170644 C16.2961785,5.28426398 16.3479724,5.89340287 16.426097,5.00573322 L16.426097,5.00573322 L16.437,4.871 L16.4337084,4.90259744 C16.4224066,4.97702426 16.4166254,4.73897939 16.4265719,4.76640146 L16.4318274,4.79609181 L16.435,4.831 L16.4221617,4.68580947 C16.4060405,4.52079366 16.3915249,4.39521501 16.3782696,4.30462548 L16.3685591,4.2431743 C16.3837263,4.20282269 16.4019677,4.14835765 16.4237048,4.077119 L16.4237048,4.077119 Z M19.1452988,2.72727273 L19.1949761,2.76570473 C19.3871455,2.94134159 19.2866807,3.226568 19.1920681,3.28259605 L19.1920681,3.28259605 L19.1800909,3.28645455 C19.3007827,3.60878581 19.5763821,3.8441063 19.8414094,3.97239311 C19.6117337,3.94787705 19.3628628,3.96641654 19.0909091,3.97148984 C19.5699936,4.07290523 19.8877305,4.26495156 20.4545455,4.2131032 C20.3917638,4.16203525 20.3274019,4.12093079 20.2610753,4.09090475 C20.6190433,4.08937308 20.6011962,3.68242657 19.1452988,2.72727273 L19.1452988,2.72727273 Z M32.7272727,1.57566228 C32.0340487,1.11753017 31.0163907,1.1388917 30,1.15838668 C30.6292244,1.42260592 31.3851808,1.59370551 32.7272727,1.57566228 Z M39.5213313,51.9263869 L39.518,51.926 L39.5120304,51.9355923 L39.515,51.933 L39.5293734,51.9245312 C39.5373941,51.9215288 39.5428499,51.9187547 39.5440555,51.9119244 L39.5440555,51.9119244 C39.5913196,51.9147109 39.6350726,51.8811101 39.6122776,51.830783 C39.6704589,51.7489648 39.599644,51.6865672 39.5351483,51.7014233 C39.5335141,51.7019291 39.5319045,51.7027347 39.530576,51.7040058 C39.5229448,51.7064384 39.5154659,51.710027 39.5078195,51.7178913 C39.5342402,51.6112964 39.567653,51.4145204 39.6091914,51.1030419 C39.8641472,50.9863736 40.1158727,50.8659733 40.3650374,50.7412154 C40.6959847,51.0012133 41.1426287,51.2797146 41.7271593,51.5663137 C38.243916,53.4663354 34.2479789,54.5454545 30,54.5454545 C27.153968,54.5454545 24.4210685,54.0610767 21.8792426,53.1702621 L21.8783229,53.1318616 L21.8783229,53.1318616 L21.8696453,52.9047716 L21.8650909,52.8144545 L21.8651548,52.8726157 C21.860274,52.8798923 21.8360053,52.4793062 21.8540909,52.6134545 L21.8540909,52.6134545 L21.8424973,52.5051876 C21.6814694,51.1117711 21.7126479,52.1043967 21.7764128,53.1336549 C12.2646552,49.752376 5.45454545,40.6714812 5.45454545,30 C5.45454545,22.2707366 9.02711686,15.375892 14.6110486,10.8766773 C15.0289302,10.9343295 15.6016689,11.008743 16.3636364,11.1035792 L16.3636364,11.1035792 L16.1568561,11.0787009 C16.1619806,11.1874089 16.1674899,11.2911125 16.1759586,11.3898643 C15.3567997,11.9988214 14.5804128,12.6600666 13.8505343,13.3689394 C13.6157823,13.352459 13.5853412,13.3919683 13.7042767,13.4562066 L13.7422551,13.4751962 L13.7422551,13.4751962 C13.2054152,14.0029893 12.6941527,14.5571998 12.210548,15.1353396 L12.1865986,15.0236417 L12.1865986,15.0236417 L12.186,15.022 L12.185,15.02 L12.185,15.017 L12.184,15.014 L12.184,15.012 L12.183,15.01 L12.183,15.007 L12.182,15.006 L12.182,15.004 L12.181,15.001 L12.1786572,15.1735472 C11.8997591,15.5084149 11.6301211,15.8512665 11.3701366,16.2017088 C11.0255694,16.2758502 10.5691416,16.3852106 9.98521909,16.5390647 L9.98521909,16.5390647 L9.793,16.589 L9.81,16.584 L9.789,16.59 L9.75047525,16.6011262 L9.72909091,16.6064545 L9.62209091,16.6354545 L9.60309091,16.6404545 L9.599,16.641 L9.6,16.641 L9.589,16.644 L9.597,16.642 C9.58208567,16.6469017 9.57385077,16.6491403 9.56632577,16.6511859 L9.54545455,16.6568596 C10.1479824,16.6275386 10.7282665,16.5394601 11.1973705,16.4402841 C9.9500324,18.1643694 8.93568301,20.0670371 8.19823688,22.102375 C6.30734735,21.0235816 6.63476772,23.3046954 7.54916009,24.2028571 C7.40139318,24.775866 7.27504455,25.3583251 7.17102097,25.9484827 C6.71414193,26.0764083 6.74533726,26.5040747 7.01282641,26.9817036 C6.88442804,27.9697516 6.81818182,28.9771395 6.81818182,30 C6.81818182,33.3458933 7.52702876,36.5262266 8.80274147,39.3990186 C8.58900001,39.3805896 8.37418215,39.3957137 8.18181818,39.5365615 C8.46177257,39.6253158 8.71306745,39.6982304 8.9387465,39.6988884 C11.4770366,45.2031394 16.1111898,49.5435068 21.8182715,51.6967058 C21.8182122,51.7200767 21.8394336,51.7467251 21.885111,51.7763073 C21.7677727,51.7984438 21.7875673,51.829487 22.0843812,51.8680452 C22.2677587,51.9358698 22.5544253,52.0150517 22.970246,52.1066046 L22.970246,52.1066046 L22.9933467,52.1041151 C25.2038894,52.8041806 27.5578437,53.1818182 30,53.1818182 C32.6774572,53.1818182 35.2488972,52.7279044 37.641565,51.8928317 C37.7537862,51.9001072 37.8722892,51.9068524 37.9927672,51.9128987 C38.0125095,51.9230607 38.0348561,51.931323 38.0594865,51.9377899 C38.0676164,51.9611839 38.0907252,51.9684813 38.1351825,51.9447909 C38.1713977,51.9444654 38.2106778,51.9385834 38.2525371,51.924612 C38.773479,51.9459416 39.2806212,51.952604 39.4687597,51.9336686 L39.4687597,51.9336686 L39.497,51.921 L39.4739824,51.9332834 L39.4739824,51.9332834 L39.4941137,51.9306951 L39.4941137,51.9306951 L39.5113805,51.9279632 L39.513,51.926 C39.5139626,51.9274823 39.5155974,51.9271606 39.5171238,51.9269024 L39.518,51.926 L39.522,51.92 L39.5524427,51.9027833 L39.518,51.93 L39.5213313,51.9263869 Z M16.2408935,28.2778769 C16.1364398,28.3165496 16.0498372,28.3389756 15.978897,28.3485796 L16.358,28.21 L18.5853321,27.3993882 L20.5368601,31.6011269 C20.1710106,31.7874837 19.7351515,32.0956993 19.2402631,32.5675263 L19.2402631,32.5675263 L19.1100909,32.6934545 L19.096,32.707 L19.1752062,32.6336729 C19.8901861,31.998306 20.1886448,32.7264442 19.2095948,32.7175693 L19.0909091,32.713155 L19.2810797,32.7227309 C20.0013373,32.7492993 20.5547773,32.6568643 20.9582018,32.5093159 L21.9679402,34.6835766 L22.0798835,29.9805433 C22.4520039,30.0745199 23.2379795,29.8459727 24.5454545,28.9006642 L24.542,28.902 L24.465699,28.9525647 C23.8601889,29.304003 23.3786492,28.631861 23.9811785,28.716455 L24.0701512,28.7328482 L24.1530909,28.7534545 L24.1278488,28.7459157 C23.6230596,28.5979576 23.1813468,28.6124284 22.8225411,28.7153903 C22.7292137,28.6891055 22.6434596,28.66515 22.5648519,28.6433776 L22.5648519,28.6433776 L22.3337024,28.580039 C22.249651,28.5572999 22.177271,28.5380965 22.1155774,28.5220917 L22.1553355,26.8003317 C22.7943203,27.0836443 23.5868235,26.8622401 24.5454545,27.2727273 L24.325,27.189 L24.3216676,27.2439356 L24.3216676,27.2439356 L24.3180437,27.2987073 L24.305923,27.5146541 C24.2528243,28.6204448 24.3507647,29.5069681 24.7578614,27.1388537 L24.7578614,27.1388537 L24.784,26.976 L24.781841,26.9901001 C24.7182176,27.3052448 24.7426927,26.6875442 24.7797179,26.7883094 L24.789192,26.8294243 L24.791,26.84 L24.7792614,26.7280379 C24.6151769,25.3281717 24.442595,25.9614845 24.3535714,26.8585902 L24.3443571,26.9556374 C23.5524026,25.7347197 23.2355288,25.6509946 22.1687042,26.348605 L22.1747693,25.9758457 C22.2288362,25.9816442 22.2898335,25.9875592 22.3582767,25.9935814 L22.3582767,25.9935814 L22.5337773,25.975215 C23.4599084,25.8744683 23.2420011,25.8299938 22.8129516,25.8250652 L22.8129516,25.8250652 L22.6542743,25.8249405 C22.4949567,25.8263581 22.3237791,25.8321715 22.1780642,25.8417113 L22.1854511,25.5927582 L25.9450759,24.2243667 L25.3916765,39.2101192 L23.1785095,40.0158121 C23.0971092,39.4379394 21.5437895,39.1867215 21.8607846,40.4947425 L21.4013999,40.6624611 L18.1680367,34.5777469 L17.8493618,41.9552972 L13.8590852,43.4076391 L7.72163117,31.353452 L7.12388694,31.0747192 L10.272,29.928 L10.4010225,30 L10.3846332,29.9862492 C10.3360431,29.9062103 11.0050034,29.7957349 10.5938942,29.9385969 L10.5938942,29.9385969 L10.5190909,29.9634545 L10.6399367,29.9265416 C10.9289921,29.8351745 11.1734287,29.7482491 11.3779902,29.6659036 L14.8869292,37.2608538 L14.9949822,31.0216871 C17.1282677,30.0496255 16.3815345,28.9840535 15.3486922,28.706283 C15.7141927,28.6741305 16.0438662,28.6362252 16.2227565,28.6011387 L16.2227565,28.6011387 L16.2321115,28.6176362 C16.0486209,28.6367683 16.125944,28.6528698 16.2567357,28.6615288 C16.2170563,28.8730399 16.2335527,29.0658265 16.386048,28.7676784 C16.4584207,28.8212703 16.4953397,28.8098266 16.5070971,28.7695253 L16.5070971,28.7695253 L16.5431755,28.7755152 C16.70984,28.7965685 17.0015394,28.8128487 17.4551095,28.8215592 L17.4551095,28.8215592 L17.4157742,28.8196932 C17.3003161,28.8081251 17.8600343,28.7550583 17.5442341,28.8075139 L17.5442341,28.8075139 L17.481,28.817 L17.6900024,28.7855262 C19.2287358,28.5458872 19.3022913,28.4582304 18.8455777,28.4515823 L18.7208931,28.4515669 C18.5189183,28.4539521 18.2533305,28.4668974 17.9734313,28.4866602 L17.9734313,28.4866602 L17.7537053,28.5033407 C17.4841201,28.5252166 17.213157,28.5523608 16.98352,28.5818601 C16.8028605,28.5731923 16.6280487,28.568479 16.5103831,28.5703586 L16.5103831,28.5703586 L16.4700909,28.5714545 L16.48,28.546 L16.4719255,28.5644014 C16.4554257,28.590452 16.4623314,28.5366409 16.4728898,28.5172028 L16.4811847,28.510854 L16.486,28.521 L16.4699663,28.4539463 C16.4236328,28.3051118 16.3684734,28.3376473 16.3233277,28.4333089 L16.3046475,28.4778268 C16.2894527,28.4855954 16.2741798,28.4986617 16.2603933,28.5201149 C16.1533534,28.5063757 15.9579166,28.4962871 15.6470994,28.4922523 C15.8648915,28.4281765 16.1032858,28.3412144 16.3636364,28.2283829 L16.3636364,28.2283829 Z M57.1713652,26.610011 C57.4434662,26.8930548 57.3923908,26.5884423 57.1080785,26.5400564 L57.1080785,26.5400564 L57.2636084,26.5646377 C59.3938367,26.873594 58.3186594,25.5201439 56.9845615,26.0218397 C56.4203085,22.1597536 55.046265,18.5600577 53.040405,15.4009883 C53.1114511,15.1409941 53.1676978,14.8897458 53.1792514,14.6624911 L53.179,14.664 L53.1911926,14.7287383 C53.2507591,15.0479786 53.306692,15.1758935 53.2895809,14.599644 L53.2851642,14.4748533 L53.278,14.34 L53.2798998,14.3693641 C53.2829327,14.512083 53.2504562,14.2513204 53.2613015,14.2516295 L53.2675532,14.2652811 L53.2710909,14.2794545 L53.2397052,14.1389807 C53.0504277,13.3256198 53.0479168,13.6391586 53.0997401,14.1011233 L53.0997401,14.1011233 L53.1079562,14.1709631 C52.9657973,13.8426567 52.5970246,13.633591 51.8213401,13.6363914 C50.8805173,12.3853971 49.8360357,11.2181008 48.6996228,10.1472949 C49.1814656,8.86141633 49.4029348,6.6761371 48.2496063,9.73337415 C45.6940112,7.42990099 42.7001685,5.60344925 39.4084419,4.3936068 L39.4471588,4.31810243 L39.4471588,4.31810243 L39.4985787,4.20683272 L39.4535068,4.29969671 C39.4359957,4.33344024 39.4184402,4.36413453 39.4009446,4.39196981 C39.2911193,4.35052148 39.1804412,4.31069298 39.0694339,4.27156257 C39.1421031,4.19812375 39.2628696,4.13341269 39.4451548,4.10330505 L39.4451548,4.10330505 L39.517,4.095 L39.518,4.093 C39.2514806,4.1164134 39.0084359,4.14383842 38.7871655,4.174779 C38.628644,4.11988037 38.4679857,4.0668959 38.3066749,4.0153719 C38.2906248,3.96781651 38.2220026,3.95589547 38.1603237,3.96965624 C35.5894264,3.16392427 32.854375,2.72911393 30.0180333,2.72727856 C30.0056137,2.45378886 29.9881872,2.13592666 29.9662143,1.77431122 L29.9662143,1.77431122 L29.9570909,1.62845455 L29.9568951,1.61877157 L29.9560909,1.61445455 L29.9540909,1.58945455 L29.9549295,1.5882085 L29.9530909,1.57245455 L29.9520909,1.55845455 L29.9520909,1.55745455 L29.9516535,1.53727004 L29.9500909,1.52245455 L29.9480909,1.49145455 L29.9460909,1.46245455 L29.9450909,1.44845455 L29.9430909,1.41545455 L29.9410909,1.38745455 L29.94,1.37 L29.9431981,1.55770056 C29.9499346,2.00557621 29.959187,2.39662536 29.9695516,2.7287103 L30,2.72727273 C25.6461993,2.72727273 21.5306785,3.74747036 17.8794529,5.56185026 C18.4543296,5.00620234 18.9949496,4.40805205 19.088802,4.09788714 L19.088802,4.09788714 C18.208654,4.91113776 17.5800396,5.51274144 17.1504208,5.93890188 C14.3314068,7.44657998 11.8088,9.43568579 9.69166788,11.7959622 C9.67866321,11.7571003 9.66671356,11.7226629 9.65531196,11.6921648 C9.66342074,11.5140071 9.67078058,11.3229126 9.6771707,11.1185997 L9.6771707,11.1185997 L9.68009091,11.0084545 L9.68109091,10.9854545 L9.68109091,10.9584545 L9.68209091,10.9584545 L9.68305871,10.9162755 L9.65350807,11.0884358 C9.63014538,11.2319628 9.60874258,11.3700152 9.58860585,11.501247 C9.57003024,11.4494306 9.55260685,11.40152 9.53646682,11.3581028 C9.55811704,11.2215694 9.5401473,11.109466 9.48883416,11.030288 C9.49813996,11.0143094 9.50697737,10.9990387 9.51536342,10.9844534 L9.51536342,10.9844534 L9.52811342,10.9746919 L9.599,10.915 L9.5887021,10.9235424 C9.5735595,10.9318727 9.62177004,10.8809806 9.62313821,10.8871909 L9.618,10.896 L9.65802811,10.836877 C9.70561362,10.7596001 9.69716672,10.748331 9.66339906,10.7704905 L9.64034566,10.7875371 L9.61071511,10.8117895 C9.71310723,10.6135881 9.60142487,10.7506279 9.51359533,10.9075863 C9.50770134,10.9073011 9.50363249,10.9071017 9.50149943,10.9069946 L9.51281562,10.9075093 L9.49161039,10.9316975 C9.4747628,10.9500884 9.45903158,10.9680067 9.44716324,10.9835196 C9.42141125,10.9598172 9.39085437,10.9414071 9.35486743,10.9272596 C9.33952741,10.9045412 9.33112257,10.9039716 9.32879434,10.9205252 C8.92165756,10.8151702 7.98677094,11.4210871 6.92109312,13.4379596 L6.92109312,13.4379596 L6.85409091,13.5654545 L6.84009091,13.5924545 L6.82809091,13.6154545 L6.82096939,13.6308905 C8.44502355,13.0040263 9.24107846,12.1636462 9.47150298,11.5842948 C9.49477305,11.6668348 9.51931877,11.749504 9.54322705,11.8277007 C9.53590158,11.8821242 9.52891778,11.935416 9.52226522,11.9875627 C5.29254416,16.791397 2.72727273,23.0961229 2.72727273,30 C2.72727273,32.973699 3.20320069,35.836239 4.08304155,38.5156051 L4.08314332,38.5263755 L4.08314332,38.5263755 L4.08141168,38.6805364 C4.02824719,38.9064424 3.97529357,39.1843507 3.9454796,39.4602486 L3.9454796,39.4602486 L3.94109091,39.4944545 L3.93924503,39.5208115 C3.93856568,39.5283413 3.93800985,39.5345021 3.9370217,39.5454545 L3.937,39.544 L3.98968008,39.3459374 C4.00625832,39.2825149 4.02186991,39.222174 4.03653855,39.1649107 L4.07773936,39.0023493 C4.07612882,39.1672776 4.07522355,39.2907371 4.07488833,39.3779176 L4.07488833,39.3779176 L4.07495104,39.4479439 C4.07248072,39.4581863 4.07019368,39.4692944 4.06811926,39.4813174 C3.97077703,39.5530448 3.89137634,39.6907598 4.06213154,39.6377688 C4.06441856,39.6635649 4.06845453,39.6900008 4.07467541,39.71645 L4.074,39.715 L4.08498522,39.6689788 L4.08498522,39.6689788 L4.09179943,39.6279108 C4.12551644,39.615342 4.16682753,39.5968674 4.21687447,39.5712259 L4.21687447,39.5712259 L4.19767909,39.5752356 C4.18356621,39.568398 4.21028742,39.5217161 4.21676567,39.5418915 L4.21676567,39.5418915 L4.216,39.555 L4.21913509,39.513026 C4.21677603,39.4806808 4.20712912,39.460754 4.19286082,39.4503006 L4.16832562,39.4413572 L4.14627401,39.4433915 L4.13885817,39.4444149 L4.12083733,39.4501592 C4.12809671,39.3485233 4.1017643,39.3588859 4.08113621,39.4256605 C4.08390878,39.3212889 4.08729453,39.1544767 4.09132384,38.9469458 C4.11364958,38.8565867 4.13316837,38.7753017 4.15011301,38.7025429 C7.78170107,49.5009345 17.9832508,57.2727273 30,57.2727273 C45.0623114,57.2727273 57.2727273,45.0623114 57.2727273,30 C57.2727273,29.5535221 57.2619986,29.10955 57.2407849,28.6683275 C57.7270032,28.7001724 58.0724511,28.7143847 58.2981782,28.7169921 L58.2981782,28.7169921 L58.4292572,28.7170979 C58.9241354,28.7108702 58.489313,28.6211778 57.5808864,28.5760852 C58.0550336,27.9058758 58.367443,27.6494494 58.5221219,27.5594814 L58.5221219,27.5594814 L58.5570909,27.5404545 L58.5420104,27.5416422 C58.3625804,27.546728 57.9282327,27.4409866 57.2475063,26.6974284 L57.2475063,26.6974284 Z" id="Combined-Shape"></path>
            </g>
        </g>
    </g>
</svg>