<?xml version="1.0" encoding="UTF-8"?>
<svg width="60px" height="60px" viewBox="0 0 60 60" version="1.1" xmlns="http://www.w3.org/2000/svg" xmlns:xlink="http://www.w3.org/1999/xlink">
    <title>89CEBD0B-72E5-40A9-BDA3-A89BFF21BCAF</title>
    <g id="Page-1" stroke="none" stroke-width="1" fill="none" fill-rule="evenodd" opacity="0.150319417">
        <g id="UiKit_Icons" transform="translate(-900.000000, -3030.000000)" fill="#999999">
            <g id="Icon_stamp_lose2_tc" transform="translate(900.000000, 3030.000000)">
                <path d="M51.531,11.669 L51.536,11.667 C51.5294323,11.6708976 51.5279625,11.6715901 51.5269604,11.6720622 L51.7033606,11.6720568 C52.2314513,11.6675461 52.5526424,11.6426489 52.7217107,11.6125053 C52.5890845,11.7918456 52.6800236,11.9092647 52.8335809,11.7742048 C52.8569495,11.8545408 52.8883472,11.8845329 52.9197929,11.786657 C52.9489056,11.8586277 52.9683556,11.8705095 52.9536916,11.7350487 C53.0326347,11.8408732 53.1712876,11.9932329 53.3451145,12.1709411 L53.3451145,12.1709411 L53.516749,12.3434467 C53.6169509,12.4426608 53.7245519,12.5469143 53.836136,12.6532575 L53.836136,12.6532575 L53.9717302,12.7816835 L54.1098364,12.9109828 C54.2256072,13.0187815 54.3426282,13.12631 54.4574835,13.2306185 L54.4574835,13.2306185 L54.5940517,13.3540544 C54.6827094,13.4338006 54.7691763,13.510818 54.8517841,13.5836657 C57.8939814,18.2580275 59.6610169,23.8379114 59.6610169,29.8305085 C59.6610169,32.1174287 59.4036711,34.3442426 58.9163586,36.4835709 C58.3626074,36.6984238 58.0499596,37.1654064 58.5724442,37.8383524 C55.0745212,50.4247581 43.5311368,59.6610169 29.8305085,59.6610169 C18.9358872,59.6610169 9.40535435,53.8206598 4.19899774,45.1000331 C4.21928077,44.366612 4.22820591,43.8468386 4.22960155,43.4944707 L4.22960155,43.4944707 L4.22945231,43.2835948 C4.223887,42.4108681 4.15261756,43.0642759 4.11895631,43.8612743 L4.11895631,43.8612743 L4.11235647,44.0337537 L4.1071338,44.2076056 C4.10639067,44.2365274 4.10571433,44.2653804 4.1051095,44.2941016 L4.1051095,44.2941016 L4.10237615,44.4643442 C4.10207615,44.4922865 4.10185706,44.5199711 4.10172359,44.547335 L4.10198785,44.7071664 C4.10273092,44.7914083 4.10448489,44.870899 4.10741303,44.9434534 C1.49691399,40.5120371 0,35.3460843 0,29.8305085 C0,24.276754 1.51770892,19.0774794 4.16099845,14.624813 C3.97016293,15.6075908 3.89168426,16.3181802 3.88462557,16.624804 L3.88469611,16.7072774 C3.89580599,17.0409772 4.05978204,16.4228049 4.23380439,14.3957331 L4.22222918,14.5221383 C9.43367342,5.82301784 18.9520716,0 29.8305085,0 C36.40414,0 42.4811461,2.12630639 47.4112709,5.72866337 C47.387625,5.87576282 47.3641393,6.03748381 47.3427408,6.20267887 L47.3427408,6.20267887 L47.3146454,6.43193631 C47.1953164,7.46403124 47.1794783,8.43789678 47.5763791,6.75662344 L47.5763791,6.75662344 L47.649,6.431 L47.6364477,6.47417272 C47.5872887,6.61101536 47.6544245,6.02022499 47.669235,6.18564719 L47.6717499,6.24361588 L47.671,6.292 L47.6741355,6.12257423 C47.6747361,6.04951793 47.6749758,5.98077305 47.6748733,5.91617361 C50.3419964,7.91742387 52.6645407,10.3475069 54.5366018,13.1079138 C54.1768724,12.7639871 53.7100934,12.3221768 53.1177507,11.7676011 L53.1177507,11.7676011 L52.968,11.627 L53.0180852,11.6715818 C53.8739193,12.425208 53.7515584,11.6979348 53.0071113,11.5878927 L52.999,11.586 C52.9992917,11.5755651 53.0039149,11.5667114 53.0065836,11.5584133 L53.0090149,11.5352002 L53.043019,11.4674714 L53.043019,11.4674714 L53.0638039,11.4222667 L53.093,11.349 L53.093,11.352 L53.0941914,11.3507101 L53.1050676,11.3225694 C53.0436563,11.3527095 52.9895931,11.3836498 52.9422724,11.4146706 L52.9422724,11.4146706 L52.929616,11.4235488 C52.8743582,11.3075943 52.8389903,11.2885642 52.818944,11.3211779 C52.804658,11.3060761 52.8013738,11.3232205 52.8053858,11.3585845 C52.8003887,11.3813622 52.7975199,11.4103698 52.79648,11.4428597 L52.79648,11.4428597 L52.7956567,11.486979 C52.7864973,11.4913259 52.7784191,11.4965622 52.7743446,11.5029911 C52.5490947,11.4616175 52.0122783,11.4704481 51.5931848,11.6429387 L51.5931848,11.6429387 L51.5468028,11.6627141 L51.544,11.663 L51.537,11.666 L51.531,11.669 Z M9.626,11.627 L9.627,11.624 L9.627,11.593 L9.628,11.593 L9.628,11.579 L9.59479651,11.773569 C9.59450994,11.7752661 9.59422366,11.7769623 9.59393766,11.7786576 C9.55888184,11.8166143 9.52470186,11.8551235 9.49063008,11.8937304 C9.48995374,11.8130011 9.47070713,11.7454486 9.43599222,11.6921852 C9.44534626,11.6767364 9.45422218,11.6619825 9.46263761,11.647901 L9.46263761,11.647901 L9.47428227,11.6402964 L9.54,11.587 C9.51947159,11.5993568 9.56740976,11.5506986 9.56877019,11.5566362 L9.562,11.568 L9.60346298,11.5085308 C9.65077965,11.4346459 9.64238047,11.4238714 9.60880358,11.4450583 L9.58588043,11.4613566 L9.556,11.484 L9.5804278,11.4378047 C9.63024664,11.3342809 9.55887047,11.416562 9.48586295,11.5316734 L9.458,11.576 L9.4590709,11.5760628 L9.43798548,11.5991892 C9.42132826,11.616673 9.40576851,11.63371 9.39323399,11.6482465 C9.36796784,11.6260178 9.3380772,11.6086925 9.30272138,11.59596 C9.28721796,11.573533 9.27866337,11.572457 9.27590627,11.5884619 C8.87114576,11.4879944 7.94228315,12.0668927 6.88335005,13.9929688 L6.88335005,13.9929688 L6.79120339,14.162919 L6.78220339,14.178919 C7.34213433,13.9749178 7.80473112,13.74065 8.17855856,13.5011565 C4.74630586,18.0440342 2.71186441,23.6996867 2.71186441,29.8305085 C2.71186441,32.7606564 3.17657965,35.5822643 4.03632788,38.2256499 C3.99143492,38.4192949 3.94901084,38.6463336 3.92220339,38.874919 L3.92220339,38.874919 L3.92214788,38.8784373 L3.92020339,38.898919 L3.91920339,38.907919 L3.91698941,38.9334138 L3.91520339,38.943919 L3.915,38.951 L3.96741345,38.7651336 C3.98396117,38.7041811 3.9995114,38.6462277 4.01406336,38.5912859 L4.054,38.436 L4.05372522,38.5381906 C4.05313148,38.6025405 4.05267931,38.658761 4.05235568,38.7073329 L4.05196502,38.7745144 L4.05191461,38.863801 C4.04950711,38.8734049 4.04727494,38.8838041 4.04600468,38.8950396 C3.94865469,38.9635578 3.86861526,39.0964985 4.03910396,39.0443876 C4.04136381,39.0693205 4.04539785,39.0948863 4.05165464,39.120465 L4.051,39.119 L4.06195981,39.0748429 L4.06195981,39.0748429 L4.06868192,39.0358121 C4.10220844,39.0237951 4.14328613,39.0061314 4.19305032,38.9816154 L4.19305032,38.9816154 L4.17396339,38.9854491 C4.15993025,38.9789116 4.18650049,38.9342788 4.19294214,38.9535686 L4.19294214,38.9535686 L4.192,38.966 L4.19529817,38.9259701 C4.19295244,38.8950447 4.18336003,38.8759926 4.16917234,38.8659979 L4.14477576,38.8574471 L4.12284873,38.8593921 L4.11547479,38.8603706 L4.09758658,38.8654459 C4.10465062,38.7693764 4.07891654,38.7785545 4.05812293,38.8408441 L4.058,38.839 L4.06030119,38.7551521 C4.06183306,38.691065 4.06352896,38.6134746 4.06541667,38.5248693 L4.06839556,38.3840114 C4.07153929,38.3717754 4.07462697,38.3597136 4.07765928,38.3478245 C7.64869271,49.1532569 17.8291861,56.9491525 29.8305085,56.9491525 C44.807722,56.9491525 56.9491525,44.807722 56.9491525,29.8305085 C56.9491525,29.403742 56.9392946,28.979278 56.9197939,28.5573318 C58.8747771,28.6797443 58.5471281,28.5294937 57.2551883,28.4696146 C57.7396458,27.8110711 58.0543572,27.5701605 58.2036432,27.4904687 L58.2036432,27.4904687 L58.224,27.479 L58.1884293,27.4800957 C58.0115498,27.4760849 57.6343994,27.3721552 57.0629529,26.8137321 L56.9276343,26.6766359 L56.849,26.59 L56.901455,26.6390036 C57.0944088,26.8056926 57.0559616,26.6019267 56.8424315,26.5358045 L56.785434,26.5224355 L56.9428488,26.5463226 C59.046515,26.8387012 57.9994652,25.5607034 56.6829736,26.0197354 C56.144598,22.1873681 54.8044872,18.6118592 52.8380095,15.4683099 L52.8571367,15.3677394 L52.8571367,15.3677394 L52.878,15.167 L52.890586,15.2290918 C52.9497349,15.5340706 53.0053166,15.6568964 52.9886082,15.1093416 L52.9842823,14.9907476 L52.977,14.851 L52.978965,14.8900294 C52.9815073,15.0321072 52.9419503,14.7114642 52.9659242,14.7843229 L52.972,14.808 L52.9379888,14.6618637 C52.751054,13.8904814 52.7483056,14.1874063 52.7996581,14.626525 L52.808197,14.6969062 C52.7001158,14.4562649 52.4598026,14.2825269 52.0065997,14.215535 C51.0027856,12.7946123 49.8669276,11.4739886 48.6160325,10.272216 C48.9109911,9.21466674 48.9506545,8.15724331 48.2075947,9.88917107 C43.3771605,5.43358714 36.9216807,2.71186441 29.8305085,2.71186441 L29.788,2.711 L29.7876471,2.69504452 C29.7869673,2.68488051 29.7864385,2.67697517 29.7852034,2.66491898 L29.7852034,2.66491898 L29.7842034,2.65491898 L29.7832034,2.63991898 L29.7838231,2.63787195 L29.7822034,2.61691898 L29.7815287,2.60356841 L29.7815287,2.60356841 L29.779121,2.56757086 L29.7772034,2.54591898 L29.77677,2.53242032 C29.7752593,2.50983362 29.7738996,2.4895056 29.7729177,2.47482424 L29.7729177,2.47482424 L29.771,2.457 L29.7740824,2.64015815 C29.7744637,2.66446474 29.774853,2.68859602 29.7752501,2.71255162 L29.8305085,2.71186441 C26.3898992,2.71186441 23.0989417,3.35259952 20.0704489,4.52125662 C19.8693054,4.32529949 19.5392197,4.07161805 19.0371333,3.75488918 L19.0371333,3.75488918 L19.0865299,3.79163425 C19.2776137,3.95956171 19.1777164,4.23226841 19.0836384,4.28583716 L19.0836384,4.28583716 L19.0712034,4.28991898 L19.0763725,4.30298749 C19.1529793,4.49262594 19.2899448,4.65113325 19.4464725,4.77283058 C19.3117798,4.82690137 19.1768415,4.88417107 19.0424679,4.94249713 L18.9830508,4.94449268 C18.9955871,4.94704436 19.0080123,4.94965605 19.0203337,4.95232192 C18.0754814,5.3632813 17.1593897,5.82624403 16.2748687,6.33772644 C16.2920569,6.29446481 16.311381,6.1710786 16.3326849,5.93997249 L16.3326849,5.93997249 L16.342,5.822 L16.3404372,5.83729774 C16.3280368,5.90843703 16.3226521,5.61527632 16.3384456,5.72886844 L16.34,5.742 L16.3285872,5.6196621 C16.2401768,4.75352132 16.2006145,5.03895952 16.1972241,5.48508111 L16.197767,5.66975074 C16.2017104,5.97800167 16.2204007,6.29846869 16.2502925,6.35401264 C13.7644812,7.79279529 11.5281357,9.61759747 9.62282024,11.7450415 L9.62589673,11.6729809 L9.62589673,11.6729809 L9.625,11.669 L9.62618514,11.6625816 L9.626,11.632 L9.627,11.626 L9.626,11.627 Z M40.8135183,50.1004427 C41.1510661,50.2923103 41.5549294,50.4903564 42.0338983,50.6910039 L41.9772656,50.6676023 C41.8685062,50.7886371 42.2788142,50.7863238 42.0248749,50.6287787 L42.0248749,50.6287787 L42.0331228,50.6391639 C42.0321823,50.6415284 42.0284766,50.6427769 42.0247788,50.6428526 L42.0247788,50.6428526 L42.0222034,50.630919 L42.0041443,50.5284039 C41.9928809,50.4716554 41.9808986,50.4160381 41.9689716,50.362432 C42.0181076,50.4628117 42.0594211,50.5373007 42.092626,50.587959 C42.006333,50.5946199 42.0053844,50.6186487 42.1573598,50.669991 C42.1807061,50.6913882 42.1984667,50.6957404 42.2095471,50.6855508 C42.264258,50.7021077 42.333029,50.7210442 42.4176058,50.7425857 C38.7439531,52.9615628 34.4362116,54.2372881 29.8305085,54.2372881 C27.0113265,54.2372881 24.3037832,53.7593062 21.7844979,52.8799615 C21.7797726,52.6333209 21.7676086,52.2608582 21.7462292,51.7333819 L21.7462292,51.7333819 L21.739,51.583 L21.7418362,51.6449992 C21.7472409,51.8567134 21.7144737,51.3770945 21.7267334,51.4256521 L21.7303997,51.4467887 L21.7260586,51.4163245 C24.2472624,52.3633641 26.9783937,52.8813559 29.8305085,52.8813559 C33.7770042,52.8813559 37.4918591,51.8895832 40.7394321,50.1416785 Z M9.572,17.051 L9.575,17.05 L9.54820339,17.057919 L9.56832677,17.0529764 L9.53720339,17.060919 L9.52920339,17.062919 L9.522,17.064 L9.51298462,17.0674422 C9.50959633,17.0683278 9.50656098,17.0691212 9.50320798,17.0699977 L9.49152542,17.0730513 C9.92268313,17.0528767 10.3423861,17.0036078 10.7177165,16.9422285 C9.61735233,18.5692497 8.72029845,20.3443578 8.06165263,22.2312923 C6.31289011,21.3349951 6.60160441,23.3716728 7.46126964,24.2435311 C7.32063546,24.8087985 7.20067338,25.3828403 7.10248185,25.9642805 C6.6841081,26.0941363 6.71178615,26.4852988 6.96140646,26.924198 C6.84136612,27.8761455 6.77966102,28.846121 6.77966102,29.8305085 C6.77966102,33.0170241 7.42623913,36.0525234 8.59535476,38.8129656 C8.43567996,38.8139591 8.27933246,38.8472754 8.13559322,38.9484725 C8.34451211,39.0121589 8.5373797,39.0673151 8.7154201,39.0911384 C11.1881998,44.721713 15.8476455,49.1749036 21.6189924,51.3758014 C21.6280288,51.5313723 21.6378733,51.7031843 21.6488655,51.8778179 L21.6627586,52.091027 C21.681514,52.3694789 21.7022586,52.6420442 21.7213763,52.8575473 C12.2281108,49.514894 5.42372881,40.4673255 5.42372881,29.8305085 C5.42372881,22.4951791 8.6596992,15.9156512 13.7819707,11.4415939 C14.06259,11.4868311 14.6322165,11.5638546 15.6155241,11.6842192 C13.7874416,13.1172742 12.1815637,14.821368 10.8578959,16.7355265 C10.5951084,16.7955623 10.2859381,16.8699474 9.92880542,16.9604269 L9.92880542,16.9604269 L9.71520339,17.013919 L9.69538782,17.0197643 L9.64320339,17.032919 L9.58820339,17.047919 L9.572,17.051 Z M12.2033898,50.7623566 C11.3203062,50.5591092 10.7312746,50.3780704 9.49152542,50.6217689 C10.5480719,50.8735974 11.1811649,50.9741305 12.2033898,50.7623566 Z M42.6869584,50.5805917 L42.6209171,50.620052 C42.4795485,50.6042473 42.3435527,50.592469 42.2381193,50.587973 L42.2381193,50.587973 L42.2389907,50.5514939 C42.2353676,50.263221 42.0798605,49.6137848 41.9613831,49.4340827 C43.9851531,48.179842 45.799898,46.6205725 47.3419965,44.8207995 C47.3420021,45.0390608 47.3423234,45.257358 47.3427093,45.4758801 C47.5368866,45.1765139 47.6224779,44.8779887 47.5478072,44.5798712 C48.5977102,43.3175126 49.517095,41.9415856 50.2829114,40.4728477 L50.3741682,40.4752083 C50.9623266,40.4915608 51.4418776,40.4754046 51.8180142,40.4413144 C49.7937496,44.6247872 46.6114736,48.1438555 42.6869584,50.5805917 Z M23.226675,29.4932366 L25.0249333,38.0188349 L25.0535829,38.1908015 C25.0972816,38.5302806 25.0593777,38.8430346 24.9398713,39.1290636 C24.820365,39.4150927 24.6462963,39.6170384 24.4176653,39.7349007 L24.2988029,39.786825 L22.3767044,40.4864116 L22.5598713,39.9980348 C23.1935185,39.6661817 23.1274802,39.315812 22.8441166,39.1179737 L22.4917631,37.509893 L21.3471426,37.9265008 L21.6950468,39.5710741 C21.6972942,39.7067346 21.7284457,39.8679455 21.7967997,40.0576495 L21.9231755,40.6514826 L21.744,40.716 L21.7441168,40.5493626 C21.7431553,40.4248792 21.7411794,40.3444715 21.7384267,40.300936 L21.7362204,40.2750853 L21.7746445,40.2452569 C21.99778,40.0599252 21.3600588,40.4028841 21.6386376,40.3183998 L21.6386376,40.3183998 L21.68,40.303 C21.6819704,40.3001984 21.71044,40.2880717 21.7163412,40.2882936 L21.7130057,40.2934053 L21.7268678,40.2813389 C21.7186604,40.3378915 21.7084574,40.5065834 21.6980683,40.7325124 L19.6771278,41.4689771 L17.5360445,31.2858084 L21.7948739,29.7357532 C21.9819346,29.8921202 22.4388451,29.8829676 23.226675,29.4932366 Z M52.9805879,28.651384 C53.1014128,28.6708729 53.322403,28.6813294 53.5865918,28.6841599 L53.5865918,28.6841599 L53.911061,28.684085 C53.9860316,28.6833362 54.0624167,28.6821116 54.1392237,28.6804358 L54.1392237,28.6804358 L54.210577,28.6784278 C54.2283188,29.0602285 54.2372881,29.444321 54.2372881,29.8305085 C54.2372881,33.4864289 53.4334682,36.9546071 51.9929215,40.0679499 C51.580334,40.1117446 51.0294705,40.217123 50.3517469,40.4140864 L50.3517469,40.4140864 L50.3063808,40.4277147 C51.7359522,37.6711116 52.6251973,34.5891846 52.8338656,31.322184 C52.8781629,31.3197487 52.893784,31.3079996 52.8707244,31.2846397 L52.8707244,31.2846397 L52.8813559,31.2829826 C52.8667018,31.272135 52.8520853,31.2615421 52.8374864,31.251206 C52.8446133,31.1472981 52.8503034,31.0420382 52.855285,30.9365929 L52.8684863,31.0191391 L52.875,31.049 L52.8690727,31.008514 C52.8515623,30.8731228 52.8944103,30.951987 52.8937376,31.0830223 L52.892,31.117 L52.9119877,30.9055204 C53.0200853,29.6774302 53.025378,28.997214 52.9885064,28.7047535 Z M55.6528385,38.9569752 C59.3649092,35.797007 58.4592432,36.024755 57.2426485,36.968895 L57.1064106,37.0766118 C56.9921774,37.1686064 56.876646,37.2658947 56.7632354,37.366356 L56.7632354,37.366356 L56.6261565,37.4903506 C56.0838891,37.9914848 55.6252357,38.5476474 55.6475194,38.9123964 L55.6475194,38.9123964 L55.6512034,38.949919 Z M28.0747833,27.3528821 C27.5722045,27.7888879 27.1526697,28.22591 27.1186441,28.5267275 L27.126,28.49 L27.1293317,28.4748058 C27.0245536,28.390769 27.026546,28.6536657 27.1378877,28.5833021 L27.1847716,28.5399656 L27.1729581,28.5469799 C27.1679957,28.545058 27.168668,28.5332995 27.1738225,28.5318618 L27.1738225,28.5318618 L27.182,28.537 L27.1733513,28.5255102 C27.9344232,28.5039438 28.3898546,28.2948423 28.6895016,27.9968667 L30.3713106,35.9758998 L30.3969389,36.1329339 C30.4396142,36.4976212 30.3624205,36.8502307 30.1653577,37.1907623 C29.9682949,37.5312939 29.6976097,37.781019 29.353302,37.9399376 L29.201234,38.002486 L27.177351,38.7392301 C27.2423621,38.5734008 27.2581733,38.4542302 27.2485456,38.385682 L27.2485456,38.385682 L27.2432034,38.363919 L27.2511181,38.3085611 C27.2725456,38.1264051 27.2803993,37.9322404 27.2783576,37.7396025 L27.8199777,36.4922042 L26.7295647,31.2935718 C26.8708477,31.3214206 27.006319,31.3367801 27.1186441,31.3306103 L27.1186441,31.3306103 L26.9467064,31.2704775 C26.8610686,31.2407769 26.7808691,31.2133582 26.7058621,31.1880934 L26.0571238,28.0873763 Z M25.7708623,28.8464041 L26.2293693,31.0347343 C25.4600844,30.8027556 25.7660532,31.0010223 26.2588215,31.1661988 L27.3107403,36.1682336 L25.2374655,36.922844 L24.5012306,33.4209757 C24.5276089,33.1820528 24.5407536,32.8381763 24.5432615,32.4893947 L24.5432615,32.4893947 L24.5431027,32.2176897 C24.5343616,31.1630934 24.432305,30.3066178 24.3113894,32.5170892 L23.6975875,29.6010144 L25.7708623,28.8464041 Z M21.8905578,34.6485538 L20.7459373,35.0651616 L21.0096753,36.3273496 L21.8204808,36.0323865 C22.1357818,36.2167139 22.4406461,36.3106749 22.7236909,36.3395286 L22.809,36.346 L22.6971741,36.3651309 C20.6074163,36.7325235 22.119873,36.718396 24.1829556,36.1503307 L24.3153601,36.1133173 L24.0924275,36.1452158 C23.9475571,36.1661638 23.81015,36.186474 23.6799711,36.2061332 L23.593,36.219 L23.665646,36.1896027 C24.8006598,35.6765709 24.8813184,34.191098 22.113855,35.7136813 L21.8905578,34.6485538 Z M47.6225041,25.4856793 C48.2954116,26.3637859 50.7642121,25.8257852 50.0367587,24.6075701 L50.1713241,24.5579642 L50.3964351,25.5974363 C50.3138675,25.6927334 50.2491234,25.7707064 50.2075709,25.824721 C49.9933135,25.6783608 50.020714,25.8145645 50.0991567,25.9366542 L50.114,25.959 L50.1660782,25.9191656 L50.1660782,25.9191656 L50.167,26.023 L50.1875535,26.0430512 C50.2484144,26.0961952 50.3037213,26.0991141 50.2969955,25.9639032 L50.289,25.898 L50.2905138,25.91685 C50.2872737,25.9388161 50.2633073,25.8856083 50.273395,25.8788444 L50.2882018,25.88438 L50.2632459,25.8666299 C50.2719231,25.8599831 50.2812378,25.8526756 50.2912046,25.8446907 L50.2912046,25.8446907 L50.3699406,25.7791184 C50.3870501,25.764444 50.4053421,25.7485338 50.4248493,25.7313499 L50.657946,26.8071736 L50.0847116,27.0175752 C50.1500002,26.7168913 50.1802011,26.3560932 50.1660782,25.9191656 L50.167,26.023 L50.1569218,26.0127007 C50.1467312,26.00146 50.1366479,25.9892311 50.1269332,25.9764211 L50.114,25.959 L50.046634,26.0112596 C49.4152316,26.4993601 49.2308096,26.6742833 49.0498264,27.391146 L46.7062185,28.2449905 C47.1703705,27.9047342 47.5156878,27.2305815 47.4494787,26.085913 L47.4494787,26.085913 L47.447,26.065 L47.4513703,26.1566237 C47.4695307,26.9465077 47.0848199,26.2262029 47.3288154,25.9819988 L47.3680602,25.9505657 C47.3771129,25.9498111 47.386318,25.9490066 47.3956277,25.9481573 L47.3956277,25.9481573 L47.5217515,25.9346337 C47.7282743,25.9091781 47.8813451,25.8728985 47.4554481,25.8821435 L47.4554481,25.8821435 L47.4788409,25.8829694 C47.4903485,25.8866791 47.3819397,25.8999186 47.4158938,25.8906569 L47.4158938,25.8906569 L47.3456571,25.9043458 C47.1089528,25.9548663 47.1746759,25.963415 47.3126868,25.9544924 C43.5752219,27.0355555 44.6650476,28.6133311 45.9443077,28.5230159 L43.3548642,29.4649166 C43.2725039,29.1329547 43.036967,28.8153283 42.5679341,28.5820972 L42.5679341,28.5820972 L42.465,28.533 L42.4592034,28.530919 L42.4539502,28.5291173 C41.0773814,32.5885205 43.5620282,31.0505169 43.3802615,29.6017055 L44.3960261,34.3731612 L40.1110278,35.9327731 L39.0658978,31.0263341 L31.8039532,33.6694658 L31.3173314,31.4202563 L37.8484039,29.0427795 C37.8163701,29.2677353 37.8191614,29.5321779 37.9013244,29.7627841 L37.9013244,29.7627841 L37.922,29.815 L37.9252034,29.822919 L37.9250357,29.8232452 C38.0144994,29.4452876 38.0635024,29.1600163 38.0864694,28.9562199 L38.579276,28.7771247 L38.2630423,27.2065667 L37.9660072,27.3165764 C37.9693095,26.9510852 37.886217,26.490592 37.6855707,25.9191656 L37.689,25.932 L37.7041273,25.9876845 C37.8290516,26.6623944 35.9397403,26.3153541 37.375188,25.9815218 L37.5246606,25.9492914 L37.4763741,25.9579554 C34.8576878,26.4714815 34.961823,27.5462971 35.7296904,28.1296307 L31.9033847,29.5214993 C31.8690982,29.505009 31.8332632,29.4877779 31.7958401,29.4697871 L31.3489229,27.296775 L37.7764205,24.9573573 L37.6144132,24.1995215 C37.670732,24.148229 37.729499,24.0916774 37.790734,24.029591 C37.8158002,24.1651592 37.8577537,24.2805169 37.9233054,24.3778149 C37.9118972,24.6262023 37.9156018,24.7375395 37.9545276,24.4224055 L37.9545276,24.4224055 L38.0070922,24.4858602 C38.0534499,24.5339881 38.1074986,24.5769833 38.170171,24.6153846 C38.1830418,24.255922 38.125504,24.0072488 38.023796,23.7795636 C38.3494882,23.4119369 38.7336524,22.9065879 39.17854,22.2321514 L39.17854,22.2321514 L39.206,22.188 L39.1286419,22.3018667 C37.9837058,23.9517151 38.3388056,22.1563811 39.1860068,22.019218 L39.2538951,22.0119273 L39.3220339,22.01199 C38.4540157,21.9643827 37.7792698,22.3306949 37.3199451,22.8025199 L36.6778939,19.7638699 L35.6442876,19.1695417 L37.2667007,18.580793 C37.4802505,19.0248856 37.6633835,19.2733346 37.7887122,19.3614198 C36.8042632,19.449309 35.9467406,19.5614479 37.3401874,19.528875 L37.3401874,19.528875 L37.4202034,19.525919 L37.3754448,19.5264414 C37.2610246,19.5235487 37.7095291,19.4924827 37.6134267,19.5099575 L37.6134267,19.5099575 L37.5792034,19.514919 L37.7455471,19.4966299 L37.9092829,19.4785449 C37.9148276,19.4945851 37.9287834,19.5025876 37.9451461,19.5011895 L37.966,19.493 L38.01,19.335 L38.0031976,19.3329758 L38.0036033,19.3197148 L38.017,19.302 L37.9934907,19.3231139 L37.9934907,19.3231139 L37.970663,19.3458864 L37.9496878,19.3480326 C38.0004957,19.2255147 37.9370114,18.8936933 37.707841,18.4190179 L39.1364652,17.8982277 C39.1482961,18.4320005 39.1900295,19.0110748 39.2485108,19.2659867 C39.0642918,19.2637627 38.5604336,19.2963798 38.041766,19.3395897 L38.041766,19.3395897 L37.966,19.493 L37.9707445,19.4918716 L37.9954497,19.4674307 C38.7338724,19.3802365 39.1166251,19.326214 39.2552332,19.2978922 C39.3212893,19.5496557 39.4070545,19.3817786 39.4943463,18.2876294 L39.4943463,18.2876294 L39.5,18.198 L39.4956966,18.2406699 C39.4681449,18.4698697 39.4672924,17.9555121 39.4952936,17.9974998 L39.5028962,18.0203396 L39.505,18.034 L39.4786926,17.85146 C39.4747423,17.8259573 39.4708309,17.8009824 39.466958,17.7765287 L40.7862856,17.2980074 L41.206303,19.272122 C40.0710026,19.1099264 39.9631694,19.1701529 39.3220339,19.5282365 C39.9574403,19.6103722 40.5627263,19.6569777 41.2661954,19.5571441 L42.0839714,23.3895369 L48.511469,21.0501191 L48.9755382,23.3075371 L48.5836382,23.4506869 C48.49743,23.4047432 48.4071392,23.3583755 48.312633,23.3116037 L48.318,23.314 L48.4156684,23.3672831 C48.4718654,23.4007285 48.5157802,23.4329605 48.5491688,23.4636832 L48.1495151,23.6086553 C48.1547003,23.5524981 48.1834638,23.482144 48.2454547,23.3959669 L48.2454547,23.3959669 L48.299,23.327 L48.1795916,23.4693715 C48.1295971,23.5305346 48.0825313,23.590417 48.0382942,23.6490334 L42.5480406,25.6469549 L42.8868269,27.2093043 Z M21.3311562,31.9865833 C22.2957209,31.3151191 21.2666815,30.3294306 19.133928,32.2831668 L19.133928,32.2831668 L18.9862034,32.419919 L18.9830508,32.4245724 L19.1751361,32.4338333 C19.5571599,32.447223 19.8919332,32.4282214 20.1819965,32.3861175 L20.3928803,33.4231782 L21.5375008,33.0065704 Z M18.9830508,32.4245724 C19.7816249,31.6591707 20.1380506,32.4952842 18.9830508,32.4245724 Z M27.2977717,29.8146164 C27.429165,25.4103064 26.4084186,34.0438757 27.2902278,30.0458157 L27.289,30.051 L27.277197,30.0995918 C27.2463245,30.2097043 27.2808123,29.9103405 27.2895659,29.9500854 L27.2914643,29.9823476 L27.291,29.986 Z M25.261473,22.0711301 L28.4868137,26.7664834 L25.6360608,27.8040726 L23.97612,24.7217509 L21.0108353,25.8004237 C20.7239525,25.8063088 20.3833694,25.8198117 20.063991,25.8377429 L20.007,25.841 L20.092,26.024 L20.125469,26.0229988 L20.125469,26.0229988 L20.176998,26.0209483 C20.2283995,26.0226034 20.2333444,26.0284367 20.1005459,26.0411527 L20.1005459,26.0411527 L20.2435079,26.0278406 L20.2435079,26.0278406 L20.207,26.033 L20.3578999,26.0175987 L20.442,26.007 L20.4126789,26.0187374 L20.0209415,29.8478089 L17.0190123,30.9404217 L17.288,28.702 L17.3564931,28.7037941 L17.3132922,28.7015653 C17.2167018,28.6896653 17.7551043,28.6408552 17.4451141,28.6903654 L17.4451141,28.6903654 L17.593598,28.6688127 C20.1949991,28.2790668 18.5745588,28.3104629 17.321533,28.4284851 L17.6755564,25.4870151 L17.0115669,25.0738503 L21.603,23.402 L21.6024452,23.4139632 C21.6001642,23.4429308 21.5979777,23.4719081 21.5958944,23.5008471 L21.5899632,23.5875015 L21.5801729,23.7589707 C21.5649517,24.0700272 21.5654486,24.3590427 21.5934775,24.5621651 L21.5934775,24.5621651 L21.6002034,24.608919 L21.601,24.612 L21.6330578,24.3293525 C21.6628966,24.0530729 21.6885418,23.8058078 21.7102092,23.5853728 L21.7305587,23.3738003 C21.8025705,23.3809944 21.9754856,23.3764973 22.1732107,23.3654609 C22.266024,23.3642424 22.374232,23.3622468 22.4994199,23.3593657 L22.4994199,23.3593657 L22.6367971,23.3418132 C22.7486715,23.3271105 22.8348459,23.3146323 22.8979628,23.3046457 C22.9966544,23.2916525 23.0570911,23.2790265 23.0500334,23.2688642 C23.0545536,23.2635626 23.0400764,23.2600927 23.0119467,23.2583773 C22.9684635,23.252731 22.8865123,23.2486666 22.7561063,23.2468962 L22.7561063,23.2468962 L22.4893427,23.2462072 L22.3183982,23.2477201 C22.0553737,23.2836484 21.8881406,23.3107262 21.7945861,23.3303935 L21.81,23.327 L25.261473,22.0711301 Z M22.9438798,26.9400618 C23.3800454,26.9721801 23.8669194,27.0006688 24.4067797,27.2229465 L24.325,27.193 L24.1879494,27.1448185 C24.1858407,27.1729251 24.183825,27.2010802 24.1819051,27.2292314 L24.1715595,27.3976717 C24.16241,27.5652252 24.1569169,27.7288581 24.1556947,27.8772305 L24.1559188,28.020096 C24.1580901,28.1957073 24.167622,28.3400051 24.1858098,28.4290737 L23.7722202,28.5785061 C22.676069,28.3584667 21.9186325,28.8841262 21.736999,29.3205679 L20.6352293,29.7212393 L20.2492051,27.9214823 Z M16.1321335,28.492854 L16.1422408,28.5086387 C15.9577916,28.5269763 16.0341101,28.5424244 16.1649036,28.5507171 C16.1254157,28.753049 16.1418327,28.9375135 16.2928714,28.6518502 C16.3652313,28.7035784 16.4021133,28.6926835 16.4138366,28.6540442 L16.4138366,28.6540442 L16.4419135,28.6588092 C16.5290549,28.6697289 16.6520974,28.679337 16.8167645,28.6872156 L16.8999422,29.0677546 L16.2328882,29.3104209 C16.1112354,28.9736083 15.7147365,28.7107285 15.2629671,28.5934941 C15.6267107,28.5627113 15.9546526,28.5264244 16.1321335,28.492854 L16.1321335,28.492854 Z M32.6259401,28.3660904 C32.6469966,28.3013496 32.6344097,28.3158343 32.6065218,28.3651344 C32.4842506,28.2903709 32.4238442,28.3336653 32.4038261,28.4131638 C32.326321,28.4115562 32.2915755,28.4446462 32.3862443,28.5422658 C32.27667,28.5891491 32.3002618,28.6219741 32.415821,28.5995339 C32.4268076,28.6351997 32.4421163,28.6673003 32.4600307,28.6908988 C32.4437841,28.7335818 32.4420807,28.7481019 32.4697692,28.7011732 C32.5114796,28.7444041 32.5659667,28.7406385 32.6209088,28.6324997 C32.805776,28.6101819 32.775338,28.5478865 32.679865,28.4970203 C32.7087534,28.4818157 32.7388838,28.4648058 32.770078,28.4458495 C32.7370709,28.4512314 32.7060701,28.4567478 32.6770085,28.4623457 L32.6770085,28.4623457 L32.679,28.453 L32.67638,28.4623164 L32.6648049,28.4647234 C32.6587226,28.4462662 32.6652077,28.4059438 32.6876517,28.4249696 L32.6876517,28.4249696 L32.6223859,28.3752714 Z M40.6795034,28.4757388 C40.2142136,28.4618173 39.7486825,28.4545387 39.502067,28.4609695 L39.483,28.461 L39.4343976,28.4897908 L39.4343976,28.4897908 L39.409,28.501 L39.4325035,28.504946 C39.5488488,28.5211144 39.7629717,28.5420982 40.1022669,28.5687806 L40.2554225,28.5805675 L40.407,28.591 L40.353962,28.5876681 C40.1565905,28.5720057 40.1252968,28.5638614 40.1780697,28.5606206 L40.2055946,28.5595243 L40.3555123,28.5596521 C40.3757335,28.5599522 40.3968021,28.5603368 40.4183777,28.5607949 L40.4183777,28.5607949 L40.6170556,28.5666122 C40.8972538,28.5770383 41.0905343,28.5943989 40.448957,28.5948485 L40.8134139,28.5940245 C42.8366469,28.5857803 41.9667565,28.5197424 40.9054575,28.4830245 L40.9054575,28.4830245 Z M12.205,28.48 L12.2040941,28.4815057 L12.197419,28.4767614 L12.204,28.463 L12.2044783,28.4628011 L12.1779128,28.4970379 C12.0631036,28.305747 11.5763904,28.2692096 11.0474877,28.307209 C11.1824264,28.2445236 11.3175424,28.1670593 11.448868,28.0731233 L11.448868,28.0731233 L11.5362034,28.006919 C11.4270876,27.9220165 11.636597,27.3646327 12.1241093,27.2390543 L12.1241093,27.2390543 L12.2033898,27.2229465 C11.5760091,27.3170797 11.0769295,27.4234095 10.6869193,27.5337298 L10.5601866,27.3734543 L13.1517802,26.4301913 L13.1946898,28.160806 L13.6619276,27.9909429 C13.7686007,28.2151234 13.9631756,28.3923048 14.2678087,28.4755497 C13.2181242,28.6427961 13.4831674,28.6826152 14.1088228,28.6626164 C13.6681824,28.87949 13.4060088,29.3714105 13.6569716,30.2476684 L13.228518,30.4040438 L13.3119061,34.0601837 L14.0677875,33.7850654 L13.5073443,31.1029158 L13.9319905,30.9486235 C13.9613372,31.0091841 13.9925944,31.0710661 14.0258231,31.1342894 L14.024,31.132 L14.0136428,31.1003108 C13.9638758,30.8368527 15.007005,30.7523574 14.3647749,31.0149019 L14.2664907,31.0528702 L14.164,31.087 L14.2358869,31.0657396 C14.8503245,30.8582772 15.3016382,30.6419685 15.6208758,30.4269537 L16.162659,33.0225945 L17.3504727,32.5902657 L17.7964245,34.7562625 L16.6086108,35.1885913 L16.9209057,36.6513851 L18.0385658,36.026311 L18.515697,38.2779723 L17.3980368,38.9030464 L18.0573818,42.0585165 L15.5089815,42.9860583 L14.9485383,40.3039088 L12.204482,41.8362346 L12.1020029,41.3478595 C12.8915613,40.1617394 12.1862243,39.8885882 11.9875952,40.8155351 L11.7273508,39.5845733 L14.4714071,38.0522475 L14.0602104,36.1161332 L12.3778267,36.7269747 C12.3569188,36.5806667 12.3346079,36.4816219 12.311628,36.4224075 C12.3522632,36.383209 12.3398712,36.3177686 12.1842012,36.2359262 C12.2291684,36.2597518 12.1690622,36.2742797 12.1697217,36.2560792 L12.1697217,36.2560792 L12.183,36.236 L12.1289591,36.2893931 C12.0399852,36.3884702 12.0748145,36.4409758 12.1387917,36.4571357 L12.1727711,36.4622342 C12.1412598,36.5483424 12.1107137,36.6786889 12.0827491,36.8354988 L11.5550034,37.027954 L11.1168464,34.8833734 L11.0472601,31.1979567 L10.1402024,31.5280987 L9.69603848,29.4342109 L9.71771638,29.4253568 C9.85421705,29.5472538 10.0577502,29.6821786 10.3422596,29.8305085 L10.3422596,29.8305085 L10.3250618,29.8157684 C10.2845364,29.7348608 11.0198075,29.623831 10.4503906,29.7984745 L10.4503906,29.7984745 L10.5798241,29.7602745 C12.3688169,29.2165436 12.4389752,28.8373374 11.9276908,28.653625 C12.0155976,28.6458772 12.1063127,28.6376554 12.1999023,28.6289433 L12.1999023,28.6289433 L12.2033558,28.5906522 L12.2033558,28.5906522 L12.214,28.588 C12.2282036,28.5854333 12.2335632,28.5821711 12.2377854,28.5777023 L12.24647,28.5605991 C12.2696189,28.5565201 12.2955095,28.55525 12.2592223,28.5687747 L12.264,28.566 L12.3335655,28.5394696 C12.4880398,28.4738049 12.4002367,28.4693071 12.2748854,28.4863291 L12.2265185,28.4936437 L12.214,28.586 L12.205,28.48 Z M29.8305085,5.42372881 C35.4516377,5.42372881 40.6289379,7.32398623 44.7550591,10.5171508 C44.766535,10.7596205 44.791164,11.0361281 44.8305689,11.3491108 L44.8305689,11.3491108 L44.857,11.547 L44.8473442,11.4618884 C44.7747457,10.6842174 45.2972847,11.4294854 44.9719129,11.5590972 L44.9221528,11.5727547 L44.8610683,11.577575 C45.264836,11.577575 45.5521815,11.4821502 45.7479465,11.3278099 C50.6042345,15.509251 53.7964722,21.5706146 54.1950418,28.38244 C53.5643384,28.4528464 53.1966523,28.5092401 53.0186732,28.5535713 C52.9976721,28.5484459 52.9776084,28.5436985 52.9585684,28.5393211 L52.9585684,28.5393211 L52.9536241,28.5153723 C52.9235987,28.415474 52.8642536,28.433857 52.8273139,28.4804141 L52.8416699,28.4665391 C52.8147346,28.0049526 52.7742169,27.5470135 52.7205107,27.0931154 C52.8575032,26.738359 52.9075476,26.3500043 52.8684636,25.9191656 L52.871,25.976 L52.8777466,25.9745366 C52.9455361,26.0955887 52.9719706,26.0774106 52.9297932,25.9784946 L52.9297932,25.9784946 L52.9984798,25.9872 C53.2898285,26.0217658 53.1253252,25.9579286 52.9278853,25.9040937 L52.9278853,25.9040937 L52.9224967,25.8910842 C52.9059147,25.8586667 52.8859721,25.8538893 52.8695362,25.8647698 C52.8641733,25.8560743 52.8585158,25.8471509 52.8525555,25.8380132 L52.8525555,25.8380132 L52.8262034,25.798919 C52.8206381,25.7911261 52.8179457,25.7874141 52.8122619,25.7795777 C52.8218237,25.8085413 52.831093,25.8349958 52.8400008,25.859057 L52.8400008,25.859057 L52.8483121,25.8801568 C52.6197463,25.8268576 52.4248743,25.8030268 52.8928209,25.9731737 L52.836,25.952 L52.8144198,25.9443491 C52.7273476,25.9858304 52.6473149,26.0284612 52.5737233,26.0721288 C52.4644279,25.3887378 52.3222269,24.715113 52.1513443,24.0530173 C52.3710869,23.8310529 52.6145789,23.5839711 52.8813559,23.3116037 C52.7072469,23.3577596 52.3862491,23.6053128 52.0244134,23.9309158 L52.1012234,23.8622239 C49.4715476,14.0247106 40.497114,6.77966102 29.8305085,6.77966102 C28.9956398,6.77966102 28.1711376,6.82404489 27.3592326,6.91058178 C27.3247154,6.58930728 27.2523978,6.150681 27.1289844,5.57393193 C28.0154643,5.47390176 28.9171271,5.42372881 29.8305085,5.42372881 Z M42.007,26.029 L41.9927481,26.046419 C41.9431302,26.0968748 41.8467652,26.1631849 41.6935827,26.2468444 L41.612,26.29 L41.4219244,26.4600874 C40.666856,27.1324363 40.1508298,27.6125399 39.8193091,27.939705 L39.6686717,28.0907246 C39.5781604,28.1831504 39.5071398,28.259311 39.45359,28.320662 L39.45359,28.320662 L39.3886357,28.3985436 C39.3599287,28.4351039 39.3409816,28.4633186 39.3311354,28.482717 L39.337,28.472 L39.3494058,28.4700039 C39.3716123,28.4668236 39.4067463,28.4643654 39.4526514,28.46256 L39.483,28.461 L39.5036347,28.449561 C39.7838231,28.2772075 40.3438898,27.8385071 40.8660525,27.3624976 L41.007282,27.2319238 L41.141464,27.1041472 C41.1634935,27.0828394 41.1853375,27.061539 41.2069687,27.0402657 L41.3339816,26.9131097 C41.6394367,26.601511 41.8864163,26.3044789 41.9863349,26.0858604 L42.007,26.029 Z M16.4557783,26.9738668 L16.7725999,28.4698049 C16.6939154,28.4668611 16.6186413,28.4647941 16.5514337,28.4638343 L16.5514337,28.4638343 L16.4171041,28.4636197 L16.3772034,28.464919 L16.389,28.436 L16.3788638,28.457924 C16.3624572,28.4828311 16.3693239,28.431382 16.3798226,28.4127971 L16.3880707,28.406727 L16.393,28.416 L16.3769157,28.3523172 C16.3309387,28.2103084 16.2762218,28.2409957 16.2311857,28.3325242 L16.2125309,28.3751495 C16.1975132,28.3825322 16.1824189,28.394919 16.1685267,28.4155814 C16.0621457,28.402452 15.8679567,28.3928093 15.5593306,28.3887627 C15.7757211,28.3275165 16.012559,28.2444284 16.2711864,28.1366547 L16.266,28.138 L16.1491371,28.1839762 C15.0797631,28.5646714 15.892044,27.2986924 16.2104238,27.9601718 L16.2436461,28.041783 L16.265,28.115 L16.2202968,27.9370013 C16.1402531,27.6370559 16.0537655,27.376365 15.9625811,27.1512267 L16.4557783,26.9738668 Z M24.7628972,26.2786328 L25.1489214,28.0783897 L24.3302018,28.3770738 C24.4083072,28.1610211 24.5156371,27.693847 24.6581252,26.8660245 L24.65,26.909 L24.6418306,26.952725 C24.5785667,27.2540368 24.6029035,26.6634495 24.6397195,26.7597917 L24.649,26.798 L24.6386655,26.6972519 C24.621631,26.5580292 24.6045057,26.4399681 24.5873938,26.3411446 L24.7628972,26.2786328 Z M20.007,25.841 L19.8267952,25.852156 C19.5961022,25.8673167 19.3885601,25.8845647 19.2369517,25.902504 C19.1191092,25.8937321 19.0351546,25.8879347 19.0005328,25.8864048 L19.0005328,25.8864048 L18.9822034,25.885919 L19.2138571,25.9053195 C19.0345413,25.9275005 18.9428019,25.9506172 19.0009362,25.9716572 C18.96526,25.9857312 18.9811318,25.9987168 19.066128,26.0100043 C18.4260167,26.8183449 18.8001502,27.3575052 19.0631384,27.1935426 L19.0631384,27.1935426 L19.1662886,26.0194945 C19.3393117,26.0323615 19.6444697,26.0410505 20.1217274,26.0433038 L20.1217274,26.0433038 L20.0673244,26.0427308 C20.0206867,26.0419096 19.9966207,26.0403816 19.9886087,26.0384857 L19.9886087,26.0384857 L19.988,26.036 L19.9854999,26.0369194 L19.988,26.035 L20.007,25.841 Z M41.9915184,25.9321891 C41.663632,25.821129 39.5381987,26.4347953 39.3220339,27.2229465 C40.4058236,26.8334909 41.1046984,26.5430243 41.521088,26.3363423 L41.612,26.29 C41.6819771,26.2292504 41.7499426,26.1691708 41.8196313,26.1077105 L42.009,25.94 Z M33.4839571,23.0714594 C31.6418603,23.0007931 32.8783791,23.282412 34.0102036,23.4486798 L34.2342294,23.4802568 C35.2643654,23.6191455 36.0184334,23.6303931 33.9082844,23.1337941 L33.9082844,23.1337941 L33.6782034,23.079919 L33.6751875,23.0795627 Z M32.4608025,23.1576047 L32.4482034,23.158919 L32.4742034,23.154919 L32.5012034,23.150919 L32.5194312,23.1491765 C32.5266536,23.1481383 32.532389,23.1473138 32.5423729,23.1458786 C32.3955422,23.1485811 32.2394632,23.155587 32.0792382,23.1658025 L32.0792382,23.1658025 L31.8853047,23.1795316 L31.8853047,23.1795316 L31.7874577,23.1874203 L31.4933343,23.2145532 C31.3896986,23.2249552 31.2868637,23.2361256 31.1861451,23.2477824 L30.7856893,22.5214233 L30.0063803,22.0644009 L34.1109577,20.5704569 L36.365638,24.7301723 L32.7346658,26.0517382 L31.229002,23.3283432 C31.4740395,23.2959086 31.7558683,23.2573844 32.0779678,23.2120244 L32.0779678,23.2120244 L32.1662034,23.198919 L32.1732034,23.197919 L32.1654286,23.2000659 L32.1699606,23.1993405 L32.175,23.198 L32.1732034,23.197919 L32.176,23.198 L32.1832034,23.196919 C32.1831787,23.1975143 32.1888376,23.1967008 32.2042034,23.193919 L32.2042034,23.193919 L32.2862034,23.181919 L32.2976618,23.1810568 L32.3817813,23.1689643 C32.3958012,23.1669489 32.4096086,23.164964 32.4228851,23.1630555 L32.4228851,23.1630555 L32.427,23.162 L32.3962034,23.165919 L32.437,23.16 L32.4608025,23.1576047 Z M44.9864014,16.9120362 C45.6899449,17.0628851 46.2593621,17.0877523 46.6734946,17.0486608 L46.4241079,21.0691887 L42.7931356,22.3907546 L43.0625246,18.078561 L42.2524546,17.6071944 L44.611,16.748 L44.6174095,16.7926988 C44.6285344,16.7743501 44.6392866,16.7557368 44.6496779,16.7368551 L46.7404265,15.9737062 L46.7063118,16.5188368 C46.3028652,16.5259077 45.7303059,16.6017771 44.972855,16.7926988 L44.972855,16.7926988 L44.9605905,16.800287 C44.8905582,16.8181006 44.8189531,16.8368967 44.7457627,16.8567115 L44.7457627,16.8567115 L44.8465045,16.8790614 C44.5932878,17.0946686 44.4794649,17.4931667 44.4963787,18.0964798 C44.5456139,18.0076621 44.6079101,17.9392357 44.671685,17.8721888 L44.7670085,17.7702767 C44.9229032,17.5942261 45.051844,17.3673862 44.972855,16.7926988 Z M14.6199003,10.743738 C15.1625974,11.1937541 15.5506638,11.4361327 15.8136346,11.5304193 L15.6957834,11.6224597 C15.5320249,11.5965431 15.3452763,11.5704362 15.1519169,11.545575 L15.1519169,11.545575 L14.9772181,11.5236568 C14.9186862,11.5164875 14.860001,11.5094679 14.8015998,11.5026361 L14.8015998,11.5026361 L14.6276854,11.482743 L14.6276854,11.482743 L14.4754844,11.4660681 C14.2221159,11.4388857 13.9917317,11.4170852 13.825368,11.4042642 C14.0541878,11.2048526 14.2870531,11.0098737 14.5235492,10.8192175 Z M8.42600819,11.2290094 C9.68662746,10.5753834 10.45832,9.39819266 7.00250576,11.3417485 L7.00250576,11.3417485 L6.783,11.465 L6.88308451,11.4133029 C7.39858338,11.1632898 7.37834183,11.5446754 7.06873914,11.5520179 L7.00303346,11.5482012 L6.93820339,11.533919 L6.97250598,11.5448957 C7.3424698,11.6408696 7.82170237,11.5144215 8.26271014,11.309326 Z M26.8811845,5.60011317 L26.8766183,5.63588924 C26.8172168,6.10540654 26.8662622,6.5834909 26.9535273,6.95770687 C22.9880771,7.45122819 19.3355918,8.95201933 16.2597312,11.1958732 C16.2050853,10.8731005 15.9502278,10.3980975 15.6065033,9.99555902 C18.8578627,7.65899656 22.7074057,6.10284252 26.8811845,5.60011317 Z M40.5473936,2.60852747 C39.0159694,1.60606147 38.7686565,2.77859136 40.6779661,2.69717451 L40.6779661,2.69717451 L40.56707,2.69983152 C39.9918729,2.70154279 40.3040275,2.48820048 40.6219767,2.66230551 L40.6219767,2.66230551 L40.6712034,2.69291898 Z M32.5423729,2.65382747 C31.8530653,2.2158046 30.8411568,2.23622848 29.8305085,2.25486775 C30.4561779,2.50748936 31.2078634,2.67107871 32.5423729,2.65382747 Z" id="Combined-Shape"></path>
            </g>
        </g>
    </g>
</svg>