<?xml version="1.0" encoding="UTF-8"?>
<svg width="40px" height="52px" viewBox="0 0 40 52" version="1.1" xmlns="http://www.w3.org/2000/svg" xmlns:xlink="http://www.w3.org/1999/xlink">
    <title>603DFAA3-6A05-4A77-8578-A9C84CB4A391</title>
    <g id="Uikit" stroke="none" stroke-width="1" fill="none" fill-rule="evenodd">
        <g id="Uikit_世界杯_APP" transform="translate(-90.000000, -4576.000000)">
            <g id="image/number/0" transform="translate(90.000000, 4576.000000)">
                <g id="Group" transform="translate(4.000000, 2.000000)">
                    <g id="0" fill="#0C186C">
                        <path d="M9.37792969,24.1376953 C9.37792969,29.5087891 9.81835938,33.6176758 10.6992188,36.4643555 C11.5800781,39.3110352 13.3847656,40.734375 16.1132812,40.734375 C18.8417969,40.734375 20.6303711,39.3110352 21.4790039,36.4643555 C22.3276367,33.6176758 22.7519531,29.5087891 22.7519531,24.1376953 C22.7519531,18.5087891 22.3276367,14.3408203 21.4790039,11.6337891 C20.6303711,8.92675781 18.8417969,7.57324219 16.1132812,7.57324219 C13.3847656,7.57324219 11.5800781,8.92675781 10.6992188,11.6337891 C9.81835938,14.3408203 9.37792969,18.5087891 9.37792969,24.1376953 Z M16.1132812,0 C22.0644531,0 26.237793,2.09472656 28.6333008,6.28417969 C31.0288086,10.4736328 32.2265625,16.4248047 32.2265625,24.1376953 C32.2265625,31.8505859 31.0288086,37.7910156 28.6333008,41.9589844 C26.237793,46.1269531 22.0644531,48.2109375 16.1132812,48.2109375 C10.1621094,48.2109375 5.98876953,46.1269531 3.59326172,41.9589844 C1.19775391,37.7910156 0,31.8505859 0,24.1376953 C0,16.4248047 1.19775391,10.4736328 3.59326172,6.28417969 C5.98876953,2.09472656 10.1621094,0 16.1132812,0 Z" id="Shape"></path>
                    </g>
                    <path d="M16.1132812,0 C22.0644531,0 26.237793,2.09472656 28.6333008,6.28417969 C30.4128209,9.39634487 31.5313764,13.4806912 31.9889672,18.5372186 L31.6487483,18.6815025 L22.73681,22.3480145 C22.6543458,17.6169753 22.2350771,14.0455669 21.4790039,11.6337891 C20.6303711,8.92675781 18.8417969,7.57324219 16.1132812,7.57324219 C13.3847656,7.57324219 11.5800781,8.92675781 10.6992188,11.6337891 C9.81835938,14.3408203 9.37792969,18.5087891 9.37792969,24.1376953 C9.37792969,25.4373172 9.40371576,26.6630401 9.4552879,27.8148638 L0.432766062,31.5273726 C0.144255354,29.2776189 0,26.8143931 0,24.1376953 C0,16.4248047 1.19775391,10.4736328 3.59326172,6.28417969 C5.98876953,2.09472656 10.1621094,0 16.1132812,0 Z" id="Combined-Shape" fill="#FFFFFF" opacity="0.5"></path>
                </g>
            </g>
        </g>
    </g>
</svg>