<?xml version="1.0" encoding="UTF-8"?>
<svg width="40px" height="52px" viewBox="0 0 40 52" version="1.1" xmlns="http://www.w3.org/2000/svg" xmlns:xlink="http://www.w3.org/1999/xlink">
    <title>8AA2777F-3B88-4478-85CC-C55D120A85E0</title>
    <g id="Uikit" stroke="none" stroke-width="1" fill="none" fill-rule="evenodd">
        <g id="Uikit_世界杯_APP" transform="translate(-170.000000, -4576.000000)">
            <g id="image/number/1" transform="translate(170.000000, 4576.000000)">
                <g id="Group-12" transform="translate(8.000000, 3.000000)">
                    <path d="M0,14.5019531 L0,8.25 C2.90039062,8.12109375 4.93066406,7.92773438 6.09082031,7.66992188 C7.93847656,7.26171875 9.44238281,6.4453125 10.6025391,5.22070312 C11.3974609,4.3828125 11.9990234,3.265625 12.4072266,1.86914062 C12.6435547,1.03125 12.7617188,0.408203125 12.7617188,0 L20.3994141,0 L20.3994141,46.7285156 L10.9892578,46.7285156 L10.9892578,14.5019531 L0,14.5019531 Z" id="Path" fill="#0C186C"></path>
                    <path d="M20.3994141,0 L20.399,21.954 L10.989,25.826 L10.9892578,14.5019531 L0,14.5019531 L0,8.25 C2.90039062,8.12109375 4.93066406,7.92773438 6.09082031,7.66992188 C7.93847656,7.26171875 9.44238281,6.4453125 10.6025391,5.22070312 C11.3974609,4.3828125 11.9990234,3.265625 12.4072266,1.86914062 C12.6435547,1.03125 12.7617188,0.408203125 12.7617188,0 L20.3994141,0 Z" id="Combined-Shape" fill="#FFFFFF" opacity="0.5"></path>
                </g>
            </g>
        </g>
    </g>
</svg>