<?xml version="1.0" encoding="UTF-8"?>
<svg width="40px" height="52px" viewBox="0 0 40 52" version="1.1" xmlns="http://www.w3.org/2000/svg" xmlns:xlink="http://www.w3.org/1999/xlink">
    <title>18AD9AA3-F2EF-4DF8-83C9-BC2899033AFA</title>
    <g id="Uikit" stroke="none" stroke-width="1" fill="none" fill-rule="evenodd">
        <g id="Uikit_世界杯_APP" transform="translate(-570.000000, -4576.000000)">
            <g id="image/number/6" transform="translate(570.000000, 4576.000000)">
                <g id="Group" transform="translate(4.000000, 2.000000)">
                    <path d="M9.21679688,32.3876953 C9.21679688,34.9013672 9.89355469,36.953125 11.2470703,38.5429688 C12.6005859,40.1328125 14.3193359,40.9277344 16.4033203,40.9277344 C18.4443359,40.9277344 20.050293,40.159668 21.2211914,38.6235352 C22.3920898,37.0874023 22.9775391,35.0947266 22.9775391,32.6455078 C22.9775391,29.9169922 22.3115234,27.8276367 20.9794922,26.3774414 C19.6474609,24.9272461 18.0146484,24.2021484 16.0810547,24.2021484 C14.5126953,24.2021484 13.1269531,24.6748047 11.9238281,25.6201172 C10.1191406,27.0166016 9.21679688,29.2724609 9.21679688,32.3876953 Z M22.1396484,12.2138672 C22.1396484,11.4619141 21.8496094,10.6347656 21.2695312,9.73242188 C20.28125,8.27148438 18.7880859,7.54101562 16.7900391,7.54101562 C13.8037109,7.54101562 11.6767578,9.21679688 10.4091797,12.5683594 C9.72167969,14.4160156 9.24902344,17.1445312 8.99121094,20.7539062 C10.1298828,19.4003906 11.4511719,18.4121094 12.9550781,17.7890625 C14.4589844,17.1660156 16.1777344,16.8544922 18.1113281,16.8544922 C22.2578125,16.8544922 25.6577148,18.2617188 28.3110352,21.0761719 C30.9643555,23.890625 32.2910156,27.4892578 32.2910156,31.8720703 C32.2910156,36.2333984 30.9912109,40.0791016 28.3916016,43.4091797 C25.7919922,46.7392578 21.7529297,48.4042969 16.2744141,48.4042969 C10.3876953,48.4042969 6.04785156,45.9443359 3.25488281,41.0244141 C1.08496094,37.1787109 0,32.2158203 0,26.1357422 C0,22.5693359 0.150390625,19.6689453 0.451171875,17.4345703 C0.98828125,13.4599609 2.03027344,10.1513672 3.57714844,7.50878906 C4.90917969,5.25292969 6.65478516,3.4375 8.81396484,2.0625 C10.9731445,0.6875 13.5566406,0 16.5644531,0 C20.9042969,0 24.3632812,1.11181641 26.9414062,3.33544922 C29.5195312,5.55908203 30.9697266,8.51855469 31.2919922,12.2138672 L22.1396484,12.2138672 Z" id="Shape" fill="#0C186C"></path>
                    <path d="M16.5644531,0 C20.9042969,0 24.3632812,1.11181641 26.9414062,3.33544922 C29.5195312,5.55908203 30.9697266,8.51855469 31.2919922,12.2138672 L22.1396484,12.2138672 C22.1396484,11.4619141 21.8496094,10.6347656 21.2695312,9.73242188 C20.28125,8.27148438 18.7880859,7.54101562 16.7900391,7.54101562 C13.8037109,7.54101562 11.6767578,9.21679688 10.4091797,12.5683594 C9.72167969,14.4160156 9.24902344,17.1445312 8.99121094,20.7539062 C10.1298828,19.4003906 11.4511719,18.4121094 12.9550781,17.7890625 C14.4589844,17.1660156 16.1777344,16.8544922 18.1113281,16.8544922 C21.9346453,16.8544922 25.1232191,18.0509148 27.6770497,20.4437599 L17.9384252,24.4506042 C17.3536561,24.284967 16.7345326,24.2021484 16.0810547,24.2021484 C14.5126953,24.2021484 13.1269531,24.6748047 11.9238281,25.6201172 C11.2271361,26.1592241 10.6649217,26.8264048 10.2371847,27.6216593 L0.341686156,31.6937565 C0.113895385,29.9583635 0,28.105692 0,26.1357422 C0,22.5693359 0.150390625,19.6689453 0.451171875,17.4345703 C0.98828125,13.4599609 2.03027344,10.1513672 3.57714844,7.50878906 C4.90917969,5.25292969 6.65478516,3.4375 8.81396484,2.0625 C10.9731445,0.6875 13.5566406,0 16.5644531,0 Z" id="Combined-Shape" fill="#FFFFFF" opacity="0.5"></path>
                </g>
            </g>
        </g>
    </g>
</svg>