<?xml version="1.0" encoding="UTF-8"?>
<svg width="40px" height="52px" viewBox="0 0 40 52" version="1.1" xmlns="http://www.w3.org/2000/svg" xmlns:xlink="http://www.w3.org/1999/xlink">
    <title>260B5341-686D-4189-8EDE-19D1D519E6E8</title>
    <g id="Uikit" stroke="none" stroke-width="1" fill="none" fill-rule="evenodd">
        <g id="Uikit_世界杯_APP" transform="translate(-730.000000, -4576.000000)">
            <g id="image/number/8" transform="translate(730.000000, 4576.000000)">
                <g id="Group" transform="translate(4.000000, 2.000000)">
                    <path d="M9.5390625,33.3867188 C9.5390625,35.6855469 10.1352539,37.46875 11.3276367,38.7363281 C12.5200195,40.0039062 14.1689453,40.6376953 16.2744141,40.6376953 C18.3798828,40.6376953 20.0288086,40.0039062 21.2211914,38.7363281 C22.4135742,37.46875 23.0097656,35.6855469 23.0097656,33.3867188 C23.0097656,31.0019531 22.402832,29.1918945 21.1889648,27.956543 C19.9750977,26.7211914 18.3369141,26.1035156 16.2744141,26.1035156 C14.2119141,26.1035156 12.5737305,26.7211914 11.3598633,27.956543 C10.1459961,29.1918945 9.5390625,31.0019531 9.5390625,33.3867188 Z M0,33.9990234 C0,31.3779297 0.596191406,29.0039063 1.78857422,26.8769531 C2.98095703,24.75 4.7265625,23.1494141 7.02539062,22.0751953 C4.76953125,20.5712891 3.30322266,18.9438477 2.62646484,17.1928711 C1.94970703,15.4418945 1.61132812,13.8037109 1.61132812,12.2783203 C1.61132812,8.88378906 2.88964844,5.98876953 5.44628906,3.59326172 C8.00292969,1.19775391 11.6123047,0 16.2744141,0 C20.9365234,0 24.5458984,1.19775391 27.1025391,3.59326172 C29.6591797,5.98876953 30.9375,8.88378906 30.9375,12.2783203 C30.9375,13.8037109 30.5991211,15.4418945 29.9223633,17.1928711 C29.2456055,18.9438477 27.7792969,20.4638672 25.5234375,21.7529297 C27.8222656,23.0419922 29.5517578,24.75 30.7119141,26.8769531 C31.8720703,29.0039063 32.4521484,31.3779297 32.4521484,33.9990234 C32.4521484,37.9306641 30.996582,41.2768555 28.0854492,44.0375977 C25.1743164,46.7983398 21.1083984,48.1787109 15.8876953,48.1787109 C10.6669922,48.1787109 6.71386719,46.7983398 4.02832031,44.0375977 C1.34277344,41.2768555 0,37.9306641 0,33.9990234 Z M10.3769531,13.3095703 C10.3769531,15.0068359 10.8979492,16.3925781 11.9399414,17.4667969 C12.9819336,18.5410156 14.4267578,19.078125 16.2744141,19.078125 C18.1435547,19.078125 19.5883789,18.5410156 20.6088867,17.4667969 C21.6293945,16.3925781 22.1396484,15.0068359 22.1396484,13.3095703 C22.1396484,11.4619141 21.6293945,10.0170898 20.6088867,8.97509766 C19.5883789,7.93310547 18.1435547,7.41210938 16.2744141,7.41210938 C14.4267578,7.41210938 12.9819336,7.93310547 11.9399414,8.97509766 C10.8979492,10.0170898 10.3769531,11.4619141 10.3769531,13.3095703 Z" id="Shape" fill="#0C186C"></path>
                    <path d="M16.2744141,1.77635684e-15 C20.9365234,1.77635684e-15 24.5458984,1.19775391 27.1025391,3.59326172 C29.6591797,5.98876953 30.9375,8.88378906 30.9375,12.2783203 C30.9375,13.8037109 30.5991211,15.4418945 29.9223633,17.1928711 C29.4613382,18.3856819 28.6339072,19.4713128 27.4400701,20.4497637 L0.166191411,31.6709696 C0.418865414,29.9535629 0.959659683,28.3555574 1.78857422,26.8769531 C2.98095703,24.75 4.7265625,23.1494141 7.02539063,22.0751953 C4.76953125,20.5712891 3.30322266,18.9438477 2.62646484,17.1928711 C1.94970703,15.4418945 1.61132813,13.8037109 1.61132813,12.2783203 C1.61132813,8.88378906 2.88964844,5.98876953 5.44628906,3.59326172 C8.00292969,1.19775391 11.6123047,1.77635684e-15 16.2744141,1.77635684e-15 Z M16.2744141,7.41210938 C14.4267578,7.41210938 12.9819336,7.93310547 11.9399414,8.97509766 C10.8979492,10.0170898 10.3769531,11.4619141 10.3769531,13.3095703 C10.3769531,15.0068359 10.8979492,16.3925781 11.9399414,17.4667969 C12.9819336,18.5410156 14.4267578,19.078125 16.2744141,19.078125 C18.1435547,19.078125 19.5883789,18.5410156 20.6088867,17.4667969 C21.6293945,16.3925781 22.1396484,15.0068359 22.1396484,13.3095703 C22.1396484,11.4619141 21.6293945,10.0170898 20.6088867,8.97509766 C19.5883789,7.93310547 18.1435547,7.41210938 16.2744141,7.41210938 Z" id="Combined-Shape" fill="#FFFFFF" opacity="0.5"></path>
                </g>
            </g>
        </g>
    </g>
</svg>