<?xml version="1.0" encoding="UTF-8"?>
<svg width="10px" height="10px" viewBox="0 0 10 10" version="1.1" xmlns="http://www.w3.org/2000/svg" xmlns:xlink="http://www.w3.org/1999/xlink">
    <title>8837A060-9B54-413F-B230-E49EA545EC03</title>
    <g id="3.1-3.6-簡易盤口+冠軍盤" stroke="none" stroke-width="1" fill="none" fill-rule="evenodd">
        <g id="3.1.1_足球" transform="translate(-181.000000, -448.000000)">
            <g id="odds/tabletitle/soccer2" transform="translate(0.000000, 428.000000)">
                <g id="corner-kick" transform="translate(181.000000, 20.000000)">
                    <g id="Group" transform="translate(1.000000, 1.000000)">
                        <path d="M0.512,2.789 L0.512,6.709 L2.32,3.822 L2.828,4.148 L2.1410414,5.24720147 C3.14724022,5.59306428 3.94707271,6.3803846 4.30559227,7.38986715 L7.96,7.39 L7.96,8 L0.512,8 L0.512,8.004 L5.68378677e-13,8.004 L5.68378677e-13,2.789 L0.512,2.789 Z M1.80514582,5.78266993 L0.8,7.39 L3.64950074,7.39027255 C3.30424596,6.61145825 2.63007374,6.020159 1.80514582,5.78266993 Z" id="Combined-Shape" fill="#DDDDDD"></path>
                        <polygon id="Path_2297" fill="#3C7CB8" points="0 -1.13686838e-13 0 4.664 8 -1.13686838e-13"></polygon>
                    </g>
                </g>
            </g>
        </g>
    </g>
</svg>