<?xml version="1.0" encoding="UTF-8"?>
<svg width="150px" height="150px" viewBox="0 0 150 150" version="1.1" xmlns="http://www.w3.org/2000/svg" xmlns:xlink="http://www.w3.org/1999/xlink">
    <title>WAP/TeamBadge</title>
    <defs>
        <polygon id="path-1" points="0 0 150 0 150 150 0 150"></polygon>
    </defs>
    <g id="WAP" stroke="none" stroke-width="1" fill="none" fill-rule="evenodd">
        <g id="預設隊徽">
            <g id="Group-86">
                <g id="Group-3">
                    <mask id="mask-2" fill="white">
                        <use xlink:href="#path-1"></use>
                    </mask>
                    <g id="Clip-2"></g>
                    <path d="M74.9999058,3.76806789 C35.7226472,3.76806789 3.76788421,35.722414 3.76788421,75 C3.76788421,114.277209 35.7226472,146.231932 74.9999058,146.231932 C114.277164,146.231932 146.231927,114.277209 146.231927,75 C146.231927,35.722414 114.277164,3.76806789 74.9999058,3.76806789 M74.9999058,150 C33.644932,150 -0.000188403631,116.355299 -0.000188403631,75 C-0.000188403631,33.6450781 33.644932,0 74.9999058,0 C116.355256,0 150,33.6450781 150,75 C150,116.355299 116.355256,150 74.9999058,150" id="Fill-1" fill="#5699D3" mask="url(#mask-2)"></path>
                </g>
                <path d="M130.259934,75 C130.259934,105.519089 105.519146,130.259846 75.0000188,130.259846 C44.4808915,130.259846 19.7401035,105.519089 19.7401035,75 C19.7401035,44.480911 44.4808915,19.740154 75.0000188,19.740154 C105.519146,19.740154 130.259934,44.480911 130.259934,75" id="Fill-4" fill="#5699D3"></path>
                <path d="M11.3112265,69.9134852 C11.2882412,69.9134852 11.265256,69.9127315 11.2422707,69.9104707 C10.8277828,69.87279 10.5221921,69.506157 10.5598728,69.0916696 C10.6284517,68.3312735 10.7117261,67.5663557 10.8063047,66.8172638 C10.8583041,66.4042835 11.2351114,66.1118815 11.648469,66.1642576 C12.0614497,66.216257 12.3538522,66.5934405 12.301476,67.0064208 C12.2091582,67.7378028 12.1281446,68.4850106 12.0606961,69.2280736 C12.025653,69.6191991 11.6967003,69.9134852 11.3112265,69.9134852" id="Fill-6" fill="#5699D3"></path>
                <path d="M30.1039234,30.2092785 C29.9091141,30.2092785 29.7146815,30.1342939 29.5673499,29.9847016 C29.2749475,29.6885315 29.2783387,29.2111173 29.574886,28.919092 C30.7071919,27.8026135 31.8941347,26.7155259 33.1036861,25.6872202 C33.420581,25.4174266 33.8961117,25.4558609 34.1659057,25.7731322 C34.4356997,26.0900267 34.3972654,26.5659337 34.0799937,26.8353505 C32.8987029,27.8395406 31.7388902,28.9017589 30.6329608,29.9922378 C30.4863828,30.1369316 30.2949647,30.2092785 30.1039234,30.2092785 M23.8771834,37.3222602 C23.7193012,37.3222602 23.5602885,37.2732754 23.4242611,37.1707839 C23.0919171,36.9205842 23.0252222,36.4480685 23.2757991,36.1153481 C24.2321359,34.845886 25.2468778,33.5960179 26.2928948,32.4011636 C26.5672105,32.0880371 27.0434949,32.0563854 27.3562449,32.3303239 C27.6697485,32.6046392 27.7014003,33.080923 27.4270847,33.3940495 C26.4055602,34.5610201 25.4138035,35.7818741 24.4796983,37.022322 C24.331613,37.2190152 24.1059054,37.3222602 23.8771834,37.3222602 M18.7631553,45.2740139 C18.6418233,45.2740139 18.5182306,45.244623 18.404058,45.1824498 C18.0381781,44.9838727 17.9029043,44.5264292 18.1014817,44.1605498 C18.8592411,42.7652343 19.6799274,41.3797157 20.5401783,40.0420516 C20.7651323,39.6916213 21.2312428,39.5906371 21.5816736,39.8159676 C21.9317275,40.041298 22.0330887,40.507408 21.807758,40.8574615 C20.9674778,42.1638507 20.1660087,43.5169638 19.4259593,44.879874 C19.289555,45.1315809 19.0303116,45.2740139 18.7631553,45.2740139 M14.8805333,53.8945996 C14.794998,53.8945996 14.7079555,53.8799041 14.6231739,53.849006 C14.2316712,53.706573 14.0300793,53.2743756 14.1725124,52.8832502 C14.7147381,51.3918489 15.3213978,49.899694 15.9744047,48.4489879 C16.1454752,48.0691667 16.5923686,47.9003572 16.9710599,48.0710507 C17.3508817,48.242121 17.5200681,48.6882602 17.3489976,49.0677046 C16.7106861,50.484875 16.1183451,51.9419868 15.5889309,53.3983451 C15.477396,53.704689 15.1883848,53.8945996 14.8805333,53.8945996 M12.3205047,62.9971212 C12.2707662,62.9971212 12.2206508,62.9918459 12.1701586,62.9820489 C11.7620764,62.8991514 11.4986881,62.5016203 11.5808321,62.0935385 C11.8965966,60.5346888 12.274911,58.9690566 12.7048481,57.4399747 C12.8178903,57.0394291 13.2342623,56.8065625 13.6344316,56.9184741 C14.0349778,57.0311393 14.2685983,57.4475108 14.1559329,57.8480564 C13.7357928,59.3413417 13.3665217,60.8704237 13.0582933,62.3927231 C12.9859463,62.7499359 12.6716891,62.9971212 12.3205047,62.9971212" id="Fill-8" fill="#5699D3"></path>
                <path d="M37.3070464,24.0843595 C37.0745563,24.0843595 36.8454575,23.9773464 36.6981259,23.7753779 C36.4524476,23.4392663 36.525925,22.967881 36.8616602,22.722203 C37.4747257,22.2745565 38.103617,21.8314317 38.7317547,21.40564 C39.0765333,21.171643 39.5452816,21.2620767 39.7785253,21.6064781 C40.0121458,21.9508795 39.9220888,22.4196271 39.577687,22.6532473 C38.9642448,23.069242 38.3496721,23.5018162 37.7513022,23.9392889 C37.6171588,24.0372587 37.4615374,24.0843595 37.3070464,24.0843595" id="Fill-10" fill="#5699D3"></path>
                <path d="M113.185139,24.4580388 C113.02688,24.4580388 112.867114,24.4083003 112.731463,24.305432 C112.137992,23.8566552 111.530579,23.4169216 110.926556,22.9986661 C110.584416,22.7620314 110.49888,22.2921534 110.735892,21.9500128 C110.972904,21.6082491 111.441275,21.5223371 111.784547,21.7593486 C112.405902,22.1896619 113.030271,22.6418301 113.640322,23.1034184 C113.972666,23.3543717 114.038231,23.8272642 113.7869,24.159231 C113.638815,24.3551705 113.413108,24.4580388 113.185139,24.4580388" id="Fill-12" fill="#5699D3"></path>
                <path d="M120.11632,30.5945634 C119.920381,30.5945634 119.724818,30.5184485 119.576732,30.3673489 C118.501701,29.2659427 117.387482,28.2022171 116.26535,27.20594 C115.954107,26.9297406 115.92547,26.4534568 116.20167,26.1422144 C116.478246,25.830972 116.954154,25.8019579 117.265773,26.0789109 C118.414659,27.0989269 119.555631,28.1875217 120.655908,29.3145508 C120.946427,29.6126049 120.940775,30.0896423 120.64272,30.3801604 C120.496142,30.5233469 120.306231,30.5945634 120.11632,30.5945634 M126.132425,37.6280389 C125.90295,37.6280389 125.676865,37.5240403 125.52878,37.3265935 C124.60937,36.100841 123.645874,34.8973202 122.665045,33.7495667 C122.394497,33.433049 122.432178,32.957142 122.748319,32.6869715 C123.063707,32.4164243 123.540368,32.4537281 123.810916,32.7702458 C124.812469,33.9424917 125.795936,35.1712587 126.734186,36.4222572 C126.984386,36.7553544 126.916938,37.2274933 126.58384,37.4773162 C126.448566,37.5790541 126.289554,37.6280389 126.132425,37.6280389 M131.2197,45.3642591 C130.957819,45.3642591 130.704228,45.2278551 130.564809,44.9848147 C129.810441,43.6663677 129.002943,42.3520657 128.164924,41.0780819 C127.936202,40.7299124 128.033041,40.2630488 128.380834,40.0343271 C128.727874,39.8059822 129.196245,39.9024447 129.424213,40.2498606 C130.279189,41.549844 131.10289,42.8908994 131.872707,44.2360996 C132.079574,44.5974573 131.954474,45.0579152 131.593116,45.2647821 C131.475552,45.3322305 131.346684,45.3642591 131.2197,45.3642591 M135.303537,53.6758633 C135.007743,53.6758633 134.726645,53.5006481 134.606444,53.2101301 C134.030305,51.815945 133.394255,50.4108324 132.716755,49.0336036 C132.53325,48.6601881 132.686987,48.2083968 133.06078,48.0248919 C133.43495,47.8406333 133.885988,47.9951241 134.069493,48.3681628 C134.761311,49.7747826 135.41055,51.2100396 135.9995,52.6339925 C136.158513,53.0187122 135.975761,53.4595762 135.591041,53.6185886 C135.496839,53.6573997 135.399623,53.6758633 135.303537,53.6758633 M138.244141,62.4573455 C137.908406,62.4573455 137.602061,62.2312614 137.514642,61.8910049 C137.141226,60.4354002 136.703753,58.9583176 136.21428,57.500829 C136.081267,57.1063123 136.294163,56.6790134 136.688304,56.5467542 C137.082821,56.414495 137.510497,56.6266372 137.642757,57.0211539 C138.14391,58.5133088 138.591934,60.0254345 138.97477,61.5160821 C139.078015,61.9192654 138.835352,62.3299848 138.431791,62.4336066 C138.369241,62.4498093 138.305937,62.4573455 138.244141,62.4573455" id="Fill-14" fill="#5699D3"></path>
                <path d="M139.56534,69.225549 C139.193431,69.225549 138.869754,68.9501032 138.819639,68.5710356 C138.722799,67.8441753 138.608627,67.1026196 138.480135,66.3667159 C138.408919,65.9567501 138.683234,65.5663783 139.093201,65.494785 C139.506182,65.4235685 139.893539,65.6978839 139.965133,66.1078496 C140.097015,66.8633473 140.214579,67.6256274 140.313303,68.3728352 C140.368317,68.7854387 140.078175,69.1641295 139.665948,69.2187665 C139.632035,69.223665 139.598499,69.225549 139.56534,69.225549" id="Fill-16" fill="#5699D3"></path>
                <path d="M46.9677064,20.8272039 C47.3584555,21.6294256 48.2778652,21.8928135 49.1452755,21.4707899 C50.0450913,21.0325636 50.405319,20.1463141 50.0043961,19.3222376 C49.597821,18.4876106 48.7858014,18.2521063 47.8532034,18.7061585 C46.9100549,19.1651092 46.5611313,19.9922001 46.9677064,20.8272039 L46.9677064,20.8272039 Z M47.9764194,15.7625439 C47.4748889,15.2286087 46.9744889,15.1366678 46.3128153,15.4588376 C45.6515186,15.7806306 45.3056095,16.3379279 45.3138993,17.0987008 C45.3195514,17.5516225 45.4020722,17.9141107 45.6537794,18.5965078 C45.787546,18.2095272 45.8862695,18.0271527 46.0995424,17.7758226 C46.4164373,17.3801754 46.8407223,17.0662954 47.404426,16.79198 C49.367215,15.836398 51.173629,16.4061299 52.0813577,18.2709467 C52.9943617,20.1470677 52.1582264,22.1769259 50.022106,23.2169126 C48.8943219,23.7655433 47.7552335,23.8507016 46.7781723,23.4411126 C45.6609388,22.9923357 44.6902833,21.9625228 43.9724654,20.487701 C43.3074006,19.1213996 43.0259256,17.689157 43.2098075,16.634098 C43.43966,15.3148974 44.2049555,14.3521561 45.5603312,13.6923674 C46.6229277,13.1750117 47.6757272,13.0785491 48.5623547,13.4116463 C49.0405231,13.5947744 49.3777656,13.8193513 49.8800497,14.272273 L47.9764194,15.7625439 Z" id="Fill-18" fill="#5699D3"></path>
                <path d="M55.6491573,17.1526218 C55.9102847,18.0057124 56.777695,18.4085188 57.6997424,18.1259138 C58.656456,17.8331349 59.1496967,17.0135801 58.88141,16.1375043 C58.6093551,15.2497475 57.8440596,14.8917811 56.8526797,15.1951106 C55.8499955,15.5025849 55.3771024,16.264865 55.6491573,17.1526218 L55.6491573,17.1526218 Z M57.4310788,12.3072633 C57.0188517,11.7021116 56.5384224,11.5340558 55.8353001,11.7492125 C55.1321777,11.964746 54.7041247,12.4613773 54.5940969,13.2138605 C54.5296629,13.6622605 54.554909,14.0326616 54.6977189,14.7455801 C54.8895138,14.3842223 55.0157443,14.2195578 55.2648139,14.0044011 C55.6397371,13.6626373 56.1069781,13.4188434 56.7064784,13.2353384 C58.7928603,12.5962741 60.4884929,13.4388141 61.0959062,15.4215714 C61.706334,17.4160098 60.5657384,19.2910003 58.2947211,19.9865857 C57.0957203,20.3535955 55.9577624,20.260901 55.0560626,19.7047342 C54.0224803,19.0882783 53.2236489,17.9205541 52.7435965,16.352661 C52.2985871,14.9000708 52.2431964,13.4418286 52.5883519,12.4282183 C53.0197962,11.1613939 53.925264,10.3294045 55.366175,9.88816375 C56.49622,9.54225511 57.5505267,9.61008034 58.3742274,10.0765671 C58.8181063,10.3312885 59.1165377,10.6056039 59.5423299,11.1312493 L57.4310788,12.3072633 Z" id="Fill-20" fill="#5699D3"></path>
                <path d="M64.6134397,15.1732558 C64.724221,15.9491009 65.4469374,16.3210092 66.5332727,16.1661416 C67.6433469,16.0078828 68.2093114,15.4520928 68.0955156,14.6525088 C67.981343,13.852548 67.2706845,13.4791324 66.196407,13.632116 C65.0980138,13.7888676 64.4996439,14.3732949 64.6134397,15.1732558 M64.3417617,10.7909928 C64.4355867,11.4473902 65.0441304,11.7868932 65.9156856,11.6629237 C66.7748062,11.5400847 67.242424,11.0596561 67.1470917,10.3912008 C67.054774,9.74648439 66.4597953,9.41715526 65.6006747,9.53961747 C64.7411774,9.66245648 64.2501975,10.1466532 64.3417617,10.7909928 M69.84051,12.9666752 C70.2734616,13.3555398 70.4999228,13.8344612 70.5986463,14.5270321 C70.7056595,15.2787617 70.5281833,15.9984626 70.0831739,16.5489773 C69.4539058,17.3451701 68.2888177,17.8889023 66.7970378,18.1014213 C65.2811422,18.3177084 63.9954758,18.0991605 63.1789345,17.4970232 C62.6352016,17.0994921 62.2907997,16.4785145 62.1837865,15.7267849 C62.0662226,14.9030853 62.2828868,14.2022247 62.8236052,13.6381449 C63.1529348,13.2990188 63.4426995,13.111369 63.9984903,12.910531 C63.3744974,12.8042715 63.0794573,12.7006496 62.7471133,12.4187981 C62.3209443,12.077788 62.0413533,11.5698524 61.9565717,10.9729905 C61.868022,10.3523897 61.9584557,9.7913244 62.2229744,9.33953306 C62.7448525,8.47325425 63.8635933,7.86320406 65.3199533,7.65558352 C67.635434,7.32550078 69.2530675,8.16653353 69.4897025,9.82561382 C69.6517296,10.9594254 69.2063434,11.7661688 68.1286747,12.321582 C68.8992455,12.3456976 69.3747763,12.5212896 69.84051,12.9666752" id="Fill-22" fill="#5699D3"></path>
                <path d="M74.1898079,14.0152531 C74.1754892,14.9075316 74.8763507,15.5579001 75.8409773,15.573726 C76.8417774,15.5899287 77.5637401,14.9625454 77.5784356,14.0461513 C77.5935079,13.1176994 76.975544,12.5408082 75.9385704,12.5238519 C74.889539,12.5072724 74.2048802,13.0868012 74.1898079,14.0152531 L74.1898079,14.0152531 Z M77.3791045,9.95440638 C77.1733678,9.25166172 76.7686768,8.94381057 76.033149,8.93175275 C75.2976212,8.91969494 74.7373088,9.26032827 74.4008199,9.94234856 C74.2011121,10.3492999 74.1110551,10.7095272 74.0266503,11.4318658 C74.3209368,11.1469999 74.4916305,11.0294361 74.7949603,10.9016986 C75.256926,10.6918173 75.7769201,10.6040213 76.4035505,10.6141951 C78.5860182,10.6492381 79.9395099,11.9740908 79.9055972,14.0476585 C79.8720614,16.1336609 78.2088341,17.5659035 75.8334411,17.5274692 C74.5794266,17.5071216 73.5251199,17.0677649 72.8389538,16.2606448 C72.0457745,15.3555549 71.6456052,13.9982968 71.6719817,12.3584337 C71.696851,10.8391487 72.0932523,9.43478982 72.7342014,8.57680076 C73.5356705,7.50440864 74.6532808,6.9915746 76.1605098,7.01606704 C77.3421774,7.03528419 78.3248908,7.42527921 78.9647095,8.12312539 C79.3079809,8.50256982 79.5076888,8.85526098 79.7507294,9.48641235 L77.3791045,9.95440638 Z" id="Fill-24" fill="#5699D3"></path>
                <path d="M93.3829002,16.9023844 C93.1824388,16.2392045 93.0418897,15.6792696 92.9213113,14.9000332 C92.7931969,15.4396205 92.6982414,15.8510935 92.6036628,16.212828 L92.4845917,16.6676338 L93.1496565,16.8413417 L93.3829002,16.9023844 Z M90.8937115,15.8409197 C91.0579994,15.2108988 91.191766,14.7474264 91.2765476,14.4704734 C90.7603217,15.1581458 90.4404123,15.5232716 89.9415195,16.0033234 L90.7931039,16.2260162 L90.8937115,15.8409197 Z M90.3646741,12.1885315 C90.0263011,12.0999819 89.5421038,11.9986209 89.0311532,11.9025352 L89.4090909,10.4559739 C89.1630357,10.7781437 89.0857902,10.8821424 88.7922574,11.2419929 L87.6863281,15.4765475 C89.0179649,14.8148748 90.308153,13.6938746 91.2162585,12.4108475 L90.3646741,12.1885315 Z M94.0392985,13.1482584 C94.1444277,13.9858999 94.3411211,14.759861 94.6576392,15.5530393 C94.9990266,16.4396657 95.3867613,17.1017152 96.0416523,17.9830663 C95.4636299,18.430336 95.1802709,18.7054049 94.5348,19.4590185 C94.1466886,18.7965922 93.9349229,18.3674092 93.7295629,17.8651258 L93.51629,18.6820429 C93.2890752,18.5976382 93.070527,18.5279289 92.7671972,18.4487995 L92.0670893,18.2660482 L91.8688887,19.0241835 C91.7441655,19.5023513 91.6548621,19.9402008 91.5855296,20.3957602 L89.7538695,19.9172155 C89.9223023,19.4627866 90.061721,19.0256907 90.1804153,18.5708849 L90.3756015,17.8240538 L89.6992324,17.6473315 C89.4539309,17.5832743 89.1826297,17.5248692 88.9546613,17.4905798 L89.1622821,16.6970247 C88.7312146,17.0580056 88.4308992,17.2539452 87.8276308,17.6073899 C87.737197,17.0478319 87.6497777,16.7136042 87.4854898,16.2467406 L87.0826828,17.7863732 C86.9153804,18.4280751 86.841903,18.7577811 86.8023382,19.1466457 L84.9009688,18.6496375 C85.0660104,18.256628 85.1598354,17.944632 85.3211089,17.3262921 L86.0253616,14.6317467 C86.1990698,13.9663059 86.2235623,13.8732347 86.3626041,13.4361388 C86.0084053,13.7424827 85.8874502,13.8231194 85.5253384,14.0646525 C85.5950477,13.2729814 85.5878884,12.5359474 85.5321209,11.748798 C86.5069213,11.1184002 87.3042455,10.3549897 88.0555992,9.29239453 C88.3879432,8.83080622 88.5635354,8.54028818 88.8894736,7.86505042 L90.5553385,8.78634301 C90.4276009,8.98944187 90.4276009,8.98944187 89.6050306,10.182789 C89.9223023,10.3033671 90.4211952,10.4461769 90.8409584,10.5558277 L92.1594071,10.9002291 L92.3851146,10.0369647 C92.4823309,9.66354922 92.5565619,9.28410478 92.6066773,8.94836993 L94.4616994,9.43294346 C94.3294401,9.79693882 94.2205428,10.1176014 94.1199352,10.5026979 L93.897619,11.3539045 L95.7409601,11.8354635 C96.2892146,11.9790269 96.8084551,12.0898081 97.252334,12.1557493 L96.7892379,13.9290021 C96.2617077,13.7537869 95.7895682,13.605325 95.3690513,13.4956743 L94.0392985,13.1482584 Z" id="Fill-26" fill="#5699D3"></path>
                <path d="M103.505903,15.3693837 C103.199935,15.5547726 103.092545,15.6094096 102.829157,15.7352631 C103.997636,16.2827634 104.700759,16.6015419 105.360548,16.8720892 C105.267853,16.7055406 105.235071,16.6354545 105.11487,16.4153993 L105.692138,16.4436598 L103.505903,15.3693837 Z M104.719976,20.1710326 L100.304925,18.0010023 L100.129333,18.3582151 L104.544383,20.5282454 L104.719976,20.1710326 Z M99.4005876,19.840573 L103.815638,22.0106033 L103.99123,21.6533905 L99.5761798,19.4833602 L99.4005876,19.840573 Z M103.905318,13.7920705 C104.032679,13.5324506 104.09636,13.375699 104.164939,13.1270065 L105.993584,14.0260675 C105.849267,14.210326 105.726805,14.4051351 105.614893,14.6323496 L108.514802,16.0578097 C109.174968,16.3822403 109.494124,16.5258037 109.899191,16.6576861 L109.138794,18.2048548 C108.781204,17.9757563 108.429266,17.7892369 107.942431,17.5499646 L107.206527,17.1882301 C107.731043,18.1716958 107.999329,18.7199497 108.305674,19.4347521 L106.938994,19.8375586 C106.763025,20.1141348 106.597983,20.4223627 106.369261,20.8877191 L104.667223,24.3501967 C104.395921,24.9022186 104.085432,25.1795484 103.691669,25.2142147 C103.379295,25.2488809 103.049966,25.1539256 102.411654,24.8404223 C102.130179,24.7021342 101.85398,24.5529187 101.248074,24.2281113 C101.416506,23.6662924 101.468506,23.3422385 101.490737,22.7220146 C102.048789,23.0634015 102.351742,23.2393703 102.654695,23.388209 C102.968576,23.5423229 103.065792,23.536294 103.172051,23.3200069 L103.262485,23.1357484 L98.8478113,20.9660949 L98.5979881,21.4747841 C98.3639908,21.9506911 98.1936739,22.3508599 98.0346612,22.756304 L96.2712033,21.8896484 C96.5059542,21.5211313 96.7241256,21.1315131 97.0643825,20.4389422 L98.7080158,17.0955356 C98.995143,16.5111083 99.1281559,16.2134309 99.2283866,15.9270577 C99.4612535,16.0547952 99.704671,16.1881848 100.407793,16.5337167 L105.796891,19.1822916 C106.056888,19.3100291 106.132249,19.347333 106.451405,19.4905195 C106.347029,19.1841756 106.308218,19.0711336 106.16051,18.7161816 C104.132533,17.8939892 101.520128,16.7311634 99.1888219,15.6252355 C99.0588234,15.5615552 98.8643908,15.4929763 98.7181896,15.4345713 L99.2852845,13.9533438 C99.6639758,14.1662396 99.6639758,14.1662396 101.076249,14.8738828 C101.32871,14.742754 101.446651,14.6662622 101.72059,14.4918007 L100.400634,13.8429394 C99.8267566,13.5610879 99.5294557,13.4284519 99.1187357,13.2803669 L99.8791328,11.7328214 C100.231448,11.9732241 100.550603,12.1435408 101.232624,12.478522 L103.905318,13.7920705 Z" id="Fill-28" fill="#5699D3"></path>
                <path d="M8.21488816,77.3452831 C7.98691976,77.0129395 7.8693559,76.6662773 7.86332698,76.30605 C7.8539068,75.7702308 8.03741194,75.3041208 8.41346558,74.9065896 C8.78914242,74.5094352 9.28803524,74.3055828 9.91014403,74.2950322 C10.4904272,74.2848584 10.987436,74.4446245 11.4015472,74.7739536 C11.8152815,75.1032827 12.027424,75.5614798 12.0375978,76.148168 C12.0440036,76.5212067 11.972787,76.8460141 11.8239481,77.1229671 C11.5820378,77.573628 11.1502167,77.858494 10.5284847,77.9775649 L10.5273543,77.0785039 C10.8152351,77.0189685 11.0074068,76.9010279 11.1038694,76.7239287 C11.1943032,76.5758437 11.2380128,76.4138168 11.2353752,76.2382248 C11.2304767,75.9737064 11.1178113,75.7589266 10.8970022,75.5935084 C10.6758164,75.428467 10.3457332,75.3497144 9.90675276,75.3572505 C9.47078676,75.3644098 9.15577589,75.4631332 8.96134334,75.6530438 C8.7672876,75.8433313 8.67270898,76.0686617 8.67723067,76.3301656 C8.68137555,76.569438 8.74957766,76.7491748 8.88259063,76.869753 C9.01560359,76.9903311 9.18102198,77.0664461 9.3792226,77.0980979 L9.39429489,77.97342 C8.83586652,77.8871313 8.44285655,77.6780035 8.21488816,77.3452831 M11.9588451,74.0779915 C11.3751707,73.5263463 10.6893814,73.2576831 9.90185427,73.2712481 C9.08568974,73.28519 8.39688606,73.5824905 7.83619686,74.1631498 C7.27475404,74.7404178 7.00156877,75.4311046 7.01513384,76.2344567 C7.0290757,77.0347943 7.32788386,77.7138002 7.91155831,78.2714742 C8.49824722,78.8291483 9.19534065,79.1012028 10.002085,79.0872609 C10.7865977,79.0736959 11.4622131,78.7797866 12.0296849,78.205533 C12.6065768,77.624497 12.8880518,76.9338101 12.8744868,76.1338493 C12.8605449,75.3237147 12.555331,74.6383032 11.9588451,74.0779915 M7.46428809,78.6953819 C6.78942629,78.0212745 6.44351722,77.2043574 6.4269377,76.2446305 C6.40998137,75.252875 6.73516604,74.4118423 7.4024917,73.7207786 C8.07019417,73.0300918 8.89954695,72.6758934 9.89130367,72.6589371 C10.9211179,72.6412272 11.7836297,72.9931647 12.4788391,73.7147497 C13.1284549,74.3926251 13.4611757,75.1952236 13.4770016,76.1232987 C13.4939579,77.095837 13.1638747,77.9323481 12.4867521,78.6328319 C11.8100062,79.3336926 10.9851751,79.6924126 10.0126356,79.7089921 C9.01145871,79.7263252 8.16213514,79.3883295 7.46428809,78.6953819" id="Fill-30" fill="#5699D3"></path>
                <path d="M7.5915359,84.8713205 C7.46040698,84.1022578 7.41858137,83.9074487 7.33907504,83.5954527 C7.76373682,83.5585256 8.0271251,83.557772 8.37793266,83.6033656 C9.12476465,83.7047267 9.84408972,84.0042881 10.5012416,84.5080787 C10.8554404,84.7816405 11.1583934,85.0642456 11.8965589,85.8351922 C12.5171604,86.4855608 12.7699981,86.6272401 13.1630081,86.5601685 C13.5729744,86.4904593 13.7839864,86.0767254 13.6909151,85.5299787 C13.6208289,85.1196362 13.4346861,84.8524801 13.1121391,84.7138152 C12.9037647,84.6263961 12.7244044,84.6041645 12.3581478,84.622628 L12.2405839,82.7962455 C13.0058794,82.7977527 13.4079328,82.8874327 13.8676377,83.1609945 C14.5232823,83.5506127 14.9630164,84.2755889 15.1333332,85.2752574 C15.3296498,86.4286629 15.0948989,87.374448 14.4758046,87.9193106 C14.2086482,88.1582061 13.8913765,88.3089288 13.5239894,88.3714787 C12.9003734,88.4773614 12.3268728,88.3115665 11.8008498,87.8560071 C11.5050561,87.6159811 11.4308251,87.5409966 10.6757033,86.7726875 C10.0366382,86.1166669 9.68394663,85.8513949 9.27435714,85.7191358 L9.61348367,87.709806 C9.72238097,88.3503776 9.80640899,88.7407494 9.90588611,89.0666873 L8.29089018,89.3413794 C8.24944138,88.8387192 8.20535493,88.4766078 8.10210974,87.8703257 L7.5915359,84.8713205 Z" id="Fill-32" fill="#5699D3"></path>
                <path d="M12.6155071,91.2394683 C11.1222199,91.659231 10.4744883,92.3005562 10.7066015,93.1268935 C10.936454,93.9441874 11.8046179,94.1503007 13.2896153,93.7327988 C14.7162076,93.3314995 15.3450989,92.6867831 15.1175073,91.8774021 C14.8970751,91.0928904 13.9754045,90.8570094 12.6155071,91.2394683 M9.49403577,91.2797866 C9.69223639,90.9274722 9.95034936,90.6297949 10.2491575,90.4108701 C10.780079,90.026904 11.3920139,89.73827 12.0680062,89.5479826 C12.9440831,89.3015509 13.9117241,89.2544501 14.5266736,89.4240131 C15.5206911,89.69343 16.2321032,90.4300873 16.5275201,91.4810014 C16.7551117,92.2900056 16.6789966,93.0767782 16.3214065,93.7263931 C16.1239595,94.0790842 15.8654698,94.3767616 15.5670384,94.5956863 C15.0353634,94.9792756 14.4234284,95.2682864 13.7395232,95.4604579 C12.8634463,95.7068895 11.8871387,95.7562512 11.272566,95.587065 C10.2973889,95.3214162 9.5840927,94.5764692 9.28603816,93.5172653 C9.05618573,92.6995946 9.12853273,91.9320391 9.49403577,91.2797866" id="Fill-34" fill="#5699D3"></path>
                <path d="M11.1327329,98.7417668 C10.8429681,98.0171673 10.7608241,97.8355464 10.6176373,97.5469124 C11.024966,97.4214358 11.2823254,97.3652916 11.635017,97.3362775 C12.3871242,97.2782492 13.1531734,97.4199286 13.9018894,97.7741269 C14.3058268,97.967052 14.6615329,98.1799478 15.5455227,98.7786938 C16.2893402,99.2839917 16.5659168,99.3695269 16.9363183,99.221065 C17.3229226,99.0665742 17.4419937,98.6177973 17.2358801,98.1027025 C17.0813891,97.7160987 16.8432469,97.4937827 16.4984683,97.4263343 C16.2765288,97.3841319 16.0960381,97.4003346 15.7418393,97.4952899 L15.2429465,95.7344718 C15.9916625,95.5750825 16.4035128,95.578097 16.9106954,95.7491673 C17.6334118,95.9918308 18.2163326,96.6086635 18.5931398,97.5503037 C19.0275986,98.6370145 18.9970772,99.61106 18.5060974,100.27424 C18.2950853,100.564004 18.0166247,100.778031 17.6707157,100.916319 C17.0828963,101.151823 16.4871641,101.109621 15.8771131,100.775016 C15.537233,100.602439 15.4490601,100.544787 14.5488675,99.952447 C13.7858328,99.4448882 13.3849099,99.2598761 12.9568568,99.2165433 L13.7070801,101.091911 C13.9486135,101.695932 14.1129015,102.059927 14.2786967,102.357605 L12.757149,102.966148 C12.610571,102.483081 12.4914999,102.13868 12.2631547,101.567064 L11.1327329,98.7417668 Z" id="Fill-36" fill="#5699D3"></path>
                <path d="M17.3857363,103.910727 C16.0137811,104.635326 15.5152651,105.398737 15.9158112,106.157249 C16.3125893,106.908602 17.2048689,106.927442 18.5689111,106.206988 C19.8798236,105.514793 20.3591224,104.75176 19.9664893,104.008697 C19.5859139,103.288242 18.6348524,103.250938 17.3857363,103.910727 M14.3422641,104.606689 C14.461712,104.220085 14.6516228,103.874553 14.8973012,103.597977 C15.3362816,103.111143 15.8739856,102.700047 16.4945872,102.371848 C17.2994475,101.947187 18.2358135,101.697364 18.8726178,101.733914 C19.9013016,101.788174 20.7513788,102.35866 21.2615758,103.324416 C21.654209,104.067855 21.7453964,104.852744 21.5321234,105.563402 C21.4130524,105.949628 21.2231415,106.29516 20.9770864,106.571736 C20.5381059,107.058571 20.0004019,107.470044 19.3722642,107.802011 C18.5674039,108.227049 17.6231249,108.48064 16.9863206,108.444089 C15.9772308,108.389452 15.1230087,107.811431 14.6090436,106.838139 C14.2122656,106.086786 14.121455,105.321115 14.3422641,104.606689" id="Fill-38" fill="#5699D3"></path>
                <path d="M21.4189682,113.178177 C20.9034959,113.559505 20.8379314,114.24341 21.2501586,114.801084 C21.6778348,115.379482 22.3511894,115.517393 22.8806036,115.125891 C23.4171771,114.729114 23.4767127,114.125092 23.0339642,113.525593 C22.5855635,112.919311 21.9555418,112.781399 21.4189682,113.178177 L21.4189682,113.178177 Z M25.1297661,113.226408 C25.4410089,112.802124 25.4398785,112.436244 25.1256213,112.011206 C24.811364,111.585791 24.3723835,111.414721 23.8361868,111.520604 C23.5166543,111.584284 23.2717295,111.68979 22.8229521,111.957323 C23.1138473,112.000656 23.2555268,112.046626 23.4608868,112.164567 C23.7819266,112.336767 24.0592567,112.59488 24.3271667,112.957368 C25.2597646,114.21854 25.0943463,115.569393 23.8957224,116.455265 C22.6903159,117.34679 21.1461598,117.02236 20.1314178,115.649653 C19.5955979,114.925053 19.386093,114.131121 19.5473666,113.387305 C19.7180602,112.539113 20.3183142,111.718051 21.2659845,111.017567 C22.1439454,110.368329 23.1187458,109.981725 23.888563,109.973058 C24.850552,109.962508 25.6312966,110.376618 26.2752602,111.247796 C26.7801819,111.93057 26.9862955,112.661952 26.8672244,113.331914 C26.8005295,113.693649 26.6863569,113.961558 26.432012,114.375669 L25.1297661,113.226408 Z" id="Fill-40" fill="#5699D3"></path>
                <path d="M25.7312636,118.593682 C25.2583705,119.026633 25.2647762,119.714682 25.7327708,120.226009 C26.2184754,120.756553 26.9027573,120.823624 27.3888387,120.378615 C27.8813258,119.927955 27.8771809,119.320542 27.3737664,118.770781 C26.8646998,118.214237 26.2237507,118.143398 25.7312636,118.593682 L25.7312636,118.593682 Z M29.427366,118.253802 C29.6930151,117.799373 29.6538272,117.435754 29.2966139,117.045759 C28.9397774,116.655388 28.484971,116.531041 27.9623394,116.692315 C27.6514734,116.788777 27.4189833,116.919906 26.9999736,117.232656 C27.2938833,117.245467 27.4397077,117.276365 27.6563719,117.372074 C27.9939912,117.509609 28.2969442,117.737953 28.6010277,118.06992 C29.6606097,119.227471 29.6372476,120.588497 28.5377241,121.595325 C27.4314179,122.607428 25.8620157,122.446531 24.7089855,121.186866 C24.1000649,120.521802 23.8087929,119.754247 23.8913137,118.997242 C23.9723273,118.135861 24.4832779,117.256394 25.3529491,116.460578 C26.158563,115.723168 27.0881465,115.236333 27.8526885,115.147407 C28.8086485,115.036249 29.6285811,115.367085 30.3603408,116.166292 C30.9338414,116.792922 31.2156933,117.498304 31.1670851,118.17731 C31.1388246,118.543943 31.0529125,118.822403 30.8430309,119.261007 L29.427366,118.253802 Z" id="Fill-42" fill="#5699D3"></path>
                <path d="M32.5967672,121.377417 C32.2810028,121.734253 32.378219,122.225609 32.8518658,122.644618 C33.31873,123.058352 33.7991592,123.090381 34.1209526,122.727516 C34.431065,122.377086 34.3346023,121.898164 33.8677381,121.48443 C33.4004971,121.071073 32.9068796,121.027364 32.5967672,121.377417 M30.3238658,123.565157 C29.9504498,123.986804 30.083086,124.555782 30.673543,125.078037 C31.2764346,125.612349 31.8442831,125.663971 32.2290034,125.229513 C32.6137236,124.794678 32.4874931,124.231729 31.9038187,123.71475 C31.3073328,123.186467 30.7085861,123.130699 30.3238658,123.565157 M33.963824,125.400583 C33.9525198,125.818462 33.795768,126.165501 33.4622935,126.541554 C33.1005586,126.95039 32.6238974,127.187778 32.1152076,127.200213 C31.3864623,127.225835 30.5469357,126.841116 29.7364233,126.123299 C28.9127226,125.393801 28.4341774,124.588188 28.3840621,123.860951 C28.3486422,123.378261 28.5283792,122.900847 28.8901142,122.492389 C29.2865154,122.044742 29.7707128,121.837498 30.331402,121.871034 C30.6705285,121.893266 30.9079171,121.964859 31.2768114,122.175494 C31.0443213,121.784745 30.9640614,121.574487 30.9636846,121.261738 C30.9520035,120.869482 31.1000888,120.48024 31.3875927,120.156186 C31.6860241,119.818568 32.0353244,119.607179 32.405726,119.541991 C33.1227902,119.424428 33.9773891,119.75338 34.7686843,120.454241 C36.0268437,121.568458 36.3192462,122.845456 35.5207916,123.747155 C34.9751747,124.363234 34.3263126,124.494363 33.5206987,124.16315 C33.8662309,124.596101 33.9913309,124.938241 33.963824,125.400583" id="Fill-44" fill="#5699D3"></path>
                <path d="M35.924729,127.92809 C35.5520666,128.450344 35.7012823,129.121437 36.2657396,129.524244 C36.851298,129.942499 37.5344496,129.865631 37.9172858,129.329435 C38.3050205,128.786079 38.1750219,128.192609 37.5679855,127.759658 C36.9541664,127.321431 36.3124637,127.385112 35.924729,127.92809 L35.924729,127.92809 Z M39.4693549,126.827061 C39.6343965,126.327038 39.5206007,125.979622 39.0902868,125.672525 C38.6599729,125.36505 38.1893406,125.33792 37.7119258,125.603946 C37.4278131,125.763335 37.2273517,125.940058 36.882573,126.333067 C37.1730914,126.284459 37.3219303,126.284459 37.5536668,126.33269 C37.9123873,126.397124 38.2560355,126.557267 38.6230458,126.819148 C39.9000456,127.73102 40.1600426,129.0668 39.2937627,130.280118 C38.4225843,131.500595 36.8535589,131.669405 35.4638937,130.677273 C34.73025,130.153134 34.2856174,129.463201 34.2087487,128.705443 C34.1088948,127.845946 34.4261665,126.879814 35.1112021,125.920087 C35.7457455,125.031576 36.5536203,124.361991 37.2831192,124.115936 C38.1949927,123.808085 39.0654175,123.961445 39.9475233,124.591089 C40.6389646,125.084329 41.0613656,125.716234 41.1551906,126.390342 C41.2034219,126.755091 41.1774222,127.045232 41.0636264,127.517748 L39.4693549,126.827061 Z" id="Fill-46" fill="#5699D3"></path>
                <path d="M45.4402428,133.91653 C45.4153735,133.419145 45.4149967,133.004281 45.4662425,132.439824 C45.2827373,132.794022 45.1452027,133.064193 45.0163346,133.300074 L44.8543075,133.596621 L45.2880126,133.833255 L45.4402428,133.91653 Z M43.8885505,132.743907 C44.1127508,132.333188 44.2860821,132.032873 44.3934722,131.854266 C43.9141734,132.244638 43.6277998,132.443592 43.1959787,132.691908 L43.7517694,132.99486 L43.8885505,132.743907 Z M44.1538228,130.104752 C43.9333905,129.984174 43.6131044,129.829307 43.273601,129.673685 L43.7883197,128.730161 C43.5607281,128.912159 43.488758,128.971694 43.2219784,129.171402 L41.7151262,131.932642 C42.7585055,131.70279 43.8531306,131.145116 44.7092367,130.407705 L44.1538228,130.104752 Z M46.5499402,131.412272 C46.47797,132.014786 46.4806076,132.589039 46.5635052,133.196829 C46.64791,133.874704 46.8031546,134.403364 47.1068613,135.132108 C46.6260552,135.343497 46.3803769,135.48593 45.7993401,135.899287 C45.6440955,135.369874 45.5706181,135.034139 45.5148506,134.647912 L45.2243322,135.18034 C45.0803918,135.08237 44.9398427,134.995704 44.7420189,134.887938 L44.2857053,134.638868 L44.0159113,135.133239 C43.8459712,135.445235 43.7073062,135.734999 43.5799453,136.04059 L42.3858431,135.388714 C42.5825365,135.10121 42.755491,134.820112 42.9171413,134.523565 L43.1827905,134.036731 L42.7415492,133.796328 C42.5817829,133.708909 42.4027994,133.621113 42.2498157,133.557433 L42.5320443,133.040077 C42.1691789,133.217176 41.9257614,133.301581 41.4434481,133.44326 C41.4773608,133.037063 41.4747231,132.789124 41.4411873,132.434549 L40.8929327,133.438739 C40.6645875,133.857371 40.556067,134.074412 40.4614884,134.338553 L39.2214157,133.661808 C39.404544,133.416507 39.5243688,133.215292 39.7444242,132.812109 L40.7033987,131.054682 C40.9400336,130.621354 40.9731927,130.560689 41.1461472,130.279967 C40.8458318,130.431821 40.7478619,130.46724 40.4531987,130.572746 C40.6393414,130.032405 40.7625574,129.517311 40.8601505,128.958883 C41.6491849,128.688336 42.3383654,128.294196 43.0463862,127.683769 C43.3583826,127.419627 43.5313372,127.247803 43.8761158,126.833316 L44.8776695,127.765159 C44.7533231,127.884607 44.7533231,127.884607 43.9722017,128.574163 C44.1730399,128.712828 44.4959638,128.899347 44.7699026,129.048563 L45.6290232,129.517687 L45.9364979,128.954738 C46.0691341,128.711698 46.186698,128.459991 46.2801462,128.234283 L47.4896975,128.894449 C47.3340761,129.125431 47.2025703,129.330038 47.0657893,129.580991 L46.7628363,130.136404 L47.9644746,130.792425 C48.3220647,130.987611 48.6649593,131.154913 48.9630139,131.277752 L48.3322385,132.434172 C47.9946192,132.220522 47.6912893,132.035133 47.4173505,131.885541 L46.5499402,131.412272 Z" id="Fill-48" fill="#5699D3"></path>
                <path d="M52.5197353,132.913809 C52.3132449,133.06717 52.2401443,133.11314 52.0600304,133.220907 C52.9330928,133.534033 53.4576086,133.7149 53.9478348,133.863739 C53.8702125,133.751074 53.841952,133.703219 53.7413444,133.553627 L54.1562092,133.534787 L52.5197353,132.913809 Z M53.7119535,136.26739 L50.4066002,135.012623 L50.305239,135.279779 L53.6105923,136.534922 L53.7119535,136.26739 Z M49.8835917,136.389852 L53.188945,137.644995 L53.2903061,137.377462 L49.9849528,136.122696 L49.8835917,136.389852 Z M52.6990955,131.75852 C52.772573,131.56371 52.807616,131.447277 52.8400215,131.264903 L54.2089622,131.784896 C54.1181517,131.926575 54.0435438,132.073907 53.9791098,132.2446 L56.1498964,133.068677 C56.6442676,133.256327 56.8824098,133.33734 57.1812179,133.404788 L56.7414838,134.563093 C56.4698058,134.42292 56.2056639,134.31327 55.8412913,134.174982 L55.2903991,133.965854 C55.7316404,134.633932 55.9603624,135.008101 56.2282724,135.499081 L55.2772108,135.879655 C55.1701976,136.08916 55.0726045,136.320896 54.9403451,136.669442 L53.9561246,139.261873 C53.7993727,139.674853 53.59552,139.893778 53.3163058,139.945778 C53.09512,139.991371 52.8528329,139.945778 52.3750413,139.764533 C52.164406,139.684274 51.9567852,139.596101 51.5008484,139.40506 C51.5841228,138.991326 51.5991951,138.756198 51.5735722,138.310436 C51.9955964,138.517303 52.2243184,138.622432 52.4511564,138.708721 C52.6862841,138.798024 52.7552398,138.787097 52.8166594,138.62507 L52.8690356,138.487535 L49.5636823,137.232392 L49.4189883,137.613343 C49.2837145,137.969426 49.1891359,138.26748 49.102847,138.568172 L47.7821376,138.067019 C47.9253243,137.787805 48.0553228,137.493896 48.252393,136.97541 L49.202701,134.472282 C49.368873,134.034809 49.4438576,133.81287 49.4966106,133.601105 C49.6714492,133.676843 49.8549543,133.755596 50.3813541,133.95568 L54.4158294,135.4874 C54.610262,135.561254 54.6671599,135.583109 54.9049252,135.664122 C54.809593,135.451603 54.7741731,135.373227 54.6445514,135.129433 C53.1384528,134.678019 51.1907361,134.021621 49.4476257,133.388209 C49.3504094,133.350905 49.2068458,133.314732 49.0979485,133.282703 L49.403916,132.184688 C49.6895359,132.311672 49.6895359,132.311672 50.7476107,132.722768 C50.9194348,132.611987 50.9989412,132.549437 51.1831999,132.40625 L50.1948345,132.030951 C49.7652742,131.86817 49.5437115,131.792809 49.2396281,131.714433 L49.6793621,130.556129 C49.9476489,130.704591 50.1876751,130.804445 50.6978722,130.9985 L52.6990955,131.75852 Z" id="Fill-50" fill="#5699D3"></path>
                <path d="M63.2254325,136.259062 L61.9469254,138.662713 L63.5479795,138.967549 L63.2254325,136.259062 Z M63.8140054,142.203566 C63.8238024,141.781919 63.814759,141.550937 63.7849913,141.24497 L63.6926735,140.477414 L61.2660347,140.015449 L60.8982708,140.695209 C60.7226786,141.015117 60.6126509,141.267578 60.5101594,141.574299 L58.5176026,141.195231 C58.6939483,140.963872 58.8096282,140.773961 59.1242622,140.234374 L61.9393893,135.458348 C62.1722562,135.070237 62.297733,134.829457 62.3870363,134.590185 L64.6094456,135.013339 C64.622257,135.271828 64.6395901,135.504695 64.723995,135.988138 L65.595927,141.466155 C65.6716652,141.948468 65.7413746,142.323767 65.806939,142.583011 L63.8140054,142.203566 Z" id="Fill-52" fill="#5699D3"></path>
                <path d="M68.1664307,142.769643 C67.5703217,142.720658 67.215746,142.699934 66.8860397,142.690137 C66.9629083,142.392083 67.0115165,142.013769 67.059371,141.434993 L67.4358015,136.875254 C67.48554,136.270856 67.4991051,135.898194 67.4813951,135.479185 L69.3639242,135.63443 C69.2663311,136.078685 69.2380706,136.319841 69.1823031,136.993572 L68.8288579,141.276734 L70.918631,141.449312 C71.6526515,141.509978 71.946938,141.525427 72.3572811,141.506963 L72.2201233,143.16529 C71.9043588,143.095581 71.4827115,143.043581 70.7916469,142.986307 L68.1664307,142.769643 Z" id="Fill-54" fill="#5699D3"></path>
                <path d="M74.5232069,143.114459 C73.9252138,143.123879 73.5702614,143.138198 73.2413086,143.160806 C73.2884095,142.856723 73.2997138,142.475395 73.2906704,141.894735 L73.2175698,137.319924 C73.2077728,136.713265 73.1847875,136.34098 73.1260056,135.926116 L75.0149404,135.895971 C74.9614338,136.347386 74.9565353,136.590426 74.9674627,137.266041 L75.0356648,141.563899 L77.1325972,141.530363 C77.8688786,141.518682 78.1639187,141.505117 78.5701169,141.446712 L78.5964934,143.110314 C78.2754536,143.072256 77.8504151,143.061329 77.1570897,143.072633 L74.5232069,143.114459 Z" id="Fill-56" fill="#5699D3"></path>
                <path d="M85.1398646,138.088271 C85.6451631,138.009141 85.9047833,137.652305 85.8282914,137.164341 C85.75293,136.684665 85.4398032,136.479683 84.9092585,136.562957 L83.5648102,136.774345 L83.8044596,138.298529 L85.1398646,138.088271 Z M87.0095822,142.05793 C86.9150036,141.792281 86.7571213,141.4573 86.3803141,140.788468 C85.9891881,140.086854 85.8554216,139.905987 85.6120041,139.751119 C85.4066441,139.616976 85.1816902,139.581933 84.9077513,139.624889 L84.0343121,139.762047 L84.2551211,141.166405 C84.3466853,141.748572 84.4133802,142.062452 84.5267992,142.447925 L82.6860957,142.73769 C82.6755451,142.33526 82.652183,142.076017 82.5527059,141.442228 L81.8288592,136.836895 C81.7455848,136.305975 81.6785131,135.992095 81.5628332,135.588911 C81.9422782,135.546709 82.2599267,135.505637 82.8420939,135.414073 L85.0682712,135.064396 C86.4549219,134.846225 87.3732012,135.438942 87.5665033,136.671854 C87.6622124,137.279643 87.5661265,137.786072 87.2823907,138.155342 C87.0988855,138.385571 86.9342208,138.508034 86.5363123,138.711132 C86.9945099,138.779334 87.2221015,138.945129 87.5917494,139.509963 C87.7631967,139.763931 87.9286151,140.036362 88.4595366,140.90038 C88.5910423,141.125333 88.7274465,141.323157 89.0126896,141.743297 L87.0095822,142.05793 Z" id="Fill-58" fill="#5699D3"></path>
                <path d="M90.2142526,133.98021 C90.246658,134.3378 90.2986574,134.628695 90.4463659,135.24402 L91.531194,139.761933 C91.6706127,140.343346 91.7625536,140.651197 91.8982043,140.992961 L90.0439357,141.438347 C90.0156752,141.097714 89.9470963,140.73937 89.8118225,140.174537 L88.7269943,135.656624 C88.5747642,135.024342 88.4994028,134.784316 88.3599841,134.425596 L90.2142526,133.98021 Z" id="Fill-60" fill="#5699D3"></path>
                <path d="M96.4790501,136.87028 C96.0592869,137.007815 95.9217522,137.062075 95.6775811,137.178508 L95.1994127,135.721397 C95.517438,135.662615 95.7175227,135.606094 96.2940378,135.416937 L96.9526969,135.20065 C97.3724602,135.062738 97.6746596,134.954595 98.025844,134.803118 C98.0876403,135.129433 98.1603641,135.406386 98.3359563,135.941452 L98.6385326,136.863498 C98.8303275,137.448302 98.9249061,137.709052 99.0986142,138.071541 C98.7406473,138.508636 98.5533741,138.688373 98.223291,138.933674 C97.7477602,139.290134 97.1787812,139.586304 96.5698607,139.786011 C95.5242205,140.129282 94.6146078,140.108935 93.8353704,139.707636 C93.0041336,139.287496 92.3368079,138.421217 91.9664064,137.293058 C91.2561247,135.127926 92.113738,133.323021 94.1884388,132.642132 C95.2174994,132.304513 96.1052573,132.368947 96.8649008,132.848998 C97.1708683,133.031373 97.3837644,133.235225 97.6452686,133.587163 L96.0928227,134.525412 C95.9047959,134.258633 95.7544498,134.134663 95.5276118,134.054027 C95.2566874,133.951535 94.9578792,133.958318 94.612347,134.071736 C93.5584171,134.417645 93.2332324,135.372474 93.6872851,136.755731 C93.9386156,137.521779 94.3060027,138.057599 94.7544033,138.311566 C95.1123702,138.513535 95.5671766,138.537651 96.0856634,138.367334 C96.5220062,138.224147 96.846814,138.01728 97.1821725,137.678908 L96.874321,136.740282 L96.4790501,136.87028 Z" id="Fill-62" fill="#5699D3"></path>
                <path d="M103.575461,128.881901 C103.677576,129.225926 103.797401,129.52398 104.052876,130.074118 L106.009636,134.287195 C106.247025,134.797768 106.38682,135.058141 106.613281,135.421006 L104.922924,136.205895 C104.817041,135.853957 104.69797,135.555903 104.445886,135.013301 L103.737488,133.489118 L101.088533,134.719015 L101.796931,136.243952 C102.03432,136.754902 102.188434,137.046174 102.400199,137.378141 L100.710219,138.163029 C100.607727,137.819005 100.488656,137.52095 100.232804,136.970436 L98.276044,132.757736 C98.0243367,132.215511 97.8770051,131.939688 97.6727755,131.623547 L99.3623793,130.838659 C99.4867257,131.229784 99.6137098,131.543664 99.8401709,132.030876 L100.446077,133.335757 L103.095032,132.105483 L102.488749,130.800978 C102.236665,130.258376 102.075392,129.951279 101.885481,129.66679 L103.575461,128.881901 Z" id="Fill-64" fill="#5699D3"></path>
                <path d="M110.482338,131.602333 C110.753263,132.046588 110.966159,132.363106 111.223141,132.683392 L109.587421,133.681176 C109.420119,133.305877 109.249802,132.993504 108.965312,132.527394 L106.690527,128.798137 L105.817088,129.330942 C105.351354,129.615054 105.230022,129.699082 104.731506,130.064208 L103.869371,128.650806 C104.131629,128.531358 104.552523,128.305274 105.003561,128.030205 L108.244857,126.052723 C108.762967,125.737336 109.049717,125.541773 109.367366,125.297225 L110.229501,126.710627 C109.874171,126.876799 109.576494,127.038073 109.043688,127.36288 L108.207553,127.873076 L110.482338,131.602333 Z" id="Fill-66" fill="#5699D3"></path>
                <path d="M113.916296,128.014191 C114.13296,128.241028 114.276147,128.328071 114.484898,128.386852 C114.807822,128.467489 115.186513,128.36349 115.538074,128.095204 C116.068242,127.690137 116.206154,127.213853 115.91149,126.82838 C115.748333,126.61473 115.496249,126.512992 115.253962,126.566876 C115.056515,126.608701 114.847764,126.691976 114.004846,127.073681 C113.265927,127.419966 112.982568,127.505501 112.590688,127.52095 C111.925623,127.549588 111.338934,127.266983 110.912765,126.708932 C110.10263,125.648598 110.446278,124.32789 111.803538,123.291294 C112.678107,122.623216 113.55117,122.381683 114.317596,122.614172 C114.663505,122.709881 114.904285,122.853445 115.293527,123.177499 L113.954354,124.451482 C113.530069,124.066763 113.139696,124.070154 112.616311,124.469946 C112.196171,124.790985 112.059767,125.255211 112.301677,125.572106 C112.449009,125.764654 112.663035,125.830218 112.96222,125.765408 C113.147232,125.722075 113.147232,125.722075 114.086236,125.266892 C114.693649,124.976751 115.114166,124.841477 115.501901,124.806811 C116.234791,124.738232 116.835045,125.010287 117.319242,125.644076 C117.71376,126.160678 117.885207,126.727772 117.804947,127.279794 C117.700195,127.970481 117.246519,128.633284 116.440528,129.24861 C115.855346,129.695879 115.181615,130.013904 114.646549,130.084367 C114.155192,130.15483 113.674009,130.053092 113.229753,129.770864 C113.03419,129.658199 112.878946,129.526316 112.588804,129.246349 L113.916296,128.014191 Z" id="Fill-68" fill="#5699D3"></path>
                <path d="M121.113918,119.215903 C121.468116,118.847386 121.459827,118.406522 121.104121,118.063628 C120.754443,117.727516 120.381028,117.753139 120.008365,118.140496 L119.065217,119.120571 L120.176421,120.189948 L121.113918,119.215903 Z M125.001438,121.249152 C124.765557,121.094285 124.437358,120.922838 123.733105,120.618001 C122.997577,120.295077 122.782043,120.231774 122.494163,120.255889 C122.249615,120.272846 122.049153,120.380613 121.857358,120.58032 L121.244293,121.2175 L122.268078,122.20285 C122.69274,122.611309 122.935781,122.82119 123.259081,123.060086 L121.967386,124.402648 C121.716432,124.088768 121.54084,123.895843 121.078875,123.451211 L117.719261,120.218962 C117.33228,119.846301 117.089239,119.636419 116.753504,119.385466 C117.030457,119.122831 117.259179,118.897878 117.667638,118.473217 L119.229881,116.849933 C120.203174,115.838207 121.292524,115.755686 122.19121,116.621211 C122.634712,117.047756 122.864564,117.509345 122.861173,117.975078 C122.85439,118.268987 122.797116,118.466434 122.602306,118.868487 C123.008505,118.646171 123.290356,118.640896 123.926407,118.867733 C124.216172,118.96608 124.512719,119.08289 125.456998,119.45103 C125.698155,119.550507 125.926123,119.625869 126.407683,119.788272 L125.001438,121.249152 Z" id="Fill-70" fill="#5699D3"></path>
                <path d="M130.547325,114.611437 C130.284314,114.87897 130.078954,115.114474 129.621133,115.702669 L127.943964,117.855743 C127.539273,118.37536 127.397216,118.572053 127.181683,118.876513 C126.940149,118.622922 126.697862,118.41191 126.226099,118.044523 L122.493447,115.137459 C122.069915,114.807753 121.819715,114.634799 121.452705,114.415121 C121.684818,114.145704 121.840817,113.959561 122.256058,113.426003 L123.954328,111.245045 C124.31644,110.780442 124.483743,110.537025 124.699653,110.189609 L125.97816,111.185133 C125.699323,111.473013 125.493963,111.708517 125.137126,112.166338 L123.753113,113.944112 L124.758058,114.72674 L125.907697,113.250034 C126.259258,112.798619 126.379837,112.629056 126.658674,112.187062 L127.923239,113.172035 C127.63875,113.466698 127.444317,113.688637 127.07693,114.160399 L125.926538,115.637105 L127.075423,116.531644 L128.448885,114.767435 C128.853576,114.247818 129.074386,113.936576 129.268818,113.615913 L130.547325,114.611437 Z" id="Fill-72" fill="#5699D3"></path>
                <path d="M130.121947,110.878337 C130.404553,111.014364 130.569218,111.046016 130.785128,111.027929 C131.115588,110.990248 131.433613,110.760019 131.668741,110.385473 C132.023317,109.819886 131.985636,109.325893 131.574163,109.06778 C131.346948,108.92497 131.074893,108.918565 130.867272,109.053838 C130.696955,109.161982 130.530406,109.313458 129.875139,109.966464 C129.304652,110.549761 129.069148,110.729498 128.70779,110.881728 C128.094724,111.141348 127.445862,111.082566 126.85126,110.709527 C125.720462,110.000377 125.579536,108.642742 126.486888,107.196557 C127.071693,106.264337 127.80496,105.731533 128.604168,105.680287 C128.961758,105.649012 129.237204,105.699127 129.715749,105.866053 L128.907874,107.528524 C128.375446,107.317136 128.01145,107.457308 127.661773,108.014982 C127.380675,108.463005 127.415341,108.945318 127.753337,109.15746 C127.959074,109.285951 128.18252,109.272763 128.439503,109.106968 C128.597762,109.001839 128.597762,109.001839 129.317464,108.245964 C129.785082,107.761768 130.130614,107.487452 130.482175,107.31902 C131.144225,106.997227 131.801754,107.04169 132.47737,107.465221 C133.028262,107.810753 133.387359,108.281761 133.505677,108.827 C133.649994,109.510528 133.457822,110.290141 132.918988,111.149261 C132.527485,111.773253 132.008245,112.307188 131.53196,112.560779 C131.096371,112.799298 130.61029,112.872775 130.094817,112.764255 C129.872501,112.726951 129.680706,112.657995 129.310681,112.497475 L130.121947,110.878337 Z" id="Fill-74" fill="#5699D3"></path>
                <path d="M137.411548,102.584895 C137.208072,102.899905 137.054334,103.172336 136.724628,103.840792 L135.516584,106.289282 C135.224935,106.879738 135.125458,107.101301 134.975865,107.443818 C134.687985,107.243357 134.408017,107.085852 133.87182,106.821333 L129.627463,104.727795 C129.145527,104.49003 128.865559,104.370959 128.461998,104.229656 C128.634576,103.918791 128.749879,103.705141 129.049064,103.098482 L130.272557,100.618717 C130.532931,100.090434 130.647857,99.8180023 130.789537,99.4340362 L132.242882,100.150723 C132.027725,100.489095 131.874365,100.761527 131.617006,101.282274 L130.62035,103.303465 L131.76283,103.867168 L132.591052,102.188117 C132.844267,101.674906 132.928672,101.484619 133.1118,100.995147 L134.550073,101.704674 C134.330771,102.050959 134.184947,102.307565 133.920052,102.843761 L133.091829,104.523189 L134.397843,105.167528 L135.387339,103.161409 C135.678611,102.570953 135.832348,102.220899 135.958202,101.867831 L137.411548,102.584895 Z" id="Fill-76" fill="#5699D3"></path>
                <path d="M135.035929,96.8992946 C135.211898,96.4192428 135.026508,96.0186972 134.562659,95.8487573 C134.107099,95.6818319 133.775508,95.855163 133.590496,96.3597073 L133.122124,97.6370823 L134.570572,98.1683799 L135.035929,96.8992946 Z M139.413299,97.1939575 C139.135215,97.1476103 138.765567,97.122741 137.99801,97.1272627 C137.194657,97.1280163 136.971964,97.1570305 136.718373,97.2949417 C136.501332,97.4091142 136.361537,97.5884742 136.266204,97.8488477 L135.961367,98.6789531 L137.295642,99.1680483 C137.849172,99.3711472 138.155893,99.4653488 138.548149,99.5535216 L137.906446,101.303036 C137.550363,101.116516 137.312221,101.010633 136.710083,100.789825 L132.33309,99.184251 C131.828545,98.9996157 131.521824,98.905414 131.113365,98.8108355 C131.260697,98.4592747 131.379391,98.1612206 131.582113,97.6076914 L132.358336,95.4926749 C132.84178,94.1746047 133.805276,93.6602635 134.977147,94.0902 C135.554792,94.3019654 135.950817,94.6316714 136.135075,95.0593471 C136.247741,95.3314016 136.274494,95.535254 136.258291,95.9813933 C136.540897,95.6143835 136.796749,95.4956893 137.469727,95.4470813 C137.774941,95.4207048 138.092966,95.408647 139.106201,95.3645606 C139.366574,95.3585317 139.605847,95.3359233 140.111899,95.2903296 L139.413299,97.1939575 Z" id="Fill-78" fill="#5699D3"></path>
                <path d="M139.11969,90.6827362 C139.363108,90.6699248 139.363108,90.6699248 139.739538,90.6623887 C139.393252,90.4721012 139.346905,90.4430871 139.196559,90.3624504 L135.439414,88.1649133 C135.078056,87.9618144 134.85687,87.8465115 134.576148,87.751933 L135.053186,85.772567 C135.277763,85.9511734 135.453356,86.0740124 135.983523,86.4244427 L140.623905,89.4321145 C141.002219,89.6744013 141.268245,89.8277616 141.468707,89.9208329 L140.941177,92.1108339 C140.712078,92.1002834 140.405357,92.1153556 139.966376,92.1613261 L134.463483,92.7333188 C133.934069,92.7841877 133.703463,92.8177235 133.340221,92.8817806 L133.815374,90.9103275 C134.092705,90.9416025 134.439744,90.9449937 134.773595,90.9276606 L139.11969,90.6827362 Z" id="Fill-80" fill="#5699D3"></path>
                <path d="M142.955852,80.9980105 C142.865418,81.3620058 142.808144,81.6694802 142.713188,82.4083983 L142.365772,85.1161319 C142.281744,85.7695148 142.259512,86.0114248 142.228991,86.3829563 C141.892125,86.2872474 141.576361,86.2292191 140.983266,86.1531041 L136.290132,85.5505901 C135.756949,85.4820112 135.453996,85.4605333 135.025943,85.4578956 C135.088493,85.1078421 135.128058,84.868193 135.21397,84.1978537 L135.566285,81.4558307 C135.641269,80.8714034 135.661617,80.5767405 135.67066,80.1671515 L137.27812,80.3736416 C137.184295,80.7632598 137.12702,81.0707342 137.053166,81.6468718 L136.766039,83.881336 L138.029851,84.0437397 L138.26837,82.1872127 C138.341093,81.6197417 138.35918,81.4124979 138.373876,80.8898669 L139.964002,81.0940962 C139.869047,81.4927578 139.81441,81.782899 139.738295,82.3759929 L139.499776,84.2325199 L140.943701,84.4179089 L141.228568,82.2004009 C141.312596,81.547018 141.343871,81.1668199 141.348015,80.7915203 L142.955852,80.9980105 Z" id="Fill-82" fill="#5699D3"></path>
                <path d="M141.563813,76.6406168 C141.575494,76.0772906 141.436829,75.6756146 141.131615,75.3572128 C140.775155,74.9943479 140.19864,74.791249 139.479692,74.7761768 C138.743034,74.7603509 138.202315,74.9137112 137.85716,75.2441708 C137.547424,75.5410945 137.400093,75.9540748 137.386904,76.57769 L137.362789,77.7130089 L141.53932,77.8019353 L141.563813,76.6406168 Z M137.057575,79.4229581 C136.468625,79.4105235 136.182252,79.4218277 135.782082,79.473827 C135.806952,79.1275416 135.82014,78.9112545 135.835589,78.1919303 L135.873646,76.3813737 C135.896632,75.3153873 136.209382,74.4638039 136.784766,73.8952025 C137.422324,73.2761089 138.33872,72.9746635 139.491373,72.999156 C140.678316,73.024402 141.624102,73.391035 142.268443,74.0636351 C142.828001,74.6563522 143.105331,75.485704 143.0831,76.5170241 L143.044665,78.3449139 C143.030347,79.0122387 143.033738,79.2549023 143.043535,79.6192744 C142.663337,79.5593621 142.377717,79.5360001 141.779723,79.5231887 L137.057575,79.4229581 Z" id="Fill-84" fill="#5699D3"></path>
            </g>
            <g id="Group" transform="translate(26.666667, 26.666667)" fill="#FFFFFF">
                <g id="6686-logo" transform="translate(10.000000, 28.000000)">
                    <path d="M43.6273194,45.9728702 L43.6273194,33.4063283 L42.6647347,33.8132759 L42.6647347,30.8452714 L44.5312423,29.8645277 L47.1483526,29.8645277 L47.1483526,31.0487452 L51.8559513,31.0487452 L51.8559513,29.8645277 L55.6262966,29.8645277 L55.6262966,31.0487452 L60.2925655,31.0487452 L60.2925655,32.6765356 L58.366063,32.6765356 L60.1645764,45.9362449 L57.4474747,45.9362449 L57.2301599,44.3003155 L55.4489784,44.3003155 L55.4489784,45.9742267 L52.0506014,45.9742267 L52.0506014,44.3003155 L50.2507548,44.3003155 L50.0321068,45.9362449 L43.6273194,45.9728702 Z M47.1536854,45.7137802 L49.1348499,32.6765356 L47.1536854,32.6765356 L47.1536854,45.7137802 Z M51.7799578,32.6765356 L50.4467381,42.7918964 L52.054601,42.7918964 L52.054601,32.6765356 L51.7799578,32.6765356 Z M57.0328434,42.7918964 L55.6996237,32.6765356 L55.4449787,32.6765356 L55.4449787,42.7918964 L57.0328434,42.7918964 Z" id="Path_225"></path>
                    <path d="M63.6482795,32.1393648 L61.2764816,32.1393648 L61.2764816,30.6323022 L67.9425801,30.6323022 L67.9425801,29.8468933 L72.2235485,29.8468933 L72.2235485,30.6323022 L78.9029792,30.6323022 L78.9029792,32.1393648 L68.1798932,32.1393648 L66.825342,33.9692725 L74.623344,33.9692725 L74.1047215,32.7579252 L77.4377707,32.7579252 L78.611004,35.4709091 L61.9724223,35.4709091 L61.9724223,34.1958067 L63.6482795,32.1393648 Z M62.3937197,36.2725959 L77.9603928,36.2725959 L77.9603928,46 L73.8074135,46 L73.8074135,43.1798531 L66.5466991,43.1798531 L66.5466991,46 L62.3937197,46 L62.3937197,36.2725959 Z M66.5466991,37.7796585 L66.5466991,39.046622 L73.8074135,39.046622 L73.8074135,37.7796585 L66.5466991,37.7796585 Z M66.5466991,41.8016573 L73.8074135,41.8016573 L73.8074135,40.4248179 L66.5466991,40.4248179 L66.5466991,41.8016573 Z" id="Path_226"></path>
                    <path d="M80,16.1463242 C80.0144577,18.7610351 78.9784109,21.2682899 77.1318826,23.0868586 C75.2853543,24.9054273 72.788696,25.8773865 70.2206811,25.7774174 C64.4771707,25.7774174 60.2375321,21.8707204 60.2375321,15.9754062 C60.3278932,13.5383326 61.138186,11.1855672 62.5626672,9.22414556 L68.8541309,0 L76.3081622,0 L67.1089464,14.7708413 C67.005161,14.9349116 66.9137941,15.1067777 66.8356363,15.2849518 C66.6937141,15.6930707 66.613256,16.1206769 66.59699,16.5532718 C66.5660565,17.4931642 66.9136119,18.405163 67.5592038,19.0781576 C68.2047957,19.7511522 69.0924526,20.1267953 70.0166985,20.1181328 C71.2687103,20.1850362 72.4548092,19.5434831 73.1005717,18.4500859 C73.7463343,17.3566887 73.7463343,15.9899539 73.1005717,14.8965568 C72.4548092,13.8031596 71.2687103,13.1616065 70.0166985,13.2285099 C69.6458642,13.2353262 69.2776512,13.2932791 68.9221251,13.4007844 L72.7511321,7.56786883 C77.5027271,7.56786883 80,11.5437469 80,16.1354723" id="Path_224"></path>
                    <path d="M19.7609823,16.1463242 C19.7755772,18.7607904 18.7397118,21.2678261 16.8934781,23.0863526 C15.0472445,24.904879 12.5509374,25.877007 9.98314904,25.7774174 C4.23963862,25.7774174 0,21.8707204 0,15.9754062 C0.0903611567,13.5383326 0.900653889,11.1855672 2.32513514,9.22414556 L8.61659886,0 L16.0666305,0 L6.86741463,14.7708413 C6.76555816,14.9349131 6.67640762,15.1068023 6.60077069,15.2849518 C6.4581359,15.6929273 6.37722029,16.1205759 6.36079114,16.5532718 C6.32985762,17.4931642 6.67741308,18.405163 7.32300497,19.0781576 C7.96859685,19.7511522 8.85625372,20.1267953 9.78049965,20.1181328 C11.0325115,20.1850362 12.2186103,19.5434831 12.8643729,18.4500859 C13.5101354,17.3566887 13.5101354,15.9899539 12.8643729,14.8965568 C12.2186103,13.8031596 11.0325115,13.1616065 9.78049965,13.2285099 C9.40967377,13.2354261 9.04147394,13.293377 8.68592629,13.4007844 L12.5162665,7.56786883 C17.2691947,7.56786883 19.7636487,11.5437469 19.7636487,16.1354723" id="Path_221"></path>
                    <path d="M40.3873765,16.1463242 C40.4018343,18.7610351 39.3657874,21.2682899 37.5192592,23.0868586 C35.6727309,24.9054273 33.1760725,25.8773865 30.6080577,25.7774174 C24.8645472,25.7774174 20.6249086,21.8707204 20.6249086,15.9754062 C20.7154341,13.5383643 21.5257104,11.1856468 22.9500438,9.22414556 L29.2415075,0 L36.6942055,0 L27.4949897,14.7708413 C27.3909785,14.9347756 27.2996019,15.1066597 27.2216796,15.2849518 C27.0797574,15.6930707 26.9992993,16.1206769 26.9830333,16.5532718 C26.9520998,17.4931642 27.2996553,18.405163 27.9452471,19.0781576 C28.590839,19.7511522 29.4784959,20.1267953 30.4027418,20.1181328 C31.6547536,20.1850362 32.8408525,19.5434831 33.4866151,18.4500859 C34.1323776,17.3566887 34.1323776,15.9899539 33.4866151,14.8965568 C32.8408525,13.8031596 31.6547536,13.1616065 30.4027418,13.2285099 C30.0319047,13.2352928 29.6636873,13.2932464 29.3081685,13.4007844 L33.1371754,7.56786883 C37.8901036,7.56786883 40.3845577,11.5437469 40.3845577,16.1354723" id="Path_222"></path>
                    <path d="M41.4737981,17.8948424 C41.3547406,15.206266 42.8991535,12.7283753 45.3401352,11.6916045 C43.8093271,10.6554719 42.8965507,8.90266007 42.9136754,7.0320545 C42.9136754,2.78216508 46.4347086,0.0746070597 50.4690314,0.0746070597 C54.43536,0.0746070597 58.0257206,2.71298399 58.0257206,6.9628734 C58.0562535,8.848953 57.1549844,10.6248791 55.6259252,11.6916045 C58.0685888,12.7210685 59.6048314,15.2090141 59.4562653,17.8948424 C59.4562653,22.7266669 54.9433167,25.7774174 50.5330259,25.7774174 C46.0880715,25.7774174 41.467132,22.7266669 41.467132,17.8948424 M47.7585958,17.3522456 C47.7420399,18.112789 48.0316944,18.8471784 48.560383,19.3850957 C49.0890717,19.923013 49.8108618,20.2177236 50.5583571,20.2008788 C52.0323962,20.1406087 53.1877726,18.8908766 53.1568023,17.3902274 C53.1732297,16.6470625 52.8971029,15.9280311 52.3898379,15.3930601 C51.882573,14.8580891 51.1862335,14.5515396 50.4556992,14.5415942 C49.7240553,14.5255081 49.0185257,14.8183922 48.5067692,15.350647 C47.9950127,15.8829017 47.7227195,16.6070068 47.7545961,17.3508891 M48.1652278,7.44849754 C48.1500522,8.05282545 48.3793288,8.63700376 48.7994589,9.06446758 C49.2195891,9.4919314 49.7937451,9.72521016 50.387705,9.70976969 C51.1968109,9.7486629 51.9635789,9.34031504 52.3932749,8.64168893 C52.8229709,7.94306281 52.848717,7.06289254 52.4606169,6.3395024 C52.0725167,5.61611226 51.3309741,5.16209061 50.521027,5.15195659 C49.2520436,5.13797712 48.2045231,6.15799353 48.1625613,7.44849754" id="Path_223"></path>
                </g>
            </g>
        </g>
    </g>
</svg>