<?xml version="1.0" encoding="UTF-8"?><svg version="1.1" width="10px" height="36px" viewBox="0 0 10.0 36.0" xmlns="http://www.w3.org/2000/svg" xmlns:xlink="http://www.w3.org/1999/xlink"><defs><clipPath id="i0"><path d="M375,0 L375,812 L0,812 L0,0 L375,0 Z"></path></clipPath><clipPath id="i1"><path d="M5,26 C7.76141313,26 10,28.2385869 10,31 C10,33.7614131 7.76141313,36 5,36 C2.23858687,36 0,33.7614131 0,31 C0,28.2385869 2.23858687,26 5,26 Z M4.90529118,33.5296822 C4.27793192,33.5296822 3.76946282,33.9631392 3.76946282,34.4977416 L6.04128085,34.4977416 C6.04128085,33.9631392 5.53265043,33.5296822 4.90529118,33.5296822 Z M1.33098887,31.1023068 L2.03303759,33.2629779 C2.61926117,33.0724633 2.93721568,32.4344572 2.74331344,31.837748 C2.54957251,31.2410389 1.91721245,30.9117922 1.33098887,31.1023068 Z M7.19633812,31.7833199 C7.00243588,32.3798677 7.29216003,33.0088401 7.84337796,33.1879013 L8.54542668,31.0272302 C7.99420874,30.8481691 7.39007905,31.1866107 7.19633812,31.7833199 Z M4.82118084,29.5496209 L3.63147282,30.4139539 C3.52484272,30.4913857 3.48031941,30.6286659 3.52097112,30.7540087 L3.97539926,32.1526214 C4.01621229,32.2779642 4.13300532,32.3628166 4.26463946,32.3628166 L5.73519923,32.3628166 C5.86699468,32.3628166 5.98378771,32.2779642 6.02443943,32.1526214 L6.47886756,30.7540087 C6.51968059,30.6286659 6.47499597,30.4913857 6.36836587,30.4139539 L5.17881916,29.5496209 C5.07218906,29.4721891 4.92781094,29.4721891 4.82118084,29.5496209 Z M3.89132118,27.4571544 L2.12216487,28.8823843 C2.50125827,29.352944 3.20459752,29.4152121 3.6930634,29.0217616 C4.1816906,28.6281497 4.27041458,27.9277141 3.89132118,27.4571544 Z M6.02374577,27.4907566 C5.69401516,27.9447008 5.83807066,28.6115825 6.34557187,28.9803517 C6.85307308,29.3491208 7.53189224,29.2800774 7.86178416,28.8261332 L6.02374577,27.4907566 Z M5,13 L9,17 L5,21 L1,17 L5,13 Z M5,0 L9,4 L5,8 L1,4 L5,0 Z"></path></clipPath></defs><g transform="translate(-12.0 -100.0)"><g clip-path="url(#i0)"><g transform="translate(-20.0 88.0)"><g transform="translate(32.0 11.999999999999968)"><g clip-path="url(#i1)"><polygon points="0,0 10,0 10,36 0,36 0,0" stroke="none" fill="#B70047"></polygon></g></g></g></g></g></svg>