<?xml version="1.0" encoding="UTF-8"?><svg version="1.1" width="20px" height="20px" viewBox="0 0 20.0 20.0" xmlns="http://www.w3.org/2000/svg" xmlns:xlink="http://www.w3.org/1999/xlink"><defs><clipPath id="i0"><path d="M1800,0 L1800,4357 L0,4357 L0,0 L1800,0 Z"></path></clipPath><clipPath id="i1"><path d="M16,0 C18.209139,-4.05812251e-16 20,1.790861 20,4 L20,12 C20,14.209139 18.209139,16 16,16 L4,16 C1.790861,16 2.705415e-16,14.209139 0,12 L0,4 C-2.705415e-16,1.790861 1.790861,4.05812251e-16 4,0 L16,0 Z"></path></clipPath></defs><g transform="translate(-90.0 -337.0)"><g clip-path="url(#i0)"><g transform="translate(90.0 337.0)"><g transform="translate(0.0 2.0)"><g clip-path="url(#i1)"><path d="M4,0 L16,0 C18.209139,-4.05812251e-16 20,1.790861 20,4 L20,12 C20,14.209139 18.209139,16 16,16 L4,16 C1.790861,16 2.705415e-16,14.209139 0,12 L0,4 C-2.705415e-16,1.790861 1.790861,4.05812251e-16 4,0 Z" stroke="#B70047" stroke-width="2" fill="none" stroke-miterlimit="5"></path></g></g><g transform="translate(0.0 1.0)"><text transform="translate(5.926 13.0)" font-family="PingFangTC-Semibold, PingFang TC" font-size="12.0" font-weight="500" fill="#B70047" text-anchor="center" line-spacing="18.0">A</text></g></g></g></g></svg>