<?xml version="1.0" encoding="UTF-8"?>
<svg width="12px" height="12px" viewBox="0 0 12 12" version="1.1" xmlns="http://www.w3.org/2000/svg" xmlns:xlink="http://www.w3.org/1999/xlink">
    <title>2F9647C8-5FB2-428E-887C-FA22DDCD85A4</title>
    <g id="9.0~9.10" stroke="none" stroke-width="1" fill="none" fill-rule="evenodd">
        <g id="9.2世界杯-滾球" transform="translate(-261.000000, -221.000000)" fill="#B70047">
            <g id="odds/tabletop/title_2" transform="translate(0.000000, 200.000000)">
                <g id="Group-2" transform="translate(203.000000, 12.000000)">
                    <g id="fifa_soccer" transform="translate(58.000000, 9.000000)">
                        <path d="M3.53695226,5.26966141 C3.92495885,5.46881248 4.19465871,5.8410832 4.26294787,6.27183647 C4.33151922,6.70541158 4.18795678,7.14540636 3.87670494,7.45482068 L3.52735792,7.8021887 C3.19501263,7.34625054 2.99261428,6.80495184 2.94922809,6.23733953 C2.9174821,5.83113623 2.96827569,5.4245802 3.09391928,5.04236251 L3.53695226,5.26966141 Z M6.01257542,2.94171723 L5.93335153,3.43201124 C5.86400417,3.86255287 5.59324611,4.23404758 5.20467515,4.43214047 C4.81363505,4.6313621 4.35070791,4.63065664 3.96023218,4.43030628 L3.52178473,4.2053354 C3.61561178,4.07538985 3.72051465,3.95115852 3.83578788,3.83581597 C4.42457025,3.24696934 5.21370512,2.93931867 6.01257542,2.94171723 Z M6.86139276,5.70464743 C6.94322687,5.78648067 6.96297994,5.91169965 6.91056377,6.01483775 L6.54710742,6.72805681 C6.49455016,6.83119492 6.38153442,6.88876037 6.26724884,6.87063008 L5.4766325,6.74548165 C5.36227637,6.7274219 5.27254103,6.63768751 5.25448109,6.52333261 L5.12926078,5.73265415 C5.11120083,5.61836979 5.16869635,5.50535526 5.27183556,5.45279856 L5.98506223,5.08934608 C6.08827198,5.03678939 6.21342174,5.05668333 6.29532641,5.13851658 L6.86139276,5.70464743 Z M6.94089883,3.08922871 C7.06929374,3.13063915 7.19627772,3.17896309 7.32029874,3.2382922 C7.63176221,3.38665022 7.91564195,3.5876355 8.16389562,3.83581597 C8.41095,4.08286772 8.61207851,4.36681497 8.76177851,4.67996822 L8.7725016,4.70226073 C8.82837455,4.82155384 8.87373605,4.9436688 8.91317162,5.06684194 L8.42181418,5.14324315 C7.99077413,5.21026176 7.55373761,5.06761795 7.24537819,4.75919127 C6.93504346,4.44885985 6.79260977,4.00844179 6.8625215,3.57514887 L6.94089883,3.08922871 Z M7.7880936,8.48316827 L7.56312032,8.0387291 C7.36629515,7.64952737 7.36678898,7.18977973 7.56488398,6.80107182 C7.76410773,6.41003589 8.1390632,6.13850472 8.57271347,6.07106284 L9.05835751,5.99557872 C9.05877992,6.79161867 8.75119651,7.57735891 8.16424835,8.16423026 C8.04721145,8.28126591 7.92100349,8.38764913 7.7880936,8.48316827 Z M4.19113138,8.46778927 L4.54407629,8.11668232 C4.85335281,7.80924329 5.29081261,7.66779875 5.72157048,7.73594609 C6.15515021,7.8046578 6.52925911,8.07731771 6.72735411,8.46877691 L6.9500699,8.90877169 C6.57003508,9.0325092 6.16566166,9.0824557 5.76199371,9.05071005 C5.19218839,9.00718323 4.64862643,8.80302339 4.19113138,8.46778927 Z M5.6894012,9.98791234 C6.60072287,10.0590932 7.51543078,9.81415778 8.26294312,9.29924325 C8.4637189,9.16203148 8.65405377,9.00379702 8.82893892,8.82891373 C10.0259745,7.63182034 10.3399071,5.80178913 9.61017256,4.27503475 L9.58117789,4.21471801 C9.38745678,3.82777374 9.13489976,3.47751334 8.82858619,3.1711325 C8.50435377,2.84697408 8.13285509,2.58397897 7.72502489,2.38990719 C7.17610138,2.1274059 6.58795393,2 6.00410982,2 C4.96411106,2 3.93779835,2.40451019 3.17109732,3.1711325 C2.99628271,3.34594524 2.83818766,3.53634863 2.70175043,3.73571134 C2.18584275,4.48476771 1.94090477,5.39911313 2.01208635,6.30971962 C2.08460831,7.2591969 2.49631858,8.15371892 3.17109732,8.828561 C3.8460877,9.50361473 4.74076035,9.91539115 5.6894012,9.98791234 Z"></path>
                    </g>
                </g>
            </g>
        </g>
    </g>
</svg>