<?xml version="1.0" encoding="UTF-8"?>
<svg width="8px" height="30px" viewBox="0 0 8 30" version="1.1" xmlns="http://www.w3.org/2000/svg" xmlns:xlink="http://www.w3.org/1999/xlink">
    <title>D7A452AC-D12E-41C4-8BA4-94B3146BF88F</title>
    <g id="9.0~9.10" stroke="none" stroke-width="1" fill="none" fill-rule="evenodd">
        <g id="9.1.2世界杯-首頁_點選" transform="translate(-16.000000, -198.000000)" fill="#B70047">
            <g id="card/推薦賽事/2022world" transform="translate(8.000000, 166.000000)">
                <g id="fifa_pattern" transform="translate(8.000000, 32.000000)">
                    <path d="M4,8.33333333 C6.2091305,8.33333333 8,6.46784428 8,4.16666667 C8,1.86548906 6.2091305,0 4,0 C1.7908695,0 0,1.86548906 0,4.16666667 C0,6.46784428 1.7908695,8.33333333 4,8.33333333 Z M3.92423294,2.05859816 C3.42234554,2.05859816 3.01557025,1.69738399 3.01557025,1.25188202 L4.83302468,1.25188202 C4.83302468,1.69738399 4.42612034,2.05859816 3.92423294,2.05859816 Z M1.0647911,4.08141098 L1.62643007,2.28085175 C2.09540894,2.43961392 2.34977254,2.97128569 2.19465075,3.46854331 C2.03965801,3.96580094 1.53376996,4.24017315 1.0647911,4.08141098 Z M5.7570705,3.51390009 C5.6019487,3.0167769 5.83372802,2.49263322 6.27470237,2.3434156 L6.83634135,4.14397483 C6.39536699,4.29319245 5.91206324,4.01115771 5.7570705,3.51390009 Z M3.85694467,5.37531591 L2.90517825,4.65503845 C2.81987417,4.59051191 2.78425553,4.47611174 2.8167769,4.37165941 L3.18031941,3.20614884 C3.21296983,3.10169651 3.30640426,3.03098618 3.41171157,3.03098618 L4.58815938,3.03098618 C4.69359574,3.03098618 4.78703017,3.10169651 4.81955154,3.20614884 L5.18309405,4.37165941 C5.21574447,4.47611174 5.17999677,4.59051191 5.09469269,4.65503845 L4.14305533,5.37531591 C4.05775125,5.43984245 3.94224875,5.43984245 3.85694467,5.37531591 Z M3.11305694,7.11903802 L1.69773189,5.93134645 C2.00100661,5.53921331 2.56367801,5.48732322 2.95445072,5.81519869 C3.34535248,6.14320858 3.41633167,6.72690488 3.11305694,7.11903802 Z M4.81899661,7.09103619 C4.55521213,6.71274937 4.67045653,6.15701457 5.07645749,5.84970694 C5.48245846,5.54239931 6.02551379,5.59993547 6.28942733,5.97822229 L4.81899661,7.09103619 Z M4,19.1666667 L7.2,15.8333333 L4,12.5 L0.8,15.8333333 L4,19.1666667 Z M4,30 L7.2,26.6666667 L4,23.3333333 L0.8,26.6666667 L4,30 Z" id="Shape"></path>
                </g>
            </g>
        </g>
    </g>
</svg>