<?xml version="1.0" encoding="UTF-8"?>
<svg width="46px" height="46px" viewBox="0 0 46 46" version="1.1" xmlns="http://www.w3.org/2000/svg" xmlns:xlink="http://www.w3.org/1999/xlink">
    <title>5089DF92-DE3A-47DA-84E2-2752D7CA6935</title>
    <defs>
        <path d="M23,41 C32.941112,41 41,32.941112 41,23 C41,13.058888 32.941112,5 23,5 C13.058888,5 5,13.058888 5,23 C5,32.941112 13.058888,41 23,41 Z" id="path-1"></path>
        <filter x="-15.3%" y="-9.7%" width="130.6%" height="130.6%" filterUnits="objectBoundingBox" id="filter-2">
            <feOffset dx="0" dy="2" in="SourceAlpha" result="shadowOffsetOuter1"></feOffset>
            <feGaussianBlur stdDeviation="1.5" in="shadowOffsetOuter1" result="shadowBlurOuter1"></feGaussianBlur>
            <feComposite in="shadowBlurOuter1" in2="SourceAlpha" operator="out" result="shadowBlurOuter1"></feComposite>
            <feColorMatrix values="0 0 0 0 0   0 0 0 0 0   0 0 0 0 0  0 0 0 0.1 0" type="matrix" in="shadowBlurOuter1"></feColorMatrix>
        </filter>
    </defs>
    <g id="9.11~9.13" stroke="none" stroke-width="1" fill="none" fill-rule="evenodd">
        <g id="9.13.0-世界盃-專區-特色-優惠" transform="translate(-329.000000, -962.000000)">
            <g id="Group" transform="translate(329.000000, 962.000000)">
                <g id="Mask">
                    <use fill="black" fill-opacity="1" filter="url(#filter-2)" xlink:href="#path-1"></use>
                    <path stroke="#EEEEEE" stroke-width="0.75" d="M23,5.375 C27.8670027,5.375 32.2732527,7.34774876 35.462752,10.537248 C38.6522512,13.7267473 40.625,18.1329973 40.625,23 C40.625,27.8670028 38.6522512,32.2732527 35.462752,35.462752 C32.2732527,38.6522512 27.8670027,40.625 23,40.625 C18.1329972,40.625 13.7267473,38.6522512 10.537248,35.462752 C7.34774876,32.2732527 5.375,27.8670027 5.375,23 C5.375,18.1329973 7.34774876,13.7267473 10.537248,10.537248 C13.7267473,7.34774876 18.1329973,5.375 23,5.375 Z" stroke-linejoin="square" fill="#FFFFFF" fill-rule="evenodd"></path>
                </g>
                <g id="arrow_downstyle_2_small" transform="translate(13.000000, 13.000000)" fill="#B70047">
                    <path d="M10.018626,9.5 L16,15.0502626 L15.1577811,15.8953096 L10.0153867,11.124429 L4.83897962,15.9 L4,15.0502626 L10.018626,9.5 Z M10.018626,4 L16,9.55026261 L15.1577811,10.3953096 L10.0153867,5.62442897 L4.83897962,10.4 L4,9.55026261 L10.018626,4 Z" id="Combined-Shape"></path>
                </g>
            </g>
        </g>
    </g>
</svg>