<?xml version="1.0" encoding="UTF-8"?>
<svg width="16px" height="16px" viewBox="0 0 16 16" version="1.1" xmlns="http://www.w3.org/2000/svg" xmlns:xlink="http://www.w3.org/1999/xlink">
    <title>4437B362-4994-40EC-A212-38E075BF90FA</title>
    <defs>
        <path d="M8,16 C12.41824,16 16,12.41824 16,8 C16,3.58172 12.41824,0 8,0 C3.58172,0 0,3.58172 0,8 C0,12.41824 3.58172,16 8,16 Z" id="path-1"></path>
        <filter x="-109.4%" y="-96.9%" width="318.8%" height="318.8%" filterUnits="objectBoundingBox" id="filter-2">
            <feOffset dx="0" dy="2" in="SourceAlpha" result="shadowOffsetOuter1"></feOffset>
            <feGaussianBlur stdDeviation="5.5" in="shadowOffsetOuter1" result="shadowBlurOuter1"></feGaussianBlur>
            <feColorMatrix values="0 0 0 0 0.294117647   0 0 0 0 0.333333333   0 0 0 0 0.431372549  0 0 0 0.2 0" type="matrix" in="shadowBlurOuter1"></feColorMatrix>
        </filter>
    </defs>
    <g id="9.0~9.10" stroke="none" stroke-width="1" fill="none" fill-rule="evenodd">
        <g id="9.9.1.1世界杯-分組賽-小組表_展開" transform="translate(-124.000000, -352.000000)">
            <g id="app/小組/card" transform="translate(16.000000, 312.000000)">
                <g id="flag/app/2/n" transform="translate(76.000000, 40.000000)">
                    <g id="Group" transform="translate(32.000000, 0.000000)">
                        <g id="Oval">
                            <use fill="black" fill-opacity="1" filter="url(#filter-2)" xlink:href="#path-1"></use>
                            <use fill="#B70047" fill-rule="evenodd" xlink:href="#path-1"></use>
                        </g>
                        <path d="M12.6687235,5.67824881 C12.4310065,5.39407682 12.0668988,5.24466437 11.6908055,5.21219433 C11.4672734,5.19284538 11.2377719,5.22790445 11.0320846,5.31257791 C11.0493279,5.21138554 11.0633791,5.12272577 11.074485,5.04909153 C11.2302208,5.00877604 11.3162548,4.96470787 11.3162548,4.91855931 C11.3162548,4.72685892 9.83787921,4.57142857 8.01416758,4.57142857 C6.19040882,4.57142857 4.71208033,4.72679978 4.71208033,4.91855931 C4.71208033,4.96297495 4.79166596,5.00542702 4.93635082,5.04447091 C4.947764,5.11990312 4.96218348,5.21127168 4.98003935,5.31604523 C4.72410049,5.21109869 4.43429407,5.18932484 4.15460394,5.23137176 C3.7576026,5.29115153 3.39483012,5.52888071 3.20558962,5.86301457 C2.95860462,6.29937877 3.03887514,6.83680523 3.19086289,7.28888694 C3.5282347,8.2920278 4.3556808,9.12161068 5.21663317,9.75933052 C5.6250546,10.0618667 6.06010196,10.3339585 6.52375453,10.5557484 C6.70894223,10.644349 6.90173286,10.7287889 7.10085401,10.7928418 C6.77969339,11.277778 6.35408685,11.6198224 6.0863666,11.8047064 C5.98303441,11.8480249 5.9006291,11.8990248 5.84263326,11.9589243 C5.83520847,11.963025 5.83122008,11.9652199 5.83122008,11.9652199 L5.83698809,11.9652199 C5.77734442,12.0292151 5.74488435,12.1030298 5.74488435,12.1882814 C5.74488435,12.1890322 5.74506843,12.189783 5.74506843,12.1904762 L10.2904848,12.1904762 C10.2904848,12.1897253 10.2906688,12.1889745 10.2906688,12.1882814 C10.2906688,12.0162168 10.1599693,11.8902549 9.93538933,11.7991732 C9.66606681,11.61216 9.24311501,11.269879 8.92451487,10.7862144 C9.14388431,10.7140751 9.35563511,10.6175654 9.55880906,10.5181 C10.0576801,10.2737911 10.5223695,9.96789848 10.9562544,9.63203466 C11.8500376,8.94021287 12.7160795,7.9993654 12.9165202,6.89263388 C12.9936521,6.46684166 12.9615596,6.02828913 12.6688597,5.67827513 L12.6687235,5.67824881 Z M7.39129034,10.22435 C7.3593832,10.3114483 7.32305569,10.3954239 7.28323303,10.4763476 C7.23162741,10.4607529 7.18051347,10.4437726 7.12976868,10.4259245 C6.92260476,10.3530916 6.72392345,10.2590645 6.52995468,10.1596583 C6.03538775,9.90638904 5.57289761,9.59634157 5.14791941,9.24940305 C4.31340447,8.56791667 3.44621582,7.60594001 3.42406681,6.51000227 C3.41259221,5.9453548 3.8687592,5.56554702 4.42326983,5.56135999 C4.65815928,5.55960172 4.8953893,5.63254974 5.06111415,5.7822653 C5.0635686,5.78440232 5.06565485,5.78682811 5.06804804,5.78902295 C5.3479738,7.18248443 6.02540358,9.62598793 7.40264776,10.1925872 C7.39884331,10.2032146 7.39522297,10.2137267 7.39135726,10.2243534 L7.39129034,10.22435 Z M12.0339424,8.00260679 C11.5609747,8.70211729 10.8837177,9.28499589 10.1651002,9.75637332 C9.84761535,9.96458967 9.51355804,10.1522387 9.16423205,10.3091181 C9.02739674,10.3706308 8.88724378,10.4246336 8.74335377,10.4696792 L8.74329241,10.4696792 C8.70475785,10.3908403 8.66947495,10.3089998 8.6384255,10.2242613 C8.63370069,10.2113813 8.62934393,10.1986741 8.62474197,10.1858517 C9.99186986,9.60700967 10.6652783,7.17512795 10.9439473,5.78731472 C10.993957,5.7396639 11.0526801,5.69738632 11.1213436,5.66203744 C11.3968553,5.5203004 11.7752734,5.53098476 12.0615297,5.66353911 C13.0137329,6.10429475 12.4555936,7.37886207 12.0339786,8.00268308 L12.0339424,8.00260679 Z" id="Shape" fill="#FFFFFF" fill-rule="nonzero"></path>
                    </g>
                </g>
            </g>
        </g>
    </g>
</svg>