<?xml version="1.0" encoding="UTF-8"?>
<svg width="16px" height="16px" viewBox="0 0 16 16" version="1.1" xmlns="http://www.w3.org/2000/svg" xmlns:xlink="http://www.w3.org/1999/xlink">
    <title>1C9F6512-63EB-4F71-BCF9-52704420ACF0</title>
    <g id="9.0~9.10" stroke="none" stroke-width="1" fill="none" fill-rule="evenodd">
        <g id="9.6世界杯-賽果聯盟盤" transform="translate(-20.000000, -146.000000)" fill="#FFFFFF">
            <g id="sport/tab_1/result/soccer" transform="translate(0.000000, 132.000000)">
                <g id="sport/tab_1/sport_sp" transform="translate(8.000000, 6.000000)">
                    <g id="trophy" transform="translate(12.000000, 8.000000)">
                        <path d="M13.8826806,1.80562102 L13.8826806,0.61309207 C13.8826806,0.274512785 13.6084458,0 13.2698043,0 L2.72898048,0 C2.39074407,0 2.11610421,0.274107301 2.11610421,0.61309207 L2.11610421,1.79994425 C0.940580774,1.84130363 0,2.80757242 0,3.99442459 L0,4.82769457 C0,6.36610152 1.19010608,7.62512988 2.69859996,7.73542158 C2.70103041,7.74028739 2.70346085,7.74555868 2.70589129,7.75082998 C3.40950404,9.19597557 4.68953644,10.3078132 6.24663916,10.787501 C6.79186815,10.9553714 7.37152839,11.0461999 7.97225246,11.0461999 L8.02734246,11.0461999 C8.62806653,11.0461999 9.20772678,10.9557769 9.75295577,10.787501 C11.3096534,10.3078132 12.5896858,9.19597557 13.2937036,7.75082998 C13.2953239,7.74799159 13.2965392,7.74474771 13.2981594,7.74190932 C14.8082736,7.63323957 16,6.37299475 16,4.83377683 L16,4.00050686 C16,2.81365468 15.0594192,1.84698041 13.8838958,1.80562102 L13.8826806,1.80562102 Z M1.09815438,4.880813 L1.09815438,3.83912415 C1.09815438,3.33997314 1.50241778,2.93529993 2.00106332,2.93529993 L2.11610421,2.93529993 L2.11610421,5.18452064 C2.11610421,5.67272359 2.17646016,6.14673459 2.28866554,6.60006589 C1.59315426,6.33933957 1.09815438,5.66785778 1.09815438,4.88040751 L1.09815438,4.880813 Z M11.3959341,4.59413569 L10.3030456,5.71408297 L10.3156029,7.73096125 C10.3176283,8.06102537 9.95873313,8.26701133 9.67558672,8.0987354 L7.99939239,7.1020553 L6.35074306,8.09711346 C6.06962202,8.26660584 5.71072685,8.06508021 5.70870149,7.73623255 L5.69573913,5.71408297 L4.60325578,4.59413569 C4.24881643,4.23082187 4.46188511,3.61854076 4.96458138,3.55406878 L6.68371351,3.33389087 L7.44727715,1.75655744 C7.67087774,1.29430548 8.32871718,1.29430548 8.55231778,1.75655744 L9.31588141,3.33389087 L11.0350135,3.55406878 C11.5381149,3.61894625 11.7507785,4.23082187 11.3967442,4.59413569 L11.3959341,4.59413569 Z M14.9002253,4.88648977 C14.9002253,5.67434552 14.4044153,6.3462328 13.7080939,6.60655364 C13.8215145,6.15119491 13.8822755,5.67475101 13.8822755,5.18411516 L13.8822755,2.94057123 L13.9973164,2.94057123 C14.4959619,2.94057123 14.9002253,3.34524443 14.9002253,3.84439545 L14.9002253,4.88608429 L14.9002253,4.88648977 Z M9.1951695,12.0769406 L9.1951695,11.7691781 L9.48074635,11.7691781 C9.62616775,11.7691781 9.75822173,11.7099774 9.85381908,11.6142832 C9.94941644,11.5189944 10.0085572,11.3868066 10.0085572,11.2408323 C10.0085572,11.2047442 10.0049115,11.169467 9.99762019,11.1358119 C9.38150333,11.3559898 8.71799286,11.4760131 8.02653232,11.4760131 L7.97144231,11.4760131 C7.27998177,11.4760131 6.61606623,11.3559898 6.00035444,11.1358119 C5.99346819,11.1698725 5.98982253,11.2051496 5.98982253,11.2408323 C5.98982253,11.5323754 6.2259804,11.7691781 6.51722828,11.7691781 L6.80321021,11.7691781 L6.80321021,12.0769406 L9.19476442,12.0769406 L9.1951695,12.0769406 Z M5.10109117,12.3891634 C4.77986784,12.4252515 4.52993747,12.6981424 4.52993747,13.0294229 L4.52993747,13.6522466 L11.4692524,13.6522466 L11.4692524,13.0294229 C11.4692524,12.6981424 11.2189169,12.424846 10.8976936,12.3891634 C10.8737943,12.386325 10.8494899,12.3851086 10.8251854,12.3851086 L5.17359933,12.3851086 C5.14929492,12.3851086 5.12499051,12.386325 5.10109117,12.3891634 Z M13.1657004,13.9644694 L2.83308438,13.9644694 C2.45110003,13.9644694 2.14162384,14.2722319 2.14162384,14.6517651 L2.14162384,15.3127043 C2.14162384,15.6922375 2.45110003,16 2.83308438,16 L13.1652953,16 C13.5472797,16 13.8567559,15.6922375 13.8567559,15.3127043 L13.8567559,14.6517651 C13.8567559,14.2722319 13.5472797,13.9644694 13.1652953,13.9644694 L13.1657004,13.9644694 Z"></path>
                    </g>
                </g>
            </g>
        </g>
    </g>
</svg>