<?xml version="1.0" encoding="UTF-8"?>
<svg width="100%" height="100%" viewBox="0 0 45 45" version="1.1" xmlns="http://www.w3.org/2000/svg" xmlns:xlink="http://www.w3.org/1999/xlink">
                <path d="M21.6383754,1.69632138 C21.2628484,1.69632138 17.4646856,0.352822463 17.0992854,0.243041141 C16.8556852,0.169853593 16.5789013,0.129318978 16.2689335,0.121437296 C14.5330749,0.745091928 13.6279742,1.10170351 13.5536312,1.19127205 C13.4792883,1.28084059 13.5148147,1.51379229 13.6602104,1.89012715 C14.0909024,3.66326218 14.3062485,4.69757053 14.3062485,4.9930522 C14.3062485,5.43627471 14.6647851,8.13194118 14.5412477,8.8085354 C14.4177104,9.48512962 12.5930008,13.3970591 11.2813415,14.2111563 C11.2238389,14.3790229 11.2238389,14.5821936 11.2813415,14.8206685 C11.5611453,16.6489435 11.7496642,18.1101313 11.8468981,19.2042318 C11.9927488,20.8453827 12.1369217,24.9515715 12.1369217,26.2623161 C12.1369217,27.1361458 12.0958762,29.7330623 12.0137851,34.0530656 C11.9025271,34.5706004 11.8233635,35.1535718 11.7762945,35.8019796 C11.705691,36.7745913 11.705691,37.1008612 11.5758279,37.7981042 C11.4612529,38.3764333 11.2813415,38.3764333 11.2813415,38.5698047 C11.2813415,38.7631762 11.3296647,39.2249615 11.4041381,39.3946976 C11.4786115,39.5644336 11.0840512,39.6775898 11.0272714,39.9877642 C10.9894182,40.1945471 11.0327723,40.4462688 11.1573337,40.7429291 C11.0706255,41.7299902 11.0272714,42.2843144 11.0272714,42.4059017 C11.0272714,42.5882827 11.8468981,43.5187838 12.9012727,43.8619427 C13.9556474,44.2051016 18.2518595,44.807059 20.0587903,44.807059 C21.8657211,44.807059 27.0203515,44.9299366 28.528261,44.6388531 C30.0361705,44.3477697 33.0620214,44.0892746 33.9909578,42.5758308 C33.9909578,41.9356791 33.9508887,41.1626132 33.8707507,40.256633 C33.9876187,39.8042173 33.9200995,39.5780094 33.6681931,39.5780094 C33.56252,39.2301234 33.9909578,38.4699608 33.4343911,38.0465544 C33.4343911,38.0465544 33.4713146,36.8729584 33.2346745,35.6307562 C33.0769143,34.8026214 33.0089735,33.6283601 33.030852,32.1079722 C32.8324137,31.3440489 32.7994207,29.1200451 32.9318729,25.4359608 C33.1305512,19.9098343 33.6246116,14.8206685 33.6681931,14.5560368 C33.6681931,14.3550139 33.5902591,14.1565671 33.4343911,13.9606966 C32.0960435,12.2980686 31.373354,11.3304538 31.2663224,11.0578521 C31.1057751,10.6489496 30.1995371,8.9740392 30.5583335,6.48928876 C30.7975312,4.83278846 31.1028536,3.06678289 31.4743008,1.19127205 C30.2000659,0.478048881 29.2390011,0.121437296 28.5911064,0.121437296 C27.6192644,0.121437296 23.6527365,1.69632138 22.7515639,1.69632138 C21.8503914,1.69632138 22.0139023,1.69632138 21.6383754,1.69632138 Z"></path>
</svg>
