<?xml version="1.0" encoding="UTF-8"?>
<svg width="100%" height="100%" viewBox="0 0 45 45" version="1.1" xmlns="http://www.w3.org/2000/svg" xmlns:xlink="http://www.w3.org/1999/xlink">
                <path d="M33.9113146,40.7484476 C33.96441,41.4456377 33.9909578,42.0547654 33.9909578,42.5758308 C33.7571318,42.9567852 33.3904459,43.2582264 32.9485515,43.5006887 C29.1526143,43.975721 25.479026,44.2129179 21.9255028,44.2129179 C18.7375611,44.2129179 15.5563808,44.0220155 12.381962,43.6402106 C11.5896252,43.2213329 11.0272714,42.5569711 11.0272714,42.4059017 C11.0272714,42.2929992 11.0646532,41.8069715 11.1394169,40.9478187 L11.1422714,40.9117212 L11.8545071,41.0469511 C14.9647511,41.6109066 18.3217496,41.8928844 21.9255028,41.8928844 C26.0555062,41.8928844 29.9935884,41.5225402 33.7397494,40.7818518 L33.9113146,40.7484476 Z M33.3548735,36.4326981 C33.4437073,37.2187631 33.4380939,37.860602 33.4351884,38.0124515 L33.4343911,38.0465544 C33.6055396,38.176755 33.6835451,38.3387997 33.7125809,38.5109077 C29.5662043,38.8889609 25.564262,39.0772381 21.704007,39.0772381 C18.2220919,39.0772381 14.7482427,38.9240581 11.2824595,38.6176981 L11.2813415,38.5698047 C11.2813415,38.3764333 11.4612529,38.3764333 11.5758279,37.7981042 C11.6675996,37.3053764 11.694518,36.9979115 11.7273307,36.5166849 C14.8099273,36.698456 18.1360271,36.7899294 21.704007,36.7899294 C25.7530299,36.7899294 29.6175842,36.672128 33.2976698,36.4365253 L33.3548735,36.4326981 Z M32.8832183,30.7676598 C32.9121276,31.3935983 32.9613388,31.8403691 33.030852,32.1079722 C33.0264742,32.4121971 33.0256926,32.7025636 33.0285073,32.9790715 C29.220017,33.1204079 25.5327708,33.1917603 21.9664557,33.1917603 C18.6482485,33.1917603 15.3373666,33.1299905 12.0338101,33.0064509 C12.0486266,32.1956993 12.0620734,31.4557845 12.0738662,30.7853091 C15.133134,30.8650333 18.4310532,30.9044516 21.9664557,30.9044516 C25.6375698,30.9044516 29.1570424,30.861949 32.5248737,30.7769438 L32.8832183,30.7676598 Z M21.9232249,25.2365752 C25.4722447,25.2365752 29.1410256,25.3140674 32.9295676,25.4690519 C32.8986234,26.3656421 32.8764265,27.174254 32.8640482,27.8962162 C29.3807955,27.7951927 25.7336965,27.7449759 21.9232249,27.7449759 C18.4227087,27.7449759 15.1550121,27.7873554 12.120135,27.8721144 C12.1297194,27.2490024 12.1348479,26.776108 12.1364092,26.4529606 L12.1369217,26.2623161 C12.1369217,26.0521427 12.1332149,25.7700957 12.1263887,25.4378623 C15.3849836,25.3024697 18.6505414,25.2365752 21.9232249,25.2365752 Z M21.8359728,18.6980238 C25.5195292,18.6980238 29.3320986,18.8465034 33.2736809,19.1434627 C33.2125205,20.020973 33.1495113,20.9864441 33.0918686,22.0058553 C29.5140241,21.7100784 25.7617011,21.5626434 21.8359728,21.5626434 C18.3255198,21.5626434 15.04921,21.6805359 12.0070434,21.9163211 C11.9596919,20.8464695 11.903421,19.8402426 11.8468981,19.2042318 L11.8344823,19.0678533 L11.8344823,19.0678533 C15.1604129,18.8202076 18.4944786,18.6980238 21.8359728,18.6980238 Z M21.7113543,12.9880238 C25.677186,12.9880238 29.4660514,13.1629044 33.0779506,13.5126656 C33.1904595,13.657055 33.3097557,13.805862 33.4343911,13.9606966 C33.5902591,14.1565671 33.6681931,14.3550139 33.6681931,14.5560368 C33.652755,14.6497786 33.5807898,15.3489145 33.485451,16.4584159 C29.4181324,16.2247248 25.4936646,16.107878 21.7113543,16.107878 C18.3082473,16.107878 14.9084237,16.2024698 11.5118834,16.3916535 C11.4437527,15.9032847 11.3668053,15.3791003 11.2813415,14.8206685 C11.2238389,14.5821936 11.2238389,14.3790229 11.2813415,14.2111563 C11.5494886,14.0447275 11.8390776,13.7488309 12.1311905,13.3775764 C15.101855,13.1177422 18.2957755,12.9880238 21.7113543,12.9880238 Z M20.2675735,7.01073389 C20.9604721,7.47054199 21.7119366,7.89842661 22.5219671,8.29438775 C23.3350447,7.91463538 24.0758737,7.51201096 24.7444543,7.08651452 C26.6184694,7.17470947 28.5293018,7.34194955 30.4744106,7.58575869 C30.4653322,9.12117783 30.9095559,10.2355054 31.1461852,10.7799476 C28.0342428,10.4654008 24.799981,10.3081489 21.4447118,10.3081489 C18.7533448,10.3081489 16.203248,10.4093271 13.7944215,10.6116836 C14.2067482,9.77744749 14.4947092,9.06341961 14.5412477,8.8085354 C14.5916032,8.53274668 14.5618628,7.92149215 14.5089563,7.26405732 C16.1704391,7.12161707 18.0430964,7.03368441 20.2239846,7.00999958 Z M15.9191633,2.46672122 C16.366213,3.30628913 16.9452051,4.09878893 17.6561395,4.84422064 C17.6670493,4.8556598 17.6779843,4.8670852 17.6889446,4.87849685 C16.5309821,4.92010769 15.4037624,4.9790049 14.3063365,5.05403674 L14.3062485,4.9930522 C14.3062485,4.74074196 14.1492319,3.94972642 13.8351987,2.62000559 C14.3853062,2.57078225 14.9584047,2.52665234 15.5590511,2.48794414 Z M31.182774,2.70663228 C31.0355312,3.51165883 30.9001777,4.29340246 30.7777661,5.05371388 C29.6633278,4.98134189 28.5334778,4.92405807 27.3883138,4.88178941 C27.9807079,4.22174638 28.5558074,3.44028381 29.1131251,2.53909843 C29.797865,2.58628103 30.488126,2.64275161 31.182774,2.70663228 Z"></path>
</svg>
