<?xml version="1.0" encoding="UTF-8"?>
<svg width="100%" height="100%" viewBox="0 0 45 45" version="1.1" xmlns="http://www.w3.org/2000/svg" xmlns:xlink="http://www.w3.org/1999/xlink">
                <path d="M21,35 L21,40 C21.9851796,40.3534587 22.8697046,40.5301881 23.6535748,40.5301881 C24.437445,40.5301881 25.2195868,40.3534587 26,40 L26.0004986,44.8132947 C24.3483665,44.8505313 22.3535999,44.8252623 20.9978837,44.8128343 L21,40.0518669 C20.1508378,40.017289 19.3121545,40 18.4839502,40 L16,40 L16,35 C16.8645342,35.3015226 17.7083789,35.4522839 18.5315341,35.4522839 C19.3546892,35.4522839 20.1775112,35.3015226 21,35 Z M16,40 L15.999335,44.4360178 C14.643796,44.2480278 13.4040144,44.025566 12.9012727,43.8619427 C11.8468981,43.5187838 11.0272714,42.5882827 11.0272714,42.4059017 C11.0272714,42.2843144 11.0706255,41.7299902 11.1573337,40.7429291 C11.1087322,40.6271779 11.0724938,40.5182682 11.0486185,40.4162001 C11.4791606,40.5123803 11.9813369,40.5597871 12.5572208,40.5597871 C13.6997448,40.5597871 14.8473379,40.3731914 16,40 Z M33.916635,40.0291122 C33.9076297,40.0972365 33.8923349,40.1730768 33.8707507,40.256633 C33.9508887,41.1626132 33.9909578,41.9356791 33.9909578,42.5758308 C33.4780321,43.4115006 32.3257875,43.8645547 31.142774,44.151746 L31,40.0518669 C31.6751899,40.3251458 32.4888295,40.3578471 33.4409189,40.1499709 L33.796818,40.0637932 L33.916635,40.0291122 Z M26,29 L26,34.5244794 C26.8809296,34.7416934 27.733924,34.8070277 28.5589831,34.7204824 C29.3840422,34.6339371 30.1977145,34.3937763 31,34 L31,40 L26,40 L26,34.7878303 L21,35 L21,29 L26,29 Z M12.1163782,28.1954915 L13.1851008,28.2971046 L16,28.2971046 C15.7912327,29.2940941 15.686849,30.3617259 15.686849,31.5 C15.686849,32.6382741 15.7912327,33.7769765 16,34.9161072 C14.5735075,35.0279643 13.4259144,35.0279643 12.5572208,34.9161072 C12.3312192,34.8870061 12.10632,34.8480453 11.8825231,34.7992247 C11.9196252,34.5350761 11.9634161,34.287365 12.0137851,34.0530656 C12.0623457,31.4975886 12.0965434,29.5450639 12.1163782,28.1954915 Z M32.8535417,28.7769782 C32.8429951,30.5019817 32.9020985,31.6123131 33.030852,32.1079722 C33.0143681,33.2534771 33.0488707,34.2025012 33.1343597,34.9550446 C32.4226667,34.8859814 31.7113333,34.72778 31,34.4822528 C31.1665767,33.2951819 31.2498651,32.3010977 31.2498651,31.5 C31.2498651,30.6989023 31.1665767,29.8989434 31,29.1001233 L32.8535417,28.7769782 Z M30.779762,23 L30.779762,25.6498606 C30.779762,26.5350874 30.8531747,27.6851749 31,29.1001233 C30.0241536,28.8831268 29.1460486,28.8247111 28.3656852,28.9248762 C27.5853217,29.0250413 26.79676,29.0250413 26,28.9248762 L26,23.6467767 C26.7633406,23.7568942 27.5519023,23.7568942 28.3656852,23.6467767 C29.179468,23.5366591 29.9841603,23.3210669 30.779762,23 Z M30.8732872,0.869466718 L30.170299,5.77858486 L29.4712714,5.7784373 L30.6572714,5.8184373 L30.5583335,6.48928876 C30.213337,8.87847188 31.0379359,10.5189124 31.2446029,11.0050787 L31.2663224,11.0578521 C31.3119478,11.1740567 31.469447,11.416555 31.7388201,11.7853472 C31.3766831,11.8997536 31.0006821,12.043635 30.6127775,12.2153638 L30.7491895,12.2396145 L30.7491895,12.2396145 L30.7491895,17.5438842 C31.908553,17.6062487 32.7910646,17.6096897 33.3967242,17.5542073 C33.2842583,18.9449727 33.1588842,20.7190608 33.0563134,22.6549813 L30.7491895,23 C30.7695712,22.310637 30.779762,21.4773037 30.779762,20.5 C30.779762,19.8484642 30.7752328,19.1933425 30.7661742,18.534635 L30.7482714,17.5927552 L30.7491895,17.6244125 C29.90619,17.8748042 29.0203825,18 28.0917668,18 C27.2918107,18 26.4918546,17.9070926 25.6918986,17.7212779 C25.7040584,18.4290084 25.7106266,19.2344419 25.7106266,20.1366232 C25.7106266,21.3600894 25.8070844,22.5301405 26,23.6467767 C25.0617131,23.8822589 24.124023,24 23.1869297,24 C22.4586344,24 21.7299786,23.9258311 21.0009623,23.7774933 L21,28.9178893 C20.0841688,29.0273702 19.2508355,29.0273702 18.5,28.9178893 C17.7491645,28.8084084 16.9158312,28.6014802 16,28.2971046 L16,23 C16.8340647,23.2473901 17.667398,23.3710852 18.5,23.3710852 C19.124035,23.3710852 19.7484809,23.3015995 20.3733376,23.1626281 L20.373,17.7148418 L20.3401569,17.7241569 C19.5937321,17.9080523 18.8307764,18 18.0512896,18 C17.345421,18 16.6394564,17.9246 15.9333958,17.7738001 C15.7819004,18.7225265 15.7062078,19.5203619 15.7062078,20.1666461 L15.7062078,23 L12.0427227,22.7581014 C11.9888996,21.3940238 11.9180987,20.0054004 11.8468981,19.2042318 C11.7970937,18.6438206 11.7233398,17.9871 11.6256362,17.2340701 C12.2801757,17.2921991 12.7993492,17.3385363 13.1854573,17.3730682 C13.8186624,17.4296995 14.5303547,17.4420496 15.3205341,17.4101186 L15.3226078,11.4431628 C14.9998408,11.642729 14.4512763,11.742512 13.6769145,11.742512 C13.5202246,11.742512 13.3587055,11.7460262 13.1923573,11.7530547 C13.9064839,10.4949593 14.4742252,9.17560721 14.5412477,8.8085354 C14.6238138,8.35633458 14.4910422,7.00223462 14.3938928,6.02147347 C14.9292445,6.05071375 15.4646223,6.11511263 16,6.21353516 C15.8145872,7.49540749 15.7218808,8.4598183 15.7218808,9.10676758 C15.7218808,9.70760965 15.6070843,10.4221771 15.3774911,11.25047 L15.3226078,11.2645562 C16.059914,11.0881854 16.9043766,11 17.8559958,11 C18.807615,11 19.7596136,11.0881854 20.7119917,11.2645562 L20.9297167,7.42967256 C21.4326154,7.73309236 21.9633656,8.02133075 22.5219671,8.29438775 C24.4495321,7.39410783 25.971044,6.3652818 27.0865027,5.20790967 C28.2019615,4.05053754 29.2557307,2.47781938 30.2478105,0.489755181 L30.2129979,0.556646074 C30.4207704,0.646886215 30.6408669,0.751159763 30.8732872,0.869466718 Z M23.3553133,11.2645562 L20.7119917,11.2645562 C20.4865701,12.217689 20.3738594,13.2151153 20.3738594,14.2568351 C20.3738594,15.2301165 20.472247,16.2739742 20.6690222,17.3884084 L25.4607121,17.0181531 C25.6031633,16.3663238 25.6743889,15.6936061 25.6743889,15 L25.674,11.9788418 L25.4489251,11.8456476 C24.7510545,11.4582534 24.0531839,11.2645562 23.3553133,11.2645562 Z M29.4712714,5.7784373 L28.6909426,5.77858486 C27.9344076,5.77858486 27.1089561,5.8818006 26.214588,6.08823209 L26.2418495,6 C25.8877009,7.07168444 25.7106266,8.10727363 25.7106266,9.10676758 L25.71,11.9038418 L26.3235114,11.9453162 C26.9696793,11.9817721 27.6069839,12 28.235425,12 C28.8508559,12 29.4662867,12.0430867 30.0817175,12.1292602 L30.542,12.2018418 L30.4230896,11.9253068 C29.9037526,10.6848689 29.6440842,9.64594506 29.6440842,8.8085354 C29.6440842,8.03094071 29.6019264,7.17782705 29.5176107,6.24919442 L29.4712714,5.7784373 Z M15.1447346,0.530127233 C15.5831699,2.11038741 16.4203049,3.54841855 17.6561395,4.84422064 C18.0422101,5.24902484 18.4598872,5.6366008 18.9091707,6.00694853 C18.767538,6.0020585 18.6256668,6 18.4839502,6 C17.6506169,6 16.8226335,6.07117839 16,6.21353516 L16,3.00384178 L15.8575027,3.00723633 C15.1549075,3.02113911 14.5138075,3.0335854 13.9342027,3.04457522 C13.8556021,2.70315358 13.764181,2.31816817 13.6602104,1.89012715 C13.5148147,1.51379229 13.4792883,1.28084059 13.5536312,1.19127205 C13.6067333,1.12729452 14.0836915,0.927070544 14.9845056,0.590600112 Z"></path>
</svg>
