<?xml version="1.0" encoding="UTF-8"?>
<svg width="100%" height="100%" viewBox="0 0 45 45" version="1.1" xmlns="http://www.w3.org/2000/svg" xmlns:xlink="http://www.w3.org/1999/xlink">
                <path d="M20.7756094,7.33568055 C21.3238609,7.67371041 21.9059802,7.99327948 22.5219671,8.29438775 C23.1131824,8.01825738 23.6661983,7.73003406 24.1810149,7.4297178 L24.0219255,12.1349187 C23.9257487,19.9178569 23.9257487,27.3732697 24.0219255,34.5011572 C24.0852,39.1905755 24.3463686,42.6338823 24.8054313,44.8310777 L24.1177536,44.8334105 C22.6244684,44.8343491 21.139819,44.8108231 20.252648,44.8074575 L20.0887879,44.8073883 C20.588812,41.6480835 20.855559,38.4275919 20.8890288,35.1459135 C20.9054815,33.5327445 20.9152312,31.279845 20.918278,28.3872151 L20.9191505,27.1681791 C20.9192059,27.0287654 20.9192474,26.8880299 20.9192751,26.7459727 L20.9192751,25.8777682 L20.9192232,25.6557605 L20.9192232,25.6557605 L20.918278,24.0461927 C20.9154104,20.7763546 20.9066053,16.9398349 20.8918626,12.5366336 L20.8890288,11.7043925 Z M31.4743008,1.19127205 C31.1028536,3.06678289 30.7975312,4.83278846 30.5583335,6.48928876 C30.1995371,8.9740392 31.1057751,10.6489496 31.2663224,11.0578521 C30.5121879,14.3115737 30.1357952,17.9374766 30.1357952,21.9315847 C30.1357952,24.0207024 29.8735871,30.9616878 30.1357952,34.5460321 C30.3138076,36.9794348 30.9346125,40.0993443 31.9982096,43.9057605 C30.9623819,44.2569162 29.7743616,44.4226987 28.9034867,44.5713402 C28.1020926,42.2812233 27.6493923,39.4672942 27.5449608,36.1303554 C27.4785003,34.0067178 27.4827562,32.0816921 27.5216572,30.1138699 L27.5377986,29.373459 C27.6435454,24.9132992 27.9018563,20.0837163 27.9018563,12.1349187 C27.9018563,8.90821198 27.9903475,6.17239392 28.1673298,3.92746451 C28.8890267,2.9701321 29.5822989,1.82339769 30.2478105,0.489755181 L30.213919,0.557046186 C30.5930303,0.721749296 31.0131576,0.933157917 31.4743008,1.19127205 Z M15.1447346,0.530127233 C15.4304722,1.56001627 15.8855537,2.52949487 16.509979,3.43856304 C16.7506215,5.94100262 16.9163225,8.6965072 17.009098,11.7043925 C17.0863336,14.2084542 17.1489239,16.9124474 17.1985357,19.6061497 L17.2205179,20.8479007 C17.3153456,26.4256027 17.3552944,31.8194034 17.3552944,35.1459135 C17.3552944,38.0488559 16.8236123,41.1342805 15.7602481,44.4021874 C14.6029032,44.2366667 13.5603014,44.0495882 13.0310268,43.9009669 C14.01072,41.2241385 14.9318486,38.4659303 14.9963939,34.0996206 L15,33.6077798 L15,23.3710042 C15,19.6767566 14.5694732,15.483034 13.7084197,10.7898365 C14.1654079,9.87927629 14.4914635,9.08119576 14.5412477,8.8085354 C14.6647851,8.13194118 14.3062485,5.43627471 14.3062485,4.9930522 C14.3062485,4.69757053 14.0909024,3.66326218 13.6602104,1.89012715 C13.5148147,1.51379229 13.4792883,1.28084059 13.5536312,1.19127205 C13.6067333,1.12729452 14.0836915,0.927070544 14.9845056,0.590600112 Z"></path>
</svg>
