<?xml version="1.0" encoding="UTF-8"?>
<svg width="20px" height="20px" viewBox="0 0 20 20" version="1.1" xmlns="http://www.w3.org/2000/svg" xmlns:xlink="http://www.w3.org/1999/xlink">
    <title>541C1CA6-E19C-434D-8470-6709E71F7739</title>
    <g id="3.4-早盤簡易盤" stroke="none" stroke-width="1" fill="none" fill-rule="evenodd">
        <g id="3.4.6足球-聯盟盤複選示意" transform="translate(-10.000000, -412.000000)" fill="#DDDDDD">
            <g id="inplay/country" transform="translate(0.000000, 400.000000)">
                <g id="radio_n" transform="translate(10.000000, 12.000000)">
                    <path d="M10,2 C14.418278,2 18,5.581722 18,10 C18,14.418278 14.418278,18 10,18 C5.581722,18 2,14.418278 2,10 C2,5.581722 5.581722,2 10,2 Z M10,3.14285714 C6.21290457,3.14285714 3.14285714,6.21290457 3.14285714,10 C3.14285714,13.7870954 6.21290457,16.8571429 10,16.8571429 C13.7870954,16.8571429 16.8571429,13.7870954 16.8571429,10 C16.8571429,6.21290457 13.7870954,3.14285714 10,3.14285714 Z" id="Oval"></path>
                </g>
            </g>
        </g>
    </g>
</svg>